<?xml version="1.0" encoding="UTF-8" standalone="no"?>
<svg
   xmlns:dc="http://purl.org/dc/elements/1.1/"
   xmlns:cc="http://creativecommons.org/ns#"
   xmlns:rdf="http://www.w3.org/1999/02/22-rdf-syntax-ns#"
   xmlns:svg="http://www.w3.org/2000/svg"
   xmlns="http://www.w3.org/2000/svg"
   width="51.996689mm"
   height="59.481983mm"
   viewBox="0 0 51.996689 59.481983"
   version="1.1"
   id="svg8">
  <defs
     id="defs2" />
  <metadata
     id="metadata5">
    <rdf:RDF>
      <cc:Work
         rdf:about="">
        <dc:format>image/svg+xml</dc:format>
        <dc:type
           rdf:resource="http://purl.org/dc/dcmitype/StillImage" />
        <dc:title></dc:title>
      </cc:Work>
    </rdf:RDF>
  </metadata>
  <g
     id="layer1"
     transform="translate(-73.844258,-134.11211)">
    <g
       id="g847">
      <g
         id="g887">
        <g
           id="g927">
          <path
             style="fill:#ddbb88;stroke-width:0.264583"
             d="m 102.77307,192.67062 c -1.79326,-1.2692 -3.602537,-1.76398 -5.730057,-1.56697 -0.945885,0.0876 -1.984092,0.28881 -2.307127,0.44715 -0.485428,0.23795 -0.771358,0.16612 -1.647972,-0.414 -1.279253,-0.84657 -2.151312,-0.87703 -4.255975,-0.14867 -1.199168,0.415 -1.687531,0.47942 -1.954529,0.25783 -0.269392,-0.22357 -0.393591,-0.19726 -0.510819,0.10823 -0.174927,0.45585 -1.1106,0.54602 -1.366665,0.13169 -0.183095,-0.29625 0.209312,-5.40953 0.801475,-10.44368 1.445356,-12.2874 0.716848,-22.49158 -2.304508,-32.27917 -1.012416,-3.27969 -1.326902,-5.75499 -1.218552,-9.59114 l 0.08407,-2.97657 h -4.004387 c -3.222524,0 -4.06819,-0.0769 -4.331165,-0.39374 -0.264109,-0.31823 -0.247382,-0.42421 0.08723,-0.55261 0.227702,-0.0874 0.526529,-0.0893 0.664059,-0.004 0.258573,0.15981 6.43369,0.22706 7.244073,0.0789 0.251532,-0.046 0.735456,-0.3449 1.075386,-0.66425 0.800944,-0.75245 1.282171,-0.7329 1.989695,0.0808 0.801318,0.9216 2.274686,0.90995 3.2513,-0.0257 0.81773,-0.78343 1.825247,-0.68637 1.825247,0.17584 0,0.46002 0.2124,0.51465 2.116667,0.54441 1.164167,0.0182 2.600127,0.0479 3.191021,0.0661 0.800134,0.0246 1.217101,-0.11887 1.633619,-0.56224 0.723453,-0.77008 1.035484,-0.7503 2.087224,0.13229 0.86588,0.72663 0.87259,0.72759 4.98124,0.71666 4.11411,-0.011 4.1142,-0.011 4.82976,-0.72761 0.39357,-0.39416 0.89108,-0.71665 1.10558,-0.71665 0.43342,0 1.22155,0.69502 1.22155,1.07723 0,0.13805 1.44489,0.24569 3.29809,0.24569 3.28725,0 3.30105,-0.003 4.20211,-0.79375 1.04892,-0.92097 1.54322,-0.98063 2.51313,-0.30332 0.6594,0.46047 0.80388,0.4659 2.36549,0.0889 1.26495,-0.30537 1.73693,-0.32778 1.97115,-0.0936 0.19165,0.19166 0.21303,0.39022 0.0566,0.52578 -0.26345,0.22831 -2.66818,0.9934 -3.85285,1.22583 -0.79913,0.15679 -0.96607,0.8833 -1.18823,5.17093 -0.0716,1.38245 -0.18622,2.67761 -0.25464,2.87813 -0.30614,0.89727 -0.91844,4.33987 -1.15867,6.51458 -0.56703,5.13305 -0.63079,7.41953 -0.63963,22.9381 -0.007,13.15053 0.0569,16.18233 0.35547,16.74024 0.28183,0.5266 0.29315,0.75278 0.0499,0.99606 -0.24327,0.24327 -0.50942,0.19841 -1.17205,-0.19757 -0.73712,-0.44049 -1.37654,-0.51318 -4.56146,-0.51853 -4.21394,-0.007 -5.76126,0.38418 -7.53971,1.90646 -0.55609,0.476 -1.17074,0.85816 -1.36589,0.84926 -0.19515,-0.009 -0.93145,-0.4243 -1.63622,-0.9231 z m 1.37768,-5.44063 c 0.38946,-1.20757 1.03414,-6.52505 1.26343,-10.42113 0.10277,-1.74625 0.20057,-3.29406 0.21734,-3.43958 0.0168,-0.14552 0.12624,-3.00302 0.24326,-6.35 0.13327,-3.8114 0.45828,-7.91451 0.86974,-10.98021 1.10136,-8.20593 1.70491,-14.54392 1.49136,-15.66106 l -0.12768,-0.66791 -3.87895,-0.15616 c -2.13342,-0.0859 -4.18558,-0.22042 -4.560359,-0.29898 -0.38232,-0.0801 -0.901207,0.0179 -1.182168,0.22334 -0.519375,0.37978 -0.573966,0.88684 -1.056566,9.8139 -0.121119,2.24038 -0.352759,5.58344 -1.054148,15.21354 -0.05829,0.80036 -0.174101,2.52677 -0.257352,3.83646 -0.08325,1.30968 -0.220835,2.91703 -0.305745,3.57187 -0.08491,0.65485 -0.184764,1.60735 -0.221901,2.11667 -0.269927,3.70187 -0.49908,6.05793 -0.821523,8.44658 -0.204769,1.51691 -0.372308,3.92131 -0.372308,5.34309 v 2.58506 l 1.124479,-0.11821 c 0.618463,-0.065 1.493724,-0.17953 1.945023,-0.25448 0.944047,-0.15677 3.773708,0.50538 5.132578,1.20103 l 0.92604,0.47407 0.16822,-1.79088 c 0.0925,-0.98499 0.29827,-2.19414 0.45723,-2.68701 z m 1.76903,4.04239 c 0.13825,-0.12146 0.78714,-0.4085 1.44198,-0.63786 2.5031,-0.87669 3.90386,-1.04962 6.9569,-0.85886 l 2.99006,0.18683 -0.0166,-13.72057 c -0.022,-18.18121 0.54453,-27.48816 1.97058,-32.37193 0.14843,-0.50837 0.26989,-2.0237 0.26989,-3.36742 v -2.44311 l -2.31511,0.13049 c -2.19929,0.12396 -7.11668,0.83597 -7.54062,1.09184 -0.10914,0.0659 -0.19844,0.62064 -0.19844,1.23282 0,1.08718 -0.92226,9.05113 -1.72119,14.863 -0.75857,5.51821 -0.91549,7.68931 -0.92006,12.73004 -0.003,2.78141 -0.1187,5.65885 -0.25818,6.3943 -0.13947,0.73545 -0.26881,2.44834 -0.28742,3.80642 -0.0308,2.24915 -1.08224,10.4286 -1.47064,11.44076 -0.39946,1.04098 0.39473,2.14192 1.09884,1.52325 z m -19.059335,-1.63752 c 0.09208,-0.14898 0.212229,-0.77406 0.267005,-1.38906 0.12126,-1.36146 0.563927,-5.17438 0.913106,-7.86506 0.433547,-3.3408 0.771245,-6.87661 0.934985,-9.78958 0.08589,-1.52797 0.231047,-3.73063 0.322576,-4.8948 0.09153,-1.16416 0.173924,-4.91463 0.183098,-8.33437 0.01728,-6.44187 -0.01237,-6.72506 -1.465765,-13.99892 -0.27359,-1.36925 -0.497437,-2.75205 -0.497437,-3.07289 0,-0.49341 -0.18926,-0.60929 -1.227553,-0.7516 -2.462135,-0.33748 -2.697624,-0.27271 -2.898326,0.79713 -0.32715,1.74386 0.106351,5.38111 0.925562,7.76586 1.289593,3.75405 2.609224,10.1172 2.959769,14.27176 0.352193,4.17408 0.183291,14.51546 -0.304911,18.66887 -0.153945,1.30968 -0.326968,2.97656 -0.384497,3.70416 -0.05753,0.72761 -0.174444,2.18612 -0.259813,3.24115 -0.143835,1.7776 0.0606,2.41041 0.532201,1.64735 z m 3.749323,-0.1749 c 0.463538,-0.0809 1.207022,-0.0201 1.652187,0.13508 0.989161,0.34482 0.993333,0.33152 1.188905,-3.79034 0.07595,-1.60073 0.260716,-3.6248 0.410591,-4.49792 0.149875,-0.87313 0.332642,-2.65906 0.406146,-3.96875 0.07351,-1.30969 0.245555,-3.09562 0.382329,-3.96875 0.136773,-0.87312 0.317772,-2.83766 0.402219,-4.36562 0.08445,-1.52797 0.263649,-3.90922 0.398224,-5.29167 0.134578,-1.38245 0.370065,-4.77573 0.523309,-7.54063 0.153242,-2.76489 0.3986,-6.69395 0.54524,-8.73125 0.14664,-2.03729 0.265018,-4.70337 0.263065,-5.92463 l -0.0036,-2.22047 -2.976563,0.20753 c -1.637109,0.11415 -3.214687,0.20114 -3.505729,0.19331 -1.508621,-0.0406 -1.649904,0.10565 -1.534597,1.58811 0.05962,0.76651 0.270838,2.16756 0.469371,3.11345 0.359475,1.71266 0.723784,3.99126 1.121014,7.01145 0.236871,1.80096 0.247299,10.24813 0.0178,14.4198 -0.226399,4.11534 -0.709307,10.60155 -0.85689,11.50937 -0.07097,0.43656 -0.369656,2.99641 -0.663742,5.68854 -0.294085,2.69214 -0.598737,5.35694 -0.677003,5.92179 l -0.142301,1.027 0.868589,-0.18416 c 0.477724,-0.10129 1.247847,-0.25035 1.711385,-0.33124 z m -3.236057,-51.08182 c -0.110505,-0.25467 -0.255332,-0.84998 -0.321838,-1.32292 -0.09796,-0.69662 -0.241023,-0.8599 -0.753432,-0.8599 -0.347881,0 -0.721808,-0.0191 -0.830949,-0.0425 -0.10914,-0.0234 -0.456531,0.48263 -0.771979,1.12448 l -0.573541,1.16698 0.970416,0.16089 c 1.98566,0.32922 2.500464,0.27799 2.281323,-0.22703 z m 9.031471,0.10812 c 0.013,-0.0231 -0.02928,-0.54799 -0.09394,-1.16646 l -0.117565,-1.12448 H 93.33719 90.480699 l -0.617086,0.99219 c -0.339398,0.5457 -0.722792,1.15626 -0.851987,1.35679 -0.197645,0.30677 0.368176,0.33441 3.567514,0.17426 2.091328,-0.10468 3.813048,-0.20922 3.826042,-0.2323 z m 11.950038,-0.2806 c 0.25718,-0.24168 0.2628,-0.45861 0.025,-0.96272 l -0.30706,-0.65074 -4.12599,0.0684 c -3.00561,0.0498 -4.153319,0.15761 -4.226653,0.39687 -0.05537,0.18065 -0.273341,0.52704 -0.484384,0.76976 -0.351022,0.40372 -0.252285,0.45567 1.159007,0.60984 0.84849,0.0927 1.78084,0.19615 2.07188,0.2299 1.3305,0.15432 5.58806,-0.17926 5.88825,-0.46134 z m 7.07633,-0.84459 c 2.32719,-0.17688 3.04271,-0.32087 3.04271,-0.61231 0,-0.12663 -1.58886,-0.24203 -3.53081,-0.25646 l -3.53081,-0.0262 -0.3174,0.69663 -0.3174,0.69662 1.40082,-0.17874 c 0.77044,-0.0983 2.23425,-0.24208 3.25289,-0.31951 z m -34.762621,52.18404 c -0.241381,-0.29084 -0.177426,-0.33733 0.330524,-0.24023 0.346399,0.0662 1.01303,-0.0778 1.481402,-0.31997 0.839192,-0.43397 1.597575,-0.38987 1.597575,0.0929 0,0.32078 -1.462976,0.82794 -2.388336,0.82794 -0.397029,0 -0.856553,-0.16228 -1.021165,-0.36063 z m 0.730683,-5.35608 c 0.956683,-0.42559 2.546526,-0.40801 2.546526,0.0282 0,0.14552 -0.773906,0.2881 -1.719792,0.31685 l -1.719791,0.0523 z m -1.932413,-4.04217 c -0.0795,-0.12863 0.232367,-0.39 0.693035,-0.58081 0.959384,-0.39739 4.006442,-2.37243 4.138682,-2.68261 0.14779,-0.34666 0.772079,-0.23072 0.926649,0.17208 0.09867,0.25714 -0.466327,0.75652 -1.75763,1.55351 -3.001959,1.8528 -3.651718,2.10255 -4.000736,1.53783 z m 2.744405,-8.8622 c 0.501214,-0.38143 0.997492,-0.6935 1.102839,-0.6935 0.105347,0 0.379872,-0.0723 0.610056,-0.1606 0.276255,-0.10601 0.418514,-0.0139 0.418514,0.27113 0,0.44494 -0.859748,0.87746 -2.248958,1.13139 l -0.79375,0.14508 z m -1.519841,-5.50892 c -0.472373,-0.47238 -0.383915,-0.79278 0.145521,-0.5271 0.529661,0.2658 1.146095,0.12111 2.40513,-0.56451 0.842734,-0.45891 1.629766,-0.44676 1.629766,0.0252 0,0.35433 -2.327994,1.38394 -3.129162,1.38394 -0.403565,0 -0.87663,-0.14288 -1.051255,-0.3175 z M 79.23287,137.86248 c -0.08268,-0.13378 0.321642,-0.36922 0.898502,-0.52319 0.641914,-0.17134 1.108075,-0.1841 1.201524,-0.0329 0.08398,0.13588 0.09599,0.30376 0.02669,0.37306 -0.266379,0.26638 -1.983848,0.41419 -2.126711,0.18303 z"
             id="path929" />
        </g>
      </g>
    </g>
  </g>
</svg>
