<?xml version="1.0" encoding="UTF-8" standalone="no"?>
<svg
   xmlns:dc="http://purl.org/dc/elements/1.1/"
   xmlns:cc="http://creativecommons.org/ns#"
   xmlns:rdf="http://www.w3.org/1999/02/22-rdf-syntax-ns#"
   xmlns:svg="http://www.w3.org/2000/svg"
   xmlns="http://www.w3.org/2000/svg"
   width="70.019516mm"
   height="60.441223mm"
   viewBox="0 0 70.019516 60.441223"
   version="1.1"
   id="svg8">
  <defs
     id="defs2" />
  <metadata
     id="metadata5">
    <rdf:RDF>
      <cc:Work
         rdf:about="">
        <dc:format>image/svg+xml</dc:format>
        <dc:type
           rdf:resource="http://purl.org/dc/dcmitype/StillImage" />
        <dc:title></dc:title>
      </cc:Work>
    </rdf:RDF>
  </metadata>
  <g
     id="layer1"
     transform="translate(-81.487228,-122.54688)">
    <g
       id="g847">
      <g
         id="g887">
        <path
           style="fill:#ddbb88;stroke-width:0.264583"
           d="m 86.131326,182.84546 c -0.400182,-0.0606 -0.727604,-0.20232 -0.727604,-0.31488 0,-0.11257 -0.468319,-0.35922 -1.040708,-0.54813 -0.939482,-0.31005 -1.066932,-0.46215 -1.310328,-1.5637 -0.916638,-4.14848 -1.894016,-14.87672 -1.458673,-16.01121 0.14398,-0.3752 0.371008,-0.42472 1.264986,-0.27592 0.599233,0.0997 1.531256,0.4052 2.071161,0.67881 0.539906,0.2736 1.498253,0.49745 2.129661,0.49745 1.083558,0 1.167879,-0.0549 1.501828,-0.97845 0.515481,-1.42554 0.452466,-2.94385 -0.145285,-3.50059 -0.274505,-0.25567 -1.055172,-0.6684 -1.734814,-0.91716 -0.948163,-0.34706 -1.300583,-0.6384 -1.514488,-1.25201 -0.400914,-1.15006 0.245265,-2.08304 1.442711,-2.08304 1.043075,0 1.6374,0.69365 1.8785,2.19243 0.191394,1.18978 1.148782,1.95026 1.148782,0.91251 0,-0.33982 0.137413,-0.75527 0.305363,-0.92322 0.230761,-0.23076 0.230761,-0.75709 0,-2.1544 -0.554736,-3.35905 -0.34283,-4.45712 1.124706,-5.82812 0.377629,-0.35279 0.686597,-0.86472 0.686597,-1.13762 0,-1.6669 2.552799,-3.99652 3.704167,-3.38033 1.17735,0.6301 0.500811,1.80557 -2.507428,4.3566 -1.584661,1.34381 -2.053716,2.45222 -1.907258,4.50695 0.201562,2.82782 0.599869,3.09289 1.854187,1.23398 1.680771,-2.49092 4.703517,-3.8628 5.09289,-2.31141 0.08867,0.3533 0.08029,0.89737 -0.01864,1.20906 -0.235899,0.74325 -2.812186,2.38028 -3.757812,2.38779 -0.407173,0.003 -1.03797,0.23871 -1.401772,0.52328 -0.363802,0.28457 -0.795708,0.52005 -0.959791,0.52329 -0.523331,0.0103 -0.86123,0.65319 -1.122227,2.13511 -0.139744,0.79346 -0.432057,2.06772 -0.649583,2.83171 -0.492207,1.7287 -0.600036,1.71572 3.964533,0.47702 1.848456,-0.50162 3.44383,-0.86074 3.545276,-0.79804 0.380028,0.23487 0.03947,2.71273 -0.671408,4.88508 -0.860132,2.62845 -1.294206,5.03375 -1.680086,9.30972 -0.156167,1.7305 -0.45871,3.43946 -0.68708,3.88108 -0.375634,0.72639 -0.550253,0.80201 -2.198319,0.95193 -0.984651,0.0896 -2.220806,0.27785 -2.747012,0.41839 -0.952374,0.25438 -2.089141,0.27598 -3.475032,0.066 z m 5.004382,-1.35454 c 0.89702,-0.11306 1.800377,-0.34618 2.007462,-0.51804 0.466873,-0.38747 0.937071,-2.50556 1.098721,-4.94937 0.06738,-1.01865 0.178397,-2.14974 0.246705,-2.51354 0.06831,-0.3638 0.201092,-1.19724 0.295078,-1.85209 0.162881,-1.13487 1.243866,-5.02056 1.748148,-6.28385 0.304097,-0.7618 0.241881,-0.75973 -3.190601,0.10632 -3.409542,0.86026 -7.277025,1.00151 -8.731249,0.31888 -2.090192,-0.98116 -1.949393,-1.20863 -1.779698,2.87523 0.130981,3.15217 0.8738,8.8824 1.462103,11.2789 0.130205,0.5304 0.539323,0.94848 1.375928,1.40605 1.259883,0.68908 1.078139,0.68471 5.467403,0.13151 z m -3.928475,-22.97565 c -0.04605,-0.38896 -0.217879,-0.75118 -0.38185,-0.80494 -0.435221,-0.14267 -0.688252,0.72375 -0.335496,1.1488 0.480891,0.57944 0.808082,0.4226 0.717346,-0.34386 z m 9.532371,-3.49756 c 0.31912,-0.48062 0.317573,-0.55774 -0.01119,-0.55774 -0.459364,0 -2.593439,1.78082 -2.593439,2.16415 0,0.39063 2.165393,-0.94488 2.604633,-1.60641 z m 39.133386,26.40857 c -0.25972,-0.15128 -0.46331,-0.58339 -0.46369,-0.98415 -2.6e-4,-0.39295 -0.28743,-1.78602 -0.63792,-3.0957 -1.52397,-5.69465 -3.91647,-15.12239 -3.95241,-15.5746 -0.0216,-0.27133 0.32265,-0.77326 0.76493,-1.11538 0.72665,-0.56211 0.87117,-0.58728 1.49968,-0.26121 0.38254,0.19847 1.92568,0.44382 3.42919,0.54522 l 2.73366,0.18436 0.86719,-2.60482 c 0.47696,-1.43265 0.86391,-2.6917 0.8599,-2.79789 -0.021,-0.5546 -2.31846,-1.32289 -4.05997,-1.35766 -1.65951,-0.0331 -1.89345,-0.10569 -2.36214,-0.73258 -0.86581,-1.15809 -0.0788,-2.38933 1.73477,-2.71383 1.0988,-0.19661 1.43851,0.0238 2.4329,1.57824 0.88174,1.37838 2.38195,2.49184 2.76521,2.05235 0.10598,-0.12153 0.40393,-0.91476 0.66211,-1.76275 l 0.46943,-1.54179 -1.41524,-2.09623 c -0.79375,-1.17568 -1.60375,-2.09623 -1.8445,-2.09623 -0.2361,0 -0.75072,0.29792 -1.14361,0.66204 -1.65595,1.53468 -4.15131,2.01861 -5.58041,1.08223 -0.8669,-0.56802 -0.83899,-0.75285 0.2775,-1.83716 1.37564,-1.33601 2.24618,-1.6324 3.62501,-1.2342 1.14409,0.33041 2.25135,0.42058 2.47073,0.2012 0.0668,-0.0668 -0.20886,-0.98443 -0.61249,-2.03925 -0.60467,-1.58016 -0.93016,-2.05374 -1.84856,-2.68961 -0.61307,-0.42446 -1.21706,-0.95472 -1.34221,-1.17834 -0.18379,-0.32842 -0.35244,-0.34968 -0.8772,-0.11058 -1.09099,0.49708 -1.95941,-0.0277 -2.45562,-1.48403 -0.2354,-0.69088 -0.42801,-1.45461 -0.42801,-1.69717 0,-1.26541 2.27571,-1.75992 3.53619,-0.76842 0.57664,0.45358 0.69714,0.76353 0.69714,1.79312 0,1.00824 0.14798,1.40676 0.77884,2.09746 0.95398,1.04448 1.5346,1.08545 1.77282,0.12511 0.0993,-0.40018 0.49769,-1.44198 0.88539,-2.3151 0.3877,-0.87313 1.03648,-2.59335 1.44174,-3.82272 0.68179,-2.06823 0.71246,-2.33684 0.41051,-3.59551 -0.2387,-0.995 -0.24896,-1.50487 -0.0382,-1.89867 0.23185,-0.43323 0.18838,-0.62864 -0.22257,-1.00055 -0.28088,-0.25419 -0.6436,-0.8649 -0.80605,-1.35713 -0.86874,-2.6323 1.67078,-4.5414 3.6134,-2.7164 l 0.58528,0.54984 0.778,-0.5752 c 0.48919,-0.36168 1.0624,-0.54274 1.54411,-0.48777 0.6489,0.0741 0.77879,0.219 0.84902,0.94733 0.0456,0.47295 0.18592,0.8599 0.31183,0.8599 0.12591,0 0.42006,0.19114 0.65367,0.42475 0.5273,0.5273 0.32483,1.30109 -0.59847,2.28723 -0.37468,0.40018 -0.54409,0.7276 -0.37646,0.7276 0.57252,0 0.86237,0.95124 0.55687,1.82758 -0.30645,0.87908 -0.8663,1.13258 -2.60187,1.17808 -0.80041,0.021 -1.0828,0.17235 -1.421,0.76162 -0.23214,0.40448 -0.71064,0.84514 -1.06333,0.97923 -0.43497,0.16538 -0.77377,0.63272 -1.05321,1.45282 -0.38636,1.1339 -0.383,1.20901 0.054,1.20901 1.10586,0 2.82262,-0.8246 3.23983,-1.55616 0.23684,-0.4153 0.98921,-1.13941 1.67192,-1.60913 1.14047,-0.78467 1.33958,-0.83586 2.45159,-0.63031 1.24116,0.22942 2.07591,0.98286 1.50204,1.35573 -0.16159,0.105 -0.4901,0.57405 -0.73002,1.04234 -0.98072,1.91425 -2.42418,2.59803 -3.98408,1.88728 -0.54078,-0.24639 -1.08753,-0.19103 -2.88562,0.29218 l -2.21842,0.59617 -0.55983,1.36147 c -0.3079,0.74881 -0.7017,1.98392 -0.87509,2.74469 -0.29411,1.29038 -0.26463,1.51236 0.43925,3.30729 0.70004,1.78513 3.08203,5.79925 3.54022,5.96596 0.11056,0.0402 0.65244,-0.28562 1.20419,-0.72409 0.83326,-0.66219 1.01188,-0.97657 1.05453,-1.85603 0.0342,-0.70435 0.26507,-1.2863 0.68977,-1.73837 0.92499,-0.98461 3.18982,-2.21049 4.2414,-2.29573 0.81111,-0.0658 0.9154,0.002 0.98944,0.64415 0.0569,0.49332 -0.24406,1.19636 -0.96271,2.24896 -1.37157,2.00892 -2.15638,2.70879 -3.10457,2.76855 -0.63482,0.04 -1.86393,0.79673 -3.37033,2.07499 -0.1161,0.0985 -0.50443,1.06044 -0.86297,2.13761 -0.35853,1.07717 -0.76355,2.19661 -0.90005,2.48766 -0.33418,0.71252 -1.08343,2.97415 -1.3367,4.03489 -0.19514,0.81723 -0.16786,0.8599 0.54975,0.8599 1.79594,0 4.95707,-0.64504 6.0116,-1.22668 1.48058,-0.81664 1.78798,-0.78999 2.28074,0.19776 0.38452,0.7708 0.36818,0.95432 -0.25692,2.88532 -0.45486,1.40512 -0.75097,3.145 -0.92936,5.46069 -0.14399,1.86919 -0.37467,4.23197 -0.51263,5.25062 -0.13796,1.01864 -0.32899,2.8168 -0.4245,3.99589 l -0.17366,2.14382 -1.6171,0.29038 c -0.8894,0.15971 -2.391,0.36532 -3.33689,0.4569 -0.94589,0.0916 -2.58405,0.45471 -3.64036,0.80695 -2.13849,0.7131 -2.37716,0.74094 -3.04037,0.35466 z m 5.99276,-2.12542 c 1.29511,-0.14215 2.5672,-0.37215 2.82688,-0.51113 0.25967,-0.13897 0.70143,-0.25268 0.98168,-0.25268 0.41889,0 0.53674,-0.24713 0.6624,-1.38906 0.0841,-0.76399 0.32831,-2.75828 0.54276,-4.43177 0.21444,-1.67349 0.46364,-4.11427 0.55377,-5.42396 0.0901,-1.30969 0.35218,-3.25091 0.58234,-4.31383 0.23016,-1.06291 0.36977,-1.98128 0.31023,-2.04081 -0.0595,-0.0595 -0.63847,0.0473 -1.28652,0.23741 -2.31358,0.67872 -7.81393,1.0477 -11.36474,0.76239 -1.81901,-0.14615 -3.34868,-0.22972 -3.39927,-0.18569 -0.12102,0.10532 0.29638,1.9373 1.29251,5.67282 0.44626,1.67349 1.04916,3.99521 1.33978,5.15938 0.29063,1.16416 0.7507,2.7729 1.02239,3.57498 0.27169,0.80207 0.57331,1.99018 0.67026,2.64024 0.097,0.65006 0.22896,1.26716 0.29334,1.37133 0.0644,0.10416 0.67964,0.009 1.36725,-0.21089 0.68761,-0.22016 2.30983,-0.51659 3.60494,-0.65873 z m -4.52192,-25.78416 c 0.34254,-0.13145 0.34281,-0.2434 0.002,-0.92604 -0.21318,-0.42709 -0.51823,-0.77653 -0.67801,-0.77653 -0.41284,0 -1.25823,0.81272 -1.25823,1.20959 0,0.53265 1.09984,0.81302 1.93386,0.49298 z m -0.97983,-5.79761 c 0.80538,-0.52771 0.8043,-0.87908 -0.003,-1.08179 -0.93701,-0.23517 -2.98599,0.96215 -2.6306,1.53719 0.21317,0.34491 1.84244,0.0632 2.63394,-0.4554 z m 11.87826,-0.32706 c 0.99313,-1.2293 1.76507,-2.45706 1.54485,-2.45706 -0.0919,0 -0.78977,0.41326 -1.55074,0.91837 -1.40561,0.93299 -1.8842,1.71591 -1.3658,2.23432 0.42138,0.42138 0.50252,0.38023 1.37169,-0.69563 z m -14.03792,-8.86593 c 0.36491,-0.52098 0.58987,-2.0578 0.30123,-2.0578 -0.0609,0 -0.30792,-0.0757 -0.54902,-0.16821 -0.32589,-0.12506 -0.41629,-0.0402 -0.35237,0.33072 0.0588,0.34113 -0.0605,0.48733 -0.37702,0.4622 -0.52253,-0.0415 -0.58231,0.35002 -0.20499,1.34244 0.31689,0.83347 0.64429,0.85858 1.18217,0.0907 z m 13.37652,-3.6453 c 0.27377,0 1.32286,-1.66508 1.32286,-2.09958 0,-0.49669 -1.08846,-0.0626 -1.95562,0.77984 -0.80955,0.78653 -0.81286,1.78953 -0.005,1.47948 0.22896,-0.0879 0.5159,-0.15974 0.63765,-0.15974 z m -1.47691,-4.9231 c 0.40171,-0.15415 0.6089,-1.16232 0.23887,-1.16232 -0.57478,0 -1.93702,0.68864 -1.93702,0.9792 0,0.35731 0.97128,0.46205 1.69815,0.18312 z m -2.61975,-3.73852 c -0.24124,-1.60865 -0.81738,-2.71546 -1.41352,-2.71546 -0.72479,0 -1.10446,0.54368 -1.10446,1.58154 0,1.52241 0.65864,2.18274 2.34514,2.35118 0.28242,0.0282 0.31996,-0.23619 0.17284,-1.21726 z m 3.17203,0.45791 c 0.70735,-0.78161 0.32867,-0.90454 -0.39932,-0.12962 -0.34124,0.36323 -0.49907,0.66041 -0.35073,0.66041 0.14833,0 0.48585,-0.23885 0.75005,-0.53079 z m -1.0441,-1.52607 c -0.0712,-0.0712 -5.3e-4,-0.38162 0.15681,-0.6899 0.25485,-0.49918 0.24246,-0.51709 -0.11321,-0.16365 -0.21966,0.21828 -0.48887,0.69359 -0.59824,1.05626 -0.17905,0.59371 -0.15488,0.62289 0.24258,0.29302 0.24279,-0.2015 0.38322,-0.42458 0.31206,-0.49573 z"
           id="path889" />
      </g>
    </g>
  </g>
</svg>
