<?xml version="1.0" encoding="UTF-8" standalone="no"?>
<svg
   xmlns:dc="http://purl.org/dc/elements/1.1/"
   xmlns:cc="http://creativecommons.org/ns#"
   xmlns:rdf="http://www.w3.org/1999/02/22-rdf-syntax-ns#"
   xmlns:svg="http://www.w3.org/2000/svg"
   xmlns="http://www.w3.org/2000/svg"
   xmlns:sodipodi="http://sodipodi.sourceforge.net/DTD/sodipodi-0.dtd"
   xmlns:inkscape="http://www.inkscape.org/namespaces/inkscape"
   width="109.89885mm"
   height="103.9343mm"
   viewBox="0 0 109.89885 103.9343"
   version="1.1"
   id="svg8"
   sodipodi:docname="low-creativity.svg"
   inkscape:version="1.0.2 (e86c8708, 2021-01-15)">
  <sodipodi:namedview
     pagecolor="#ffffff"
     bordercolor="#666666"
     borderopacity="1"
     objecttolerance="10"
     gridtolerance="10"
     guidetolerance="10"
     inkscape:pageopacity="0"
     inkscape:pageshadow="2"
     inkscape:window-width="971"
     inkscape:window-height="751"
     id="namedview1568"
     showgrid="false"
     fit-margin-top="0"
     fit-margin-left="0"
     fit-margin-right="0"
     fit-margin-bottom="0"
     inkscape:zoom="1.6812062"
     inkscape:cx="153.06951"
     inkscape:cy="244.92487"
     inkscape:window-x="0"
     inkscape:window-y="23"
     inkscape:window-maximized="0"
     inkscape:current-layer="g2145" />
  <defs
     id="defs2" />
  <metadata
     id="metadata5">
    <rdf:RDF>
      <cc:Work
         rdf:about="">
        <dc:format>image/svg+xml</dc:format>
        <dc:type
           rdf:resource="http://purl.org/dc/dcmitype/StillImage" />
        <dc:title></dc:title>
      </cc:Work>
    </rdf:RDF>
  </metadata>
  <g
     id="layer1"
     transform="translate(-58.741477,-96.616349)">
    <g
       id="g865">
      <path
         style="fill:#ddbb88;stroke-width:0.264583"
         d="m 126.40564,181.42264 c -0.54517,-0.29817 -1.16344,-0.54213 -1.37394,-0.54213 -0.51607,0 -2.2308,-0.99372 -3.11881,-1.80742 -0.39682,-0.36361 -0.86195,-1.0867 -1.03362,-1.60686 -0.17167,-0.52017 -0.64069,-1.4828 -1.04226,-2.13918 -0.40157,-0.65637 -1.11921,-2.01146 -1.59475,-3.01129 -0.87532,-1.84038 -3.18075,-4.66441 -3.80783,-4.66441 -0.18791,0 -0.41712,-0.30071 -0.50937,-0.66824 -0.27989,-1.1152 -3.22264,-3.56005 -4.28902,-3.56335 -0.3096,-0.001 -0.71113,-0.18034 -0.89229,-0.39862 -0.21699,-0.26146 -0.80803,-0.39688 -1.7322,-0.39688 -0.94179,0 -2.05429,-0.26086 -3.38512,-0.79375 -1.09026,-0.43656 -2.10665,-0.79375 -2.25865,-0.79375 -0.152,0 -0.94647,-0.54582 -1.765507,-1.21293 -1.387083,-1.12979 -1.540838,-1.19152 -2.243283,-0.90055 -0.816734,0.3383 -1.315241,0.18375 -1.315241,-0.40775 0,-0.20534 -0.357188,-0.63742 -0.79375,-0.96019 -0.436563,-0.32276 -0.79375,-0.6795 -0.79375,-0.79274 0,-0.38554 -2.038128,-3.36092 -2.87651,-4.1993 -0.459463,-0.45946 -1.220597,-1.65557 -1.691415,-2.65801 -0.544193,-1.15867 -1.014553,-1.82454 -1.291183,-1.82787 -0.239334,-0.003 -1.249201,0.24619 -2.244148,0.5535 -1.662367,0.51345 -1.991675,0.53306 -4.062764,0.24195 -1.603751,-0.22542 -2.594639,-0.23834 -3.435639,-0.0448 -1.221472,0.28109 -1.860841,0.067 -1.860841,-0.62323 0,-0.45985 2.582328,-0.64561 4.943507,-0.35562 1.965772,0.24144 2.751021,0.12914 5.303239,-0.75842 1.658856,-0.57687 2.128253,-1.00883 2.238137,-2.05961 0.07305,-0.69858 -0.01082,-0.80784 -0.710925,-0.92604 -1.119055,-0.18894 -2.513541,-1.001 -2.513541,-1.46372 0,-0.49876 0.547952,-0.4995 1.206201,-0.002 1.025601,0.77572 1.70521,0.49608 3.837646,-1.57909 1.121524,-1.0914 2.261166,-1.98504 2.532539,-1.98585 1.240869,-0.004 2.50136,-0.59391 3.186311,-1.49193 l 0.718613,-0.94215 -1.308886,-1.13588 c -1.140391,-0.98965 -1.428091,-1.11799 -2.234924,-0.99693 -0.509323,0.0764 -1.342213,0.39143 -1.850864,0.70001 -1.685856,1.02276 -2.78846,1.4123 -4.51277,1.59431 -1.473502,0.15554 -1.930935,0.0883 -3.354546,-0.49272 -0.906614,-0.37008 -1.933985,-0.67285 -2.28305,-0.67285 -0.723916,0 -3.359338,-1.51371 -4.443019,-2.55194 -0.61883,-0.59288 -0.889101,-0.67457 -1.819111,-0.54983 -0.600762,0.0806 -1.296721,0.33151 -1.546576,0.55763 -0.249854,0.22611 -1.22542,0.6493 -2.167924,0.94041 -1.889093,0.58348 -2.741131,1.27907 -4.904659,4.00411 -1.494087,1.88186 -2.326027,3.3743 -2.607256,4.67723 -0.228216,1.05732 0.107394,1.10811 1.984954,0.3004 1.274571,-0.5483 2.104821,-0.53419 2.104821,0.0358 0,0.15766 -0.357187,0.41117 -0.79375,0.56336 -0.436562,0.15218 -0.79375,0.36336 -0.79375,0.46928 0,0.30241 1.190191,1.34315 1.536028,1.34315 0.749784,0 5.472463,-2.73338 6.502698,-3.76361 1.629359,-1.62936 1.811406,-2.057 1.198098,-2.8144 -0.651369,-0.80441 -0.383405,-1.24907 0.431105,-0.71539 0.342702,0.22455 0.807927,0.33734 1.033833,0.25065 0.225905,-0.0867 0.602741,-0.0839 0.83741,0.006 0.355317,0.13634 0.369226,0.23295 0.08316,0.57764 -0.492877,0.59387 0.147576,0.92867 1.396706,0.73012 0.539274,-0.0857 1.65345,-0.0718 2.475947,0.031 1.188648,0.14851 1.69315,0.37072 2.459087,1.08312 1.106837,1.02947 0.715751,1.1993 -0.883814,0.38379 -1.449673,-0.73908 -2.665711,-0.91494 -3.857548,-0.55786 -0.793038,0.2376 -1.141518,0.23317 -1.546349,-0.0197 -0.467307,-0.29183 -0.685237,-0.15616 -2.059588,1.28221 -0.845341,0.88472 -2.043933,1.93744 -2.663539,2.33938 -0.909407,0.58993 -1.067117,0.80241 -0.818193,1.10235 0.213841,0.25766 0.223863,0.45605 0.0327,0.64722 -0.191166,0.19117 -0.404037,0.0924 -0.694453,-0.32223 -0.369585,-0.52766 -0.499961,-0.56092 -1.109736,-0.28309 -0.968388,0.44123 -0.720933,0.82451 1.016853,1.57501 l 1.504293,0.64965 1.391297,-0.70254 c 1.532465,-0.77382 2.85909,-0.99249 3.033834,-0.50008 0.124544,0.35096 -2.48486,1.76141 -3.774864,2.04041 -0.633234,0.13696 -1.266715,-0.0509 -2.910416,-0.86292 -1.155553,-0.57089 -2.527852,-1.17342 -3.049552,-1.33897 -0.5217,-0.16554 -1.271298,-0.63786 -1.665774,-1.04961 -0.519361,-0.54209 -0.896937,-0.71427 -1.368632,-0.6241 -0.358271,0.0685 -1.015543,-0.0263 -1.460604,-0.21066 -1.041264,-0.4313 -3.062337,-2.90914 -3.282747,-4.02465 -0.245736,-1.24368 -0.683602,-2.34045 -1.279428,-3.20471 -0.454739,-0.65961 -0.501102,-1.04472 -0.366316,-3.04271 0.111103,-1.64694 0.04867,-2.58389 -0.222939,-3.34585 -0.20749,-0.58208 -0.379048,-1.3682 -0.381239,-1.74691 -0.0048,-0.83498 2.495022,-6.22537 2.967273,-6.39828 0.268947,-0.0985 0.270007,-0.19303 0.0053,-0.47361 -0.1819,-0.19281 -0.330728,-0.59559 -0.330728,-0.89507 0,-0.85338 1.258491,-3.02816 2.812896,-4.86093 0.781241,-0.92114 1.420437,-1.84862 1.420437,-2.06106 0,-1.65196 3.692591,-5.39226 5.323479,-5.39226 0.600641,0 0.990074,-0.30052 1.912692,-1.47603 1.262149,-1.60811 3.410078,-3.28647 4.205959,-3.28647 0.590922,0 2.81934,-1.47639 3.020791,-2.00136 0.241221,-0.62861 3.25695,-1.96739 4.431742,-1.96739 0.595685,0 1.885709,-0.229533 2.866723,-0.510078 0.981012,-0.280544 2.834815,-0.571533 4.119557,-0.646641 1.284743,-0.07511 2.862967,-0.325124 3.507163,-0.555592 0.722088,-0.258333 2.490351,-0.474125 4.610852,-0.56269 1.89177,-0.07901 3.73724,-0.176135 4.10105,-0.21583 0.3638,-0.03969 1.28653,-0.09081 2.05052,-0.113585 1.01388,-0.03023 1.38906,-0.144389 1.38906,-0.422674 0,-0.674242 0.46701,-0.703635 2.1534,-0.135531 l 1.65106,0.5562 0.41287,-0.533774 c 0.37294,-0.482144 0.47686,-0.497753 1.07434,-0.161372 0.76431,0.430311 2.80203,0.515984 3.04189,0.127893 0.0895,-0.144794 0.54299,-0.260289 1.0078,-0.256655 0.4648,0.0036 1.49994,-0.04284 2.3003,-0.103263 1.29642,-0.09788 1.6181,-0.01 2.948,0.805797 l 1.49279,0.915667 1.10184,-0.532353 c 1.58141,-0.764049 4.58986,-0.591788 5.79905,0.332047 0.70026,0.535008 2.18812,0.898951 3.15682,0.77218 0.75837,-0.09924 1.18879,0.02209 1.90567,0.537192 1.87295,1.345772 3.26388,2.025982 4.14287,2.025982 1.3941,0 2.43488,0.59565 4.58838,2.62597 1.52258,1.43548 2.22248,1.9108 3.00751,2.04246 1.4556,0.24413 5.30665,2.89198 7.1145,4.89168 1.7052,1.88617 2.06358,2.25816 4.24531,4.40649 0.84426,0.83134 1.81282,2.10684 2.15235,2.83444 0.33953,0.72761 1.33731,2.09683 2.21728,3.04271 1.36903,1.47158 1.69522,2.02529 2.26007,3.83646 0.36306,1.16417 0.73988,2.71198 0.83737,3.43958 0.0975,0.72761 0.40089,1.76738 0.67422,2.31062 0.27334,0.54324 0.43555,1.14779 0.36047,1.34344 -0.0751,0.19565 0.0122,0.70368 0.19404,1.12896 0.20531,0.48026 0.33898,2.12658 0.3528,4.34511 0.0205,3.30283 0.0753,3.68148 0.72659,5.02708 0.61719,1.27514 0.67099,1.58617 0.43474,2.51354 -0.14829,0.58209 -0.37808,1.53459 -0.51067,2.11667 -0.13258,0.58208 -0.41253,1.53458 -0.6221,2.11667 -0.23152,0.64305 -0.32576,1.53183 -0.24017,2.26503 0.10638,0.91121 0.004,1.47587 -0.41994,2.30597 -0.61274,1.20108 -2.57798,3.23421 -3.12621,3.23421 -0.20152,0 -0.34358,0.31245 -0.34358,0.7557 0,0.44619 -0.35992,1.23184 -0.87878,1.91823 -0.48333,0.63939 -0.95584,1.37088 -1.05003,1.62554 -0.22109,0.5978 -1.31864,0.60111 -2.2258,0.007 l -0.69641,-0.4563 0.16349,1.00751 c 0.20513,1.26404 -0.23255,3.75279 -0.84551,4.80776 -0.25616,0.44088 -0.54779,1.1285 -0.64807,1.52802 -0.10027,0.39953 -0.57272,1.1699 -1.04987,1.71193 -0.47716,0.54204 -1.30107,1.58792 -1.83092,2.3242 -0.96236,1.33729 -3.24039,3.29931 -4.92942,4.24561 -0.49194,0.27562 -1.08894,0.62019 -1.32665,0.76571 -0.23772,0.14552 -0.90678,0.55448 -1.48681,0.90879 -0.58002,0.35432 -1.37871,0.9094 -1.77485,1.23351 -0.54325,0.44447 -1.22601,0.63414 -2.77812,0.77176 -1.13183,0.10036 -3.18896,0.36516 -4.57141,0.58846 -1.38245,0.22329 -3.70417,0.43875 -5.15938,0.4788 -1.45521,0.0401 -3.12208,0.14874 -3.70416,0.24153 -0.80068,0.12763 -1.29965,0.0367 -2.04957,-0.37343 z m 4.95998,-1.21921 c 1.45521,-0.0299 3.65787,-0.23511 4.89479,-0.45592 1.23693,-0.22081 3.20146,-0.4798 4.36563,-0.57554 1.29149,-0.1062 2.42611,-0.35943 2.91042,-0.64955 0.43656,-0.26152 1.76704,-1.07722 2.95662,-1.81267 1.18958,-0.73544 2.39128,-1.40967 2.67044,-1.49827 0.6036,-0.19157 3.99949,-3.47377 5.45878,-5.27602 0.56742,-0.70077 1.16751,-1.6502 1.33354,-2.10985 0.16602,-0.45965 0.54823,-1.31197 0.84935,-1.89406 0.77399,-1.49619 0.97434,-3.11398 0.52023,-4.20082 -0.31777,-0.76053 -0.60109,-0.96172 -1.92147,-1.36444 -0.85181,-0.2598 -1.861,-0.64866 -2.24265,-0.86413 -1.03486,-0.58426 -1.83963,-0.2266 -2.87797,1.27902 -1.24518,1.80555 -3.61374,4.2039 -5.16915,5.23416 -0.92181,0.61059 -1.57677,0.84226 -2.38116,0.84226 -0.66573,0 -1.36198,0.19269 -1.74057,0.48173 -0.70087,0.53508 -3.51543,1.23481 -3.9318,0.97748 -0.14634,-0.0904 -2.26149,-0.21205 -4.70034,-0.27024 -2.43885,-0.0582 -5.02958,-0.20947 -5.75719,-0.33617 -1.5107,-0.26307 -3.9369,-1.26227 -4.38969,-1.80784 -0.16792,-0.20234 -0.65931,-0.36788 -1.09198,-0.36788 -1.17784,0 -2.11298,-0.6822 -3.12961,-2.28311 -0.74204,-1.16852 -1.01314,-1.40678 -1.44288,-1.26809 -0.29104,0.0939 -1.36924,0.2552 -2.39598,0.35839 -1.02675,0.10318 -2.01111,0.27679 -2.18747,0.38579 -0.43169,0.26679 0.27448,1.14816 2.03476,2.53959 0.74693,0.59041 1.35806,1.23255 1.35806,1.42695 0,0.19442 0.4492,0.87626 0.99821,1.51521 2.02011,2.35102 3.16364,4.25484 5.70385,9.4961 0.50399,1.0399 4.88425,3.03529 5.99794,2.73231 0.3638,-0.099 1.85208,-0.20445 3.30729,-0.23439 z m 1.45521,-13.36364 c 2.63355,0.18388 4.8143,-0.0175 6.85965,-0.63361 1.22619,-0.36932 2.53588,-0.67546 2.91042,-0.68029 0.37453,-0.005 1.15722,-0.35912 1.73931,-0.78729 0.58208,-0.42818 1.48825,-1.0701 2.0137,-1.4265 0.52545,-0.3564 1.28403,-1.22251 1.68572,-1.92469 0.4017,-0.70218 1.15043,-1.6415 1.66386,-2.08738 0.91222,-0.7922 0.92267,-0.82335 0.45827,-1.36572 -0.42635,-0.49794 -0.67256,-0.54011 -2.3935,-0.40996 l -1.91827,0.14508 -1.35021,-1.26296 c -0.88897,-0.83152 -1.3502,-1.11819 -1.3502,-0.83918 0,0.50622 -0.78664,0.97234 -1.63625,0.96953 -0.33699,-0.001 -1.80333,0.28601 -3.25854,0.63805 -1.45521,0.35205 -3.34707,0.76688 -4.20414,0.92185 -0.85706,0.15497 -1.8691,0.49088 -2.24896,0.74646 -0.82069,0.55218 -1.23891,0.61904 -4.52711,0.72377 -1.38245,0.044 -2.8692,0.22195 -3.30389,0.39537 -0.43469,0.17342 -1.77573,0.38485 -2.98008,0.46984 -2.74033,0.19339 -3.20474,0.47302 -2.72181,1.63892 0.60015,1.44888 1.69028,2.40527 2.74163,2.40527 0.59609,0 1.2022,0.22745 1.68203,0.6312 0.96766,0.81424 2.57215,1.48046 3.62224,1.50406 0.45518,0.0102 1.04998,0.106 1.32178,0.21283 0.27181,0.10683 1.4029,0.1436 2.51354,0.0817 1.11065,-0.0619 2.31701,-0.0917 2.68081,-0.0663 z m -19.57916,-5.52204 c 1.0914,-0.13655 2.1332,-0.25563 2.3151,-0.26463 0.1819,-0.009 0.33073,-0.26837 0.33073,-0.57638 0,-0.42226 0.12514,-0.5273 0.5087,-0.427 0.27978,0.0732 0.87797,-0.0915 1.32931,-0.36602 0.45134,-0.27447 1.06453,-0.49904 1.36264,-0.49904 0.49787,0 0.47579,-0.0804 -0.27097,-0.98633 -0.44716,-0.54248 -0.81433,-1.16755 -0.81593,-1.38906 -0.004,-0.55444 -2.43102,-3.25102 -3.00134,-3.33473 -0.25462,-0.0374 -0.764,-0.26521 -1.13197,-0.50631 -0.36796,-0.2411 -0.83013,-0.37654 -1.02704,-0.30098 -0.1969,0.0756 -0.81236,-0.22465 -1.36768,-0.66712 -0.55533,-0.44248 -1.36687,-0.98826 -1.80343,-1.21284 -0.43656,-0.22458 -1.15004,-0.70584 -1.58551,-1.06947 -0.43547,-0.36363 -1.28836,-0.874 -1.89532,-1.13417 -0.8118,-0.34798 -1.39479,-0.90192 -2.20517,-2.09525 -0.87783,-1.29267 -1.17497,-1.56135 -1.46266,-1.32258 -0.29017,0.24082 -0.418,0.0881 -0.65128,-0.77827 -0.18319,-0.68031 -0.44359,-1.07789 -0.70597,-1.07789 -0.22865,0 -1.04047,-0.56555 -1.804045,-1.25677 -3.00001,-2.71575 -4.287721,-2.79551 -6.778373,-0.41983 -0.841508,0.80266 -1.471679,1.6114 -1.400382,1.7972 0.0713,0.18579 -0.129021,1.09787 -0.445148,2.02683 -0.316129,0.92896 -0.57712,2.11003 -0.579977,2.62458 -0.0065,1.16873 0.705562,2.59258 1.271267,2.54207 0.266928,-0.0238 0.749737,0.55484 1.292768,1.54946 0.822803,1.50704 1.726263,2.96321 2.676001,4.3131 0.346345,0.49227 0.502028,0.54785 0.812606,0.29009 0.297249,-0.2467 0.358738,-0.81183 0.271741,-2.49744 -0.117734,-2.28112 -0.193302,-2.51152 -1.170967,-3.57035 -1.60307,-1.73615 -2.154126,-2.45785 -2.030028,-2.65864 0.234428,-0.37931 0.916151,0.0559 1.32449,0.84552 0.215927,0.41756 0.670873,0.94153 1.010989,1.16438 0.340114,0.22285 0.830768,0.87615 1.090338,1.45178 0.259572,0.57562 0.663426,1.10439 0.897456,1.17502 0.234029,0.0706 1.898634,0.19394 3.699114,0.27399 3.09832,0.13776 3.32501,0.18615 4.23334,0.90367 0.81596,0.64455 1.29661,0.78714 3.20868,0.95188 1.23693,0.10657 2.40965,0.32406 2.60604,0.4833 0.1964,0.15924 0.69182,0.26403 1.10092,0.23286 1.47024,-0.11203 2.74469,0.84995 1.85473,1.39998 -0.26251,0.16224 -2.2974,-0.32972 -2.78357,-0.67296 -0.14552,-0.10274 -1.33614,-0.27103 -2.64583,-0.37399 -2.1303,-0.16746 -2.4649,-0.26707 -3.175,-0.94525 -0.67985,-0.64929 -1.05951,-0.77592 -2.64583,-0.88251 -1.01865,-0.0684 -2.73292,-0.21028 -3.80949,-0.31519 l -1.957403,-0.19074 0.180388,1.42742 c 0.117374,0.92879 0.362119,1.58086 0.700632,1.8667 0.286134,0.24161 0.520245,0.59577 0.520245,0.78703 0,0.61047 1.883328,2.04908 3.279698,2.50524 0.74278,0.24265 1.69914,0.61766 2.12524,0.83337 1.57393,0.79678 4.62366,0.91222 9.14715,0.34627 z m 47.74516,-1.77424 c 1.2008,-1.57263 1.23425,-2.6978 0.14442,-4.85675 -0.43657,-0.86482 -0.79375,-1.74873 -0.79375,-1.96423 0,-0.2155 -0.57029,-0.96304 -1.26731,-1.66119 -1.30233,-1.30445 -3.08202,-3.54527 -4.34115,-5.46596 -0.90458,-1.37985 -2.6208,-2.22073 -3.24944,-1.5921 -0.22138,0.22139 -0.40252,0.50028 -0.40252,0.61976 0,0.11947 -0.60431,0.67651 -1.34291,1.23787 -0.73859,0.56135 -2.00525,1.88385 -2.8148,2.93887 l -1.47189,1.91823 h -1.55083 c -1.54125,0 -1.55082,0.005 -1.55082,0.7813 0,1.19887 0.53052,2.13265 2.074,3.65047 1.49953,1.47462 2.13737,1.66195 3.919,1.15099 0.72164,-0.20697 0.99547,-0.12053 2.09535,0.66146 0.69587,0.49474 1.47535,0.89953 1.73219,0.89953 0.25684,0 0.52987,0.10176 0.60673,0.22612 0.16816,0.27209 3.08312,1.26216 4.41672,1.50016 0.52436,0.0936 1.29826,0.3975 1.7198,0.67539 0.42153,0.27789 0.85026,0.50605 0.95274,0.507 0.10247,0.001 0.60849,-0.55115 1.12447,-1.22692 z m -37.11188,-0.86445 c 1.26656,-0.3622 2.22223,-0.46444 3.36919,-0.36044 1.98984,0.18043 2.78322,-0.29602 4.51964,-2.7142 1.17339,-1.63408 1.18983,-1.68597 1.05833,-3.33929 l -0.13357,-1.67941 -1.95889,-0.036 c -2.58807,-0.0476 -3.27559,0.18324 -4.804,1.61289 -0.70633,0.66069 -1.40064,1.20126 -1.54293,1.20126 -0.68136,0 -1.60482,-0.58352 -2.88124,-1.8206 -0.76861,-0.74492 -1.55383,-1.35441 -1.74493,-1.35441 -0.1911,0 -0.54736,-0.22089 -0.79169,-0.49088 -0.59836,-0.66117 -3.9898,-0.95946 -5.94629,-0.523 -1.10307,0.24608 -1.46768,0.45733 -1.65933,0.9614 -0.31411,0.82617 0.11337,1.3754 1.0705,1.3754 0.39093,0 0.9419,0.17481 1.22438,0.38846 0.28247,0.21365 0.80558,0.39225 1.16245,0.39688 0.63936,0.008 2.39384,1.4459 2.39384,1.96149 0,0.35909 1.08464,1.48557 1.43519,1.49056 0.15653,0.002 0.45554,0.11221 0.66447,0.24442 0.30592,0.19357 0.3158,0.31755 0.0508,0.6369 -0.27315,0.32913 -0.1578,0.57842 0.67847,1.46634 1.1575,1.22898 1.42968,1.2703 3.83565,0.58225 z m 13.97296,-2.69832 c 0.65485,-0.14843 1.66688,-0.33509 2.24896,-0.41481 0.58209,-0.0797 1.1803,-0.24289 1.32935,-0.3626 0.28504,-0.22893 0.27771,-1.48866 -0.0234,-4.0223 -0.20193,-1.69897 -0.2978,-1.62023 1.86908,-1.53493 1.1481,0.0452 1.41326,-0.0466 2.00654,-0.69478 0.37598,-0.41077 0.92994,-1.18049 1.231,-1.7105 l 0.5474,-0.96364 -0.99743,-0.97397 c -0.94312,-0.92093 -1.12367,-0.98546 -3.31626,-1.18531 -1.27536,-0.11624 -2.54465,-0.1523 -2.82066,-0.0801 -0.276,0.0722 -1.24264,-0.0782 -2.14808,-0.3341 -1.2724,-0.35966 -2.84796,-0.48065 -6.93792,-0.53278 -2.91042,-0.0371 -5.50003,0.0427 -5.75469,0.17726 -0.53717,0.28391 -0.59566,1.38173 -0.20178,3.78709 0.30587,1.86789 1.19865,3.01103 2.02076,2.58743 0.27287,-0.14059 1.6354,-0.33224 3.02784,-0.42587 2.44826,-0.16462 2.55176,-0.14891 3.1395,0.47672 0.4016,0.42749 0.64914,1.07887 0.7297,1.92019 0.0671,0.70029 0.24463,1.59661 0.39459,1.99181 0.24133,0.636 0.163,0.84669 -0.68173,1.83357 -0.52492,0.61324 -0.9544,1.19156 -0.9544,1.28514 0,0.16692 2.94184,-0.2909 5.29167,-0.8235 z m 26.10508,-0.64785 c 1.01675,-0.77551 1.94076,-2.41543 1.94076,-3.44445 0,-0.43702 -0.47938,-1.31637 -1.26781,-2.32564 -0.6973,-0.8926 -1.6703,-2.2487 -2.16224,-3.01355 -0.86335,-1.34229 -2.25361,-2.40532 -3.7137,-2.83959 -0.3638,-0.10821 -1.25677,-0.64927 -1.98438,-1.20235 -0.7276,-0.55309 -1.64263,-1.1502 -2.03339,-1.32692 -0.64569,-0.292 -0.77159,-0.25179 -1.3807,0.44098 -0.88931,1.01144 -0.85912,1.21067 0.2761,1.82203 0.52967,0.28525 1.26964,0.99693 1.64436,1.58152 0.57723,0.90053 2.50293,3.41156 2.94565,3.84101 0.075,0.0728 0.5455,0.60854 1.04555,1.19062 0.50004,0.58209 1.15468,1.18016 1.45475,1.32905 0.33279,0.16512 0.57488,0.57793 0.62066,1.05833 0.0744,0.78086 1.31245,3.56575 1.58516,3.56575 0.0781,0 0.5412,-0.30456 1.02923,-0.67679 z m -39.04114,-3.98074 0.71893,-0.68878 -0.7706,-1.2151 c -0.42383,-0.66831 -0.7706,-1.44994 -0.7706,-1.73695 0,-0.28701 -0.13194,-1.27952 -0.29321,-2.20557 -0.26962,-1.5483 -0.36405,-1.71333 -1.17403,-2.05176 -0.48446,-0.20242 -1.10009,-0.31069 -1.36808,-0.24061 -0.26798,0.0701 -1.24168,-0.2469 -2.16377,-0.7044 -2.94687,-1.4621 -3.65634,-1.63547 -5.24117,-1.2808 -1.05445,0.23598 -1.56649,0.23914 -2.0634,0.0127 -0.94779,-0.43184 -0.81456,-0.84165 0.27362,-0.84165 1.25011,0 2.65564,-0.61555 3.03834,-1.33064 0.17122,-0.31993 0.26363,-0.99008 0.20536,-1.48922 -0.0924,-0.79178 -0.0366,-0.89762 0.43759,-0.82978 0.4846,0.0693 0.54354,0.26423 0.54354,1.79733 0,1.68927 0.0145,1.72424 0.81969,1.98476 0.45083,0.14585 0.98661,0.39896 1.19063,0.56247 0.7788,0.62416 2.09564,1.15716 2.85889,1.15716 0.43694,0 1.09173,0.13546 1.4551,0.30102 0.53118,0.24202 0.85138,0.21051 1.63384,-0.16079 0.53525,-0.25399 1.40442,-0.4587 1.93148,-0.45492 4.61195,0.0332 10.85629,0.27113 11.32053,0.43142 0.8434,0.29121 1.28151,-0.62764 0.87974,-1.84504 -0.33536,-1.01616 -3.23626,-3.43233 -3.84189,-3.19992 -0.19345,0.0742 -0.81605,-0.2014 -1.38357,-0.61251 -1.18808,-0.86064 -2.15355,-1.1216 -4.56131,-1.23291 -6.87658,-0.31788 -8.28529,-0.61635 -9.88112,-2.09354 -0.70797,-0.65534 -1.17086,-0.89328 -1.52135,-0.78204 -0.62891,0.19961 -0.70864,-0.69929 -0.10636,-1.19913 0.33137,-0.27502 0.56219,-0.15358 1.38906,0.73081 0.5454,0.58336 1.27764,1.20733 1.6272,1.38661 0.61899,0.31747 4.85139,0.76598 8.66416,0.91814 1.04027,0.0415 2.01712,0.15319 2.1708,0.24817 0.15368,0.095 0.85762,-0.24271 1.56431,-0.75042 0.73704,-0.52952 1.77244,-1.00107 2.42835,-1.10595 1.75054,-0.27993 4.73053,-2.02517 6.23266,-3.65019 1.50649,-1.62974 3.13903,-2.80381 3.8987,-2.80381 0.28466,0 0.86326,-0.2042 1.28577,-0.45379 0.72834,-0.43023 0.79226,-0.42939 1.23145,0.0162 0.44145,0.44785 0.43835,0.48841 -0.0659,0.86216 -0.29105,0.2157 -0.82683,0.45623 -1.19063,0.5345 -1.52343,0.32775 -2.3099,0.83055 -4.15095,2.65376 -1.8152,1.79762 -4.13893,3.22435 -6.37729,3.91555 -0.4315,0.13324 -0.56272,0.32478 -0.45502,0.66412 0.12097,0.38115 -0.0396,0.5127 -0.79968,0.6553 -1.09588,0.20559 -1.0985,0.68754 -0.005,0.9799 0.40971,0.10958 0.99727,0.41915 1.30567,0.68793 1.03145,0.89897 1.84577,1.17767 2.60147,0.89035 1.15676,-0.4398 3.91322,-2.60007 5.91958,-4.63924 1.03992,-1.05693 2.40208,-2.26768 3.027,-2.69056 0.77948,-0.52745 1.24677,-1.09083 1.48827,-1.79431 0.31677,-0.92272 0.29679,-1.14804 -0.19938,-2.24896 -1.08497,-2.40738 -0.55907,-8.39888 0.82269,-9.37274 0.24772,-0.17459 0.83622,-1.00204 1.30777,-1.83878 0.47156,-0.83674 0.9679,-1.58965 1.10298,-1.67313 0.13508,-0.0835 0.76941,0.0482 1.40962,0.29275 2.22391,0.84932 2.20988,-0.1754 -0.0343,-2.50769 -0.84651,-0.87973 -1.62724,-1.60008 -1.73497,-1.60077 -0.10773,-6.9e-4 -0.98765,-0.54335 -1.95539,-1.20589 -1.32983,-0.91044 -1.96045,-1.18505 -2.58226,-1.12448 -0.76347,0.0744 -0.81736,0.14601 -0.74817,0.99464 0.041,0.50298 0.24936,1.10767 0.46302,1.34375 0.47469,0.52454 0.51024,1.13225 0.0577,0.98693 -0.45231,-0.14525 -1.65614,-2.40135 -2.19432,-4.11236 -0.38445,-1.22229 -0.67034,-1.57977 -2.17328,-2.71752 -1.74519,-1.32114 -2.07302,-1.43802 -3.19267,-1.13819 -0.83283,0.22302 -0.61068,1.04149 0.7841,2.88886 0.58935,0.78059 1.02736,1.5518 0.97336,1.71381 -0.16983,0.50949 -2.34667,-2.33671 -2.98255,-3.89966 -0.48743,-1.19809 -0.88957,-1.69574 -2.02644,-2.50773 -1.55743,-1.11237 -2.3191,-1.254605 -2.94525,-0.54999 -0.6751,0.75968 -0.36596,2.30135 0.7146,3.56375 0.89992,1.05135 1.2293,2.05865 0.67318,2.05865 -0.14552,0 -0.26458,-0.15784 -0.26458,-0.35076 0,-0.19291 -0.30805,-0.6394 -0.68456,-0.99219 -0.99231,-0.92978 -1.46026,-2.16502 -1.66712,-4.40065 -0.0485,-0.524294 -3.2237,-1.92932 -4.36003,-1.92932 -0.57139,0 -1.41514,0.237388 -1.89262,0.532487 -0.69032,0.426639 -0.89598,0.761829 -1.0346,1.686243 -0.29204,1.94743 -2.32763,4.08662 -3.31062,3.47911 -0.4847,-0.29957 -0.3039,-0.87188 0.32532,-1.0298 0.75694,-0.18998 1.7864,-1.55526 2.04829,-2.71646 0.19373,-0.858959 0.16441,-0.897894 -1.16109,-1.541913 -0.74792,-0.363386 -1.55787,-0.805447 -1.79989,-0.982358 -0.34396,-0.251421 -0.92169,-0.252888 -2.64583,-0.0067 -1.21319,0.173215 -2.68204,0.374964 -3.26413,0.44833 -1.76914,0.222986 -1.82474,0.293368 -1.04224,1.319278 0.52396,0.686953 0.60494,0.928473 0.3113,0.928473 -0.21828,0 -0.71472,-0.41672 -1.1032,-0.926048 -0.49905,-0.654289 -0.9159,-0.926332 -1.42047,-0.927031 -0.39277,-5.55e-4 -1.11466,-0.245171 -1.60419,-0.543617 -0.48953,-0.298445 -1.14437,-0.506359 -1.45521,-0.462031 -0.49768,0.07097 -0.5552,0.225065 -0.48183,1.290711 0.0578,0.838747 -0.0396,1.312126 -0.31719,1.542526 -0.22029,0.18282 -0.53144,0.72907 -0.69144,1.21388 -0.16,0.48481 -0.46375,0.9478 -0.67499,1.02886 -0.58375,0.22401 -0.47673,-0.72848 0.14509,-1.29121 0.35535,-0.32159 0.52917,-0.81491 0.52917,-1.501892 0,-1.564795 -0.55601,-1.712468 -4.97844,-1.322251 -1.99129,0.175703 -4.156304,0.319083 -4.811148,0.318622 -0.654844,-4.5e-4 -1.905,0.213116 -2.778125,0.474614 -1.531088,0.458555 -1.584539,0.504505 -1.504167,1.293087 0.11365,1.11505 -0.286263,1.26987 -0.843494,0.32655 -0.253209,-0.42864 -0.602477,-0.79015 -0.776152,-0.80335 -1.609164,-0.12224 -3.591081,0.0967 -4.916393,0.54319 -0.880215,0.29653 -2.050631,0.53958 -2.600925,0.54013 -1.079233,0.001 -2.637494,0.7982 -2.900585,1.48381 -0.08937,0.23289 0.08707,0.93711 0.392092,1.56493 0.468217,0.96373 0.4973,1.18903 0.186764,1.44675 -0.296093,0.24574 -0.47506,0.0951 -0.917753,-0.77269 -0.576037,-1.12913 -1.052512,-1.33777 -1.58628,-0.69462 -0.174979,0.21084 -0.755105,0.51749 -1.289167,0.68144 -1.855617,0.56966 -2.755521,1.19384 -4.174348,2.89535 -0.784785,0.94115 -1.426883,1.84241 -1.426883,2.00281 0,0.27289 0.825081,1.10648 1.520714,1.53641 0.169442,0.10472 0.744576,0.008 1.278077,-0.21489 1.282286,-0.53577 3.152404,-0.5145 4.102392,0.0467 0.732155,0.4325 0.782968,0.42965 1.179359,-0.0661 0.22783,-0.28496 0.584776,-0.89711 0.793212,-1.36032 0.447334,-0.99411 1.324727,-1.67134 2.165327,-1.67134 0.803576,0 0.759454,0.27368 -0.176528,1.09499 -0.428511,0.37602 -1.150527,1.41456 -1.604481,2.30788 -0.453951,0.89332 -0.879623,1.62422 -0.945935,1.62422 -0.06631,0 -0.608762,-0.30819 -1.205442,-0.68485 -1.11475,-0.70371 -1.939253,-0.74651 -4.404663,-0.22864 -1.074383,0.22568 -3.162395,-0.76417 -3.514735,-1.6662 -0.127893,-0.32742 -0.326959,-0.59531 -0.442369,-0.59531 -0.378912,0 -2.832497,2.15881 -3.467903,3.05126 -0.80149,1.12573 -0.794838,1.74109 0.04081,3.77553 0.570334,1.38853 0.620331,1.6922 0.29891,1.81554 -0.465273,0.17854 -1.172994,-0.35657 -1.172994,-0.88692 0,-0.21003 -0.129241,-0.62336 -0.287203,-0.91851 -0.284851,-0.53225 -0.292629,-0.53157 -0.95008,0.0835 -1.059902,0.99164 -2.187787,2.81641 -2.443064,3.95257 l -0.235826,1.04958 0.965899,-0.0743 c 1.275886,-0.0982 1.302728,0.54113 0.03986,0.9493 -0.825091,0.26667 -1.078498,0.60216 -2.32455,3.07743 -1.169915,2.32402 -1.369191,2.92239 -1.21915,3.66076 0.230318,1.13341 0.828116,1.36657 1.43635,0.56022 0.419607,-0.55629 0.547191,-0.5893 1.173919,-0.30374 0.532998,0.24285 0.662678,0.44788 0.535908,0.8473 -0.118509,0.37339 0.117059,0.87387 0.808473,1.71765 0.536641,0.6549 1.114787,1.19072 1.28477,1.19072 0.169982,0 0.751717,0.22568 1.292744,0.50152 1.610284,0.82096 1.694019,0.82185 2.787858,0.0295 0.577905,-0.41864 1.541156,-0.89321 2.140558,-1.05461 0.880391,-0.23707 2.614119,-1.18794 3.158457,-1.73228 0.05991,-0.0599 -0.513702,-0.0352 -1.27469,0.0549 l -1.383615,0.16387 -1.658172,-1.77638 c -1.666504,-1.78532 -1.85827,-2.1879 -2.709039,-5.68725 -0.174463,-0.71759 -0.488812,-1.04702 -1.539217,-1.61306 -0.725988,-0.39122 -1.358475,-0.90816 -1.405525,-1.14876 -0.133209,-0.6812 0.29959,-0.5323 2.245362,0.77248 1.735779,1.16397 1.830497,1.19451 2.492267,0.80359 1.12573,-0.66498 2.695716,-0.80392 3.62924,-0.32118 0.919496,0.47549 2.579752,0.56654 2.833844,0.15541 0.0914,-0.14789 0.273868,-0.20235 0.405477,-0.12101 0.131608,0.0813 1.115671,-0.72039 2.186807,-1.78162 2.439347,-2.41679 3.315377,-3.10606 4.151923,-3.26675 0.363802,-0.0699 1.213221,-0.30361 1.887593,-0.51939 1.558409,-0.49865 2.895862,-0.5001 3.551941,-0.004 0.54532,0.41246 0.412219,0.48907 -0.722045,0.4156 -0.388559,-0.0252 -1.067255,0.14081 -1.508215,0.36884 -0.44096,0.22803 -1.135081,0.41635 -1.542489,0.4185 -0.407408,0.002 -0.990698,0.15097 -1.296196,0.33073 -1.309452,0.77048 -3.26634,2.37722 -3.397732,2.78978 -0.07838,0.24611 -0.674986,0.86418 -1.325792,1.37351 -0.650805,0.50932 -1.182071,1.0451 -1.18059,1.19062 0.0015,0.14552 0.205333,0.67676 0.453005,1.18053 1.071842,2.18014 5.10157,3.33336 7.533713,2.15598 0.649573,-0.31446 1.393825,-0.80686 1.653889,-1.09423 0.52509,-0.58021 2.182363,-0.71511 3.054062,-0.2486 0.850368,0.45511 0.578964,0.78445 -0.646457,0.78445 -0.697029,0 -1.286949,0.1551 -1.481494,0.38951 -0.177798,0.21423 -0.963626,0.68268 -1.746285,1.04099 -1.301215,0.59572 -1.59903,0.63293 -3.479442,0.43478 -2.722941,-0.28693 -4.300593,-1.16933 -5.531776,-3.09398 -0.826031,-1.29129 -0.993921,-1.41797 -1.890591,-1.42651 -0.541231,-0.005 -1.281713,-0.17953 -1.645515,-0.3875 -1.327094,-0.75864 -3.704167,-0.16001 -3.704167,0.93284 0,0.28794 -0.178109,0.52237 -0.396875,0.52237 -0.896158,0 -0.162383,2.07111 1.382652,3.9026 1.168522,1.38517 1.996187,1.74457 2.284903,0.99219 0.238423,-0.62132 1.132415,-0.46888 2.327559,0.39687 0.602657,0.43657 1.365821,0.79375 1.695921,0.79375 0.399152,0 0.789616,0.30652 1.165745,0.91511 0.6655,1.0768 3.085522,2.5453 4.624413,2.80616 0.588989,0.0998 1.633672,0.39962 2.321515,0.66617 1.697847,0.65796 3.938891,0.28306 6.179473,-1.03374 1.031063,-0.60596 2.011561,-0.96951 2.728952,-1.01184 0.615828,-0.0363 1.177761,-0.16003 1.248738,-0.27487 0.184428,-0.29841 -0.787723,-2.39532 -1.310621,-2.82699 -0.241933,-0.19972 -0.439875,-0.52714 -0.439875,-0.7276 0,-0.47936 0.972166,-0.47074 1.243623,0.011 0.333605,0.59207 0.933969,0.60473 1.013002,0.0214 0.741035,-5.46986 1.198497,-6.9916 2.625204,-8.73271 0.87679,-1.07 0.8895,-1.11886 0.457407,-1.75816 -0.401524,-0.59407 -1.734286,-1.84592 -3.063523,-2.87754 -0.350351,-0.27192 -1.445083,-0.42998 -3.61696,-0.52223 -3.558665,-0.15116 -3.877765,-0.31944 -5.256803,-2.77226 -0.781134,-1.38936 -1.36431,-4.63607 -0.832731,-4.63607 0.403051,0 0.720799,0.79989 0.783889,1.97334 0.05766,1.07245 0.714465,2.77206 1.435725,3.7152 0.350898,0.45885 0.820718,0.54935 3.535523,0.68103 1.721969,0.0835 3.428508,0.2933 3.79231,0.46617 1.046753,0.4974 3.433411,2.29812 3.8677,2.91816 0.217602,0.31066 0.545431,0.56485 0.728505,0.56485 0.39789,0 1.22463,-1.63979 1.22463,-2.42899 0,-0.30742 0.40107,-1.16659 0.89128,-1.90925 2.04585,-3.09946 2.53876,-4.89005 1.49929,-5.44635 -0.28591,-0.15302 -0.65968,-0.74498 -0.8306,-1.31546 -0.29514,-0.98509 -0.26317,-1.10896 0.63574,-2.46323 1.02689,-1.54708 1.69235,-2.21602 1.94909,-1.95928 0.0898,0.0898 -0.3298,0.80237 -0.93244,1.5835 -0.60263,0.78112 -1.0957,1.54894 -1.0957,1.70625 0,0.15731 0.41991,0.83613 0.93313,1.50848 0.89372,1.17085 0.92073,1.26945 0.63962,2.33537 -0.16143,0.61211 -0.80694,1.94635 -1.43448,2.965 -0.62754,1.01864 -1.44754,2.74505 -1.82222,3.83646 -0.56177,1.6364 -0.91126,2.19316 -1.993034,3.175 -0.721492,0.65484 -1.566272,1.70704 -1.877287,2.33822 -0.720278,1.46174 -1.32489,4.60715 -1.32489,6.89255 0,0.98134 -0.135576,1.91147 -0.303022,2.07892 -0.227643,0.22764 -0.220983,0.59604 0.02677,1.48091 0.269941,0.96413 0.564417,1.32992 1.622729,2.01568 1.463254,0.94816 2.339724,0.94948 4.606654,0.007 0.29104,-0.121 0.85659,-0.29107 1.25677,-0.37792 0.76303,-0.1656 0.87506,-0.50349 0.50384,-1.51967 -0.23414,-0.64095 0.0885,-2.33233 0.44484,-2.33233 0.11327,0 0.31829,0.31946 0.4556,0.70991 l 0.24967,0.70991 1.12147,-1.17293 c 1.298,-1.35755 1.47284,-0.96799 0.3538,0.78828 -0.42536,0.66758 -0.85594,1.6635 -0.95683,2.21315 -0.19592,1.0673 -0.73268,1.51418 -1.81871,1.51418 -0.37031,0 -1.41994,0.23114 -2.3325,0.51365 -0.91256,0.28251 -1.986623,0.58244 -2.386806,0.6665 -0.400182,0.0841 -0.727604,0.33034 -0.727604,0.54727 0,0.21693 -0.238125,0.59831 -0.529167,0.84751 -0.753655,0.6453 -0.657076,1.23077 0.33073,2.00493 0.472942,0.37065 1.19395,0.96989 1.602237,1.33162 0.6092,0.53974 0.88053,0.61808 1.51274,0.43676 2.08422,-0.59774 4.6677,-3.29187 6.34125,-6.61282 0.18334,-0.36381 0.5782,-0.93027 0.87748,-1.25881 0.53036,-0.58223 0.53228,-0.6222 0.0758,-1.57936 -0.46099,-0.96671 -0.45922,-0.98936 0.11357,-1.45318 0.32003,-0.25913 0.73968,-0.47115 0.93257,-0.47115 0.6237,0 4.32631,-1.52285 4.76203,-1.95857 0.23248,-0.23248 0.70481,-0.42268 1.04963,-0.42268 0.88417,0 1.02963,-0.37718 1.05933,-2.74699 0.0184,-1.4643 -0.0811,-2.17763 -0.33247,-2.38336 -0.19727,-0.16149 -0.56132,-0.48508 -0.80899,-0.71909 -0.34891,-0.32967 -1.1011,-0.43735 -3.34025,-0.47815 -1.58946,-0.029 -3.11533,-0.1733 -3.39082,-0.32074 -0.86646,-0.46372 -1.52446,-2.45275 -1.52446,-4.60825 0,-1.94163 0.006,-1.95851 1.12448,-3.09207 1.22384,-1.24049 3.20391,-2.84928 3.50684,-2.84928 0.16578,0 2.77702,-1.61333 2.77702,-1.71576 0,-0.7768 0.7252,-3.39356 1.20548,-4.34978 0.35563,-0.70804 0.65056,-1.38912 0.6554,-1.51351 0.0158,-0.40607 0.99297,-1.41678 1.36975,-1.41678 0.20224,0 0.49714,-0.12944 0.65533,-0.28764 0.1898,-0.18979 0.34366,-0.197 0.45232,-0.0212 0.13832,0.22381 -0.74051,1.12863 -1.375,1.41568 -0.40281,0.18224 -1.90628,4.10814 -1.90659,4.97856 -5.3e-4,1.38213 -0.79483,2.41331 -2.54556,3.3046 -1.75418,0.89304 -4.05177,2.70251 -4.84368,3.81464 -0.47724,0.67023 -0.50637,0.94806 -0.29601,2.82381 0.33009,2.94339 0.5581,3.09702 4.36716,2.94239 2.34721,-0.0953 3.01258,-0.0403 3.37842,0.27909 0.41183,0.35956 0.71661,0.27026 3.175,-0.93031 1.49569,-0.73042 2.93049,-1.39798 3.18845,-1.48346 0.77505,-0.25683 0.81985,-0.91472 0.12436,-1.82654 -0.68479,-0.89781 -1.09389,-1.14999 -3.17207,-1.9553 -1.1526,-0.44664 -1.49583,-0.82182 -1.1073,-1.21036 0.3039,-0.30389 3.44436,1.17245 4.17736,1.96379 0.91405,0.9868 1.21827,0.70315 1.22437,-1.1416 0.002,-0.67345 0.18265,-1.65189 0.40093,-2.17431 0.21828,-0.52242 0.39687,-1.3679 0.39687,-1.87884 0,-1.44698 1.05931,-4.36812 1.74757,-4.81908 0.77862,-0.51018 2.05661,-0.36841 2.17218,0.24096 0.0615,0.32403 -0.0821,0.46302 -0.47816,0.46302 -1.30783,0 -1.89389,0.73272 -2.43368,3.04271 -0.62137,2.65916 -1.299,7.07314 -1.11423,7.25792 0.25342,0.25341 1.54708,-1.32708 1.55415,-1.89874 0.006,-0.49319 0.15406,-0.59668 0.85309,-0.59668 0.46514,0 0.99496,-0.14883 1.1774,-0.33073 0.18242,-0.1819 0.58277,-0.33073 0.88966,-0.33073 0.30688,0 0.78908,-0.1748 1.07156,-0.38846 0.82395,-0.62321 2.05311,-0.49938 2.78257,0.28032 0.35279,0.37708 1.09596,0.90594 1.65149,1.17524 l 1.01004,0.48964 1.23891,-0.90132 c 2.5818,-1.87828 2.49382,-1.7749 2.19012,-2.57365 -0.23127,-0.60823 -0.4405,-0.73185 -1.27539,-0.75352 -0.5493,-0.0143 -1.76045,-0.22262 -2.69142,-0.46302 -1.31402,-0.33932 -1.74266,-0.57411 -1.91605,-1.04955 -0.20078,-0.55056 -0.16341,-0.59277 0.36978,-0.41767 0.32622,0.10713 0.81913,0.18045 1.09537,0.16292 0.27623,-0.0175 0.83587,0.14066 1.24363,0.35152 0.40776,0.21086 1.28462,0.38339 1.94857,0.38339 1.20637,0 1.20767,0.001 1.9107,1.48583 0.84532,1.78534 0.75622,2.00019 -1.33668,3.22313 -1.78057,1.04043 -2.51301,1.97245 -2.01841,2.5684 0.18055,0.21755 0.52955,0.39555 0.77555,0.39555 0.24599,0 0.78947,0.35719 1.20773,0.79375 0.89654,0.93579 1.16016,0.9697 2.05657,0.26459 0.37,-0.29105 0.89207,-0.53296 1.16016,-0.53758 0.26809,-0.005 0.72188,-0.18566 1.00842,-0.40229 0.28655,-0.21663 1.00093,-0.52115 1.5875,-0.6767 0.58658,-0.15556 1.32559,-0.52279 1.64224,-0.81606 0.63521,-0.58833 1.14406,-0.45045 1.14406,0.31 0,0.53349 -1.49281,1.59346 -2.24416,1.59346 -0.25405,0 -0.89484,0.21717 -1.42398,0.4826 -0.52913,0.26543 -1.31925,0.65731 -1.75581,0.87085 -0.78148,0.38225 -0.79383,0.42057 -0.79845,2.47806 l -0.005,2.0898 -1.45051,0.8655 c -0.79778,0.47603 -1.62911,0.87075 -1.84739,0.87716 -0.21828,0.006 -0.87312,0.30386 -1.45521,0.66099 -0.93238,0.57205 -1.26301,0.63127 -2.77812,0.49757 -1.64146,-0.14486 -1.81534,-0.10135 -3.81757,0.95508 -2.32619,1.22736 -3.75951,1.40018 -6.89806,0.83171 -1.64133,-0.29728 -4.26341,-0.14083 -4.51702,0.26952 -0.0794,0.12851 -0.41857,0.23366 -0.75366,0.23366 -0.33509,0 -1.42939,0.38206 -2.43178,0.84903 -1.0024,0.46696 -2.29465,0.97298 -2.87169,1.12448 -1.00572,0.26405 -1.06126,0.33569 -1.34165,1.73066 -0.18653,0.92806 -0.78889,2.25352 -1.66282,3.65898 -0.75369,1.21207 -1.37033,2.28702 -1.37033,2.38877 0,0.10175 -0.99372,1.13839 -2.20827,2.30363 l -2.20826,2.11863 1.21608,1.8426 c 0.90054,1.36451 1.50483,1.98133 2.32896,2.3773 0.61209,0.29409 1.44552,0.83717 1.85208,1.20686 0.61793,0.56188 1.93767,1.30114 2.32281,1.30114 0.0569,0 0.0811,-0.32742 0.0537,-0.7276 -0.0469,-0.68448 0.0521,-0.75344 1.66998,-1.16353 2.46548,-0.62493 5.92628,-0.38868 6.96561,0.47551 0.41135,0.34203 0.8709,0.62187 1.02124,0.62187 0.15033,0 0.9247,0.59532 1.72081,1.32292 0.79612,0.72761 1.63973,1.32292 1.8747,1.32292 0.23498,0 0.75074,-0.30995 1.14615,-0.68878 z m 41.80039,-3.93635 c 0.15069,-0.58488 0.38536,-1.42905 0.52149,-1.87595 0.39278,-1.28939 0.29261,-2.2275 -0.3478,-3.25728 -0.54327,-0.8736 -0.59539,-1.28104 -0.59627,-4.66143 -5.3e-4,-2.5243 -0.10897,-3.89379 -0.34004,-4.29948 -0.18649,-0.32743 -0.39875,-0.59532 -0.47168,-0.59532 -0.23678,0 -2.41936,2.23408 -2.69721,2.76085 -0.18833,0.35705 -0.17852,0.66764 0.0324,1.02676 0.23359,0.39764 0.22492,0.54288 -0.0381,0.63789 -0.18728,0.0677 -0.66494,0.39603 -1.06147,0.72969 -1.04501,0.87931 -2.6328,1.27977 -4.30819,1.08658 -3.01933,-0.34817 -3.28567,-0.3301 -3.28567,0.22291 0,0.34542 0.73035,1.00896 2.24896,2.04322 1.23692,0.84242 2.40248,1.53496 2.59012,1.53897 0.65385,0.014 2.90479,1.73782 3.79747,2.90821 0.4945,0.64833 1.19435,1.24945 1.55523,1.33581 0.48479,0.11602 0.65614,0.33232 0.65614,0.82829 0,0.3692 0.17232,0.87964 0.38295,1.13432 0.36409,0.44023 0.40031,0.43931 0.73528,-0.0188 0.19378,-0.26501 0.47562,-0.96037 0.6263,-1.54524 z m -18.66229,-3.17167 c 0.28247,-0.21365 0.84655,-0.39224 1.2535,-0.39687 0.54025,-0.006 0.86153,-0.22215 1.19062,-0.80049 0.2479,-0.43564 0.58823,-0.79283 0.75631,-0.79375 0.16807,-8e-4 0.6186,-0.5358 1.00118,-1.18861 0.60007,-1.02396 0.69673,-1.49449 0.7039,-3.42656 0.0129,-3.48481 -0.29197,-5.96984 -0.73248,-5.96984 -0.20528,0 -0.86968,-0.25327 -1.47646,-0.56283 l -1.10324,-0.56283 -0.37371,0.56283 c -0.20856,0.31411 -0.65453,0.56283 -1.00922,0.56283 -0.44834,0 -1.29879,0.67381 -2.88747,2.28772 -2.07093,2.10384 -3.18646,2.99954 -5.57218,4.47419 -1.23963,0.76623 -1.22054,0.70471 -0.63177,2.0357 0.29352,0.66357 0.46719,1.37973 0.38594,1.59148 -0.16264,0.42383 1.01245,0.71405 2.92325,0.72197 1.55937,0.006 2.86839,0.44323 3.5715,1.19166 0.70941,0.75514 1.26332,0.83085 2.00033,0.2734 z m -83.788706,-3.60786 c 0.344442,-0.88829 0.968914,-2.00534 1.387715,-2.48232 0.418802,-0.47699 0.761457,-0.95747 0.761457,-1.06774 0,-0.11027 0.176736,-0.33267 0.392746,-0.49424 0.685406,-0.51264 0.180765,-1.40531 -1.146846,-2.02866 -0.676651,-0.31771 -1.780947,-1.16063 -2.453992,-1.87315 -1.403995,-1.48634 -1.929454,-1.48716 -2.341514,-0.004 -0.398177,1.43354 -0.33841,4.32407 0.102421,4.95345 0.205507,0.2934 0.579124,1.16166 0.83026,1.92947 0.400291,1.22382 1.318532,2.66319 1.707856,2.67712 0.0735,0.003 0.415455,-0.72201 0.759897,-1.61029 z m 95.307996,-3.05386 c 1.31621,-0.63667 1.82659,-1.15481 1.82659,-1.85436 0,-0.34125 0.11906,-0.62046 0.26458,-0.62046 0.14552,0 0.26459,-0.17135 0.26459,-0.38078 0,-0.50519 2.01469,-2.8331 2.83693,-3.27799 0.53333,-0.28856 0.61645,-0.478 0.46441,-1.05833 -0.10186,-0.38877 -0.33865,-1.42386 -0.52621,-2.3002 -0.58479,-2.73237 -0.93931,-3.85179 -1.17395,-3.70678 -0.12441,0.0769 -0.30981,0.86019 -0.412,1.74067 -0.11863,1.0221 -0.29544,1.56382 -0.48905,1.4984 -0.20066,-0.0678 -0.30326,-0.98965 -0.30326,-2.72487 v -2.62241 l -1.00714,-1.29663 c -0.55394,-0.71315 -1.25145,-1.78472 -1.55005,-2.38125 -0.29859,-0.59654 -1.14197,-1.63997 -1.87418,-2.31874 -1.1439,-1.06041 -1.4493,-1.21497 -2.16967,-1.09807 -0.46111,0.0748 -1.29643,0.01 -1.85628,-0.145 -0.55984,-0.15458 -1.16871,-0.19623 -1.35306,-0.0926 -0.48374,0.27206 -2.86828,3.99618 -3.23774,5.05663 -0.52118,1.49594 -0.39662,4.79819 0.23482,6.22567 0.32443,0.73344 0.51341,1.6331 0.46302,2.20433 -0.0779,0.88355 0.004,1.01612 0.9732,1.56821 1.39142,0.79289 1.71979,0.7684 1.71979,-0.12822 0,-0.43211 0.4954,-1.49427 1.19063,-2.55277 0.65484,-0.99702 1.19062,-1.86727 1.19062,-1.9339 0,-0.0666 0.35719,-0.57212 0.79375,-1.12332 0.43656,-0.55121 0.79375,-1.10625 0.79375,-1.23343 0,-0.12718 0.31053,-0.68823 0.69008,-1.24677 0.62517,-0.92003 0.72889,-0.97673 1.10279,-0.60282 0.37391,0.3739 0.34633,0.50852 -0.2932,1.43136 -0.38826,0.56025 -0.70592,1.14066 -0.70592,1.28979 0,0.31618 -1.28375,2.30757 -2.70646,4.19833 -0.93271,1.23957 -0.9955,1.44125 -0.99657,3.20122 -5.3e-4,1.03307 0.0759,2.78924 0.16998,3.90261 0.15797,1.86882 0.2166,2.02429 0.76337,2.02429 0.32575,0 0.99288,0.17394 1.48253,0.38652 1.18113,0.51279 2.33019,0.50329 3.42931,-0.0284 z m -30.89815,-10.75268 c 1.95372,-0.99749 2.1615,-1.04708 3.76136,-0.89768 0.93138,0.087 1.75922,0.0516 1.83967,-0.0785 0.0804,-0.13016 0.79816,-0.48056 1.59491,-0.77867 0.79676,-0.2981 1.93989,-0.85211 2.54029,-1.23113 1.06336,-0.67127 1.08816,-0.72 0.95731,-1.88091 -0.18153,-1.61053 -1.55783,-3.03342 -3.5359,-3.6556 -1.39747,-0.43956 -2.21415,-0.98108 -2.21415,-1.46814 0,-0.13149 0.37314,-0.16444 0.82919,-0.0732 0.93201,0.1864 0.98944,-0.31437 0.0942,-0.82163 -0.27517,-0.15591 -1.09342,-0.68652 -1.81833,-1.17912 -1.24217,-0.84409 -1.37238,-0.87679 -2.26208,-0.56818 -1.95353,0.67762 -3.72218,1.62493 -3.72218,1.99365 0,0.76249 -2.20202,2.76336 -3.94678,3.58625 -5.12359,2.41646 -4.90568,2.16513 -4.91259,5.66628 l -0.004,2.10944 2.56908,0.0543 c 1.413,0.0299 2.76397,0.16336 3.00217,0.29666 0.84726,0.47415 3.10405,0.0106 5.22797,-1.07373 z"
         id="path867" />
      <g
         id="g956">
        <path
           style="fill:#5555ff;stroke-width:0.264583"
           d="m 131.38052,159.18522 c -1.09658,-0.38386 -1.37695,-0.61801 -1.63871,-1.36855 -0.17369,-0.498 -0.32252,-1.39759 -0.33073,-1.99908 -0.0175,-1.28339 -0.24899,-1.39722 -2.3872,-1.17402 -1.41602,0.14782 -1.45114,0.17186 -1.68177,1.15093 -0.25963,1.10223 -1.48108,2.49013 -2.39288,2.71898 -1.396,0.35037 -2.75193,-0.91576 -3.35978,-3.13725 -0.15136,-0.55319 -0.46827,-1.07989 -0.70423,-1.17044 -0.23596,-0.0906 -1.26947,-0.0205 -2.29668,0.15564 -1.0272,0.17614 -3.17939,0.38214 -4.78263,0.45776 -3.10501,0.14646 -7.19704,1.16954 -7.46439,1.86623 -0.21841,0.56917 -1.1342,0.41749 -1.37275,-0.22736 -0.23225,-0.62785 -0.10684,-1.4531 0.2548,-1.6766 0.12203,-0.0754 0.45935,0.0112 0.74959,0.19243 0.43693,0.27287 0.84026,0.22889 2.34464,-0.25562 1.21153,-0.3902 2.47771,-0.58518 3.80008,-0.58518 1.09074,0 2.67731,-0.12832 3.52572,-0.28516 0.84842,-0.15684 2.50321,-0.3652 3.67731,-0.46302 l 2.13475,-0.17786 0.25826,-0.9026 c 0.21995,-0.76869 0.18208,-0.95694 -0.25528,-1.26888 -1.05608,-0.75326 -5.05426,-3.24736 -6.20208,-3.86891 -1.15717,-0.62662 -6.52526,-2.29471 -7.37999,-2.29328 -0.23387,2.7e-4 -0.66334,0.43689 -0.95438,0.96999 -0.29105,0.53309 -0.7191,1.08608 -0.95124,1.22887 -1.22482,0.75336 -3.15065,-1.15539 -3.14882,-3.12088 0.002,-2.24941 1.79474,-3.60831 3.61453,-2.73996 0.62136,0.2965 0.76395,0.5481 0.83076,1.46587 0.0804,1.10414 0.0858,1.10942 1.5875,1.53434 4.86666,1.37713 6.48044,2.05067 9.82526,4.10078 1.89925,1.16409 3.66908,2.11653 3.93296,2.11653 0.85966,0 1.42702,-0.65096 1.51364,-1.73667 0.0457,-0.5728 0.86657,-3.45196 1.82415,-6.39814 0.95757,-2.94618 1.74105,-5.58144 1.74105,-5.85612 0,-0.27591 -0.23541,-0.561 -0.52598,-0.63698 -0.78008,-0.204 -1.13111,-1.38819 -1.11476,-3.76063 l 0.0146,-2.11667 -1.47577,-1.05833 c -0.81167,-0.58208 -2.24603,-1.98545 -3.18747,-3.11859 -0.99647,-1.19938 -2.07737,-2.21304 -2.58681,-2.4259 -0.69108,-0.28875 -0.84481,-0.48143 -0.73109,-0.9163 0.10174,-0.38905 0.3485,-0.54524 0.84075,-0.53218 0.56714,0.0151 1.04126,0.49051 2.54883,2.55608 1.5138,2.0741 4.30893,4.83287 4.89729,4.8336 0.0741,9e-5 0.29063,-0.24937 0.48109,-0.55435 0.28938,-0.46336 0.28277,-0.62645 -0.0402,-0.99218 -0.21258,-0.24073 -1.17765,-2.02242 -2.14461,-3.95932 -0.96695,-1.9369 -2.12211,-4.0205 -2.56703,-4.63021 -0.44491,-0.60971 -1.49709,-2.55353 -2.33817,-4.3196 -0.88105,-1.84996 -1.97601,-3.70044 -2.58323,-4.36563 -1.82318,-1.99721 -2.04183,-2.9301 -1.14807,-4.89843 0.54494,-1.20015 1.64601,-1.69619 2.6145,-1.17787 0.28044,0.15009 0.58082,0.20196 0.66751,0.11527 0.0867,-0.0867 0.56682,0.0366 1.06696,0.27389 0.50014,0.23733 1.15065,0.43151 1.44558,0.43151 1.30424,0 7.6631,2.00664 14.59734,4.60641 1.38244,0.51831 2.69213,0.95373 2.91041,0.96762 0.81253,0.0517 3.05383,1.46088 3.36391,2.11502 0.17666,0.37268 0.34333,1.41515 0.37038,2.31661 0.0385,1.28293 -0.06,1.76199 -0.45349,2.20509 -0.71215,0.80198 -2.60501,1.59447 -3.35738,1.40563 -0.53781,-0.13498 -0.84068,0.1178 -2.13065,1.77824 -2.06576,2.65903 -5.05766,6.31154 -5.75002,7.01961 -0.56322,0.57601 -0.54876,1.39827 0.0246,1.39827 0.15731,0 0.63022,-0.17799 1.0509,-0.39553 0.42068,-0.21754 1.52256,-0.67056 2.44861,-1.0067 0.92606,-0.33614 2.58799,-1.23627 3.69319,-2.0003 1.66573,-1.15151 2.03806,-1.54158 2.17666,-2.28038 0.19977,-1.06476 1.73082,-2.51917 2.65193,-2.51917 1.0768,0 1.45017,0.28106 1.98772,1.49628 0.43766,0.98939 0.47938,1.38775 0.26422,2.52232 -0.29828,1.5728 -0.0401,2.78063 1.06249,4.97055 0.40482,0.80404 1.65313,3.60501 2.77404,6.22439 1.1209,2.61937 2.32941,5.26629 2.68559,5.88203 0.6265,1.08308 0.68943,1.11859 1.93267,1.09058 0.70679,-0.0159 1.41722,0.0527 1.57873,0.15254 0.53285,0.32931 1.6176,2.96236 1.6176,3.92643 0,1.21195 -0.9631,2.38321 -2.6715,3.24893 -1.80523,0.91477 -3.03786,0.86029 -4.11301,-0.18178 l -0.85658,-0.83023 -2.33102,0.57733 c -7.16408,1.77434 -8.37175,2.48253 -8.62089,5.05541 -0.18139,1.87317 -0.79288,3.11953 -1.97788,4.03136 -1.08485,0.83477 -1.54133,0.86501 -3.37391,0.22349 z m -1.62941,-6.14247 c 0.13621,-0.3462 0.54532,-1.24874 0.90913,-2.00564 l 0.66149,-1.37619 -1.0672,-4.31236 c -0.58695,-2.37179 -1.24907,-5.54332 -1.47137,-7.04784 -0.22231,-1.50452 -0.46401,-2.79532 -0.53712,-2.86843 -0.0731,-0.0731 -0.37738,-0.0553 -0.67614,0.0395 -0.35975,0.11418 -0.63838,0.54677 -0.82503,1.28093 -0.15501,0.60969 -0.80911,2.71587 -1.45354,4.6804 -2.34823,7.15842 -2.46134,8.01173 -1.18685,8.95399 0.43656,0.32277 0.79375,0.82523 0.79375,1.11659 0,0.29136 0.17639,0.95192 0.39199,1.46792 l 0.392,0.93818 1.91062,-0.11879 c 1.7126,-0.10647 1.93629,-0.18402 2.15827,-0.74823 z m 7.30809,-1.41428 c 0.23577,-0.21337 2.38827,-0.93523 4.78333,-1.60413 5.83788,-1.63042 5.75138,-1.59144 6.06894,-2.7347 0.39973,-1.43909 0.33884,-1.73277 -0.45751,-2.20696 -0.40019,-0.23829 -1.20386,-0.86765 -1.78594,-1.39857 -2.12885,-1.94172 -3.22878,-2.73964 -5.82083,-4.22261 -1.45521,-0.83256 -3.06256,-1.83044 -3.57188,-2.21751 -1.53494,-1.16651 -4.04749,-2.84851 -4.9478,-3.31225 -1.25331,-0.64557 -1.62042,-0.55549 -1.80784,0.44357 -0.22467,1.19759 0.75315,7.49634 1.81229,11.67403 l 0.86847,3.42563 1.30983,0.33248 c 0.91715,0.2328 1.54781,0.6065 2.10359,1.2465 0.93979,1.08219 0.90129,1.06689 1.44535,0.57452 z m 12.45829,-7.43111 0.63443,-0.67532 -0.69418,-1.24291 c -0.38179,-0.68361 -1.64066,-3.44557 -2.79748,-6.13771 -1.15682,-2.69214 -2.58028,-5.84729 -3.16324,-7.01146 l -1.05994,-2.11666 -1.15813,0.0909 c -1.06127,0.0833 -1.22761,0.008 -1.98886,-0.89858 l -0.83072,-0.98949 -1.51189,1.08264 c -0.83154,0.59545 -2.48381,1.45332 -3.67172,1.90637 -2.70043,1.02991 -3.61503,1.84427 -3.61503,3.21884 0,0.94396 0.0823,1.04609 1.36876,1.69797 0.75281,0.38148 2.81871,1.68038 4.59087,2.88645 1.77217,1.20606 4.12529,2.68853 5.22917,3.29438 2.03604,1.11744 2.82434,1.69212 5.73496,4.18084 0.8935,0.76398 1.7762,1.38906 1.96156,1.38906 0.18536,0 0.62251,-0.30389 0.97144,-0.67531 z m -22.6082,-16.46051 c 0.18536,-0.12372 0.35633,-2.1284 0.47023,-5.51381 0.16167,-4.80503 0.13576,-5.35512 -0.2679,-5.68855 -0.24578,-0.20301 -0.7139,-0.96442 -1.04027,-1.69203 -0.63685,-1.41978 -1.70344,-2.52718 -4.20466,-4.36553 -1.80651,-1.32776 -3.01442,-1.82403 -4.47992,-1.84056 -1.57923,-0.0178 -1.88904,0.61516 -0.9616,1.96468 0.40308,0.58652 1.36192,2.3761 2.13074,3.97683 0.76882,1.60073 1.83935,3.56526 2.37897,4.36562 0.53961,0.80037 1.41426,2.28865 1.94367,3.3073 0.52941,1.01864 1.29706,2.44739 1.70589,3.175 0.40884,0.7276 0.889,1.5908 1.06704,1.91822 0.33129,0.60928 0.74151,0.7374 1.25781,0.39283 z m 4.16737,-3.84699 c 1.85096,-1.94372 3.83435,-4.3878 4.34245,-5.35109 0.1558,-0.29537 0.31489,-1.24787 0.35354,-2.11667 l 0.0703,-1.57964 -2.57963,0.0183 -2.57964,0.0183 -1.01225,1.17235 c -1.15187,1.33406 -1.25665,1.80626 -1.51476,6.82604 l -0.16826,3.27244 0.63773,-0.17816 c 0.35075,-0.098 1.45349,-1.0348 2.45054,-2.08181 z m 4.59103,-9.8724 c 0.32065,-0.086 0.82347,-0.61766 1.11737,-1.18151 0.49997,-0.95922 0.50502,-1.04087 0.0785,-1.26878 -0.5235,-0.27971 -4.46398,-1.83695 -6.80591,-2.68963 -0.87312,-0.3179 -2.54,-0.92696 -3.70416,-1.35347 -2.45647,-0.89995 -4.92923,-1.52611 -7.06281,-1.78846 l -1.50655,-0.18525 -0.37347,1.13443 c -0.42251,1.28341 -0.37008,1.40976 0.5864,1.41338 1.08706,0.004 3.14919,1.10883 5.5783,2.98839 l 2.24896,1.74016 0.93719,-0.91036 c 1.19833,-1.16401 2.08572,-1.19242 3.00804,-0.0963 0.37674,0.44773 0.68498,1.08273 0.68498,1.41112 0,0.32838 0.0794,0.67643 0.17639,0.77344 0.21746,0.21747 4.23547,0.22771 5.03682,0.0128 z"
           id="path958" />
      </g>
    </g>
  </g>
  <g
     id="g2145"
     transform="matrix(0.71239896,0,0,0.71239896,16.784489,25.248166)">
    <path
       style="fill:#ddbb88;fill-opacity:1;stroke-width:0.264583"
       d="m 37.109879,110.28052 c -2.666651,-0.7507 -4.141584,-3.42973 -4.141584,-7.52267 0,-2.27598 0.02687,-2.37528 1.199777,-4.433458 0.659876,-1.157934 1.510326,-2.429479 1.88989,-2.825657 1.477454,-1.54213 3.834622,-2.022531 4.865536,-0.991616 0.711322,0.711322 0.340387,1.187508 -1.072676,1.377039 -1.75156,0.234934 -3.816572,2.376408 -4.645266,4.817272 -1.213964,3.57564 0.449892,8.34007 2.912565,8.34007 1.52998,0 3.481205,-2.32874 3.932611,-4.69346 0.306223,-1.60418 -0.546222,-2.22749 -1.541812,-1.12738 -0.83929,0.92741 -2.066933,0.50382 -2.386282,-0.82336 -0.149628,-0.62184 -0.05246,-0.73661 0.970068,-1.14574 1.382506,-0.55317 3.040666,-0.37454 4.074877,0.43897 0.686316,0.53985 0.707279,0.63315 0.591524,2.63277 -0.107411,1.85544 -0.221592,2.22056 -1.087607,3.47798 -1.486982,2.15903 -3.504428,3.05836 -5.561621,2.47924 z m 1.546958,-0.44527 c -0.08994,-0.14552 -0.394621,-0.26459 -0.677074,-0.26459 -0.282454,0 -0.513551,0.11907 -0.513551,0.26459 0,0.14552 0.304683,0.26458 0.677074,0.26458 0.384005,0 0.606292,-0.11452 0.513551,-0.26458 z m -1.984375,-0.48816 c 0,-0.12297 -0.24873,-0.44867 -0.552731,-0.72379 -0.867262,-0.78486 -2.133698,-3.5356 -1.926465,-4.18434 0.09783,-0.30626 0.275801,-1.27121 0.395491,-2.14434 0.119689,-0.87312 0.292161,-2.06375 0.38327,-2.64583 l 0.16565,-1.058334 -0.676121,0.661459 c -0.582793,0.570151 -0.710515,1.008265 -0.925261,3.173865 -0.235257,2.37244 -0.212225,2.60461 0.413411,4.16742 0.373277,0.93243 1.005642,1.94371 1.448369,2.31624 0.802301,0.67509 1.274387,0.83721 1.274387,0.43765 z m 4.45,-0.78803 c 0.06314,-0.42898 -0.02011,-0.53318 -0.330729,-0.41399 -0.491117,0.18846 -0.573384,1.25723 -0.08438,1.09619 0.181902,-0.0599 0.3687,-0.3669 0.415105,-0.6822 z m 1.10625,-0.93176 c 0,-0.19573 0.247663,-0.58 0.550362,-0.85394 0.37842,-0.34247 0.516726,-0.72725 0.442698,-1.23163 -0.05921,-0.40346 -0.0092,-0.73357 0.111096,-0.73357 0.270113,0 0.283787,-2.13795 0.01627,-2.54402 -0.439804,-0.6676 -2.512584,-0.96282 -4.096991,-0.58352 -1.111858,0.26617 -1.166204,0.38011 -0.58031,1.21659 0.50384,0.71933 1.347893,0.76654 1.56343,0.0874 0.198033,-0.62394 1.115965,-0.88575 1.807663,-0.51556 0.472432,0.25284 0.507825,0.47255 0.369898,2.29625 -0.08389,1.10917 -0.278694,2.05872 -0.432903,2.11013 -0.35605,0.11868 -0.370158,1.10769 -0.0158,1.10769 0.145521,0 0.264584,-0.16014 0.264584,-0.35586 z M 35.81269,97.995144 c 0.161978,-0.486479 -0.643091,-0.403754 -0.830784,0.08537 -0.111347,0.290164 -0.02646,0.39026 0.280496,0.33073 0.242094,-0.04695 0.489722,-0.234196 0.550288,-0.416097 z m 1.652156,-1.27639 c 0.508572,-0.510872 1.193181,-0.983342 1.521355,-1.049932 0.328173,-0.06659 0.894334,-0.182873 1.258136,-0.258406 0.730938,-0.151758 0.889426,-0.776907 0.258357,-1.019071 -0.221705,-0.08508 -0.940906,-0.08097 -1.598223,0.0091 -1.213128,0.166278 -1.924548,0.839081 -1.541907,1.458209 0.116575,0.188622 0.06679,0.226686 -0.134096,0.10253 -0.187981,-0.116178 -0.531559,0.04703 -0.834631,0.396478 -0.552074,0.636548 -0.616741,0.852333 -0.338736,1.130337 0.287809,0.28781 0.440214,0.204646 1.409745,-0.769271 z M 85.07299,108.47828 c -0.165783,-0.30977 -0.39637,-1.67138 -0.512413,-3.0258 -0.116044,-1.35443 -0.289277,-2.58926 -0.384959,-2.74408 -0.09568,-0.15482 -0.643194,-0.28149 -1.216689,-0.28149 -0.785444,0 -1.042717,0.10592 -1.042717,0.42928 0,0.32751 -0.08354,0.35993 -0.352428,0.13678 -0.276048,-0.2291 -0.639694,0.0936 -1.677892,1.48896 -0.729007,0.97979 -1.471438,2.05656 -1.649849,2.39281 -0.389179,0.73348 -1.256062,0.69317 -1.767824,-0.0822 -0.376484,-0.57042 -0.06407,-1.1878 1.942263,-3.83824 0.472943,-0.62477 0.859896,-1.41574 0.859896,-1.75771 0,-0.37035 0.157102,-0.62176 0.38853,-0.62176 0.496467,0 2.351911,-2.506642 3.514604,-4.748112 0.494755,-0.953798 0.997931,-1.835646 1.118174,-1.959663 0.12024,-0.124016 0.572884,0.03644 1.005874,0.356558 0.763731,0.56465 0.792795,0.667531 0.972688,3.443137 0.184332,2.84408 0.190034,2.863 0.958408,3.18127 0.990492,0.41028 0.985859,0.92375 -0.01146,1.27142 -1.046914,0.36496 -1.222632,1.19556 -0.845381,3.99611 0.274299,2.0363 0.260043,2.29782 -0.141476,2.59522 -0.616674,0.45677 -0.809159,0.4181 -1.157343,-0.23249 z m 0.949063,-1.35501 c -0.09106,-0.76399 -0.196144,-2.08678 -0.233511,-2.93955 -0.06277,-1.4324 -0.01082,-1.5927 0.682054,-2.10497 l 0.749996,-0.5545 -0.821489,-0.64291 -0.821489,-0.64291 0.126849,-2.621402 c 0.123605,-2.554271 0.110254,-2.632274 -0.521367,-3.046128 -1.115457,-0.730874 -1.722498,0.802696 -0.917202,2.317124 1.021699,1.921396 0.926209,3.860156 -0.22035,4.473776 -0.681651,0.36481 -1.600166,-0.0669 -1.600166,-0.75206 0,-0.54232 -0.446786,-0.5575 -1.911704,-0.065 -0.952622,0.32028 -0.983954,0.37068 -0.934646,1.50365 0.02806,0.64474 0.10037,1.17225 0.160684,1.17225 0.06032,0 0.480907,-0.22565 0.934646,-0.50144 0.453736,-0.2758 1.440585,-0.58333 2.192994,-0.68339 1.253466,-0.16671 1.396412,-0.13026 1.707165,0.4353 0.186534,0.33948 0.37619,1.51021 0.42146,2.60162 0.04527,1.0914 0.0907,2.16297 0.100971,2.38125 0.0353,0.75077 0.22317,1.05833 0.646456,1.05833 0.356391,0 0.397746,-0.22209 0.258649,-1.38906 z m -7.914786,-0.78081 c 0.24089,-0.46583 0.601136,-1.01012 0.800545,-1.20953 0.43044,-0.43044 0.480015,-1.11852 0.08059,-1.11852 -0.502774,0 -1.305523,0.53898 -1.305523,0.87655 0,0.18082 -0.238125,0.53266 -0.529166,0.78186 -0.532689,0.4561 -0.679427,1.01356 -0.352777,1.34021 0.389808,0.38981 0.891042,0.13251 1.306331,-0.67057 z m 6.43618,-6.504542 c -0.01024,-0.249542 -0.107714,-0.680983 -0.21664,-0.958758 -0.180544,-0.460414 -0.249047,-0.433422 -0.775153,0.305427 -0.657585,0.923493 -0.720058,1.294893 -0.24638,1.464733 0.511532,0.18342 1.258877,-0.30633 1.238173,-0.811402 z M 82.974545,99.2363 c 0,-0.136933 -0.119062,-0.248969 -0.264583,-0.248969 -0.145521,0 -0.264584,0.185621 -0.264584,0.41249 0,0.22687 0.119063,0.338905 0.264584,0.248969 0.145521,-0.08994 0.264583,-0.275558 0.264583,-0.41249 z m -87.5933626,9.05147 c -0.5598083,-0.45331 -0.5821598,-0.57447 -0.3050506,-1.65365 0.1644603,-0.64047 0.4318061,-2.23606 0.5941018,-3.54575 0.1622959,-1.30968 0.5243187,-3.631403 0.8044955,-5.159372 0.2801766,-1.527969 0.5095968,-3.40694 0.5098225,-4.175491 4.762e-4,-1.606752 0.4376634,-1.982886 1.563257,-1.344935 0.84111305,0.476716 0.84622824,0.966262 0.048007,4.594384 -0.5722403,2.60098 -1.330964,7.596774 -1.3411049,8.830464 -0.00584,0.71105 -0.381475,0.74117 4.162566,-0.33374 2.2154576,-0.52407 2.8821192,-0.5896 3.6380208,-0.35761 1.156594,0.35497 1.2704485,1.16531 0.1978935,1.40847 -1.8148268,0.41145 -4.079227,0.99922 -6.11501478,1.58729 -2.65764932,0.7677 -2.97828992,0.78049 -3.75699382,0.14994 z m 2.3787444,-0.0715 c 1.96529799,-0.61576 4.6553527,-1.68135 4.8143985,-1.90709 0.090973,-0.12911 0.3985512,-0.16076 0.6835071,-0.0703 0.3669806,0.11648 0.5181016,0.041 0.5181016,-0.25868 0,-0.2931 -0.1693934,-0.38402 -0.5512155,-0.29588 -6.4254824,1.48326 -6.5443327,1.46928 -6.3160058,-0.743 0.1033497,-1.00136 0.056095,-1.45608 -0.1513184,-1.45608 -0.1658797,0 -0.3015993,0.12852 -0.3015993,0.2856 0,0.15708 -0.3089791,1.05793 -0.6866205,2.00188 -0.6564177,1.64079 -0.6662523,1.73879 -0.2235761,2.22794 0.5336932,0.58973 0.9049552,0.62588 2.2143284,0.21563 z m 7.6917015,-2.32149 c 0,-0.29741 -0.6882127,-0.57482 -0.9001744,-0.36286 -0.3184959,0.3185 -0.1447144,0.59913 0.3710078,0.59913 0.2910416,0 0.5291666,-0.10632 0.5291666,-0.23627 z m -8.7480208,-3.79862 c -0.015687,-0.80431 -0.032825,-0.81983 -0.2650967,-0.24015 -0.1365789,0.34086 -0.1815367,0.72781 -0.099906,0.85989 0.2708891,0.43831 0.3819599,0.24972 0.3650027,-0.61974 z m 0.7515029,-2.277591 c 0.1841074,-0.415928 0.5038087,-1.639871 0.7104475,-2.719873 0.2066385,-1.080003 0.5017884,-2.295261 0.6558886,-2.700575 0.41569427,-1.09336 0.35014984,-1.379417 -0.3937259,-1.71835 -1.2093705,-0.551026 -1.2465066,-0.471298 -1.058558,2.272635 0.1357596,1.982005 0.081735,2.886191 -0.2331789,3.902604 -0.4676936,1.50952 -0.4940549,1.71979 -0.2156097,1.71979 0.1099973,0 0.3506287,-0.3403 0.5347364,-0.756231 z m 19.3764246,7.414341 c -1.086922,-1.08692 -1.612289,-3.07429 -1.319424,-4.99115 0.362421,-2.37216 0.884573,-4.003713 1.972966,-6.164875 2.381618,-4.729046 4.23649,-5.996231 5.760265,-3.935215 0.320765,0.433857 1.062072,1.001168 1.647351,1.260691 0.58528,0.259523 1.224878,0.666583 1.421331,0.904578 0.792993,0.960679 0.273714,2.999897 -1.697146,6.664741 -1.449234,2.69486 -3.755506,6.14293 -4.420124,6.60845 -0.96453,0.67558 -2.500942,0.51706 -3.365219,-0.34722 z m 2.378427,0.0888 c 0.275587,-0.33207 0.235521,-0.39688 -0.245327,-0.39688 -0.316085,0 -0.925976,-0.18165 -1.355313,-0.40367 -0.63718,-0.3295 -0.78061,-0.57257 -0.78061,-1.32292 0,-0.50558 -0.119063,-0.91924 -0.264584,-0.91924 -0.37992,0 -0.326644,1.66607 0.07065,2.2094 0.354867,0.48531 1.447144,1.16073 1.947474,1.20424 0.164081,0.0143 0.44655,-0.15265 0.627708,-0.37093 z m 0.646483,-2.32567 c 1.491003,-1.55981 4.565068,-7.282527 4.826605,-8.985271 0.138878,-0.904148 0.09817,-0.992188 -0.458747,-0.992188 -0.33613,0 -1.007724,0.143405 -1.49243,0.318677 -0.750761,0.271479 -0.946629,0.253333 -1.32248,-0.122518 -0.362995,-0.362997 -0.386988,-0.560164 -0.135359,-1.112426 0.168207,-0.369178 0.197964,-0.671232 0.06612,-0.671232 -0.708816,0 -3.037895,4.438577 -3.852492,7.341778 -0.720603,2.56821 -0.314508,5.6228 0.74753,5.6228 0.155845,0 0.885407,-0.62983 1.621248,-1.39962 z m 2.011479,-0.21054 c 0.39216,-0.73276 0.08622,-1.00197 -0.403323,-0.3549 -0.45275,0.59845 -0.502825,0.90673 -0.147281,0.90673 0.140401,0 0.38817,-0.24832 0.550604,-0.55183 z m -5.039212,-2.11078 c 0,-0.41016 -0.119063,-0.81933 -0.264584,-0.90926 -0.14692,-0.0908 -0.266189,0.10816 -0.268195,0.4474 -0.0021,0.33601 -0.08217,0.90859 -0.178175,1.27239 -0.156734,0.5939 -0.129342,0.62437 0.268197,0.29833 0.243515,-0.19972 0.442757,-0.69871 0.442757,-1.10886 z m 9.356754,-6.5025 c 0.202366,-1.476434 -0.199279,-2.074997 -1.659708,-2.473425 -0.626372,-0.170883 -1.104664,-0.532729 -1.403522,-1.061811 -0.583824,-1.033571 -1.155753,-1.240171 -1.805463,-0.652193 -0.656342,0.593981 -0.675699,1.019439 -0.03068,0.674233 0.852506,-0.456247 1.124313,0.169516 0.519147,1.195195 -0.484021,0.820357 -0.491485,0.911448 -0.08737,1.066521 0.24302,0.09325 0.900399,0.01822 1.460842,-0.166742 1.350838,-0.445816 1.788567,-0.23094 1.992881,0.978282 0.391234,2.315509 0.736275,2.465229 1.013873,0.43994 z m 41.256003,11.10617 c -0.597805,-0.38762 -1.351862,-1.17617 -1.675683,-1.75233 -0.503412,-0.89571 -0.565574,-1.29592 -0.428789,-2.76072 0.238749,-2.55671 2.152414,-6.249499 4.116654,-7.943882 1.23643,-1.066562 2.937561,-0.567665 2.937561,0.861509 0,0.531928 -0.148545,0.638993 -0.983279,0.708705 -0.828702,0.06921 -1.140598,0.29009 -1.983976,1.405034 -1.538192,2.033481 -2.14276,3.491634 -2.269275,5.473224 -0.103577,1.62235 -0.05668,1.82532 0.56539,2.4474 0.3746,0.3746 1.009521,0.69236 1.417969,0.70967 0.932444,0.0395 0.824745,0.0487 1.9964,-0.16981 0.937638,-0.17483 0.992187,-0.14753 0.992187,0.49659 0,0.87268 -0.670512,1.22938 -2.310894,1.22938 -0.945849,0 -1.575681,-0.18695 -2.374265,-0.70477 z m 0.187243,-0.85033 c 0,-0.1277 -0.165365,-0.36943 -0.36748,-0.53717 -0.202113,-0.16774 -0.514951,-0.86692 -0.695195,-1.55375 -0.320366,-1.22076 -0.332531,-1.23188 -0.542425,-0.49594 -0.245243,0.85988 0.09336,1.99611 0.741542,2.48832 0.508953,0.38648 0.863558,0.42695 0.863558,0.0985 z m 4.497916,-10.861413 c 0,-0.415709 -0.805061,-1.077232 -1.31097,-1.077232 -0.301279,0 -0.52641,0.245787 -0.60587,0.661458 -0.117218,0.613185 -0.05188,0.661458 0.895197,0.661458 0.561903,0 1.021643,-0.110558 1.021643,-0.245684 z M 53.713507,107.05674 c -0.592243,-0.90387 -0.807813,-3.42437 -0.735412,-8.598575 0.06088,-4.350834 0.06317,-4.365857 0.675124,-4.434165 1.392243,-0.155406 1.407784,-0.07735 1.407784,7.07019 0,6.09818 -0.03626,6.62381 -0.456922,6.62409 -0.251306,1.6e-4 -0.652065,-0.29753 -0.890574,-0.66154 z m 0.857454,-2.08387 c -0.140825,-0.89095 -0.368779,-1.69433 -0.506561,-1.78528 -0.150855,-0.0996 -0.134022,-0.23736 0.04232,-0.34634 0.455239,-0.28136 0.369538,-2.44495 -0.104045,-2.62668 -0.458565,-0.17597 -0.456697,-0.18479 -0.552381,2.60922 -0.0709,2.07034 0.204457,3.61136 0.77284,4.32513 0.477874,0.60011 0.633121,-0.37111 0.347832,-2.17605 z m 0.09847,-7.633304 c 0.105786,-1.20317 0.135131,-2.33666 0.06521,-2.518867 -0.120444,-0.313867 -1.167858,-0.468661 -1.425803,-0.210715 -0.139819,0.13982 0.396658,3.690474 0.692955,4.586279 0.309282,0.935067 0.458713,0.519504 0.667636,-1.856697 z m 39.2733,9.200414 c -0.357187,-0.35718 -0.649433,-0.95778 -0.649433,-1.33465 0,-0.37687 0.646054,-2.67424 1.435677,-5.10526 0.789625,-2.431015 1.51316,-4.805618 1.607857,-5.276892 0.237821,-1.183531 0.641186,-1.33568 1.351568,-0.50981 0.588918,0.684656 0.593926,0.737817 0.197282,2.092919 -0.223843,0.764731 -0.76707,2.283388 -1.207173,3.374794 -0.797747,1.978329 -1.524029,4.333259 -1.529987,4.960939 -0.0047,0.49387 0.619987,0.40525 2.449512,-0.34747 1.811502,-0.74531 5.880166,-1.70305 7.234896,-1.70305 1.28542,0 2.2187,0.4356 2.2187,1.03557 0,0.42004 -0.24061,0.55132 -1.25677,0.6857 -2.70892,0.35823 -4.28642,0.73611 -7.248128,1.73624 -1.694516,0.57222 -3.277505,1.0404 -3.517754,1.0404 -0.24025,0 -0.729059,-0.29224 -1.086247,-0.64943 z m 1.731817,-0.2572 c 0,-0.44753 -1.291148,-1.52548 -1.599173,-1.33511 -0.443723,0.27424 -0.271913,1.14009 0.30663,1.54532 0.602899,0.42229 1.292543,0.31013 1.292543,-0.21021 z m 8.995832,-2.53295 c 0,-0.14552 -0.11906,-0.26458 -0.26459,-0.26458 -0.14552,0 -0.26458,0.11906 -0.26458,0.26458 0,0.14552 0.11906,0.26458 0.26458,0.26458 0.14553,0 0.26459,-0.11906 0.26459,-0.26458 z m 1.98437,0 c 0.0927,-0.15006 -0.12954,-0.26458 -0.51355,-0.26458 -0.37239,0 -0.67707,0.11906 -0.67707,0.26458 0,0.14552 0.2311,0.26458 0.51355,0.26458 0.28245,0 0.58714,-0.11906 0.67707,-0.26458 z M 96.628148,97.471489 c -0.268954,-0.268953 -0.490868,0.135968 -0.270197,0.49302 0.166695,0.269721 0.229018,0.26993 0.318637,0.0011 0.06128,-0.183828 0.03948,-0.406167 -0.04844,-0.494086 z m 1.017432,-1.832497 c 0.112598,-0.448625 0.05582,-0.776982 -0.15712,-0.908584 -0.490183,-0.302949 -0.671748,-0.0926 -0.697352,0.807905 -0.02868,1.008719 0.607748,1.083707 0.854472,0.100679 z"
       id="path2149" />
    <path
       style="fill:#ddbb88;fill-opacity:1;stroke-width:0.264583"
       d="m 37.466212,109.83525 c 0,-0.14552 0.231097,-0.26459 0.513551,-0.26459 0.282453,0 0.587136,0.11907 0.677074,0.26459 0.09274,0.15006 -0.129546,0.26458 -0.513551,0.26458 -0.372391,0 -0.677074,-0.11906 -0.677074,-0.26458 z m -2.068137,-0.92581 c -0.442727,-0.37253 -1.075092,-1.38381 -1.448369,-2.31624 -0.625636,-1.56281 -0.648668,-1.79498 -0.413411,-4.16742 0.214746,-2.1656 0.342468,-2.603714 0.925261,-3.173865 l 0.676121,-0.661459 -0.16565,1.058334 c -0.09111,0.58208 -0.263581,1.77271 -0.38327,2.64583 -0.11969,0.87313 -0.297659,1.83808 -0.395491,2.14434 -0.207233,0.64874 1.059203,3.39948 1.926465,4.18434 1.146366,1.03744 0.48355,1.30025 -0.721656,0.28614 z m 4.978553,-0.0822 c 0,-0.2876 0.186799,-0.59459 0.415105,-0.6822 0.310621,-0.11919 0.393869,-0.015 0.330729,0.41399 -0.108505,0.73722 -0.745834,0.96641 -0.745834,0.26821 z m -44.8310296,-0.8266 c -0.4426762,-0.48915 -0.4328416,-0.58715 0.2235761,-2.22794 0.3776414,-0.94395 0.6866205,-1.8448 0.6866205,-2.00188 0,-0.15708 0.1357196,-0.2856 0.3015993,-0.2856 0.207413,0 0.2546681,0.45472 0.1513184,1.45608 -0.2283269,2.21228 -0.1094766,2.22626 6.3160058,0.743 0.3818221,-0.0881 0.5512155,0.003 0.5512155,0.29588 0,0.2997 -0.151121,0.37516 -0.5181016,0.25868 -0.2849559,-0.0904 -0.5925341,-0.0588 -0.6835071,0.0703 -0.2730992,0.38762 -5.3513463,2.20312 -6.1624538,2.20312 -0.2217758,0 -0.6115989,-0.23025 -0.8662731,-0.51166 z m 89.6917986,0.18093 c -0.05598,-0.1819 -0.110186,-0.50932 -0.120449,-0.7276 -0.01027,-0.21828 -0.0557,-1.28985 -0.100971,-2.38125 -0.04527,-1.09141 -0.234926,-2.26214 -0.42146,-2.60162 -0.310753,-0.56556 -0.453699,-0.60201 -1.707165,-0.4353 -0.752409,0.10006 -1.739258,0.40759 -2.192994,0.68339 -0.453739,0.27579 -0.874329,0.50144 -0.934646,0.50144 -0.06031,0 -0.132622,-0.52751 -0.160684,-1.17225 -0.04931,-1.13297 -0.01797,-1.18337 0.934646,-1.50365 1.464918,-0.49252 1.911704,-0.47734 1.911704,0.065 0,0.68518 0.918515,1.11687 1.600166,0.75206 1.146559,-0.61362 1.242049,-2.55238 0.22035,-4.473776 -0.805296,-1.514428 -0.198255,-3.047998 0.917202,-2.317124 0.631621,0.413854 0.644972,0.491857 0.521367,3.046128 l -0.126849,2.621402 0.821489,0.64291 0.821489,0.64291 -0.749996,0.5545 c -0.692883,0.51227 -0.744824,0.67257 -0.682054,2.10497 0.03737,0.85277 0.142449,2.17556 0.233511,2.93955 0.139097,1.16697 0.09774,1.38906 -0.258649,1.38906 -0.23332,0 -0.470022,-0.14883 -0.526007,-0.33073 z m -43.537852,-0.70555 c 0,-0.27892 0.126172,-0.54918 0.280382,-0.60058 0.154209,-0.0514 0.349017,-1.00096 0.432903,-2.11013 0.137927,-1.8237 0.102534,-2.04341 -0.369898,-2.29625 -0.691698,-0.37019 -1.60963,-0.10838 -1.807663,0.51556 -0.215537,0.6791 -1.05959,0.63189 -1.56343,-0.0874 -0.585894,-0.83648 -0.531548,-0.95042 0.58031,-1.21659 1.584407,-0.3793 3.657187,-0.0841 4.096991,0.58352 0.267515,0.40607 0.253841,2.54402 -0.01627,2.54402 -0.120316,0 -0.170309,0.33011 -0.111096,0.73357 0.07403,0.50438 -0.06428,0.88916 -0.442698,1.23163 -0.302699,0.27394 -0.550362,0.65821 -0.550362,0.85394 0,0.19572 -0.119063,0.35586 -0.264584,0.35586 -0.145521,0 -0.264583,-0.2282 -0.264583,-0.50711 z m -24.072577,-0.16927 c -0.361323,-0.19795 -0.807808,-0.56622 -0.992188,-0.81838 -0.397296,-0.54333 -0.450572,-2.2094 -0.07065,-2.2094 0.145521,0 0.264584,0.41366 0.264584,0.91924 0,0.75035 0.14343,0.99342 0.78061,1.32292 0.429337,0.22202 1.039228,0.40367 1.355313,0.40367 0.480848,0 0.520914,0.0648 0.245327,0.39688 -0.390708,0.47077 -0.701805,0.46784 -1.582994,-0.0149 z m 36.596161,-0.15786 c -0.568383,-0.71377 -0.843741,-2.25479 -0.77284,-4.32513 0.09568,-2.79401 0.09382,-2.78519 0.552381,-2.60922 0.473583,0.18173 0.559284,2.34532 0.104045,2.62668 -0.176337,0.10898 -0.19317,0.24676 -0.04232,0.34634 0.33024,0.21799 0.807582,3.27699 0.602562,3.86146 -0.131101,0.37374 -0.21137,0.3918 -0.443833,0.0999 z M 76.800935,107.013 c -0.32665,-0.32665 -0.179912,-0.88411 0.352777,-1.34021 0.291041,-0.2492 0.529166,-0.60104 0.529166,-0.78186 0,-0.33757 0.802749,-0.87655 1.305523,-0.87655 0.399426,0 0.349851,0.68808 -0.08059,1.11852 -0.199409,0.19941 -0.559655,0.7437 -0.800545,1.20953 -0.41529,0.80308 -0.916524,1.06038 -1.306331,0.67057 z m 17.581067,-0.52004 c -0.578543,-0.40523 -0.750353,-1.27108 -0.30663,-1.54532 0.308025,-0.19037 1.599173,0.88758 1.599173,1.33511 0,0.52034 -0.689644,0.6325 -1.292543,0.21021 z m -27.616848,-0.16347 c -0.648179,-0.49221 -0.986785,-1.62844 -0.741542,-2.48832 0.209894,-0.73594 0.222059,-0.72482 0.542425,0.49594 0.180244,0.68683 0.493082,1.38601 0.695195,1.55375 0.763704,0.63382 0.30041,1.04346 -0.496078,0.43863 z m -62.371859,-0.4189 c 0,-0.37279 0.2980245,-0.54382 0.6873256,-0.39443 0.5521703,0.21189 0.4485095,0.61492 -0.1581589,0.61492 -0.2910417,0 -0.5291667,-0.0992 -0.5291667,-0.22049 z m 16.677164,-0.7717 c 0.01521,-0.35862 0.776348,-1.22166 0.936331,-1.06168 0.209145,0.20915 -0.36589,1.26012 -0.68947,1.26012 -0.140401,0 -0.251489,-0.0893 -0.246861,-0.19844 z m -4.952701,-1.65364 c 0.09601,-0.3638 0.176188,-0.93638 0.178175,-1.27239 0.0021,-0.33924 0.121275,-0.5382 0.268195,-0.4474 0.424739,0.2625 0.304702,1.62209 -0.178173,2.01812 -0.397539,0.32604 -0.424931,0.29557 -0.268197,-0.29833 z m 88.023452,0.26458 c 0,-0.14552 0.11906,-0.26458 0.26458,-0.26458 0.14553,0 0.26459,0.11906 0.26459,0.26458 0,0.14552 -0.11906,0.26458 -0.26459,0.26458 -0.14552,0 -0.26458,-0.11906 -0.26458,-0.26458 z m 1.32292,0 c 0,-0.14552 0.30468,-0.26458 0.67707,-0.26458 0.38401,0 0.6063,0.11452 0.51355,0.26458 -0.0899,0.14552 -0.39462,0.26458 -0.67707,0.26458 -0.28245,0 -0.51355,-0.11906 -0.51355,-0.26458 z m -109.125525,-1.0339 c -0.081631,-0.13208 -0.036673,-0.51903 0.099906,-0.85989 0.2322714,-0.57968 0.2494098,-0.56416 0.2650967,0.24015 0.016957,0.86946 -0.094113,1.05805 -0.3650027,0.61974 z m 0.3846372,-2.33954 c 0.00159,-0.10914 0.1873088,-0.793746 0.4127415,-1.52135 0.314914,-1.016413 0.3689385,-1.920599 0.2331789,-3.902604 -0.1879486,-2.743933 -0.1508125,-2.823661 1.058558,-2.272635 0.74387574,0.338933 0.80942017,0.62499 0.3937259,1.71835 -0.1541002,0.405314 -0.4492501,1.620572 -0.6558886,2.700575 -0.3918582,2.048057 -0.9034026,3.476104 -1.2451839,3.476104 -0.1099976,0 -0.1987069,-0.0893 -0.1971318,-0.19844 z M 54.001792,99.196263 c -0.296297,-0.895805 -0.832774,-4.446459 -0.692955,-4.586279 0.257945,-0.257946 1.305359,-0.103152 1.425803,0.210715 0.150717,0.392762 -0.196041,4.644939 -0.395013,4.84391 -0.0756,0.0756 -0.227629,-0.135152 -0.337835,-0.468346 z m 28.443586,0.203558 c 0,-0.226869 0.119063,-0.41249 0.264584,-0.41249 0.145521,0 0.264583,0.112036 0.264583,0.248969 0,0.136932 -0.119062,0.322553 -0.264583,0.41249 -0.145521,0.08994 -0.264584,-0.0221 -0.264584,-0.248969 z m -47.463472,-1.31931 c 0.187693,-0.489121 0.992762,-0.571846 0.830784,-0.08537 -0.06057,0.181901 -0.308194,0.369144 -0.550288,0.416097 -0.306949,0.05953 -0.391843,-0.04057 -0.280496,-0.33073 z m 61.376045,-0.116002 c -0.113975,-0.184415 -0.135774,-0.406754 -0.04844,-0.494086 0.236794,-0.236792 0.494975,0.111469 0.36708,0.495153 -0.08962,0.268863 -0.151942,0.268654 -0.318637,-0.0011 z M 25.469823,97.205236 c -0.07053,-0.256775 -0.204734,-0.919605 -0.29823,-1.472956 -0.204314,-1.209222 -0.642043,-1.424098 -1.992881,-0.978282 -0.560443,0.184963 -1.217822,0.259997 -1.460842,0.166742 -0.404114,-0.155073 -0.39665,-0.246164 0.08737,-1.066521 0.605166,-1.025679 0.333359,-1.651442 -0.519147,-1.195195 -0.64502,0.345206 -0.625663,-0.08025 0.03068,-0.674233 0.64971,-0.587978 1.221639,-0.381378 1.805463,0.652193 0.298858,0.529082 0.77715,0.890928 1.403522,1.061811 1.460429,0.398428 1.862074,0.996991 1.659708,2.473425 -0.182007,1.327878 -0.506135,1.795751 -0.715643,1.033016 z m 10.585278,0.28279 c -0.278005,-0.278005 -0.213338,-0.49379 0.338736,-1.130338 0.303072,-0.349445 0.646649,-0.512656 0.834631,-0.396478 0.200887,0.124157 0.250671,0.08609 0.134096,-0.10253 -0.382641,-0.619128 0.328779,-1.291931 1.541907,-1.458209 0.657317,-0.09009 1.376518,-0.0942 1.598223,-0.0091 0.631069,0.242164 0.472581,0.867312 -0.258357,1.01907 -0.363802,0.07553 -0.929963,0.191816 -1.258136,0.258406 -0.328174,0.06659 -1.012783,0.53906 -1.521355,1.049932 -0.969531,0.973917 -1.121936,1.057082 -1.409745,0.769272 z m 60.736007,-1.949713 c 0.02561,-0.900502 0.207169,-1.110854 0.697352,-0.807905 0.212936,0.131602 0.269718,0.459959 0.15712,0.908584 -0.246724,0.983028 -0.883153,0.90804 -0.854472,-0.100679 z m -26.58132,-0.38744 c 0.145987,-0.763687 0.865328,-0.881424 1.501066,-0.245684 0.658797,0.658796 0.492929,0.907142 -0.605869,0.907142 -0.947082,0 -1.012415,-0.04827 -0.895197,-0.661458 z"
       id="path2147" />
  </g>
</svg>
