<?xml version="1.0" encoding="UTF-8" standalone="no"?>
<svg
   xmlns:dc="http://purl.org/dc/elements/1.1/"
   xmlns:cc="http://creativecommons.org/ns#"
   xmlns:rdf="http://www.w3.org/1999/02/22-rdf-syntax-ns#"
   xmlns:svg="http://www.w3.org/2000/svg"
   xmlns="http://www.w3.org/2000/svg"
   width="102.68428mm"
   height="42.133526mm"
   viewBox="0 0 102.68428 42.133526"
   version="1.1"
   id="svg8">
  <defs
     id="defs2" />
  <metadata
     id="metadata5">
    <rdf:RDF>
      <cc:Work
         rdf:about="">
        <dc:format>image/svg+xml</dc:format>
        <dc:type
           rdf:resource="http://purl.org/dc/dcmitype/StillImage" />
        <dc:title></dc:title>
      </cc:Work>
    </rdf:RDF>
  </metadata>
  <g
     id="layer1"
     transform="translate(24.453246,-5.5962476)">
    <g
       id="g847">
      <g
         id="g887">
        <g
           id="g927">
          <g
             id="g967">
            <path
               style="fill:#ddbb88;stroke-width:0.264583"
               d="m 106.63248,148.71455 c -2.86955,-0.69106 -4.63415,-1.72809 -11.170426,-6.5647 -0.904986,-0.66965 -1.890988,-1.21755 -2.191116,-1.21755 -1.016814,0 -1.017585,0.0336 0.272528,-11.85993 0.525365,-4.84333 0.645221,-5.44443 1.206292,-6.04983 0.504837,-0.54473 0.762359,-0.63455 1.358055,-0.47365 0.962511,0.25999 11.139897,0.35502 12.697907,0.11857 0.66411,-0.10079 1.69393,-0.074 2.28847,0.0596 0.99013,0.22247 1.64106,0.62266 4.2703,2.62537 0.49969,0.38062 1.29925,0.83964 1.7768,1.02005 2.71977,1.02749 3.69838,1.49894 5.42191,2.61205 l 1.9078,1.23211 -0.10046,1.33886 c -0.10907,1.45371 -0.3028,2.75879 -0.68497,4.61427 -0.13488,0.65484 -0.36788,3.15515 -0.51778,5.55625 -0.37057,5.93553 -0.36659,5.91914 -1.54109,6.35305 -0.53422,0.19737 -1.74521,0.39131 -2.69109,0.43098 -4.75362,0.19942 -11.8354,0.31711 -12.30313,0.20447 z m 10.58334,-1.42162 c 0.43656,-0.13212 1.29693,-0.24059 1.91193,-0.24105 1.31949,-0.001 1.98589,-0.31733 2.09938,-0.99662 0.15948,-0.9546 0.60755,-5.27698 0.73676,-7.10734 0.0719,-1.01864 0.25101,-2.62599 0.39799,-3.57187 0.14699,-0.94589 0.26965,-2.15791 0.27257,-2.69339 l 0.005,-0.97359 -6.01927,-0.007 c -3.3106,-0.004 -6.65387,-0.0224 -7.42949,-0.0415 -0.77563,-0.0191 -1.47552,0.0305 -1.55532,0.11031 -0.0798,0.0798 -0.1992,1.07239 -0.26533,2.20575 -0.0661,1.13336 -0.21133,2.7569 -0.32266,3.60786 -0.11133,0.85097 -0.11507,2.02487 -0.008,2.60868 0.11737,0.64188 0.0583,1.65137 -0.14957,2.55383 -0.18901,0.8208 -0.42656,2.17144 -0.52788,3.00142 -0.17545,1.43715 -0.15449,1.51582 0.44003,1.6512 1.61657,0.36812 9.09795,0.29132 10.41385,-0.10691 z m -7.73907,-3.09628 c -0.42102,-0.16989 -0.42948,-1.20768 -0.0132,-1.62394 0.46874,-0.46873 1.71372,-0.39265 1.90916,0.11666 0.37032,0.96505 -0.84508,1.93131 -1.89593,1.50728 z m 7.65969,-0.40685 c -0.74645,-0.74645 -0.0185,-1.99185 0.97919,-1.6752 0.29058,0.0922 0.60378,0.40543 0.69601,0.69601 0.31665,0.99767 -0.92875,1.72563 -1.6752,0.97919 z m 0.46877,-7.76131 c -0.27293,-0.32886 -0.27202,-0.52707 0.005,-1.0443 0.46128,-0.86191 1.00966,-1.02557 1.76908,-0.52798 l 0.63351,0.41509 -0.55651,0.78154 c -0.61113,0.85825 -1.32937,1.00402 -1.85088,0.37565 z m -8.43135,-0.48662 c -0.16585,-0.19983 -0.21888,-0.58679 -0.11784,-0.85989 0.49205,-1.33005 2.47125,-1.19579 2.47125,0.16764 0,0.86512 -1.77631,1.38762 -2.35341,0.69225 z m -4.37853,8.12159 c 0.0439,-1.42938 0.263,-3.43231 0.48698,-4.45096 0.22397,-1.01864 0.48557,-2.98387 0.58134,-4.36717 l 0.17412,-2.51508 -1.67752,-0.79221 c -1.94638,-0.91916 -6.872769,-4.5103 -8.081491,-5.89106 l -0.828724,-0.94668 -0.160953,0.77381 c -0.08852,0.4256 -0.284906,2.14303 -0.436403,3.81652 -0.151498,1.67349 -0.393338,3.78874 -0.537424,4.70055 -0.144086,0.91181 -0.27711,2.47747 -0.29561,3.47923 -0.03293,1.78351 -0.0134,1.83916 0.93899,2.67537 1.454941,1.27746 2.129465,1.78626 4.335777,3.2705 3.962138,2.66545 4.960238,3.25224 5.188998,3.05065 0.12769,-0.11254 0.26806,-1.3741 0.31192,-2.80347 z m -5.958746,-7.21169 c -0.765214,-1.42981 -0.08136,-2.39864 1.693086,-2.39864 0.78975,0 0.94344,0.0929 0.94344,0.57034 0,0.78182 -1.23607,2.34008 -1.856241,2.34008 -0.278516,0 -0.629644,-0.2303 -0.780285,-0.51178 z m 7.590406,-5.87085 c 0.49679,-0.49679 3.37198,-0.55226 4.94362,-0.0954 1.04073,0.30255 2.14753,0.38376 4.03643,0.29617 3.63941,-0.16877 6.1744,-0.46942 6.1744,-0.73228 0,-0.25717 -1.97613,-1.55256 -2.36845,-1.55256 -0.14426,0 -0.9503,-0.3033 -1.79119,-0.67399 -1.47141,-0.64865 -2.3182,-1.15052 -4.78879,-2.8382 l -1.14323,-0.78095 -7.38991,-0.0936 -7.389916,-0.0936 0.404559,0.61744 c 0.481536,0.73491 2.886917,2.80453 3.259537,2.80453 0.14367,0 0.3009,0.10667 0.34941,0.23704 0.1857,0.49912 4.53932,3.14084 5.26079,3.19218 0.08,0.006 0.27927,-0.12339 0.44274,-0.28685 z m 6.95522,-1.41915 c -0.19074,-0.22983 -0.25545,-0.67662 -0.15561,-1.07442 0.14556,-0.57997 0.29711,-0.66878 1.02173,-0.59874 0.67232,0.065 0.86997,0.21789 0.94209,0.72886 0.15044,1.0658 -1.14564,1.74265 -1.80821,0.9443 z m -10.69761,-2.07212 c -0.63936,-0.46751 -0.44134,-1.2631 0.43709,-1.75616 0.65591,-0.36815 0.75953,-0.36272 1.18427,0.062 0.51992,0.51992 0.32037,1.06798 -0.615,1.68904 -0.43906,0.29153 -0.61344,0.29241 -1.00636,0.005 z"
               id="path969" />
          </g>
          <g
             id="g1007">
            <path
               style="fill:#d3bc69;stroke-width:0.264583"
               d="m 46.670052,47.277511 c -4.926732,-1.34154 -10.616954,-5.25313 -11.968305,-8.227287 -0.585253,-1.288074 -0.549238,-5.90341 0.06401,-8.202083 0.632682,-2.371539 2.957062,-8.555201 3.749053,-9.973788 2.976131,-5.33076 8.606064,-10.613515 14.801426,-13.8886708 1.220523,-0.6452253 3.138815,-1.1984888 3.658428,-1.0551431 0.120362,0.033205 0.648237,-0.058189 1.173051,-0.203097 0.634442,-0.1751778 1.0609,-0.1749249 1.27258,7.54e-4 0.175104,0.1453234 1.075981,0.4247475 2.001948,0.6209424 4.161642,0.8817737 5.993337,1.7084431 8.888918,4.0116945 3.330776,2.649422 6.133608,7.230157 6.70755,10.962308 0.509175,3.310995 0.206841,6.602651 -0.866987,9.439298 -1.330264,3.514067 -2.425686,5.207535 -5.108339,7.897231 -2.648053,2.655009 -4.914993,4.243006 -8.466733,5.930968 -3.258179,1.548445 -3.190136,1.519838 -5.423958,2.280399 -2.804398,0.954826 -7.762764,1.147093 -10.48264,0.406474 z M 54.020563,46.35079 C 58.986868,45.398327 66.355358,41.453294 70.037921,37.775223 75.85069,31.969543 77.62152,23.364624 74.309524,17.018421 72.576297,13.697342 71.803811,12.714042 69.588108,11.008506 68.933265,10.50444 68.337952,10.028507 68.265192,9.9508763 67.75512,9.4066633 65.076002,8.2839683 63.242231,7.8459842 59.774671,7.0177799 56.976649,6.8759203 55.271052,7.4418458 50.750702,8.941719 44.48294,13.971146 41.269221,18.677308 c -3.72482,5.454617 -6.749667,15.304947 -5.826131,18.97264 0.690537,2.742364 2.785894,4.771948 7.087227,6.864758 4.416338,2.148765 7.385757,2.623264 11.490246,1.836084 z m 6.836296,-6.890147 c -1.528205,-0.799994 -2.501781,-1.831359 -2.278356,-2.41359 0.126767,-0.330354 0.367498,-0.403064 0.949256,-0.286711 0.428678,0.08574 0.840623,0.05685 0.915432,-0.0642 C 60.518002,36.5751 60.10876,35.834859 59.533767,35.051166 58.958775,34.26747 58.180082,33.014308 57.80334,32.26636 57.426597,31.518412 56.471234,30.243652 55.680315,29.433561 54.37421,28.095803 53.872396,27.143974 54.473217,27.143974 c 0.127016,0 1.030965,-0.655767 2.008772,-1.45726 0.977808,-0.801493 2.451463,-1.896525 3.27479,-2.433404 0.823326,-0.536879 1.858375,-1.280097 2.300111,-1.651594 0.441735,-0.371498 1.261951,-1.032638 1.822704,-1.4692 0.560752,-0.436563 1.151831,-0.913362 1.31351,-1.059555 0.161679,-0.146193 0.919041,-0.736206 1.683025,-1.311139 1.538365,-1.157691 1.712143,-1.591894 0.73524,-1.83708 -0.859485,-0.215718 -1.398619,-1.155907 -0.795536,-1.387332 0.691851,-0.265489 4.441674,0.168982 5.08738,0.589447 0.762904,0.49678 0.749387,0.706439 -0.132292,2.051936 -0.400182,0.610703 -0.858827,1.34653 -1.01921,1.635171 -0.364188,0.655433 -1.239848,0.807635 -1.744297,0.303185 -0.360129,-0.36013 -1.082214,-0.203676 -1.535972,0.3328 -0.07276,0.08602 -0.798875,0.651993 -1.613585,1.257709 -0.814713,0.605715 -1.886276,1.476742 -2.38125,1.935615 -0.494978,0.458873 -1.257144,1.020721 -1.693707,1.248551 -1.563171,0.815777 -4.894791,3.646646 -4.894791,4.159091 0,0.161025 0.506015,0.888034 1.124479,1.615575 1.195694,1.406578 1.785937,2.323153 1.785937,2.773344 0,0.321572 2.061774,2.996417 2.410071,3.126708 0.12967,0.04851 0.235763,-0.195569 0.235763,-0.542395 0,-1.144662 0.928068,-1.622642 1.683607,-0.867101 0.321254,0.321252 0.369289,0.872525 0.247846,2.844271 -0.08285,1.345179 -0.268248,2.59461 -0.411988,2.776511 -0.404506,0.511903 -1.794195,0.370033 -3.106965,-0.317185 z m -74.083332,7.079427 c -2.37913,-0.399267 -5.443586,-1.91252 -7.022814,-3.46792 -1.324007,-1.304031 -2.800894,-4.121743 -3.716912,-7.091392 -0.584346,-1.894398 -0.663534,-8.499409 -0.124977,-10.424284 0.338498,-1.209836 3.36876,-7.960094 3.682001,-8.202083 0.09418,-0.07276 0.400232,-0.582265 0.680105,-1.132233 1.488906,-2.92579 7.960607,-8.0355548 11.9738663,-9.4540286 2.0176371,-0.7131275 2.6028676,-0.8100226 4.3183142,-0.7149719 2.70353892,0.1497994 6.8625665,1.6755681 9.254294,3.3950031 0.529971,0.3810002 1.2760113,0.8572504 1.6578685,1.0583334 2.66242,1.402008 8.190156,7.545701 9.641498,10.715852 0.730822,1.596325 1.383295,4.800241 1.397524,6.862441 0.01233,1.785044 -0.892011,4.39011 -2.199227,6.335229 -0.961527,1.430737 -4.972743,5.62157 -6.9424203,7.253292 -2.2070695,1.828385 -7.1786642,3.754649 -11.9788699,4.641263 -2.0571065,0.379952 -8.8415248,0.524007 -10.6202508,0.225499 z M -2.1139728,45.17251 C 2.9762294,44.098418 6.5425295,42.515265 9.2819511,40.113627 12.932839,36.912917 14.763599,34.821129 15.986762,32.45286 17.427345,29.663625 17.623877,28.60664 17.21802,25.830952 16.397843,20.221734 13.96424,16.570179 7.5662182,11.348683 7.2877707,11.121439 6.632927,10.693632 6.11101,10.397999 5.5890929,10.102367 5.0430061,9.7255981 4.8974853,9.5607349 4.6159607,9.2417906 0.84444975,7.7899092 -0.92334787,7.3199465 -2.3942116,6.9289227 -4.3018052,6.966406 -5.768425,7.4151494 c -0.6821865,0.2087295 -1.6570581,0.4492963 -2.166381,0.5345927 -0.5093229,0.085296 -1.6868677,0.6586582 -2.616766,1.2741375 -0.929899,0.6154793 -1.87308,1.2381154 -2.09596,1.3836364 -3.274888,2.138216 -5.779927,5.22883 -8.041986,9.921875 -2.504017,5.195027 -2.591121,5.545136 -2.591121,10.41483 0,3.284485 0.06253,3.743074 0.792234,5.810491 1.311814,3.716647 1.776072,4.613159 3.047147,5.884235 1.374535,1.374535 3.29728,2.347646 5.740818,2.905453 2.289959,0.522751 8.253864,0.331328 11.5864672,-0.37189 z M 1.7473615,27.977973 c -0.076256,-0.123384 -1.6293729,-0.166907 -3.4513704,-0.09672 -2.3412688,0.09019 -3.4240556,0.03522 -3.692368,-0.18746 -0.3202919,-0.265818 -0.3557188,-1.497717 -0.2266117,-7.879955 l 0.1530311,-7.56488 -0.7257584,0.182153 c -0.8797205,0.220796 -1.7390901,-0.0158 -1.7390901,-0.478786 0,-0.412006 3.0601469,-2.2708526 3.7384142,-2.2708526 0.3000031,0 0.6934782,0.4102866 1.0344494,1.0786466 0.6645248,1.302576 0.6052476,2.228645 -0.1426554,2.228645 -0.5083969,0 -0.5382577,0.253603 -0.7608093,6.46156 -0.2183247,6.089998 -0.204006,6.48177 0.2490073,6.813021 0.5935953,0.434049 3.26056611,0.46077 4.64320449,0.04652 C 1.6902036,26.051187 1.822318,25.916149 1.6977151,25.419687 1.490549,24.59427 2.0436525,24.47314 3.5887821,25.005542 c 1.6392207,0.564822 1.8361262,1.25484 0.6862259,2.40474 -0.7747105,0.774711 -2.2016375,1.095188 -2.5276465,0.567691 z m 76.0428305,7.368084 c 0,-0.145521 0.126089,-0.264583 0.280199,-0.264583 0.154109,0 0.206613,0.119062 0.116675,0.264583 -0.08994,0.145521 -0.216026,0.264584 -0.280199,0.264584 -0.06417,0 -0.116675,-0.119063 -0.116675,-0.264584 z"
               id="path1009" />
          </g>
        </g>
      </g>
    </g>
  </g>
</svg>
