<?xml version="1.0" encoding="UTF-8" standalone="no"?>
<svg
   xmlns:dc="http://purl.org/dc/elements/1.1/"
   xmlns:cc="http://creativecommons.org/ns#"
   xmlns:rdf="http://www.w3.org/1999/02/22-rdf-syntax-ns#"
   xmlns:svg="http://www.w3.org/2000/svg"
   xmlns="http://www.w3.org/2000/svg"
   width="135.84618mm"
   height="85.228416mm"
   viewBox="0 0 135.84618 85.228416"
   version="1.1"
   id="svg8">
  <defs
     id="defs2" />
  <metadata
     id="metadata5">
    <rdf:RDF>
      <cc:Work
         rdf:about="">
        <dc:format>image/svg+xml</dc:format>
        <dc:type
           rdf:resource="http://purl.org/dc/dcmitype/StillImage" />
        <dc:title></dc:title>
      </cc:Work>
    </rdf:RDF>
  </metadata>
  <g
     id="layer1"
     transform="translate(-18.760616,-20.241192)">
    <g
       id="g152"
       transform="translate(4.3811035e-7,24.870833)">
      <path
         style="fill:#ddbb88;fill-opacity:1;stroke-width:0.264583"
         d="m 136.67609,80.334189 c -0.0899,-0.145521 -0.0374,-0.264583 0.11668,-0.264583 0.15411,0 0.2802,0.119062 0.2802,0.264583 0,0.145521 -0.0525,0.264583 -0.11668,0.264583 -0.0642,0 -0.19026,-0.119062 -0.2802,-0.264583 z M 75.542998,79.305605 c -0.0668,-0.0668 -1.0434,-0.15181 -2.170223,-0.188909 -1.126821,-0.0371 -3.358452,-0.133771 -4.959181,-0.214826 -1.600729,-0.08105 -3.833151,-0.155438 -4.960937,-0.165299 -1.127787,-0.0099 -2.050513,-0.100912 -2.050505,-0.202342 10e-6,-0.101428 -1.756162,-0.20515 -3.902605,-0.230492 -5.053597,-0.05967 -4.975778,-0.0553 -5.680813,-0.318865 -0.331681,-0.123992 -1.2579,-0.136795 -2.058265,-0.02845 -0.965515,0.130701 -1.722313,0.08858 -2.248958,-0.125172 -0.436563,-0.177189 -0.959152,-0.26638 -1.161309,-0.198205 -0.223359,0.07533 -0.295082,0.0067 -0.182822,-0.17495 0.101605,-0.164399 0.05865,-0.298908 -0.09546,-0.298908 -0.154109,0 -0.280199,0.115327 -0.280199,0.256281 0,0.140951 -0.178594,0.200483 -0.396875,0.132291 -0.218281,-0.06819 -0.605234,-0.192278 -0.859896,-0.275743 -0.254661,-0.08346 -2.611586,-0.138512 -5.237609,-0.12233 -2.626023,0.01619 -4.856272,-0.05226 -4.956108,-0.152098 -0.09984,-0.09984 -1.12468,-0.156589 -2.277429,-0.126117 -1.328357,0.03511 -2.163528,-0.05401 -2.280551,-0.243353 -0.101552,-0.164317 -0.361936,-0.230722 -0.57863,-0.147569 -0.216693,0.08315 -0.529086,0.06769 -0.694204,-0.03436 -0.16512,-0.10205 -0.541328,-0.199519 -0.83602,-0.216598 -0.294692,-0.01709 -0.918062,-0.05304 -1.385267,-0.0799 -0.467206,-0.02686 -0.999471,-0.209426 -1.182812,-0.405694 -0.183342,-0.196265 -0.515458,-0.314454 -0.738036,-0.262636 -0.222578,0.05182 -0.702344,-0.155122 -1.066146,-0.459861 -0.363802,-0.30474 -0.482865,-0.461352 -0.264584,-0.348031 0.341732,0.177414 0.346422,0.143841 0.03375,-0.241622 -0.199719,-0.246216 -0.522528,-0.447665 -0.717354,-0.447665 -0.404211,0 -1.189375,-2.379554 -1.040405,-3.153098 0.05413,-0.281085 -0.07279,-1.323736 -0.282054,-2.317003 -0.209262,-0.993267 -0.436972,-2.246442 -0.506023,-2.784835 -0.1878,-1.464286 -0.620952,-3.278394 -1.180221,-4.942954 -0.382017,-1.137004 -0.517023,-2.419561 -0.574231,-5.455234 -0.08894,-4.719561 0.407071,-13.436357 0.93345,-16.404167 0.20648,-1.164166 0.450971,-3.307291 0.543315,-4.7625 0.09234,-1.455208 0.233771,-3.181614 0.314283,-3.836458 0.618574,-5.031195 0.818052,-9.761002 0.75879,-17.991666 -0.03615,-5.020469 -0.155843,-9.342159 -0.26599,-9.603755 -0.324007,-0.769509 0.02829,-2.47827803 0.77289,-3.74885 0.617147,-1.053082 0.875338,-1.238354 2.368405,-1.699515 0.921661,-0.284672 3.200615,-0.831731 5.064342,-1.215687 l 3.388594,-0.698101 19.072876,0.003 c 18.530366,0.0029 40.393811,0.379962 47.383293,0.817142 1.891766,0.118327 7.487706,0.165485 12.435416,0.104797 11.94827,-0.146558 28.45021,-0.12521 28.71291,0.03714 0.11553,0.0714 1.05708,0.14272 2.09232,0.158478 1.03524,0.01576 2.32617,0.141922 2.86872,0.280363 0.54256,0.138442 1.16506,0.254374 1.38334,0.257627 0.21828,0.0033 0.57547,0.07344 0.79375,0.155972 0.51081,0.193133 0.79236,0.273975 1.5163,0.435372 2.06752,0.460941 2.53703,1.81186797 2.70068,7.770695 0.01,0.345512 0.18289,0.595313 0.41323,0.595313 0.50699,0 0.50889,0.496017 0.004,1.053893 -0.41562,0.459249 -0.51367,1.9845637 -0.25542,3.97319 0.085,0.654844 0.20172,2.440781 0.25929,3.96875 0.16079,4.267507 0.37489,7.472172 0.54798,8.202083 0.0863,0.363802 0.21619,0.959115 0.2887,1.322917 0.21973,1.102389 0.30364,1.455208 0.34605,1.455208 0.0223,0 0.084,0.178594 0.13707,0.396875 0.0531,0.218281 0.16307,0.664766 0.24434,0.992187 0.14374,0.579102 0.25562,1.083728 0.54264,2.447396 0.42858,2.036292 0.63785,9.483511 0.30854,10.980208 -0.0961,0.436563 -0.34931,2.69875 -0.56279,5.027084 -0.35603,3.883138 -1.0255,8.252732 -2.55383,16.668749 -0.40406,2.225051 -0.56442,4.085368 -0.53594,6.217708 0.057,4.268124 -0.33075,6.432974 -1.33646,7.461801 -0.43975,0.44986 -0.67581,0.882867 -0.53079,0.973656 0.14455,0.0905 -0.01,0.366926 -0.34541,0.61909 -0.52866,0.397068 -0.64778,0.40594 -0.92737,0.06906 -0.17643,-0.21259 -0.43474,-0.316103 -0.57402,-0.230026 -0.25278,0.156229 -3.07889,0.807019 -4.5816,1.055045 -0.87686,0.144727 -1.08031,0.143729 -10.71562,-0.05257 -10.54024,-0.214733 -14.23166,-0.218318 -16.80105,-0.01632 -2.93982,0.231121 -6.13768,0.411922 -10.45104,0.590875 -4.32452,0.179417 -28.828829,0.29986 -28.986216,0.142473 z m 23.873111,-0.980948 c 0.230952,-0.601853 0.115123,-3.234885 -0.278233,-6.324843 -0.0741,-0.582083 -0.201054,-2.606146 -0.28212,-4.497916 -0.08106,-1.891771 -0.283424,-4.511146 -0.449691,-5.820834 -0.228664,-1.801203 -0.226687,-2.993522 0.0081,-4.894791 0.380272,-3.079216 0.429045,-8.212108 0.25051,-26.364853 C 98.528467,16.572352 98.692685,11.687487 99.481348,6.128605 99.625083,5.115481 99.678423,4.222513 99.599876,4.14423 99.521326,4.06595 93.963669,4.001899 87.249526,4.001899 H 75.042015 l -0.465907,3.439583 c -0.400389,2.955894 -0.446143,4.816238 -0.325359,13.229167 0.0773,5.38427 0.185918,10.62302 0.241367,11.641666 0.05545,1.018646 0.183464,3.340365 0.28448,5.159375 0.101015,1.81901 0.302821,3.45612 0.448458,3.638021 0.178202,0.222578 0.170079,0.444852 -0.02484,0.679717 -0.201337,0.242596 -0.286321,4.255423 -0.27877,13.16302 0.006,7.047717 0.05109,13.409345 0.100264,14.13695 0.564909,8.359351 0.655079,9.093678 1.151856,9.380418 0.26476,0.152823 4.983906,0.256847 11.763933,0.259318 9.966671,0.0036 11.340587,-0.04478 11.478614,-0.404477 z M 74.70179,75.413942 c -0.122351,-5.711214 -0.225295,-7.652872 -0.422667,-7.972123 -0.224078,-0.362448 -0.245948,-4.146545 -0.05623,-9.729504 0.185549,-5.460384 0.26313,-15.447018 0.121099,-15.589046 -0.06772,-0.06773 -0.715393,-0.142153 -1.439264,-0.165397 -0.723874,-0.02326 -2.030508,-0.16447 -2.903633,-0.313835 -0.913495,-0.156274 -5.013695,-0.243769 -9.657292,-0.206079 -9.752874,0.07916 -10.502463,0.098 -10.672802,0.268341 -0.270393,0.27039 -0.580649,4.455652 -0.83349,11.243516 -0.07047,1.89177 -0.202451,4.74927 -0.293296,6.349999 -0.307769,5.422914 -0.136139,17.124341 0.256932,17.517414 0.09519,0.09519 0.736933,0.205772 1.426093,0.24574 0.689163,0.03997 1.729272,0.137777 2.311355,0.217353 0.582083,0.07958 2.725208,0.201895 4.7625,0.271819 2.037292,0.06992 4.954323,0.189884 6.482292,0.266573 1.527968,0.07669 3.95801,0.196977 5.400093,0.267306 1.442079,0.07033 2.66387,0.169773 2.715088,0.220991 0.05122,0.05122 0.716801,0.07035 1.479076,0.04251 l 1.385951,-0.05062 z m 38.2941,2.487533 c 1.52796,-0.170492 4.83195,-0.316391 7.34218,-0.324218 5.20617,-0.01625 4.77812,0.246266 4.30541,-2.640245 -0.14057,-0.858396 -0.43891,-4.370739 -0.66297,-7.805208 -0.22407,-3.434469 -0.48003,-6.542146 -0.56879,-6.905948 -0.35647,-1.461005 -0.40929,-2.941275 -0.48152,-13.49375 -0.0413,-6.039114 -0.1648,-15.623645 -0.27436,-21.298957 -0.1861,-9.640451 -0.04,-14.462504 0.56306,-18.580777 l 0.16375,-1.118276 -1.95224,0.15102 C 118.95672,6.076474 111.85484,5.61292 107.04276,4.946005 105.00547,4.663653 102.68375,4.395253 101.88339,4.34956 l -1.45521,-0.08308 -0.16043,1.322917 c -0.863597,7.121205 -1.024004,10.174429 -1.091187,20.769791 -0.06286,9.912988 0.08047,16.197257 0.458621,20.108333 0.06331,0.654844 -0.0044,3.036094 -0.150418,5.291667 -0.371256,5.733803 -0.40522,8.155683 -0.161412,11.509374 0.116372,1.60073 0.263948,4.041511 0.327948,5.423959 0.064,1.382447 0.171797,2.870729 0.239546,3.307291 0.291972,1.881436 0.397002,3.010646 0.423062,4.548661 0.0248,1.464469 0.0885,1.647931 0.60018,1.729589 1.14232,0.182293 9.37201,-0.07423 12.0818,-0.376589 z m 30.55937,-0.593402 c 2.78008,-0.498523 3.81399,-0.871043 4.70057,-1.693638 1.03967,-0.964618 1.33845,-2.320777 1.40842,-6.392746 0.0392,-2.281975 0.27081,-4.718452 0.64132,-6.746875 1.94985,-10.675016 2.51946,-14.374531 3.04046,-19.747401 0.54174,-5.586804 0.35017,-12.810067 -0.37744,-14.23108 -0.11754,-0.229542 -0.16034,-0.566179 -0.0951,-0.74808 0.0652,-0.181901 -0.0174,-0.33073 -0.18366,-0.33073 -0.16624,0 -0.22866,-0.119062 -0.13873,-0.264583 0.0899,-0.145521 0.0705,-0.413411 -0.0431,-0.595312 -0.23862,-0.381969 -0.21189,-0.260575 -0.6256,-2.841009 -0.40521,-2.527453 -0.44342,-2.998385 -0.64435,-7.940762 -0.0917,-2.255572 -0.26684,-4.458229 -0.3892,-4.894791 -0.12236,-0.436563 -0.24227,-1.3295317 -0.26646,-1.9843754 -0.0242,-0.6548436 -0.14225,-1.2893026 -0.26234,-1.4099096 -0.30506,-0.306349 -4.79996,-0.65967 -8.81148,-0.692624 -1.85328,-0.01522 -4.23453,-0.147255 -5.29167,-0.293401 -3.30373,-0.456735 -7.57664,-0.777267 -9.74984,-0.731384 -2.29954,0.04855 -2.20199,-0.03237 -2.49396,2.068985 -0.091,0.654844 -0.22339,1.5478128 -0.29423,1.9843753 -0.34653,2.1357147 -0.41295,16.3287837 -0.10214,21.8281247 0.34552,6.113507 0.42089,10.787594 0.30079,18.653124 -0.0668,4.374423 0.13088,8.75229 0.41603,9.213678 0.0774,0.125317 0.18544,1.258663 0.23998,2.518545 0.20596,4.757812 0.9604,11.981558 1.48964,14.263089 l 0.32221,1.389063 7.54661,-2.65e-4 c 5.39362,-2.56e-4 8.15047,-0.108646 9.66327,-0.37992 z M 47.530196,76.599788 c 0.100213,-0.162149 0.226015,-4.120977 0.279561,-8.797395 0.05354,-4.676418 0.146693,-9.097891 0.206997,-9.825495 0.0603,-0.727604 0.186894,-3.287448 0.28131,-5.688542 0.09442,-2.401093 0.265068,-5.615781 0.379217,-7.14375 0.114152,-1.527968 0.118705,-3.671093 0.01013,-4.762499 -0.108585,-1.091407 -0.09016,-2.566173 0.04094,-3.277259 0.342323,-1.856698 0.299931,-5.551181 -0.06792,-5.919028 -0.231992,-0.231992 -0.215948,-0.417592 0.06615,-0.765165 0.245485,-0.302463 0.259064,-0.390755 0.03984,-0.259027 -0.527108,0.316728 -0.711538,-0.587568 -0.228658,-1.121148 0.497954,-0.550233 0.550635,-1.130869 0.13987,-1.541634 -0.197628,-0.197628 -0.205415,-0.445453 -0.02461,-0.783291 0.145468,-0.271809 0.272619,-1.362763 0.282557,-2.424343 0.0099,-1.061579 0.06747,-2.012833 0.127836,-2.113896 0.08726,-0.146087 0.31964,-7.396831 0.540094,-16.8525 l 0.02469,-1.058334 -2.513542,0.07245 c -3.958456,0.114096 -9.942015,0.586169 -12.83229,1.012403 -2.784579,0.410646 -6.99659,0.563437 -9.976707,0.361905 -1.126857,-0.0762 -1.884412,-0.01022 -2.075401,0.180766 -0.224646,0.224647 -0.223296,1.157887 0.0053,3.6870685 0.367003,4.0598905 0.176602,10.9310785 -0.519909,18.7624905 -0.271789,3.055938 -0.574297,6.554922 -0.672239,7.775525 -0.09794,1.220599 -0.283965,2.887474 -0.413384,3.704166 -0.625599,3.947652 -1.11383,18.468731 -0.659317,19.60885 0.517916,1.29916 1.479307,4.664916 1.479307,5.178941 0,0.334095 0.118809,0.919932 0.264018,1.301864 0.300147,0.789445 0.48799,1.945962 0.687827,4.23482 0.07623,0.873125 0.189215,1.839608 0.251076,2.147739 0.131465,0.654847 1.649905,2.217886 2.154599,2.217886 0.190656,0 0.346647,0.09922 0.346647,0.220485 0,0.121269 0.148828,0.23077 0.330729,0.243337 0.181901,0.01257 0.628386,0.103952 0.992188,0.203071 0.363802,0.09912 0.899583,0.198771 1.190625,0.221443 0.291041,0.02267 0.671866,0.132969 0.846277,0.245102 0.17441,0.11213 2.004945,0.262308 4.067856,0.333724 2.062911,0.07142 3.825211,0.175689 3.916224,0.231711 0.09101,0.05603 2.130008,0.134636 4.531102,0.174692 2.401093,0.04006 4.60375,0.163126 4.894791,0.273486 0.781198,0.296225 1.40008,0.272868 1.606185,-0.06062 z M 73.198449,38.229991 c 0.872595,-1.183889 1.119245,-1.818598 0.705249,-1.814827 -0.10914,0.0011 -0.496094,0.440624 -0.859896,0.976953 -0.363802,0.536331 -1.048411,1.439751 -1.521354,2.007602 -0.472943,0.567849 -0.859896,1.162526 -0.859896,1.321504 0,0.404402 1.455637,-1.025599 2.535897,-2.491232 z m -20.485042,0.77942 c 2.50045,-2.897981 6.488025,-7.201921 7.474976,-8.068026 1.398252,-1.227045 5.433111,-4.933935 7.917662,-7.274081 1.185646,-1.116735 2.068497,-2.117654 1.961888,-2.22426 -0.106609,-0.106608 -1.296352,0.866617 -2.643878,2.16272 -1.347523,1.296104 -3.036956,2.832801 -3.754292,3.414884 -1.226481,0.995231 -13.64471,13.303446 -13.64471,13.523831 0,0.05622 0.287025,0.102211 0.637833,0.102211 0.453149,0 1.046882,-0.474075 2.050521,-1.637279 z m 5.159936,-1.498034 c 1.742704,-1.695317 3.633414,-3.677708 4.201578,-4.405312 1.126945,-1.443196 5.847315,-6.981835 6.313842,-7.408333 0.781179,-0.714156 3.599606,-4.365625 3.369654,-4.365625 -0.145039,0 -0.480708,0.271598 -0.745932,0.603549 -0.265224,0.331952 -2.268162,2.256292 -4.450974,4.276315 -4.38785,4.06061 -9.128125,8.627435 -9.128125,8.794117 0,0.05907 -0.402376,0.548701 -0.894168,1.088065 -1.929169,2.115785 -3.603749,4.115133 -3.603749,4.302662 0,0.108328 0.398097,0.196958 0.884661,0.196958 0.771213,0 1.290984,-0.395277 4.053213,-3.082396 z m 12.286414,2.010834 c 2.32497,-2.804597 3.677795,-4.723937 3.677795,-5.217935 0,-0.295214 -0.07216,-0.536753 -0.160358,-0.536753 -0.219784,0 -1.20868,1.250612 -1.691725,2.139445 -0.218281,0.401651 -0.94112,1.304978 -1.606309,2.007394 -0.665187,0.702416 -1.423022,1.604541 -1.684076,2.004724 -0.459989,0.705143 -0.459097,0.727604 0.02893,0.727604 0.276961,0 0.923047,-0.506016 1.435746,-1.124479 z m 3.356694,0.382373 c 0.523042,-0.787741 0.287618,-0.731861 -0.492675,0.116943 -0.352787,0.383762 -0.473027,0.645128 -0.2672,0.580811 0.205827,-0.06432 0.547769,-0.378307 0.759875,-0.697754 z m -13.25337,-1.578909 c 0.990282,-1.131038 2.126485,-2.470491 2.524895,-2.976562 0.398412,-0.506072 1.231849,-1.555377 1.852083,-2.331792 0.620236,-0.776414 1.484889,-1.863161 1.921452,-2.414995 0.436562,-0.551833 1.746885,-2.059709 2.911827,-3.350839 3.318779,-3.678267 4.788069,-5.91938 3.880789,-5.91938 -0.120364,0 -1.244547,1.220391 -2.498183,2.711979 -1.253638,1.491589 -3.209287,3.783542 -4.34589,5.093229 -1.136602,1.309688 -2.710002,3.214688 -3.496444,4.233333 -0.786443,1.018646 -2.63161,3.009847 -4.100373,4.424889 l -2.670476,2.572809 1.109903,0.0069 c 1.05673,0.0066 1.196163,-0.09164 2.910417,-2.04955 z m 1.7732,1.328827 c 0.351025,-0.400182 1.810459,-2.17634 3.243186,-3.947017 1.432729,-1.770676 3.637021,-4.400928 4.898427,-5.845003 1.261406,-1.444074 2.540881,-3.031431 2.843281,-3.527462 0.544928,-0.893855 0.742731,-2.092496 0.345311,-2.092496 -0.113568,0 -0.936025,0.863203 -1.827684,1.918229 -0.891659,1.055026 -2.05409,2.394479 -2.58318,2.976562 -0.52909,0.582083 -1.939054,2.290871 -3.133257,3.797303 -1.194199,1.506434 -3.037845,3.798387 -4.096993,5.093229 l -1.925722,2.35426 h 0.799203 c 0.540745,0 1.005599,-0.235302 1.437428,-0.727605 z m 3.790868,-1.389062 c 0.924489,-1.091406 2.432473,-2.817812 3.351083,-3.836458 2.701938,-2.996187 5.260311,-7.117448 4.160911,-6.702777 -0.128606,0.04851 -1.100743,1.100225 -2.160307,2.337152 -1.059563,1.236927 -2.437389,2.821561 -3.061835,3.521408 -0.624445,0.699847 -1.789157,2.128597 -2.588246,3.175 -0.799092,1.046403 -1.772857,2.298959 -2.163919,2.783456 l -0.711025,0.880909 0.746225,-0.08716 c 0.551183,-0.06437 1.185566,-0.605819 2.427113,-2.07153 z m 3.003971,0.0439 c 2.737691,-3.190444 4.787376,-6.310955 4.691282,-7.14217 -0.07804,-0.675085 -0.122354,-0.64733 -0.983499,0.615981 -0.495977,0.727605 -1.627071,2.104001 -2.513541,3.05866 -1.478958,1.592715 -3.767731,4.411755 -4.22964,5.209569 -0.135025,0.233215 0.02765,0.324171 0.551735,0.308481 0.586248,-0.01754 1.110811,-0.450633 2.483663,-2.050521 z M 54.390677,34.751099 c 2.328334,-2.372921 5.59435,-5.49973 7.257815,-6.948467 2.74057,-2.386803 6.897394,-6.390676 6.897394,-6.643599 0,-0.319609 -1.522302,0.35519 -1.908292,0.845894 -0.738452,0.938789 -3.65802,3.677269 -5.235458,4.910727 -0.800365,0.625832 -1.604098,1.283991 -1.786073,1.462569 -0.181978,0.17858 -1.372603,1.219782 -2.645833,2.313781 -2.913772,2.503599 -7.474344,7.526835 -7.474344,8.232603 0,0.606504 1.25227,-0.461235 4.894791,-4.173508 z m 8.598959,-13.15272 c 0,-0.14645 -0.293503,-0.266272 -0.65223,-0.266272 -0.689494,0 -3.202673,2.378525 -9.465069,8.957942 -2.585069,2.715935 -3.111868,3.406712 -3.111868,4.080518 0,0.749168 0.505177,0.302583 6.614583,-5.8474 3.638021,-3.662183 6.614584,-6.778339 6.614584,-6.924788 z m -3.161245,-0.217506 c -0.519358,-0.07962 -1.01742,0.28716 -2.513541,1.85103 -1.026211,1.072681 -3.145761,3.280531 -4.71011,4.906335 -1.867016,1.940361 -2.844271,3.156998 -2.844271,3.540987 0,0.445329 1.279065,-0.702251 5.357812,-4.807037 4.74816,-4.77847 5.284113,-5.403315 4.71011,-5.491315 z m -1.99813,7.462128 c 1.018646,-0.874663 2.566458,-2.137945 3.439583,-2.807296 0.873125,-0.669348 2.301875,-1.94606 3.175,-2.837137 1.232379,-1.257715 1.504087,-1.671807 1.214617,-1.851112 -0.205083,-0.127035 -0.562271,-0.164 -0.79375,-0.08214 -0.381878,0.135046 -9.80767,9.579493 -9.811813,9.831236 -0.0021,0.121917 0.214894,-0.05414 2.776363,-2.253551 z m -6.996898,-1.501138 c 0.783034,-0.678529 3.662608,-3.983018 4.308392,-4.944149 1.068965,-1.59095 -0.02572,-1.432679 -1.32217,0.191164 -0.551868,0.691224 -1.690934,2.046613 -2.531255,3.011974 -1.407745,1.617215 -1.83061,2.360356 -1.329423,2.336324 0.10914,-0.0052 0.502647,-0.273124 0.874456,-0.595313 z m 5.353711,-4.130793 c 0.842497,-0.924912 1.484617,-1.728854 1.426932,-1.786539 -0.156099,-0.156096 -0.97437,0.198285 -0.97437,0.421984 0,0.106268 -0.446485,0.664689 -0.992188,1.240941 -1.804921,1.905963 -3.901212,4.364014 -3.991403,4.680209 -0.09401,0.329592 1.981128,-1.757259 4.531029,-4.556595 z m -5.330211,2.023641 c 0.697061,-0.570947 2.270511,-2.685449 2.461037,-3.307291 0.294664,-0.961742 -0.471778,-0.728583 -1.476123,0.449045 -2.054548,2.409034 -2.478887,3.188975 -1.735003,3.188975 0.190469,0 0.528008,-0.148828 0.750089,-0.330729 z m 0.171532,-3.057173 c 0.622919,-0.807754 0.628237,-0.845431 0.11933,-0.845431 -0.517568,0 -1.387256,1.003213 -1.387256,1.60024 0,0.486992 0.573622,0.14551 1.267926,-0.754809 z m 13.159634,-1.67505 c 4.506873,-0.04224 8.462206,-0.124862 8.789627,-0.183603 0.593326,-0.106444 0.595329,-0.124132 0.60006,-5.301476 0.0029,-3.215877 0.15231,-6.1521562 0.392128,-7.708218 0.213061,-1.382448 0.38952,-2.721901 0.392128,-2.976563 0.0044,-0.434088 -0.728956,-0.463021 -11.736816,-0.463021 -9.074843,0 -11.802038,0.07512 -12.007842,0.33073 -0.366064,0.454666 -0.80074,11.52547 -0.617757,15.733757 0.02447,0.562573 0.140888,0.589407 2.869766,0.661458 1.564349,0.0413 2.907297,0.05454 2.984331,0.02942 0.07703,-0.02514 3.827499,-0.08024 8.334375,-0.12248 z M 150.56672,4.046027 c 0,-2.424655 -0.46455,-4.80963903 -1.02677,-5.271323 -0.4868,-0.399762 -2.11847,-0.991279 -3.16493,-1.147356 -3.57837,-0.533708 -19.998,-1.07885 -20.61417,-0.684404 -0.18255,0.116862 -0.45354,1.157621 -0.6022,2.31279897 -0.14866,1.155177 -0.37228,2.81469803 -0.49694,3.68782303 -0.12465,0.873125 -0.17406,1.676797 -0.10979,1.785937 0.0643,0.109141 1.92554,0.203623 4.13614,0.209961 2.21061,0.0063 4.55507,0.13772 5.20991,0.291962 0.65484,0.154242 4.16719,0.364664 7.80521,0.467604 3.63802,0.102941 7.1206,0.209682 7.73906,0.237204 l 1.12448,0.05004 z M 139.493,3.254883 c -0.38096,-0.459029 -0.21642,-4.22085203 0.19054,-4.356509 0.53118,-0.177059 0.83659,0.97719797 0.66495,2.513117 -0.21638,1.936316 -0.41793,2.370613 -0.85549,1.843392 z M 128.67245,3.150396 c -0.20365,-0.07305 -0.33073,-0.618471 -0.33073,-1.419504 0,-0.715477 -0.11906,-1.30086803 -0.26458,-1.30086803 -0.44331,0 -0.29487,-0.759432 0.19843,-1.015205 0.25467,-0.132041 1.02857,-0.322119 1.7198,-0.42239597 1.00984,-0.146501 1.25677,-0.106246 1.25677,0.20488097 0,0.212963 -0.38696,0.541053 -0.8599,0.72909 l -0.8599,0.341885 0.99219,0.09684 c 0.54571,0.05326 0.99219,0.195981 0.99219,0.317149 0,0.268086 -0.6646,0.54150203 -1.31625,0.54150203 -0.50145,0 -0.80042,0.496372 -0.80042,1.328941 0,0.563089 -0.25047,0.768834 -0.7276,0.597681 z m 4.74927,-0.127455 c -0.34823,-0.348227 -0.41077,-1.531282 -0.14989,-2.83563203 0.12741,-0.637095 0.39139,-0.93153 1.10094,-1.22800197 1.07857,-0.450656 1.78741,-0.304415 2.1924,0.45231297 0.22048,0.411959 0.19032,0.638312 -0.13257,0.995102 -0.54614,0.60348103 -0.52814,0.86465003 0.13734,1.99255403 0.63204,1.071229 0.33037,1.222433 -0.6892,0.345439 -0.47042,-0.404634 -0.74129,-0.958914 -0.84444,-1.727956 -0.18829,-1.40378703 -0.35669,-1.27721403 -0.51295,0.38555 -0.1876,1.996055 -0.40556,2.316704 -1.10163,1.620632 z M 35.208386,4.526452 c 1.527969,-0.201547 4.445,-0.43436 6.482292,-0.517362 3.904384,-0.15907 6.137187,-0.331818 7.342187,-0.568052 L 49.760469,3.298396 V -0.40592403 -4.110243 l -9.061979,0.105356 c -8.617232,0.100186 -9.211311,0.139323 -12.104688,0.797449 -4.664784,1.061049 -4.999966,1.218308 -5.86675,2.75253797 -0.700054,1.239115 -0.737543,1.45597903 -0.577989,3.34350403 l 0.170621,2.018444 2.01258,0.100353 c 2.953347,0.147262 7.70726,-0.06296 10.876122,-0.480949 z M 27.123121,3.523079 c -0.117869,-0.304151 0.125552,-1.124546 0.667292,-2.248958 1.27995,-2.656607 1.568276,-3.049512 1.984401,-2.704158 0.193523,0.160609 0.290734,0.52576497 0.216024,0.81145597 -0.188476,0.720733 0.103729,0.648851 0.846208,-0.208166 0.493378,-0.56948797 0.700761,-0.65832997 0.954318,-0.40882397 0.255389,0.25130797 0.227684,0.69931597 -0.130892,2.11666697 C 31.410306,1.869933 31.157479,2.903452 31.098636,3.177803 30.957213,3.837167 30.80894,3.961696 30.438138,3.732527 30.232188,3.605243 30.189359,3.137651 30.30848,2.316971 30.47068,1.199504 30.452116,1.137246 30.097878,1.610662 29.769191,2.049932 29.644562,2.076032 29.288151,1.780237 28.924543,1.47847 28.802965,1.545902 28.399624,2.273055 28.14262,2.736388 27.792019,3.314923 27.620511,3.558688 27.331345,3.969683 27.295191,3.967095 27.123121,3.523079 Z m 6.40648,-0.666493 C 32.945326,2.210969 32.97768,1.361835 33.638575,-0.00339203 34.277367,-1.32296 35.019519,-1.674996 35.756514,-1.008025 c 0.918403,0.83114397 0.506943,2.954302 -0.778623,4.017737 -0.550455,0.455343 -0.934367,0.414753 -1.44829,-0.153126 z M 35.045947,1.646809 C 35.743566,0.17668597 35.521249,-1.283975 34.750005,-0.29758003 34.318548,0.25423897 33.898348,1.743224 34.057233,2.157271 34.292447,2.770227 34.58437,2.61951 35.045947,1.646809 Z m 2.543689,0.866308 c 0,-0.595319 2.176683,-4.223798 2.473328,-4.122981 0.171592,0.05832 0.304797,0.64251297 0.304797,1.33674997 0,0.678239 0.05953,1.232756 0.132292,1.23226 0.07276,-5.03e-4 0.470646,-0.53647 0.884189,-1.191053 0.413547,-0.654584 0.840188,-1.19015197 0.948093,-1.19015197 0.53917,0 0.442677,0.48184197 -0.430179,2.14807197 C 40.821309,2.789288 40.16902,3.078666 39.607783,1.743877 L 39.270226,0.94106397 38.766639,1.876169 c -0.480486,0.892208 -1.177003,1.269136 -1.177003,0.636948 z m 86.103904,1.569108 c 0.079,-0.480742 0.26245,-1.588451 0.40769,-2.461576 0.30899,-1.85745903 0.42063,-4.304934 0.20615,-4.51941 -0.22517,-0.225173 -22.50497,-0.137208 -22.72036,0.0897 -0.10252,0.108005 -0.26583,0.970279 -0.36292,1.91616397 -0.0971,0.945886 -0.27871,2.18963303 -0.40361,2.76388203 -0.1249,0.57425 -0.17309,1.131464 -0.1071,1.238254 0.066,0.10679 0.80274,0.267314 1.63719,0.356722 0.83445,0.08941 2.23156,0.271778 3.10468,0.405268 5.03981,0.770524 7.22364,0.941308 13.01608,1.017908 l 5.07858,0.06716 z m -15.78516,-2.114785 -0.0964,-0.875958 -0.31194,0.727605 c -0.30378,0.708573 -0.6996,0.930547 -0.94361,0.529166 -0.11551,-0.190004 0.26446,-2.98347203 0.50789,-3.733965 0.20606,-0.635279 0.96476,0.235324 0.8281,0.95023497 -0.0724,0.378785 -0.005,0.583874 0.17287,0.52464 0.16047,-0.05349 0.3914,-0.601105 0.51318,-1.21692697 0.3193,-1.614581 0.86846,-1.266597 0.75846,0.48061297 C 109.17512,1.923981 108.11667,3.861125 107.90838,1.96744 Z m 4.11187,0.106794 c -0.50499,-0.321102 -0.8024,-1.41289703 -0.77223,-2.83483503 0.0241,-1.13716997 0.10237,-1.32291597 0.55724,-1.32291597 0.48248,0 0.5211,0.145897 0.43769,1.65364497 -0.0561,1.015027 0.0135,1.65364603 0.18043,1.65364603 0.36073,0 1.22628,-1.25674903 1.54889,-2.248958 0.29751,-0.914966 1.14028,-1.25176 1.14028,-0.455682 0,0.65254797 -1.22715,2.969195 -1.80592,3.409277 -0.51158,0.388983 -0.84459,0.426734 -1.28638,0.145823 z m -8.28478,-1.35757803 c 0,-1.242206 -0.0484,-1.344965 -0.63315,-1.344965 -0.34824,0 -0.70168,-0.178594 -0.78545,-0.39687497 -0.10702,-0.278886 0.0222,-0.397741 0.43471,-0.399787 0.32286,-0.0016 1.0335,-0.07671 1.5792,-0.16691 0.78975,-0.130537 0.99219,-0.08046 0.99219,0.245446 0,0.225195 -0.12496,0.45109697 -0.27768,0.50200497 -0.15272,0.05091 -0.36114,0.676004 -0.46314,1.389103 -0.25858,1.80766403 -0.84668,1.92712303 -0.84668,0.171983 z M 74.397329,2.777951 c 0.129087,-0.199953 0.204774,-1.79230203 0.168193,-3.53855203 L 74.499012,-3.935601 63.25422,-4.131251 C 57.069584,-4.238859 51.621884,-4.263119 51.148222,-4.185161 l -0.861203,0.141739 0.04158,3.49349397 c 0.02286,1.92142203 0.100703,3.60008503 0.172966,3.73036203 0.07607,0.137143 5.084572,0.17881 11.896225,0.09897 9.574951,-0.11223 11.808524,-0.205569 11.99954,-0.501451 z M 60.889614,2.434455 c -0.317934,-0.383087 -0.193072,-1.88896003 0.242988,-2.93047303 0.121851,-0.291041 0.288142,-0.73752597 0.36953,-0.99218697 0.117399,-0.367332 0.450432,-0.463021 1.611493,-0.463021 1.730052,0 1.916514,0.357059 0.360338,0.690012 -0.606747,0.129816 -1.155157,0.39297697 -1.218689,0.58480197 -0.06508,0.196494 0.04455,0.312014 0.251098,0.264583 0.201636,-0.0463 0.422624,0.03324 0.491082,0.176771 0.06846,0.143528 -0.110683,0.306247 -0.398097,0.361598 -1.082395,0.20845 -1.676808,1.89098403 -0.668055,1.89098403 0.291042,0 0.529167,-0.142875 0.529167,-0.3175 0,-0.240487 0.07429,-0.243206 0.306287,-0.01121 0.231992,0.231993 0.224134,0.405273 -0.0324,0.714375 -0.424731,0.511771 -1.431796,0.528842 -1.844744,0.03127 z M 57.174337,1.891902 c -0.258778,-0.311809 -0.28521,-0.816623 -0.10796,-2.06186803 0.2878,-2.02189697 0.783743,-2.04240397 0.710578,-0.02938 -0.06152,1.69276303 0.297947,1.64006803 1.110954,-0.162855 C 59.352062,-1.391513 59.648996,-1.639535 59.910526,-1.21637 60.120772,-0.87618803 58.392201,2.140568 57.938221,2.225762 57.706557,2.269232 57.362811,2.119 57.174337,1.891905 Z m -3.445118,-1.96823703 c 0,-1.56151797 -0.02527,-1.61983997 -0.859896,-1.98484097 l -0.859895,-0.37605 0.926041,-0.06997 c 1.059265,-0.08004 2.438384,-0.0043 2.584667,0.142029 0.05448,0.05448 -0.117827,0.350603 -0.382908,0.658047 -0.265083,0.307446 -0.541499,1.11320297 -0.614259,1.79057197 -0.205491,1.91304603 -0.79375,1.79462703 -0.79375,-0.159785 z M 99.729063,2.937125 c 0.214548,-0.214549 0.604127,-2.43183103 0.729547,-4.152227 0.12321,-1.690061 0.0996,-1.783626 -0.479592,-1.903747 -1.524249,-0.316095 -10.269821,-0.681284 -16.999916,-0.709865 -6.975927,-0.02962 -7.405857,-0.0036 -7.588173,0.460021 -0.25591,0.650707 -0.285615,6.3012 -0.03445,6.552368 0.195363,0.195361 24.173228,-0.0472 24.372584,-0.24655 z M 81.976032,1.845774 C 81.905732,1.721955 81.761979,1.263462 81.656585,0.82689897 l -0.191632,-0.79375 -0.382567,0.727604 C 80.399867,2.058834 79.828312,1.495617 79.591999,-0.70788803 79.476662,-1.78333 79.522019,-1.965334 79.887809,-1.894889 c 0.237619,0.04576 0.446918,0.230399 0.465108,0.410307 0.07757,0.76719197 0.109482,0.85627297 0.306755,0.85627297 0.114147,0 0.418534,-0.357188 0.676418,-0.79374997 0.690007,-1.168091 1.232712,-1.035353 1.232712,0.301505 v 1.09525497 L 83.260899,-1.054408 c 0.877708,-1.305096 0.811311,-1.244603 1.141839,-1.040325 0.181028,0.11188 -0.01244,0.712108 -0.54152,1.68013997 C 82.946961,1.258152 82.17079,2.188793 81.976032,1.845774 Z M 85.300027,1.732498 C 85.00598,1.438451 85.161319,0.41143697 85.707851,-0.96378303 86.048989,-1.822178 87.155579,-2.345645 87.815281,-1.96069 c 0.412464,0.240684 0.412324,0.258495 -0.0021,0.266002 -0.244268,0.0044 -0.649764,0.213686 -0.901102,0.465025 -0.432916,0.43291697 -0.426125,0.46426397 0.129008,0.59531297 0.848567,0.200319 0.782757,0.645724 -0.118472,0.801829 -1.115992,0.193316 -1.230307,1.05629503 -0.139862,1.05629503 0.946616,0 1.083821,0.394912 0.217837,0.626987 -0.880496,0.235964 -1.381135,0.201147 -1.700546,-0.118263 z m 4.677109,-0.541549 c 0,-0.43515003 0.130241,-1.30841303 0.289422,-1.94058303 0.232926,-0.92503397 0.42399,-1.17512397 0.978794,-1.28118197 0.915975,-0.175099 1.823519,0.194185 2.023174,0.823237 0.376732,1.18698397 -1.152086,3.128886 -2.493333,3.16702 -0.714825,0.02032 -0.798057,-0.05983 -0.798057,-0.768492 z m 2.270863,-0.88951603 c 0.506822,-0.773508 0.40313,-1.55305297 -0.22261,-1.67355997 -0.473051,-0.0911 -0.876342,0.64782897 -1.180587,2.16312697 C 90.702655,1.498978 90.730039,1.528836 91.260931,1.244712 91.573489,1.077435 92.017671,0.65295997 92.247999,0.30143297 Z M 144.43169,78.56595 c 0.191,-0.07643 0.4192,-0.06703 0.50712,0.02087 0.0879,0.08792 -0.0683,0.150453 -0.34726,0.138965 -0.30823,-0.0127 -0.37092,-0.07539 -0.15986,-0.159851 z"
         id="path226" />
    </g>
  </g>
</svg>
