<?xml version="1.0" encoding="UTF-8" standalone="no"?>
<svg
   xmlns:dc="http://purl.org/dc/elements/1.1/"
   xmlns:cc="http://creativecommons.org/ns#"
   xmlns:rdf="http://www.w3.org/1999/02/22-rdf-syntax-ns#"
   xmlns:svg="http://www.w3.org/2000/svg"
   xmlns="http://www.w3.org/2000/svg"
   width="96.432396mm"
   height="147.79912mm"
   viewBox="0 0 96.432394 147.79912"
   version="1.1"
   id="svg8">
  <defs
     id="defs2" />
  <metadata
     id="metadata5">
    <rdf:RDF>
      <cc:Work
         rdf:about="">
        <dc:format>image/svg+xml</dc:format>
        <dc:type
           rdf:resource="http://purl.org/dc/dcmitype/StillImage" />
        <dc:title></dc:title>
      </cc:Work>
    </rdf:RDF>
  </metadata>
  <g
     id="layer1"
     transform="translate(5.8159759,-2.2793539)">
    <g
       id="g847">
      <g
         id="g887">
        <g
           id="g927">
          <g
             id="g1007">
            <g
               id="g1047">
              <path
                 style="fill:#ddbb88;stroke-width:0.264583"
                 d="m 47.301754,149.77904 c -0.174625,-0.17463 -0.3175,-0.46785 -0.3175,-0.6516 0,-0.18376 -0.744141,-0.83492 -1.653646,-1.44704 -0.909505,-0.61211 -2.546614,-1.80504 -3.638021,-2.65095 -3.754561,-2.91004 -6.670378,-4.99243 -8.294417,-5.92363 -0.895101,-0.51324 -3.07884,-1.7924 -4.852752,-2.84258 -1.773909,-1.05017 -4.21469,-2.4909 -5.423958,-3.20161 -2.498817,-1.4686 -5.060063,-3.28378 -7.754913,-5.49597 -1.018646,-0.8362 -2.745052,-2.25296 -3.836459,-3.14835 -1.091406,-0.89539 -2.702677,-2.30019 -3.5806026,-3.12177 -0.8779253,-0.82159 -2.6925295,-2.44629 -4.0324538,-3.61046 -1.5529295,-1.34923 -2.4363833,-2.30852 -2.4366598,-2.64583 -2.386e-4,-0.29104 0.1223111,-1.5412 0.2723322,-2.77813 0.1500214,-1.23692 0.2687754,-3.20292 0.2638981,-4.36887 -0.00488,-1.16596 0.1678556,-3.78534 0.3838514,-5.82084 0.5134718,-4.838851 0.5094948,-5.156105 -0.064636,-5.156174 -0.2546615,-2.9e-5 -1.1773958,0.232244 -2.0505208,0.51616 -3.1277056,1.01705 -6.227594,1.109948 -5.8691626,0.175892 0.076598,-0.199612 0.023152,-0.479049 -0.1187684,-0.620969 -0.1676615,-0.167661 -0.1489037,-1.823825 0.053557,-4.728596 0.1773511,-2.544519 0.3436023,-12.221849 0.3858886,-22.462221 0.040862,-9.895416 0.1870673,-19.100571 0.3249009,-20.455899 0.1477084,-1.452428 0.1591116,-3.733805 0.027772,-5.55625 -0.1225588,-1.700609 -0.2949764,-4.223109 -0.3831502,-5.605557 l -0.160316,-2.513542 3.8613388,-3.902604 c 2.12373625,-2.146432 4.0715987,-3.902603 4.3285829,-3.902603 0.7887023,0 4.927525,-1.652843 5.6191487,-2.244012 0.5526394,-0.472372 1.5874999,-0.75931 1.5874999,-0.44017 0,0.144041 -0.4167187,0.399423 -0.9260416,0.567515 -0.5093229,0.168092 -0.9260416,0.397368 -0.9260416,0.509502 0,0.112135 -0.4464844,0.407528 -0.9921875,0.656427 -2.1207512,0.967295 -2.9709011,2.359067 -2.1926965,3.589639 0.2106684,0.333129 0.3353602,0.310861 0.8558443,-0.152832 0.3350863,-0.298524 2.037998,-1.243155 3.784248,-2.099183 1.7462496,-0.856024 3.6512496,-1.854893 4.2333336,-2.219705 2.48169,-1.55536 6.171932,-3.092794 6.827046,-2.844295 0.334372,0.126833 -1.403657,0.972947 -1.998561,0.972947 -0.191337,0 -1.117896,0.42066 -2.059019,0.9348 -1.917206,1.047378 -2.430527,1.330058 -3.100196,1.707242 -1.310346,0.738039 -2.581859,1.326708 -2.865659,1.326708 -0.175379,0 -0.376236,0.148828 -0.446348,0.330729 -0.1403356,0.36409 -3.3773369,2.049523 -3.9413942,2.052193 -0.1943528,7.94e-4 -0.5368387,0.328342 -0.7610797,0.727604 -0.3445312,0.613439 -0.3721261,1.258935 -0.1780765,4.165515 0.2628969,3.937807 0.03209,22.581808 -0.3455612,27.91354 -0.1391491,1.964531 -0.3852859,7.798593 -0.5469704,12.964582 -0.1616845,5.16599 -0.3379579,10.251191 -0.3917183,11.300449 -0.05376,1.049258 -0.012181,1.95952 0.092395,2.022806 0.1045779,0.06328 1.0831105,-0.523502 2.1745167,-1.303975 1.0914062,-0.780474 2.8178124,-1.91176 3.8364576,-2.513971 3.025249,-1.78849 6.26233,-3.953271 7.644768,-5.1124 1.254222,-1.051621 5.276717,-3.948848 7.436482,-5.356172 2.287479,-1.490541 2.248958,-1.405189 2.248958,-4.983064 0,-1.764541 -0.106535,-3.321365 -0.236741,-3.45961 -0.308256,-0.327281 0.383204,-7.899463 0.91509,-10.021183 0.221605,-0.883988 0.517954,-2.056111 0.658553,-2.604717 0.1406,-0.548605 0.374769,-2.155949 0.52038,-3.571874 0.145611,-1.415926 0.335955,-2.959412 0.42299,-3.429971 0.137795,-0.745008 0.07,-0.889106 -0.524656,-1.115195 -0.375595,-0.142801 -1.450422,-0.187965 -2.388507,-0.100364 -1.973152,0.184256 -1.915401,0.09355 -2.179646,3.423467 l -0.170301,2.146099 -2.411185,0.175321 c -1.326153,0.09642 -2.705126,0.202242 -3.064386,0.235151 -0.457617,0.04192 -0.68347,-0.09014 -0.754292,-0.441029 -0.08244,-0.408474 0.01163,-0.471382 0.510027,-0.341048 0.760276,0.198819 4.271229,-0.366072 4.520604,-0.727337 0.100957,-0.146251 0.257029,-1.043625 0.346831,-1.994167 0.294868,-3.121115 0.337508,-3.22644 1.280494,-3.162847 0.459224,0.03097 1.794446,0.039 2.967159,0.01786 l 2.132208,-0.03848 0.337029,-2.381249 c 0.454586,-3.211833 0.929087,-3.144033 0.686022,0.09802 l -0.18588,2.47927 0.756499,0.100417 c 0.416076,0.05523 4.080368,0.04089 8.142876,-0.03187 5.944655,-0.106471 7.410026,-0.203301 7.507551,-0.496094 0.06665,-0.200091 0.314653,-0.558019 0.551125,-0.795398 0.363481,-0.364874 0.444505,-1.303809 0.524113,-6.073677 0.05288,-3.168089 -0.03062,-6.531856 -0.190407,-7.671268 -0.362488,-2.584762 -1.096976,-12.550408 -1.280573,-17.37502 -0.07753,-2.037291 -0.180451,-3.7478129 -0.228719,-3.801159 -0.04827,-0.053346 -0.718799,0.2945011 -1.49007,0.772994 -0.771271,0.478493 -2.319827,1.436306 -3.441231,2.128474 -1.121409,0.692167 -3.264533,1.704292 -4.762501,2.249165 -1.497971,0.544873 -3.080768,1.308524 -3.517331,1.697003 -0.88297,0.785715 -4.077534,2.489184 -4.282903,2.283814 -0.0722,-0.0722 0.385664,-0.464671 1.017479,-0.872154 0.631818,-0.407483 1.661268,-1.18127 2.287669,-1.719526 0.659008,-0.566275 1.773882,-1.171318 2.645834,-1.435895 1.73337,-0.525961 3.297091,-1.298504 4.373595,-2.160738 0.412503,-0.330398 0.854559,-0.536107 0.982345,-0.457131 0.127785,0.07898 0.742783,-0.185686 1.36666,-0.588137 0.623877,-0.402452 1.326142,-0.853226 1.560592,-1.00172 0.410776,-0.260177 2.71564,-1.541754 3.807063,-2.1168481 0.589997,-0.3108827 2.229932,-3.1793902 2.241518,-3.9207773 0.0063,-0.4063854 -0.253656,-0.3314671 -1.778498,0.512454 -0.982265,0.543633 -2.143125,1.2473616 -2.579687,1.5638413 -0.436563,0.3164798 -1.74625,1.0218097 -2.910417,1.5674001 -1.164166,0.5455904 -2.29526,1.1957224 -2.513541,1.4447379 -0.501896,0.572563 -4.758005,2.4947531 -4.987981,2.2527251 -0.09427,-0.09921 0.05429,-0.315241 0.330132,-0.480075 0.275836,-0.164833 1.109273,-0.700136 1.852083,-1.1895612 0.742807,-0.4894251 2.320803,-1.2822183 3.506655,-1.7617626 1.185854,-0.4795443 3.507573,-1.7346448 5.159375,-2.7891122 3.521085,-2.2477694 5.6428,-3.2503722 6.449819,-3.0478231 0.507719,0.1274292 0.596103,0.3819451 0.745215,2.1459123 0.09305,1.1007346 0.09266,3.7691015 -7.94e-4,5.9297038 -0.173011,3.997154 0.127267,9.500772 0.845365,15.494195 0.209224,1.74625 0.562978,4.994018 0.786114,7.217258 0.223139,2.223244 0.581964,4.880168 0.797393,5.904278 0.215427,1.024109 0.39351,2.360247 0.395738,2.969199 0.0021,0.608949 0.09393,1.248529 0.203779,1.421286 0.342995,0.539421 8.168116,-0.225132 11.632274,-1.136526 0.246156,-0.06476 0.330729,-1.109631 0.330729,-4.086116 0,-3.081459 0.07589,-3.973904 0.330729,-3.88929 0.430252,0.142859 0.782778,3.182694 0.675082,5.821264 l -0.08369,2.050521 h 0.713951 c 0.798497,0 1.253283,0.479724 0.74979,0.790903 -0.180274,0.111413 -0.542521,0.146412 -0.804995,0.07777 -0.762585,-0.199419 -0.960911,0.565507 -1.300829,5.017164 -0.307793,4.030953 -0.295558,4.305511 0.377256,8.466666 0.38245,2.36534 0.834022,4.598273 1.003493,4.962075 0.169468,0.363802 0.311605,1.360254 0.315859,2.21434 l 0.0077,1.552884 1.564225,0.49884 c 0.860322,0.274363 2.289072,0.903521 3.175,1.398127 3.595513,2.007354 8.573441,3.918577 14.492154,5.564111 1.584071,0.440407 2.150716,1.130789 1.536028,1.871445 -0.170878,0.205894 -0.526928,1.777759 -0.791223,3.493032 -0.708332,4.597095 -1.828437,10.907301 -2.145519,12.086978 -0.261938,0.974524 -0.456615,1.901886 -1.443001,6.873901 -0.344749,1.737751 -0.558866,2.221153 -1.28915,2.910416 -0.514313,0.485431 -1.638901,2.355301 -2.724894,4.530721 -1.978181,3.96262 -2.729139,5.294 -4.628054,8.20509 -0.663387,1.01699 -1.908146,2.98017 -2.766131,4.36261 -0.857983,1.38245 -2.627006,3.9364 -3.931161,5.67544 -5.171053,6.89541 -6.748227,9.09448 -7.973388,11.11738 -0.702334,1.15964 -2.175942,3.06464 -3.274687,4.23333 -1.098743,1.16869 -2.406717,2.66068 -2.906606,3.31552 -1.837034,2.40647 -7.26272,8.26404 -7.867832,8.4941 -0.8108,0.30827 -0.949923,0.29986 -1.330135,-0.0803 z m 4.277058,-4.68747 c 0.887921,-0.82321 2.617126,-2.8312 5.807662,-6.74395 0.463413,-0.56832 1.358411,-1.58035 1.988881,-2.24896 0.63047,-0.66861 1.314955,-1.53693 1.521076,-1.92959 0.528019,-1.00587 1.93588,-3.10364 2.739054,-4.08131 0.373436,-0.45456 1.691008,-2.21771 2.927935,-3.91811 1.236927,-1.70039 2.879267,-3.88831 3.649646,-4.86205 2.977949,-3.76404 8.292963,-12.31499 10.8537,-17.46174 1.035778,-2.08179 2.248721,-4.326608 2.695425,-4.988497 0.824539,-1.221738 1.752107,-4.409829 2.374071,-8.159779 0.168953,-1.018646 0.413205,-2.209271 0.542788,-2.645833 0.345056,-1.1625 1.793438,-9.505867 1.997987,-11.509374 0.112261,-1.099548 0.08412,-1.62437 -0.07802,-1.455209 -0.48078,0.501582 -3.451722,4.768223 -4.974331,7.14375 -1.702712,2.656525 -5.412835,8.019285 -8.054062,11.641666 -0.954947,1.309687 -2.092306,2.870393 -2.527464,3.468232 -0.435157,0.597842 -1.468884,1.907529 -2.297175,2.910414 -0.828289,1.00289 -2.376102,2.9106 -3.439584,4.23936 -1.063479,1.32876 -3.183757,3.96726 -4.711726,5.86334 -5.140663,6.37912 -10.457828,13.96253 -10.855113,15.48172 -0.121576,0.46489 -0.411887,2.75454 -0.645136,5.0881 -0.233249,2.33356 -0.661342,5.36965 -0.95132,6.74687 -1.007708,4.78601 -1.097272,5.42221 -0.957313,6.79995 0.07741,0.76202 0.03045,1.45366 -0.104354,1.53697 -0.134803,0.0833 -0.245097,0.56518 -0.245097,1.07081 v 0.91933 l 0.859896,-0.97898 c 0.472943,-0.53844 1.320101,-1.40564 1.882579,-1.92713 z m -4.122137,0.56982 c -0.01445,-1.27959 0.836107,-6.18905 1.890268,-10.91068 0.374285,-1.67644 0.806516,-5.12497 0.88709,-7.07761 0.05821,-1.4107 0.0019,-1.65364 -0.384437,-1.65364 -0.248968,0 -1.382474,-0.63552 -2.518902,-1.41226 -1.136428,-0.77673 -3.614044,-2.21482 -5.505815,-3.19573 -1.891771,-0.98092 -3.856302,-2.10771 -4.365625,-2.50398 -0.509323,-0.39627 -1.402291,-1.00961 -1.984375,-1.36298 -1.718148,-1.04306 -4.796628,-3.30377 -6.989714,-5.13296 -2.442483,-2.0372 -6.155994,-4.34497 -11.991699,-7.45226 C 12.304833,102.729 7.3880071,99.616262 5.3748518,97.920328 4.7179753,97.36696 4.2898715,97.170509 4.1171796,97.3432 c -0.4090223,0.409025 -0.7526266,3.91263 -1.0585177,10.79334 -0.1546881,3.47955 -0.3472244,6.4332 -0.4278585,6.56367 -0.4414774,0.71432 13.6945236,12.842 19.0857426,16.3742 2.152761,1.41044 2.455529,1.58546 11.377083,6.57688 1.569136,0.8779 3.696841,2.33531 8.428776,5.77347 3.285056,2.38687 5.621049,3.94866 5.772779,3.85953 0.09825,-0.0577 0.170924,-0.78801 0.161491,-1.6229 z m 6.05694,-24.9336 c 1.216178,-1.81901 2.834208,-4.10164 3.595624,-5.0725 0.761415,-0.97087 1.977384,-2.57821 2.702152,-3.57188 0.72477,-0.99366 2.510708,-3.23541 3.96875,-4.98166 4.290345,-5.13841 7.866877,-9.605118 9.000987,-11.241283 0.582083,-0.839764 1.405792,-1.965743 1.830467,-2.502175 L 75.383726,92.382959 74.479303,91.4825 c -0.497435,-0.495253 -2.184596,-1.668111 -3.749246,-2.60635 -2.66242,-1.596511 -2.851684,-1.669147 -2.951877,-1.132853 -0.05888,0.315172 -0.244393,1.704131 -0.41225,3.086579 -0.537961,4.430582 -0.301368,3.976899 -3.297377,6.322962 -2.680502,2.099 -6.737803,4.351102 -9.640948,5.351432 -2.502493,0.86228 -6.797046,1.55479 -9.639594,1.55441 -3.661931,-5.3e-4 -7.906818,-0.77997 -12.795178,-2.34955 -0.89648,-0.28784 -1.877298,-0.45867 -2.179598,-0.37962 -0.362529,0.0948 -0.606872,-0.005 -0.717772,-0.29443 -0.09248,-0.24099 -0.59994,-0.6635 -1.127694,-0.93891 -0.527756,-0.275409 -1.554869,-1.062952 -2.282473,-1.750093 -1.27694,-1.205932 -1.321226,-1.29666 -1.274244,-2.610604 0.02677,-0.748689 0.284158,-2.545683 0.571977,-3.993322 0.716391,-3.603246 1.483704,-9.61174 1.256479,-9.838964 -0.102359,-0.102362 -0.268933,-0.06387 -0.37016,0.08555 -0.101229,0.149413 -0.751258,0.534308 -1.444508,0.855321 -0.693251,0.321017 -1.838566,0.998993 -2.545141,1.506617 -0.706575,0.507624 -1.397045,0.922954 -1.534374,0.922954 -0.436483,0 -6.424469,3.677264 -7.155713,4.394374 -0.178668,0.175215 -1.57912,1.065721 -3.112116,1.978901 -1.5329957,0.913183 -3.4108754,2.23225 -4.1730656,2.931263 l -1.3858001,1.270934 0.6614583,0.547293 c 0.3638021,0.301011 0.8995833,0.738688 1.190625,0.972614 0.2910416,0.233926 1.1840103,0.98375 1.9843749,1.666274 1.8756925,1.599528 4.3174995,3.106018 9.6572915,5.958128 5.706901,3.04819 8.910621,5.06854 11.391423,7.18373 2.46157,2.09879 4.762452,3.80949 6.350757,4.72177 0.719301,0.41314 1.724538,1.06953 2.233861,1.45863 0.509323,0.38911 2.667423,1.6196 4.795782,2.73444 2.128355,1.11483 4.376914,2.41169 4.996799,2.88191 2.501008,1.89717 2.427316,1.8748 3.007664,0.91277 0.282546,-0.46837 1.508773,-2.33986 2.724949,-4.15887 z m -5.153321,-17.47471 c 0.771146,-0.15223 1.669975,-0.33309 1.997397,-0.40191 0.520383,-0.10938 0.595313,-0.29006 0.595313,-1.43548 0,-0.7207 0.199339,-2.217547 0.442976,-3.326331 0.464653,-2.114621 0.814916,-2.496984 2.28736,-2.496984 0.318569,0 1.561068,-0.47625 2.761109,-1.058333 2.265916,-1.09909 3.246702,-1.291262 3.713477,-0.727604 0.150638,0.181901 0.25146,1.259893 0.22405,2.395537 -0.02741,1.135642 0.03308,2.198968 0.134421,2.362941 0.158038,0.255709 1.903659,-0.926907 4.679553,-3.170285 0.489852,-0.39588 0.836099,-2.235229 2.303672,-12.237671 0.494455,-3.370051 0.779189,-7.672917 0.507738,-7.672917 -0.120566,0 -0.465008,0.220597 -0.765429,0.490212 -0.644758,0.578647 -5.343874,2.420205 -6.175653,2.420205 -0.964044,0 -1.384898,-0.971545 -1.154594,-2.665373 0.110284,-0.811109 0.153837,-1.614781 0.09678,-1.785937 -0.06413,-0.192384 -0.709208,-0.31119 -1.689661,-0.31119 h -1.585931 l 0.148301,-1.709076 c 0.08156,-0.93999 0.07599,-2.070642 -0.01241,-2.512557 l -0.160694,-0.803484 -2.28223,0.145288 c -4.238895,0.269851 -3.849108,0.0071 -4.400457,2.96595 -0.263938,1.416436 -0.601853,2.655451 -0.750919,2.753365 -0.149069,0.09791 -1.247535,0.316643 -2.441038,0.486061 -1.846223,0.262069 -2.420901,0.243755 -3.851505,-0.122748 -0.924822,-0.236929 -1.789528,-0.538811 -1.921566,-0.670849 -0.143703,-0.143703 -0.118099,-0.847397 0.06378,-1.753052 0.3946,-1.964859 0.385353,-3.007582 -0.02688,-3.03109 -0.181901,-0.01037 -0.747448,-0.06131 -1.25677,-0.113189 -0.509323,-0.05188 -2.354792,-0.162216 -4.101042,-0.245189 -2.70024,-0.128305 -6.223897,-0.50677 -6.939698,-0.745371 -0.314169,-0.104725 -0.336333,0.115305 -0.336333,3.338986 v 3.010124 l 1.318699,0.567291 c 0.725284,0.312007 1.886143,0.585221 2.579688,0.607139 2.29785,0.07261 2.551877,0.539311 1.810152,3.325579 -0.454028,1.705539 -0.421854,1.731127 2.764152,2.198331 1.233615,0.180898 2.331238,0.40451 2.43917,0.496914 0.163134,0.139665 -0.17313,2.271892 -0.782174,4.959725 -0.347261,1.532535 -7.153947,1.124871 -9.411375,-0.563663 -0.452109,-0.338175 -0.449278,-0.436409 0.06615,-2.29638 0.296153,-1.068702 0.538459,-2.088718 0.538459,-2.266706 0,-0.330422 -1.781514,-0.952495 -2.123139,-0.74136 -0.103632,0.06405 -0.268623,0.863259 -0.366649,1.776018 -0.09802,0.912763 -0.408622,3.103814 -0.690215,4.869003 l -0.511988,3.209438 1.348513,1.42077 c 0.741682,0.781425 1.526987,1.622777 1.745123,1.869673 0.218133,0.246893 0.7147,0.518763 1.103479,0.604152 1.139722,0.250325 2.405292,1.142571 2.405292,1.695767 0,0.279199 -0.421801,1.253879 -0.937336,2.165956 -1.130972,2.000894 -1.125742,2.008704 2.01496,3.009014 5.360257,1.70722 11.178918,2.39388 14.585916,1.72129 z m 0.421428,-11.671867 c -0.391906,-0.307684 -0.430313,-0.696762 -0.291015,-2.948225 l 0.160475,-2.593766 1.365789,0.170645 c 1.124831,0.140539 1.653226,0.04966 2.995023,-0.51509 0.896077,-0.377153 1.88628,-0.685734 2.200455,-0.685734 0.560511,0 0.567642,0.05085 0.380219,2.711979 -0.105053,1.491588 -0.312854,2.859952 -0.46178,3.040808 -0.650391,0.789834 -5.576972,1.425628 -6.349166,0.819383 z m 3.857275,-1.001665 c 1.365115,-0.316722 1.488835,-0.479512 1.743827,-2.29454 0.25636,-1.824747 0.05059,-2.182588 -0.975246,-1.695993 -0.40413,0.191696 -1.389626,0.484566 -2.189991,0.650822 l -1.455208,0.302284 -0.136864,1.529061 c -0.07527,0.840986 -0.0852,1.58073 -0.02204,1.643878 0.193908,0.193908 1.954432,0.115316 3.03553,-0.135512 z m 2.368775,10.933082 c 0.999369,-0.38188 2.341346,-0.98737 2.982174,-1.34553 l 1.165141,-0.651216 v -2.358628 c 0,-2.770095 -0.02281,-2.784353 -2.467467,-1.542071 -0.883788,0.449109 -2.089142,0.898123 -2.678565,0.997805 -1.049404,0.177477 -1.078021,0.211373 -1.376892,1.630836 -0.16787,0.797274 -0.316698,2.015134 -0.330729,2.706364 -0.03086,1.52021 0.118605,1.55127 2.706338,0.56244 z M 30.499141,98.558092 c 1.03477,-2.220883 1.080397,-2.055143 -0.806127,-2.928328 -0.991187,-0.458775 -1.855991,-1.056839 -2.037953,-1.409367 -0.384352,-0.744627 -1.325213,-1.803021 -1.602798,-1.803021 -0.111239,0 -0.27372,0.565546 -0.361067,1.25677 -0.08735,0.691224 -0.206771,1.564399 -0.265385,1.940391 -0.180406,1.157282 2.720848,4.11259 4.095943,4.172259 0.223034,0.0097 0.651153,-0.528523 0.977387,-1.228704 z M -0.74365369,96.501949 C 3.0774304,95.336447 2.7885086,95.743799 2.9255609,91.328687 2.9905423,89.23533 3.176157,86.034303 3.3380386,84.215293 3.4999199,82.396283 3.6676123,78.229095 3.7106881,74.954877 3.7537641,71.680658 3.919071,67.989721 4.0780369,66.752794 4.4703624,63.700079 4.7278591,55.52442 4.728026,46.115295 4.7281443,39.446089 4.5813566,36.409842 3.9861302,30.769463 3.9323816,30.26014 3.8813779,29.643084 3.8727887,29.398231 3.8502515,28.755767 2.8838456,28.53624 2.1615493,29.009505 c -0.9707369,0.63605 -4.9820268,4.740291 -5.7481662,5.881364 -0.91092,1.356704 -1.1009148,3.033649 -0.7319704,6.460564 0.2238112,2.078855 0.2203875,5.171101 -0.013622,12.303124 -0.3863924,11.776276 -0.3944185,13.079179 -0.1442513,23.416986 0.1389033,5.739987 0.1015289,9.927352 -0.1200639,13.451749 -0.4548444,7.23423 -0.4234126,7.283003 3.85287081,5.978657 z M 9.3768095,91.245303 c 0.7777395,-0.39411 2.2872515,-1.36231 3.3544715,-2.151557 1.067219,-0.789247 2.275338,-1.582269 2.684707,-1.762276 0.40937,-0.180004 0.80384,-0.405354 0.8766,-0.500779 0.07276,-0.09543 0.965729,-0.618823 1.984375,-1.163108 1.018646,-0.544285 2.642002,-1.510432 3.607456,-2.146991 0.965457,-0.636561 1.831753,-1.157382 1.925103,-1.157382 0.09335,0 0.754544,-0.436608 1.469321,-0.970238 1.239407,-0.925301 1.313485,-1.052602 1.599581,-2.748764 0.164992,-0.978191 0.261692,-2.160026 0.214887,-2.626299 l -0.0851,-0.847773 -2.248958,1.521595 c -1.236927,0.836877 -3.796771,2.681973 -5.688542,4.100208 -1.891771,1.418238 -5.046927,3.556058 -7.011458,4.750713 -1.964531,1.194652 -4.6194885,2.962296 -5.8999054,3.928096 l -2.3280306,1.756003 0.051822,1.5875 c 0.028502,0.873125 0.099033,1.673815 0.1567373,1.779309 0.057704,0.105497 0.963953,-0.443476 2.0138879,-1.219941 1.0499346,-0.776462 2.5453045,-1.734206 3.3230437,-2.128316 z m 68.6934845,-2.67917 c 0.793118,-1.156036 2.512513,-3.709226 3.820872,-5.673757 1.308362,-1.964531 2.769436,-4.107656 3.246831,-4.762499 1.665902,-2.285119 2.817551,-4.358762 2.565964,-4.620244 -0.250447,-0.260295 -3.168645,-1.341215 -4.612553,-1.708523 -0.863856,-0.219753 -3.775286,-1.481884 -7.796738,-3.379959 -2.933031,-1.384353 -5.497365,-2.24227 -5.7038,-1.908249 -0.07974,0.129021 -0.257199,2.825387 -0.394351,5.991925 -0.229632,5.301641 -0.445204,8.093554 -0.926817,12.003338 -0.179753,1.459254 -0.168164,1.494526 0.709133,2.158217 0.490533,0.371097 1.903908,1.271302 3.140835,2.000459 1.236927,0.729155 2.606145,1.625864 3.042708,1.992688 0.948423,0.796912 0.902073,0.830278 2.907916,-2.093396 z M 37.575978,86.260559 c 0.216429,-0.330311 0.472257,-1.270616 0.56851,-2.089565 0.151916,-1.292561 0.109532,-1.523021 -0.321262,-1.746864 -0.457396,-0.23767 -1.980245,-0.522142 -3.935847,-0.735229 -0.436562,-0.04757 -1.18057,-0.168291 -1.653352,-0.268269 -0.793504,-0.167807 -0.888158,-0.113123 -1.23096,0.711125 -0.204246,0.491101 -0.451681,1.547755 -0.549858,2.348119 l -0.178501,1.455208 1.012585,0.449422 c 0.704373,0.312623 1.755674,0.453559 3.453883,0.46302 2.253729,0.01257 2.471529,-0.03254 2.834802,-0.586967 z m -4.492599,-7.120371 c 0.660842,-2.225297 0.648917,-2.246543 -1.378812,-2.456526 -0.982266,-0.101722 -2.04964,-0.353717 -2.371942,-0.559991 -1.080241,-0.691359 -1.150099,-0.586864 -1.54732,2.314506 -0.158906,1.160679 -0.123976,1.258734 0.585292,1.643052 0.459013,0.248719 1.449388,0.412858 2.52997,0.419303 l 1.775687,0.01058 0.407125,-1.370939 z m 30.804929,-2.726849 c 1.27363,-0.447627 2.39921,-1.075174 3.229234,-1.800402 l 1.274135,-1.113268 0.01191,-2.08443 0.01191,-2.08443 -0.859896,0.687705 c -1.099132,0.879033 -4.418404,2.739853 -5.267322,2.952919 -0.49739,0.124836 -0.725025,0.441039 -0.96593,1.341766 -0.173353,0.648142 -0.315185,1.607335 -0.315185,2.131541 0,0.787972 0.08022,0.927343 0.463021,0.804421 0.254661,-0.08178 1.342813,-0.457896 2.418117,-0.835822 z M 47.609903,73.885124 c 0.812808,-0.359542 1.26128,-0.736132 1.33912,-1.124479 0.305806,-1.525648 0.36135,-2.229302 0.229584,-2.90848 l -0.143002,-0.737089 -2.679321,0.03736 c -3.648136,0.05086 -3.868484,0.115367 -3.876416,1.134774 -0.0035,0.457166 -0.129706,1.36611 -0.280336,2.019874 -0.248611,1.079035 -0.220909,1.231543 0.300363,1.653646 0.825579,0.668512 3.51786,0.628682 5.110008,-0.0756 z m 12.921223,-1.343673 c 0.771147,-0.163219 1.729508,-0.463934 2.12969,-0.668253 0.707284,-0.361119 0.727604,-0.434107 0.727604,-2.613657 0,-1.233191 -0.04966,-2.242164 -0.110355,-2.242164 -0.0607,0 -0.674309,0.241737 -1.363583,0.537194 -0.689274,0.295458 -1.844434,0.62288 -2.567022,0.727604 l -1.313796,0.190411 -0.03585,2.071322 c -0.01971,1.139229 0.01431,2.121495 0.07564,2.182812 0.186547,0.18655 0.98552,0.12632 2.457666,-0.185269 z m 5.664314,-2.939658 c 2.57052,-2.224339 2.753593,-2.64215 2.316424,-5.286528 l -0.162396,-0.982319 -0.568592,0.843733 c -0.502428,0.745553 -1.075547,1.218004 -2.643589,2.17924 -0.502727,0.308179 -0.969312,4.365625 -0.502026,4.365625 0.146386,0 0.848468,-0.503889 1.560179,-1.119751 z M 48.803817,68.578919 c 2.855542,-0.1598 5.27104,-0.36816 5.367769,-0.463021 0.09673,-0.09486 0.261641,-0.875998 0.366466,-1.735854 0.162589,-1.33368 0.13198,-1.540883 -0.208333,-1.410293 -0.219405,0.08419 -1.790559,0.362276 -3.491447,0.617958 -2.605801,0.391716 -3.600103,0.422082 -6.317543,0.192953 -1.773759,-0.149561 -3.421099,-0.35723 -3.660756,-0.461486 -0.360572,-0.156858 -0.467003,0.03775 -0.616969,1.128127 -0.112061,0.814793 -0.06843,1.528448 0.114321,1.869922 0.356608,0.666332 0.909587,0.683464 8.446492,0.261694 z M 39.202263,67.35166 c 0.103362,-0.689269 0.07234,-1.817513 -0.06894,-2.507205 -0.141282,-0.689692 -0.162063,-1.286605 -0.04618,-1.32647 0.314048,-0.108037 -0.05394,-1.263293 -0.40197,-1.261954 -0.348428,0.0013 -3.257571,1.024493 -4.797788,1.687391 -1.076888,0.463486 -4.534654,2.705295 -4.776692,3.096921 -0.402428,0.65114 3.787503,1.482701 7.737044,1.535546 l 2.166598,0.02899 z m 20.840324,0.159075 c 1.521184,-0.393853 5.79828,-2.462485 6.276945,-3.035868 0.229664,-0.275109 0.667629,-0.939049 0.973257,-1.475423 l 0.555683,-0.975222 -0.948912,-0.723773 c -1.654636,-1.262052 -5.588762,-2.252337 -9.199681,-2.315713 l -2.116667,-0.03715 0.0668,0.926042 c 0.03674,0.509323 0.255275,1.354984 0.485627,1.87925 0.424291,0.96565 0.327046,1.918618 -0.574522,5.630069 l -0.185208,0.762442 1.823442,-0.185309 c 1.002893,-0.10192 2.282349,-0.304126 2.843234,-0.449345 z M 31.542211,64.274828 c 1.184013,-0.680807 2.731825,-1.425239 3.439583,-1.654294 0.70776,-0.229052 1.657064,-0.581271 2.109568,-0.782711 0.452503,-0.201438 1.082479,-0.462338 1.399947,-0.579776 0.317466,-0.117441 1.018799,-0.796896 1.558518,-1.509901 1.074761,-1.419841 3.982849,-3.486686 5.914315,-4.20344 0.82504,-0.306165 1.280306,-0.647951 1.385449,-1.040109 0.197699,-0.737367 0.160202,-4.843324 -0.06332,-6.934093 l -0.169722,-1.5875 -1.455209,0.03374 c -2.036471,0.04721 -9.018037,0.07267 -9.657291,0.03522 -0.291042,-0.01704 -1.573911,-0.0098 -2.850819,0.01617 -2.792399,0.05673 -2.689143,-0.0898 -3.07608,4.365522 -0.144497,1.663787 -0.560827,4.08147 -0.925177,5.372629 -0.36435,1.291158 -0.73017,3.30006 -0.812935,4.464227 -0.08276,1.164166 -0.216813,2.857428 -0.297886,3.762803 -0.177096,1.977726 -0.01519,2.362835 0.777502,1.849215 0.313946,-0.203422 1.539549,-0.926883 2.72356,-1.607693 z m 18.617043,0.763532 c 4.11626,-0.636055 5.246198,-1.110869 4.884801,-2.05265 -0.301189,-0.784887 -3.283726,-1.78204 -5.342911,-1.786303 -2.773715,-0.0057 -8.542224,1.214345 -8.963403,1.895827 -0.330854,0.535334 1.379508,1.801902 2.480376,1.83678 0.543406,0.01722 1.345199,0.122195 1.781762,0.23328 1.255887,0.319569 2.461808,0.289901 5.159375,-0.126934 z m -6.217708,-3.853701 c 2.421863,-0.482428 3.487798,-0.556863 6.349999,-0.443426 1.891771,0.07498 3.647943,0.220832 3.902604,0.324126 0.363604,0.147476 0.462151,0.0539 0.458971,-0.435819 -0.008,-1.226016 -0.0019,-1.224185 -4.957392,-1.455976 -2.551809,-0.119356 -3.222855,-0.05984 -4.697696,0.416629 -2.407682,0.77784 -4.628361,1.791488 -4.628361,2.112655 0,0.148961 0.148828,0.22375 0.330729,0.166198 0.181901,-0.05755 1.640417,-0.365524 3.241146,-0.684387 z M 67.343068,56.15588 C 66.80223,52.355059 66.794152,51.338837 67.25643,45.2554 l 0.155816,-2.050521 -1.152017,0.0065 c -0.633609,0.0035 -1.655829,0.122724 -2.271599,0.264814 -0.61577,0.142091 -2.665891,0.36799 -4.555826,0.501996 -1.889937,0.134004 -3.559805,0.320008 -3.710821,0.413343 -0.181062,0.111903 -0.236892,1.988727 -0.163925,5.510807 0.117628,5.677998 0.296198,7.613364 0.72703,7.879633 0.146661,0.09064 1.244103,0.239935 2.438757,0.331763 1.980189,0.15221 7.333991,1.447663 8.346943,2.0197 0.230269,0.13004 0.508129,0.148442 0.617463,0.04089 0.109334,-0.107548 -0.046,-1.915835 -0.345183,-4.018418 z m -23.269231,2.771704 c 1.744626,-0.595884 2.455884,-0.682628 5.886979,-0.717968 4.187492,-0.04313 4.322009,-0.09577 3.49,-1.36557 -0.543214,-0.829046 -2.195309,-1.468335 -3.794583,-1.468335 -2.289175,0 -6.108139,1.800035 -7.810952,3.681622 -0.672095,0.742659 -0.254487,0.718343 2.228556,-0.129749 z M 54.45152,51.564712 c -0.129826,-0.608709 -0.134686,-1.792108 -0.01098,-2.675187 0.122002,-0.870981 0.295619,-2.216972 0.385813,-2.99109 l 0.163991,-1.407483 -0.894188,0.139589 c -0.491802,0.07677 -1.579219,0.212749 -2.416482,0.302162 -1.131951,0.120886 -1.593144,0.294947 -1.798585,0.678818 -0.151958,0.283935 -0.313324,2.404559 -0.358592,4.712498 l -0.08231,4.196252 1.175073,0.161063 c 0.646287,0.08858 1.552221,0.332499 2.01318,0.542036 1.751449,0.796149 1.88786,0.726826 1.97617,-1.004253 0.04385,-0.859552 -0.02503,-2.054034 -0.153085,-2.654405 z M 48.732845,47.90667 c 0.119087,-1.230135 -0.152087,-2.435378 -0.475242,-2.112224 -0.155704,0.155704 -0.185303,0.863422 -0.07353,1.758042 0.201025,1.608942 0.413993,1.746395 0.548769,0.354182 z m 3.1462,-3.669882 c 0.582084,-0.153112 1.475052,-0.36314 1.984375,-0.46673 l 0.926042,-0.188346 -0.06355,-1.842061 C 54.69096,40.726516 54.424443,38.290244 54.133647,36.325713 52.753716,27.003209 52.15453,20.239749 51.867917,10.75066 51.7793,7.8167246 51.665365,5.1973498 51.614727,4.9298275 51.564088,4.6623049 51.513547,4.1685056 51.502414,3.8324957 51.490984,3.4872594 51.364529,3.294275 51.211666,3.388749 c -0.445858,0.275555 -1.846162,3.241143 -1.846162,3.9098318 0,0.3417093 -0.294503,0.8773556 -0.65445,1.1903251 -0.359947,0.3129698 -0.736221,0.8948526 -0.83617,1.2930729 -0.200975,0.8007492 0.330512,14.0389592 0.73107,18.2093592 0.139769,1.455208 0.346797,5.629476 0.460065,9.276148 0.113268,3.646675 0.293548,6.772066 0.400619,6.945312 0.237726,0.384652 1.012013,0.392348 2.412407,0.024 z M 21.595716,22.633526 c 0.02811,-0.48658 5.544789,-3.709453 5.544789,-3.239294 0,0.153637 -0.20836,0.358888 -0.463021,0.456115 -0.254662,0.09723 -0.700027,0.396919 -0.989703,0.665984 -0.518816,0.481903 -3.645268,2.315633 -3.948078,2.315633 -0.0855,0 -0.150289,-0.0893 -0.143987,-0.198438 z m -3.765237,-1.569803 c 0.190996,-0.07643 0.419199,-0.06703 0.507118,0.02089 0.08792,0.08792 -0.06835,0.150453 -0.347266,0.138964 -0.308224,-0.01269 -0.370919,-0.07539 -0.159852,-0.159852 z m 1.372526,-0.613009 c 0.218281,-0.141065 0.515937,-0.256481 0.661458,-0.256481 0.145521,0 0.08599,0.115416 -0.132292,0.256481 -0.218281,0.141064 -0.515937,0.25648 -0.661458,0.25648 -0.145521,0 -0.08599,-0.115416 0.132292,-0.25648 z m 2.81437,-1.697645 c 1.576496,-1.107499 6.180595,-4.217457 6.670881,-4.506022 0.289047,-0.170123 0.299882,-0.10323 0.05683,0.350905 -0.165158,0.308602 -0.438338,0.561095 -0.607068,0.561095 -0.168727,0 -1.444461,0.874383 -2.83496,1.943072 -1.390501,1.06869 -2.693585,1.886681 -2.895742,1.817759 -0.205087,-0.06992 -0.293474,-0.0054 -0.199957,0.14587 0.175639,0.284188 -0.380822,0.591216 -1.071525,0.591216 -0.222827,0 0.173866,-0.406753 0.881536,-0.903895 z m 5.765273,0.236756 c 0.280419,-0.21215 0.574628,-0.320952 0.653796,-0.241783 0.166077,0.166077 -0.50591,0.638356 -0.899064,0.631872 -0.145521,-0.0024 -0.03515,-0.17794 0.245268,-0.390089 z m 2.666312,-5.420159 c 0.09058,-0.146556 0.544087,-0.450542 1.007801,-0.675524 l 0.843118,-0.40906 -0.742357,0.675525 c -0.734512,0.668383 -1.426689,0.923796 -1.108562,0.409059 z"
                 id="path1049" />
            </g>
          </g>
        </g>
      </g>
    </g>
  </g>
</svg>
