<svg  >
 
<defs>

    <symbol id="mode-dark" width="64" height="64" viewBox="0 0 64 64">
        <path d="M31 32V32.1035V32.207V32.3103V32.4136V32.5168V32.6199V32.723V32.8259V32.9288V33.0316V33.1343V33.237V33.3395V33.442V33.5444V33.6467V33.7489V33.8511V33.9531V34.0551V34.157V34.2588V34.3605V34.4621V34.5636V34.6651V34.7664V34.8677V34.9688V35.0699V35.1709V35.2718V35.3726V35.4733V35.574V35.6745V35.7749V35.8752V35.9755V36.0756V36.1757V36.2756V36.3755V36.4752V36.5749V36.6745V36.7739V36.8733V36.9725V37.0717V37.1708V37.2697V37.3686V37.4673V37.566V37.6645V37.763V37.8613V37.9595V38.0577V38.1557V38.2536V38.3514V38.4491V38.5467V38.6442V38.7416V38.8388V38.936V39.033V39.13V39.2268V39.3235V39.4201V39.5166V39.613V39.7092V39.8054V39.9014V39.9973V40.0931V40.1888V40.2843V40.3798V40.4751V40.5703V40.6654V40.7604V40.8552V40.95V41.0446V41.1391V41.2335V41.3277V41.4218V41.5158V41.6097V41.7035V41.7971V41.8906V41.984V42.0772V42.1703V42.2633V42.3562V42.4489V42.5416V42.634V42.7264V42.8186V42.9107V43.0027V43.0945V43.1862V43.2778V43.3692V43.4605V43.5517V43.6427V43.7336V43.8244V43.915V44.0055V44.0958V44.186V44.2761V44.366V44.4558V44.5455V44.635V44.7244V44.8136V44.9027V44.9917V45.0805V45.1692V45.2577V45.3461V45.4343V45.5224V45.6104V45.6982V45.7858V45.8733V45.9607V46.0479V46.135V46.2219V46.3086V46.3953V46.4817V46.5681V46.6542V46.7402V46.8261V46.9118V46.9974V47.0828V47.168V47.2531V47.338V47.4228V47.5074V47.5919V47.6762V47.7604V47.8444V47.9282V48.0119V48.0954V48.1788V48.262V48.345V48.4279V48.5106V48.5932V48.6756V48.7578V48.8398V48.9217V49.0035V49.085V49.1664V49.2477V49.3287V49.4096V49.4904V49.5709V49.6513V49.7316V49.8116V49.8915V49.9712V50.0508V50.1301V50.2093V50.2884V50.3672V50.4459V50.5244V50.6027V50.6809V50.7589V50.8367V50.9143V50.9917V51.069V51.1461V51.223V51.2998V51.3763V51.4527V51.5289V51.6049V51.6807V51.7564V51.8319V51.9071V51.9822V52.0572V52.1319V52.2064V52.2808V52.355V52.429V52.5028V52.5764V52.6498V52.723V52.7961V52.8689V52.9416V53.0141V53.0864V53.1585V53.2304V53.3021V53.3736V53.4449V53.5161V53.587V53.6578V53.7283V53.7987V53.8688V53.9388V54.0085V54.0781V54.1475V54.2166V54.2856V54.3544V54.4229V54.4913V54.5595V54.6274V54.6952V54.7627V54.8301V54.8972V54.9642V55.0309V55.0975V55.1638V55.2299V55.2958V55.3615V55.4271V55.4923V55.5574V55.6223V55.687V55.7514V55.8157V55.8797V55.9435V56.0072V56.0706V56.1337V56.1967V56.2595V56.322V56.3843V56.4465V56.5084V56.57V56.6315V56.6928V56.7538V56.8146V56.8752V56.9356V56.9957V57.0556V57.1154V57.1748V57.2341V57.2932V57.352V57.4106V57.469V57.5271V57.585V57.6427V57.7002V57.7575V57.8145V57.8713V57.9278V57.9842V58.0403V58.0962V58.1518V58.2072V58.2624V58.3174V58.3721V58.4266V58.4809V58.5349V58.5887V58.6423V58.6956V58.7487V58.8015V58.8542V58.9065V58.9587V59.0106V59.0623V59.1137V59.1649V59.2158V59.2665V59.317V59.3673V59.4172V59.467V59.5165V59.5658V59.6148V59.6636V59.7121V59.7604V59.8084V59.8562V59.9037V59.951V59.9981V60.0449V60.0915V60.1378V60.1838V60.2296V60.2752V60.3205V60.3656V60.4104V60.4549V60.4992V60.5433V60.5871V60.6306V60.6739V60.7169V60.7597V60.8022V60.8445V60.8865V60.9282V60.9697V61.0109V61.0519V61.0926V61.133V61.1732V61.2132V61.2528V61.2922V61.3314V61.3702V61.4088V61.4472V61.4853V61.5231V61.5607V61.5979V61.635V61.6717V61.7082V61.7444V61.7804V61.8161V61.8515V61.8866V61.9215V61.9561V61.9904V62.0245V62.0583V62.0918V62.125V62.158V62.1907V62.2231V62.2552V62.2871V62.3187V62.35V62.381V62.4118V62.4422V62.4724V62.5023V62.532V62.5613V62.5904V62.6192V62.6477V62.676V62.7039V62.7316V62.759V62.7861V62.8129V62.8394V62.8656V62.8916V62.9173V62.9427V62.9677V62.9842C14.342 62.4563 1 48.7862 1 32C1 15.2138 14.342 1.54373 31 1.01582V1.03225V1.05735V1.08273V1.1084V1.13436V1.1606V1.18713V1.21394V1.24104V1.26842V1.29609V1.32404V1.35227V1.38078V1.40958V1.43866V1.46801V1.49765V1.52757V1.55777V1.58825V1.619V1.65003V1.68134V1.71293V1.74479V1.77693V1.80935V1.84204V1.875V1.90824V1.94175V1.97554V2.00959V2.04392V2.07852V2.11339V2.14853V2.18395V2.21963V2.25558V2.2918V2.32828V2.36504V2.40206V2.43935V2.4769V2.51472V2.5528V2.59115V2.62977V2.66864V2.70778V2.74718V2.78685V2.82678V2.86696V2.90741V2.94812V2.98909V3.03032V3.0718V3.11355V3.15555V3.19781V3.24032V3.28309V3.32612V3.36941V3.41294V3.45674V3.50078V3.54508V3.58963V3.63444V3.67949V3.7248V3.77036V3.81617V3.86223V3.90854V3.95509V4.0019V4.04895V4.09625V4.1438V4.19159V4.23963V4.28792V4.33645V4.38522V4.43424V4.4835V4.53301V4.58276V4.63275V4.68298V4.73345V4.78416V4.83512V4.88631V4.93774V4.98941V5.04132V5.09346V5.14585V5.19847V5.25132V5.30441V5.35774V5.4113V5.4651V5.51913V5.57339V5.62788V5.68261V5.73757V5.79276V5.84818V5.90383V5.95971V6.01582V6.07216V6.12873V6.18552V6.24254V6.29979V6.35727V6.41497V6.47289V6.53104V6.58942V6.64802V6.70684V6.76589V6.82515V6.88464V6.94436V7.00429V7.06444V7.12481V7.1854V7.24621V7.30724V7.36849V7.42996V7.49164V7.55354V7.61565V7.67798V7.74052V7.80328V7.86626V7.92944V7.99284V8.05645V8.12028V8.18431V8.24856V8.31302V8.37769V8.44256V8.50765V8.57295V8.63845V8.70416V8.77008V8.8362V8.90253V8.96907V9.03581V9.10276V9.16991V9.23726V9.30482V9.37258V9.44055V9.50871V9.57708V9.64564V9.71441V9.78338V9.85254V9.92191V9.99147V10.0612V10.1312V10.2013V10.2717V10.3422V10.413V10.4839V10.5551V10.6264V10.6979V10.7696V10.8415V10.9136V10.9859V11.0584V11.131V11.2039V11.277V11.3502V11.4236V11.4972V11.571V11.645V11.7192V11.7936V11.8681V11.9428V12.0178V12.0929V12.1681V12.2436V12.3193V12.3951V12.4711V12.5473V12.6237V12.7002V12.777V12.8539V12.931V13.0083V13.0857V13.1633V13.2411V13.3191V13.3973V13.4756V13.5541V13.6328V13.7116V13.7907V13.8699V13.9492V14.0288V14.1085V14.1884V14.2684V14.3487V14.4291V14.5096V14.5904V14.6713V14.7523V14.8336V14.915V14.9965V15.0783V15.1602V15.2422V15.3244V15.4068V15.4894V15.5721V15.655V15.738V15.8212V15.9046V15.9881V16.0718V16.1556V16.2396V16.3238V16.4081V16.4926V16.5772V16.662V16.7469V16.832V16.9172V17.0026V17.0882V17.1739V17.2598V17.3458V17.4319V17.5183V17.6047V17.6914V17.7781V17.865V17.9521V18.0393V18.1267V18.2142V18.3018V18.3896V18.4776V18.5657V18.6539V18.7423V18.8308V18.9195V19.0083V19.0973V19.1864V19.2756V19.365V19.4545V19.5442V19.634V19.7239V19.814V19.9042V19.9945V20.085V20.1756V20.2664V20.3573V20.4483V20.5395V20.6308V20.7222V20.8138V20.9055V20.9973V21.0893V21.1814V21.2736V21.366V21.4584V21.5511V21.6438V21.7367V21.8297V21.9228V22.016V22.1094V22.2029V22.2965V22.3903V22.4842V22.5782V22.6723V22.7666V22.8609V22.9554V23.05V23.1448V23.2396V23.3346V23.4297V23.5249V23.6202V23.7157V23.8112V23.9069V24.0027V24.0986V24.1946V24.2908V24.387V24.4834V24.5799V24.6765V24.7732V24.87V24.967V25.064V25.1612V25.2584V25.3558V25.4533V25.5509V25.6486V25.7464V25.8443V25.9423V26.0405V26.1387V26.237V26.3355V26.434V26.5327V26.6314V26.7303V26.8292V26.9283V27.0275V27.1267V27.2261V27.3255V27.4251V27.5248V27.6245V27.7244V27.8243V27.9244V28.0245V28.1248V28.2251V28.3255V28.4261V28.5267V28.6274V28.7282V28.8291V28.9301V29.0312V29.1323V29.2336V29.3349V29.4364V29.5379V29.6395V29.7412V29.843V29.9449V30.0469V30.1489V30.2511V30.3533V30.4556V30.558V30.6605V30.763V30.8657V30.9684V31.0712V31.1741V31.277V31.3801V31.4832V31.5864V31.6897V31.793V31.8965V32Z" fill="black" stroke="black" stroke-width="2" />
        <circle cx="32" cy="32" r="31" stroke="black" stroke-width="2" />
    </symbol>
    
    <symbol id="mode-light" width="64" height="64" viewBox="0 0 64 64">
        <circle cx="32" cy="32" r="31" stroke="black" stroke-width="2" />
    </symbol>
</defs>
<symbol id="mode-auto">
    <g filter="url(#filter0_d_2_9)">
        <circle cx="36" cy="32" r="31" fill="black" stroke="black" stroke-width="2" />
    </g>
    <defs>
        <filter id="filter0_d_2_9" x="0" y="0" width="72" height="72" filterUnits="userSpaceOnUse" color-interpolation-filters="sRGB">
            <feFlood flood-opacity="0" result="BackgroundImageFix" />
            <feOffset dy="4" />
            <feGaussianBlur stdDeviation="2" />
            <feComposite in2="hardAlpha" operator="out" />
            <feColorMatrix type="matrix" values="0 0 0 0 0 0 0 0 0 0 0 0 0 0 0 0 0 0 0.25 0" />
            <feBlend mode="normal" in2="BackgroundImageFix" result="effect1_dropShadow_2_9" />
            <feBlend mode="normal" in="SourceGraphic" in2="effect1_dropShadow_2_9" result="shape" />
        </filter>
    </defs>
</symbol> 
</svg>
