<?xml version="1.0" encoding="UTF-8" standalone="no"?>
<!-- Created with Inkscape (http://www.inkscape.org/) -->

<svg
   width="296.88391mm"
   height="365.97156mm"
   viewBox="0 0 296.88391 365.97156"
   version="1.1"
   id="svg204"
   xmlns="http://www.w3.org/2000/svg"
   xmlns:svg="http://www.w3.org/2000/svg">
  <defs
     id="defs201" />
  <g
     id="layer1"
     transform="translate(101.21377,54.905335)">
    <path
       style="fill:#041;stroke-width:0.264583"
       d="m -101.19235,310.80164 c 0,-0.14552 0.11906,-0.26459 0.26458,-0.26459 0.14552,0 0.26459,0.11907 0.26459,0.26459 0,0.14552 -0.11907,0.26458 -0.26459,0.26458 -0.14552,0 -0.26458,-0.11906 -0.26458,-0.26458 z m 2.645833,0 c 0,-0.14552 0.47625,-0.26459 1.058334,-0.26459 0.582083,0 1.058333,0.11907 1.058333,0.26459 0,0.14552 -0.47625,0.26458 -1.058333,0.26458 -0.582084,0 -1.058334,-0.11906 -1.058334,-0.26458 z m 4.233334,0 c 0,-0.14552 0.47625,-0.26459 1.058333,-0.26459 0.582083,0 1.058333,0.11907 1.058333,0.26459 0,0.14552 -0.47625,0.26458 -1.058333,0.26458 -0.582083,0 -1.058333,-0.11906 -1.058333,-0.26458 z m 4.233333,0 c 0,-0.14552 0.47625,-0.26459 1.058333,-0.26459 0.582083,0 1.058333,0.11907 1.058333,0.26459 0,0.14552 -0.47625,0.26458 -1.058333,0.26458 -0.582083,0 -1.058333,-0.11906 -1.058333,-0.26458 z m 4.233333,0 c 0,-0.14552 0.47625,-0.26459 1.058333,-0.26459 0.582084,0 1.058334,0.11907 1.058334,0.26459 0,0.14552 -0.47625,0.26458 -1.058334,0.26458 -0.582083,0 -1.058333,-0.11906 -1.058333,-0.26458 z m 4.233333,0 c 0,-0.14552 0.47625,-0.26459 1.058334,-0.26459 0.582083,0 1.058333,0.11907 1.058333,0.26459 0,0.14552 -0.47625,0.26458 -1.058333,0.26458 -0.582084,0 -1.058334,-0.11906 -1.058334,-0.26458 z m 4.233333,0 c 0,-0.14552 0.47625,-0.26459 1.058334,-0.26459 0.582083,0 1.058333,0.11907 1.058333,0.26459 0,0.14552 -0.47625,0.26458 -1.058333,0.26458 -0.582084,0 -1.058334,-0.11906 -1.058334,-0.26458 z m 4.233334,0 c 0,-0.14552 0.47625,-0.26459 1.058333,-0.26459 0.582083,0 1.058333,0.11907 1.058333,0.26459 0,0.14552 -0.47625,0.26458 -1.058333,0.26458 -0.582083,0 -1.058333,-0.11906 -1.058333,-0.26458 z m 4.233333,0 c 0,-0.14552 0.47625,-0.26459 1.058333,-0.26459 0.582084,0 1.058334,0.11907 1.058334,0.26459 0,0.14552 -0.47625,0.26458 -1.058334,0.26458 -0.582083,0 -1.058333,-0.11906 -1.058333,-0.26458 z m 4.233333,0 c 0,-0.14552 0.47625,-0.26459 1.058333,-0.26459 0.582084,0 1.058334,0.11907 1.058334,0.26459 0,0.14552 -0.47625,0.26458 -1.058334,0.26458 -0.582083,0 -1.058333,-0.11906 -1.058333,-0.26458 z m 4.233333,0 c 0,-0.14552 0.47625,-0.26459 1.058334,-0.26459 0.582083,0 1.058333,0.11907 1.058333,0.26459 0,0.14552 -0.47625,0.26458 -1.058333,0.26458 -0.582084,0 -1.058334,-0.11906 -1.058334,-0.26458 z m 4.233334,0 c 0,-0.14552 0.47625,-0.26459 1.058333,-0.26459 0.582083,0 1.058333,0.11907 1.058333,0.26459 0,0.14552 -0.47625,0.26458 -1.058333,0.26458 -0.582083,0 -1.058333,-0.11906 -1.058333,-0.26458 z m 4.233333,0 c 0,-0.14552 0.47625,-0.26459 1.058333,-0.26459 0.582084,0 1.058334,0.11907 1.058334,0.26459 0,0.14552 -0.47625,0.26458 -1.058334,0.26458 -0.582083,0 -1.058333,-0.11906 -1.058333,-0.26458 z m 4.233333,0 c 0,-0.14552 0.47625,-0.26459 1.058333,-0.26459 0.582084,0 1.058334,0.11907 1.058334,0.26459 0,0.14552 -0.47625,0.26458 -1.058334,0.26458 -0.582083,0 -1.058333,-0.11906 -1.058333,-0.26458 z m 4.233333,0 c 0,-0.14552 0.47625,-0.26459 1.058334,-0.26459 0.582083,0 1.058333,0.11907 1.058333,0.26459 0,0.14552 -0.47625,0.26458 -1.058333,0.26458 -0.582084,0 -1.058334,-0.11906 -1.058334,-0.26458 z m 4.233334,0 c 0,-0.14552 0.47625,-0.26459 1.058333,-0.26459 0.582083,0 1.058333,0.11907 1.058333,0.26459 0,0.14552 -0.47625,0.26458 -1.058333,0.26458 -0.582083,0 -1.058333,-0.11906 -1.058333,-0.26458 z m 4.233333,0 c 0,-0.14552 0.47625,-0.26459 1.058333,-0.26459 0.582083,0 1.058333,0.11907 1.058333,0.26459 0,0.14552 -0.47625,0.26458 -1.058333,0.26458 -0.582083,0 -1.058333,-0.11906 -1.058333,-0.26458 z m 4.233333,0 c 0,-0.14552 0.47625,-0.26459 1.058333,-0.26459 0.582084,0 1.058334,0.11907 1.058334,0.26459 0,0.14552 -0.47625,0.26458 -1.058334,0.26458 -0.582083,0 -1.058333,-0.11906 -1.058333,-0.26458 z m 4.233333,0 c 0,-0.14552 0.47625,-0.26459 1.058334,-0.26459 0.582083,0 1.058333,0.11907 1.058333,0.26459 0,0.14552 -0.47625,0.26458 -1.058333,0.26458 -0.582084,0 -1.058334,-0.11906 -1.058334,-0.26458 z m 4.233334,0 c 0,-0.14552 0.47625,-0.26459 1.058333,-0.26459 0.582083,0 1.058333,0.11907 1.058333,0.26459 0,0.14552 -0.47625,0.26458 -1.058333,0.26458 -0.582083,0 -1.058333,-0.11906 -1.058333,-0.26458 z m 4.233333,0 c 0,-0.14552 0.47625,-0.26459 1.058333,-0.26459 0.582083,0 1.058333,0.11907 1.058333,0.26459 0,0.14552 -0.47625,0.26458 -1.058333,0.26458 -0.582083,0 -1.058333,-0.11906 -1.058333,-0.26458 z m 4.233333,0 c 0,-0.14552 0.47625,-0.26459 1.058333,-0.26459 0.582084,0 1.058334,0.11907 1.058334,0.26459 0,0.14552 -0.47625,0.26458 -1.058334,0.26458 -0.582083,0 -1.058333,-0.11906 -1.058333,-0.26458 z m 4.2333333,0 c 0,-0.14552 0.47625,-0.26459 1.0583333,-0.26459 0.5820833,0 1.0583333,0.11907 1.0583333,0.26459 0,0.14552 -0.47625,0.26458 -1.0583333,0.26458 -0.5820833,0 -1.0583333,-0.11906 -1.0583333,-0.26458 z m 4.2333332,0 c 0,-0.14552 0.47625,-0.26459 1.0583333,-0.26459 0.5820833,0 1.0583333,0.11907 1.0583333,0.26459 0,0.14552 -0.47625,0.26458 -1.0583333,0.26458 -0.5820833,0 -1.0583333,-0.11906 -1.0583333,-0.26458 z m 4.2333333,0 c 0,-0.14552 0.47624995,-0.26459 1.05833327,-0.26459 0.58208332,0 1.05833331,0.11907 1.05833331,0.26459 0,0.14552 -0.47624999,0.26458 -1.05833331,0.26458 -0.58208332,0 -1.05833327,-0.11906 -1.05833327,-0.26458 z m 4.2333332,0 c 0,-0.14552 0.47625,-0.26459 1.0583333,-0.26459 0.5820833,0 1.0583333,0.11907 1.0583333,0.26459 0,0.14552 -0.47625,0.26458 -1.0583333,0.26458 -0.5820833,0 -1.0583333,-0.11906 -1.0583333,-0.26458 z m 4.2333332,0 c 0,-0.14552 0.47625,-0.26459 1.0583333,-0.26459 0.5820834,0 1.0583334,0.11907 1.0583334,0.26459 0,0.14552 -0.47625,0.26458 -1.0583334,0.26458 -0.5820833,0 -1.0583333,-0.11906 -1.0583333,-0.26458 z m 4.2333328,0 c 0,-0.14552 0.47625,-0.26459 1.058334,-0.26459 0.582083,0 1.058333,0.11907 1.058333,0.26459 0,0.14552 -0.47625,0.26458 -1.058333,0.26458 -0.582084,0 -1.058334,-0.11906 -1.058334,-0.26458 z m 4.233334,0 c 0,-0.14552 0.47625,-0.26459 1.058333,-0.26459 0.582083,0 1.058333,0.11907 1.058333,0.26459 0,0.14552 -0.47625,0.26458 -1.058333,0.26458 -0.582083,0 -1.058333,-0.11906 -1.058333,-0.26458 z m 4.233333,0 c 0,-0.14552 0.47625,-0.26459 1.058333,-0.26459 0.582084,0 1.058334,0.11907 1.058334,0.26459 0,0.14552 -0.47625,0.26458 -1.058334,0.26458 -0.582083,0 -1.058333,-0.11906 -1.058333,-0.26458 z m 4.233333,0 c 0,-0.14552 0.47625,-0.26459 1.058333,-0.26459 0.582084,0 1.058334,0.11907 1.058334,0.26459 0,0.14552 -0.47625,0.26458 -1.058334,0.26458 -0.582083,0 -1.058333,-0.11906 -1.058333,-0.26458 z m 4.233333,0 c 0,-0.14552 0.47625,-0.26459 1.058334,-0.26459 0.582083,0 1.058333,0.11907 1.058333,0.26459 0,0.14552 -0.47625,0.26458 -1.058333,0.26458 -0.582084,0 -1.058334,-0.11906 -1.058334,-0.26458 z m 4.233334,0 c 0,-0.14552 0.47625,-0.26459 1.058333,-0.26459 0.582083,0 1.058333,0.11907 1.058333,0.26459 0,0.14552 -0.47625,0.26458 -1.058333,0.26458 -0.582083,0 -1.058333,-0.11906 -1.058333,-0.26458 z m 4.233333,0 c 0,-0.14552 0.47625,-0.26459 1.058333,-0.26459 0.582084,0 1.058334,0.11907 1.058334,0.26459 0,0.14552 -0.47625,0.26458 -1.058334,0.26458 -0.582083,0 -1.058333,-0.11906 -1.058333,-0.26458 z m 4.233333,0 c 0,-0.14552 0.47625,-0.26459 1.058333,-0.26459 0.582084,0 1.058334,0.11907 1.058334,0.26459 0,0.14552 -0.47625,0.26458 -1.058334,0.26458 -0.582083,0 -1.058333,-0.11906 -1.058333,-0.26458 z m 4.233333,0 c 0,-0.14552 0.47625,-0.26459 1.058334,-0.26459 0.582083,0 1.058333,0.11907 1.058333,0.26459 0,0.14552 -0.47625,0.26458 -1.058333,0.26458 -0.582084,0 -1.058334,-0.11906 -1.058334,-0.26458 z m 4.233334,0 c 0,-0.14552 0.47625,-0.26459 1.058333,-0.26459 0.582083,0 1.058333,0.11907 1.058333,0.26459 0,0.14552 -0.47625,0.26458 -1.058333,0.26458 -0.582083,0 -1.058333,-0.11906 -1.058333,-0.26458 z m 4.233333,0 c 0,-0.14552 0.47625,-0.26459 1.058333,-0.26459 0.582083,0 1.058333,0.11907 1.058333,0.26459 0,0.14552 -0.47625,0.26458 -1.058333,0.26458 -0.582083,0 -1.058333,-0.11906 -1.058333,-0.26458 z m 4.233333,0 c 0,-0.14552 0.47625,-0.26459 1.058333,-0.26459 0.582084,0 1.058334,0.11907 1.058334,0.26459 0,0.14552 -0.47625,0.26458 -1.058334,0.26458 -0.582083,0 -1.058333,-0.11906 -1.058333,-0.26458 z m 4.233333,0 c 0,-0.14552 0.47625,-0.26459 1.058334,-0.26459 0.582083,0 1.058333,0.11907 1.058333,0.26459 0,0.14552 -0.47625,0.26458 -1.058333,0.26458 -0.582084,0 -1.058334,-0.11906 -1.058334,-0.26458 z m 4.233334,0 c 0,-0.14552 0.47625,-0.26459 1.058333,-0.26459 0.582083,0 1.058333,0.11907 1.058333,0.26459 0,0.14552 -0.47625,0.26458 -1.058333,0.26458 -0.582083,0 -1.058333,-0.11906 -1.058333,-0.26458 z m 4.233333,0 c 0,-0.14552 0.47625,-0.26459 1.058333,-0.26459 0.582083,0 1.058333,0.11907 1.058333,0.26459 0,0.14552 -0.47625,0.26458 -1.058333,0.26458 -0.582083,0 -1.058333,-0.11906 -1.058333,-0.26458 z m 4.233333,0 c 0,-0.14552 0.47625,-0.26459 1.058333,-0.26459 0.582084,0 1.058334,0.11907 1.058334,0.26459 0,0.14552 -0.47625,0.26458 -1.058334,0.26458 -0.582083,0 -1.058333,-0.11906 -1.058333,-0.26458 z m 4.233333,0 c 0,-0.14552 0.47625,-0.26459 1.058334,-0.26459 0.582083,0 1.058333,0.11907 1.058333,0.26459 0,0.14552 -0.47625,0.26458 -1.058333,0.26458 -0.582084,0 -1.058334,-0.11906 -1.058334,-0.26458 z m 4.233334,0 c 0,-0.14552 0.47625,-0.26459 1.058333,-0.26459 0.582083,0 1.058333,0.11907 1.058333,0.26459 0,0.14552 -0.47625,0.26458 -1.058333,0.26458 -0.582083,0 -1.058333,-0.11906 -1.058333,-0.26458 z m 4.233333,0 c 0,-0.14552 0.47625,-0.26459 1.058333,-0.26459 0.582083,0 1.058333,0.11907 1.058333,0.26459 0,0.14552 -0.47625,0.26458 -1.058333,0.26458 -0.582083,0 -1.058333,-0.11906 -1.058333,-0.26458 z m 4.233333,0 c 0,-0.14552 0.47625,-0.26459 1.058333,-0.26459 0.582084,0 1.058334,0.11907 1.058334,0.26459 0,0.14552 -0.47625,0.26458 -1.058334,0.26458 -0.582083,0 -1.058333,-0.11906 -1.058333,-0.26458 z m 4.233333,0 c 0,-0.14552 0.47625,-0.26459 1.058334,-0.26459 0.582083,0 1.058333,0.11907 1.058333,0.26459 0,0.14552 -0.47625,0.26458 -1.058333,0.26458 -0.582084,0 -1.058334,-0.11906 -1.058334,-0.26458 z m 4.233338,0 c 0,-0.14552 0.47625,-0.26459 1.05833,-0.26459 0.58208,0 1.05833,0.11907 1.05833,0.26459 0,0.14552 -0.47625,0.26458 -1.05833,0.26458 -0.58208,0 -1.05833,-0.11906 -1.05833,-0.26458 z m 4.23333,0 c 0,-0.14552 0.47625,-0.26459 1.05833,-0.26459 0.58209,0 1.05834,0.11907 1.05834,0.26459 0,0.14552 -0.47625,0.26458 -1.05834,0.26458 -0.58208,0 -1.05833,-0.11906 -1.05833,-0.26458 z m 4.23333,0 c 0,-0.14552 0.47625,-0.26459 1.05834,-0.26459 0.58208,0 1.05833,0.11907 1.05833,0.26459 0,0.14552 -0.47625,0.26458 -1.05833,0.26458 -0.58209,0 -1.05834,-0.11906 -1.05834,-0.26458 z m 4.23334,0 c 0,-0.14552 0.47625,-0.26459 1.05833,-0.26459 0.58208,0 1.05833,0.11907 1.05833,0.26459 0,0.14552 -0.47625,0.26458 -1.05833,0.26458 -0.58208,0 -1.05833,-0.11906 -1.05833,-0.26458 z m 4.23333,0 c 0,-0.14552 0.47625,-0.26459 1.05833,-0.26459 0.58209,0 1.05834,0.11907 1.05834,0.26459 0,0.14552 -0.47625,0.26458 -1.05834,0.26458 -0.58208,0 -1.05833,-0.11906 -1.05833,-0.26458 z m 4.23333,0 c 0,-0.14552 0.47625,-0.26459 1.05833,-0.26459 0.58209,0 1.05834,0.11907 1.05834,0.26459 0,0.14552 -0.47625,0.26458 -1.05834,0.26458 -0.58208,0 -1.05833,-0.11906 -1.05833,-0.26458 z m 4.23333,0 c 0,-0.14552 0.47625,-0.26459 1.05834,-0.26459 0.58208,0 1.05833,0.11907 1.05833,0.26459 0,0.14552 -0.47625,0.26458 -1.05833,0.26458 -0.58209,0 -1.05834,-0.11906 -1.05834,-0.26458 z m 4.23334,0 c 0,-0.14552 0.47625,-0.26459 1.05833,-0.26459 0.58208,0 1.05833,0.11907 1.05833,0.26459 0,0.14552 -0.47625,0.26458 -1.05833,0.26458 -0.58208,0 -1.05833,-0.11906 -1.05833,-0.26458 z m 4.23333,0 c 0,-0.14552 0.47625,-0.26459 1.05833,-0.26459 0.58209,0 1.05834,0.11907 1.05834,0.26459 0,0.14552 -0.47625,0.26458 -1.05834,0.26458 -0.58208,0 -1.05833,-0.11906 -1.05833,-0.26458 z m 4.23333,0 c 0,-0.14552 0.47625,-0.26459 1.05834,-0.26459 0.58208,0 1.05833,0.11907 1.05833,0.26459 0,0.14552 -0.47625,0.26458 -1.05833,0.26458 -0.58209,0 -1.05834,-0.11906 -1.05834,-0.26458 z m 4.23334,0 c 0,-0.14552 0.47625,-0.26459 1.05833,-0.26459 0.58208,0 1.05833,0.11907 1.05833,0.26459 0,0.14552 -0.47625,0.26458 -1.05833,0.26458 -0.58208,0 -1.05833,-0.11906 -1.05833,-0.26458 z m 4.23333,0 c 0,-0.14552 0.47625,-0.26459 1.05833,-0.26459 0.58209,0 1.05834,0.11907 1.05834,0.26459 0,0.14552 -0.47625,0.26458 -1.05834,0.26458 -0.58208,0 -1.05833,-0.11906 -1.05833,-0.26458 z m 4.23333,0 c 0,-0.14552 0.47625,-0.26459 1.05834,-0.26459 0.58208,0 1.05833,0.11907 1.05833,0.26459 0,0.14552 -0.47625,0.26458 -1.05833,0.26458 -0.58209,0 -1.05834,-0.11906 -1.05834,-0.26458 z m 4.23334,0 c 0,-0.14552 0.47625,-0.26459 1.05833,-0.26459 0.58208,0 1.05833,0.11907 1.05833,0.26459 0,0.14552 -0.47625,0.26458 -1.05833,0.26458 -0.58208,0 -1.05833,-0.11906 -1.05833,-0.26458 z m 4.23333,0 c 0,-0.14552 0.47625,-0.26459 1.05833,-0.26459 0.58209,0 1.05834,0.11907 1.05834,0.26459 0,0.14552 -0.47625,0.26458 -1.05834,0.26458 -0.58208,0 -1.05833,-0.11906 -1.05833,-0.26458 z m 4.23333,0 c 0,-0.14552 0.47625,-0.26459 1.05834,-0.26459 0.58208,0 1.05833,0.11907 1.05833,0.26459 0,0.14552 -0.47625,0.26458 -1.05833,0.26458 -0.58209,0 -1.05834,-0.11906 -1.05834,-0.26458 z m 4.23334,0 c 0,-0.14552 0.47625,-0.26459 1.05833,-0.26459 0.58208,0 1.05833,0.11907 1.05833,0.26459 0,0.14552 -0.47625,0.26458 -1.05833,0.26458 -0.58208,0 -1.05833,-0.11906 -1.05833,-0.26458 z m 4.23333,0 c 0,-0.14552 0.47625,-0.26459 1.05833,-0.26459 0.58209,0 1.05834,0.11907 1.05834,0.26459 0,0.14552 -0.47625,0.26458 -1.05834,0.26458 -0.58208,0 -1.05833,-0.11906 -1.05833,-0.26458 z m 4.23333,0 c 0,-0.14552 0.47625,-0.26459 1.05834,-0.26459 0.58208,0 1.05833,0.11907 1.05833,0.26459 0,0.14552 -0.47625,0.26458 -1.05833,0.26458 -0.58209,0 -1.05834,-0.11906 -1.05834,-0.26458 z m 4.23334,0 c 0,-0.14552 0.47625,-0.26459 1.05833,-0.26459 0.58208,0 1.05833,0.11907 1.05833,0.26459 0,0.14552 -0.47625,0.26458 -1.05833,0.26458 -0.58208,0 -1.05833,-0.11906 -1.05833,-0.26458 z m 4.23333,0 c 0,-0.14552 0.47625,-0.26459 1.05833,-0.26459 0.58209,0 1.05834,0.11907 1.05834,0.26459 0,0.14552 -0.47625,0.26458 -1.05834,0.26458 -0.58208,0 -1.05833,-0.11906 -1.05833,-0.26458 z m 4.23333,0 c 0,-0.14552 0.47625,-0.26459 1.05834,-0.26459 0.58208,0 1.05833,0.11907 1.05833,0.26459 0,0.14552 -0.47625,0.26458 -1.05833,0.26458 -0.58209,0 -1.05834,-0.11906 -1.05834,-0.26458 z m 4.23334,0 c 0,-0.14552 0.47625,-0.26459 1.05833,-0.26459 0.58208,0 1.05833,0.11907 1.05833,0.26459 0,0.14552 -0.47625,0.26458 -1.05833,0.26458 -0.58208,0 -1.05833,-0.11906 -1.05833,-0.26458 z m -294.74583,-8.88953 c 0,-2.65737 0.0209,-2.75955 0.51177,-2.49687 0.717372,0.38394 2.574976,0.34084 4.715183,-0.10935 1.00208,-0.21082 3.89713,-0.4581 6.433443,-0.54957 2.536313,-0.0915 5.444916,-0.29726 6.463562,-0.45733 1.018646,-0.16007 2.864114,-0.32332 4.101042,-0.36274 2.953438,-0.0941 7.777945,-0.52536 10.715624,-0.95774 0.392094,-0.0577 1.453428,0.33713 1.466731,0.54565 0.0063,0.0993 0.116224,0.71638 0.244189,1.37123 0.184322,0.94321 0.133181,1.41719 -0.246123,2.28097 -0.263337,0.59968 -0.605904,1.16888 -0.761262,1.26489 -0.155358,0.096 -1.676897,0.23564 -3.3812,0.31028 -1.704303,0.0746 -3.184112,0.18844 -3.288467,0.25294 -0.171494,0.10599 -3.348676,0.24318 -12.157826,0.52499 -6.122108,0.19584 -9.937379,0.44114 -10.583333,0.6804 -0.363802,0.13475 -1.46513,0.29631 -2.447396,0.35901 l -1.785937,0.11399 z m 0.7276,-7.97216 -0.7276,-0.10678 v -2.39149 -2.39146 l 1.12448,0.11811 c 0.618463,0.065 2.969947,-0.032 5.22552,-0.2154 2.255573,-0.18341 6.958541,-0.46662 10.451041,-0.62931 3.4925,-0.1627 7.77875,-0.41259 9.525,-0.55531 1.74625,-0.14274 4.544219,-0.31816 6.217708,-0.38984 4.902806,-0.21002 8.244086,-0.63711 9.238578,-1.18091 0.583105,-0.31888 1.96379,0.67352 2.291588,1.64708 0.330655,0.98206 0.08727,2.45711 -0.502774,3.04716 -0.53421,0.53422 -2.464465,0.86968 -5.603434,0.97379 -8.482814,0.28144 -12.476483,0.45678 -14.948958,0.65633 -3.029732,0.2445 -4.948271,0.30641 -9.392708,0.30303 -1.600729,0 -3.803385,0.15872 -4.894791,0.35544 -1.091406,0.19669 -2.060314,0.31411 -2.153129,0.26093 -0.153576,-0.088 -3.756645,0.30689 -4.719362,0.51726 -0.221953,0.0485 -0.730969,0.0401 -1.131159,-0.0185 z m 0.1323,-8.46513 -0.8599,-0.1067 v -2.53474 -2.53476 l 2.315104,0.17349 c 1.273307,0.0954 3.258092,0.0533 4.410632,-0.0936 1.152541,-0.14684 3.47426,-0.32954 5.159375,-0.406 1.685116,-0.0764 3.599628,-0.20019 4.254472,-0.27496 0.654844,-0.0748 3.095625,-0.18947 5.423958,-0.25482 2.328333,-0.0654 4.947708,-0.17513 5.820833,-0.24392 1.987537,-0.15655 12.233021,-0.63759 17.330208,-0.8137 2.110052,-0.0729 4.610365,-0.18708 5.55625,-0.25376 0.945886,-0.0667 2.969948,-0.20079 4.497917,-0.29811 1.889178,-0.12027 3.092233,-0.33464 3.759771,-0.66989 1.567101,-0.78703 2.48774,-0.64299 3.079787,0.4818 0.616741,1.17171 0.173384,3.7211 -0.779304,4.48112 -0.228645,0.1824 -2.510234,0.37068 -5.927963,0.48921 -3.055937,0.10597 -6.389687,0.22519 -7.408333,0.26493 -1.018646,0.0397 -4.471458,0.14989 -7.672916,0.24474 -8.056848,0.23871 -10.201238,0.33488 -24.209375,1.08577 -1.382448,0.0741 -3.88276,0.20746 -5.55625,0.29639 -1.673489,0.0889 -4.029584,0.38602 -5.235766,0.66026 -1.206182,0.27424 -2.396807,0.47956 -2.645834,0.45628 -0.249026,-0.0233 -0.839727,-0.0904 -1.312666,-0.14907 z m -0.8599,-12.9513 v -2.20313 l 1.785937,-0.005 c 0.982266,-0.003 2.559844,-0.1206 3.50573,-0.26149 0.945885,-0.14089 3.505729,-0.31369 5.688541,-0.38399 10.119282,-0.32591 19.029844,-0.65172 21.960416,-0.80298 1.309688,-0.0676 4.226719,-0.19278 6.482292,-0.27816 10.79324,-0.4086 15.919822,-0.62362 17.859374,-0.74906 1.164167,-0.0753 4.557448,-0.20373 7.540625,-0.28544 2.983177,-0.0817 6.197865,-0.20613 7.14375,-0.27656 0.945885,-0.0704 3.922448,-0.20154 6.614583,-0.29136 7.598452,-0.2535 8.253643,-0.30176 9.533594,-0.70208 1.471181,-0.46011 2.231363,-0.18912 2.62328,0.93512 0.357164,1.02455 0.353309,2.01412 -0.01193,3.06184 l -0.290465,0.83322 -4.009014,0.0101 c -2.204955,0.006 -4.42573,0.0578 -4.935053,0.1162 -2.976618,0.34148 -4.4597,0.41696 -10.451042,0.53198 -3.63802,0.0698 -7.507551,0.18878 -8.598958,0.26434 -1.091406,0.0756 -4.187031,0.20989 -6.879166,0.2985 -2.692136,0.0886 -5.490104,0.20297 -6.217708,0.25408 -6.265865,0.44022 -10.516505,0.62815 -14.684375,0.64924 -2.692135,0.0135 -6.204479,0.1506 -7.805208,0.3044 -1.600729,0.1538 -3.148542,0.25157 -3.439583,0.21722 -0.939247,-0.11078 -1.737042,-0.10284 -8.995834,0.0895 -6.049427,0.16034 -9.435457,0.35848 -13.692186,0.80132 l -0.72761,0.0757 v -2.20313 z m -1.6e-4,-12.04325 -1.7e-4,-2.46301 1.389228,0.0973 c 0.764075,0.0535 2.341727,-0.0303 3.505894,-0.18627 3.439546,-0.46077 12.117518,-0.87151 18.035791,-0.85362 4.894685,0.0148 10.247709,-0.1265 24.429833,-0.64485 4.305329,-0.15737 15.847655,-0.81645 18.785416,-1.07267 0.945885,-0.0825 3.148541,-0.20558 4.894791,-0.27353 1.74625,-0.0679 4.365625,-0.24008 5.820834,-0.38253 3.781115,-0.37015 5.049371,-0.45699 9.657291,-0.66114 2.490544,-0.11036 4.451416,-0.32618 4.9932484,-0.54959 0.4907147,-0.20236 1.2721113,-0.36791 1.7364365,-0.36791 2.2925405,0 3.3429654,4.17203 1.2567894,4.99163 -1.0008764,0.39322 -3.050532,0.54253 -9.5739743,0.69736 -3.128698,0.0743 -7.05776,0.25152 -8.73125,0.39386 -3.668786,0.3121 -10.559372,0.73501 -15.081249,0.92562 -1.819011,0.0767 -4.319323,0.19084 -5.55625,0.25371 -7.170066,0.36438 -15.299671,0.66299 -21.960416,0.80663 -3.128698,0.0675 -7.653073,0.24543 -10.054167,0.39548 -2.401094,0.15004 -7.104062,0.32594 -10.451041,0.39092 -5.968714,0.11586 -12.381385,0.5234 -12.856575,0.81709 -0.13743,0.0849 -0.24037,-0.90586 -0.24046,-2.3145 z m 1.6e-4,-7.79923 c 0,-1.21243 0.10645,-2.2044 0.23655,-2.2044 0.1301,0 1.427186,-0.12219 2.882409,-0.27152 4.030081,-0.41357 6.236294,-0.49323 20.825832,-0.75213 18.480884,-0.32795 24.615902,-0.5466 38.099999,-1.35787 2.473854,-0.14882 6.164792,-0.33086 8.202083,-0.40449 2.037292,-0.0736 5.192448,-0.24569 7.011459,-0.3824 4.121972,-0.30975 8.427857,-0.55139 11.816442,-0.66315 4.1541538,-0.13701 13.6244431,-1.10549 16.758557,-1.71379 2.096807,-0.40698 9.433382,-1.09421 12.832291,-1.20206 1.600729,-0.0508 3.403569,-0.1661 4.006313,-0.25624 0.971807,-0.14539 1.159047,-0.0837 1.653646,0.54512 0.66616,0.84688 0.765733,2.78153 0.168664,3.27707 -0.237503,0.19712 -1.500211,0.35452 -3.241146,0.40402 -6.288865,0.17889 -12.7452169,0.65657 -16.213518,1.19962 -0.9458854,0.14809 -2.7318229,0.38233 -3.96874993,0.52052 -1.23692707,0.13819 -3.02286447,0.37131 -3.96874987,0.51805 -0.9458854,0.14677 -3.927475,0.38973 -6.6257562,0.53994 -2.698279,0.1502 -5.198592,0.33906 -5.55625,0.41971 -0.666502,0.15025 -1.944963,0.22293 -8.852368,0.50329 -8.202626,0.33295 -16.104899,0.69199 -17.197917,0.78142 -1.253328,0.10255 -6.995593,0.4591 -8.598958,0.53395 -0.800364,0.0374 -4.491302,0.20844 -8.202083,0.38013 -3.710781,0.17171 -7.758906,0.3593 -8.995833,0.41685 -1.236927,0.0576 -3.499115,0.18711 -5.027083,0.28792 -1.527969,0.10078 -5.933281,0.21526 -9.789583,0.25442 -11.487677,0.11663 -12.701251,0.15571 -15.539208,0.50041 l -2.717042,0.32999 z m 0,-12.29273 v -2.34709 l 1.521354,-0.005 c 0.836745,-0.003 2.29526,-0.11941 3.241146,-0.25887 0.945885,-0.13943 9.994635,-0.38576 20.108333,-0.54737 10.113697,-0.16161 19.638697,-0.32422 21.166666,-0.36137 6.968897,-0.16941 19.079506,-0.43031 26.326041,-0.56718 4.365625,-0.0824 10.140156,-0.21405 12.832291,-0.29245 2.692136,-0.0784 6.085417,-0.16647 7.5406253,-0.19576 7.58640299,-0.15261 15.4830803,-0.39315 16.5364579,-0.50369 0.6548438,-0.0687 4.4053128,-0.20005 8.3343748,-0.29181 3.929062,-0.0918 8.879618,-0.28913 11.001232,-0.43862 2.121614,-0.14949 3.967083,-0.24194 4.101041,-0.2054 0.133959,0.0365 1.025856,-0.0236 1.981994,-0.13322 2.688847,-0.30877 3.693226,0.46831 3.681473,2.84835 -0.0049,0.99009 -0.221908,1.3594 -0.92199,1.56895 -0.810737,0.24268 -12.685165,0.66781 -23.151042,0.82889 -5.165989,0.0795 -11.8930201,0.20783 -14.9489576,0.28514 -5.6460177,0.14285 -16.6662704,0.33866 -29.1041664,0.51718 -6.440085,0.0924 -9.864788,0.1796 -20.372916,0.51858 -2.328333,0.0751 -6.257395,0.19839 -8.73125,0.27395 -2.473854,0.0756 -5.986197,0.20198 -7.805208,0.28091 -1.81901,0.0789 -5.093229,0.20008 -7.276041,0.26921 -2.182813,0.0691 -4.504531,0.17148 -5.159375,0.22747 -1.421501,0.12152 -3.698355,0.15888 -10.569363,0.17351 -2.829973,0.006 -5.245673,0.0729 -5.368223,0.14864 -0.122549,0.0757 -0.783679,0.13732 -1.469178,0.13687 -0.685498,0 -1.752376,0.0933 -2.370839,0.20839 l -1.12448,0.2092 v -2.34709 z m 0,-9.51409 c 0,-1.61095 0.0829,-2.11839 0.33073,-2.02383 0.1819,0.0694 1.461822,0.0273 2.84427,-0.0936 3.825998,-0.33459 28.689487,-1.00312 38.629166,-1.03865 2.692135,-0.01 5.251979,-0.0614 5.688541,-0.11504 0.436563,-0.0537 5.55625,-0.16862 11.377083,-0.25551 25.422413,-0.37944 29.06758,-0.45511 33.0729163,-0.68657 2.3283333,-0.13454 5.7216144,-0.23595 7.5406248,-0.22532 3.7101224,0.0217 16.1588259,-0.2804 17.9916659,-0.43656 0.654844,-0.0558 5.774531,-0.17476 11.377083,-0.2644 5.602552,-0.0896 11.615209,-0.19917 13.361458,-0.24344 11.849291,-0.30033 16.331136,-0.43971 17.683014,-0.54994 1.805213,-0.14716 3.777385,0.27858 4.002019,0.86397 0.270338,0.70451 -0.357256,2.08362 -1.102759,2.4233 -0.422921,0.19269 -2.441956,0.35986 -5.085575,0.421 -2.411309,0.0558 -5.574824,0.17026 -7.030032,0.2544 -1.455208,0.0841 -4.610365,0.2073 -7.011458,0.27371 -2.401094,0.0664 -7.282656,0.24342 -10.847917,0.39336 -7.836804,0.32953 -17.132781,0.65468 -26.590624,0.93001 -7.9794734,0.23227 -22.587574,0.45852 -35.718749,0.55316 -7.567083,0.0545 -14.353646,0.16899 -15.08125,0.25432 -1.101881,0.12922 -5.99341,0.14319 -12.435416,0.0355 -0.727604,-0.0122 -4.597136,0.0701 -8.598958,0.18285 -4.001823,0.11274 -9.597761,0.24371 -12.435417,0.29104 -9.841121,0.16418 -19.28259,0.64178 -21.365106,1.08075 -0.57881,0.12202 -0.59531,0.0659 -0.59531,-2.02451 z m 0.33073,-7.54349 c -0.22135,-0.10056 -0.33073,-0.79928 -0.33073,-2.11259 v -1.96233 l 1.653646,-0.003 c 0.909505,0 2.665677,-0.12017 3.902604,-0.26461 1.236927,-0.14444 8.261614,-0.32144 15.610416,-0.39333 7.348802,-0.0719 18.123958,-0.18772 23.944791,-0.25741 5.820834,-0.0697 18.560521,-0.19045 28.310416,-0.26837 16.612404,-0.13279 25.0086096,-0.24881 38.761458,-0.5356 3.128698,-0.0652 12.356041,-0.23836 20.505208,-0.38467 13.91009,-0.24977 21.003947,-0.42535 27.252082,-0.67448 2.67057,-0.10649 22.462151,-0.44045 28.279966,-0.47723 3.112873,-0.0196 3.150851,-0.0124 3.770312,0.70763 0.694822,0.8078 0.844648,2.30362 0.277852,2.77402 -0.481076,0.39926 -3.318579,0.51764 -19.686399,0.82132 -7.826076,0.14518 -15.777043,0.32798 -17.668814,0.40622 -4.482311,0.18537 -15.681491,0.43437 -34.263541,0.76181 -5.457031,0.0961 -12.7793744,0.23688 -16.2718743,0.31271 -3.49249996,0.0758 -10.933906,0.19077 -16.5364577,0.25541 -21.400111,0.24691 -31.093627,0.37444 -38.893749,0.51175 -4.438386,0.0781 -13.249011,0.20617 -19.579167,0.28451 -14.286945,0.17679 -21.432347,0.31771 -25.532291,0.50358 -1.74625,0.0792 -3.323828,0.0763 -3.505728,-0.006 z m -0.33073,-11.77864 v -2.5781 l 0.74299,0.2131 c 0.40865,0.11718 1.56951,0.16359 2.579691,0.10313 1.010182,-0.0605 2.670131,-0.15698 3.688777,-0.21442 1.018646,-0.0574 2.864115,-0.16756 4.101042,-0.24468 3.70015,-0.23069 35.556893,-0.63715 63.499998,-0.81018 19.5398706,-0.12097 36.2236909,-0.34142 40.481249,-0.53486 2.463388,-0.11192 11.837847,-0.29998 26.590625,-0.53348 8.683688,-0.13745 19.083112,-0.33959 27.252083,-0.52972 3.201458,-0.0745 9.333176,-0.20733 13.626041,-0.29514 4.292864,-0.0878 8.005741,-0.26554 8.250835,-0.39495 1.763149,-0.93104 3.919998,0.83775 3.919998,3.21469 0,1.10218 -1.085742,1.63356 -2.629194,1.28678 -0.62471,-0.14037 -1.330502,-0.19977 -1.568426,-0.13198 -0.237924,0.0678 -4.599776,0.19315 -9.693005,0.27861 -10.126265,0.16991 -18.972976,0.3597 -25.135416,0.53922 -2.182812,0.0636 -7.362031,0.18187 -11.509375,0.26286 -4.147343,0.081 -9.094086,0.20577 -10.992759,0.27729 -1.898674,0.0715 -6.292483,0.19216 -9.764017,0.26807 -3.471534,0.0759 -6.395696,0.18987 -6.498137,0.25318 -0.102442,0.0633 -6.2456644,0.19233 -13.6516084,0.2867 -7.405944,0.0944 -16.6800396,0.22773 -20.6091016,0.29636 -3.929063,0.0686 -10.537031,0.15918 -14.684375,0.20122 -4.147344,0.042 -13.731875,0.15219 -21.298958,0.24479 -7.567083,0.0926 -19.473333,0.21691 -26.458332,0.27625 -6.985,0.0593 -13.6525,0.23154 -14.816667,0.38264 -1.164166,0.15113 -2.860807,0.31663 -3.770312,0.36775 l -1.653646,0.093 z m 0,-8.79189 v -2.73725 l 2.447396,0.0254 c 1.346067,0.014 3.697552,-0.064 5.22552,-0.17319 3.304663,-0.23609 14.77514,-0.42056 37.30625,-0.59997 48.7296816,-0.38799 68.938895,-0.67053 75.273956,-1.05233 1.164167,-0.0702 5.748073,-0.18936 10.186458,-0.26487 4.438386,-0.0755 9.677136,-0.19507 11.641667,-0.26568 1.964531,-0.0706 5.893593,-0.18984 8.73125,-0.26497 2.837656,-0.0751 7.719218,-0.20434 10.847916,-0.28712 7.261259,-0.19213 20.005669,-0.4006 30.823958,-0.50422 8.928729,-0.0855 16.789069,-0.28559 20.352589,-0.51804 1.17534,-0.0767 4.38582,-0.20508 7.1344,-0.28538 l 4.9974,-0.14599 1.0267,0.71151 c 1.02204,0.70827 1.50289,1.64826 1.14194,2.2323 -0.50607,0.81883 -2.12206,1.1017 -6.86255,1.20126 -5.30124,0.11134 -17.96545,0.5879 -21.043604,0.7919 -2.47146,0.1638 -8.131345,0.31744 -18.388542,0.49916 -7.335871,0.12999 -10.337583,0.20227 -22.357291,0.53843 -8.395443,0.23479 -14.463548,0.39875 -19.976041,0.53969 -3.055938,0.0781 -8.89,0.24781 -12.964583,0.37706 -4.074583,0.12925 -7.586927,0.23463 -7.805208,0.23418 -0.457425,0 -10.84462,0.24064 -18.7854166,0.43688 -2.983177,0.0737 -15.4847394,0.25549 -27.7812494,0.40392 -12.29651,0.14843 -23.428854,0.32424 -24.738541,0.39071 -1.936522,0.0983 -19.774736,0.48014 -21.695833,0.46445 -14.972134,-0.12229 -22.098062,0.0953 -22.695834,0.6931 -0.163051,0.16293 -0.689363,0.29633 -1.169587,0.29633 h -0.87312 z m 0,-9.49611 v -4.37192 l 3.108854,-0.20559 c 5.792554,-0.38307 14.538865,-0.58975 32.742187,-0.77373 44.11937,-0.44591 62.4851415,-0.80003 83.343748,-1.60701 1.74625,-0.0676 6.568281,-0.1866 10.715625,-0.26454 4.147343,-0.0779 11.588749,-0.31464 16.536458,-0.52599 10.667547,-0.4557 20.439443,-0.80394 36.909374,-1.31535 2.401094,-0.0746 7.639843,-0.25761 11.641666,-0.40678 4.001823,-0.14917 11.562288,-0.39555 16.801038,-0.54752 5.23875,-0.15197 11.6086,-0.38868 14.15521,-0.52603 2.54662,-0.13734 7.46548,-0.29807 10.9308,-0.35717 3.46533,-0.0591 6.74292,-0.18219 7.28353,-0.27353 0.81872,-0.13832 1.0822,-0.0604 1.57708,0.46637 0.58379,0.62141 1.11067,1.99188 1.11067,2.88893 0,0.9217 -0.92444,1.0477 -7.63072,1.04012 -3.58847,-0.004 -9.56058,0.0977 -13.27136,0.22618 -3.71078,0.12846 -10.43781,0.30826 -14.94896,0.39954 -4.51114,0.0913 -9.21411,0.21401 -10.451038,0.27271 -1.236927,0.0587 -5.344583,0.2269 -9.128125,0.37377 -3.783541,0.14688 -8.48651,0.33225 -10.451041,0.41193 -1.964531,0.0797 -6.846094,0.26013 -10.847916,0.401 -13.805546,0.486 -36.44479,1.39451 -42.730208,1.71476 -3.719309,0.18951 -15.583897,0.62054 -22.4895827,0.81703 -3.20145825,0.0911 -5.9381415,0.27608 -6.0815192,0.41108 -0.2153285,0.20274 2.96389418,0.31668 6.6106859,0.2369 0.2910416,-0.006 4.8154165,-0.0619 10.054166,-0.12346 5.23875,-0.0615 12.203906,-0.17887 15.478125,-0.26074 3.274219,-0.0819 9.584531,-0.21066 14.022916,-0.28618 14.315308,-0.24358 21.268986,-0.41014 22.621875,-0.54185 0.727604,-0.0708 4.537604,-0.18475 8.466666,-0.25313 3.929063,-0.0684 9.227344,-0.18539 11.773958,-0.26 2.546615,-0.0746 10.642865,-0.25697 17.991668,-0.40523 7.3488,-0.14825 14.37349,-0.33092 15.61042,-0.40592 1.23692,-0.075 4.51114,-0.23903 7.27604,-0.36452 4.92953,-0.22374 5.03912,-0.21715 5.64753,0.33919 1.39988,1.28008 1.69019,3.01065 0.60268,3.59266 -0.28251,0.1512 -4.45928,0.32171 -9.8526,0.40222 -5.14921,0.0769 -10.85048,0.20049 -12.66949,0.27474 -1.81901,0.0743 -6.22432,0.19177 -9.78958,0.26116 -15.241551,0.29667 -22.10266,0.46768 -22.250184,0.5546 -0.08661,0.051 -3.837077,0.17124 -8.334375,0.26714 -4.497294,0.0959 -8.712681,0.20415 -9.367525,0.24055 -0.654843,0.0364 -6.488906,0.14374 -12.964583,0.23854 -6.475677,0.0948 -12.905051,0.23025 -14.287499,0.301 -1.382448,0.0708 -6.374948,0.19331 -11.094442,0.27236 -4.719497,0.079 -8.659045,0.19201 -8.754549,0.25104 -0.238009,0.1471 -23.1795292,0.41003 -46.032258,0.52757 -10.404739,0.0535 -22.549114,0.1607 -26.987499,0.23818 -4.438386,0.0775 -12.653698,0.20838 -18.25625,0.29089 -9.690236,0.14272 -12.782063,0.22912 -20.835937,0.58224 l -3.505729,0.15371 z m 91.9427063,-1.52495 c 0.089937,-0.14552 -0.015081,-0.26458 -0.2333546,-0.26458 -0.2182812,0 -0.4704582,0.11906 -0.5603957,0.26458 -0.08994,0.14552 0.01508,0.26458 0.2333548,0.26458 0.2182813,0 0.4704583,-0.11906 0.5603955,-0.26458 z m 3.3784724,-0.17355 c -0.1791308,-0.0725 -0.5363183,-0.0769 -0.79375,-0.01 -0.2574316,0.0671 -0.1108683,0.12638 0.3256942,0.13178 0.4365625,0.005 0.6471867,-0.0495 0.4680558,-0.12197 z m 2.0454858,0.0696 c 0,-0.251 -0.7919985,-0.37749 -0.9331828,-0.14905 -0.086011,0.13917 0.08877,0.25303 0.3884004,0.25303 0.2996301,0 0.5447824,-0.0468 0.5447824,-0.10398 z m -97.3112445,-9.59052 0.0769,-2.34404 0.79375,-0.0546 c 0.436564,-0.03 6.985001,-0.10974 14.552085,-0.17715 7.567083,-0.0674 16.913489,-0.21423 20.769791,-0.32627 3.856302,-0.11204 7.606771,-0.19396 8.334375,-0.18205 6.752634,0.11052 42.568369,0.0823 47.0958319,-0.0371 3.2014583,-0.0844 10.34520815,-0.20744 15.8749997,-0.27332 15.0470314,-0.17927 35.7405164,-0.59082 40.6135404,-0.80771 2.666193,-0.11867 25.846881,-0.62991 36.380208,-0.80235 4.074583,-0.0667 10.087239,-0.22286 13.361458,-0.34701 3.274219,-0.12414 6.310311,-0.23188 6.746871,-0.23942 0.43657,-0.008 3.88938,-0.1362 7.67292,-0.28593 6.97519,-0.27604 13.52912,-0.34963 36.0728,-0.40503 l 12.52489,-0.0308 0.4821,-0.59531 c 0.63332,-0.78202 1.76756,-0.76649 2.77301,0.038 0.72536,0.58037 0.78865,0.76569 0.79375,2.32438 0.004,1.20347 -0.13483,1.90823 -0.47935,2.4348 -0.45717,0.69871 -0.56305,0.73143 -1.85209,0.57225 -5.61333,-0.69316 -37.96698,-0.69497 -61.956776,-0.003 -2.328333,0.0671 -7.924271,0.18142 -12.435417,0.254 -10.28669,0.16551 -24.013794,0.59178 -29.897916,0.92842 -2.473854,0.14153 -9.022291,0.31327 -14.552083,0.38163 -19.10431,0.2362 -30.073075,0.46853 -44.3177069,0.93866 -4.2928645,0.14169 -11.4961451,0.24351 -16.0072911,0.22628 -12.707279,-0.0486 -22.520058,0.0555 -31.617708,0.33516 -4.583906,0.14093 -17.085468,0.30507 -27.781249,0.36476 -10.695781,0.0597 -20.493497,0.187 -21.772702,0.28291 l -2.325831,0.17438 0.0769,-2.34404 z m 262.88311,-8.70725 c -0.08,-0.08 -11.85729,-0.19369 -26.17171,-0.25259 -26.78462,-0.11022 -46.573161,-0.27398 -65.978282,-0.54599 -6.111875,-0.0857 -16.529844,-0.11915 -23.151041,-0.0744 -18.868202,0.12754 -34.155681,0.0632 -38.6291661,-0.16252 -2.2555729,-0.11383 -4.3391666,-0.20028 -4.6302082,-0.19213 -4.5675549,0.1279 -29.1605457,-0.0649 -39.6874987,-0.31115 -3.638021,-0.0851 -12.15099,-0.14504 -18.917708,-0.13321 -6.766719,0.0118 -16.35125,0.008 -21.298958,-0.01 -4.947708,-0.0171 -10.24599,-0.0149 -11.773958,0.005 -1.527969,0.0198 -3.01625,0.0311 -3.307292,0.025 -0.891502,-0.0185 -7.345711,0.46708 -8.410048,0.63271 l -1.00172,0.1559 0.0757,-2.73685 0.0757,-2.73684 2.513543,0.0753 c 1.382448,0.0414 4.359011,0.12914 6.614583,0.195 2.255573,0.0659 10.113698,0.18119 17.4625,0.25629 22.054237,0.22538 34.744487,0.42022 34.932352,0.53633 0.09758,0.0603 5.872615,0.17968 12.833403,0.26527 6.96079,0.0856 12.723513,0.19702 12.80605,0.24762 0.178668,0.10953 22.444143,0.21822 37.720901,0.18413 5.966354,-0.0133 12.93151,0.0245 15.478125,0.084 7.212264,0.16861 105.745823,0.54858 115.147383,0.44403 l 8.38801,-0.0933 0.67396,0.72723 c 0.50277,0.54249 0.67398,1.01329 0.67398,1.85333 0,1.02521 -0.0747,1.15213 -0.83323,1.41657 -0.92369,0.322 -1.3865,0.3638 -1.60532,0.14497 z m -37.60111,-5.84254 c -0.14309,-0.11172 -29.975613,-0.70371 -35.102008,-0.69656 -1.236927,0.002 -6.416145,0.0201 -11.509374,0.0408 -5.093229,0.0207 -15.332604,-0.0152 -22.754166,-0.0798 -16.729411,-0.14567 -50.6636119,-0.48059 -57.4145825,-0.56665 -2.7648958,-0.0352 -10.5634895,-0.13004 -17.3302075,-0.21064 -6.766719,-0.0806 -12.779375,-0.21252 -13.361459,-0.29316 -1.206211,-0.16712 -13.935209,-0.52791 -17.330207,-0.49121 -1.236928,0.0134 -4.927616,0.0432 -8.201531,0.0663 -4.880893,0.0344 -6.065295,0.1158 -6.578684,0.45219 -0.506193,0.33167 -0.835687,0.35707 -1.720342,0.13262 -1.91294,-0.48533 -5.183595,-0.79703 -10.249174,-0.97677 -4.229921,-0.15008 -5.036842,-0.11504 -5.741548,0.24938 -0.881899,0.45605 -2.05309,0.56125 -2.273737,0.20423 -0.407174,-0.65882 -4.517655,-0.95285 -12.926129,-0.92462 l -2.844271,0.01 v -2.2107 -2.2107 l 1.521354,-0.0135 c 0.836745,-0.007 4.021667,-0.0206 7.077604,-0.0292 4.108503,-0.0116 5.788725,-0.11143 6.448458,-0.38332 1.17217,-0.48307 1.869785,-0.46431 2.455829,0.0661 0.412259,0.37309 1.346707,0.43997 6.681791,0.47819 3.411378,0.0245 7.193001,-0.0513 8.403608,-0.16834 1.296982,-0.12538 2.527752,-0.11017 2.996335,0.037 0.437374,0.1374 5.736322,0.31796 11.775437,0.40125 19.721734,0.27199 25.93238,0.42222 27.193048,0.65774 0.682578,0.12751 1.334625,0.17402 1.448994,0.10333 0.114369,-0.0707 3.807243,0.001 8.206388,0.16029 7.8632812,0.28392 18.7103907,0.40022 62.634901,0.67156 12.150989,0.0751 24.414426,0.19863 27.252082,0.27459 2.837657,0.076 15.339219,0.19138 27.781251,0.2565 12.44203,0.0651 25.65797,0.19126 29.36875,0.28031 3.71078,0.0891 12.30333,0.1818 19.09455,0.20609 12.24594,0.0438 12.35276,0.0395 12.96458,-0.51746 0.3393,-0.30889 0.75133,-0.60655 0.91562,-0.66145 0.63334,-0.21165 2.52471,-2.14473 2.30913,-2.36009 -0.12462,-0.1245 -3.44128,-0.29725 -7.37034,-0.38389 -3.92906,-0.0866 -9.88219,-0.22248 -13.22917,-0.30189 -7.50063,-0.17796 -7.23886,-0.17405 -8.20208,-0.12225 -0.43656,0.0235 -4.42516,-0.0221 -8.86354,-0.10123 -12.17381,-0.21712 -13.92701,-0.22981 -16.80104,-0.12158 -1.45521,0.0548 -5.02709,-0.0572 -7.9375,-0.24879 -3.414781,-0.22484 -7.074712,-0.28557 -10.318753,-0.17121 -2.764895,0.0975 -8.003645,0.0494 -11.641666,-0.10673 -3.638021,-0.15617 -9.329507,-0.34015 -12.647747,-0.40884 -3.31824,-0.0687 -6.153505,-0.19927 -6.300589,-0.29017 -0.147085,-0.0909 -7.790598,-0.15571 -16.985586,-0.14401 -9.194987,0.0117 -21.063941,-0.10434 -26.375452,-0.25785 -5.31151,-0.15352 -13.1696348,-0.33311 -17.4624993,-0.39911 -4.2928645,-0.066 -11.4961457,-0.17568 -16.0072917,-0.24376 -15.787089,-0.23823 -22.858263,-0.41187 -32.543749,-0.79912 -1.600729,-0.064 -4.755885,-0.17764 -7.011458,-0.25253 -2.255573,-0.0749 -5.648854,-0.25496 -7.540625,-0.40017 -1.891771,-0.14521 -6.892396,-0.44372 -11.1125,-0.66336 -7.636772,-0.39747 -14.676927,-0.83259 -17.197916,-1.06294 -0.727604,-0.0665 -2.692135,-0.18431 -4.365625,-0.26183 -2.589228,-0.11995 -4.942792,-0.4228 -6.283853,-0.8086 -0.23458,-0.0675 -0.33073,-0.82295 -0.33073,-2.59852 v -2.50338 l 0.8599,0.25715 c 0.787343,0.23545 6.658994,0.9417 12.898433,1.55144 1.382448,0.1351 5.073385,0.3747 8.202083,0.53244 3.128698,0.15775 6.758559,0.40748 8.06636,0.55496 1.307798,0.14748 3.391392,0.32313 4.630208,0.39034 1.238814,0.0672 3.145359,0.18745 4.236765,0.26721 2.652588,0.19387 6.472468,0.32709 14.419791,0.50291 3.638021,0.0805 7.924271,0.26758 9.525,0.41576 1.600729,0.14818 3.327136,0.25137 3.836459,0.22931 1.614445,-0.0699 10.434039,0.23993 10.847916,0.38111 0.218281,0.0745 6.35,0.20544 13.626041,0.29106 7.2760418,0.0856 16.2652603,0.21343 19.9760415,0.28402 11.4302085,0.21743 45.5800235,0.6733 59.7958325,0.79822 2.837656,0.025 6.885781,0.12355 8.995833,0.21914 3.285243,0.14884 13.313401,0.28425 40.613537,0.5484 16.5928,0.16055 46.49917,0.17865 47.75729,0.0289 1.4323,-0.17048 1.46458,-0.1592 2.05052,0.71688 0.87649,1.31049 0.84265,3.57546 -0.0661,4.42923 -0.40394,0.37948 -0.66146,0.91349 -0.66146,1.37163 0,0.76756 -0.25768,1.06863 -1.81885,2.12519 -0.49104,0.33232 -1.20542,1.15726 -1.5875,1.8332 -0.38209,0.67595 -1.00764,1.62845 -1.39012,2.11667 l -0.69541,0.88769 h -19.3682 c -10.65251,0 -19.38832,-0.0157 -19.41291,-0.0349 z m 43.47924,-16.33551 c -0.43169,-0.4281 -3.8023,-0.59628 -5.62112,-0.28049 -0.545,0.0946 -1.19984,0.0819 -1.45521,-0.0283 -0.61088,-0.26359 -2.06155,-0.30362 -17.57337,-0.48497 -7.86029,-0.0919 -13.65352,-0.26864 -14.4175,-0.43985 -0.82881,-0.18574 -4.99674,-0.26309 -11.87259,-0.22034 -5.82748,0.0362 -10.71007,-0.002 -10.85021,-0.085 -0.31052,-0.18387 -10.270004,-0.45447 -22.744372,-0.61796 -5.09323,-0.0668 -11.403542,-0.23614 -14.022917,-0.37641 -2.619375,-0.14028 -10.834687,-0.32653 -18.256249,-0.4139 -7.421563,-0.0874 -14.505781,-0.20904 -15.742708,-0.27038 -2.674713,-0.13263 -16.565586,-0.36874 -31.617708,-0.53743 -5.966354,-0.0669 -12.8124476,-0.23205 -15.213541,-0.36708 -2.401094,-0.13503 -6.374609,-0.2547 -8.830035,-0.26594 -2.455426,-0.0112 -4.544039,-0.0696 -4.64136,-0.1298 -0.09732,-0.0602 -4.339119,-0.17665 -9.426215,-0.25888 -15.306188,-0.24743 -21.77139,-0.42193 -25.388848,-0.68526 -1.89177,-0.13772 -5.820833,-0.3108 -8.731249,-0.38463 -2.910417,-0.0738 -9.518386,-0.26531 -14.684375,-0.4255 -5.16599,-0.16018 -11.238177,-0.31036 -13.49375,-0.33373 l -4.101043,-0.0425 -0.0758,-2.586 -0.0758,-2.58599 4.044548,0.14142 c 8.187951,0.28631 11.562574,0.39921 16.347678,0.54689 2.692136,0.0831 8.942917,0.36844 13.890625,0.63413 4.947708,0.26568 10.543645,0.50596 12.435416,0.53397 1.891771,0.028 6.475677,0.1662 10.186458,0.3071 3.710782,0.14091 8.711406,0.30037 11.1125,0.35436 2.401094,0.054 5.139531,0.16924 6.085417,0.25612 0.945885,0.0869 4.101041,0.20463 7.011458,0.26167 2.910416,0.057 7.494323,0.18048 10.186458,0.27434 6.2500058,0.2179 11.9243049,0.35167 23.151041,0.54575 4.947708,0.0855 10.841302,0.19332 13.096875,0.23951 5.859912,0.12002 22.705369,0.40234 33.072916,0.55429 4.874948,0.0714 10.23276,0.18562 11.906249,0.25371 1.67349,0.0681 5.126302,0.1862 7.672917,0.26246 2.546614,0.0763 7.011458,0.21868 9.921875,0.31649 2.910416,0.0978 8.625416,0.20362 12.699999,0.23513 4.07458,0.0315 9.13474,0.14455 11.24479,0.25119 4.22446,0.21352 21.59424,0.22351 21.93546,0.0126 0.11781,-0.0728 0.61811,-0.0131 1.11177,0.13257 0.68813,0.20313 30.50645,0.67315 34.03662,0.53651 0.32743,-0.0127 1.1379,-0.0528 1.80105,-0.0892 1.01126,-0.0555 1.28421,0.0379 1.6923,0.57891 0.62561,0.82937 0.91173,2.93478 0.51665,3.80184 -0.27651,0.60689 -0.4763,0.67165 -2.45316,0.7952 -1.18369,0.074 -2.4498,0.21154 -2.81361,0.30569 -0.42674,0.11044 -0.80229,0.0315 -1.05833,-0.22238 z m 14.87196,-10.35912 c -1.25333,-0.27215 -3.32528,-0.33269 -8.38729,-0.24507 -4.22754,0.0732 -6.98661,0.0161 -7.43365,-0.1539 -0.39098,-0.14865 -2.68891,-0.34037 -5.10647,-0.42604 -2.41758,-0.0857 -4.57803,-0.25134 -4.80101,-0.36815 -0.59127,-0.30974 -8.97319,-0.0609 -9.82436,0.29169 -0.39775,0.16475 -1.35439,0.24455 -2.12587,0.17732 -4.01846,-0.35018 -12.33644,-0.58795 -19.39435,-0.5544 -22.23322,0.10571 -31.307592,0.10004 -40.481249,-0.0253 -5.529792,-0.0756 -10.589948,-0.11284 -11.244792,-0.0829 -1.7855,0.0818 -7.442985,0.0657 -28.745692,-0.0817 -15.084814,-0.10436 -19.442178,-0.20792 -19.757408,-0.46954 -0.294757,-0.24462 -0.678956,-0.26882 -1.416807,-0.0892 -1.046872,0.2548 -14.337797,0.20633 -20.8561327,-0.0761 -6.906445,-0.29919 -11.8972327,-0.43486 -14.5909633,-0.39663 -1.476592,0.0209 -3.798311,-0.0942 -5.159375,-0.25583 -2.890049,-0.34325 -4.368387,-0.47197 -9.221536,-0.80294 -1.964531,-0.13397 -4.464844,-0.31957 -5.55625,-0.41244 -1.091406,-0.0929 -2.520156,-0.20893 -3.175,-0.25791 -0.654844,-0.049 -1.905,-0.20945 -2.778125,-0.35659 -0.873125,-0.14713 -2.837656,-0.2612 -4.365625,-0.25348 -1.58502,0.008 -3.516714,-0.15674 -4.497916,-0.3836 -1.00298,-0.23189 -2.712299,-0.37396 -4.101042,-0.34086 -2.575054,0.0614 -8.50298,-0.44591 -10.536962,-0.90174 -0.692571,-0.15521 -1.879298,-0.2609 -2.637171,-0.23487 -1.724104,0.0592 -5.976056,-0.25606 -7.72795,-0.57301 -1.627685,-0.29447 -9.942357,-0.61006 -17.727083,-0.67283 -3.201458,-0.0258 -7.219817,-0.0627 -8.929687,-0.0821 l -3.108854,-0.0351 v -2.27899 -2.27899 l 0.8599,0.17149 c 0.472939,0.0943 4.61036,0.27976 9.194266,0.41209 7.379768,0.21303 11.748603,0.43522 18.123958,0.92173 1.018646,0.0777 3.459427,0.25925 5.423959,0.40337 3.141786,0.23048 7.941323,0.61626 19.446874,1.56311 1.74625,0.14371 4.952939,0.3322 7.125978,0.41887 2.173036,0.0867 4.435223,0.26237 5.027083,0.39044 0.591857,0.12806 2.385793,0.30522 3.986522,0.39369 8.357947,0.46191 12.535048,0.70653 16.007291,0.9374 2.110052,0.1403 6.7761885,0.32398 10.3691877,0.40818 3.5930019,0.0842 7.1053456,0.19606 7.8052082,0.24859 1.4565841,0.10933 14.4753271,0.43065 22.7037291,0.56035 3.055937,0.0482 15.14078,0.15012 26.855207,0.22656 11.714427,0.0764 21.298958,0.14898 21.298958,0.16121 0,0.12156 13.132906,0.29688 29.104169,0.38853 10.76854,0.0618 19.81729,0.12318 20.10833,0.13641 0.29104,0.0132 8.14917,-0.002 17.4625,-0.0328 9.31333,-0.0313 22.24307,-0.0274 28.73274,0.009 10.38858,0.0576 11.98933,0.0122 13.38763,-0.38017 2.21909,-0.62265 2.67681,-0.4952 3.5942,1.00076 0.67117,1.09442 0.75266,1.42821 0.59899,2.45297 -0.1711,1.14103 -0.97033,2.25818 -1.58273,2.21231 -0.15447,-0.0116 -1.02987,-0.18368 -1.94533,-0.38247 z m -20.29592,-8.36393 c -0.43656,-0.14041 -1.62719,-0.29967 -2.64583,-0.35391 -1.01865,-0.0542 -3.49957,-0.22331 -5.51316,-0.3757 -2.35486,-0.17821 -4.10124,-0.18779 -4.89479,-0.0268 -1.94734,0.39497 -8.93208,0.74213 -10.16768,0.50536 -0.61611,-0.11806 -2.90614,-0.22732 -5.08895,-0.24279 -2.18282,-0.0155 -5.09985,-0.16276 -6.4823,-0.32733 -2.16996,-0.2583 -16.90513,-0.4024 -42.862494,-0.41916 -16.518408,-0.0107 -20.645353,-0.0693 -23.8125,-0.33856 -1.964531,-0.16698 -4.167187,-0.27511 -4.894791,-0.24027 -3.202437,0.15331 -16.69628,-0.0486 -17.894765,-0.26775 -0.541518,-0.099 -1.558756,-0.0913 -2.260532,0.0171 -0.754858,0.11666 -1.406596,0.0912 -1.595845,-0.0624 -0.185126,-0.15024 -0.686723,-0.1737 -1.190625,-0.0557 -0.795448,0.18633 -14.127077,0.15981 -18.200941,-0.0362 -3.328635,-0.16016 -10.7631938,-0.4077 -15.08124926,-0.50214 -2.40109374,-0.0525 -5.25203994,-0.21812 -6.33543454,-0.36802 -1.3726371,-0.18992 -2.1280172,-0.18787 -2.4916632,0.007 -0.3290411,0.1761 -1.409756,0.21568 -2.924982,0.10715 -1.321721,-0.0947 -4.189066,-0.2304 -6.371878,-0.30163 -2.182813,-0.0712 -5.3975,-0.23958 -7.14375,-0.37414 -1.74625,-0.13455 -3.829844,-0.25026 -4.630208,-0.25712 -0.800365,-0.007 -2.348177,-0.12643 -3.439584,-0.26571 -1.091406,-0.13927 -4.067968,-0.32433 -6.614583,-0.41123 -11.589837,-0.39551 -22.804154,-1.02245 -25.915908,-1.44883 -0.953177,-0.13061 -4.828674,-0.23015 -8.612216,-0.22121 -3.783542,0.009 -7.413453,-0.069 -8.066469,-0.1731 -0.653017,-0.10414 -3.867704,-0.22722 -7.14375,-0.2735 -3.638949,-0.0514 -6.36421,-0.20804 -7.004482,-0.40259 -0.644828,-0.19592 -1.637304,-0.25177 -2.579688,-0.14515 l -1.531652,0.17329 v -2.2904 c 0,-2.06567 0.0451,-2.27311 0.45935,-2.11414 0.25265,0.0969 2.782727,0.23119 5.6224,0.29831 7.164467,0.16934 10.912377,0.31093 13.232833,0.49993 2.09269,0.17044 14.412177,0.63415 20.902083,0.78676 2.110052,0.0496 4.967552,0.16387 6.35,0.2539 1.382448,0.09 5.251979,0.28389 8.598958,0.4308 7.882884,0.34601 18.143743,0.9841 21.166666,1.31629 1.309687,0.14392 4.643437,0.37918 7.408333,0.5228 11.6001508,0.60255 16.4302252,0.81784 17.57320404,0.7833 0.66671559,-0.0201 3.71252476,0.0392 6.76846216,0.13181 4.3741838,0.13261 14.3971218,0.20316 15.8749998,0.11175 0.145521,-0.009 2.943489,0.10848 6.217708,0.26107 3.274219,0.15259 13.335,0.3545 22.357291,0.4487 9.022292,0.0942 16.939948,0.22044 17.594792,0.28057 0.654843,0.0601 10.953749,0.17455 22.886457,0.25427 30.611713,0.20451 31.956813,0.20964 35.057293,0.13369 5.82779,-0.14276 37.29289,0.0371 38.86229,0.22214 1.19208,0.14055 1.77022,0.0999 2.09563,-0.1474 0.24715,-0.18783 1.08053,-0.3453 1.85193,-0.34993 1.33733,-0.008 1.41938,0.0319 1.76437,0.85749 0.50313,1.2042 0.19793,3.57612 -0.5211,4.04986 -0.45619,0.30057 -0.7049,0.25932 -1.80374,-0.29919 -0.70099,-0.3563 -1.54183,-0.64782 -1.86852,-0.64782 -0.66365,0 -2.68612,0.90836 -2.9411,1.32096 -0.19992,0.32347 -1.04835,0.30975 -2.11789,-0.0342 z m 4.29953,-6.4681 c -0.36083,-0.36085 -4.28749,-0.70514 -7.47453,-0.65537 -2.32522,0.0363 -3.69674,-0.0565 -4.23333,-0.28652 -0.55025,-0.23586 -2.49822,-0.35366 -6.35,-0.38401 -16.02499,-0.12628 -31.36843,-0.35006 -31.54735,-0.46011 -0.19035,-0.11708 -7.41244,-0.56095 -8.27244,-0.50842 -0.21828,0.0133 -0.99219,0.031 -1.71979,0.0393 -0.72761,0.008 -1.62058,0.0227 -1.98438,0.0321 -2.69342,0.0692 -15.046585,-0.0475 -16.536456,-0.15632 -1.018646,-0.0744 -5.066771,-0.10027 -8.995833,-0.0575 -11.562474,0.12572 -26.787612,0.007 -33.469791,-0.26014 -5.63621,-0.22564 -25.838549,-0.66383 -27.119791,-0.58822 -2.671387,0.15763 -29.040359,-0.2708 -31.749999,-0.51586 -2.580029,-0.23334 -6.251168,-0.44438 -16.404167,-0.943 -1.600729,-0.0786 -4.339166,-0.27229 -6.085416,-0.4304 -1.74625,-0.15811 -3.876268,-0.22421 -4.733369,-0.14688 -0.857105,0.0773 -2.190086,0.008 -2.962185,-0.15387 -1.061474,-0.22265 -2.075527,-0.21236 -4.158245,0.0422 -1.99468,0.24378 -3.039269,0.25994 -3.787095,0.0586 -0.567965,-0.15294 -4.603456,-0.34041 -8.967758,-0.41662 -4.364305,-0.0762 -9.304316,-0.19759 -10.977806,-0.26975 -8.950366,-0.38595 -12.055423,-0.47392 -20.703645,-0.58657 l -9.458854,-0.1232 v -2.35835 c 0,-2.73861 -0.18981,-2.62076 3.119935,-1.93711 1.668215,0.34458 2.472607,0.37123 4.420616,0.14649 2.775642,-0.32023 11.801283,-0.10611 15.213615,0.36092 0.363802,0.0498 2.566458,0.16472 4.894792,0.2554 2.328333,0.0907 5.245364,0.2153 6.482291,0.27694 10.18671,0.50767 20.477385,0.92019 25.796875,1.03411 3.4925,0.0748 7.123906,0.18954 8.069791,0.25498 0.945886,0.0654 4.160573,0.18904 7.14375,0.27467 2.983177,0.0856 6.852708,0.21626 8.598958,0.29029 1.74625,0.074 6.746875,0.25091 11.1124999,0.39306 4.3656249,0.14216 9.5448435,0.31914 11.5093747,0.39329 1.9645312,0.0742 8.9892184,0.19192 15.6104164,0.26172 6.621198,0.0698 13.40776,0.18971 15.08125,0.26647 1.673489,0.0768 8.698176,0.19865 15.610416,0.27086 6.912239,0.0722 15.722864,0.19221 19.579166,0.26669 8.30812,0.16046 21.791334,0.32519 41.407294,0.50591 7.85812,0.0724 16.49015,0.20657 19.18229,0.29817 4.06026,0.13814 15.84758,0.28234 31.35312,0.38353 1.60073,0.0105 4.16058,-0.0198 5.68854,-0.0673 1.52797,-0.0474 3.1478,0.0244 3.59963,0.15969 0.5514,0.16509 1.11279,0.14441 1.70744,-0.0629 1.25053,-0.43593 1.97927,0.29408 1.94384,1.94718 -0.0338,1.5759 -0.42937,1.9873 -1.91101,1.9873 -0.94636,0 -1.36829,0.15174 -1.93704,0.69663 -0.68924,0.66033 -0.79031,0.68072 -1.93968,0.39131 -0.8386,-0.21117 -1.36824,-0.22201 -1.71736,-0.0352 -0.55004,0.29438 -1.68206,0.36239 -1.92858,0.11587 z m 12.06098,-6.4603 c -0.073,-0.0728 -2.23615,-0.163 -4.80703,-0.20053 -2.57087,-0.0375 -7.47228,-0.10942 -10.89202,-0.15976 -3.41974,-0.0503 -6.93208,-0.22254 -7.80521,-0.38269 -2.51586,-0.46144 -5.91159,-0.5864 -16.66875,-0.61339 -5.52979,-0.0139 -11.8401,-0.1407 -14.02291,-0.28183 -2.18282,-0.14114 -9.56469,-0.29851 -16.40417,-0.34973 -11.319152,-0.0848 -25.122232,-0.35018 -27.781249,-0.53419 -0.582083,-0.0403 -10.523802,-0.14663 -22.092708,-0.23633 -11.568906,-0.0897 -23.713281,-0.23217 -26.987499,-0.31661 -3.274219,-0.0844 -6.369844,-0.16045 -6.879167,-0.1689 -1.248727,-0.0207 -11.776969,-0.44273 -14.4197912,-0.57801 -1.1641666,-0.0596 -3.9621353,-0.17644 -6.2177081,-0.25967 -2.2555729,-0.0832 -5.8869791,-0.21943 -8.0697915,-0.30265 -3.9012494,-0.14874 -6.5525362,-0.2107 -21.5282642,-0.50315 -4.127942,-0.0806 -7.612547,-0.21282 -7.743563,-0.29379 -0.131016,-0.081 -2.349548,-0.14218 -4.930068,-0.13602 -5.927273,0.0142 -19.957317,-0.4519 -30.753312,-1.02161 -2.837656,-0.14974 -5.635625,-0.26385 -6.217708,-0.25358 -0.582083,0.0103 -3.141927,-0.11126 -5.688541,-0.27007 -2.546615,-0.15882 -8.053255,-0.29087 -12.236979,-0.29345 l -7.606771,-0.005 v -1.7967 -1.7967 l 7.077604,-0.0563 c 6.258848,-0.0498 21.824796,0.49939 36.18177,1.27642 2.619375,0.14177 7.62,0.32119 11.1125,0.3987 8.825949,0.1959 15.600076,0.38731 19.182291,0.54203 1.67349,0.0723 6.971771,0.19053 11.773958,0.26279 9.9098681,0.14911 18.017831,0.32724 23.8124996,0.52313 2.1828124,0.0738 7.0643744,0.19365 10.8479164,0.26635 9.912191,0.19044 17.317204,0.38299 20.505208,0.53318 1.527969,0.072 8.016875,0.19859 14.419791,0.28134 19.150843,0.2475 23.704714,0.31602 51.461462,0.77432 31.33653,0.51742 33.9488,0.54675 63.88041,0.71744 l 15.85852,0.0904 0.33525,0.78615 c 0.43318,1.01568 0.44318,2.98588 0.0196,3.82331 -0.3248,0.64189 -0.3987,0.65603 -3.45731,0.66146 -1.71897,0.003 -3.18513,-0.054 -3.25813,-0.12675 z m -41.23134,-10.58333 c -0.93369,-0.61836 -1.63423,-0.65135 -3.46714,-0.16328 -1.14079,0.30377 -1.48442,0.30328 -2.21319,-0.003 -0.47449,-0.1995 -1.1039,-0.36274 -1.39867,-0.36274 -0.29478,0 -1.02525,-0.2204 -1.62327,-0.48977 -2.54013,-1.14418 -4.52198,-1.627 -6.67821,-1.62695 -1.64982,4e-5 -2.56096,-0.15414 -3.90864,-0.6614 -2.07813,-0.78221 -3.27845,-0.81824 -8.13623,-0.24426 -3.27355,0.3868 -8.34504,0.48652 -14.114233,0.27752 -3.7319,-0.13519 -15.433883,0.46462 -22.489583,1.15275 -3.587075,0.34984 -10.796095,0.5254 -26.061457,0.63467 -12.230825,0.0876 -31.633244,-0.36315 -32.258098,-0.74933 -0.161125,-0.0996 -4.607327,-0.23599 -9.8804485,-0.30313 -5.27312187,-0.0671 -12.6831193,-0.17214 -16.4666605,-0.23333 -3.783542,-0.0612 -8.546042,-0.0913 -10.583333,-0.067 -5.171909,0.0618 -14.591385,-0.15789 -20.372917,-0.47522 -1.309687,-0.0719 -4.941093,-0.2506 -8.069791,-0.39715 -3.128698,-0.14656 -6.641042,-0.39547 -7.805208,-0.55315 -1.164167,-0.15767 -5.331354,-0.33054 -9.260417,-0.38415 -3.929062,-0.0536 -9.227343,-0.16936 -11.773958,-0.25722 -2.546614,-0.0879 -7.60677,-0.18974 -11.244791,-0.2264 -3.638021,-0.0367 -7.537318,-0.16338 -8.665104,-0.28161 l -2.050521,-0.21495 v -2.21246 c 0,-2.417791 -0.0512,-2.359357 1.719792,-1.962189 0.582083,0.130538 3.79677,0.308251 7.143749,0.394915 9.758946,0.25269 25.221927,0.758614 32.940625,1.077754 7.299486,0.30181 23.808758,0.64313 24.181897,0.49994 0.237099,-0.091 0.578403,-0.0489 0.758449,0.0935 0.180049,0.14239 3.303924,0.34149 6.941945,0.44245 3.63802,0.10096 7.983802,0.22304 9.657291,0.27128 1.67349,0.0482 7.031302,0.16358 11.9062499,0.25631 4.8749478,0.0927 10.8876039,0.22543 13.361458,0.29489 2.4738541,0.0695 9.6771351,0.19253 16.0072911,0.2735 6.330156,0.081 11.67624,0.20246 11.880186,0.26997 0.203943,0.0675 6.633318,0.19239 14.2875,0.27751 11.731016,0.13045 14.685435,0.0858 18.81148,-0.28437 2.692135,-0.24151 6.442604,-0.55585 8.334375,-0.69852 1.89177,-0.14267 5.106458,-0.39142 7.14375,-0.55276 2.037291,-0.16135 7.990416,-0.31832 13.229166,-0.34882 5.238746,-0.0305 10.537026,-0.18505 11.773956,-0.34345 5.89218,-0.75454 9.18586,-0.6388 10.73662,0.3773 0.34436,0.22563 1.61013,0.43273 3.18562,0.52121 1.43782,0.0807 2.97141,0.30943 3.40797,0.50819 0.43656,0.19876 1.35886,0.34846 2.04954,0.33266 0.80253,-0.0184 1.42327,0.12128 1.7198,0.38687 0.6938,0.62142 3.10553,0.96857 5.56008,0.80033 1.86657,-0.12794 2.17995,-0.21781 2.17995,-0.62517 0,-0.26165 -0.11906,-0.54932 -0.26458,-0.63926 -0.54282,-0.33548 -0.28782,-1.61794 0.3943,-1.983 0.57804,-0.30935 0.72835,-0.29049 1.22492,0.15373 1.59582,1.42759 1.99768,4.60068 0.89766,7.08801 -0.74353,1.68125 -1.27052,1.87201 -2.64917,0.95897 z m -28.3196,-11.378554 c -0.2961,-0.112157 -0.69206,-0.389125 -0.87992,-0.615484 -0.18786,-0.226362 -1.13623,-0.682204 -2.10748,-1.012986 -1.57023,-0.534776 -2.23503,-0.597559 -5.99925,-0.566571 -2.328333,0.01918 -6.078801,0.165483 -8.334374,0.325141 -5.33213,0.377433 -10.950408,0.43661 -19.446875,0.20483 -3.783541,-0.103211 -11.641666,-0.255574 -17.462499,-0.338582 -5.820834,-0.08301 -11.893021,-0.197959 -13.49375,-0.255445 -1.600729,-0.05749 -8.015838,-0.170241 -14.255797,-0.250568 -6.239963,-0.08032 -11.447262,-0.20901 -11.571777,-0.285964 -0.124516,-0.07695 -3.710657,-0.204336 -7.9691998,-0.283065 -4.2585454,-0.07873 -8.75484,-0.184033 -9.9917671,-0.234003 -2.5057972,-0.101232 -6.3129714,-0.217638 -21.0343741,-0.643136 -5.529792,-0.159829 -11.542448,-0.348228 -13.361458,-0.418663 -1.819011,-0.07044 -5.212292,-0.188664 -7.540625,-0.262731 -2.328334,-0.07407 -4.769115,-0.199081 -5.423958,-0.277802 -2.183276,-0.262459 -7.790773,-0.666435 -8.908923,-0.641819 -0.607042,0.01336 -2.333448,-0.09642 -3.836459,-0.243959 -3.412561,-0.334994 -11.533086,-0.565081 -24.031701,-0.680915 -9.028229,-0.08367 -12.981485,-0.241401 -14.089063,-0.562137 -0.38774,-0.112281 -0.46302,-0.455766 -0.46302,-2.112631 v -1.978549 l 1.12448,0.153389 c 0.618463,0.08436 5.708384,0.265232 11.310936,0.401929 14.84249,0.362143 20.765664,0.532019 23.151042,0.663972 2.935962,0.162411 6.866858,0.330917 18.520832,0.793935 5.529792,0.219699 12.256823,0.517459 14.948958,0.661686 2.692136,0.144224 6.740261,0.327416 8.995834,0.407093 2.255572,0.07968 6.720416,0.263644 9.921874,0.408821 3.201459,0.145177 8.797396,0.308594 12.43541675,0.363148 3.63802075,0.05456 8.28145815,0.167717 10.31874975,0.251466 2.0372915,0.08375 8.9429165,0.219355 15.3458335,0.301349 6.402916,0.08199 13.368072,0.197044 15.478124,0.255667 6.042134,0.167868 14.050965,0.358688 22.092708,0.526386 4.074583,0.08497 9.134739,0.203901 11.244791,0.264293 5.843273,0.167243 14.230382,0.175326 16.007292,0.01542 8.78301,-0.790342 12.870749,-0.869183 16.011209,-0.308811 1.09357,0.195133 2.6089,0.295153 3.36741,0.222271 1.3059,-0.125481 1.39348,-0.09473 1.64973,0.579249 0.43142,1.134727 0.31641,2.989879 -0.25478,4.10949 -0.62674,1.228511 -0.76671,1.329979 -1.46817,1.064276 z M 61.50337,89.138432 c -0.816923,-0.575141 -4.864492,-0.729795 -7.593206,-0.290132 -1.505937,0.242644 -2.166675,0.238998 -3.020015,-0.01667 -0.66398,-0.198935 -3.383806,-0.370279 -6.935851,-0.436952 -3.213938,-0.06032 -7.093682,-0.160271 -8.621651,-0.222102 -1.527969,-0.06183 -6.469062,-0.189476 -10.980208,-0.283654 -4.511146,-0.09418 -9.868958,-0.281829 -11.90625,-0.416999 -6.054058,-0.401675 -14.5540223,-0.725959 -23.283333,-0.888286 -4.511145,-0.08389 -11.476302,-0.328612 -15.478124,-0.54383 -10.575793,-0.568772 -19.130669,-0.937292 -21.640115,-0.932201 -1.206283,0.0024 -3.289876,-0.107765 -4.630208,-0.244914 -1.340334,-0.137152 -4.580093,-0.317601 -7.199468,-0.400997 -2.619375,-0.0834 -7.560469,-0.258099 -10.980208,-0.388229 -3.41974,-0.130127 -6.455834,-0.236254 -6.746875,-0.235833 -4.151916,0.006 -16.554587,-0.388808 -19.645312,-0.625335 l -4.034896,-0.308785 v -2.006227 -2.006227 l 1.653646,0.04838 c 0.909505,0.02661 4.689739,0.10872 8.40052,0.182465 3.710782,0.07374 7.818438,0.200093 9.128125,0.280778 1.309688,0.08068 5.060156,0.214191 8.334375,0.296685 5.656247,0.142513 9.917604,0.300316 24.473958,0.906301 3.4925,0.145397 9.505156,0.386017 13.361458,0.534715 3.856302,0.148699 8.380677,0.333431 10.054166,0.410512 1.67349,0.07708 6.019271,0.256609 9.657292,0.398944 3.638021,0.142335 7.5670829,0.308949 8.7312496,0.370253 3.9684271,0.208973 10.3076743,0.414438 20.7697914,0.673184 11.013688,0.272386 21.459216,0.556694 25.003124,0.680532 1.164167,0.04068 8.307917,0.146588 15.875,0.235342 l 13.758333,0.161375 0.464333,0.586912 c 0.539869,0.682387 0.409705,2.235885 -0.287613,3.432616 -0.410273,0.704107 -0.48021,0.723366 -2.044887,0.56306 -1.540566,-0.157837 -1.991937,-0.05707 -3.843401,0.858023 -0.08543,0.04222 -0.442614,-0.125497 -0.79375,-0.372708 z M 40.499951,79.302205 C 38.732712,78.129919 38.351006,78.109517 12.843064,77.823894 7.8225955,77.767675 2.8219706,77.602877 1.7305644,77.457673 -0.22572772,77.1974 -4.7605193,76.951978 -11.234019,76.756035 c -1.81901,-0.05506 -4.557447,-0.163486 -6.085416,-0.24095 -1.527969,-0.07747 -4.087813,-0.204875 -5.688542,-0.283131 -1.600729,-0.07826 -6.244166,-0.193064 -10.31875,-0.255127 -8.459903,-0.12886 -12.777485,-0.293881 -16.933332,-0.647203 -1.60073,-0.136091 -5.053542,-0.310994 -7.672917,-0.388673 -2.619375,-0.07768 -7.084219,-0.263464 -9.921875,-0.412858 -6.084154,-0.32031 -9.879284,-0.469866 -17.065624,-0.672513 -2.910417,-0.08207 -7.137136,-0.268496 -9.392708,-0.414279 -2.255573,-0.145783 -4.72612,-0.269256 -5.490105,-0.274386 l -1.389062,-0.0093 v -1.960264 -1.960263 l 0.7276,0.0072 c 0.40019,0.004 2.513546,0.128641 4.696358,0.277059 2.182813,0.14842 5.457031,0.258487 7.276042,0.244591 3.083776,-0.02355 20.956489,0.624613 25.399999,0.921155 1.091406,0.07283 5.020469,0.250055 8.73125,0.393819 3.710781,0.143767 7.520781,0.320733 8.466666,0.393258 0.945886,0.07253 4.458229,0.197422 7.805209,0.277543 3.346979,0.08012 7.395104,0.217725 8.995833,0.305784 1.600729,0.08806 4.279635,0.193736 5.953125,0.234841 1.673489,0.0411 7.626614,0.201856 13.229166,0.357225 5.6025519,0.155369 14.948958,0.343593 20.769791,0.418277 5.820833,0.07468 14.836653,0.20687 20.035155,0.293751 8.541776,0.142753 9.566624,0.11412 10.64416,-0.297394 1.108536,-0.423355 1.238944,-0.424823 1.855431,-0.02088 0.364701,0.238961 0.847886,0.716508 1.073748,1.061215 0.398772,0.6086 0.523314,0.628004 4.303164,0.670486 2.140879,0.02405 4.48782,0.09011 5.215425,0.146785 0.727604,0.05667 2.439894,-0.01844 3.805091,-0.166923 2.949813,-0.32082 3.360479,-0.126047 3.06419,1.453312 -0.251521,1.340715 -1.372309,2.534634 -2.646272,2.818942 -1.804728,0.402754 -10.462665,0.796962 -12.160509,0.553683 -0.873125,-0.125106 -1.66864,-0.179922 -1.767814,-0.121809 -0.09917,0.05811 -0.813546,0.163896 -1.5875,0.235074 -1.108075,0.10191 -1.57422,0.01863 -2.193007,-0.391848 z M 53.604634,69.591023 C 52.716576,69.204097 47.671258,68.66554 47.068296,68.893309 46.796971,68.995801 37.113359,68.531097 34.80348,68.304736 34.294157,68.254822 26.555095,68.150322 17.605564,68.072511 8.656033,67.9947 0.08353315,67.871909 -1.4444356,67.799646 c -1.5279687,-0.07227 -4.2068749,-0.197932 -5.9531248,-0.27926 -3.6631036,-0.170603 -16.2648126,-0.523509 -38.6291656,-1.081794 -3.783542,-0.09445 -7.772135,-0.225491 -8.863542,-0.291203 -1.091406,-0.06571 -3.770312,-0.16348 -5.953125,-0.217265 -2.182812,-0.05378 -5.218906,-0.225388 -6.746874,-0.381344 -2.402772,-0.245245 -10.769564,-0.788133 -18.653125,-1.210331 -4.311298,-0.230886 -11.622002,-0.478422 -12.7,-0.430014 -2.161268,0.09706 -2.248958,0.0095 -2.248958,-2.244672 v -2.006965 l 3.638021,0.221311 c 2.000911,0.121721 4.471458,0.209814 5.490104,0.195767 1.018646,-0.01405 4.769114,0.133581 8.334375,0.328068 3.56526,0.194487 8.863541,0.430101 11.773958,0.523584 2.910416,0.09349 5.359786,0.209825 5.443045,0.258532 0.08326,0.04871 2.464509,0.160613 5.291666,0.248674 2.827158,0.08806 6.15232,0.269378 7.389247,0.402929 1.236927,0.133551 6.118489,0.311264 10.847916,0.394914 4.729427,0.08365 8.896614,0.204949 9.260416,0.269547 1.814455,0.322183 21.518899,0.865251 37.8354163,1.042773 6.3301557,0.06887 13.4739057,0.192384 15.8749997,0.274471 4.268782,0.145939 23.857754,0.441365 29.897916,0.450895 1.673489,0.0026 3.525406,-0.07921 4.115369,-0.181882 1.026885,-0.178721 1.102431,-0.14337 1.770234,0.828349 0.681165,0.991158 0.689848,1.055635 0.369165,2.740869 -0.49113,2.580947 -0.695372,2.73689 -2.534864,1.935424 z M 17.38406,59.964159 c -1.144746,-0.696161 -5.331484,-0.864992 -11.1555791,-0.44985 -5.62234277,0.400762 -7.4412923,0.400701 -8.9958331,-2.64e-4 -1.2234518,-0.31559 -5.4894479,-0.523849 -15.2135418,-0.742699 -3.055937,-0.06878 -8.116093,-0.232487 -11.244791,-0.363797 -3.128698,-0.131313 -8.48651,-0.24707 -11.90625,-0.257236 -3.419739,-0.01016 -7.825052,-0.07867 -9.789583,-0.152217 -1.964531,-0.07355 -5.893593,-0.198107 -8.73125,-0.276786 -2.837656,-0.07868 -7.004843,-0.266504 -9.260416,-0.417388 -2.255573,-0.150884 -9.042135,-0.318535 -15.08125,-0.372555 -6.039114,-0.05402 -12.379192,-0.180131 -14.089062,-0.280246 l -3.108854,-0.182055 v -2.088679 -2.088679 l 2.711979,0.167304 c 1.491589,0.09201 6.462448,0.197819 11.046354,0.235117 9.580808,0.07796 19.588678,0.304109 29.633333,0.669639 3.856302,0.140335 10.523802,0.318371 14.816666,0.395637 4.292865,0.07727 10.662708,0.254725 14.155208,0.394351 3.4925,0.139628 14.089062,0.331213 23.5479162,0.425743 9.4588539,0.09453 17.3765098,0.175813 17.5947908,0.180629 0.218282,0.0048 1.843397,-0.08424 3.61137,-0.197895 3.160175,-0.203161 3.219862,-0.19662 3.532187,0.386963 0.452782,0.846029 0.395822,3.477395 -0.09585,4.428191 -0.546436,1.056691 -0.988928,1.187985 -1.977541,0.586772 z M -24.880324,49.151766 c -0.199536,-0.198099 -5.103019,-0.684753 -9.504736,-0.943311 -1.455208,-0.08548 -3.598333,-0.237358 -4.7625,-0.337508 -1.164166,-0.100148 -2.890573,-0.154853 -3.836458,-0.121566 -3.993549,0.140544 -5.277043,0.132353 -7.408333,-0.04728 -1.236927,-0.104254 -5.64224,-0.23158 -9.789583,-0.282946 -4.147344,-0.05137 -9.2075,-0.233323 -11.244792,-0.404349 -3.467507,-0.29109 -14.908,-0.451329 -16.668749,-0.233466 -0.897877,0.111096 -9.587471,-0.238911 -11.707813,-0.471577 l -1.389062,-0.152424 v -2.120263 -2.120264 l 2.711979,0.206562 c 1.491589,0.113607 8.01026,0.229421 14.485937,0.257358 10.852362,0.04682 17.548884,0.188801 25.4,0.538546 1.673489,0.07455 6.912239,0.189688 11.641666,0.255865 4.729427,0.06618 11.283191,0.194459 14.563918,0.285073 5.091888,0.140637 6.111123,0.103677 6.963576,-0.2525 0.888257,-0.371136 1.06516,-0.373652 1.6007,-0.02275 0.378254,0.247841 1.182931,0.384117 2.164546,0.366575 0.859359,-0.01535 3.169812,0.01733 5.134343,0.07263 1.964531,0.0553 4.084923,-0.0044 4.711983,-0.132619 1.806347,-0.369427 2.2774378,-0.130895 2.6556067,1.344644 0.3509831,1.369459 0.2985532,1.680019 -0.5821044,3.448037 l -0.5677773,1.13986 -1.852083,-0.112493 c -1.018646,-0.06187 -2.742719,-0.24757 -3.831275,-0.412668 -1.52685,-0.231571 -2.19202,-0.226078 -2.910417,0.02402 -0.852644,0.296849 -5.722316,0.483211 -5.978572,0.228798 z m -22.908252,-9.411113 c -0.208804,-0.211915 -3.124716,-0.351586 -10.93815,-0.523939 -3.201458,-0.07062 -7.070989,-0.187658 -8.598958,-0.260085 -1.527969,-0.07243 -5.926447,-0.202015 -9.774394,-0.287972 -3.847948,-0.08596 -7.572136,-0.265499 -8.275974,-0.398982 -0.929074,-0.176193 -1.672805,-0.1403 -2.714406,0.131001 -0.96573,0.251542 -1.719951,0.298749 -2.307358,0.14442 -0.913067,-0.23989 -6.307748,-0.799991 -7.222659,-0.749892 -0.291042,0.01593 -1.213776,0.01265 -2.050521,-0.0073 l -1.521354,-0.03626 v -2.50384 -2.503837 l 3.108854,0.147257 c 1.70987,0.08099 3.763698,0.235418 4.564062,0.34317 0.800365,0.107751 2.645834,0.126415 4.101042,0.04148 1.455208,-0.08494 4.788958,-0.07805 7.408333,0.01532 4.314761,0.153795 18.239229,0.297657 29.501041,0.304795 2.401094,0.0016 5.142519,-0.08587 6.092055,-0.194194 1.481638,-0.169034 1.813653,-0.126336 2.341563,0.301141 0.524713,0.424887 0.615132,0.740505 0.615132,2.147179 0,1.779259 -0.385112,2.645248 -1.50173,3.376885 -0.706332,0.462806 -2.547083,0.797319 -2.826578,0.513662 z M -47.349643,29.2416 c -2.037291,-0.100711 -7.736356,-0.252735 -12.66459,-0.33783 -4.928233,-0.0851 -9.052184,-0.211434 -9.164339,-0.28075 -0.112151,-0.06931 -5.247775,-0.192394 -11.412492,-0.273513 -6.164718,-0.08112 -12.245559,-0.270486 -13.512981,-0.420822 -1.267421,-0.150334 -2.63664,-0.251241 -3.042708,-0.224237 -0.406068,0.02701 -1.482446,0.03648 -2.391951,0.02106 l -1.653646,-0.02803 v -2.778125 -2.778125 l 1.918229,0.0082 c 1.055026,0.0045 2.811198,0.126603 3.902604,0.271356 2.470216,0.327629 24.615031,0.78167 28.178125,0.577745 0.436562,-0.02498 3.532187,0.02 6.879166,0.09997 3.346979,0.07997 7.276042,0.139219 8.73125,0.131662 1.455208,-0.0076 3.479271,-0.0029 4.497916,0.01037 1.018646,0.01326 2.328334,0.0069 2.910417,-0.01408 4.326596,-0.156205 4.765527,0.03705 5.038037,2.218142 0.200549,1.60513 -0.104823,2.690427 -0.979805,3.482277 -0.604573,0.547129 -1.629955,0.591748 -7.233232,0.314756 z m -23.547916,-8.826981 c -1.209265,-0.434721 -1.520931,-0.45538 -6.746875,-0.447191 -10.28991,0.01612 -21.164232,-0.143513 -22.291145,-0.327231 l -1.256771,-0.204888 v -2.636851 -2.636851 l 1.785937,0.219499 c 0.982266,0.120721 3.869532,0.192558 6.416146,0.159633 2.546615,-0.03292 8.250568,-0.06982 12.675452,-0.08199 7.414868,-0.0204 8.124084,-0.06235 9.051438,-0.535453 1.479005,-0.754531 2.436386,-0.669422 3.242188,0.288219 1.266425,1.505061 1.150609,3.951843 -0.267843,5.658466 -0.853075,1.026385 -1.115838,1.081249 -2.608527,0.544637 z M 119.33802,-16.053679 c -0.31182,-0.475896 -0.41704,-1.188614 -0.38321,-2.595663 0.13031,-5.42017 -0.0235,-9.427358 -0.3669,-9.559134 -0.38641,-0.14828 -4.86607,0.01119 -6.15129,0.218993 -0.537,0.08682 -1.14083,0.51494 -1.76677,1.252659 -0.52302,0.616418 -1.80587,2.125512 -2.85077,3.353541 -1.0449,1.228032 -2.35248,2.845522 -2.90572,3.594423 -1.48471,2.009777 -2.52532,2.808983 -3.38899,2.60282 -1.32329,-0.315878 -1.633391,-0.604438 -1.633391,-1.519905 0,-0.699439 0.280571,-1.165169 1.389061,-2.305796 2.52744,-2.6007 6.1544,-7.151967 6.06032,-7.60476 -0.0502,-0.24153 -0.10971,-0.79617 -0.13229,-1.232534 -0.0374,-0.722376 0.0537,-0.813457 1.01728,-1.017617 0.58209,-0.123325 1.29646,-0.276595 1.5875,-0.340598 0.29105,-0.06401 1.89839,-1.7271 3.57188,-3.695769 1.67349,-1.968669 3.22547,-3.780094 3.44884,-4.025389 0.22337,-0.245295 0.58903,-0.709965 0.81257,-1.032603 1.48147,-2.138233 4.08461,-2.865375 5.43251,-1.517476 0.74416,0.744163 0.72553,-0.02795 0.21035,8.718672 l -0.14026,2.38125 1.93101,0.926042 c 2.09279,1.00362 2.46749,1.575059 1.46394,2.23261 -0.53473,0.350364 -0.86325,0.367442 -2.13916,0.111204 -0.82908,-0.166502 -1.57288,-0.23726 -1.6529,-0.157239 -0.08,0.08002 -0.14406,2.150856 -0.1423,4.601855 0.003,4.344361 -0.0148,4.489609 -0.71268,5.779278 -0.86405,1.596734 -1.84764,1.916237 -2.55863,0.831136 z m 0.25835,-17.036865 c 0.41058,-4.355769 0.38233,-4.414099 -1.2507,-2.582947 -2.18532,2.450433 -3.37412,4.015428 -3.19003,4.199512 0.0931,0.09315 1.09255,0.169373 2.22088,0.169373 h 2.05151 z m -143.66268,16.6844 c -1.015188,-0.232905 -4.504984,-1.486866 -5.423958,-1.948947 -2.388098,-1.200793 -4.224248,-4.827432 -4.230471,-8.355743 -0.0038,-2.16526 1.172366,-8.105163 2.105382,-10.632495 1.198772,-3.247195 1.453447,-3.875001 1.62891,-4.015444 0.0909,-0.07276 0.391494,-0.54901 0.667975,-1.058333 0.677559,-1.248162 1.445718,-2.405409 2.008907,-3.026453 0.255821,-0.282101 0.46513,-0.587895 0.46513,-0.679542 0,-0.09165 0.419375,-0.634743 0.931944,-1.20688 0.51257,-0.572138 1.197179,-1.424749 1.521355,-1.894692 0.581906,-0.843562 1.521113,-1.39282 2.654003,-1.552086 0.319683,-0.04494 1.20528,-0.188523 1.968,-0.319069 1.092732,-0.18703 1.674548,-0.139929 2.744102,0.222151 1.813814,0.614037 2.231946,1.363024 1.518071,2.719277 -0.458552,0.871174 -0.727731,0.95735 -2.479429,0.793774 -2.60341,-0.24311 -3.69561,0.500111 -6.292694,4.282062 -3.759782,5.475104 -5.60792,10.659964 -5.8411,16.38692 -0.06564,1.612205 0.02421,2.027301 0.740624,3.421021 l 0.815332,1.586179 3.042709,1.162619 c 1.673489,0.63944 3.459427,1.257956 3.96875,1.374479 1.569323,0.359031 1.852083,0.558689 1.852083,1.30775 0,1.260444 -2.105837,1.951895 -4.365625,1.433452 z m 45.857974,-1.093944 -1.085075,-1.012147 0.277889,-2.625873 c 0.15284,-1.444231 0.479761,-3.161655 0.726493,-3.816498 0.246732,-0.654844 0.50854,-1.577578 0.581795,-2.050521 0.07325,-0.472943 0.232937,-0.859896 0.354849,-0.859896 0.235942,0 2.117383,-5.573903 2.744062,-8.129479 0.206058,-0.840298 0.552334,-2.180775 0.769501,-2.978843 0.21717,-0.798067 0.331486,-1.553561 0.254037,-1.678875 -0.07745,-0.125314 -0.01537,-0.484381 0.13793,-0.797927 0.963306,-1.970135 1.108012,-3.928756 0.464159,-6.2825 -0.153824,-0.562326 -0.05878,-0.769653 0.529534,-1.155132 0.623401,-0.408468 0.858914,-0.42769 1.804011,-0.147238 1.628516,0.483249 1.748719,0.663287 1.746213,2.615412 -0.0034,2.615507 -3.025103,14.974076 -4.666088,19.083749 -1.359466,3.404634 -2.020454,6.389153 -1.483223,6.697098 0.354066,0.202954 5.472817,-0.487293 6.066438,-0.818038 0.82187,-0.45792 3.112921,-0.50977 3.628216,-0.08212 0.893037,0.741156 0.314806,2.094486 -1.07569,2.517616 -0.316421,0.09629 -0.988238,0.455287 -1.492925,0.797779 -1.083683,0.735405 -1.652188,0.864741 -4.810935,1.094489 -1.309687,0.09526 -2.581782,0.278471 -2.826877,0.407141 -0.843555,0.442852 -1.561922,0.231442 -2.644314,-0.778201 z m 67.650681,-0.112331 c -0.230545,-0.327422 -0.742119,-1.086816 -1.13683,-1.687544 -0.394713,-0.600729 -1.039437,-1.493697 -1.432719,-1.984375 -0.884615,-1.103694 -1.80845,-2.321438 -3.518275,-4.637588 -0.727604,-0.98562 -2.067057,-2.539407 -2.976563,-3.45286 -1.37587,-1.381842 -1.653645,-1.811305 -1.653645,-2.556674 0,-1.158639 0.49481,-1.540833 2.191591,-1.692791 1.485268,-0.133014 2.835492,-1.059367 2.835492,-1.945359 0,-0.254011 0.208359,-0.528585 0.463021,-0.610164 0.993664,-0.318315 3.209697,-4.61565 3.234639,-6.272619 0.01365,-0.906048 -2.255308,-0.862993 -5.28516,0.10029 -2.122945,0.674949 -3.451397,1.49099 -4.354301,2.674756 -0.624864,0.819241 -0.728837,1.303479 -1.067326,4.970929 -0.206262,2.234798 -0.509212,5.49202 -0.673222,7.23827 -0.22655,2.412122 -0.222491,3.662497 0.01688,5.203894 0.1733,1.115893 0.242737,2.145966 0.154303,2.289053 -0.08843,0.143087 -0.504643,0.380026 -0.924915,0.526531 -1.105183,0.385271 -2.195615,-0.344897 -2.67236,-1.789445 -0.321186,-0.973204 -0.308332,-1.924098 0.09795,-7.246983 0.430765,-5.643655 1.402347,-14.730815 1.595659,-14.924128 0.04521,-0.04521 0.765789,-0.19346 1.601282,-0.32944 0.835494,-0.13598 1.655411,-0.353628 1.82204,-0.483661 0.16663,-0.130034 1.231226,-0.552507 2.365772,-0.938829 4.419566,-1.504899 8.752012,-1.57373 10.328497,-0.164094 0.762619,0.681907 0.837118,0.888249 0.829604,2.297783 -0.0066,1.229975 -0.21176,1.977125 -0.997344,3.631344 -1.217798,2.564337 -2.927467,5.123217 -4.678537,7.002423 -0.730028,0.783447 -1.31862,1.557353 -1.307984,1.719792 0.02648,0.404444 0.593717,1.279075 2.758787,4.253825 3.352622,4.606419 4.637613,7.224934 4.268065,8.697333 -0.226992,0.904409 -1.281798,0.966165 -1.884408,0.110331 z m -37.632422,-0.313367 c -1.646669,-0.337881 -1.992826,-0.52329 -3.188914,-1.708055 -0.621851,-0.615963 -0.630854,-0.68457 -0.34725,-2.645833 0.160134,-1.107411 0.350655,-2.727849 0.423378,-3.600974 0.07273,-0.873125 0.246515,-2.123281 0.386199,-2.778125 0.526399,-2.467761 0.841716,-5.390652 0.676524,-6.271194 -0.108985,-0.580943 -0.04957,-1.059241 0.163459,-1.315929 0.318075,-0.383257 1.252914,-4.180651 1.880227,-7.637648 0.435182,-2.398192 0.795896,-2.584958 4.049276,-2.096575 1.42162,0.213407 3.095548,0.388013 3.719843,0.388013 1.465729,0 2.45585,0.461569 2.650067,1.235393 0.203877,0.812305 -0.0021,1.290122 -0.774517,1.796192 -0.559954,0.366894 -0.838073,0.374182 -2.331675,0.0611 -2.319594,-0.486228 -3.528327,-0.318986 -3.920842,0.542491 -0.351504,0.771468 -1.077635,4.064834 -1.077635,4.887614 0,0.522023 0.09987,0.542319 1.918229,0.389829 2.569237,-0.21546 6.505718,0.363334 6.991747,1.028018 0.196665,0.268954 0.31741,0.612886 0.268325,0.764291 -0.181044,0.558414 -1.600452,0.989005 -3.18411,0.96593 -0.895712,-0.01304 -2.772063,0.111144 -4.169672,0.275992 l -2.541108,0.29972 -0.337188,3.070987 c -0.185454,1.689042 -0.500451,3.963956 -0.699995,5.055362 -0.535432,2.928567 -0.487701,3.669813 0.254471,3.951986 1.031565,0.3922 5.423601,0.647613 5.79768,0.337159 0.483994,-0.401683 1.991293,-0.229532 2.507173,0.286348 0.580302,0.580302 0.226203,1.64035 -0.804683,2.408938 -0.643093,0.479465 -1.154099,0.562449 -3.704166,0.601525 -1.626989,0.02492 -3.699169,-0.106714 -4.604843,-0.292552 z m -129.162243,-1.04639 c -0.584199,-0.62185 -0.594034,-0.74694 -0.603503,-7.674959 -0.01127,-8.242194 0.568041,-7.28684 -4.482166,-7.391718 -2.63084,-0.05463 -3.485969,-0.166052 -4.034896,-0.525722 -0.383102,-0.251018 -0.696549,-0.572714 -0.696549,-0.71488 0,-0.443733 -0.514006,-0.283593 -0.994777,0.309925 -0.527595,0.651322 -2.284107,2.571626 -3.594342,3.929507 -0.491452,0.509323 -0.965899,1.134401 -1.054327,1.389063 -0.08843,0.254661 -0.288775,0.46302 -0.445214,0.46302 -0.156439,0 -0.605443,0.297657 -0.997788,0.661459 -0.392344,0.363802 -0.863397,0.661458 -1.046785,0.661458 -0.183388,0 -0.333433,0.119062 -0.333433,0.264583 0,0.145521 -0.304368,0.264584 -0.676373,0.264584 -0.75825,0 -2.234044,-1.422339 -2.234044,-2.153124 0,-0.246232 0.610866,-0.934074 1.357479,-1.528535 0.746613,-0.594463 1.27389,-1.080841 1.171726,-1.080841 -0.102164,0 -0.0072,-0.178594 0.211123,-0.396875 0.218281,-0.218282 0.463377,-0.396875 0.544658,-0.396875 0.08128,0 0.714864,-0.607775 1.407961,-1.350611 0.693098,-0.742836 1.944788,-2.060652 2.781532,-2.928477 0.836745,-0.867828 1.521354,-1.672669 1.521354,-1.788538 0,-0.115867 0.355286,-0.613754 0.789524,-1.106417 0.434238,-0.492662 0.791426,-1.034655 0.79375,-1.204429 0.0023,-0.169775 0.09352,-0.348368 0.202664,-0.396875 0.413175,-0.183634 1.406342,-1.830558 1.253268,-2.078238 -0.08801,-0.142403 0.0256,-0.258915 0.252471,-0.258915 0.226869,0 0.41249,-0.178594 0.41249,-0.396875 0,-0.218281 0.09894,-0.396875 0.219874,-0.396875 0.120931,0 0.388821,-0.320526 0.595313,-0.712279 0.206491,-0.391753 0.689493,-1.058497 1.073338,-1.481652 0.383845,-0.423155 0.919626,-1.232357 1.190625,-1.798227 0.270999,-0.56587 0.582022,-1.03022 0.691162,-1.03189 0.109141,-0.0017 0.198438,-0.181629 0.198438,-0.39991 0,-0.218282 0.148828,-0.397689 0.330729,-0.398683 0.181901,-10e-4 0.611207,-0.413685 0.954013,-0.91709 0.342806,-0.503405 0.848822,-0.986865 1.124479,-1.074355 0.275658,-0.08749 0.501196,-0.307253 0.501196,-0.488361 0,-0.432219 1.429645,-1.478803 2.400351,-1.757198 0.903938,-0.259246 2.712716,0.591161 3.105741,1.460181 0.3076,0.680133 0.126175,7.878162 -0.343455,13.626547 -0.1772,2.168972 -0.160248,2.27093 0.476623,2.866724 0.639659,0.598405 0.646633,0.641887 0.222525,1.38739 -0.240805,0.423293 -0.521716,0.770377 -0.624245,0.771297 -0.102531,7.94e-4 -0.193445,3.409619 -0.202033,7.574886 -0.0154,7.467206 -0.02389,7.58195 -0.60733,8.197511 -0.790045,0.833546 -2.030748,0.834115 -2.813147,0.0013 z m -0.61091,-20.931388 c 0.04294,-1.455209 0.127864,-3.806693 0.188711,-5.225521 0.08996,-2.09773 0.04082,-2.579688 -0.263052,-2.579688 -0.351974,0 -1.723529,1.555172 -1.723529,1.954267 0,0.101489 -0.219082,0.419683 -0.486848,0.707096 -0.267766,0.287413 -0.653358,0.847981 -0.856871,1.245707 -0.203512,0.397727 -1.026228,1.541051 -1.828256,2.540722 -0.802029,0.999671 -1.787451,2.272766 -2.189827,2.829103 l -0.731594,1.011521 2.800769,-0.01027 c 1.540423,-0.0057 2.854293,0.04325 2.919711,0.108667 0.06542,0.06542 0.563039,0.106632 1.105825,0.09159 l 0.986882,-0.02736 z m 74.8497711,20.658727 c -2.762795,-0.747319 -3.8850437,-2.962254 -3.2302847,-6.375482 0.4949402,-2.580114 1.4841035,-6.558008 1.709547,-6.874912 0.2806012,-0.394436 1.0065067,-2.516553 1.2188481,-3.563192 0.1023646,-0.504544 0.2842392,-1.099857 0.4041695,-1.322916 0.2368577,-0.440526 1.2579615,-3.387126 2.60807197,-7.526098 0.78823342,-2.41646 0.82990529,-2.713979 0.53009799,-3.78479 -0.21072475,-0.752635 -0.23474362,-1.252813 -0.06815667,-1.419399 0.56243537,-0.562435 8.87968631,-0.791381 12.17600071,-0.335165 3.920434,0.542595 6.348931,1.956232 5.375526,3.129112 -0.166926,0.201136 -0.563716,0.315202 -0.881756,0.25348 -2.076915,-0.403068 -6.8302845,-0.680568 -9.2321852,-0.538971 -3.180072,0.187472 -3.536688,0.273731 -3.7410098,0.904887 -0.4267306,1.318185 -1.3926185,3.920043 -1.5409386,4.1509 -0.094205,0.146629 -0.2507218,0.690046 -0.347816,1.207593 -0.2783575,1.483773 0.1509131,1.665318 4.1916932,1.772735 3.8195328,0.101536 4.6680484,0.377024 4.6680484,1.515574 0,1.132877 -0.8654622,1.430202 -4.2358225,1.4552 -1.6721216,0.01241 -3.6950622,-0.09092 -4.4954268,-0.229608 -0.8003646,-0.138689 -1.53426317,-0.173527 -1.63088371,-0.07742 -0.0966205,0.09611 -0.41680605,0.889119 -0.71152277,1.762244 -0.29471672,0.873125 -0.91225422,2.659063 -1.37230902,3.96875 -1.5470426,4.404138 -1.9760512,7.632896 -1.1270007,8.481944 0.4543981,0.454398 0.9291929,0.452078 5.3708828,-0.02627 1.4859741,-0.160033 6.6089846,-0.132776 7.2926045,0.0388 0.6899032,0.173154 1.0311582,0.891802 0.7877092,1.658837 -0.251219,0.791525 -2.1084087,1.276038 -6.2282304,1.624848 -6.0275574,0.510331 -6.1464744,0.512702 -7.4898565,0.149326 z m -53.0327651,-0.92918 c -1.091879,-0.790953 -2.203193,-2.109803 -2.579153,-3.060798 -0.115056,-0.291041 -0.475392,-1.779323 -0.800745,-3.307291 -0.700662,-3.290549 -0.778137,-8.746747 -0.146518,-10.31875 0.837572,-2.084597 1.382289,-3.144133 2.652479,-5.159375 0.733766,-1.164167 1.449067,-2.380286 1.589556,-2.702486 0.37859,-0.868257 3.161234,-3.474163 4.376796,-4.098808 0.582083,-0.299117 1.391708,-0.778773 1.799169,-1.065904 0.634238,-0.446936 2.138849,-0.97432 3.971676,-1.39212 1.063408,-0.242407 4.593643,-0.183826 5.268119,0.08742 0.839586,0.337647 1.161841,1.28314 0.800108,2.347523 -0.246277,0.724656 -0.286465,0.737432 -2.076355,0.660086 -2.363346,-0.102127 -5.222269,0.784872 -7.465854,2.31633 -2.068425,1.411894 -3.099369,2.499742 -4.339434,4.578947 -0.541329,0.907644 -1.106876,1.794065 -1.25677,1.969824 -0.149895,0.175759 -0.272534,0.455035 -0.272534,0.620614 0,0.165578 -0.219914,0.61709 -0.488699,1.003355 -0.646816,0.929534 -1.04499,2.148824 -1.373727,4.206632 -0.384469,2.406668 0.550616,8.71189 1.478177,9.967253 0.65107,0.881163 2.821246,0.871577 7.604582,-0.03359 0.925854,-0.175202 1.778326,0.516961 1.578377,1.281565 -0.353631,1.352288 -4.246263,2.869848 -7.36995,2.873208 -1.65935,0.0019 -2.003464,-0.08848 -2.9493,-0.773639 z m 199.801444,-0.370774 c -0.87768,-0.757608 -1.28178,-3.523853 -1.07259,-7.342184 0.10768,-1.965598 0.0614,-2.8921 -0.15538,-3.108855 -0.23362,-0.233621 -0.23397,-0.308776 -10e-4,-0.308776 0.16902,0 0.41867,-0.446485 0.55479,-0.992188 0.45863,-1.838663 1.45077,-8.266059 1.29933,-8.417498 -0.30689,-0.306893 -2.28524,0.444302 -3.87333,1.470733 -0.90183,0.582883 -1.77045,1.059786 -1.93026,1.059786 -0.53733,0 -2.03225,-1.818827 -1.89804,-2.309291 0.30842,-1.127139 4.4662,-3.016092 7.895,-3.58684 3.21865,-0.535766 7.86269,-0.216744 9.39271,0.645229 0.21828,0.122975 0.72429,0.339757 1.12448,0.481739 0.56852,0.201707 0.7276,0.426939 0.7276,1.03014 0,0.993348 -0.33489,1.100682 -2.54552,0.81585 -1.00106,-0.128982 -2.57227,-0.238409 -3.49158,-0.24317 -1.49492,-0.0077 -1.65541,0.04196 -1.51939,0.470515 0.0836,0.263545 -0.0782,1.379636 -0.3597,2.480203 -0.28147,1.100566 -0.64754,2.998298 -0.81347,4.217183 -0.16593,1.218883 -0.48244,2.97859 -0.70336,3.91046 -0.25555,1.078005 -0.40613,3.050966 -0.41395,5.423958 -0.007,2.051307 -0.11191,3.923136 -0.23366,4.159621 -0.36575,0.710424 -1.25112,0.774469 -1.98221,0.143385 z m 24.63055,-3.046285 c -1.91365,-1.203958 -2.45002,-2.548663 -1.87455,-4.699595 0.39098,-1.461262 1.46812,-4.122979 2.41914,-5.977824 0.44519,-0.868286 0.59039,-1.481553 0.48067,-2.030167 -0.12589,-0.629382 -0.0392,-0.856051 0.43476,-1.137152 0.3256,-0.193096 0.88869,-1.005928 1.25135,-1.806292 0.59124,-1.304846 0.77041,-2.080982 1.29738,-5.61961 0.12999,-0.872861 0.26096,-1.018454 1.11199,-1.23606 0.53057,-0.135662 2.69108,-0.390427 4.80113,-0.566143 2.11006,-0.175716 4.6699,-0.500587 5.68855,-0.721935 2.34386,-0.509311 4.6523,-0.566751 5.11254,-0.127212 1.45293,1.387561 -2.67063,3.185382 -8.68442,3.786303 -3.4957,0.349304 -4.23333,0.570945 -4.23333,1.272011 0,0.276577 -0.31113,1.182445 -0.69139,2.013042 -0.38025,0.830596 -0.58861,1.603588 -0.46302,1.717761 0.1256,0.114173 1.12133,0.133594 2.21274,0.04315 1.77922,-0.147437 5.51799,0.156014 7.62553,0.618908 1.19229,0.261868 1.79128,1.044191 1.42129,1.856263 -0.40317,0.884844 -1.21338,1.032923 -3.63942,0.665174 -2.19602,-0.332881 -7.28576,-0.1606 -8.75517,0.296351 -0.53375,0.165984 -0.89001,0.481603 -0.98907,0.876245 -0.0851,0.339249 -0.63971,1.641967 -1.23235,2.894928 -1.34038,2.833788 -1.58559,4.074927 -0.90358,4.573619 0.86763,0.634431 3.1522,0.417875 6.47277,-0.613556 2.07661,-0.645035 4.12292,-0.749948 4.88524,-0.250462 0.76528,0.50143 0.8917,1.502439 0.25633,2.029738 -0.36748,0.304998 -4.19166,1.418238 -7.12594,2.074407 -0.58209,0.130167 -2.18943,0.311102 -3.57188,0.402077 -2.18702,0.143922 -2.61665,0.100539 -3.30729,-0.333973 z"
       id="path220" />
  </g>
</svg>
