<?xml version="1.0" encoding="UTF-8" standalone="no"?>
<!-- Created with Inkscape (http://www.inkscape.org/) -->

<svg
   width="814.9043mm"
   height="243.07043mm"
   viewBox="0 0 814.9043 243.07043"
   version="1.1"
   id="svg5"
   xmlns="http://www.w3.org/2000/svg"
   xmlns:svg="http://www.w3.org/2000/svg">
  <defs
     id="defs2" />
  <g
     id="layer1"
     transform="translate(322.56425,-24.697866)">
    <path
       style="fill:#efe;stroke-width:0.264583"
       d="m 235.76653,124.4024 c -0.11634,-0.81437 -1.72356,-1.156 -1.72356,-1.79553 0.86272,-4.13145 0.77132,-2.13422 2.39262,-5.70437 0.62902,-1.38548 1.44231,-2.99635 1.80725,-3.57972 0.36495,-0.58335 0.91673,-1.68288 1.22617,-2.44338 0.30942,-0.76051 0.9752,-1.86969 1.47945,-2.46487 0.50427,-0.59519 1.09792,-1.40485 1.31925,-1.79925 0.22131,-0.3944 0.77357,-1.15951 1.01791,-1.79908 l 0.61553,-1.08198 1.33499,0.34628 c 1.19019,0.30872 2.57143,1.12936 3.61967,2.15056 0.19877,0.19365 1.01714,0.77155 1.81857,1.28421 1.3388,0.8564 1.49466,0.89828 1.91809,0.51506 0.2535,-0.22942 0.60031,-0.86266 0.7707,-1.4072 0.32403,-1.03552 2.72339,-4.23297 3.35963,-4.4771 0.49851,-0.19132 3.78726,1.42186 4.83879,2.37347 0.26155,0.23672 0.88882,0.60837 1.39394,0.82589 0.50511,0.21751 1.62071,0.86838 2.4791,1.44636 0.85841,0.57797 1.72406,0.98818 1.92371,0.91158 0.19964,-0.0766 1.03514,-1.34937 1.85667,-2.82835 2.06247,-3.71298 2.5023,-4.14748 4.1982,-4.14748 1.62222,0 2.73329,0.55258 5.59828,2.78423 3.30561,2.57484 2.9618,2.40601 3.63139,1.78312 0.72167,-0.67132 1.8287,-0.88782 5.16608,-1.01038 4.32043,-0.15865 5.02544,-0.34464 5.25762,-1.38705 1.26971,-5.700629 2.2155,-8.358918 3.31921,-9.329343 0.29526,-0.259618 0.50291,-0.968189 0.59786,-2.040346 0.0801,-0.903448 0.26345,-1.858038 0.40758,-2.121314 0.14415,-0.263287 0.33009,-0.907076 0.41321,-1.430662 0.0831,-0.523566 0.4476,-1.230474 0.80997,-1.570919 0.37285,-0.350247 0.65885,-0.917148 0.65885,-1.305849 0,-0.377807 0.23866,-1.132168 0.53034,-1.67639 0.29167,-0.544201 0.53032,-1.214899 0.53032,-1.490463 0,-0.275533 0.17825,-0.842744 0.3961,-1.260479 0.21789,-0.417744 0.39687,-0.957716 0.39774,-1.199947 0.003,-0.555756 1.04114,-3.341836 1.54167,-4.133639 0.4587,-0.725669 0.77712,-0.734608 2.92349,-0.08188 1.25446,0.381465 2.0259,0.83622 3.04937,1.797525 2.75887,2.591232 4.27076,3.399472 5.08893,2.720465 0.21857,-0.181397 0.62371,-0.841412 0.90031,-1.46672 0.43426,-0.98175 1.77249,-2.451387 3.14805,-3.457209 0.2217,-0.162125 0.43421,-0.581082 0.4722,-0.930968 0.038,-0.349906 0.079,-0.725699 0.0912,-0.835078 0.0593,-0.534039 1.62368,-0.09831 2.93889,0.818482 0.80212,0.559184 2.50427,1.750322 3.78257,2.647025 2.30782,1.618904 4.24954,2.699549 4.85061,2.699549 0.29383,0 0.7838,-1.41597 1.00929,-2.916795 0.26162,-1.741072 0.52447,-2.325731 1.23411,-2.744929 0.60897,-0.359718 0.87822,-0.385755 1.42276,-0.137641 0.50749,0.231226 0.94981,0.231246 1.80963,1.1e-4 0.62587,-0.168279 2.86815,-0.419098 4.98283,-0.55738 3.52599,-0.230585 3.89985,-0.211654 4.50779,0.228309 1.17501,0.850352 0.92512,2.268316 -0.44628,2.532444 -0.87284,0.168088 -3.31534,0.393873 -5.91765,0.547058 -4.1866,0.246419 -4.7728,0.372165 -4.77393,1.023901 0,0.311603 -0.23012,0.942263 -0.51016,1.401498 -0.28001,0.459236 -0.54804,1.163167 -0.59561,1.564315 -0.0542,0.45679 -0.45334,1.025279 -1.06826,1.521371 l -0.9818,0.792073 -1.00693,-0.460167 c -2.89761,-1.324217 -4.68502,-2.321191 -7.02939,-3.921104 -0.80138,-0.546907 -1.68334,-0.993865 -1.95993,-0.993224 -0.71316,0.003 -2.7541,1.961915 -4.06886,3.908035 -1.15781,1.713802 -2.20637,2.719914 -2.83473,2.719914 -0.19965,0 -1.46628,-0.526853 -2.81474,-1.170803 -1.73571,-0.828844 -2.94892,-1.641784 -4.15395,-2.783473 -0.93621,-0.886982 -1.71424,-1.583186 -1.72893,-1.547127 -0.32695,0.802938 -0.8766,2.282928 -1.35379,3.64526 -0.33206,0.947955 -1.03891,2.678153 -1.57078,3.844877 -0.53189,1.166714 -1.06731,2.359956 -1.18984,2.651635 -0.31587,0.751796 -1.16163,4.13878 -1.15583,4.628563 0.003,0.225263 -0.3354,0.801514 -0.75128,1.280563 -0.41591,0.479039 -0.75617,1.052374 -0.75617,1.274079 0,0.385023 -0.79449,2.380561 -1.33513,3.353451 -0.14072,0.253255 -0.25585,0.702919 -0.25585,0.999238 0,0.478259 -0.60683,1.873649 -1.74695,4.017109 -0.20591,0.3871 -0.37702,0.8644 -0.38025,1.06065 -0.003,0.19625 -0.22775,0.64543 -0.49891,0.99815 -0.39355,0.51195 -0.71326,0.63269 -1.58509,0.59853 -0.60065,-0.0236 -1.09208,0.0621 -1.09208,0.19037 0,0.2887 -1.09616,0.52378 -3.84488,0.82452 -2.94734,0.32247 -3.62536,0.51697 -4.29626,1.23248 -0.96289,1.02698 -1.85668,0.81936 -3.60461,-0.8373 -0.84528,-0.80117 -1.7771,-1.45668 -2.07067,-1.45668 -0.29353,0 -0.46803,-0.10628 -0.38776,-0.23616 0.0803,-0.1299 -0.15134,-0.42821 -0.51469,-0.66291 -0.36336,-0.23472 -0.96042,-0.62043 -1.32683,-0.85713 -0.65448,-0.42284 -0.689,-0.40725 -1.96062,0.88458 -0.81867,0.83168 -1.64576,2.07544 -2.25039,3.3841 -0.5258,1.13803 -1.16489,2.23392 -1.42024,2.43537 -0.98475,0.77685 -3.43181,-0.0984 -7.07171,-2.52937 -1.009,-0.67389 -2.32157,-1.55113 -2.9168,-1.94943 -0.59524,-0.3983 -1.20159,-0.72586 -1.34743,-0.72788 -0.23741,-0.003 -2.76115,3.41677 -3.022,4.09525 -0.29221,0.76006 -2.26174,2.79267 -2.70602,2.79267 -0.27938,0 -1.21435,-0.64941 -2.07772,-1.44315 -0.86337,-0.79371 -2.0275,-1.73208 -2.58694,-2.08525 -0.55944,-0.35314 -1.17918,-0.8373 -1.37718,-1.0759 -0.55188,-0.66498 -0.92176,-0.5259 -1.49072,0.56055 -0.28641,0.54691 -1.0295,1.70434 -1.65128,2.57212 -0.62182,0.86775 -1.13056,1.69113 -1.13056,1.82971 0,0.33633 -1.33277,3.11671 -1.73494,3.61938 -0.17503,0.21876 -0.52213,1.02419 -0.77136,1.78986 -0.24922,0.76565 -0.56286,1.39211 -0.69698,1.39211 -0.13413,0 -0.24634,0.20881 -0.24942,0.46403 -0.006,0.52951 -2.02842,3.7946 -2.32105,3.74783 -0.10583,-0.0169 -0.68032,0.13802 -0.72276,-0.15905 z m 62.71124,-35.342141 c 0,-0.145839 -0.12637,-0.26517 -0.2808,-0.26517 -0.15446,0 -0.20707,0.119331 -0.11694,0.26517 0.0901,0.145839 0.21651,0.26516 0.28081,0.26516 0.0643,0 0.11693,-0.119321 0.11693,-0.26516 z m 48.31882,-15.527121 c -0.83195,-0.582726 -0.76079,-1.85909 0.20616,-3.697254 0.43752,-0.831741 0.79549,-1.863149 0.79549,-2.292028 0,-0.428848 0.12119,-0.923852 0.26928,-1.100008 0.14812,-0.176145 0.56475,-0.65346 0.92585,-1.060732 0.36112,-0.407241 0.72111,-1.063518 0.79999,-1.458402 0.20654,-1.033924 2.23467,-4.952121 2.97856,-5.754398 0.51437,-0.554694 0.79093,-0.651767 1.48547,-0.521471 0.54031,0.101352 1.43351,-0.03588 2.43416,-0.373909 2.077,-0.701676 5.16971,-1.040738 8.6075,-0.943666 1.90662,0.05382 3.14382,-0.04169 3.92507,-0.303083 0.62745,-0.20993 1.43443,-0.308014 1.79327,-0.217937 0.38335,0.09621 0.82846,0.01774 1.07909,-0.190307 0.28916,-0.239975 1.12111,-0.340824 2.5819,-0.312975 l 2.15531,0.04109 2.05957,-2.301999 c 1.13277,-1.266092 2.80329,-3.142139 3.7123,-4.168987 0.90898,-1.026848 2.30652,-2.578054 3.10562,-3.447126 1.39325,-1.515227 2.17922,-2.558962 2.78732,-3.701453 0.65072,-1.222507 3.94196,-1.827 9.4157,-1.729316 2.40637,0.04299 5.21048,0.0905 6.23136,0.105641 2.47516,0.03668 3.72327,-0.223208 5.72297,-1.191909 1.68016,-0.813872 1.81887,-0.825637 4.13603,-0.35155 0.79652,0.162967 0.88199,0.100991 1.53718,-1.114379 0.38155,-0.70781 1.03894,-1.883544 1.46081,-2.61274 0.42191,-0.729206 1.04618,-1.862778 1.38732,-2.519054 0.86904,-1.671941 1.91339,-3.257802 2.42495,-3.682362 0.29314,-0.243282 0.43381,-0.779446 0.43381,-1.653369 0,-0.711357 0.0895,-1.296128 0.19886,-1.299515 0.10939,-0.003 2.70467,-0.06414 5.76732,-0.135136 3.06264,-0.07095 6.17863,-0.186618 6.92444,-0.257073 2.2594,-0.213457 5.37137,0.302443 6.48673,1.075395 1.09952,0.761978 1.17427,1.281726 0.32023,2.227145 -0.54584,0.604253 -0.79931,0.656908 -3.57971,0.743618 -8.31935,0.259418 -10.82136,0.472344 -11.89456,1.012156 -0.76961,0.387147 -1.32494,0.979464 -1.40041,1.49373 -0.028,0.190517 -0.25695,0.640632 -0.5088,1.00025 -0.25188,0.359587 -0.45796,0.817259 -0.45796,1.017036 0,0.199747 -0.23864,0.666589 -0.53033,1.037401 -0.29168,0.370832 -0.53032,0.896753 -0.53032,1.168789 0,0.272005 -0.17899,0.494552 -0.39775,0.494552 -0.21876,0 -0.39825,0.149157 -0.39889,0.331456 0,0.182299 -0.36401,0.868411 -0.80752,1.524688 -1.05671,1.563623 -1.57781,2.802254 -1.57781,3.75037 0,0.565548 -0.17769,0.84975 -0.67222,1.075053 -0.68049,0.310059 -0.88349,0.286808 -5.77219,-0.661448 -1.18767,-0.230344 -1.64155,-0.224301 -1.98873,0.02656 -1.47606,1.066305 -2.14777,1.369729 -3.37037,1.522493 -0.75046,0.09381 -1.78918,0.05322 -2.30827,-0.0901 -0.51906,-0.143324 -1.46413,-0.219761 -2.10013,-0.169892 -0.63596,0.04991 -1.63361,-0.03588 -2.21698,-0.190517 -1.36718,-0.362503 -5.88695,-0.361952 -6.81173,0 -0.39213,0.153827 -1.20475,0.911876 -1.80583,1.684538 -0.60104,0.772651 -1.74053,2.061112 -2.53218,2.863238 -2.26381,2.293791 -4.83258,4.990775 -7.27488,7.63791 -1.81817,1.970695 -2.3936,2.438308 -3.0005,2.438308 -0.413,0 -1.00633,0.136689 -1.31851,0.303775 -0.31214,0.167056 -1.34841,0.282639 -2.30273,0.256863 -0.95435,-0.02576 -2.3318,0.08438 -3.061,0.244906 -2.6465,0.582435 -5.22318,0.806816 -5.60703,0.488269 -0.23,-0.190918 -0.72824,-0.231006 -1.35577,-0.109139 -0.54566,0.105992 -2.24502,0.238251 -3.77633,0.293913 -1.84217,0.06695 -3.54508,0.313126 -5.03297,0.727503 -2.12766,0.592527 -2.29701,0.694881 -3.14476,1.900029 -0.86535,1.230173 -1.0394,1.640461 -1.08272,2.552277 -0.0111,0.234855 -0.32432,0.875046 -0.69593,1.422655 -0.37162,0.547599 -0.74964,1.369678 -0.84007,1.826849 -0.17086,0.863821 -1.20198,2.909139 -1.8332,3.636321 -0.19986,0.230244 -0.36339,0.673524 -0.36339,0.985066 0,0.311512 -0.23079,0.68992 -0.5129,0.840881 -0.64472,0.345055 -0.58498,0.351499 -1.28424,-0.138283 z M -115.27066,267.63219 c -0.21828,-0.14745 -0.72812,-0.26995 -1.13298,-0.27218 -1.09588,-0.006 -2.32737,-0.60338 -3.47471,-1.68547 -0.56242,-0.53041 -1.09592,-0.96441 -1.18557,-0.96441 -0.66728,0 -1.15838,-3.37005 -0.68835,-4.72368 0.19928,-0.57388 2.5761,-2.39435 3.50333,-2.6833 0.40113,-0.12499 1.55125,-0.5339 2.55584,-0.90869 1.00459,-0.37478 2.49287,-0.75242 3.30729,-0.8392 0.81443,-0.0868 1.66203,-0.25477 1.88357,-0.37333 0.57346,-0.30686 3.61996,-0.58647 4.24131,-0.38925 0.909,0.2885 1.79319,1.88222 1.64683,2.96833 -0.18252,1.3544 -0.7164,1.78461 -2.16522,1.74482 -3.20756,-0.0881 -4.13179,-0.0294 -4.77554,0.3035 -0.38311,0.1981 -1.46518,0.55846 -2.40462,0.80077 -0.93943,0.2423 -1.89602,0.60909 -2.12576,0.81507 -0.22975,0.20601 -0.66165,0.37455 -0.9598,0.37455 -0.69586,0 -1.32178,0.71384 -0.95101,1.0846 0.14764,0.14764 0.95084,0.42707 1.78488,0.62095 1.26777,0.2947 1.76208,0.29377 3.01441,-0.006 0.82388,-0.19699 1.79563,-0.36267 2.15943,-0.36814 0.3638,-0.006 1.36152,-0.37902 2.21714,-0.83 1.2966,-0.68347 1.66012,-0.77245 2.18281,-0.53428 0.77933,0.35507 0.77857,0.38741 -0.0616,2.65401 -0.44468,1.1997 -0.86655,1.91447 -1.19062,2.01734 -0.27605,0.0876 -0.50191,0.27036 -0.50191,0.40606 0,0.13571 -0.34944,0.24675 -0.77653,0.24675 -0.42709,0 -1.05217,0.10438 -1.38906,0.23194 -1.02581,0.3884 -4.28021,0.60166 -4.71358,0.30887 z m -9.00301,-10.61701 c -1.75788,-0.19077 -2.13944,-0.36127 -4.98322,-2.22692 -1.30707,-0.85749 -1.61425,-1.19346 -1.6187,-1.77033 -0.003,-0.39158 -0.12455,-0.78557 -0.27007,-0.87551 -0.14552,-0.0899 -0.26459,-0.61198 -0.26459,-1.16011 0,-1.23558 0.76278,-2.0056 2.24896,-2.27031 0.58209,-0.10367 1.71318,-0.49009 2.51354,-0.85871 0.80037,-0.36862 1.93315,-0.87754 2.51729,-1.13093 1.2094,-0.52467 1.95732,-1.27162 1.54745,-1.54541 -0.37845,-0.25281 -0.70146,-1.0935 -0.80822,-2.10346 -0.0686,-0.64932 0.0739,-1.03243 0.56806,-1.52657 0.64282,-0.64283 0.73401,-0.65614 3.56327,-0.52086 3.4439,0.1647 3.93138,0.32089 4.98282,1.59647 0.94465,1.14602 1.02104,2.65152 0.18219,3.59069 -0.64149,0.71821 -3.18723,2.62191 -3.50617,2.62191 -0.12998,0 -1.29592,0.53404 -2.59098,1.18674 -1.29507,0.65273 -2.53326,1.18912 -2.75154,1.192 -0.21828,0.003 -0.8585,0.28466 -1.42271,0.62619 l -1.02584,0.62098 0.89355,0.66558 c 0.49145,0.36605 1.20879,0.86564 1.59408,1.11017 0.45517,0.28884 0.76304,0.77769 0.87895,1.39557 0.25682,1.36895 -0.13799,1.61181 -2.24812,1.38282 z M 33.571913,246.88296 c -0.668046,-0.38518 -0.702469,-0.41087 -3.197172,-2.38628 -2.606596,-2.06404 -3.525414,-3.32618 -3.739939,-5.13731 -0.220239,-1.85967 0.228944,-2.4943 2.065576,-2.91825 0.779013,-0.17983 2.284413,-0.73895 3.345286,-1.24251 1.060873,-0.50355 2.035069,-0.91556 2.1649,-0.91556 0.45892,0 3.755787,-1.63243 3.603811,-1.7844 -0.08483,-0.0848 -0.720143,-0.35899 -1.411817,-0.60921 -2.707164,-0.9794 -2.650781,-0.93503 -3.133275,-2.46567 -0.380551,-1.20725 -0.401559,-1.57742 -0.12708,-2.24007 0.400368,-0.96658 0.967793,-0.94898 3.641196,0.11282 2.937722,1.16676 5.581227,3.15613 6.295417,4.73757 0.60026,1.32922 0.706622,1.94157 0.427752,2.46266 -0.348086,0.65043 -2.899675,2.3957 -3.668845,2.50947 -0.32938,0.0487 -0.740146,0.22984 -0.912813,0.40251 -0.17264,0.17264 -0.584359,0.3139 -0.914903,0.3139 -0.330543,0 -1.229465,0.2776 -1.997604,0.61688 -0.768138,0.33927 -1.704684,0.69387 -2.081212,0.78798 -0.376555,0.0941 -1.004147,0.42249 -1.394698,0.7297 l -0.710089,0.55856 0.700722,0.55118 c 1.281245,1.00782 1.965616,1.81017 2.633557,3.08761 0.537395,1.02772 0.611611,1.39633 0.395579,1.9645 -0.238549,0.62751 -0.417804,0.75168 -0.977027,0.67683 -0.09287,-0.0124 -0.241697,0.0914 -0.330729,0.23064 -0.100569,0.15729 -0.356844,0.14081 -0.676593,-0.0436 z m -171.259513,-6.7858 c -0.76041,-0.0765 -1.52837,-0.28482 -1.70657,-0.46302 -0.17819,-0.17822 -0.57708,-0.32401 -0.88641,-0.32401 -0.91732,0 -1.72065,-1.12686 -2.15226,-3.01902 -0.39734,-1.74194 -0.39567,-1.75901 0.2854,-2.92116 0.37679,-0.64294 1.02176,-1.40872 1.43327,-1.70175 1.03269,-0.73533 3.34956,-1.61848 4.24599,-1.61848 0.40881,0 1.11195,-0.18392 1.56253,-0.40868 0.45057,-0.22479 1.83852,-0.48061 3.08432,-0.56854 2.15744,-0.15226 2.29154,-0.12969 2.82127,0.47483 0.56859,0.64886 0.9942,1.54453 1.18168,2.48676 0.0579,0.29104 0.24311,0.8632 0.41157,1.27148 0.22995,0.55732 0.23083,0.8178 0.004,1.04511 -0.19972,0.19973 -0.30278,0.20719 -0.30278,0.022 0,-0.15867 -0.29481,-0.22447 -0.67772,-0.15126 -0.52794,0.10091 -0.86681,-0.0769 -1.53339,-0.80463 -0.76484,-0.83502 -1.00145,-0.9353 -2.22898,-0.94483 -0.85613,-0.007 -1.51705,0.13312 -1.755,0.37108 -0.20993,0.20992 -0.49652,0.38169 -0.63687,0.38169 -0.14035,0 -0.31896,0.16621 -0.39691,0.36933 -0.0779,0.20315 -0.73637,0.56687 -1.46315,0.80828 -1.28502,0.4268 -2.1235,1.05965 -1.81402,1.36914 0.35399,0.35398 3.46103,0.50331 6.11817,0.29405 3.33628,-0.26273 3.8587,-0.04 3.8587,1.64521 0,1.1797 -0.38187,1.59941 -1.45521,1.59941 -0.45111,0 -0.95771,0.1375 -1.12578,0.30556 -0.36188,0.36187 -4.89902,0.67977 -6.87137,0.48147 z m -10.65598,-5.99101 c -1.07238,-0.3651 -2.05222,-0.92041 -2.70043,-1.53046 -0.39383,-0.37065 -0.87794,-0.67389 -1.0758,-0.67389 -0.96373,0 -3.5392,-3.89506 -3.11987,-4.71842 0.12352,-0.24252 0.34613,-0.75131 0.49468,-1.13064 0.21041,-0.53727 0.5008,-0.72062 1.3139,-0.82968 0.57408,-0.077 1.44761,-0.32219 1.94117,-0.54486 0.49357,-0.22267 1.25458,-0.46718 1.69114,-0.54335 1.6762,-0.29244 2.37356,-0.53562 3.25884,-1.13641 0.50383,-0.3419 1.11352,-0.62164 1.35486,-0.62164 0.24135,0 1.41045,-0.47625 2.598,-1.05833 1.18754,-0.58209 2.25338,-1.0591 2.36853,-1.06006 0.11514,0 0.77893,-0.48987 1.47508,-1.08656 1.01288,-0.86815 1.20462,-1.1585 0.9598,-1.45349 -0.16827,-0.20275 -0.50568,-0.36864 -0.74979,-0.36864 -0.24412,0 -0.60162,-0.14883 -0.79443,-0.33073 -0.28046,-0.26459 -0.37483,-0.26459 -0.47184,0 -0.14294,0.38984 -1.03478,0.44318 -1.26203,0.0755 -0.0868,-0.14038 -0.32111,-0.79803 -0.52076,-1.46142 l -0.36301,-1.20618 1.23275,-0.94237 c 1.07576,-0.82235 1.36262,-0.92168 2.25246,-0.77999 1.44811,0.23056 2.68049,1.28063 3.88759,3.31247 1.09627,1.84531 1.2428,2.71492 0.70017,4.15547 -0.35444,0.94094 -2.13135,2.467 -3.81057,3.27268 -0.61244,0.29382 -1.18292,0.64651 -1.26773,0.78375 -0.19999,0.32359 -2.32531,1.26305 -3.10243,1.37134 -0.33095,0.0461 -0.66127,0.14351 -0.73403,0.2164 -0.1542,0.15449 -2.71475,1.43539 -2.91042,1.45592 -0.0728,0.008 -0.77217,0.24776 -1.55425,0.53359 -1.52444,0.55716 -1.97609,1.09765 -1.25463,1.5014 0.24633,0.13785 0.79063,0.58569 1.20954,0.99521 0.41892,0.40949 0.99762,0.90979 1.286,1.1118 0.49714,0.3482 0.67679,0.88974 0.60839,1.83386 -0.0542,0.74816 -1.78233,1.25219 -2.94088,0.85775 z M 18.058572,231.8274 c -1.448674,-0.89821 -3.638577,-2.87076 -4.23299,-3.81278 -0.625422,-0.99121 -0.921993,-3.36026 -0.54483,-4.35226 0.211667,-0.55674 0.543904,-0.75941 1.671479,-1.01963 0.774039,-0.17864 2.062162,-0.59904 2.862527,-0.93424 0.800365,-0.3352 1.842162,-0.76774 2.315104,-0.96121 0.472943,-0.19346 0.859896,-0.44174 0.859896,-0.55173 0,-0.11001 0.223547,-0.2 0.496782,-0.2 0.273209,0 0.63619,-0.16798 0.806582,-0.37333 0.391822,-0.47212 0.201957,-0.60145 -2.210779,-1.50566 -1.487011,-0.55732 -1.928177,-0.85881 -2.316771,-1.58337 -0.95975,-1.78957 -0.358061,-3.15151 1.392925,-3.15299 1.661954,-0.003 5.699628,1.98755 7.150233,3.52216 0.810472,0.85738 1.560195,2.43938 1.560195,3.29216 0,1.49132 -2.810457,3.51975 -7.197937,5.19506 -0.916093,0.34981 -1.988926,0.76301 -2.384081,0.91827 l -0.71845,0.28223 1.578346,1.5055 c 0.868098,0.82804 1.578372,1.64354 1.578372,1.81224 0,0.16867 0.233071,0.5569 0.517948,0.86267 0.59526,0.63892 0.419815,0.87231 -1.020445,1.3575 -1.134322,0.38211 -1.042432,0.39487 -2.164106,-0.30059 z M 484.38406,216.5406 c -0.61553,-0.40376 -2.22554,-2.60345 -2.22554,-3.04065 0,-0.0809 -0.68054,-1.06354 -1.51233,-2.18358 -2.02338,-2.72463 -2.51116,-3.69287 -2.48158,-4.92588 0.0421,-1.75527 0.40843,-1.93953 3.92959,-1.97649 3.88189,-0.0408 4.56988,-0.44138 1.61226,-0.93879 -0.5311,-0.0893 -1.11011,-0.33655 -1.28675,-0.54938 -0.17663,-0.21281 -0.39695,-0.3405 -0.48961,-0.28372 -0.0926,0.0568 -0.20463,-0.59176 -0.24884,-1.44118 -0.0963,-1.8509 0.30906,-2.22174 2.12201,-1.94117 1.28718,0.1992 4.44067,1.59782 4.44067,1.96953 0,0.13499 0.12755,0.24543 0.28347,0.24543 0.15592,0 0.45294,0.16944 0.66003,0.37655 0.20712,0.20709 0.64873,0.59405 0.98137,0.8599 1.99273,1.59253 2.7424,3.78582 1.70587,4.99083 -0.59603,0.69295 -0.65119,0.70247 -4.30009,0.74306 l -3.69628,0.0411 0.0542,0.75972 c 0.0298,0.41786 0.22313,0.95364 0.42958,1.19063 0.20643,0.23698 0.51869,0.87738 0.6939,1.42308 0.1752,0.54571 0.44114,0.99219 0.59092,0.99219 0.1498,0 0.20941,0.1641 0.13245,0.36462 -0.0769,0.20056 -0.0364,0.46845 0.09,0.59532 0.12647,0.12689 0.26598,0.8836 0.31003,1.68158 0.0736,1.33223 0.0328,1.45365 -0.49884,1.48445 -0.31845,0.0185 -0.90189,-0.17828 -1.29654,-0.43717 z m -653.20648,-0.75087 c -0.64248,-0.67061 -0.75238,-1.03306 -0.88064,-2.90438 -0.0874,-1.27505 -0.0386,-2.27412 0.12092,-2.47491 0.14712,-0.18524 0.35256,-0.81301 0.45655,-1.3951 0.10399,-0.58208 0.4767,-1.43735 0.82825,-1.90058 0.35155,-0.46323 0.63918,-1.09614 0.63918,-1.40644 0,-1.64193 2.08417,-3.46356 2.55599,-2.23401 0.087,0.22664 0.32136,0.34943 0.52086,0.27289 0.1995,-0.0766 0.36273,0.0217 0.36273,0.21841 0,0.29652 0.18971,0.29226 1.11001,-0.0249 0.71627,-0.24678 1.93012,-0.35877 3.42203,-0.31575 l 2.31203,0.0667 0.42503,0.94255 c 0.5055,1.12101 0.73626,3.60061 0.39197,4.21198 -0.1343,0.2385 -0.34176,0.84566 -0.46102,1.34927 -0.19169,0.80947 -0.39925,0.98758 -1.79021,1.53636 -1.53827,0.60687 -1.62948,0.61235 -4.08692,0.2464 -1.38245,-0.20587 -2.6347,-0.32959 -2.78278,-0.27487 -0.3974,0.14676 -0.87715,2.4666 -0.72231,3.49276 0.22984,1.52326 -1.19609,1.87275 -2.42167,0.59351 z m 9.27517,-8.36189 c 0.0454,-0.14552 -0.0368,-0.44317 -0.18274,-0.66146 -0.22963,-0.34348 -0.31801,-0.32779 -0.65716,0.11671 -0.21551,0.2825 -0.39185,0.61817 -0.39185,0.74602 0,0.31538 1.12804,0.13108 1.23175,-0.20127 z m 411.10018,7.4451 c -0.96724,-0.26962 -1.42561,-1.41056 -1.12552,-2.4939 0.33858,-1.22245 1.82036,-2.13389 9.53598,-5.8656 3.32081,-1.60612 3.37071,-1.62052 4.05902,-1.16951 1.33671,0.87583 1.61846,3.12248 0.52835,4.21262 -0.35719,0.35719 -0.79655,0.64942 -0.97637,0.64942 -0.17981,0 -1.04843,0.347 -1.93026,0.77113 -0.88183,0.42412 -2.43676,1.08923 -3.45541,1.47804 -1.01864,0.3888 -2.18357,0.73242 -2.40232,0.92199 -0.49459,0.42853 -3.08985,1.74038 -3.37204,1.70447 -0.11421,-0.0146 -0.50188,-0.10843 -0.86143,-0.20866 z M -1.1408654,214.35437 c -1.1034713,-0.6472 -1.3780824,-1.01597 -1.573583,-2.11312 -0.6559286,-3.68118 0.4300273,-5.57154 4.500642,-7.83439 2.8503563,-1.58449 6.0770559,-2.13014 7.6646618,-1.29609 0.7607566,0.39968 1.8986236,2.67084 1.5890346,3.17174 -0.291862,0.47223 -1.8785152,0.92499 -3.3270296,0.94941 -0.8266378,0.014 -1.732968,0.1484 -2.0140878,0.29887 -0.2811198,0.15044 -0.9060921,0.34311 -1.3888508,0.42818 -0.9208824,0.16224 -3.214767,1.98241 -2.4983547,1.98241 0.6839215,0 4.382188,-1.05542 5.2244626,-1.49098 1.1320463,-0.58541 1.8897072,-0.15639 2.7037243,1.53099 l 0.664845,1.37819 -0.8589698,0.73842 c -0.4724401,0.40614 -1.2757151,0.86903 -1.785038,1.02868 -4.1180809,1.29074 -7.90373934,1.81287 -8.9014566,1.22769 z M 240.06476,206.6392 c -0.3638,-0.21119 -1.13771,-0.61248 -1.71979,-0.89175 -0.58208,-0.2793 -1.40467,-0.87514 -1.82795,-1.32414 -0.63098,-0.66923 -0.76629,-1.03756 -0.75107,-2.04419 0.0103,-0.67535 0.12718,-1.33652 0.25997,-1.46931 0.13277,-0.13277 0.88747,-0.34693 1.67709,-0.47588 1.64902,-0.2693 6.99135,-1.95104 8.62471,-2.715 0.60698,-0.2839 1.17477,-0.7017 1.26179,-0.92847 0.13669,-0.35619 -0.0542,-0.38828 -1.40263,-0.23572 -1.43103,0.1619 -1.62957,0.1188 -2.38628,-0.51795 -0.69572,-0.58542 -0.82542,-0.87892 -0.82542,-1.86817 0,-1.0164 0.0909,-1.20825 0.67868,-1.43171 1.07604,-0.4091 4.42172,-0.31094 5.55604,0.16301 1.40475,0.58695 2.65255,1.58982 3.31822,2.66686 0.77412,1.25254 0.60341,3.39831 -0.32409,4.07393 -0.34644,0.25238 -0.71832,0.47217 -0.8264,0.48842 -0.10808,0.0161 -0.61772,0.26611 -1.13252,0.55528 -0.51483,0.28913 -1.17644,0.52572 -1.47029,0.52572 -0.29385,0 -0.89628,0.18722 -1.33874,0.41604 -0.44246,0.22878 -0.96078,0.35605 -1.15178,0.28273 -0.19101,-0.0733 -0.56719,0.0334 -0.83601,0.23704 -0.26881,0.20365 -0.67061,0.37407 -0.89289,0.3787 -0.22227,0.005 -0.66783,0.19309 -0.99009,0.41883 l -0.58595,0.4104 0.5887,0.79629 c 0.62243,0.84188 0.6818,2.31177 0.10819,2.67832 -0.527,0.33676 -2.92145,0.21127 -3.61149,-0.18928 z m -253.353202,-2.07666 c -2.968414,-1.86169 -3.980551,-3.07473 -4.229762,-5.06939 -0.206533,-1.65288 0.284877,-2.78093 1.211395,-2.78093 0.289666,0 0.733399,-0.11711 0.986102,-0.26025 0.886884,-0.50241 5.4935441,-2.58474 6.1479645,-2.77907 0.3638021,-0.10803 1.0781771,-0.40916 1.5875,-0.66916 0.509323,-0.26003 1.3427605,-0.62352 1.8520834,-0.80775 1.357974,-0.4912 1.656768,-0.77004 1.2937861,-1.20742 -0.1850496,-0.22294 -0.8399727,-0.36177 -1.7068536,-0.36177 H -7.552831 l -0.1788848,-1.19303 c -0.2031735,-1.35485 0.00317,-1.7281 1.2936009,-2.34048 1.0927292,-0.51853 2.4598048,-0.22942 5.1234447,1.08344 1.76955979,0.8722 1.92328271,1.01614 2.16315396,2.02523 0.14202834,0.59746 0.33647064,1.33882 0.43209104,1.64743 0.2027502,0.65437 -1.11749418,2.33847 -2.06909462,2.63935 -0.31845248,0.1007 -0.85830838,0.36568 -1.19967378,0.58886 -0.3413654,0.22317 -0.8771467,0.41986 -1.190625,0.43709 -0.3134784,0.0172 -1.1057467,0.37772 -1.7605905,0.8011 -0.6548437,0.42339 -1.3096875,0.78145 -1.4552083,0.79568 -1.2038542,0.11766 -6.2177086,2.34104 -6.2177086,2.7572 0,0.14333 0.419206,0.59306 0.931545,0.99946 1.130856,0.89697 2.114312,2.3267 2.3553739,3.42424 0.1709473,0.7783 0.135599,0.82018 -0.8265579,0.97917 -1.492885,0.2467 -1.680105,0.20439 -3.136477,-0.709 z m -162.488388,-0.34777 c -0.10236,-0.27011 -0.34159,-0.64842 -0.53163,-0.84071 -0.19715,-0.1995 -0.34554,-0.95369 -0.34554,-1.75626 0,-1.17475 0.15265,-1.62853 0.92605,-2.75285 0.50932,-0.74041 0.92604,-1.54387 0.92604,-1.78544 0,-0.89474 -3.54306,0.12343 -4.63021,1.33057 -0.48975,0.54379 -1.69738,1.21263 -2.17351,1.20374 -0.82393,-0.0153 -2.4567,-1.81797 -2.4567,-2.71229 0,-0.44347 1.00707,-1.33829 2.1685,-1.9268 1.5618,-0.7914 1.81175,-1.14012 1.63035,-2.27455 -0.13609,-0.85103 -0.0952,-0.99864 0.24082,-0.86968 0.2226,0.0854 0.48177,0.0306 0.57594,-0.12174 0.10188,-0.16486 0.7413,-0.22429 1.57893,-0.14679 1.10435,0.10218 1.48659,0.0349 1.77377,-0.3121 0.20134,-0.24329 0.78278,-0.6327 1.29211,-0.86535 0.50932,-0.23265 1.64041,-0.90561 2.51354,-1.49548 2.77022,-1.8715 4.08035,-2.5378 4.6405,-2.36003 0.92382,0.29322 2.02683,2.99308 1.57086,3.84506 -0.13936,0.2604 -1.11767,1.0487 -2.17404,1.75178 l -1.92065,1.27834 1.05833,0.14192 c 0.58208,0.0781 1.23693,0.25683 1.45521,0.39727 0.21828,0.14041 0.98894,0.37632 1.71258,0.52422 1.12865,0.23066 1.42469,0.43116 2.08224,1.41025 0.56574,0.84236 0.68892,1.21897 0.47023,1.43764 -0.16297,0.16296 -0.2963,0.50835 -0.2963,0.76751 0,0.67207 -1.13592,0.87958 -3.02865,0.55332 -1.53915,-0.26532 -1.64796,-0.24625 -2.79219,0.48948 -1.51858,0.97639 -2.49987,1.8515 -2.72029,2.42591 -0.0954,0.24871 -0.29926,0.45217 -0.45295,0.45217 -0.15369,0 -0.39527,0.2679 -0.53684,0.59532 -0.14157,0.32742 -0.40652,0.83343 -0.58876,1.12448 -0.18225,0.29104 -0.33161,0.54924 -0.33191,0.5738 -2.6e-4,0.0246 -0.32661,0.12647 -0.72514,0.22651 -0.56601,0.14205 -0.76532,0.0744 -0.91069,-0.30922 z m 649.73326,-3.77505 c -2.15444,-1.42565 -4.70765,-3.58341 -5.03679,-4.25667 -0.63923,-1.30746 -0.73536,-2.27396 -0.28461,-2.86171 0.38571,-0.50297 0.72731,-0.56221 3.56338,-0.61819 2.37265,-0.0468 3.17077,-0.15047 3.27628,-0.42545 0.0767,-0.19995 0.005,-0.49843 -0.1602,-0.66326 -0.16484,-0.16484 -0.29972,-0.73372 -0.29972,-1.26413 0,-1.92439 1.5508,-2.34423 4.15935,-1.12604 0.84106,0.39278 1.61849,0.69043 1.72763,0.66146 0.10914,-0.029 0.19992,0.0961 0.20172,0.27805 0.003,0.1819 0.42254,0.60235 0.93495,0.93432 0.51245,0.33198 1.16536,0.98682 1.45095,1.45521 0.59174,0.97049 0.70776,3.14656 0.1905,3.57309 -0.48022,0.39598 -6.75822,0.59553 -6.91838,0.2199 -0.0789,-0.18521 -0.27379,-0.11279 -0.52186,0.19397 -0.24572,0.30382 -0.52803,0.41002 -0.74425,0.27995 -0.41034,-0.24691 0.0214,0.37251 1.12385,1.61179 0.75673,0.85077 1.08423,1.75149 0.80259,2.20723 -0.0957,0.15478 -0.64665,0.3505 -1.22436,0.4349 -0.87321,0.12755 -1.25125,0.0206 -2.24103,-0.63442 z m -662.02461,-8.25585 c -0.50239,-0.18618 -0.76442,-0.53403 -0.93307,-1.2387 -0.37728,-1.57633 -0.16629,-2.082 1.25216,-3.00114 0.71803,-0.46527 1.30551,-0.93302 1.30551,-1.03949 0,-0.10647 -0.40171,-0.59529 -0.89268,-1.08625 -1.72062,-1.72061 -1.55083,-4.38325 0.31423,-4.92757 2.52664,-0.73745 3.69768,-0.9321 5.53629,-0.92025 1.96037,0.0127 1.99843,0.0262 2.88002,1.01701 0.68349,0.76827 0.89339,1.24155 0.89339,2.01448 0,1.12485 0.18334,1.06032 -2.97656,1.0478 -0.83675,-0.003 -1.52136,0.0612 -1.52136,0.1433 0,0.0821 0.47692,0.8635 1.05982,1.73638 0.99913,1.49622 1.04389,1.64624 0.78167,2.62007 -0.26144,0.97088 -0.43484,1.11042 -2.88556,2.32206 -2.92835,1.4478 -3.80409,1.68653 -4.81386,1.3123 z m 416.27691,-0.50551 c -1.04714,-0.63844 -1.63772,-1.92071 -1.63772,-3.55584 0,-1.00145 0.15455,-1.36943 0.9406,-2.23949 0.93339,-1.03317 3.24493,-2.32915 5.27711,-2.9587 1.28979,-0.39955 4.61896,-0.40127 5.36356,-0.003 0.29826,0.15962 0.8038,0.7134 1.12347,1.23063 0.46347,0.74988 0.54681,1.16972 0.41148,2.07232 -0.11512,0.76759 -0.0455,1.37139 0.21632,1.87606 0.28348,0.54636 0.31697,0.92593 0.12605,1.42809 -0.34496,0.90733 -0.76462,1.39025 -1.05315,1.21192 -0.12903,-0.0798 -0.2346,-0.0307 -0.2346,0.1089 0,0.45292 -4.98071,1.30898 -7.80521,1.34152 -1.41883,0.0164 -2.05695,-0.10358 -2.72791,-0.51263 z m 6.77794,-3.73337 c 0.68289,-0.16529 1.35474,-0.40342 1.49299,-0.52917 0.13824,-0.12573 0.47559,-0.2286 0.74964,-0.2286 0.28213,0 0.44961,-0.14349 0.38608,-0.33073 -0.10874,-0.32041 -1.77231,-0.39383 -2.97458,-0.13123 -1.7853,0.38991 -2.26898,0.57472 -2.67332,1.0215 -0.43545,0.48117 -0.41203,0.49879 0.66307,0.49879 0.61296,0 1.6732,-0.13525 2.35612,-0.30056 z m 236.81828,-2.20369 c -0.0677,-0.0677 -1.54601,-0.19765 -3.28525,-0.28887 -3.98637,-0.20905 -5.01587,-0.47155 -5.98221,-1.5252 -1.00163,-1.09214 -1.14268,-1.73 -0.73469,-3.32195 0.29149,-1.13731 0.43863,-1.32767 1.13371,-1.46669 0.43932,-0.0879 1.02741,-0.36668 1.30691,-0.61962 0.41394,-0.3746 1.00584,-0.45824 3.19236,-0.45109 2.46128,0.008 2.77712,0.0685 3.80325,0.7275 0.67329,0.4324 1.34493,1.16668 1.68616,1.8433 0.68578,1.3599 0.61995,1.28217 1.152,1.36024 0.52316,0.0768 1.20216,1.304 1.20216,2.17282 0,1.08571 -0.76417,1.69256 -2.13138,1.69256 -0.67101,0 -1.27537,-0.0553 -1.34302,-0.123 z m -509.643974,-0.62542 c -0.240851,-0.26612 -0.437886,-0.67583 -0.437886,-0.91044 0,-0.23463 -0.10324,-0.4904 -0.229446,-0.56837 -0.126498,-0.0782 -0.101177,-0.62241 0.05643,-1.21291 0.225584,-0.84513 0.569648,-1.2665 1.631077,-1.99755 1.419463,-0.97763 4.882383,-2.49981 5.686954,-2.49981 0.937366,0 2.126245,2.95971 1.590781,3.96023 -0.292576,0.54671 -1.961568,1.59602 -2.538518,1.59602 -0.212884,0 -1.380173,0.47625 -2.594002,1.05834 -1.213829,0.58208 -2.3241,1.05833 -2.467239,1.05833 -0.143166,0 -0.457333,-0.21773 -0.698156,-0.48384 z m 258.148034,-1.43439 c -0.59425,-0.61846 -1.75014,-2.00827 -2.56863,-3.08848 -1.32511,-1.74882 -1.48812,-2.10217 -1.48812,-3.22551 0,-0.69387 0.116,-1.33324 0.25779,-1.42087 0.14179,-0.0876 1.00499,-0.19703 1.91823,-0.24312 2.60114,-0.13126 10.2594,-2.43496 10.2594,-3.08618 0,-0.12213 -0.3166,-0.43598 -0.70358,-0.69744 -1.42669,-0.96396 -2.35977,-2.14352 -2.30367,-2.9123 0.0296,-0.40595 0.0635,-0.87418 0.0753,-1.0405 0.0348,-0.49014 0.70652,-0.61097 1.76752,-0.31803 1.33369,0.36825 3.81519,2.77284 4.60767,4.46485 0.57597,1.22967 0.60089,1.44462 0.29982,2.58487 -0.40849,1.54699 -0.86473,1.90122 -3.56944,2.77117 -2.08312,0.67003 -3.23318,0.96329 -6.19294,1.57919 -0.76399,0.15899 -1.38906,0.39653 -1.38906,0.52787 0,0.13136 0.36385,0.76769 0.80859,1.41406 1.10892,1.61177 1.42116,2.58004 1.05352,3.26697 -0.4975,0.92962 -1.60102,0.70499 -2.83245,-0.57655 z M -23.915353,182.4194 c -0.705987,-0.28408 -0.980466,-1.27283 -0.898287,-3.23583 0.03598,-0.85891 0.872596,-1.78593 1.611816,-1.78593 0.703156,0 1.593665,1.872 1.593665,3.35018 0,0.98832 -0.100383,1.18604 -0.780601,1.53781 -0.429339,0.22201 -0.816292,0.39613 -0.859896,0.3869 -0.04363,-0.009 -0.343614,-0.12314 -0.666697,-0.25313 z m -171.031727,-2.6317 c -0.34354,-0.2862 -0.5286,-0.52433 -0.41123,-0.52917 0.30733,-0.0127 -0.67061,-1.59306 -0.99805,-1.61287 -0.15052,-0.009 -1.10712,-0.044 -2.12576,-0.0776 -2.0543,-0.0676 -2.97537,-0.48903 -3.22569,-1.47574 -0.0898,-0.35412 -0.30953,-0.92565 -0.48822,-1.27008 -0.36068,-0.69522 -0.12499,-2.22623 0.54097,-3.51404 0.46122,-0.89191 2.14761,-2.33606 2.9745,-2.5472 0.32742,-0.0836 0.59531,-0.25818 0.59531,-0.38793 0,-0.12975 0.13084,-0.2359 0.29075,-0.2359 0.1599,0 0.66592,-0.16584 1.12448,-0.36854 1.3565,-0.59965 1.84159,-0.74303 2.81811,-0.83301 1.11342,-0.10258 2.64583,0.61722 2.64583,1.24282 0,0.24755 0.16999,0.62008 0.37775,0.82786 0.69232,0.69231 0.77816,2.11045 0.17422,2.87824 -0.52992,0.67368 -0.53127,0.70565 -0.0554,1.3158 0.26822,0.34396 0.54411,1.01809 0.61309,1.49807 0.10656,0.74155 -0.0271,1.02518 -0.88898,1.88712 -0.78553,0.78552 -1.01439,1.22107 -1.01439,1.93056 0,1.65065 -1.64188,2.35902 -2.94725,1.27156 z m -0.46454,-6.89131 c 0.5246,-0.14571 1.22743,-0.50224 1.56183,-0.79227 l 0.60801,-0.52732 h -0.96652 c -0.53159,0 -0.96653,0.093 -0.96653,0.20659 0,0.11361 -0.35719,0.34139 -0.79375,0.50617 -0.43656,0.16479 -0.79375,0.42903 -0.79375,0.58717 0,0.35285 0.14375,0.35494 1.35071,0.0196 z m 655.36175,5.61792 c -0.52226,-0.18606 -1.64152,-1.53776 -2.19434,-2.65007 -0.67342,-1.35501 -0.8391,-2.59802 -0.46628,-3.49811 l 0.32695,-0.78933 h 3.52417 c 1.93828,0 3.5883,-0.10379 3.66672,-0.23069 0.0784,-0.12687 -0.39216,-0.43487 -1.04573,-0.68447 -1.39658,-0.53338 -1.71144,-1.0137 -1.71144,-2.61102 0,-0.87048 0.12137,-1.23245 0.46303,-1.38097 2.28031,-0.99118 7.42547,3.23988 7.54366,6.20345 0.0454,1.13864 -0.73366,2.37622 -1.52439,2.4216 -0.29105,0.0167 -0.7673,0.0725 -1.05834,0.12401 -0.29104,0.0515 -1.06495,0.16677 -1.71979,0.25612 -2.98834,0.4078 -2.92346,0.3843 -2.78185,1.00756 0.0773,0.3402 -0.0623,0.8124 -0.33534,1.13398 -0.47175,0.5557 -1.98376,0.94842 -2.68703,0.69794 z m -502.592665,-2.16413 c -0.733689,-0.41442 -0.799782,-0.57481 -0.873495,-2.11969 l -0.07977,-1.67134 1.402926,-1.35107 c 0.863204,-0.8313 2.283566,-1.78369 3.691917,-2.47555 1.25894,-0.61846 2.351749,-1.12448 2.428425,-1.12448 0.285327,0 3.237892,-2.07227 3.723614,-2.61345 0.685218,-0.76342 1.243092,-0.70585 2.129949,0.21982 0.560096,0.58462 0.781129,1.11988 0.877755,2.12548 0.125307,1.30416 0.09602,1.37467 -0.987081,2.37455 -0.613939,0.56679 -1.552178,1.22987 -2.085023,1.47349 -0.532844,0.24366 -1.980829,0.92123 -3.217756,1.50575 -1.236928,0.58452 -2.53918,1.1974 -2.893907,1.36199 -0.354727,0.16457 -1.069102,0.72091 -1.5875,1.23627 -1.521222,1.5123 -1.638988,1.56154 -2.530052,1.05823 z M -185.43454,171.9337 c -0.78651,-0.87014 -0.97411,-2.93492 -0.41403,-4.55681 0.59377,-1.71948 0.86911,-2.01764 2.20597,-2.38879 1.47603,-0.40982 2.17668,-0.3619 3.39934,0.23254 0.76405,0.37145 1.28997,0.9063 1.81516,1.84597 0.65435,1.17075 0.70834,1.43851 0.46917,2.32677 -0.3897,1.44722 -2.43063,2.49431 -5.5827,2.86417 -1.21281,0.14232 -1.51889,0.09 -1.89291,-0.32385 z m 382.17378,-3.13261 c -0.7375,-0.32055 -0.85989,-0.50689 -0.85989,-1.30906 0,-0.82579 0.29434,-1.23449 2.51354,-3.49006 1.38244,-1.4051 2.51354,-2.64893 2.51354,-2.76408 0,-0.34388 -1.36245,-0.005 -2.83168,0.70488 -1.26981,0.61328 -1.43457,0.63476 -2.12603,0.2772 -0.69967,-0.36182 -1.13596,-0.9721 -1.49318,-2.0887 -0.274,-0.85648 0.29676,-1.64412 1.85862,-2.56482 0.85225,-0.50241 2.35826,-1.43258 3.34669,-2.06702 2.14942,-1.37966 2.96021,-1.40739 3.70536,-0.12672 0.40648,0.69864 0.44913,1.01111 0.22548,1.65264 -0.2289,0.65662 -0.16286,1.04646 0.38848,2.29312 1.17877,2.66539 0.58071,4.47667 -2.34725,7.1092 -1.50267,1.35101 -3.47228,2.77397 -3.81688,2.75754 -0.1193,-0.006 -0.60386,-0.17854 -1.0768,-0.38412 z m -404.62516,-2.8551 c -0.47552,-0.37571 -1.31183,-2.07092 -1.31183,-2.65917 0,-0.56025 5.83086,-5.5513 8.0462,-6.88731 0.44954,-0.27109 0.87688,-0.56875 0.94964,-0.66146 0.46451,-0.59179 5.89313,-4.28501 7.54062,-5.13006 1.42636,-0.73163 2.40257,-0.61244 5.02709,0.61379 1.02984,0.48116 3.58335,2.89067 4.45967,4.20817 0.54027,0.81226 0.56162,2.43474 0.0452,3.43344 -0.52293,1.01124 -2.33603,2.53079 -3.96764,3.32526 -1.76818,0.86098 -5.5028,1.573 -6.22453,1.18673 -0.29172,-0.15613 -0.53039,-0.21709 -0.53039,-0.13547 0,0.20873 -1.33782,-0.54742 -2.05052,-1.15898 -0.32743,-0.28096 -0.59532,-0.69307 -0.59532,-0.91583 0,-0.22275 -0.121,-0.47976 -0.2689,-0.57118 -0.14789,-0.0914 -0.20703,-0.26627 -0.13143,-0.38862 0.0756,-0.12231 0.0649,-0.41164 -0.0239,-0.64294 -0.13781,-0.35914 -0.27607,-0.324 -0.9472,0.24072 -0.4322,0.36367 -0.88725,0.66122 -1.01121,0.66122 -0.12396,0 -0.38272,0.15206 -0.57501,0.33793 -1.18158,1.14199 -4.96175,4.15999 -5.21059,4.15999 -0.16413,0 -0.29842,0.12515 -0.29842,0.27808 0,0.29204 -1.59197,1.05087 -2.17431,1.03642 -0.18658,-0.005 -0.52281,-0.15346 -0.74719,-0.33073 z m 17.05122,-7.22701 c 0.42254,-0.20423 0.92354,-0.37134 1.11334,-0.37134 0.52167,0 2.56094,-2.04275 2.36147,-2.36551 -0.24927,-0.40332 -2.38959,-1.33866 -3.06325,-1.33866 -0.58054,0 -2.10586,0.77562 -2.10586,1.07082 0,0.0896 -0.57905,0.53819 -1.28678,0.99679 -0.70773,0.45858 -1.4153,0.98864 -1.57236,1.1779 -1.01956,1.22849 2.42862,1.85701 4.55344,0.83 z m 141.302759,7.29692 c -2.770611,-0.39177 -3.829685,-1.38142 -4.016111,-3.75288 -0.12266,-1.56012 -0.07435,-1.74863 0.757053,-2.95492 0.841983,-1.22169 2.497825,-2.31447 4.989089,-3.29263 0.363802,-0.14285 1.116277,-0.45999 1.672167,-0.70477 1.221793,-0.538 1.603745,-0.41929 2.29407,0.71294 0.843518,1.38348 0.705141,2.40708 -0.454634,3.36307 -0.542502,0.44714 -1.193297,0.81301 -1.446239,0.81301 -0.622618,0 -2.329947,0.83217 -2.329947,1.13564 0,0.13415 0.160919,0.18214 0.35761,0.10666 0.196665,-0.0755 1.952837,-0.22019 3.902605,-0.3216 l 3.544993,-0.18439 0.617405,0.66461 c 0.636667,0.68535 1.16213,2.36884 0.929005,2.97637 -0.272944,0.71126 -1.893093,1.17279 -4.621662,1.31657 -1.510083,0.0796 -3.221831,0.18206 -3.803915,0.22775 -0.582083,0.0457 -1.658249,-0.003 -2.391489,-0.10543 z m 498.451991,-2.29442 c -0.30935,-0.0607 -0.83569,-0.40121 -1.16964,-0.75671 -0.48102,-0.51202 -0.60082,-0.9262 -0.57653,-1.99302 0.0241,-1.05183 -0.0502,-1.31567 -0.33864,-1.20499 -0.5625,0.21587 -2.01739,-1.90789 -1.96906,-2.87433 0.0696,-1.39067 0.0269,-1.47554 -0.65555,-1.30425 -0.5056,0.12691 -0.89334,-0.071 -1.82859,-0.93303 -1.38615,-1.27771 -1.91926,-2.89077 -1.61841,-4.89695 0.16217,-1.08148 0.43154,-1.48071 2.18784,-3.24272 l 2.00287,-2.0094 -0.90093,-0.75213 c -0.49551,-0.41368 -1.05024,-0.75215 -1.23269,-0.75215 -0.18246,0 -0.73965,-0.1945 -1.23817,-0.43223 -0.89498,-0.42679 -0.93157,-0.41963 -2.9051,0.56894 -1.93503,0.96929 -2.02025,0.98708 -2.67446,0.55843 -0.71335,-0.4674 -0.83236,-1.04248 -0.43305,-2.09273 0.23646,-0.62193 3.44514,-2.85041 5.24743,-3.64442 0.47294,-0.20835 0.8599,-0.46883 0.8599,-0.57882 0,-0.11 0.22206,-0.2 0.49347,-0.2 0.76592,0 1.88778,-1.0206 1.88778,-1.71735 0,-1.58517 0.43312,-1.7453 2.54727,-0.94174 0.74618,0.2836 1.6981,0.56137 2.1154,0.61725 0.56311,0.0754 0.89548,0.36421 1.28916,1.12015 0.29175,0.56019 1.03647,1.37685 1.65494,1.8148 0.75343,0.53351 1.12448,0.99256 1.12448,1.39117 0,0.3272 0.11906,0.66849 0.26458,0.75843 0.30779,0.19022 0.34711,1.44503 0.0595,1.89725 -0.10837,0.17036 -0.5135,0.38917 -0.90027,0.48625 -0.54226,0.1361 -0.76726,0.0568 -0.98306,-0.34644 -0.40978,-0.7657 -2.96352,-2.5238 -3.73237,-2.56955 -1.62211,-0.0965 -1.74469,0.68078 -0.39687,2.51686 0.7013,0.95536 0.92604,1.52381 0.92604,2.34225 0,0.90323 -0.076,1.05902 -0.46302,0.94856 -0.25466,-0.0727 -0.19513,0.009 0.13229,0.18102 0.32742,0.17226 0.59531,0.40494 0.59531,0.51706 0,0.11211 0.30295,0.56388 0.67321,1.00391 0.37028,0.44004 1.0093,1.46638 1.42009,2.28075 0.68533,1.3587 0.71949,1.56033 0.41445,2.44763 -0.18283,0.53182 -0.55142,1.04376 -0.81905,1.13765 -0.76255,0.26748 -3.10086,-0.39635 -4.66084,-1.32318 -1.5095,-0.89685 -1.7189,-0.53056 -0.50107,0.87655 0.63627,0.73515 1.09196,1.53097 1.09196,1.90702 0,0.35495 0.0524,0.64537 0.11652,0.64537 0.13417,0 3.72272,-1.24637 4.51369,-1.56769 1.07762,-0.43777 5.06537,-1.41365 6.21771,-1.52159 1.11082,-0.10405 1.22803,-0.0526 1.74895,0.76727 1.02772,1.61763 0.0235,3.64492 -1.80536,3.64492 -0.34991,0 -0.86731,0.1786 -1.1498,0.39688 -0.45342,0.35039 -0.46662,0.43561 -0.11261,0.7276 0.85643,0.70641 2.12299,2.56572 2.27896,3.34547 0.09,0.45019 0.0185,1.16901 -0.1589,1.59737 -0.26536,0.64066 -0.55513,0.8287 -1.63328,1.05992 -1.24941,0.26795 -5.81591,0.33227 -7.00643,0.0987 z m -259.71514,-4.77853 c -0.87693,-0.92739 -1.34149,-2.66986 -1.11479,-4.18153 0.15515,-1.03461 0.117,-1.17609 -0.31668,-1.17465 -0.27117,7.9e-4 -0.83773,0.18138 -1.25902,0.40108 -0.42127,0.21971 -1.46651,0.46833 -2.3227,0.55251 -1.53543,0.15096 -1.56908,0.13955 -2.4606,-0.83376 -1.11241,-1.21447 -1.46523,-3.14762 -0.84309,-4.61938 0.49577,-1.17284 3.73737,-4.32116 4.9866,-4.84313 0.86146,-0.35994 2.51912,-0.57494 3.73219,-0.48407 0.48074,0.036 3.09753,2.31463 3.09753,2.69722 0,0.11441 0.33877,0.54679 0.75279,0.96083 1.09516,1.09514 1.28534,2.48197 0.51795,3.77645 -2.78612,4.69971 -2.72595,4.56065 -2.72595,6.30232 0,1.18986 -0.11287,1.73424 -0.39688,1.91418 -0.62219,0.39418 -0.90908,0.31266 -1.64735,-0.46807 z m -1.92452,-8.9399 c 1.01864,-0.47516 2.19427,-1.15 2.61247,-1.49965 0.71501,-0.59778 0.73361,-0.66252 0.3116,-1.08453 -0.42852,-0.42852 -1.12967,-0.4242 -2.26261,0.0139 -0.21829,0.0844 -0.45641,0.16962 -0.52917,0.18934 -0.7974,0.21613 -1.36472,0.64748 -2.32074,1.76446 -1.74443,2.03814 -1.19264,2.19356 2.18845,0.61642 z m -246.1948,4.905 c -0.291042,-0.29104 -0.62492,-0.52916 -0.741945,-0.52916 -0.117025,0 -0.781632,-0.36075 -1.476904,-0.80168 -1.355619,-0.85971 -2.351723,-0.88233 -3.919564,-0.089 -0.392959,0.19883 -1.011026,0.36151 -1.373452,0.36151 -0.362453,0 -0.732579,0.11906 -0.82251,0.26458 -0.294667,0.47679 -1.414701,0.27959 -1.837082,-0.32345 -0.481621,-0.6876 -0.540306,-2.7643 -0.121708,-4.30676 0.347212,-1.27951 1.708017,-2.77812 2.522643,-2.77812 1.40798,0 2.759075,-0.99681 3.414157,-2.51891 0.422989,-0.98279 1.316355,-1.82574 1.690158,-1.59473 0.152639,0.0943 1.101487,-0.5786 2.108544,-1.49543 2.970795,-2.70463 2.823078,-2.63911 4.139645,-1.83625 0.497496,0.3034 0.916834,0.85836 1.100323,1.45625 l 0.296492,0.96604 -2.254409,2.04849 c -2.038668,1.85247 -2.969022,3.08269 -2.605881,3.44581 0.07332,0.0733 0.284982,0.0187 0.470402,-0.12132 0.18542,-0.14005 0.872914,-0.41537 1.527757,-0.61182 0.654844,-0.19645 1.310005,-0.48578 1.455897,-0.64297 0.542634,-0.58463 1.950217,-1.20806 2.366724,-1.04824 0.561737,0.21557 3.194209,-1.54367 6.716104,-4.48827 2.313094,-1.93394 2.811622,-2.24367 3.241146,-2.01379 0.868151,0.46462 1.238753,1.37257 1.368743,3.35342 0.108003,1.64522 0.05487,1.97353 -0.383434,2.3702 -0.27985,0.25325 -0.840608,0.43517 -1.246162,0.40427 -0.473101,-0.036 -1.107545,0.22548 -1.770353,0.72976 -2.059728,1.56707 -6.179291,4.26522 -7.166372,4.69368 -0.555731,0.24123 -1.714421,0.68507 -2.574899,0.98631 l -1.564455,0.54771 -0.03598,1.62859 c -0.02011,0.91048 -0.190394,1.81463 -0.386159,2.05052 -0.481516,0.58018 -1.501193,0.52903 -2.137463,-0.10724 z m 233.23855,-8.66175 c -1.58282,-0.23337 -3.59754,-2.34478 -3.63932,-3.81397 -0.0196,-0.68571 0.25855,-1.08179 1.67151,-2.38103 1.64203,-1.5099 1.73201,-1.55428 2.88551,-1.42318 0.65485,0.0744 2.17644,0.62023 3.3813,1.21289 l 2.1907,1.07756 0.9843,-0.59647 c 2.27748,-1.38007 5.32183,-4.16758 7.29149,-6.6763 0.62082,-0.79074 0.83699,-0.91036 1.24778,-0.6905 0.61465,0.32895 1.13437,2.1536 0.90757,3.18625 -0.0928,0.42262 -0.45728,0.99534 -0.80991,1.27271 -0.35264,0.27738 -0.64114,0.64371 -0.64114,0.81406 0,0.17035 -0.35081,0.60493 -0.77962,0.96573 -0.42879,0.3608 -0.8476,0.87021 -0.93067,1.13203 -0.14611,0.46028 -2.20861,2.11378 -3.04083,2.4378 -0.22453,0.0874 -0.40826,0.2948 -0.40826,0.46081 0,0.30732 -1.10998,1.02457 -2.77812,1.79518 -0.50932,0.23528 -1.14652,0.54089 -1.41597,0.67912 -0.4154,0.2131 -4.80375,0.80235 -5.19862,0.69805 -0.0728,-0.0192 -0.48572,-0.0871 -0.9177,-0.15074 z m -437.70017,-1.65204 c -1.12178,-0.50917 -1.1283,-0.52018 -0.97553,-1.64784 0.0846,-0.62438 0.21873,-1.4329 0.29807,-1.7967 0.31058,-1.42392 0.34724,-8.73125 0.0438,-8.73125 -0.20694,0 -0.24752,-0.54316 -0.13345,-1.78594 0.0902,-0.98226 0.04,-3.21468 -0.11139,-4.96093 -0.27404,-3.16026 -0.30405,-6.04089 -0.0813,-7.80521 0.13425,-1.06342 0.34388,-6.72239 0.50476,-13.62604 0.061,-2.61938 0.17663,-5.926323 0.25686,-7.348768 0.12186,-2.160442 0.0798,-2.611644 -0.25577,-2.740395 -0.22091,-0.08477 -1.39766,0.04351 -2.615,0.285072 -3.08164,0.611497 -4.92984,0.09159 -4.92984,-1.386784 0,-0.670597 0.15036,-0.775605 1.91823,-1.339681 1.05502,-0.336626 2.27541,-0.771115 2.71198,-0.965528 0.43656,-0.194416 1.23116,-0.425944 1.76577,-0.514511 0.91818,-0.152109 0.98783,-0.234731 1.25737,-1.491552 0.15694,-0.731787 0.2269,-1.76989 0.15546,-2.306896 -0.57824,-4.346575 -0.65335,-15.054053 -0.14233,-20.290959 0.1704,-1.74625 0.30607,-3.294062 0.30148,-3.439583 -0.0592,-1.875544 -0.0751,-6.758397 -0.0302,-9.260416 0.0313,-1.74625 0.0138,-5.316593 -0.0389,-7.934092 -0.11212,-5.56406 0.17797,-5.191704 -3.50728,-4.50192 -1.97138,0.368991 -2.67066,0.396365 -3.8624,0.151188 -0.80037,-0.164655 -1.62852,-0.325429 -1.84035,-0.357274 -0.26578,-0.03996 -0.41005,0.241421 -0.46553,0.907978 -0.18809,2.259825 -1.74866,4.580784 -4.11027,6.113036 -1.36521,0.885765 -1.46498,1.085049 -0.85076,1.699263 0.2913,0.291301 0.32746,0.500652 0.12799,0.741 -0.39168,0.471937 -3.39848,0.297439 -3.92363,-0.227703 -0.49072,-0.490728 -0.78698,-3.338351 -0.3473,-3.338351 0.16354,0 0.29734,-0.168944 0.29734,-0.375433 0,-0.206489 0.19874,-0.772036 0.44165,-1.256771 0.78264,-1.561838 0.88127,-1.795238 0.88127,-2.085454 0,-0.15689 0.3663,-0.593476 0.814,-0.970192 0.49898,-0.419862 0.76827,-0.859814 0.69584,-1.136804 -0.22041,-0.842854 1.18136,-1.363284 3.62368,-1.345356 1.83291,0.01344 2.27746,-0.06728 2.65255,-0.481753 0.39109,-0.432149 2.09172,-0.980623 2.35755,-0.760338 0.0516,0.04275 0.28548,-0.08135 0.51975,-0.275781 0.23427,-0.194429 0.53736,-0.284654 0.67352,-0.200504 0.13616,0.08415 0.76645,-0.01619 1.40065,-0.222977 0.6342,-0.206791 1.80793,-0.511146 2.6083,-0.676344 3.552,-0.733155 4.13745,-0.869387 4.73441,-1.101672 0.34835,-0.135551 1.56056,-0.248494 2.6938,-0.250984 2.41918,-0.0053 3.68429,0.488905 3.68429,1.439296 0,1.093412 -0.56488,1.514176 -2.25484,1.679565 -0.86989,0.08514 -1.88471,0.328752 -2.25515,0.541374 -0.59024,0.338778 -0.66473,0.538898 -0.60234,1.618253 0.0392,0.677418 0.14315,2.541354 0.23109,4.142083 0.088,1.600729 0.26057,3.267604 0.3836,3.704167 0.35378,1.255257 0.12629,17.135342 -0.27937,19.502053 -0.28481,1.661676 -0.29095,3.205813 -0.0331,8.334375 0.17404,3.462152 0.40479,7.009196 0.51277,7.88232 0.10798,0.873125 0.13399,2.004219 0.0578,2.513542 -0.2128,1.42249 0.004,2.101765 0.80136,2.514251 1.3277,0.68658 1.18106,2.267585 -0.28301,3.051127 -0.27772,0.148635 -0.49944,0.534808 -0.49271,0.858163 0.0134,0.642027 -0.21486,9.32466 -0.39451,15.00771 -0.0621,1.96453 -0.17858,4.34578 -0.25885,5.29166 -0.25506,3.00577 -0.22847,12.45963 0.0435,15.47813 0.37165,4.12428 0.2761,9.74107 -0.17495,10.28455 -0.30001,0.3615 -0.28817,0.53127 0.0758,1.08681 0.40194,0.61344 0.54407,0.64923 2.08181,0.52411 3.00112,-0.24417 6.12089,-0.72188 8.13272,-1.2453 2.23232,-0.58079 4.37445,-0.89776 7.67292,-1.13537 6.09123,-0.43879 13.94657,-1.32129 14.84799,-1.66808 0.55213,-0.21241 7.14377,-1.20522 13.19784,-1.98781 2.80377,-0.36243 6.08214,-0.93086 6.36037,-1.10282 0.22845,-0.14119 0.27253,-0.77709 0.15514,-2.2379 -0.14766,-1.83737 -0.11009,-2.08945 0.37711,-2.53036 0.6837,-0.61874 1.2233,-0.70419 2.28512,-0.36188 1.54407,0.49778 2.19731,1.21753 2.21794,2.44377 0.0102,0.6079 0.10224,1.31694 0.20447,1.57563 0.17557,0.44427 1.44748,0.47743 22.93401,0.59782 12.51148,0.0701 22.92673,0.1451 23.14501,0.16664 0.21828,0.0215 2.5735,0.0204 5.23382,-0.002 4.16606,-0.0359 4.8595,-0.10043 4.9995,-0.46526 0.0894,-0.23296 0.0439,-0.50085 -0.10099,-0.59531 -0.44121,-0.28752 -0.89103,-1.32253 -1.0231,-2.3541 -0.0689,-0.5379 -0.24162,-1.0944 -0.38389,-1.23667 -0.14227,-0.1424 -0.25867,-0.57441 -0.25867,-0.96015 0,-0.65813 -0.29915,-1.81416 -0.78389,-3.02927 -0.1161,-0.29105 -0.39145,-1.00542 -0.61188,-1.5875 -0.22044,-0.58209 -0.6976,-1.77271 -1.06038,-2.64584 -0.36277,-0.87312 -1.14268,-3.13531 -1.73314,-5.02708 -0.59046,-1.89177 -1.32405,-4.21349 -1.6302,-5.15938 -0.30614,-0.94588 -0.65319,-2.13651 -0.77121,-2.64583 -0.11802,-0.50932 -0.34288,-1.2237 -0.4997,-1.5875 -0.15681,-0.3638 -0.53688,-1.55443 -0.84461,-2.64583 -0.30772,-1.09141 -0.67229,-2.19112 -0.81016,-2.44381 -0.13787,-0.25268 -0.25067,-0.62134 -0.25067,-0.81924 0,-0.1979 -0.20449,-0.765063 -0.45442,-1.260363 -0.24993,-0.4953 -0.42242,-1.100805 -0.38329,-1.345563 0.0391,-0.244758 -0.23264,-1.044471 -0.60391,-1.777142 -0.37127,-0.732669 -0.67504,-1.559629 -0.67504,-1.83769 0,-0.278061 -0.18401,-0.658284 -0.40892,-0.844937 -0.2249,-0.186652 -0.35103,-0.490209 -0.28028,-0.674571 0.12511,-0.326038 -0.0822,-1.119938 -0.78847,-3.019602 -0.18936,-0.509323 -0.64957,-2.057135 -1.02268,-3.439583 -0.37312,-1.382448 -0.80743,-2.989791 -0.96514,-3.571875 -0.15771,-0.582083 -0.58229,-1.951302 -0.94351,-3.042708 -0.36122,-1.091406 -1.13725,-3.472656 -1.72452,-5.291666 -0.58727,-1.819011 -1.17389,-3.420401 -1.30358,-3.558646 -0.1297,-0.138245 -0.23582,-0.582462 -0.23582,-0.987147 0,-1.039273 -0.73337,-1.153467 -5.01155,-0.78037 -1.97307,0.172074 -4.48038,0.267324 -5.57178,0.211669 -1.09141,-0.05566 -2.41265,-0.118285 -2.93608,-0.139181 -0.98784,-0.03943 -2.08046,-0.753187 -1.91077,-1.248215 0.0536,-0.1563 -0.2026,-0.72627 -0.56928,-1.266602 -0.87891,-1.295144 -3.57971,-6.523593 -3.57971,-6.929919 0,-0.174924 -0.17232,-0.461066 -0.38295,-0.635865 -0.21062,-0.174802 -0.59367,-0.87399 -0.85122,-1.553753 -0.25754,-0.679762 -0.56602,-1.354992 -0.68551,-1.500512 -0.21088,-0.256837 -0.52086,-0.835049 -2.83544,-5.288992 -0.60422,-1.162698 -1.25569,-2.293792 -1.44772,-2.513541 -0.19204,-0.219753 -0.43554,-0.68243 -0.54114,-1.028171 -0.10559,-0.345739 -0.92335,-1.900084 -1.81723,-3.454096 -0.89388,-1.554012 -1.65771,-2.975885 -1.6974,-3.15972 -0.0397,-0.183835 -0.36711,-0.652338 -0.7276,-1.041117 -0.3605,-0.388779 -0.65545,-0.916448 -0.65545,-1.172596 0,-0.256149 -0.11907,-0.465725 -0.26459,-0.465725 -0.14552,0 -0.26458,-0.17585 -0.26458,-0.390776 0,-0.723903 -1.25375,-1.258372 -3.11154,-1.326439 -0.98079,-0.03593 -2.73575,-0.268853 -3.89992,-0.517599 -2.57083,-0.549306 -7.60757,-0.579453 -8.36339,-0.05006 -0.27323,0.191379 -0.43513,0.409612 -0.35978,0.484963 0.36082,0.360823 -0.73624,0.70716 -2.65391,0.837822 -2.6313,0.179284 -3.85391,0.411702 -4.36563,0.829902 -1.69519,1.385401 -7.20973,2.085554 -11.37708,1.44449 -0.94589,-0.145505 -4.27964,-0.318749 -7.40833,-0.384987 -3.1287,-0.06624 -6.41337,-0.190328 -7.29926,-0.275754 -1.66751,-0.160795 -3.17957,-0.865108 -3.46736,-1.615083 -0.19324,-0.503576 0.26651,-1.315749 0.68984,-1.218623 0.16017,0.03675 0.83355,-0.05472 1.49641,-0.203274 1.93282,-0.433152 13.77477,-0.268917 15.9887,0.221747 2.15179,0.476893 4.49792,0.652968 4.49792,0.337566 0,-0.159811 0.31555,-0.290563 0.70123,-0.290563 0.38568,0 1.30841,-0.284826 2.05052,-0.632946 1.62344,-0.761551 2.27775,-1.0243 2.8045,-1.126202 2.64428,-0.511545 3.39745,-0.748398 3.9165,-1.231619 0.54518,-0.507556 1.04572,-0.58913 4.7625,-0.77615 6.34409,-0.319223 5.97829,-0.341469 9.84183,0.598548 0.98315,0.239207 2.64853,0.161515 5.02218,-0.234291 2.3168,-0.386329 2.8282,-0.02119 4.40751,3.14684 0.54168,1.086588 1.13315,2.094674 1.31438,2.240195 0.18123,0.145521 0.58842,0.770599 0.90485,1.389063 0.31644,0.618463 0.65777,1.124479 0.75852,1.124479 0.10075,0 0.57805,0.826812 1.06066,1.837362 0.48262,1.010549 1.10255,2.041035 1.37761,2.289966 0.27507,0.24893 0.50012,0.610846 0.50012,0.804256 0,0.547624 1.35132,3.184411 2.86106,5.582708 0.75475,1.198957 1.37228,2.288847 1.37228,2.421983 0,0.265808 2.46723,5.169297 2.8528,5.669793 0.13205,0.171402 0.39943,0.899811 0.59419,1.618684 0.19475,0.718875 0.64475,1.75098 0.99999,2.293567 0.35524,0.542586 0.65733,1.085508 0.67131,1.206497 0.0515,0.445336 1.39932,1.358998 2.42487,1.643711 1.16158,0.322471 6.26731,0.405167 5.77701,0.09357 -0.3559,-0.226182 2.3211,-0.184682 4.34092,0.0673 0.76408,0.09532 1.54127,0.325355 1.72711,0.511188 0.18583,0.185835 0.75131,0.478597 1.25661,0.650587 1.94347,0.661492 2.12162,1.032581 2.80962,5.852583 0.0935,0.654843 0.28585,1.265861 0.4275,1.357815 0.50951,0.33075 2.42483,6.37387 2.69586,8.505854 0.0514,0.40455 0.21353,0.8808 0.36023,1.058333 0.14669,0.177535 0.34802,0.799039 0.44741,1.381122 0.24138,1.413738 1.20957,4.346758 1.49261,4.521687 0.12437,0.07686 0.22686,0.698272 0.22775,1.380908 8e-4,0.682635 0.17949,1.582187 0.39688,1.999004 0.21738,0.416816 0.39524,0.909222 0.39524,1.094234 0,0.185013 0.17787,0.677418 0.39525,1.094235 0.21738,0.416816 0.39598,0.942395 0.39687,1.167953 8e-4,0.225557 0.10203,0.523213 0.22472,0.661458 0.1227,0.138245 0.43423,0.965729 0.69228,1.838854 0.25805,0.873125 0.68746,1.971118 0.95425,2.439988 0.26678,0.46887 0.38358,0.91521 0.25956,0.99186 -0.2524,0.15599 0.38144,2.49189 0.78592,2.89637 0.14295,0.14295 0.2599,0.59329 0.2599,1.00074 0,0.40746 0.0994,0.74084 0.22085,0.74084 0.19438,0 0.34637,0.66776 1.00866,4.43177 0.0832,0.47294 0.25734,0.85989 0.38694,0.85989 0.1296,0 0.23564,0.3014 0.23564,0.66977 0,0.36837 0.17859,0.73829 0.39687,0.82205 0.21828,0.0838 0.39688,0.43019 0.39688,0.76984 0,0.33964 0.11906,0.69112 0.26458,0.78105 0.14552,0.0899 0.26458,0.44713 0.26458,0.79375 0,0.34663 0.12222,0.70577 0.2716,0.79809 0.14939,0.0923 0.24347,0.30771 0.20908,0.47864 -0.0344,0.17092 0.0736,0.55605 0.23998,0.85584 0.16638,0.29978 0.66155,1.58127 1.10038,2.84774 0.43882,1.26647 0.89025,2.44994 1.00316,2.62993 0.11292,0.18 0.17281,0.52507 0.1331,0.76684 -0.0397,0.24177 0.0526,0.51669 0.20504,0.61093 0.15249,0.0942 0.27725,0.4474 0.27725,0.78479 0,0.3374 0.18016,0.76297 0.40037,0.94573 0.2202,0.18275 0.3789,0.46522 0.35266,0.62771 -0.12157,0.75297 0.44011,2.27557 1.32902,3.60271 l 0.97468,1.45521 2.065,0.0777 c 2.04745,0.077 2.06333,0.0725 1.86985,-0.52916 -0.31604,-0.98284 -0.3531,-3.90492 -0.0748,-5.89849 0.14219,-1.01865 0.30914,-2.35695 0.37098,-2.97402 0.0618,-0.61706 0.29947,-1.98627 0.52806,-3.04271 0.47687,-2.20393 0.94715,-4.91155 0.954,-5.49266 0.003,-0.21827 0.115,-0.69453 0.24984,-1.05833 0.40744,-1.0993 1.47117,-6.02435 1.68578,-7.80521 0.0526,-0.43656 0.23162,-1.32953 0.39779,-1.98437 0.16617,-0.65485 0.47701,-2.0836 0.69074,-3.175 0.21374,-1.091403 0.52617,-2.579684 0.6943,-3.307288 0.16812,-0.727604 0.28421,-1.610839 0.25798,-1.962745 -0.0262,-0.351907 0.11712,-0.828157 0.31856,-1.058334 0.33938,-0.387786 0.67103,-2.30918 0.78011,-4.519546 0.0251,-0.509323 0.1758,-1.064643 0.33481,-1.234045 0.15901,-0.169403 0.43368,-1.419559 0.61039,-2.778125 0.17671,-1.358567 0.37882,-2.767777 0.44914,-3.131579 0.0703,-0.363803 0.13929,-0.840052 0.15327,-1.058334 0.014,-0.218281 0.11185,-0.515937 0.21747,-0.661458 0.24926,-0.343434 0.63315,-1.78195 0.55867,-2.09346 -0.0317,-0.132757 0.0628,-0.549476 0.21009,-0.926042 0.29196,-0.7464 0.62376,-4.04505 0.57076,-5.674386 -0.0182,-0.561533 0.10317,-1.185291 0.26985,-1.386128 0.45652,-0.550071 0.91718,-6.957436 0.54326,-7.556182 -0.25498,-0.408281 -0.19246,-0.507381 0.42826,-0.678852 1.15103,-0.317969 3.56317,-0.154213 4.43098,0.30081 0.43657,0.228904 0.95813,0.416922 1.15903,0.417819 0.2009,7.94e-4 0.94532,0.418349 1.65426,0.927672 0.70894,0.509323 1.35079,0.926041 1.42634,0.926041 0.46652,0 3.86432,3.067328 6.34371,5.726703 1.60073,1.716936 3.15281,3.363232 3.44908,3.658435 0.92228,0.91897 2.14438,2.604739 2.73879,3.777883 0.31337,0.618463 0.66972,1.124479 0.7919,1.124479 0.24821,0 0.59301,-0.452808 2.15154,-2.825517 0.59064,-0.899192 1.365266,-1.911223 1.721401,-2.248959 0.356137,-0.337735 0.65011,-0.733128 0.653275,-0.878649 0.0069,-0.31908 1.803627,-2.978505 3.44297,-5.096224 0.654843,-0.845934 1.401709,-1.950347 1.659704,-2.454251 0.257993,-0.503907 1.091431,-1.58428 1.852084,-2.400835 1.052687,-1.130051 1.659001,-1.551768 2.538584,-1.765696 1.304383,-0.317249 1.661491,-0.232593 2.879315,0.682577 0.614389,0.461693 0.859896,0.859401 0.859896,1.392925 0,0.410702 0.108691,0.813914 0.241565,0.896025 0.430371,0.26598 0.662464,2.355032 0.942313,8.480896 0.08641,1.89177 0.265721,4.213489 0.398436,5.159374 0.132742,0.945886 0.315675,2.595171 0.406533,3.66508 0.09086,1.069909 0.236537,2.131237 0.32377,2.358506 0.08819,0.229849 0.0463,0.34385 -0.09438,0.256895 -0.286834,-0.177268 0.539909,7.955989 0.934932,9.197644 0.13888,0.436562 0.333402,1.36076 0.432276,2.053775 0.09887,0.693012 0.27395,1.318223 0.389044,1.389356 0.115093,0.07113 0.28874,0.754279 0.385895,1.518102 0.180604,1.420038 0.843518,3.570588 1.239599,4.021378 0.12147,0.13823 0.220848,0.5252 0.220848,0.85988 0,0.3347 0.1261,0.60855 0.280193,0.60855 0.15412,0 0.207249,0.11805 0.118057,0.26233 -0.08916,0.14429 0.01641,0.88843 0.234898,1.65365 0.21836,0.76522 0.65479,2.58193 0.969856,4.03714 0.315066,1.45521 0.738135,3.02101 0.940118,3.47957 0.202009,0.45855 0.371078,1.05387 0.375708,1.32292 0.0045,0.26905 0.183224,0.72029 0.396875,1.00277 0.213651,0.28247 0.388461,0.77488 0.388461,1.09423 0,0.31936 0.177853,0.92168 0.395235,1.33849 0.217408,0.41682 0.396002,0.95163 0.396875,1.18848 0,0.23684 0.180234,0.57884 0.398515,0.76 0.218282,0.18116 0.396875,0.73152 0.396875,1.22302 0,0.4915 0.119063,0.89364 0.264584,0.89364 0.145521,0 0.264583,0.35016 0.264583,0.77814 0,0.42797 0.105569,0.84338 0.23458,0.92312 0.129037,0.0797 0.310859,0.55152 0.404071,1.0484 0.09321,0.49688 0.315093,0.95782 0.493025,1.0243 0.658971,0.24621 9.242081,-0.87647 10.849795,-1.41917 0.995336,-0.33598 2.532407,-0.59086 3.893529,-0.64564 1.236928,-0.0498 3.932397,-0.17321 5.989956,-0.27432 3.812143,-0.18731 12.303998,0.23737 13.900229,0.69515 1.218962,0.3496 1.843432,0.083 2.710815,-1.1572 1.036162,-1.48155 2.269834,-3.58704 2.269834,-3.87388 0,-0.12759 0.614627,-1.22368 1.365859,-2.43575 1.217295,-1.96406 2.250784,-3.42327 6.151906,-8.68606 0.593302,-0.80037 1.376919,-2.01437 1.741409,-2.69779 0.36449,-0.68342 0.939456,-1.57639 1.277699,-1.98438 0.338243,-0.40798 0.834919,-1.11629 1.103762,-1.57401 0.413782,-0.70455 0.696939,-0.86085 1.84584,-1.01886 1.197663,-0.16472 1.472829,-0.10642 2.3427,0.4964 0.75139,0.52072 1.06672,0.98293 1.326806,1.9449 0.187642,0.69403 0.444526,1.44046 0.570865,1.65874 0.126338,0.21828 0.743638,1.39626 1.371759,2.61774 0.628094,1.22147 1.35038,2.35144 1.605042,2.51104 0.254661,0.15959 0.467862,0.41036 0.473763,0.55726 0.0058,0.1469 0.363114,0.6793 0.79375,1.18313 0.430662,0.50383 0.7830075,1.05092 0.7830075,1.21576 0,0.16485 0.2083594,0.4893 0.4630208,0.721 0.2546615,0.2317 0.6552142,0.8157 0.8901378,1.29778 0.7186877,1.47478 1.7492133,3.72113 2.3138606,5.04368 0.2951163,0.69123 0.5971911,1.25677 0.6713273,1.25677 0.07411,0 0.3267075,-0.44648 0.5613136,-0.99218 0.2346325,-0.54571 0.763614,-1.70657 1.1755438,-2.57969 1.0441252,-2.21309 1.7724967,-4.08095 1.9878411,-5.09775 0.21717,-1.02543 1.88523562,-6.3145 2.23070208,-7.07308 0.1325298,-0.29105 0.55975252,-1.36261 0.94935152,-2.38125 0.3895989,-1.01865 0.9363075,-2.22333 1.2149137,-2.67707 0.2786063,-0.45373 0.5065713,-1.123689 0.5065713,-1.48879 0,-0.365101 0.3369998,-1.541674 0.7488767,-2.614604 1.262724,-3.289353 2.7100213,-7.570536 3.0713892,-9.085355 0.1029494,-0.431514 0.4026429,-1.264952 0.6660092,-1.852084 0.2633927,-0.587131 0.9932194,-2.377199 1.6218429,-3.977928 0.6286501,-1.600729 1.2201789,-2.969948 1.3144769,-3.042708 0.09432,-0.07276 0.500856,-1.144323 0.903393,-2.38125 0.731388,-2.247381 3.368305,-7.937568 4.590627,-9.906084 0.35605,-0.573397 0.958982,-1.587191 1.33985,-2.252872 1.795568,-3.138267 2.813711,-4.475548 3.470619,-4.558529 0.969222,-0.122431 3.257656,0.511405 3.621511,1.003067 0.172826,0.233521 0.523769,1.007297 0.779886,1.7195 0.25609,0.712206 0.561181,1.294919 0.677941,1.294919 0.116788,0 0.212329,0.234976 0.212329,0.522173 0,0.287195 0.419629,1.384396 0.932497,2.438223 0.512868,1.053827 0.876697,2.061408 0.808514,2.239065 -0.06816,0.177658 0.114723,0.626417 0.4064,0.997244 0.291703,0.370827 0.598805,1.122566 0.682466,1.670534 0.08366,0.547966 0.301361,1.174896 0.483764,1.393177 0.182404,0.218281 0.411798,0.774419 0.5098,1.235863 0.098,0.461447 0.468444,1.152189 0.823198,1.534988 0.354753,0.382797 0.645027,0.939382 0.645027,1.236853 0,0.297471 0.162613,0.856885 0.361342,1.24314 0.198755,0.386254 0.645239,1.325507 0.992187,2.087229 0.346975,0.761722 0.705697,1.3868 0.79719,1.389062 0.09149,0.0024 0.318267,0.391068 0.503978,0.86401 0.185711,0.472943 0.71419,1.455209 1.174406,2.182813 0.460217,0.727604 0.852091,1.604129 0.87085,1.947836 0.01879,0.343704 0.219101,0.829331 0.445214,1.079166 0.226087,0.249836 0.411084,0.653233 0.411084,0.896435 0,0.243202 0.119062,0.442188 0.264583,0.442188 0.145521,0 0.264583,0.169457 0.264583,0.376573 0,0.207119 0.327422,0.767366 0.727604,1.244997 0.400183,0.477628 0.587005,0.782479 0.415158,0.677442 -0.649922,-0.397251 -0.631455,0.401111 0.02434,1.057007 0.376687,0.376688 0.6849,0.884415 0.6849,1.128279 0,0.243866 0.238125,0.936255 0.529167,1.538639 0.291042,0.602388 0.529167,1.335389 0.529167,1.628894 0,0.343583 0.129328,0.484019 0.363087,0.394312 0.225584,-0.08656 0.415634,0.09194 0.501783,0.471323 0.252703,1.112644 1.142444,3.335083 1.514792,3.783753 0.290777,0.35035 0.301043,0.54678 0.04958,0.94943 -0.261038,0.41798 -0.245084,0.50768 0.09036,0.50768 0.224076,0 0.479399,0.20836 0.567373,0.46302 0.508053,1.47058 1.474681,3.96811 1.689682,4.36562 0.582771,1.0775 0.762212,1.48077 1.442244,3.24115 0.393488,1.01865 1.115986,2.71376 1.605518,3.76693 0.489558,1.05316 1.082675,2.57729 1.318048,3.38696 0.235373,0.80966 0.595577,1.79344 0.800497,2.18619 0.204893,0.39275 0.373274,0.93027 0.374147,1.1945 0,0.26423 0.133483,0.72677 0.294614,1.02786 0.272574,0.50928 0.443203,0.53492 2.447396,0.36785 1.184936,-0.0988 3.106923,-0.40623 4.271089,-0.68323 2.748413,-0.65396 4.322526,-0.0383 6.102008,-0.0383 1.205018,0 2.768519,-1.13297 3.359466,-1.74992 0.383302,-0.40018 0.894159,-1.20385 1.135221,-1.78593 0.241089,-0.58209 0.650002,-1.53459 0.908685,-2.11667 0.25871,-0.58208 1.024044,-2.72521 1.700716,-4.7625 0.676698,-2.03729 1.405202,-4.07935 1.618906,-4.5379 0.213704,-0.45856 0.38854,-0.96104 0.38854,-1.11664 0,-0.1556 0.282522,-0.91151 0.627804,-1.67981 0.345281,-0.76829 1.074843,-2.46846 1.621234,-3.77815 0.546391,-1.309682 1.387925,-3.274213 1.870102,-4.36562 0.48215,-1.091406 0.993113,-2.460625 1.135485,-3.042708 0.142373,-0.582083 0.635635,-2.010833 1.09609,-3.175 0.460481,-1.164166 1.02862,-2.682213 1.262512,-3.373437 l 0.425265,-1.256771 h 1.521407 c 0.836745,0 1.594961,0.119063 1.684893,0.264583 0.08993,0.145521 0.34372,0.264584 0.56396,0.264584 0.369067,0 2.373841,1.694352 6.209823,5.248288 l 1.523895,1.41183 0.809598,-1.41183 c 0.445294,-0.776507 0.810763,-1.605611 0.812112,-1.842455 0.0026,-0.236842 0.181081,-0.578842 0.399362,-0.76 0.218282,-0.181158 0.396875,-0.445632 0.396875,-0.587724 0,-0.142089 0.163354,-0.633526 0.363035,-1.092081 1.337257,-3.07117 1.753632,-4.112289 1.753632,-4.384876 0,-0.170482 0.535781,-1.58142 1.190625,-3.135416 0.654844,-1.553998 1.190625,-2.924201 1.190625,-3.044901 0,-0.120698 0.217064,-0.718934 0.482362,-1.329412 1.296804,-2.98409 3.014264,-8.1368 3.456604,-10.370381 0.14409,-0.727604 0.5035,-1.97776 0.79869,-2.778125 0.2952,-0.800364 0.54063,-1.70852 0.54539,-2.018125 0.0201,-1.307428 2.14601,-1.930746 3.71988,-1.090657 0.98049,0.523356 1.05151,0.651586 1.56213,2.82072 0.29421,1.249841 0.95991,3.522593 1.47928,5.050562 0.51938,1.527969 1.04619,3.168454 1.17071,3.645522 0.12451,0.477067 0.34927,1.015486 0.49948,1.196488 0.15023,0.181001 0.528,1.219422 0.83952,2.307603 0.50564,1.766361 0.71477,2.809042 1.21936,6.079553 0.0785,0.509323 0.31218,1.301224 0.51911,1.759778 0.20693,0.458555 0.37624,1.235763 0.37624,1.727132 0,0.812665 1.08937,4.597518 1.57599,5.475454 0.14504,0.261702 0.60865,-0.145564 1.65655,-1.455209 1.49294,-1.865828 3.05951,-3.398435 5.37332,-5.25686 0.72382,-0.581348 1.92088,-1.682676 2.66018,-2.447396 1.37308,-1.420323 2.1028,-1.665594 3.688,-1.239602 0.82822,0.222562 1.80726,1.82821 1.64166,2.692307 -0.0768,0.400826 -0.0324,1.324084 0.0988,2.051688 0.13115,0.727604 0.37584,2.152459 0.54374,3.166348 0.16965,1.024379 0.63995,2.453256 1.05855,3.21596 0.59361,1.081675 0.75324,1.711634 0.75324,2.972763 0,0.880131 0.13591,1.933263 0.30205,2.340292 0.96385,2.361425 1.3988,3.184165 1.97051,3.727323 0.35081,0.333312 0.63785,0.776542 0.63785,0.984954 0,0.474019 1.30789,3.263284 1.62084,3.456704 0.12719,0.0786 0.23125,0.42652 0.23125,0.77315 0,0.34663 0.11906,0.70381 0.26458,0.79375 0.14552,0.0899 0.26458,0.45415 0.26458,0.80937 0,0.35521 0.10301,0.64584 0.22887,0.64584 0.19299,0 1.30567,2.88644 1.46828,3.80889 0.10961,0.62173 0.75324,2.45954 1.2364,3.53041 0.27831,0.61688 0.51009,1.33126 0.51501,1.5875 0.005,0.25625 0.23902,0.94216 0.52019,1.52424 0.28118,0.58209 0.51525,1.18641 0.5202,1.34294 0.005,0.15655 0.27686,0.52656 0.60428,0.82227 0.50086,0.45235 1.20407,0.58443 4.43177,0.83241 2.11006,0.16212 4.61037,0.28357 5.55626,0.2699 0.94588,-0.0136 3.05106,0.0642 4.6782,0.173 3.34481,0.22368 4.20957,0.0948 4.45011,-0.663 0.11596,-0.36539 0.40042,-0.52855 0.92146,-0.52855 0,0 3.42717,2.87546 4.27114,1.80989 l -0.84397,1.06557 1.26519,0.21196 c 0.69583,0.11656 1.44375,0.18742 1.66203,0.15744 0.60735,-0.0834 27.6945,-0.0413 29.50104,0.0459 6.51794,0.31445 15.04924,0.45117 33.99896,0.54483 24.09788,0.11912 34.75938,0.29422 40.34896,0.66268 2.03729,0.13429 6.85933,0.31275 10.71563,0.39656 3.8563,0.0838 10.82146,0.2697 15.47812,0.41309 4.65667,0.14339 17.87261,0.33017 29.36875,0.41507 11.49615,0.0849 21.4974,0.2067 22.225,0.27068 0.72761,0.064 5.98533,0.1715 11.68379,0.23893 5.69849,0.0674 12.12787,0.2341 14.2875,0.37039 4.43156,0.27965 15.77012,0.16689 23.10892,-0.22982 5.64756,-0.30528 15.50496,-0.57769 23.18944,-0.64083 4.87836,-0.0401 5.37837,-0.0875 5.90026,-0.55984 0.55573,-0.50296 0.5929,-0.50381 1.46616,-0.0335 0.78618,0.42338 1.3925,0.46856 4.94766,0.36869 2.30288,-0.0647 4.28929,-0.24374 4.60216,-0.41481 0.73834,-0.4037 6.07462,-1.07544 7.32681,-0.92231 0.54899,0.0671 1.32289,0.004 1.7198,-0.14092 2.76484,-1.00754 3.76507,-1.2123 4.74265,-0.97084 1.39044,0.34342 1.49836,1.2868 0.31562,2.75857 -1.08606,1.35148 -2.23099,1.67718 -5.28955,1.50477 -2.30343,-0.12984 -2.73732,-0.0699 -5.52934,0.76348 -0.83632,0.24964 -3.12531,0.52343 -5.38218,0.64376 -2.15985,0.11516 -4.03849,0.32089 -4.17478,0.45718 -0.15401,0.154 -0.0446,0.50607 0.28895,0.93016 0.29522,0.37531 0.53676,0.79785 0.53676,0.93898 0,0.14113 0.19193,0.41589 0.42654,0.61059 0.66161,0.5491 1.97678,3.45782 1.80628,3.99498 -0.20672,0.65136 -1.09284,1.08535 -1.83544,0.89897 -0.58634,-0.14717 -2.85888,-2.77855 -3.57196,-4.13602 -0.18785,-0.35764 -0.68154,-1.08411 -1.09704,-1.61437 -0.4155,-0.53026 -0.75546,-1.15534 -0.75546,-1.38906 0,-0.36714 -0.47691,-0.42951 -3.50573,-0.45847 -1.92815,-0.0184 -3.98198,-0.0415 -4.56406,-0.0512 -1.13996,-0.019 -15.24879,0.32162 -20.24063,0.48871 -1.67349,0.056 -5.42396,0.17784 -8.33437,0.27073 -2.91042,0.0929 -6.3037,0.20523 -7.54063,0.24965 -1.23693,0.0444 -4.10382,-0.0356 -6.37088,-0.17791 -2.26708,-0.14227 -8.04161,-0.29225 -12.83229,-0.33327 -4.7907,-0.041 -10.8535,-0.21726 -13.47287,-0.39164 -4.21442,-0.28057 -26.14639,-0.6904 -30.48553,-0.56966 -0.90527,0.0252 -1.89513,-0.0876 -2.19972,-0.25058 -0.39169,-0.20963 -0.65281,-0.21419 -0.8921,-0.0156 -0.19687,0.1634 -1.37882,0.2583 -2.82736,0.22701 -1.36896,-0.0296 -4.54118,-0.0205 -7.04932,0.0201 -2.50815,0.0406 -4.65609,0.0147 -4.77319,-0.0577 -0.11711,-0.0724 -2.98799,-0.19462 -6.37971,-0.27165 -3.78704,-0.086 -6.29857,-0.24944 -6.5083,-0.42349 -0.23117,-0.19186 -0.96094,-0.20944 -2.25888,-0.0544 -2.06137,0.2462 -3.1686,0.14964 -3.1686,-0.27632 0,-0.17836 -0.10909,-0.17842 -0.33073,-1.8e-4 -0.38899,0.31281 -2.53468,0.35028 -2.7218,0.0475 -0.0708,-0.11458 -0.57382,-0.14466 -1.11781,-0.0669 -2.00319,0.2865 -12.38462,0.0517 -15.54112,-0.35154 -1.01079,-0.12912 -14.00024,-0.39091 -17.19792,-0.34661 -1.58109,0.0219 -10.32671,-0.0656 -11.94644,-0.11956 -1.24687,-0.0415 -2.12675,-0.21664 -2.57969,-0.51341 -0.37809,-0.24773 -0.68741,-0.34305 -0.68741,-0.21182 0,0.13122 -0.36819,0.39108 -0.8182,0.57748 -0.6596,0.27322 -0.85831,0.27396 -1.02526,0.004 -0.1406,-0.22746 -0.48273,-0.27454 -1.06529,-0.14659 -0.54607,0.11993 -1.0959,0.0613 -1.5118,-0.16133 -0.56902,-0.30453 -0.68654,-0.29101 -0.90781,0.10438 -0.22191,0.39651 -0.73967,0.45419 -4.0775,0.45419 -2.10685,0 -3.82331,-0.10758 -3.82331,-0.23961 0,-0.13665 -1.12358,-0.1777 -2.61477,-0.0955 -2.15768,0.11889 -2.72298,0.0683 -3.23387,-0.28956 -0.76811,-0.53805 -1.03044,-0.54741 -1.03044,-0.0368 0,0.26459 -0.26459,0.39688 -0.79375,0.39688 -0.4377,0 -0.79375,-0.14137 -0.79375,-0.31516 0,-0.17333 -0.15825,-0.0987 -0.35166,0.16577 -0.31512,0.43096 -0.45122,0.44492 -1.30985,0.13444 -0.6931,-0.25063 -1.12649,-0.27055 -1.56657,-0.072 -0.39666,0.17897 -1.2069,0.19357 -2.32817,0.0419 -0.94589,-0.12791 -2.96995,-0.22478 -4.49792,-0.21526 -4.78904,0.0298 -8.44637,-0.27852 -8.28522,-0.69849 0.0842,-0.21939 -0.0355,-0.36419 -0.30104,-0.36419 -0.24244,0 -0.37558,0.10553 -0.29588,0.2345 0.0797,0.12898 -0.0621,0.28465 -0.3151,0.34594 -0.94792,0.22961 -9.03784,-0.0213 -9.55161,-0.29628 -0.68967,-0.3691 -1.44082,-0.36159 -1.8206,0.0182 -0.18584,0.18585 -1.64404,0.33741 -3.78402,0.3933 -2.90573,0.0759 -3.45808,0.0295 -3.33912,-0.28047 0.18505,-0.48228 -0.64122,-0.80265 -0.92334,-0.35801 -0.11856,0.18683 -0.21738,0.43727 -0.21961,0.55653 -0.007,0.39986 -1.19467,0.0529 -1.19467,-0.34913 0,-0.44447 -0.36571,-0.7836 -0.85159,-0.7897 -0.17793,-0.002 -0.25445,0.17311 -0.17071,0.3913 0.0834,0.21745 0.28805,0.31366 0.45472,0.2138 0.16666,-0.0999 0.13118,0.03 -0.0788,0.28863 -0.38325,0.47193 -1.15991,0.47911 -2.24126,0.0207 -0.3587,-0.15205 -0.45061,-0.12437 -0.31512,0.0949 0.13012,0.21057 -0.0675,0.30955 -0.61807,0.30955 -1.00261,0 -1.04775,0.46982 -0.1479,1.53924 0.3638,0.43236 0.66146,0.87181 0.66146,0.97656 0,0.10476 0.59531,0.87764 1.32291,1.71753 0.72761,0.83988 1.32292,1.68011 1.32292,1.86718 0,0.18706 0.18934,0.54931 0.42072,0.805 0.46847,0.51764 0.35602,1.09629 -0.40484,2.08351 -0.49615,0.64375 -0.51369,0.64637 -1.05397,0.15743 -0.30218,-0.27347 -0.55131,-0.62759 -0.55364,-0.78694 -0.003,-0.15935 -0.32975,-0.67108 -0.72761,-1.13718 -1.4166,-1.65961 -2.35937,-2.86795 -2.84813,-3.65046 -0.27268,-0.43656 -0.94795,-1.29711 -1.50061,-1.91232 -0.55266,-0.61521 -1.00484,-1.28331 -1.00484,-1.48466 0,-0.25331 -0.2159,-0.32483 -0.70077,-0.23213 -0.48374,0.0925 -0.64281,0.0401 -0.51356,-0.16899 0.10298,-0.16662 0.0682,-0.30294 -0.0774,-0.30294 -0.14552,0 -0.33896,0.12034 -0.42984,0.26742 -0.10462,0.16927 -0.37473,0.12072 -0.73597,-0.13229 -0.65151,-0.45634 -1.09156,-0.52631 -0.84979,-0.13513 0.0899,0.14552 -0.022,0.26458 -0.24897,0.26458 -0.22685,0 -0.41431,-0.14883 -0.41653,-0.33073 -0.003,-0.25022 -0.0527,-0.25421 -0.20394,-0.0164 -0.12957,0.2038 -1.29212,0.34826 -3.30597,0.41079 -3.13659,0.0974 -4.14243,-0.0786 -3.36521,-0.5888 0.31117,-0.20427 0.23976,-0.2614 -0.33073,-0.26458 -0.47218,-0.003 -0.72761,0.13528 -0.72761,0.39283 0,0.26867 -0.27776,0.40111 -0.85989,0.40999 -0.47294,0.007 -2.15334,0.0772 -3.7342,0.1556 -2.03626,0.10094 -2.82241,0.0585 -2.69637,-0.14541 0.0979,-0.15834 0.40905,-0.28789 0.69149,-0.28789 0.28247,0 0.51356,-0.10269 0.51356,-0.2282 0,-0.30667 -1.26053,-0.15296 -1.69368,0.20653 -0.19002,0.15771 -0.63082,0.27786 -0.97957,0.267 -0.34872,-0.0108 -2.17085,0.0676 -4.04915,0.17424 -2.35622,0.13381 -3.36209,0.10813 -3.24409,-0.0828 0.34595,-0.55972 -0.52773,-0.91538 -1.55315,-0.63226 -0.86442,0.23868 -0.98735,0.21124 -1.10723,-0.24716 -0.0742,-0.28361 -0.22019,-0.51566 -0.32449,-0.51566 -0.41373,0 -0.49564,0.34684 -0.19608,0.83035 0.25011,0.40375 0.24037,0.55525 -0.0472,0.73426 -0.59849,0.3725 -10.0856,0.66093 -10.42946,0.31708 -0.16179,-0.1618 -0.4192,-0.29237 -0.572,-0.29014 -0.1528,0.002 -0.0992,0.11947 0.11906,0.26053 0.3193,0.20635 0.27745,0.25728 -0.21404,0.26054 -0.33603,0.002 -0.54812,-0.0976 -0.47133,-0.22185 0.25696,-0.41575 -1.14398,-0.86322 -1.72652,-0.55146 -0.29125,0.15588 -0.86502,0.20974 -1.27505,0.11968 -0.51747,-0.11365 -0.88291,-0.0263 -1.19472,0.28548 -0.52414,0.52413 -2.73741,0.59339 -3.95243,0.12369 -0.87133,-0.33685 -1.1715,-0.19828 -0.728,0.33609 0.25048,0.30183 0,0.39331 -1.45291,0.52891 -1.94945,0.18204 -3.17897,-0.15607 -1.72709,-0.47495 0.46225,-0.10153 0.77287,-0.29398 0.69024,-0.42765 -0.27191,-0.43996 -1.18869,-0.25393 -1.87227,0.37992 -0.59481,0.55154 -1.01063,0.64101 -3.62646,0.7802 -1.77604,0.0945 -2.98981,0.0571 -3.04281,-0.0938 -0.11763,-0.33477 -0.83786,-0.32313 -0.83786,0.0135 0,0.14552 -0.11057,0.26458 -0.24569,0.26458 -0.39423,0 -1.09627,-0.81347 -0.93176,-1.07966 0.0827,-0.13379 -0.0282,-0.24325 -0.24653,-0.24325 -0.21829,0 -0.47046,0.11906 -0.56039,0.26458 -0.0899,0.14552 -0.0374,0.26458 0.11668,0.26458 0.15409,0 0.28019,0.11104 0.28019,0.24676 0,0.41321 -1.00459,0.59437 -1.582102,0.28529 -0.41783,-0.22361 -0.673418,-0.20021 -1.103472,0.10101 -0.371766,0.26039 -0.969909,0.35368 -1.781333,0.27784 -1.111885,-0.10394 -4.351047,-0.3647 -5.322676,-0.42851 -0.218282,-0.0143 -0.992188,-0.008 -1.719792,0.0131 -0.727604,0.0215 -2.327434,0.0446 -3.555206,0.0514 -1.227746,0.007 -2.318888,0.0658 -2.424774,0.13127 -0.105887,0.0654 -0.25318,-0.0306 -0.32729,-0.2134 -0.08998,-0.22202 -0.207301,-0.24176 -0.353325,-0.0594 -0.131021,0.1636 -1.986994,0.29544 -4.633013,0.32912 -4.242197,0.054 -4.421187,0.035 -4.586525,-0.48593 -0.194495,-0.61279 -0.826744,-0.54431 -0.718212,0.0778 -2.84247,0.6329 -4.541648,0.63956 -9.198531,0.69466 0,-0.12492 -0.185631,-0.22712 -0.412485,-0.22712 -0.22688,0 -0.346313,0.1071 -0.265404,0.23801 0.202777,0.32809 -2.285841,0.52511 -2.695548,0.2134 -0.216085,-0.1644 -0.469133,-0.13675 -0.730038,0.0798 -0.407803,0.33844 -2.926663,0.43475 -8.19965,0.31352 -1.455208,-0.0335 -3.89599,0.0493 -5.423958,0.18397 -1.527969,0.13464 -5.132891,0.26091 -8.010922,0.28061 -2.878032,0.0197 -5.386123,0.0946 -5.573528,0.16656 -0.187404,0.0719 -0.621982,0.0267 -0.965729,-0.10046 -0.343747,-0.12716 -1.109874,-0.14276 -1.702514,-0.0347 -2.128917,0.38828 -7.343326,0.53623 -7.725331,0.21918 -0.273685,-0.22712 -0.460904,-0.22107 -0.756735,0.0245 -0.487865,0.40489 -5.233617,0.65268 -16.4079505,0.85672 -2.1828126,0.0399 -4.0302128,0.15353 -4.1053545,0.25262 -0.075142,0.0991 -2.2182667,0.24302 -4.7625001,0.31986 -10.3586759,0.31287 -12.9464329,0.4333 -15.4738129,0.72011 -1.455208,0.16513 -4.431771,0.33435 -6.614583,0.37604 -2.182813,0.0417 -4.568905,0.1978 -5.302409,0.34693 -0.733531,0.14913 -3.352906,0.34819 -5.820834,0.44236 -2.467954,0.0942 -4.923128,0.26555 -5.455973,0.38085 -0.532817,0.1153 -2.199693,0.23132 -3.704166,0.25782 -1.504448,0.0265 -3.092556,0.0885 -3.529119,0.13789 -0.436562,0.0493 -0.983879,-0.0113 -1.216236,-0.13471 -0.232357,-0.12343 -0.530014,-0.12291 -0.661459,0.001 -0.131445,0.12406 -1.786784,0.29021 -3.678555,0.36922 -1.891771,0.079 -4.094427,0.20624 -4.894792,0.28274 -1.403958,0.13419 -5.854832,0.39302 -7.077604,0.41158 -1.124664,0.0171 -0.621982,0.9412 1.741937,3.20236 2.013824,1.92626 2.361751,2.38871 2.514124,3.34165 0.104325,0.65244 0.0681,1.17321 -0.08829,1.26989 -0.145839,0.0901 -0.265166,0.39497 -0.265166,0.67742 0,0.87787 -0.738611,0.56686 -1.645258,-0.69278 -1.900926,-2.641 -1.923442,-2.65975 -2.698009,-2.24522 -0.661565,0.35406 -0.748004,0.32129 -1.760935,-0.66774 -0.585893,-0.57205 -1.375701,-1.67459 -1.755166,-2.45011 -0.379439,-0.77551 -0.939218,-1.55205 -1.243913,-1.72564 -0.351049,-0.2 -1.47484,-0.28855 -3.067552,-0.24172 -1.382448,0.0406 -4.894792,0.12976 -7.805209,0.19804 -4.564973,0.1071 -7.490854,0.25146 -16.139583,0.79628 -0.873119,0.055 -2.123279,0.15724 -2.778119,0.22719 -0.65485,0.07 -3.21469,0.20125 -5.68855,0.29179 -2.47385,0.0905 -5.50994,0.27986 -6.74687,0.42072 -2.51133,0.28599 -8.71813,0.57178 -11.42475,0.52606 -0.97211,-0.0164 -2.75804,0.0956 -3.96875,0.24887 -2.29577,0.29071 -16.67535,0.62338 -23.76484,0.5498 -41.62606,-0.43198 -45.25445,-0.44942 -46.0375,-0.22137 -0.3638,0.10596 -0.97146,0.25347 -1.35036,0.3278 -0.63393,0.12437 -0.70555,0.27805 -0.89745,1.92577 -0.1147,0.98483 -0.20091,2.16605 -0.19158,2.62492 0.0153,0.75268 -0.0781,0.85397 -0.95464,1.03523 -1.42564,0.29481 -1.71204,0.28603 -2.27086,-0.0696 -0.54495,-0.34685 -0.67456,-0.92345 -0.76143,-3.3874 l -0.056,-1.5875 -1.05833,0.0276 c -0.58209,0.0152 -2.24896,0.17635 -3.70417,0.35822 -1.45521,0.18186 -3.06255,0.37178 -3.57187,0.42203 -0.50933,0.0503 -1.46183,0.21482 -2.11667,0.36569 -0.65484,0.15088 -2.44078,0.45409 -3.96875,0.67381 -1.52797,0.21972 -3.37344,0.50708 -4.10104,0.63857 -0.72761,0.13148 -2.39448,0.37853 -3.70417,0.54898 -1.30969,0.17046 -3.09562,0.41604 -3.96875,0.54574 -0.87312,0.1297 -2.89719,0.30155 -4.49792,0.3819 -4.427,0.2222 -9.97781,1.11325 -12.7,2.03868 -0.9608,0.32663 -2.78866,0.62375 -4.6302,0.75263 -1.67349,0.11712 -3.4892,0.32953 -4.0349,0.47202 -0.5457,0.14249 -0.99219,0.20902 -0.99219,0.14785 0,-0.0612 -0.35127,0.0704 -0.78061,0.29245 -1.03654,0.53602 -2.02208,0.50098 -3.39142,-0.12054 z m 141.88766,-11.91165 c 1.74625,-0.13312 5.49672,-0.31412 8.33438,-0.40222 2.83765,-0.0881 6.76671,-0.27254 8.73125,-0.40986 1.96453,-0.13731 5.417339,-0.37051 7.672912,-0.51822 2.255573,-0.14771 5.470261,-0.37301 7.14375,-0.50069 1.67349,-0.12767 5.185834,-0.25968 7.805209,-0.29335 5.195305,-0.0668 6.217708,-0.0961 6.217708,-0.17857 0,-0.0299 -0.28022,-0.46734 -0.622723,-0.97205 -0.342503,-0.5047 -0.699717,-1.47924 -0.793803,-2.16563 -0.160893,-1.17383 -1.102042,-4.39651 -1.88812,-6.46522 -0.89273,-2.34941 -2.759445,-8.65403 -3.486123,-11.77395 -0.516943,-2.21951 -0.767874,-3.1666 -1.401974,-5.29167 -1.175676,-3.940016 -1.627585,-5.640543 -2.109365,-7.9375 -1.119055,-5.335058 -1.590701,-8.659153 -1.745657,-12.303124 -0.20203,-4.75075 -0.304461,-6.443961 -0.400148,-6.614583 -0.04081,-0.07276 -0.107259,-1.382448 -0.147674,-2.910417 -0.09705,-3.66913 -0.257408,-6.062022 -0.416926,-6.221539 -0.322815,-0.322816 -2.914877,2.659345 -3.667053,4.218935 -0.45148,0.936109 -1.109991,1.891458 -1.46336,2.122995 -0.35337,0.231537 -0.642491,0.588346 -0.642491,0.792911 0,0.204565 -0.40101,0.797134 -0.891138,1.316818 -0.490124,0.519684 -0.841592,0.94488 -0.781039,0.94488 0.06056,0 -0.236064,0.506016 -0.659154,1.124479 -1.075441,1.572059 -1.637419,2.725343 -1.637419,3.360298 0,0.298268 -0.09267,0.542306 -0.205944,0.542306 -0.202112,0 -0.907573,2.202842 -1.251283,3.907203 -0.220275,1.092282 -1.375375,1.762392 -2.596985,1.506595 -1.05411,-0.220723 -2.74901,-1.819865 -2.9634,-2.795981 -0.0891,-0.405524 -0.71943,-1.670394 -1.40081,-2.81082 -0.68138,-1.140425 -1.59606,-2.75877 -2.03262,-3.596322 -0.43656,-0.837552 -1.25251,-2.081808 -1.81321,-2.765012 -1.62531,-1.98042 -7.07042,-7.530801 -8.37325,-8.535122 -0.65484,-0.504807 -1.26464,-1.019191 -1.3551,-1.143074 -0.0905,-0.123883 -0.24379,0.173773 -0.34074,0.661458 -0.0969,0.487685 -0.29807,1.482013 -0.44693,2.209617 -0.14886,0.727605 -0.33506,2.776911 -0.41379,4.554017 -0.10201,2.3028 -0.24942,3.319306 -0.51308,3.538124 -0.20347,0.168865 -0.36994,0.528865 -0.36994,0.8 0,0.476353 -0.45893,2.59883 -0.73753,3.410984 -0.0749,0.218281 -0.17106,0.575469 -0.21372,0.79375 -0.0427,0.218281 -0.21746,0.898297 -0.38844,1.511149 -0.17098,0.612849 -0.25038,1.505818 -0.17646,1.984375 0.13451,0.870778 -0.39139,3.56675 -0.89488,4.587433 -0.14713,0.298281 -0.37545,1.429374 -0.50737,2.513542 -0.57513,4.726619 -0.80203,6.24532 -1.02584,6.866 -0.23812,0.660385 -0.56832,1.984205 -1.05592,4.233335 -0.14197,0.65484 -0.38185,1.66687 -0.53309,2.24896 -0.15123,0.58208 -0.2778,1.4666 -0.28127,1.96559 -0.003,0.49899 -0.11592,1.27289 -0.24989,1.71979 -0.55803,1.8615 -1.35688,6.05366 -1.74302,9.14691 -0.22708,1.81901 -0.52596,3.78354 -0.6642,4.36562 -0.13823,0.58209 -0.29587,1.59412 -0.35031,2.24896 -0.0544,0.65484 -0.16653,1.36922 -0.24909,1.5875 -0.0826,0.21828 -0.2109,0.75406 -0.28521,1.19063 -0.23516,1.38152 -0.82218,3.42021 -1.14143,3.96416 -0.26653,0.4541 -0.21299,0.56801 0.39854,0.84794 0.75503,0.34561 5.02607,0.27498 11.02517,-0.18234 z m 58.340626,-2.89392 c 3.176588,-0.27206 7.877255,-0.49826 14.155209,-0.68118 2.037292,-0.0594 4.808538,-0.23315 6.158309,-0.38621 1.349772,-0.15305 2.735766,-0.20759 3.079989,-0.1212 0.975809,0.24492 1.058783,-0.33961 0.0907,-0.63899 -3.708585,-1.14686 -17.558465,-1.07252 -20.176914,0.1083 -0.68072,0.30698 -2.09677,0.54589 -3.96875,0.6696 -4.308925,0.28475 -6.482292,0.62683 -6.482292,1.02027 0,0.53763 1.154086,0.54239 7.14375,0.0294 z m 26.529507,-1.51252 c -0.179123,-0.0725 -0.53631,-0.0769 -0.79375,-0.01 -0.257413,0.0671 -0.11086,0.12638 0.325702,0.13178 0.436563,0.005 0.647198,-0.0495 0.468048,-0.12197 z m 7.734036,-0.49957 c 0.821557,-0.12677 14.423602,-0.90416 18.388542,-1.05095 1.2369269,-0.0458 2.2489582,-0.18589 2.2489582,-0.31133 0,-0.12543 -0.4317736,-1.11776 -0.9594586,-2.20518 -1.7248986,-3.55441 -2.3312706,-4.87326 -2.6728736,-5.81359 -0.605896,-1.66781 -6.444086,-11.09596 -6.878056,-11.10743 -0.10541,-0.003 -0.36314,0.32657 -0.572743,0.73189 -0.209603,0.40533 -0.691912,0.9033 -1.071774,1.1066 -0.490485,0.26251 -0.806742,0.76888 -1.091142,1.74721 -0.242861,0.8354 -0.659897,1.57136 -1.059656,1.86996 -0.362559,0.27082 -0.968032,0.9368 -1.34546,1.47995 -0.377428,0.54315 -0.790575,0.92308 -0.918077,0.84428 -0.127477,-0.0788 -0.231802,0.0364 -0.231802,0.25596 0,0.21957 -0.33647,0.91121 -0.747712,1.53697 -0.411242,0.62575 -1.24169,1.91165 -1.845496,2.85753 -0.603779,0.94589 -1.308549,2.01745 -1.566174,2.38125 -0.257625,0.3638 -0.733319,1.23126 -1.057143,1.92768 -0.447728,0.96301 -0.834364,1.37619 -1.614593,1.72551 -1.048121,0.46926 -2.693882,1.85098 -2.693882,2.2617 0,0.20956 3.825187,0.0495 5.688542,-0.23801 z m 52.700529,-0.69941 c -0.08445,-0.21106 -0.147161,-0.14837 -0.159861,0.15986 -0.01138,0.27891 0.05107,0.43518 0.138986,0.34726 0.08792,-0.0879 0.09731,-0.31612 0.0209,-0.50712 z m 0.529167,0 c -0.08445,-0.21106 -0.147161,-0.14837 -0.159861,0.15986 -0.01138,0.27891 0.05106,0.43518 0.138985,0.34726 0.08792,-0.0879 0.09731,-0.31612 0.0209,-0.50712 z m 374.805025,0.14065 c -0.17912,-0.0725 -0.53631,-0.0769 -0.79375,-0.01 -0.25741,0.0671 -0.11086,0.12638 0.3257,0.13177 0.43657,0.005 0.6472,-0.0495 0.46805,-0.12197 z M 37.773655,126.62536 c 0.08051,-0.13027 -0.01984,-0.30066 -0.223096,-0.37864 -0.387959,-0.14888 -0.6858,0.0227 -0.6858,0.39502 0,0.29547 0.724243,0.28243 0.908896,-0.0164 z m 6.692371,0.077 c -0.08792,-0.0879 -0.316124,-0.0973 -0.507127,-0.0209 -0.211058,0.0845 -0.148378,0.14716 0.159862,0.15985 0.278897,0.0115 0.435186,-0.051 0.347265,-0.13896 z M 59.75471,126.3387 c -0.194972,-0.31549 -1.458701,-0.36915 -1.458701,-0.0619 0,0.11457 0.365786,0.23618 0.812853,0.27025 0.498766,0.038 0.748321,-0.0425 0.645848,-0.20831 z M 6.7022578,125.90809 c 1.6734897,-0.0662 4.4714582,-0.17974 6.2177082,-0.25238 11.493236,-0.47807 16.288386,-0.6307 24.077084,-0.76637 3.783542,-0.0659 7.498107,-0.20061 8.254577,-0.29934 1.371097,-0.17894 1.374881,-0.18208 1.214464,-1.00416 -0.08853,-0.45356 -0.380021,-1.34055 -0.647806,-1.97108 -0.267785,-0.63052 -0.48686,-1.37514 -0.48686,-1.65471 0,-0.679 -2.838688,-8.43617 -4.300193,-11.75095 -0.641615,-1.45521 -1.736619,-4.13412 -2.433347,-5.95313 -0.696727,-1.81901 -1.597342,-4.021665 -2.001361,-4.89479 -0.404019,-0.873125 -1.130036,-2.599531 -1.61335,-3.836458 -0.78322,-2.004391 -1.660075,-3.809973 -5.075264,-10.451041 -0.523849,-1.018646 -1.270873,-2.566458 -1.660075,-3.439583 -0.389176,-0.873125 -1.102307,-2.420938 -1.584722,-3.439584 -0.482388,-1.018645 -1.372262,-3.340364 -1.97747,-5.159374 -0.605207,-1.819011 -1.19327,-3.545417 -1.306856,-3.836459 -0.658125,-1.686628 -0.813118,-1.984374 -1.033066,-1.984374 -0.513582,0 -3.353541,5.049705 -5.65449,10.054166 -0.720169,1.566312 -0.944694,2.014307 -1.547177,3.087005 -0.277363,0.493813 -0.504296,1.094126 -0.504296,1.334029 0,0.81571 -1.615149,4.86933 -2.787888,6.996871 -0.21291,0.386255 -0.387112,1.008457 -0.387112,1.382668 0,0.374213 -0.237675,1.070218 -0.528188,1.546677 -0.290486,0.476459 -0.528611,1.107689 -0.529166,1.402731 0,0.295045 -0.191532,0.808477 -0.4243921,1.140963 -0.2328863,0.332488 -0.3631142,0.835228 -0.2893748,1.117205 0.073739,0.281975 0.052546,0.512683 -0.047122,0.512683 -0.099669,0 -0.4035425,0.863204 -0.6752696,1.91823 -0.2717271,1.055026 -0.7743296,2.362348 -1.1169386,2.905159 -0.3425825,0.542811 -0.6228821,1.141396 -0.6228821,1.33019 0,0.188796 -0.1622425,0.578116 -0.3605477,0.865156 -0.1983052,0.28704 -0.4253971,0.87908 -0.5046133,1.31564 -0.2977357,1.64042 -1.0534386,4.00934 -1.6458672,5.15937 -0.7505435,1.45692 -1.4577219,3.69792 -1.4577219,4.61935 0,0.3759 -0.3445139,1.42509 -0.7655719,2.33153 -1.3821304,2.9753 -2.40942813,5.48231 -2.40942813,5.87988 0,0.66524 -1.63906737,3.55749 -2.69750647,4.75993 -0.5536671,0.629 -1.0066603,1.2019 -1.0066603,1.27311 0,0.1207 2.96055529,0.0522 10.3187499,-0.23876 z m 55.8270842,0.0437 c 0,-0.0642 -0.119062,-0.19026 -0.264583,-0.28019 -0.145521,-0.0899 -0.264583,-0.0374 -0.264583,0.11667 0,0.15411 0.119062,0.2802 0.264583,0.2802 0.145521,0 0.264583,-0.0525 0.264583,-0.11668 z m 13.157518,-0.57234 c -0.08792,-0.0879 -0.316124,-0.0973 -0.507127,-0.0209 -0.211058,0.0845 -0.148378,0.14715 0.159862,0.15985 0.278897,0.0115 0.435186,-0.051 0.347265,-0.13897 z m 27.19144,-0.36931 c -0.0899,-0.14552 -0.28257,-0.26459 -0.42809,-0.26459 -0.14553,0 -0.19101,0.11907 -0.10108,0.26459 0.0899,0.14552 0.28258,0.26458 0.4281,0.26458 0.14552,0 0.191,-0.11906 0.10107,-0.26458 z m -14.41979,-0.39688 c 0.269769,-0.32504 0.251671,-0.39687 -0.09991,-0.39687 -0.236088,0 -0.42926,0.17859 -0.42926,0.39687 0,0.21828 0.04495,0.39688 0.09991,0.39688 0.05493,0 0.248099,-0.1786 0.42926,-0.39688 z m 140.22917,0.13229 c 0,-0.33607 -0.80288,-0.33607 -1.32292,0 -0.30117,0.19463 -0.18949,0.25746 0.46302,0.26054 0.47295,0.002 0.8599,-0.11501 0.8599,-0.26054 z m 34.66042,-0.19 c 0,-0.46344 -0.65532,-0.42789 -1.05807,0.0574 -0.27938,0.33662 -0.22429,0.38789 0.36446,0.33917 0.38148,-0.0316 0.69361,-0.21003 0.69361,-0.39658 z m -132.96872,-0.46304 c -0.5721,-0.43272 -1.96879,-0.54387 -1.96879,-0.15668 0,0.13674 0.44649,0.29532 0.99219,0.3524 0.5457,0.0571 1.10424,0.1238 1.24119,0.14826 0.13697,0.0244 0.018,-0.13033 -0.26459,-0.34398 z m 2.12096,0.14216 c 0.0837,-0.13547 0.0437,-0.31337 -0.089,-0.39536 -0.13263,-0.082 -0.30945,0.0289 -0.39287,0.2463 -0.1645,0.42866 0.23301,0.55163 0.48183,0.14906 z m 2.26025,-0.0183 c 0.29017,-0.18753 0.0904,-0.25757 -0.74321,-0.26053 -0.69358,-0.002 -1.07606,0.0996 -0.97658,0.26053 0.20744,0.33562 1.20044,0.33562 1.71979,0 z m 15.50213,-0.72566 c -0.18349,-0.18349 -0.68546,0.18932 -0.68546,0.50909 0,0.17544 0.15182,0.15537 0.40328,-0.0533 0.2218,-0.18408 0.34877,-0.38917 0.28218,-0.45577 z m -57.174002,0.0581 c 5.093229,-0.0398 10.748702,-0.14818 12.567712,-0.24081 1.81901,-0.0926 5.27182,-0.27406 7.67291,-0.40317 9.26113,-0.49802 19.63727,-0.89343 24.0098,-0.91498 l 4.56293,-0.0225 -0.007,-0.66146 c -0.004,-0.3638 -0.1851,-0.89671 -0.40246,-1.18424 -0.21735,-0.28753 -0.75824,-1.65674 -1.20197,-3.04271 -0.44374,-1.38595 -1.09556,-3.09525 -1.44849,-3.79843 -0.35293,-0.70318 -0.64169,-1.4903 -0.64169,-1.74915 0,-1.17308 -2.72532,-8.47483 -4.05451,-10.86297 -3.22643,-5.7969 -3.73224,-6.892257 -3.84868,-8.334371 -0.047,-0.582083 -0.49059,-2.308489 -0.98576,-3.836458 -0.49516,-1.527969 -0.90037,-3.224609 -0.90048,-3.770312 -8e-5,-0.545703 -0.0675,-0.992188 -0.14983,-0.992188 -0.497,0 -1.13813,0.618427 -1.29572,1.249791 -0.24498,0.981536 -0.89181,1.660626 -1.58176,1.660626 -0.39701,0 -0.85251,0.450233 -1.53916,1.521354 -1.61533,2.519833 -2.15313,3.266583 -2.7545,3.824904 -0.31567,0.29306 -0.64537,0.817385 -0.73266,1.165164 -0.0873,0.347781 -0.33501,0.632328 -0.55054,0.632328 -0.2155,0 -0.39182,0.217371 -0.39182,0.483047 0,0.265673 -0.2925,0.757838 -0.65,1.093694 -0.80378,0.755092 -1.8246,0.617379 -3.3336,-0.449712 -0.75157,-0.531489 -1.07854,-0.98212 -1.20168,-1.656196 -0.29062,-1.590834 -0.8549,-3.665326 -1.53413,-5.63994 -0.35957,-1.045377 -0.84244,-3.031779 -1.07297,-4.414226 -0.87479,-5.245378 -2.59022,-12.346469 -3.49308,-14.459778 -0.19592,-0.458555 -0.35621,-0.96457 -0.35621,-1.124479 0,-0.542399 -0.44267,-0.294092 -0.77885,0.436861 -0.18405,0.400183 -0.68083,1.848221 -1.10398,3.217865 -0.42314,1.369645 -0.87362,2.619801 -1.00107,2.778125 -0.12745,0.158324 -0.44231,1.002239 -0.6997,1.875364 -0.25738,0.873125 -0.80652,2.311284 -1.22031,3.19591 -0.41378,0.884624 -0.75234,1.72479 -0.75234,1.867038 0,0.142245 -0.47625,1.480685 -1.05833,2.974308 -0.58209,1.493626 -1.05834,2.897267 -1.05834,3.119202 0,0.221937 -0.249286,0.753618 -0.55398,1.181512 -0.304695,0.427895 -0.584703,0.922526 -0.6223,1.099177 -0.06226,0.292786 -0.305065,0.849511 -1.582447,3.628478 -0.234103,0.509322 -0.594386,1.223697 -0.800629,1.587499 -0.694928,1.225789 -1.20314,2.589435 -1.20314,3.228216 0,1.368573 -1.365885,1.663478 -3.250803,0.701868 -1.158108,-0.59083 -1.7535,-1.18028 -1.767867,-1.750264 -0.0295,-1.17026 -5.156226,-6.891088 -5.914628,-6.600057 -0.216641,0.08313 -0.474107,0.516382 -0.572161,0.962776 -0.09803,0.446395 -0.287867,0.811628 -0.421825,0.811628 -0.133959,0 -0.243549,0.17812 -0.243549,0.395822 0,0.576292 -1.063811,3.562805 -1.626923,4.567409 -0.265801,0.474203 -0.617035,1.393339 -0.780495,2.04252 -0.163459,0.649182 -0.462571,1.317575 -0.664686,1.485315 -0.202115,0.16774 -0.36748,0.46495 -0.36748,0.66048 0,0.38426 -0.824071,2.27357 -1.086141,2.49012 -0.08805,0.0728 -0.31078,0.60854 -0.494982,1.19063 -0.184177,0.58208 -0.439553,1.17144 -0.567505,1.30968 -0.127953,0.13825 -0.232622,0.41791 -0.232622,0.62147 0,0.20357 -0.161369,0.7453 -0.35859,1.20386 -0.19722,0.45855 -0.632142,1.66717 -0.966496,2.68582 -0.334328,1.01864 -0.691039,1.97114 -0.792692,2.11667 -0.101626,0.14552 -0.687652,1.74085 -1.302226,3.54519 -0.614574,1.80433 -1.272249,3.53074 -1.461479,3.83645 -0.441934,0.714 -1.014201,3.08274 -0.79719,3.29976 0.09131,0.0913 1.971887,0.13259 4.179121,0.0918 2.207207,-0.0408 4.370281,0.0327 4.806844,0.1633 0.436562,0.13064 1.329531,0.17908 1.984375,0.10764 0.654844,-0.0714 5.357813,-0.16246 10.451042,-0.20227 z m 48.286462,0.13835 c 0,-0.14552 -0.0525,-0.26458 -0.11668,-0.26458 -0.0642,0 -0.19027,0.11906 -0.2802,0.26458 -0.0899,0.14552 -0.0374,0.26458 0.11668,0.26458 0.1541,0 0.2802,-0.11906 0.2802,-0.26458 z m 49.2125,0.14791 c 0,-0.0642 -0.11906,-0.19026 -0.26458,-0.2802 -0.14553,-0.0899 -0.26459,-0.0374 -0.26459,0.11668 0,0.1541 0.11906,0.28019 0.26459,0.28019 0.14552,0 0.26458,-0.0525 0.26458,-0.11667 z m -6.08542,-0.42079 c 0,-0.31676 -0.74628,-0.65652 -0.96395,-0.43887 -0.2317,0.2317 0.16131,0.71175 0.58269,0.71175 0.20971,0 0.38126,-0.1228 0.38126,-0.27288 z m -33.47863,-1.82948 c 0.21132,-0.34194 -1.56757,-0.80478 -3.10001,-0.80658 -1.34033,-0.002 -1.34147,-7.9e-4 -1.09617,0.63834 0.12623,0.32899 0.57568,0.41852 2.10105,0.41852 1.06725,0 2.01004,-0.11263 2.09513,-0.25028 z M 44.305927,107.2125 c -0.261303,-0.25936 -0.291703,-0.22897 -0.148114,0.14811 0.09935,0.26094 0.247306,0.40778 0.328771,0.32632 0.08147,-0.0815 1.59e-4,-0.29495 -0.180657,-0.47443 z m 77.455103,17.74757 c 0.80039,-0.17868 1.2437,-0.16997 1.44198,0.0283 0.2054,0.20537 -0.12134,0.27831 -1.15565,0.25799 l -1.44197,-0.0283 z m 15.11623,-0.48053 c -0.7116,-0.22635 -0.73327,-0.21628 0.79375,-0.36899 0.31761,-0.0318 0.39836,0.47011 0.086,0.53444 -0.12004,0.0247 -0.51594,-0.0497 -0.87974,-0.16545 z m -451.60129,-13.50382 c -0.74757,-0.45577 -0.83175,-0.60113 -0.54687,-0.94439 0.18519,-0.22313 0.76139,-0.62351 1.28045,-0.88972 1.21142,-0.6213 2.13437,-1.42939 2.13437,-1.86875 0,-0.18976 0.1686,-0.53298 0.37467,-0.76272 0.20607,-0.22974 0.40933,-0.99489 0.4517,-1.70032 0.0977,-1.62726 -0.38715,-2.1709 -2.83154,-3.17473 -2.5968,-1.06643 -4.91457,-3.003296 -4.67772,-3.908994 0.0715,-0.273462 -0.003,-0.497207 -0.16542,-0.497207 -0.6017,0 -0.26959,-0.793531 0.49831,-1.190625 0.91168,-0.471451 0.96046,-0.690219 0.3587,-1.60863 -0.41884,-0.639228 -0.40711,-0.693137 0.31473,-1.446572 0.81278,-0.848368 2.6475,-1.83959 3.40501,-1.83959 0.25949,0 0.84697,-0.174495 1.30553,-0.387768 0.99819,-0.464256 4.57792,-0.931669 6.15258,-0.803357 1.65023,0.134472 3.5447,1.037588 3.5447,1.689799 0,0.755284 -0.38357,0.920152 -2.91042,1.250973 -4.98482,0.652622 -6.87917,1.338768 -6.87917,2.491682 0,0.387056 -0.23812,0.919239 -0.52916,1.182629 -0.29104,0.26339 -0.52917,0.585185 -0.52917,0.7151 0,0.651103 2.50127,2.327609 3.47269,2.327609 0.6632,0 3.21126,1.154111 3.55651,1.610861 0.72049,0.95321 1.06956,2.48332 0.78951,3.46071 -0.15295,0.5338 -0.36738,1.05965 -0.47652,1.16858 -0.10914,0.10892 -0.19844,0.46128 -0.19844,0.78301 0,0.32173 -0.17859,0.73318 -0.39687,0.91434 -0.21829,0.18116 -0.39688,0.47527 -0.39688,0.65358 0,0.17831 -0.70553,0.99717 -1.56786,1.81968 -1.53843,1.46742 -1.59678,1.49547 -3.10885,1.4945 -1.08302,-8e-4 -1.80359,-0.16109 -2.42457,-0.53968 z m 15.13133,-1.11722 c -1.38369,-1.21489 -1.67576,-2.10319 -1.54279,-4.69211 0.13535,-2.63517 0.18623,-2.98368 0.62686,-4.29431 0.18251,-0.54286 0.2619,-1.100175 0.17642,-1.238486 -0.0855,-0.138311 -0.0344,-0.32626 0.11348,-0.417663 0.14789,-0.0914 0.2689,-0.397288 0.2689,-0.679741 0,-0.282454 0.11906,-0.513551 0.26458,-0.513551 0.14552,0 0.26458,-0.283232 0.26458,-0.629404 0,-0.346171 0.41672,-1.321433 0.92605,-2.167247 0.50932,-0.845815 0.92604,-1.693678 0.92604,-1.884138 0,-0.190463 0.11906,-0.346295 0.26458,-0.346295 0.14552,0 0.26503,-0.148828 0.26558,-0.330729 0.002,-0.514747 2.37069,-1.369433 3.56643,-1.286618 1.37856,0.09548 2.35392,0.935159 1.95408,1.682263 -0.36376,0.679693 0.0541,1.112335 0.87527,0.906214 0.45243,-0.113567 0.74397,-0.524 1.10449,-1.554901 0.2694,-0.770332 0.76384,-1.69826 1.09875,-2.062062 0.33492,-0.363802 0.65029,-0.889428 0.70082,-1.168058 0.0505,-0.27863 0.50859,-0.740394 1.01791,-1.026142 1.07151,-0.601149 4.23334,-0.965525 4.23334,-0.487857 0,0.165444 0.23812,0.300807 0.52916,0.300807 0.36738,0 0.53434,0.18202 0.54606,0.595313 0.009,0.327422 0.0642,1.012031 0.12204,1.521354 0.10073,0.887222 -0.0577,1.458801 -0.807,2.910416 -0.36827,0.7135 -1.16342,1.215195 -2.2881,1.443676 -0.38897,0.07902 -1.04381,0.423185 -1.45521,0.764812 -0.4114,0.34163 -1.21461,0.694632 -1.78492,0.784453 -1.23436,0.194405 -1.36189,0.364934 -1.56679,2.094984 -0.0866,0.730953 -0.35601,1.632121 -0.59876,2.0026 -0.53871,0.82218 -1.17755,3.14742 -0.99524,3.6225 0.073,0.19027 0.006,0.42455 -0.14987,0.52062 -0.15544,0.0961 -0.28262,0.45072 -0.28262,0.78811 0,0.3374 -0.1786,0.76167 -0.39688,0.94283 -0.21828,0.18116 -0.39687,0.54589 -0.39687,0.81053 0,0.26463 -0.11906,0.55474 -0.26459,0.64468 -0.14552,0.0899 -0.26458,0.39462 -0.26458,0.67707 0,0.29351 -0.18066,0.51355 -0.42164,0.51355 -0.23191,0 -0.48533,0.24351 -0.56316,0.54113 -0.22754,0.87014 -1.96587,1.59633 -3.68663,1.5401 -1.23494,-0.0404 -1.64422,-0.18287 -2.37977,-0.8287 z m 3.47898,-3.89678 c 0.0957,-0.4357 0.33336,-0.88219 0.52813,-0.99219 0.19479,-0.11001 0.39878,-0.73677 0.45334,-1.39281 0.0546,-0.65603 0.20539,-1.36463 0.3352,-1.57467 0.12981,-0.21003 0.26535,-0.92343 0.3012,-1.58533 0.0359,-0.661902 0.12456,-1.769003 0.19714,-2.460227 0.10231,-0.974421 0.047,-1.256771 -0.24604,-1.256771 -0.2079,0 -0.378,0.119063 -0.378,0.264583 0,0.145521 -0.14883,0.265031 -0.33073,0.265576 -0.41143,0.0013 -1.16161,1.853776 -1.39246,3.438589 -0.0954,0.65485 -0.342,1.77778 -0.54803,2.49542 -0.43702,1.52217 -0.48716,2.79625 -0.11003,2.79625 0.14552,0 0.26458,0.17859 0.26458,0.39687 0,0.72821 0.7492,0.40828 0.9257,-0.39529 z m 15.82463,3.17088 c -0.76855,-0.30957 -1.31627,-1.19044 -1.63954,-2.63678 -0.19598,-0.87681 -0.18266,-1.23625 0.0513,-1.38501 0.2202,-0.14 0.22525,-0.20213 0.0167,-0.20495 -0.41643,-0.006 -1.79136,1.44429 -2.34572,2.47368 -0.80646,1.4975 -2.48435,2.11957 -3.93466,1.45876 -0.81754,-0.37249 -1.04286,-1.18174 -0.57495,-2.06488 0.19844,-0.37455 0.51232,-1.09771 0.6975,-1.60703 0.18519,-0.50932 0.80081,-1.61846 1.36806,-2.46476 0.56724,-0.84629 0.96581,-1.70949 0.88572,-1.91823 -0.0942,-0.24551 0.0275,-0.37951 0.34479,-0.37951 0.26974,0 0.66731,-0.26789 0.88349,-0.595314 0.95108,-1.440492 1.82911,-2.050624 2.94503,-2.04647 1.96955,0.0073 2.48379,0.928746 1.68744,3.023494 -0.27978,0.73594 -0.62921,1.7442 -0.7765,2.24058 -0.20127,0.67825 -0.32653,0.80974 -0.50414,0.52917 -0.17504,-0.27651 -0.23739,-0.19944 -0.24039,0.29712 -0.004,0.60332 0.19293,0.47727 1.96308,-1.25878 2.81614,-2.761902 4.56811,-3.405562 7.15037,-2.626994 1.09536,0.330254 1.3852,0.813174 1.43946,2.398314 0.0266,0.7771 -1.91357,4.45759 -2.97862,5.65043 -0.99238,1.11144 -4.80869,1.77363 -6.43843,1.11716 z m -40.05946,-61.457953 c -0.52351,-0.466884 -1.24504,-1.325131 -1.6034,-1.907215 -0.62497,-1.015166 -0.64911,-1.220213 -0.59175,-5.027083 0.0679,-4.503629 0.14595,-5.489638 0.4526,-5.715029 0.11882,-0.08733 0.24626,-0.364738 0.28321,-0.616468 0.10261,-0.699167 0.68295,-0.936056 2.30403,-0.940493 2.11798,-0.0058 2.85487,1.030922 2.11533,2.976038 -0.6977,1.835105 -0.77616,6.777982 -0.14726,9.27826 0.52408,2.083554 0.49406,2.468187 -0.20727,2.656136 -1.1038,0.295807 -1.64967,0.14828 -2.60549,-0.704146 z m 20.76832,-0.501349 c -1.77588,-1.427006 -2.0781,-3.608099 -1.09299,-7.888157 0.48323,-2.099538 1.59302,-5.208802 2.00691,-5.622684 0.16719,-0.16719 0.30398,-0.442706 0.30398,-0.612259 0,-0.169553 0.24938,-0.625311 0.55418,-1.012799 1.38409,-1.759593 4.69668,-2.34947 6.12655,-1.090961 0.40018,0.352221 0.7276,0.691202 0.7276,0.753287 0,0.06209 -0.35719,0.260837 -0.79375,0.441666 -0.99753,0.413189 -1.02245,0.79375 -0.052,0.79375 0.61832,0 0.8605,-0.219837 1.45521,-1.320977 0.39239,-0.726538 0.71344,-1.507471 0.71344,-1.735407 0,-0.227936 0.094,-0.356339 0.20887,-0.285338 0.11488,0.071 0.49865,-0.42799 0.85281,-1.108863 1.38847,-2.669334 4.14729,-4.138361 6.97579,-3.714504 1.57714,0.236339 2.81044,1.285121 2.81044,2.38996 0,1.241248 -0.59702,3.214613 -1.24157,4.10383 -0.33578,0.463233 -0.61051,1.201457 -0.61051,1.640499 0,0.481118 -0.18395,0.905399 -0.46302,1.06794 -0.25466,0.148328 -0.40349,0.278943 -0.33073,0.290256 0.0728,0.01132 0.71237,0.07195 1.42136,0.134745 2.11518,0.187343 2.51763,0.951441 1.44311,2.739964 -0.84233,1.402048 -3.77105,4.529145 -4.24183,4.529145 -0.11557,0 -0.21014,0.178594 -0.21014,0.396875 0,0.218281 -0.10159,0.396875 -0.22576,0.396875 -0.12417,0 -0.77003,0.818502 -1.43525,1.818894 -1.04632,1.573511 -1.34394,1.844116 -2.20615,2.005869 -1.41502,0.265457 -3.6236,-0.750122 -3.38449,-1.556303 0.37106,-1.251042 1.28894,-2.800913 1.74439,-2.945468 0.26833,-0.08516 0.41958,-0.26533 0.33611,-0.400376 -0.0835,-0.135043 -0.0257,-0.245533 0.12845,-0.245533 0.15411,0 0.2802,-0.13785 0.2802,-0.306334 0,-0.246116 3.35893,-4.214651 3.99559,-4.720749 0.0915,-0.07276 0.24189,-0.374544 0.33412,-0.670629 0.14128,-0.453535 -0.0266,-0.610362 -1.06603,-0.995587 l -1.23373,-0.457253 -0.97393,0.968118 c -0.65397,0.650066 -1.26991,0.998456 -1.87487,1.060461 -0.55536,0.05692 -1.10392,0.34036 -1.43011,0.738936 -0.96537,1.179597 -1.74744,2.601405 -1.88742,3.43136 -0.21219,1.258104 -1.19128,3.862094 -1.45213,3.862094 -0.12778,0 -0.23232,0.303569 -0.23232,0.674597 0,0.371028 -0.16641,0.996389 -0.36979,1.389687 -0.65037,1.257678 -1.34426,1.67858 -2.9841,1.81011 -1.43399,0.11502 -1.61623,0.06307 -2.62651,-0.748737 z m -11.14285,-0.03693 c -1.00821,-0.367816 -1.44169,-0.783637 -2.11661,-2.030391 -0.52732,-0.974108 -0.43925,-2.399411 0.2616,-4.233333 0.2065,-0.540361 0.61711,-2.622719 1.00595,-5.101635 0.17762,-1.132409 0.42453,-2.121702 0.54867,-2.198425 0.12415,-0.07673 0.22572,-0.549196 0.22572,-1.049931 0,-0.500734 0.12162,-0.910425 0.27026,-0.910425 0.14864,0 0.40616,-0.298292 0.57227,-0.662869 0.55706,-1.222597 3.55094,-1.407057 4.67025,-0.287745 0.37192,0.371925 0.35196,0.519213 -0.20883,1.54082 -0.34104,0.621273 -0.78606,1.323178 -0.98894,1.55979 -0.20288,0.236614 -0.44214,0.88165 -0.53168,1.433417 -0.14913,0.918996 -0.12042,0.983123 0.34204,0.763923 0.27766,-0.131609 1.17708,-0.240863 1.99871,-0.242792 1.89316,-0.0044 2.72618,0.615834 2.52144,1.877483 -0.17206,1.060302 -1.09418,3.102004 -2.03705,4.510326 -0.40492,0.604806 -0.82218,1.370494 -0.92724,1.70153 -0.33452,1.053983 -1.66608,2.664619 -2.63005,3.181273 -1.05251,0.564113 -1.74378,0.598712 -2.97651,0.148984 z m 3.8871,-9.540075 c 0.13021,-0.577334 0.115,-1.022512 -0.0382,-1.117177 -0.39308,-0.242938 -0.50506,-0.0011 -0.6407,1.38403 -0.14677,1.498828 0.32223,1.314471 0.67887,-0.266853 z"
       id="path21" />
  </g>
</svg>
