<?xml version="1.0" encoding="UTF-8" standalone="no"?>
<!-- Created with Inkscape (http://www.inkscape.org/) -->

<svg
   width="376.71469mm"
   height="122.04253mm"
   viewBox="0 0 376.71469 122.04253"
   version="1.1"
   id="svg5"
   xmlns="http://www.w3.org/2000/svg"
   xmlns:svg="http://www.w3.org/2000/svg">
  <defs
     id="defs2" />
  <g
     id="layer1"
     transform="translate(26.971417,-84.376102)">
    <path
       style="fill:#041;stroke-width:0.264583"
       d="m 76.083791,206.16127 c -1.395486,-0.51206 -2.248958,-1.52163 -2.248958,-2.66027 0,-1.51204 1.872575,-2.53491 6.037858,-3.29812 1.800114,-0.32984 2.252935,-0.18508 2.572713,0.82246 0.262723,0.82777 -0.342879,1.28633 -1.698802,1.28633 -1.049002,0 -4.599094,1.03871 -5.032965,1.47258 -0.07903,0.079 0.03146,0.25445 0.245525,0.38983 0.577025,0.36493 2.621494,0.28469 3.828796,-0.15025 1.257274,-0.45295 1.984375,-0.49381 1.984375,-0.11152 0,0.40776 -0.703987,1.69965 -1.109652,2.03632 -0.615516,0.51084 -3.412315,0.64072 -4.57889,0.21264 z m -3.836458,-5.09277 c -1.141172,-0.19093 -2.74112,-1.47499 -3.011196,-2.41669 -0.299289,-1.04356 0.0036,-1.40345 1.555988,-1.84904 0.582083,-0.16707 1.437412,-0.53719 1.900729,-0.82249 0.786588,-0.48435 0.822717,-0.57087 0.545314,-1.30579 -0.416197,-1.10263 0.06992,-1.62771 1.488956,-1.60831 1.699562,0.0232 2.894415,0.53704 3.186653,1.3703 0.359063,1.02378 -0.486797,1.83955 -3.285194,3.16834 -1.236927,0.58735 -2.295065,1.10926 -2.351418,1.1598 -0.05635,0.0505 0.281625,0.45068 0.751062,0.8892 1.222491,1.14198 0.915313,1.69847 -0.780894,1.41468 z m 77.939387,-6.4959 c -1.23133,-1.1243 -1.52946,-1.55862 -1.56419,-2.27867 -0.0493,-1.02235 -0.0978,-0.98589 3.06595,-2.30727 1.27331,-0.53183 2.31389,-1.04212 2.31241,-1.134 -0.002,-0.0919 -0.46077,-0.35931 -1.02065,-0.59432 -0.98794,-0.41467 -1.4337,-1.19741 -1.15614,-2.0301 0.43488,-1.30463 5.0899,1.55064 5.0899,3.12203 0,0.79955 -0.99074,1.45497 -3.55645,2.35275 -2.1441,0.75024 -2.22831,0.88583 -1.24538,2.00531 0.45819,0.52186 0.83308,1.24235 0.83308,1.60109 0,1.105 -1.04796,0.82509 -2.75853,-0.73682 z m -85.528862,-2.31695 c -0.701789,-0.28275 -1.141775,-1.04673 -1.141775,-1.98253 0,-1.60895 0.885343,-2.23779 4.079513,-2.89756 2.387097,-0.49307 2.751211,-0.34662 3.260018,1.31122 0.250817,0.81724 0.22892,0.92489 -0.18815,0.92489 -0.259602,0 -0.620223,-0.1786 -0.801381,-0.39688 -0.371192,-0.44726 -1.997043,-0.5399 -2.251435,-0.12828 -0.0913,0.14772 -0.574577,0.4393 -1.073949,0.64796 -1.507956,0.63006 -1.072557,0.91056 1.539447,0.99175 2.401522,0.0746 2.447395,0.0882 2.447395,0.7256 0,0.46738 -0.185496,0.70113 -0.661458,0.83352 -0.952458,0.26494 -4.527555,0.24456 -5.208225,-0.0297 z m -5.406917,-3.39982 c -1.38585,-0.88026 -2.084858,-1.74458 -2.084858,-2.57793 0,-0.71807 0.359058,-0.98887 1.852083,-1.39684 1.911496,-0.5223 5.635697,-2.15798 6.297965,-2.76607 0.555045,-0.50965 0.570457,-0.58807 0.17272,-0.8789 -0.240186,-0.17563 -0.602068,-0.25587 -0.804183,-0.17831 -0.229171,0.0879 -0.470656,-0.13037 -0.641617,-0.58002 -0.224369,-0.59014 -0.189013,-0.78563 0.19476,-1.07682 0.860629,-0.65301 1.547953,-0.55895 2.500193,0.34214 0.987219,0.9342 1.362165,1.93458 1.041347,2.7784 -0.307797,0.80957 -2.494928,2.18844 -5.387747,3.39669 -1.127787,0.47105 -2.050521,0.94842 -2.050521,1.06083 0,0.11241 0.365974,0.51232 0.813276,0.8887 1.757868,1.47915 0.168569,2.30421 -1.903418,0.98813 z m 84.773809,-0.55994 c -1.37435,-0.8358 -2.22861,-2.09028 -2.13964,-3.14207 0.0759,-0.89745 0.16628,-0.97864 1.79972,-1.61696 1.99763,-0.78064 2.88801,-1.31009 2.51354,-1.49462 -0.14552,-0.0717 -0.6813,-0.33381 -1.19062,-0.58244 -0.74971,-0.36599 -0.92604,-0.60204 -0.92604,-1.2397 0,-0.994 0.56961,-1.1352 2.14794,-0.53243 2.29618,0.87692 3.449,2.85655 2.27971,3.91474 -0.25693,0.23252 -1.29873,0.80614 -2.31511,1.27471 -1.01638,0.46857 -1.89357,0.8881 -1.94932,0.93228 -0.0557,0.0442 0.27168,0.50519 0.72761,1.02446 0.45593,0.51928 0.82896,1.1047 0.82896,1.30094 0,0.57434 -0.95485,0.66091 -1.77675,0.16109 z m -93.758895,-7.9657 c -0.466545,-0.46655 -0.547917,-0.79445 -0.450005,-1.81342 0.06574,-0.68414 0.317679,-1.64111 0.559876,-2.1266 0.242197,-0.4855 0.440357,-1.02457 0.440357,-1.19794 0,-0.5524 0.901798,-1.18666 1.31985,-0.92829 0.209947,0.12975 1.117195,0.16723 2.016109,0.0833 1.508826,-0.14089 1.659202,-0.10625 1.957382,0.4509 0.449565,0.84002 0.180465,2.91202 -0.437837,3.37123 -0.327129,0.24297 -1.042723,0.33663 -2.153955,0.28194 -1.825066,-0.0898 -2.160984,0.13036 -2.168332,1.42131 -0.0055,0.97147 -0.402076,1.13895 -1.083445,0.45758 z m 4.518978,-4.21227 c 0,-0.14552 -0.0525,-0.26459 -0.116676,-0.26459 -0.06417,0 -0.190262,0.11907 -0.280199,0.26459 -0.08994,0.14552 -0.03743,0.26458 0.116676,0.26458 0.154109,0 0.280199,-0.11906 0.280199,-0.26458 z m 289.576297,2.53252 c 0,-1.97971 -1.46153,-2.42477 -1.39829,-2.97656 0.0798,-0.69633 0.1746,-0.75157 1.40845,-0.82055 1.92779,-0.10779 2.29034,-0.31424 1.19063,-0.67803 -0.72033,-0.23829 -0.94467,-0.46831 -1.00991,-1.03545 -0.17365,-1.5096 1.98,-1.1723 4.02859,0.63095 1.05037,0.92456 0.8279,1.3038 1.16266,1.91904 l -0.0803,0.82495 -2.05052,0.0773 c -1.12779,0.0425 -2.05052,0.17951 -2.05052,0.30445 0,0.12495 0.29649,0.86409 0.65887,1.64252 0.80475,1.72871 0.84248,2.34138 0.14411,2.34138 -0.35832,0 -2.00377,-0.38384 -2.00377,-2.22998 z m -82.89176,1.20503 c -0.1995,-0.12647 -0.31409,-0.55297 -0.26458,-0.98471 0.077,-0.67122 0.40137,-0.92348 2.73317,-2.12552 3.54168,-1.82573 3.70618,-1.86588 4.24905,-1.03736 0.39518,0.60315 0.40026,0.73769 0.0478,1.26993 -0.21799,0.32915 -1.14837,0.88309 -2.08094,1.23896 -0.92769,0.35401 -2.24827,0.91956 -2.93468,1.25678 -1.42843,0.70178 -1.29212,0.67203 -1.74977,0.38192 z m -127.19282,-0.40893 c -0.79281,-0.57972 -0.70885,-2.54754 0.14787,-3.46579 1.00982,-1.08235 2.98135,-1.9795 4.35003,-1.9795 1.05243,0 1.23997,0.0915 1.59533,0.77874 0.48097,0.9301 0.37309,1.0201 -1.60953,1.34278 -1.51512,0.24659 -3.15046,1.05173 -2.54567,1.25333 0.17828,0.0594 0.94116,-0.0969 1.6953,-0.34738 1.36285,-0.45267 1.37408,-0.45182 1.85326,0.13995 0.92468,1.14192 0.44731,1.62446 -2.23199,2.25619 -2.07154,0.48843 -2.61136,0.49203 -3.2546,0.0217 z m 120.66557,-4.19941 c -0.8378,-0.47299 -1.07539,-0.77232 -1.14016,-1.43644 -0.0769,-0.78846 -0.0132,-0.85633 1.05833,-1.12828 2.18231,-0.55382 4.5421,-1.46141 4.64799,-1.78765 0.0754,-0.23213 -0.11724,-0.28361 -0.65712,-0.17563 -0.90694,0.18139 -1.47889,-0.3557 -1.34967,-1.26738 0.0789,-0.55632 0.21908,-0.60933 1.59687,-0.60373 1.30336,0.005 1.6207,0.11183 2.3151,0.77711 0.57608,0.55191 0.80471,1.01735 0.80471,1.63819 0,0.9959 -0.2512,1.17603 -2.8851,2.06891 l -1.74511,0.59159 0.0868,0.96476 c 0.0841,0.93481 0.0595,0.96462 -0.79375,0.9604 -0.48432,-0.002 -1.35683,-0.27323 -1.93892,-0.60185 z M 127.7829,174.19969 c -1.14695,-0.87559 -1.72022,-2.07681 -1.32671,-2.77998 0.18698,-0.3341 2.59579,-1.52468 5.71494,-2.82466 0.82754,-0.3449 0.96966,-0.49262 0.66146,-0.68749 -0.2159,-0.13651 -0.66044,-0.25003 -0.98786,-0.25226 -0.85142,-0.006 -0.8314,-1.23074 0.0265,-1.62163 0.87104,-0.39687 3.29075,0.64159 3.6409,1.56255 0.52182,1.37249 0.11118,1.68786 -5.2549,4.03565 -0.76399,0.33426 -1.38906,0.66098 -1.38906,0.72603 0,0.0651 0.35718,0.5251 0.79375,1.02231 0.43656,0.49722 0.79375,1.07849 0.79375,1.29171 0,0.70406 -1.47276,0.44385 -2.67277,-0.47223 z m -81.190842,0.0835 c -0.38762,-0.72428 -0.339559,-1.68152 0.11457,-2.28193 0.961091,-1.27068 0.02003,-1.58171 -1.553914,-0.51359 -1.162312,0.78876 -1.520346,0.81903 -2.100832,0.1776 -0.635439,-0.70215 -0.548804,-0.99193 0.488159,-1.63281 0.509323,-0.31478 0.926042,-0.788 0.926042,-1.0516 0,-0.52088 0.499507,-0.80048 1.430028,-0.80048 0.326149,0 1.444868,-0.54502 2.486043,-1.21116 1.041173,-0.66613 2.101581,-1.17099 2.356456,-1.1219 0.254876,0.0491 0.582983,0.42924 0.729126,0.84479 0.243096,0.69124 0.179221,0.82816 -0.750538,1.60873 l -1.016246,0.8532 1.20578,0.33759 c 1.472329,0.41223 2.143662,1.07627 1.891453,1.87091 -0.163975,0.51664 -0.302934,0.55616 -1.384982,0.3939 l -1.202722,-0.18037 -1.531493,1.60945 c -0.842322,0.88519 -1.59484,1.60944 -1.672265,1.60944 -0.07742,0 -0.264025,-0.2303 -0.414665,-0.51177 z m 292.945692,-2.44277 c 0,-1.75324 -1.95931,-2.13238 -1.45539,-2.63631 0.14325,-0.14324 0.93223,-0.32977 1.75334,-0.41452 1.48736,-0.15351 1.49289,-0.15737 1.49289,-1.0431 0,-0.76557 0.0894,-0.88903 0.64423,-0.88903 1.76101,0 3.5891,1.44024 3.5891,2.82763 0,0.86491 -0.0167,0.87695 -1.25677,0.90787 -0.69123,0.0172 -1.36816,0.01 -1.50429,-0.0163 -0.13615,-0.0263 -0.6877,-0.19321 -0.87262,0.10919 l -0.62511,0.15689 0.5419,0.6889 c 1.37034,1.74207 -2.30728,2.97388 -2.30728,0.30884 z M 40.128766,168.02649 c -0.259601,-0.67651 -0.198245,-0.84808 0.552103,-1.54385 0.657037,-0.60924 0.680146,-0.6979 0.295878,-1.13518 -1.279477,-1.45601 -0.714668,-2.37524 1.715167,-2.79145 1.757524,-0.30106 1.795785,-0.29508 2.478217,0.38736 0.95417,0.95417 0.6847,1.53288 -0.713761,1.53288 h -1.084654 l 0.547185,0.76845 c 0.66848,0.9388 0.688811,1.40661 0.08416,1.93676 -1.346628,1.18072 -3.560207,1.66353 -3.874295,0.84503 z m 209.735004,0.26562 c -0.1737,-0.0802 -0.45234,-0.55943 -0.61916,-1.06488 -0.39727,-1.20376 0.0734,-1.94962 1.739,-2.75594 2.89235,-1.40015 4.44053,-0.90454 4.73319,1.51521 0.15359,1.27001 0.11438,1.4122 -0.50051,1.81509 -0.66665,0.43681 -4.67371,0.80403 -5.35252,0.49052 z m 4.02002,-2.08651 0.79375,-0.36345 -1.07392,-0.0215 c -0.59063,-0.0118 -1.305,0.15332 -1.5875,0.36697 -0.48821,0.36928 -0.47437,0.38829 0.28017,0.38494 0.43656,-0.002 1.15094,-0.16707 1.5875,-0.36697 z M 116.0651,164.70227 c -0.626,-0.89374 -0.15799,-1.59755 1.69318,-2.54631 1.86501,-0.95584 2.3443,-0.84598 2.45471,0.56269 0.0602,0.76774 -0.1301,0.91757 -2.51407,1.97964 l -1.24738,0.5557 z m 220.85368,0.33239 c -1.50503,-0.18945 -2.47158,-0.86531 -2.46531,-1.7239 0.009,-1.19841 0.96401,-1.74493 3.04996,-1.74493 1.45105,0 1.54027,0.042 2.66665,1.25677 1.60708,1.73317 1.50289,2.3038 -0.42899,2.34962 -0.80037,0.019 -2.07042,-0.0429 -2.82231,-0.13756 z m -91.61876,-1.5506 c -1.83941,-2.13199 -1.7939,-3.07833 0.15973,-3.32069 1.39173,-0.17265 3.69512,-0.82765 4.31273,-1.22638 0.32078,-0.20708 0.26445,-0.36282 -0.33073,-0.91441 -1.53201,-1.41983 -0.48148,-2.40633 1.12395,-1.05544 2.12141,1.78504 1.92443,3.3543 -0.51964,4.14014 -0.79965,0.25712 -1.96585,0.59072 -2.59151,0.74133 l -1.13758,0.27384 0.56798,0.91903 c 0.59259,0.9588 0.54203,1.69935 -0.11602,1.69935 -0.21153,0 -0.87254,-0.56554 -1.46891,-1.25677 z m -122.33173,0.0312 c -0.32451,-0.3245 -0.19961,-1.87296 0.17623,-2.18488 0.53325,-0.44255 1.01638,0.26674 0.91305,1.34048 -0.0803,0.83427 -0.65438,1.27931 -1.08928,0.8444 z m -86.043586,-1.57837 c -0.40467,-0.43664 -1.021993,-0.73445 -1.715167,-0.82743 -2.603772,-0.34923 -2.423406,-3.07827 0.294476,-4.45553 1.755759,-0.88971 2.846597,-0.92386 3.389786,-0.10611 0.519682,0.78234 0.622792,3.66836 0.150924,4.22426 -0.185285,0.21829 -0.415031,0.65377 -0.510543,0.96775 -0.268798,0.88363 -0.901406,0.96108 -1.609476,0.19706 z m 0.545497,-3.40535 c 0.410596,-0.31056 0.430879,-0.39015 0.101139,-0.39688 -0.226848,-0.005 -0.643567,0.1664 -0.926041,0.38005 -0.410597,0.31056 -0.43088,0.39015 -0.10114,0.39688 0.226848,0.005 0.643567,-0.1664 0.926042,-0.38005 z m 295.398039,2.32079 c 0,0.62477 -0.53657,-1.00659 -0.4822,-1.65364 l 0.079,-0.94015 1.80568,-0.0787 1.80568,-0.0787 -0.6812,-0.53583 c -0.85204,-0.67021 -0.9398,-1.82034 -0.13888,-1.82034 1.89479,0 4.24143,2.9659 3.0957,3.91268 -0.1819,0.15032 -0.80698,0.35388 -1.38906,0.45237 -1.51805,0.25686 -2.04552,0.4245 -1.87431,0.5957 0.0824,0.0825 0.0175,0.30972 -0.14475,0.50501 -0.48279,0.58173 -2.07566,-1.33764 -2.07566,-0.35843 z m -219.29299,-0.39775 c -1.00226,-1.00225 0.23121,-2.75664 2.8142,-4.00272 0.68306,-0.32952 1.62468,-0.88211 2.09249,-1.22798 0.82699,-0.61142 0.86541,-0.61544 1.38507,-0.14515 1.24521,1.12689 0.35138,2.3012 -2.8179,3.70214 -0.89792,0.39692 -1.90094,1.00732 -2.22893,1.35644 -0.68088,0.72476 -0.80564,0.75656 -1.24493,0.31727 z m -71.858984,-2.48226 c -0.736463,-1.91919 0.794385,-3.71423 2.586492,-3.03287 0.734267,0.27917 1.449893,1.48173 1.292268,2.17157 -0.234728,1.02726 -3.533945,1.75988 -3.87876,0.8613 z m 192.103294,-1.34538 c -0.39139,-0.39138 -0.11808,-0.96694 1.05426,-2.22027 1.34014,-1.43273 1.3861,-1.84428 0.13362,-1.19659 -0.44088,0.22798 -0.99103,0.34181 -1.22256,0.25296 -0.53637,-0.20582 -0.97412,-1.01362 -0.79799,-1.47258 0.165,-0.42997 3.15405,-2.33088 3.66514,-2.33088 0.5275,0 0.91337,0.55981 0.91186,1.32292 0,0.3638 0.0828,1.15109 0.18561,1.74953 0.22505,1.31011 -0.25289,2.18068 -1.82062,3.31635 -1.01471,0.73505 -1.75091,0.93698 -2.10932,0.57856 z m -203.540761,-1.8198 c -0.427074,-0.6518 -0.416713,-0.69899 0.324628,-1.47881 0.835168,-0.87852 4.859316,-3.954 6.647503,-5.0804 0.615572,-0.38776 1.431015,-0.70501 1.812097,-0.70501 1.70698,0 4.080139,1.99 4.080139,3.42138 0,0.53422 -0.272991,0.99682 -0.927221,1.57124 -1.050449,0.92231 -3.53263,1.7499 -4.429038,1.4767 C 36.9366,153.75309 36.264,153.098 36.264,152.52899 c 0,-0.26848 -0.108675,-0.48816 -0.241499,-0.48816 -0.132826,0 -1.223782,0.77391 -2.424348,1.7198 -1.200568,0.94588 -2.339303,1.71979 -2.530525,1.71979 -0.191225,0 -0.546198,-0.30298 -0.788829,-0.67328 z m 9.134428,-3.18374 c 1.217313,-0.48707 1.583647,-1.13765 0.915646,-1.62611 -0.703038,-0.51407 -1.211514,-0.41366 -2.42525,0.47893 -1.158931,0.85229 -1.33468,1.16546 -0.779727,1.38939 0.607787,0.24524 1.237599,0.17861 2.289331,-0.24221 z m 70.272953,3.58127 c -1.72558,-0.5282 -2.00665,-2.36053 -0.55729,-3.63309 1.27597,-1.12031 3.19795,-1.82604 3.74243,-1.37416 0.7747,0.64294 0.36546,1.65113 -0.93649,2.30714 l -1.19062,0.59991 1.93231,-0.16321 c 1.62453,-0.13721 2.01435,-0.089 2.44739,0.30294 0.64002,0.57921 0.66404,1.34663 0.0521,1.66389 -0.69976,0.36276 -4.58745,0.5728 -5.4898,0.29658 z M 327.62317,153.84 c -0.17463,-0.17462 -0.3175,-0.57861 -0.3175,-0.89773 0,-0.31913 -0.16806,-0.64473 -0.37351,-0.72356 -0.20543,-0.0788 -0.52343,-0.55799 -0.7067,-1.06479 -0.18326,-0.50681 -0.6167,-1.05063 -0.96317,-1.20849 -0.75843,-0.34557 -1.48659,-1.95316 -1.24682,-2.75266 0.095,-0.31674 0.59015,-1.01163 1.10038,-1.5442 1.02153,-1.06629 0.97417,-1.39097 -0.27782,-1.90493 -0.72567,-0.29789 -0.98335,-0.28048 -1.89799,0.12826 -0.85971,0.38419 -1.12223,0.40944 -1.39877,0.13458 -0.18727,-0.1861 -0.26598,-0.53247 -0.17494,-0.76972 0.1688,-0.4399 2.04134,-1.73818 3.366,-2.33375 0.40368,-0.18149 0.80352,-0.60722 0.88858,-0.94608 0.1791,-0.71364 0.15568,-0.70948 1.58446,-0.28135 1.20062,0.35976 3.01072,2.24649 3.01072,3.13818 0,0.81537 -0.74936,0.89928 -1.53715,0.1721 -0.39151,-0.36137 -0.92467,-0.73202 -1.18486,-0.82365 -0.67024,-0.23609 -0.86768,0.48203 -0.34981,1.2724 0.23429,0.35756 0.42598,0.88451 0.42598,1.171 0,0.28649 0.36767,1.11236 0.81706,1.83525 0.68152,1.09636 0.76774,1.40646 0.51986,1.86967 -0.35322,0.65998 -0.76433,0.6911 -2.04751,0.15496 -1.11495,-0.46587 -1.40904,-0.33383 -0.78708,0.35341 0.24164,0.26701 0.43934,0.63767 0.43934,0.82368 0,0.21403 0.16999,0.27236 0.46302,0.15886 0.90805,-0.35173 4.89421,-1.46477 5.24581,-1.46477 0.4625,0 0.99034,0.98541 0.79733,1.48843 -0.0821,0.21381 -0.50795,0.51381 -0.94642,0.66666 -0.81653,0.28464 -1.00301,0.59692 -0.53078,0.88878 0.60905,0.3764 1.07842,1.71237 0.7906,2.25018 -0.24434,0.45655 -0.55583,0.52678 -2.33637,0.52678 -1.24513,0 -2.17951,-0.12507 -2.37194,-0.3175 z m -97.41099,-2.18566 c -0.1764,-0.21258 -0.38565,-0.87035 -0.46498,-1.46171 -0.11954,-0.89139 -0.22857,-1.05148 -0.63767,-0.93642 -0.27138,0.0763 -0.73157,0.20634 -1.02261,0.28891 -0.79674,0.22604 -1.47196,-0.0829 -1.81192,-0.82911 -0.5052,-1.10875 -0.35611,-1.65836 0.78589,-2.8973 1.20774,-1.31025 2.76489,-1.93618 3.64495,-1.46519 0.69347,0.37113 2.14358,2.24398 2.14358,2.76846 0,0.23592 -0.35719,1.06186 -0.79375,1.8354 -0.43657,0.77355 -0.79375,1.78378 -0.79375,2.24495 0,0.90801 -0.49454,1.12096 -1.04974,0.45201 z m -0.51916,-4.51772 c 1.34839,-0.68328 1.50981,-1.1812 0.38295,-1.1812 -0.62899,0 -2.25364,1.16138 -2.25364,1.61102 0,0.38974 0.46353,0.28324 1.87069,-0.42982 z m -127.32164,1.95918 c -0.85897,0.17741 -1.67796,0.25076 -1.81999,0.16298 -0.14202,-0.0878 -0.25822,-0.66759 -0.25822,-1.28848 0,-0.83792 0.15783,-1.27717 0.61236,-1.70418 0.3368,-0.31641 0.75796,-0.57529 0.93591,-0.57529 0.17795,0 0.83624,-0.50601 1.46285,-1.12448 1.46256,-1.44352 3.22542,-2.84427 3.57957,-2.84427 0.15195,0 0.47594,0.30473 0.71997,0.67717 0.43909,0.67013 0.43038,0.6907 -0.83784,1.97828 -0.70485,0.71561 -1.22776,1.35489 -1.16203,1.42062 0.28216,0.28217 3.97112,-1.60414 5.69897,-2.9141 1.03491,-0.7846 2.00443,-1.42655 2.15451,-1.42655 0.38364,0 0.59406,0.66367 0.59406,1.87372 0,0.79465 -0.10382,1.0367 -0.44468,1.0367 -0.24457,0 -1.29892,0.59054 -2.34301,1.31231 -1.04408,0.72178 -2.48108,1.54046 -3.19334,1.81929 -2.42833,1.18076 -3.06046,1.05651 -5.69909,1.59628 z m 119.54916,-4.20562 c -1.065,-0.83771 -1.14652,-1.50737 -0.29213,-2.39918 0.88511,-0.92385 1.8142,-0.98934 3.29782,-0.23245 1.3044,0.66545 1.57374,0.5446 4.00304,-1.79599 0.97261,-0.9371 1.89534,-1.62535 2.05052,-1.52945 0.53176,0.32866 0.28184,1.48868 -0.56055,2.60166 -2.39588,3.16556 -6.61992,4.83327 -8.4987,3.35541 z M 2.8213013,144.66919 c -0.4794117,-0.19413 -0.5020363,-0.61457 -0.5012266,-9.31427 5.291e-4,-5.01103 0.091461,-10.6995 0.2022104,-12.64106 l 0.2013638,-3.53009 -1.6974132,0.18178 c -1.40003741,0.14993 -1.76039991,0.10588 -2.0569449,-0.25143 -0.4587346,-0.55275 -0.2310633,-0.74824 1.57595887,-1.35325 C 1.3456142,117.4929 2.09638,117.1958 2.2136196,117.10064 2.4880401,116.87792 2.7350181,93.004679 2.4670269,92.605907 2.3274301,92.398188 1.5753202,92.357325 0.03207177,92.473615 l -2.23296687,0.168262 -0.2246366,0.870095 c -0.1235498,0.478555 -0.7260563,1.357712 -1.3389054,1.953686 -0.6128491,0.595974 -1.0774336,1.254297 -1.0324095,1.462942 0.060479,0.280258 -0.1399037,0.357392 -0.7670668,0.295275 -1.2746778,-0.126251 -1.5077969,-0.719799 -0.9382363,-2.388883 0.7481226,-2.192364 1.415124,-2.853997 3.108878,-3.083843 0.7911148,-0.107357 1.5638648,-0.272743 1.7172279,-0.367525 0.654214,-0.404325 6.5244847,-1.544632 7.5654984,-1.469604 0.927735,0.06686 1.1380867,0.178263 1.1380867,0.602713 0,0.381593 -0.2827258,0.600017 -1.0583333,0.817637 l -1.0583333,0.296947 0.029059,12.230233 c 0.028498,11.99408 0.039809,12.24477 0.585798,12.98326 l 0.5567363,0.75302 -0.5369057,0.68257 c -0.5180092,0.65854 -0.5403162,1.10301 -0.633783,12.62858 L 4.8149024,142.855 6.732388,142.69291 c 1.054616,-0.0892 2.683555,-0.33522 3.61986,-0.54682 0.936307,-0.21161 2.773939,-0.46238 4.083627,-0.55728 1.309687,-0.0949 3.571875,-0.34549 5.027083,-0.55686 1.455208,-0.21138 4.651184,-0.67835 7.102171,-1.03772 2.450986,-0.35937 4.504814,-0.6534 4.564062,-0.6534 0.05925,0 0.107725,-0.53951 0.107725,-1.19892 0,-1.35294 0.403127,-1.68643 1.550723,-1.28285 0.482801,0.16979 0.736465,0.48505 0.83067,1.03238 l 0.135615,0.78794 3.173267,0.16256 c 4.388033,0.22479 24.873543,0.27397 25.087292,0.0602 0.09575,-0.0958 0.07116,-0.30411 -0.05464,-0.46302 -0.125804,-0.15891 -0.41965,-1.00331 -0.652992,-1.87643 -0.233341,-0.87313 -1.113155,-3.61156 -1.955141,-6.08542 -1.494364,-4.39061 -3.766698,-11.44824 -6.346465,-19.71146 l -1.280343,-4.10104 -3.603066,-0.0734 c -2.462102,-0.0502 -3.68916,-0.17718 -3.874942,-0.40103 -0.149532,-0.18017 -1.604693,-2.88556 -3.233693,-6.01197 -4.20678,-8.073744 -5.225291,-9.778351 -6.024084,-10.082051 -0.372194,-0.141507 -2.008343,-0.328649 -3.635885,-0.415872 -2.49418,-0.133667 -3.05688,-0.09015 -3.580987,0.276953 -0.342001,0.239546 -1.056442,0.435539 -1.587649,0.435539 -0.531204,0 -1.486979,0.230057 -2.12394,0.511241 -0.636963,0.281183 -1.812956,0.537771 -2.613321,0.570193 C 18.860398,91.579169 11.018,91.155298 10.268689,90.870181 9.3881479,90.535131 9.3221396,89.984165 10.136397,89.765953 c 0.982065,-0.263184 7.399891,-0.187042 8.988568,0.10664 1.312408,0.242612 1.668024,0.202528 3.157448,-0.355888 0.923155,-0.346112 2.095182,-0.781484 2.604505,-0.967494 1.672826,-0.610934 5.259163,-0.879655 7.083071,-0.530731 0.932381,0.178369 2.269043,0.241192 3.051572,0.143423 1.600073,-0.199916 1.908714,0.02664 3.219574,2.363327 0.408178,0.727604 0.88959,1.501511 1.069806,1.719792 0.463065,0.560877 4.423635,8.163508 5.664456,10.873368 0.316802,0.69188 0.83833,1.34434 1.209866,1.51363 0.359169,0.16364 1.817142,0.28933 3.239939,0.27929 3.348771,-0.0236 4.447027,0.42993 4.850784,2.0032 0.151482,0.59027 0.460634,1.609 0.687006,2.26384 0.22637,0.65485 0.63078,1.96454 0.898689,2.91042 0.267909,0.94589 0.680461,2.37464 0.916781,3.175 0.236324,0.80037 0.524682,1.87193 0.6408,2.38125 0.116118,0.50932 0.562703,1.93807 0.99241,3.175 1.175689,3.38425 1.929413,5.92906 1.929413,6.51429 0,0.288 0.103238,0.63674 0.229418,0.77498 0.126177,0.13825 0.414324,0.78714 0.640323,1.44198 1.734963,5.02713 2.935565,8.13985 3.291176,8.53281 0.239977,0.26518 0.797171,0.46302 1.304049,0.46302 h 0.885034 v -1.8201 c 0,-1.997 0.484711,-4.90725 2.120553,-12.732 0.593239,-2.83765 1.191914,-5.81422 1.330384,-6.61458 0.138472,-0.80037 0.420042,-2.28865 0.625713,-3.30729 0.974389,-4.82595 1.611624,-9.38844 1.415835,-10.13714 -0.351932,-1.3458 2.656293,-0.75243 4.94469,0.97532 1.344165,1.01486 5.112901,5.0173 5.970667,6.34092 0.399124,0.61589 0.405254,0.61118 1.719791,-1.32144 2.756588,-4.05269 4.462016,-6.34879 4.990537,-6.71898 1.09035,-0.76371 2.231189,-0.28838 2.655213,1.10629 0.09426,0.31005 0.281109,2.03646 0.415208,3.83646 0.602435,8.08653 0.863451,10.30521 1.490022,12.66544 0.366998,1.38245 0.908878,3.46604 1.204182,4.63021 0.547079,2.15674 1.297324,4.62172 2.415858,7.9375 0.739034,2.19078 0.713779,2.18123 4.183222,1.58115 4.10161,-0.70944 8.02597,-0.93829 11.42847,-0.66647 1.71699,0.13717 3.278,0.18946 3.4689,0.1162 0.1909,-0.0733 0.81015,-0.98529 1.37611,-2.02675 0.56596,-1.04146 1.70404,-2.80875 2.52906,-3.92731 0.82502,-1.11857 1.99686,-2.82042 2.60409,-3.78189 1.22927,-1.94642 1.96483,-2.34224 3.04155,-1.63675 0.36274,0.23768 0.65953,0.61391 0.65953,0.83606 0,0.57604 0.66189,1.80746 2.17157,4.04011 0.72248,1.06847 1.65218,2.65858 2.06599,3.53358 l 0.75237,1.59091 0.65485,-1.29228 c 0.36016,-0.71075 1.09855,-2.65805 1.64087,-4.32733 0.54231,-1.66928 1.19863,-3.51131 1.45848,-4.0934 0.25985,-0.58208 1.01367,-2.67796 1.67516,-4.65752 2.52707,-7.56241 5.45249,-14.08755 7.16996,-15.99257 0.75945,-0.84238 0.8433,-0.87075 1.68241,-0.56928 0.76539,0.27499 0.98831,0.58183 1.67218,2.30166 0.43399,1.09141 0.89979,2.19112 1.03511,2.44381 0.13533,0.25269 0.24604,0.60988 0.24603,0.79375 -1e-5,0.18388 0.88295,2.12026 1.96212,4.30307 2.53221,5.1218 3.85873,8.04376 3.85873,8.4997 0,0.20011 0.0893,0.36429 0.19844,0.36483 0.10914,5.3e-4 0.41865,0.5661 0.6878,1.25677 0.26916,0.69068 1.09754,2.68453 1.84085,4.43078 0.74332,1.74625 1.67121,4.06797 2.06199,5.15938 0.66742,1.86405 0.75634,1.98202 1.46644,1.94556 3.22496,-0.16557 5.90073,-0.44516 6.52457,-0.68175 0.88503,-0.33565 1.37172,-1.23684 2.68294,-4.96798 0.53697,-1.52797 1.54576,-4.14734 2.24175,-5.82083 0.696,-1.67349 1.59334,-3.96601 1.9941,-5.09449 0.40075,-1.12848 0.83832,-2.11957 0.97238,-2.20242 0.59869,-0.37001 1.93937,0.32076 3.71813,1.91575 l 1.92495,1.72606 0.89131,-1.93501 c 1.37809,-2.99179 4.07749,-10.38976 4.94001,-13.53858 0.44298,-1.6172 0.78858,-1.93197 1.83331,-1.66976 0.54758,0.13743 0.76066,0.55333 1.47183,2.8728 0.45735,1.49166 1.04596,3.30742 1.30802,4.03502 0.26206,0.72761 0.55736,1.79917 0.65622,2.38125 0.3443,2.02712 1.27966,5.69782 1.48411,5.82417 0.11323,0.07 0.59393,-0.31886 1.06823,-0.86409 0.47429,-0.54523 1.70667,-1.73271 2.73863,-2.63885 2.62899,-2.30846 3.53568,-2.18386 3.78285,0.51985 0.07,0.76574 0.35427,2.04297 0.63171,2.83829 0.27744,0.79533 0.50443,1.76747 0.50443,2.16032 0,0.39286 0.46158,1.58761 1.02573,2.65501 1.12101,2.12099 1.97134,4.20489 3.08612,7.5631 1.01093,3.04539 1.02317,3.05697 3.46675,3.27912 3.16698,0.28791 7.23807,0.26656 7.23807,-0.038 0,-0.4729 0.69212,-0.28069 1.7508,0.48621 l 1.03642,0.75079 16.20118,0.18728 c 15.18568,0.17554 -16.60715,0.1589 -16.60715,-0.26543 0,-0.55515 2.61795,-5.54076 3.90816,-7.4427 0.51827,-0.76399 1.14202,-1.38907 1.38613,-1.38907 0.24413,0 1.19681,0.50561 2.11709,1.12357 1.12675,0.75659 1.70981,1.01387 1.78519,0.78773 0.18455,-0.55363 1.79205,-2.79605 2.07105,-2.88905 0.14254,-0.0475 1.38587,0.57944 2.763,1.39321 2.82178,1.66745 2.44279,1.73867 3.97047,-0.74618 1.15927,-1.88559 2.00673,-1.78455 5.27031,0.62832 0.61809,0.45699 0.86294,0.51343 1.15946,0.26734 0.20674,-0.17159 1.34289,-0.38655 2.52476,-0.47768 1.18189,-0.0911 2.24694,-0.29689 2.36683,-0.45721 0.11985,-0.16033 0.42619,-1.06541 0.68069,-2.0113 0.25453,-0.94588 0.67768,-2.07697 0.94033,-2.51354 0.26265,-0.43656 0.55758,-1.24354 0.6554,-1.79329 0.0978,-0.54974 0.2798,-0.93653 0.40442,-0.85953 0.12459,0.077 0.1674,-0.0861 0.0951,-0.36251 -0.0723,-0.27639 0.0459,-0.78257 0.26265,-1.12485 0.21675,-0.34227 0.72115,-1.66402 1.12091,-2.9372 0.39976,-1.27319 0.87757,-2.43999 1.06183,-2.5929 0.45463,-0.37733 1.92601,0.25493 3.3955,1.45908 0.6277,0.51434 1.32763,0.93516 1.55543,0.93516 0.22781,0 0.65435,-0.38856 0.94785,-0.86346 0.2935,-0.4749 0.83899,-1.12896 1.21221,-1.45346 0.3732,-0.3245 0.67855,-0.70985 0.67855,-0.85633 0,-0.55525 0.78325,-0.21548 3.11116,1.34962 1.32196,0.88877 2.52161,1.54299 2.66589,1.45382 0.14428,-0.0892 0.33806,-0.61042 0.43063,-1.15834 0.0926,-0.54792 0.25175,-1.1298 0.35375,-1.29306 0.24532,-0.3927 5.85383,-0.87585 6.48526,-0.55868 0.26344,0.13233 0.44069,0.44092 0.39386,0.68576 -0.0924,0.4835 -1.57031,0.77659 -4.12854,0.81887 l -1.40364,0.0232 -0.6278,1.41957 c -0.34529,0.78076 -0.80404,1.48721 -1.01947,1.56987 -0.21542,0.0827 -1.42711,-0.44341 -2.69264,-1.16905 -1.26552,-0.72565 -2.49039,-1.28287 -2.72192,-1.23829 -0.23151,0.0446 -0.90366,0.69727 -1.49365,1.45041 -0.58997,0.75314 -1.27426,1.44324 -1.52064,1.53355 -0.51764,0.18974 -2.29757,-0.65273 -3.6848,-1.74415 l -0.95774,-0.75351 -1.10816,2.78215 c -0.60948,1.53016 -1.26984,3.31937 -1.46743,3.976 -0.19762,0.65662 -0.47257,1.33716 -0.61097,1.5123 -0.13843,0.17514 -0.5102,1.07633 -0.82617,2.00263 -0.63198,1.85275 -1.47732,3.62505 -1.83427,3.84567 -0.12621,0.078 -1.11017,0.26746 -2.1866,0.42104 -1.07643,0.15358 -2.34759,0.47567 -2.82482,0.71575 -0.8299,0.41751 -0.899,0.41205 -1.5875,-0.12524 -0.3959,-0.30897 -1.17952,-0.89073 -1.74136,-1.2928 l -1.02153,-0.73104 -0.83055,0.93602 c -0.4568,0.51481 -1.04204,1.32914 -1.30048,1.80961 -0.42482,0.78969 -0.55745,0.85938 -1.38121,0.72571 -0.50117,-0.0813 -1.77223,-0.70484 -2.82453,-1.38558 -2.16868,-1.40292 -1.82631,-1.50134 -3.58711,1.03125 -0.46996,0.67593 -0.95515,1.22896 -1.07823,1.22896 -0.12309,0 -0.91377,-0.53578 -1.75708,-1.19063 -0.8433,-0.65484 -1.62562,-1.19062 -1.73847,-1.19062 -0.32046,0 -2.23097,2.10469 -2.85321,4.7625 l -1.05569,2.24896 7.84357,0.16917 c 4.31396,0.0931 11.89168,0.29955 16.83938,0.45889 12.29509,0.39597 46.92558,0.97832 52.12292,0.87651 4.7462,-0.093 18.76176,-0.49088 23.41563,-0.66477 3.77658,-0.14111 7.29853,-0.54172 8.30318,-0.94446 1.49471,-0.59921 2.28184,0.23525 1.22182,1.29528 -0.39151,0.3915 -0.89056,0.53159 -1.91823,0.53846 -0.76399,0.005 -2.16297,0.17953 -3.10886,0.38758 -0.94588,0.20806 -2.3151,0.38429 -3.04271,0.39163 -1.99352,0.0201 -2.23207,0.28084 -1.3808,1.50923 0.85524,1.23411 1.03378,2.27271 0.41296,2.40249 -0.49935,0.10438 -1.49315,-0.88191 -2.51222,-2.49319 -0.59486,-0.94054 -0.85368,-1.11842 -1.78292,-1.22539 -0.59785,-0.0688 -5.49233,-0.005 -10.8766,0.14131 -7.00373,0.19061 -13.06483,0.17847 -21.29896,-0.0426 -6.33015,-0.17 -16.27187,-0.36049 -22.09271,-0.42332 -5.82083,-0.0628 -11.71442,-0.17988 -13.09687,-0.26012 -1.38245,-0.0802 -5.07339,-0.20242 -8.20208,-0.27153 -6.18191,-0.13655 -8.20209,-0.31412 -8.20209,-0.72098 0,-0.14939 -0.16459,-0.12629 -0.38124,0.0535 -0.28749,0.23861 -3.06821,0.28662 -11.31093,0.19527 -6.01134,-0.0666 21.68231,-0.20254 21.44238,-0.30203 -0.23995,-0.0995 -0.50125,-0.0757 -0.5807,0.0528 -0.15108,0.24446 -7.58201,0.17394 -9.14485,-0.0868 -0.49578,-0.0827 -2.16265,-0.17696 -3.70417,-0.20945 -1.54154,-0.0325 -3.04091,-0.15389 -3.33195,-0.26977 -0.42823,-0.17051 -0.45347,-0.15402 -0.13229,0.0865 0.30202,0.22615 -0.17222,0.28517 -1.98438,0.247 -1.30968,-0.0276 -2.55293,-0.17985 -2.76277,-0.33835 -0.28861,-0.21802 -0.33314,-0.20766 -0.18281,0.0426 0.13994,0.23297 -0.0209,0.33193 -0.54453,0.33478 -1.44518,0.008 -1.47323,0.30998 -0.19884,2.14063 0.78703,1.13056 1.13922,1.87511 1.02624,2.16955 -0.30726,0.80069 -0.7484,0.4573 -2.49666,-1.9435 -1.33948,-1.83944 -1.86605,-2.36747 -2.38125,-2.38785 -0.3638,-0.0144 -3.3999,-0.0228 -6.74688,-0.0187 -3.34697,0.004 -6.5319,-0.0926 -7.0776,-0.21481 -0.71015,-0.1591 -0.99219,-0.13383 -0.99219,0.0889 0,0.38254 -2.28966,0.52395 -2.51739,0.15547 -0.0878,-0.14209 -0.361,-0.25652 -0.60708,-0.25429 -0.36149,0.003 -0.3765,0.0489 -0.0781,0.23786 0.2459,0.15571 -0.12986,0.26484 -1.12484,0.32668 -0.82175,0.0511 -1.49393,-0.008 -1.49373,-0.13221 2e-4,-0.1238 -0.56519,-0.14922 -1.25641,-0.0565 -0.69123,0.0927 -1.69308,0.194 -2.22635,0.22507 -0.53326,0.0311 -1.05912,0.1458 -1.16857,0.25494 -0.10945,0.10914 -0.56611,0.19662 -1.0148,0.19439 -0.62402,-0.003 -0.7225,-0.0644 -0.41893,-0.26053 0.34203,-0.22104 0.33504,-0.25704 -0.0505,-0.26054 -0.24607,-0.002 -0.52099,0.11502 -0.61093,0.26054 -0.0899,0.14552 -1.05648,0.26458 -2.14789,0.26458 -1.28753,0 -1.92553,-0.0952 -1.8168,-0.27114 0.19686,-0.31854 -0.45734,-0.22931 -0.69476,0.0948 -0.20032,0.27343 -1.44846,0.30294 -9.03069,0.21356 -3.30947,-0.039 -6.10744,-0.0154 -6.21771,0.0524 -0.22248,0.13684 -4.83149,0.32883 -16.34006,0.68063 -4.22011,0.129 -7.85151,0.24159 -8.06979,0.25019 -10.1494,0.40008 -22.84221,1.05226 -26.59063,1.36626 -1.74625,0.14628 -5.49672,0.38279 -8.33437,0.52558 -7.91807,0.39842 -10.31875,0.58502 -10.31875,0.80202 0,0.10945 0.53578,0.76621 1.19062,1.45947 0.83593,0.88496 1.19063,1.48439 1.19063,2.01213 0,0.97948 -0.33548,0.95015 -1.15835,-0.10129 -0.3866,-0.49399 -0.91354,-0.85587 -1.25208,-0.85989 -0.38712,-0.005 -0.86947,-0.4091 -1.428094,-1.19758 l -0.843539,-1.19062 -4.433102,0.0315 c -4.373015,0.0311 -11.288834,0.39501 -18.004628,0.94741 -1.891771,0.1556 -12.131146,0.32553 -22.754167,0.37762 -10.623021,0.0521 -19.446727,0.14498 -19.608236,0.20644 -0.16151,0.0615 -0.374923,0.72436 -0.474248,1.47311 -0.177945,1.34143 -0.193026,1.36017 -1.029263,1.2793 -0.794057,-0.0768 -0.857181,-0.15867 -0.980961,-1.27268 l -0.132292,-1.19063 -1.190625,0.0808 c -0.654844,0.0444 -2.976563,0.36296 -5.159375,0.70786 -2.182812,0.3449 -5.159375,0.76087 -6.614583,0.92438 -5.854266,0.6578 -7.435964,0.87506 -8.039921,1.10438 -0.347371,0.1319 -1.8356522,0.40733 -3.3072912,0.61207 -1.4716363,0.20473 -2.9138298,0.43407 -3.2048715,0.50962 -0.2910416,0.0756 -0.7550996,0.0459 -1.03124,-0.0659 z M 76.74525,138.54005 c 2.837656,-0.1475 7.832148,-0.44439 11.098871,-0.65974 3.266723,-0.21536 6.66859,-0.39156 7.559704,-0.39156 h 1.620208 l -0.88447,-2.71198 c -2.108936,-6.46648 -4.205952,-14.41533 -4.694095,-17.79323 -0.210294,-1.45521 -0.46468,-4.52106 -0.565301,-6.81302 -0.100621,-2.29195 -0.265295,-4.16719 -0.365937,-4.16719 -0.264401,0 -1.128271,1.00981 -2.037112,2.38125 -0.433956,0.65485 -1.169022,1.72641 -1.633477,2.38125 -0.464454,0.65485 -1.134435,2.02407 -1.488844,3.04271 -0.555583,1.59686 -0.739643,1.86384 -1.335673,1.93735 -0.966591,0.11922 -1.269201,-0.20892 -2.79492,-3.03075 -1.671281,-3.09105 -6.161101,-8.02827 -6.757975,-7.4314 -0.06437,0.0644 -0.229904,1.11581 -0.36786,2.33655 -0.137957,1.22072 -0.484373,3.29107 -0.769816,4.60075 -0.587563,2.69589 -0.992854,4.83115 -1.35595,7.14375 -0.137089,0.87313 -0.479123,2.65907 -0.760079,3.96875 -1.117452,5.20904 -1.360186,6.48092 -1.868313,9.78959 -0.290526,1.89177 -0.649145,3.85551 -0.79693,4.36387 -0.147783,0.50837 -0.268698,1.01438 -0.268698,1.12448 0,0.26898 2.289522,0.24967 8.466667,-0.0714 z m 31.64443,-1.59746 c 3.76884,-0.17082 6.90205,-0.35594 6.96269,-0.41138 0.0606,-0.0554 0.0211,-0.19009 -0.0878,-0.29923 -0.33516,-0.33585 -9.14889,-0.21513 -11.53183,0.15794 -1.23693,0.19366 -2.63922,0.40707 -3.11621,0.47425 -0.51658,0.0728 -0.797809,0.23451 -0.695513,0.40002 0.09445,0.15283 0.496743,0.21287 0.893963,0.13343 0.39723,-0.0794 3.80584,-0.28421 7.57469,-0.45503 z m 17.17119,-1.06909 c 2.91042,-0.16882 5.32506,-0.33449 5.36588,-0.36815 0.33056,-0.27259 -4.7648,-9.67583 -5.2296,-9.65098 -0.1274,0.007 -0.46707,0.45633 -1.93031,2.55456 -0.32297,0.46312 -1.19477,1.71328 -1.93734,2.77812 -0.74257,1.06484 -1.54335,2.31154 -1.77952,2.77043 -0.23617,0.45889 -0.84901,1.09368 -1.36186,1.41064 -1.31433,0.8123 -1.19693,1.16394 0.32432,0.97141 0.69122,-0.0875 3.63802,-0.2972 6.54843,-0.46603 z m 24.32394,-1.03838 c 4.64691,-0.14598 8.50328,-0.31976 8.5697,-0.38618 0.48117,-0.48117 -3.89941,-11.65437 -7.62551,-19.44977 -1.42592,-2.98318 -2.97809,-6.52905 -3.44925,-7.87971 -0.77515,-2.22206 -0.89729,-2.41892 -1.28361,-2.06873 -0.88616,0.80331 -4.61461,9.06866 -6.09892,13.52031 -0.43669,1.30969 -1.22247,3.57188 -1.74618,5.02709 -0.52371,1.4552 -1.16601,3.3602 -1.42733,4.23333 -0.64311,2.14868 -2.19434,5.7159 -2.94253,6.76664 l -0.61113,0.85824 4.08291,-0.1779 c 2.24561,-0.0978 7.88493,-0.29735 12.53185,-0.44332 z m 48.65515,-1.33418 c 7.72064,-0.34884 7.88888,-0.36825 7.76656,-0.89635 -0.42962,-1.85487 -2.81248,-8.13698 -4.01837,-10.59396 -1.31545,-2.68021 -2.51165,-6.27291 -2.51165,-7.54358 0,-0.73276 -0.49204,-0.65832 -0.78763,0.11916 -0.13496,0.35495 -0.47487,0.76819 -0.75536,0.9183 -0.2805,0.15012 -1.1983,1.22892 -2.03957,2.39734 -0.89772,1.24682 -1.7185,2.1244 -1.98691,2.1244 -1.26002,0 -1.95038,-1.66233 -3.18653,-7.67292 -0.83345,-4.05254 -1.60376,-6.6794 -1.87821,-6.40496 -0.13602,0.13603 -0.64988,1.3649 -1.14191,2.73083 -1.85374,5.14618 -2.59365,7.03835 -3.50597,8.9658 -0.5166,1.09141 -1.08756,2.4011 -1.2688,2.91042 -0.56244,1.58054 -1.79898,1.35921 -2.95649,-0.52917 -0.3122,-0.50932 -1.04483,-1.39029 -1.62807,-1.95772 l -1.06045,-1.03167 -0.38472,0.89938 c -0.21159,0.49466 -0.59617,1.43517 -0.85461,2.09001 -0.25845,0.65485 -0.76215,1.84547 -1.11935,2.64583 -0.97668,2.18843 -3.80208,9.81527 -3.95439,10.67445 l -0.13342,0.75257 9.75713,-0.1208 c 5.36642,-0.0664 13.30835,-0.28125 17.64872,-0.47736 z m 12.34904,-0.51011 c 0,-0.14552 -0.29766,-0.26458 -0.66146,-0.26458 -0.3638,0 -0.74778,-0.009 -0.85328,-0.0198 -0.1055,-0.0109 -0.23449,0.10815 -0.28663,0.26458 -0.0559,0.16757 0.29472,0.28443 0.85328,0.28443 0.52145,0 0.94809,-0.11906 0.94809,-0.26459 z m -234.006359,-5.37837 c -0.44682,-0.32672 -0.41539,-0.38965 0.449459,-0.89992 0.611992,-0.36109 1.038455,-0.87764 1.247494,-1.51104 0.382164,-1.15797 0.161338,-1.51475 -1.432269,-2.31403 -1.927857,-0.96692 -2.82992,-2.21729 -1.979025,-2.74317 0.158197,-0.0978 0.228849,-0.40256 0.157001,-0.67731 -0.350509,-1.34035 4.460388,-2.90429 6.427523,-2.08947 1.182164,0.48966 0.995328,0.97337 -0.456012,1.18057 -2.515489,0.35914 -3.185721,0.641 -3.626853,1.52527 -0.516593,1.03554 -0.287827,1.3279 1.592308,2.03492 1.768134,0.6649 2.202942,1.42269 1.696619,2.95686 -0.738999,2.23919 -2.761914,3.49839 -4.076245,2.53732 z m 7.452355,-0.6409 c -0.229497,-0.25466 -0.494533,-0.7727 -0.588965,-1.15121 -0.420209,-1.68427 1.299305,-6.99732 2.46684,-7.62216 1.060453,-0.56754 2.37503,-0.21966 2.383785,0.63082 0.0061,0.59561 0.590055,0.38916 0.85262,-0.30143 0.1564,-0.41137 0.569068,-1.12121 0.9170401,-1.57742 1.055452,-1.38377 3.2997669,-1.36645 3.2997669,0.0255 0,1.27601 -0.4728448,1.94302 -1.7724067,2.50021 -1.9245053,0.82515 -1.9342413,0.83511 -2.4766883,2.53479 -0.278653,0.87313 -0.709144,2.22155 -0.956646,2.99649 -0.249547,0.78134 -0.738391,1.63584 -1.097396,1.91823 -0.824619,0.64865 -2.462522,0.67365 -3.02795,0.0462 z m 2.452897,-3.22892 c 0.143361,-0.51604 0.261321,-1.46979 0.26213,-2.11944 0.0013,-1.0717 -0.0369,-1.1428 -0.41257,-0.76713 -0.509026,0.50903 -1.287102,3.78582 -1.046363,4.40667 0.160641,0.41429 0.20707,0.40886 0.555717,-0.0649 0.209238,-0.28432 0.497726,-0.93917 0.641086,-1.45521 z m 7.0514894,2.67892 c -0.2408369,-0.26612 -0.4378827,-0.74237 -0.4378827,-1.05833 0,-0.82341 -0.361995,-0.71131 -1.1842486,0.36672 -0.5551381,0.72783 -0.8766545,0.92277 -1.4182037,0.8599 -0.9683724,-0.11243 -1.0148144,-0.77003 -0.1700609,-2.40805 0.919353,-1.78268 2.1777748,-3.09722 2.9650108,-3.09722 0.8557657,0 1.0341001,0.68212 0.5385911,2.06007 l -0.4207722,1.17012 0.7047363,-0.64847 c 1.247767,-1.14815 1.9911986,-1.52338 3.0182423,-1.52338 0.8044365,0 1.0629476,0.12689 1.2946856,0.6355 0.41632187,0.91373 -0.8819039,3.27136 -2.0761299,3.77034 -1.1856825,0.49541 -2.2959351,0.44522 -2.8139681,-0.1272 z M 276.60224,108.51921 c -0.1661,-0.43288 0.61947,-2.94196 1.11908,-3.57421 0.17249,-0.21828 0.57584,-1.01346 0.89636,-1.76707 0.32052,-0.75361 0.7801,-1.53687 1.02132,-1.74058 0.63878,-0.53948 2.91187,-0.9895 6.52396,-1.2916 6.25502,-0.523133 5.55461,-0.236589 8.37277,-3.425424 1.36133,-1.540394 2.71327,-3.129058 3.00431,-3.530367 0.68509,-0.944629 1.93514,-1.183159 6.27851,-1.198018 2.45864,-0.0084 3.65594,-0.126701 4.43416,-0.438078 0.58631,-0.234606 1.42745,-0.373515 1.86915,-0.308687 0.75374,0.110627 0.86177,0.01087 1.75871,-1.623965 0.52559,-0.958009 1.22343,-2.106086 1.55075,-2.551282 0.32734,-0.445198 0.63619,-1.100042 0.68633,-1.455208 0.0896,-0.634802 0.14951,-0.649134 3.53073,-0.844447 1.89177,-0.109275 3.94046,-0.132516 4.55266,-0.05164 1.36265,0.180012 2.30113,0.87199 1.94291,1.432597 -0.18769,0.293764 -1.10683,0.431401 -3.76878,0.564348 -1.9363,0.09671 -3.72739,0.261456 -3.9802,0.36611 -0.41294,0.170928 -1.07654,1.23939 -2.79599,4.501859 -0.30678,0.582083 -0.62407,1.280533 -0.70509,1.552111 -0.13321,0.446591 -0.33414,0.476272 -2.10235,0.310576 -1.55977,-0.146163 -2.12495,-0.09534 -2.79543,0.251376 -0.73136,0.378208 -1.19716,0.398669 -3.59108,0.157736 -3.4286,-0.345069 -4.13851,-0.207671 -5.18134,1.002813 -0.45423,0.527297 -2.00136,2.168679 -3.43804,3.64752 -3.00181,3.08992 -2.4106,2.87131 -8.82994,3.26505 -2.32887,0.14285 -4.76965,0.41164 -5.42396,0.59733 -1.29718,0.36812 -1.30641,0.38126 -3.16413,4.50968 -0.88056,1.95687 -1.44349,2.48029 -1.76538,1.64147 z M -26.260458,95.47167 c -0.666957,-0.696153 -0.710959,-0.893731 -0.710959,-3.192394 0,-2.8164 0.240529,-3.47559 1.26608,-3.469807 1.322664,0.0075 1.455157,0.260493 1.082113,2.066592 -0.251611,1.218179 -0.264755,2.031394 -0.05301,3.280272 0.154845,0.9133 0.230529,1.749841 0.168188,1.858981 -0.241755,0.423246 -1.073181,0.165315 -1.752407,-0.543644 z m 10.577981,-0.0029 c -0.682281,-0.753915 -0.780809,-1.891014 -0.331666,-3.82769 0.492083,-2.121824 1.283311,-3.771122 1.990778,-4.149746 0.64285,-0.344043 1.877235,-0.346512 2.397781,-0.0048 0.348351,0.228679 0.349287,0.291123 0.0077,0.51073 -0.214066,0.137607 -0.293116,0.345967 -0.175662,0.463021 0.246055,0.245216 0.788046,-0.393787 1.8238418,-2.15029 0.8534956,-1.447363 2.1586402,-2.139982 3.5430883,-1.880256 1.5034393,0.282046 1.6152733,1.083119 0.5100479,3.653504 l -0.4289663,0.997638 0.7995761,0.159914 c 1.1669316,0.233387 1.0194396,0.881444 -0.6050174,2.658377 -0.7725251,0.84504 -1.6736034,1.923389 -2.0023905,2.396332 -0.6445991,0.927219 -1.4456172,1.106992 -2.2644839,0.508219 -0.616069,-0.450479 -0.350933,-0.996198 1.6069361,-3.307506 0.7802854,-0.921144 1.4187012,-1.776322 1.4187012,-1.900399 0,-0.528251 -1.061937,-0.507068 -2.0210384,0.04031 -1.5878549,0.906221 -1.9253089,1.281924 -2.3228249,2.586101 -0.533246,1.749483 -1.225142,3.299875 -1.572852,3.524432 -0.566545,0.365882 -1.936004,0.205544 -2.373511,-0.277894 z m -5.997273,-0.313368 c -0.665568,-0.665567 -0.663046,-1.362448 0.0168,-4.64218 0.576961,-2.783433 1.063156,-3.559903 2.229072,-3.559903 1.002697,0 1.244478,0.570267 0.653677,1.541764 -0.674542,1.109192 -0.672185,1.623939 0.0066,1.446427 0.894578,-0.233939 1.85633,0.143526 1.85633,0.728562 0,0.727586 -1.485278,3.613412 -2.256882,4.385016 -0.768324,0.768324 -1.796447,0.809485 -2.505618,0.100314 z m 2.641782,-4.564062 c 0.0022,-0.109141 -0.115011,-0.198437 -0.260532,-0.198437 -0.145521,0 -0.262761,0.26789 -0.260533,0.595312 0.0033,0.481394 0.05313,0.519367 0.260533,0.198438 0.141065,-0.218282 0.258304,-0.486172 0.260532,-0.595313 z"
       id="path101" />
  </g>
</svg>
