<?xml version="1.0" encoding="UTF-8" standalone="no"?>
<!-- Created with Inkscape (http://www.inkscape.org/) -->

<svg
   width="287.43616mm"
   height="506.79633mm"
   viewBox="0 0 287.43616 506.79633"
   version="1.1"
   id="svg5"
   xmlns="http://www.w3.org/2000/svg"
   xmlns:svg="http://www.w3.org/2000/svg">
  <defs
     id="defs2" />
  <g
     id="layer1"
     transform="translate(-25.199123,114.08142)">
    <path
       style="fill:#dab;stroke-width:0.264583"
       d="m 46.364083,392.5932 c -0.945885,-0.11957 -2.210776,-0.33049 -2.81087,-0.46871 -0.600091,-0.13822 -1.701419,-0.19264 -2.447396,-0.12097 -0.906957,0.0872 -1.356317,0.0315 -1.356317,-0.16793 0,-0.42667 -1.214163,-0.36806 -2.124221,0.10255 -0.707943,0.36608 -1.569223,0.42807 -5.350259,0.38502 -0.545703,-0.006 -1.438672,0.0106 -1.984375,0.0373 -0.91767,0.0449 -1.825733,-0.27416 -3.505729,-1.23195 -0.363802,-0.20741 -0.578236,-0.37889 -0.476522,-0.38103 0.101716,-0.003 0.01241,-0.41677 -0.198438,-0.92144 -0.210854,-0.50464 -0.383373,-1.63734 -0.383373,-2.51714 0,-0.87976 -0.148828,-1.83972 -0.330729,-2.13323 -0.267248,-0.43121 -0.263549,-0.57547 0.01926,-0.75152 0.258125,-0.16071 0.332629,-0.87045 0.283843,-2.70391 -0.03896,-1.4642 0.07581,-2.9754 0.279241,-3.67665 0.402606,-1.38784 0.405328,-8.65537 0.0034,-9.13963 -0.158956,-0.19151 -0.163483,-0.5955 -0.01204,-1.07381 0.133533,-0.42172 0.304607,-2.03264 0.380164,-3.57979 0.08342,-1.70828 0.30638,-3.21498 0.567704,-3.83646 0.23668,-0.5629 0.488958,-1.84928 0.560617,-2.85866 0.07166,-1.00939 0.188654,-1.92966 0.259985,-2.04507 0.07133,-0.11544 -0.01442,-0.69091 -0.190584,-1.27884 -0.279271,-0.93213 -0.263129,-1.11077 0.126081,-1.39539 0.245499,-0.17949 0.521584,-0.80224 0.613524,-1.38385 0.09194,-0.5816 0.263401,-1.12127 0.381027,-1.1993 0.294243,-0.19516 1.006327,-6.15992 1.137361,-9.52709 0.107053,-2.75098 0.637662,-5.61213 1.362491,-7.3469 0.208701,-0.49948 0.379457,-1.35628 0.379457,-1.90394 0,-0.54769 0.177861,-1.33681 0.395245,-1.75363 0.217385,-0.41683 0.395979,-0.94636 0.396875,-1.17676 7.94e-4,-0.23043 0.09093,-0.50851 0.200068,-0.61796 0.195426,-0.19601 0.225607,-0.7741 0.295494,-5.65947 0.02241,-1.56633 0.131559,-2.40347 0.299818,-2.29949 0.145521,0.0899 0.264584,-0.0816 0.264584,-0.38127 0,-0.29961 -0.133641,-0.54477 -0.296979,-0.54477 -0.205888,0 -0.213765,-0.10144 -0.02569,-0.33073 0.358547,-0.43709 0.491307,-1.56903 0.23274,-1.98438 -0.115787,-0.186 -0.08327,-0.33073 0.07431,-0.33073 0.154109,0 0.280199,-0.27384 0.280199,-0.60854 0,-0.3347 0.124949,-0.73348 0.277661,-0.88619 0.152715,-0.15272 0.326681,-1.25024 0.386588,-2.43891 0.06597,-1.30902 0.302858,-2.60278 0.60074,-3.28099 0.363056,-0.82658 0.503883,-1.84706 0.537913,-3.89787 0.02535,-1.52797 0.176004,-3.4925 0.33478,-4.36562 0.158774,-0.87313 0.308295,-1.97446 0.332269,-2.4474 0.02397,-0.47294 0.11774,-0.85989 0.208365,-0.85989 0.09063,0 0.238413,-0.56555 0.328414,-1.25677 0.09,-0.69123 0.276074,-2.03068 0.413496,-2.97657 0.167855,-1.15535 0.157015,-2.09396 -0.03303,-2.85988 -0.376933,-1.51916 -0.116533,-6.62461 0.388745,-7.6218 0.212661,-0.41971 0.516993,-1.59655 0.676291,-2.61519 0.159295,-1.01865 0.489156,-2.62599 0.733022,-3.57188 0.282745,-1.0967 0.471787,-3.06186 0.521767,-5.42396 0.06926,-3.27326 0.16111,-3.91961 0.78958,-5.55625 0.391165,-1.01864 0.737203,-2.2688 0.768977,-2.77812 0.08488,-1.36054 0.432091,-2.95077 0.808776,-3.70417 0.181893,-0.3638 0.416994,-1.53265 0.522443,-2.59747 0.10545,-1.06481 0.351287,-2.54087 0.546304,-3.28014 0.271232,-1.0282 0.287457,-1.63491 0.06902,-2.58122 -0.229923,-0.99608 -0.207531,-1.41375 0.114932,-2.14382 1.286704,-2.91316 1.726126,-5.56069 1.885088,-11.35777 0.01796,-0.65484 0.107429,-1.25015 0.198824,-1.32291 0.09139,-0.0728 0.286152,-1.32292 0.432795,-2.77813 0.146642,-1.45521 0.336571,-2.94349 0.422066,-3.30729 0.08549,-0.3638 0.188394,-1.25677 0.228663,-1.98437 0.04027,-0.72761 0.188786,-1.40571 0.330033,-1.50691 0.161992,-0.11605 0.124894,-0.5488 -0.10047,-1.17203 -0.196508,-0.54345 -0.401124,-1.65126 -0.454702,-2.46187 -0.05358,-0.81057 -0.148884,-2.00956 -0.211791,-2.6644 -0.06291,-0.65485 -0.136263,-2.14313 -0.163015,-3.30729 -0.06931,-3.01612 -0.458222,-4.8803 -1.202727,-5.76509 -0.350708,-0.4168 -0.638384,-0.89749 -0.639281,-1.06823 -7.94e-4,-0.17073 -0.169556,-0.63233 -0.374798,-1.02574 -0.206579,-0.39597 -0.446244,-1.93143 -0.536864,-3.43958 -0.09004,-1.49836 -0.274275,-3.61725 -0.409427,-4.70866 -0.321699,-2.59786 -0.768606,-6.2452 -0.907005,-7.40232 -0.06052,-0.50602 -0.352438,-1.11633 -0.6487,-1.35623 -0.296262,-0.2399 -0.470016,-0.50483 -0.386119,-0.5887 0.0839,-0.0839 -0.03555,-0.34065 -0.265441,-0.57052 -0.229889,-0.2299 -0.492784,-0.86064 -0.584211,-1.40166 -0.09143,-0.54104 -0.393763,-1.48841 -0.671853,-2.10529 -0.278091,-0.61687 -0.508233,-1.33125 -0.511429,-1.5875 -0.0032,-0.25625 -0.251931,-1.00168 -0.552747,-1.65653 -0.766564,-1.66872 -0.703821,-1.05748 -1.160491,-11.30572 -0.05985,-1.34319 -0.217665,-2.65287 -0.35069,-2.91042 -0.133022,-0.25752 -0.327718,-0.94448 -0.432654,-1.52657 -0.104937,-0.58208 -0.300803,-1.19152 -0.435258,-1.35432 -0.134456,-0.16277 -0.298935,-1.71058 -0.365509,-3.43958 -0.169331,-4.39775 -0.347716,-6.25298 -0.618308,-6.43054 -0.398205,-0.26128 -0.771887,-1.16451 -0.96562,-2.33408 -0.102323,-0.61769 -0.294743,-1.19025 -0.427601,-1.27238 -0.338823,-0.20939 -0.301342,-1.27537 0.05746,-1.63417 0.164463,-0.16444 0.348983,-0.7524 0.410049,-1.30654 0.06107,-0.55412 0.270129,-1.09654 0.464584,-1.20536 0.194456,-0.10882 0.431332,-0.61243 0.526386,-1.11914 0.09506,-0.50667 0.323154,-1.07391 0.506884,-1.2605 0.662069,-0.67233 1.481783,-2.72243 1.326287,-3.31705 -0.08544,-0.32674 -0.03778,-0.59404 0.10591,-0.59404 0.265703,0 0.460211,-1.57687 0.750644,-6.08542 0.08906,-1.38245 0.278667,-2.6566 0.421357,-2.83144 0.14269,-0.17484 0.293153,-0.82968 0.334365,-1.45521 0.04121,-0.62553 0.277561,-1.82041 0.525227,-2.6553 0.353875,-1.19296 0.420105,-2.14424 0.309285,-4.44236 -0.07756,-1.6084 -0.207955,-3.03265 -0.289767,-3.16505 -0.08181,-0.13237 -0.202859,-1.40753 -0.268994,-2.83369 -0.173318,-3.73742 -0.41765,-6.01289 -0.662038,-6.16553 -0.234783,-0.14663 0.146455,-2.73389 0.526225,-3.57121 0.132003,-0.29105 0.319955,-0.94589 0.417669,-1.45521 0.09771,-0.50933 0.393599,-1.40642 0.657526,-1.99356 0.263927,-0.58714 0.565867,-1.42057 0.670973,-1.85208 0.105108,-0.43151 0.351935,-1.01942 0.548508,-1.30646 0.196569,-0.28705 0.357399,-0.84408 0.357399,-1.23788 0,-0.39378 0.173929,-0.8899 0.386508,-1.10249 0.21258,-0.21257 0.467736,-1.179331 0.567013,-2.148341 0.16269,-1.587934 0.255114,-1.80041 0.936408,-2.152721 0.415769,-0.21499 0.755925,-0.53788 0.755925,-0.717532 0,-0.179649 0.297657,-0.647647 0.661459,-1.03999 0.363802,-0.392345 0.661458,-0.823034 0.661458,-0.957088 0,-0.134053 0.192156,-0.403209 0.427014,-0.598122 0.234855,-0.194916 0.777055,-0.953635 1.204888,-1.686044 0.427832,-0.732409 1.166273,-1.867435 1.640981,-2.522278 1.700456,-2.345733 3.695668,-6.567665 3.662079,-7.749078 -0.01304,-0.458869 0.06573,-0.956873 0.175059,-1.106678 0.109329,-0.149804 0.358508,-0.927213 0.553731,-1.727578 0.228377,-0.936302 0.741444,-1.944211 1.438828,-2.826554 0.596132,-0.75424 1.441066,-1.934943 1.877629,-2.623781 1.961853,-3.095556 2.437881,-3.793172 3.307291,-4.846815 0.509323,-0.617251 1.12807,-1.344541 1.374992,-1.616199 0.581076,-0.639289 1.270842,-1.977197 1.270842,-2.464996 0,-0.209939 0.174127,-0.448527 0.386953,-0.530196 0.447109,-0.171572 2.047229,-3.206583 1.813697,-3.440115 -0.08584,-0.08584 0.111663,-0.778449 0.438899,-1.539129 0.546531,-1.270447 0.567748,-1.49655 0.260583,-2.776961 -0.241877,-1.008256 -0.254818,-1.489784 -0.04677,-1.740464 0.158192,-0.190608 0.366593,-0.941892 0.463116,-1.669518 0.193987,-1.462344 0.490731,-1.992733 1.379879,-2.466364 0.445254,-0.237178 0.595312,-0.552823 0.595312,-1.252236 0,-0.514321 0.380315,-1.84868 0.845143,-2.965246 0.464828,-1.116568 0.819058,-2.37245 0.787175,-2.790849 -0.03188,-0.418399 0.06681,-0.911069 0.219313,-1.094825 0.152504,-0.183753 0.344313,-1.08749 0.426244,-2.008301 0.110114,-1.237538 0.315542,-1.872168 0.78763,-2.433211 0.351264,-0.417455 0.638662,-0.980972 0.638662,-1.25226 0,-0.271288 0.115673,-0.56474 0.257051,-0.652116 0.141377,-0.08738 0.491868,-0.689716 0.778872,-1.338533 0.287002,-0.648816 0.654606,-1.179666 0.816899,-1.179666 0.16229,0 0.229827,-0.105571 0.150082,-0.234603 -0.07975,-0.129032 0.03229,-0.381735 0.248968,-0.561565 0.216677,-0.179827 0.393962,-0.503605 0.393962,-0.719502 0,-0.2159 0.297656,-0.626682 0.661458,-0.91285 0.363802,-0.286168 0.661458,-0.690256 0.661458,-0.897975 0,-0.207719 0.109604,-0.377671 0.24356,-0.377671 0.133958,0 0.321442,-0.386953 0.416629,-0.859896 0.307258,-1.526635 0.379809,-1.648645 1.19485,-2.009418 0.781735,-0.34603 1.584545,-1.48322 1.584545,-2.244527 0,-0.207687 0.187295,-0.533058 0.416213,-0.723042 0.228917,-0.189984 0.66163,-0.829641 0.961583,-1.421459 0.299956,-0.59182 0.633122,-1.135565 0.74037,-1.208325 0.107247,-0.07276 0.525471,-0.766969 0.929381,-1.542688 0.437756,-0.840708 0.993159,-1.508778 1.375042,-1.653971 C 84.38554,16.956481 93.154017,9.5251547 92.80359,8.9581526 92.72325,8.8281655 92.77853,8.6470264 92.926425,8.5556235 c 0.147894,-0.091403 0.268899,-0.4481777 0.268899,-0.7928293 0,-0.3532796 0.288549,-0.853612 0.661458,-1.1469423 0.363802,-0.2861681 0.661459,-0.6559656 0.661459,-0.8217721 0,-0.165809 0.416718,-0.7181903 0.926041,-1.2275132 0.509323,-0.5093229 0.929828,-1.1304323 0.934456,-1.3802413 0.01003,-0.5412952 0.469947,-1.1384651 1.185968,-1.5398962 0.481417,-0.2699015 1.689119,-3.144282 1.711603,-4.0736813 0.0053,-0.2182812 0.319542,-1.0517187 0.698357,-1.8520833 0.378814,-0.8003646 0.719644,-1.6933334 0.757394,-1.9843751 0.0378,-0.2910417 0.0866,-0.6482292 0.10855,-0.79375 0.0219,-0.1455209 0.44501,-0.7142613 0.94013,-1.263867 0.49512,-0.5496031 0.93884,-1.0853844 0.98605,-1.190625 0.0472,-0.1052381 0.63859,-0.6353254 1.3142,-1.1779724 1.15313,-0.926203 2.60808,-2.961812 2.60808,-3.648959 0,-0.169415 0.23813,-0.610756 0.52917,-0.980755 0.29104,-0.369999 0.52917,-0.930513 0.52917,-1.245587 0,-0.315074 0.10116,-0.685969 0.22479,-0.824214 0.12364,-0.138245 0.41379,-0.741024 0.64478,-1.339509 0.5005,-1.296749 1.48071,-2.784253 2.57777,-3.911846 2.46533,-2.533941 2.77785,-2.999216 3.15058,-4.690409 0.34336,-1.557951 1.2158,-3.508544 1.99696,-4.464799 0.29148,-0.356814 1.80313,-3.415948 3.07245,-6.217708 0.2637,-0.582084 0.67257,-1.682012 0.90859,-2.444285 0.23601,-0.762272 0.53908,-1.453909 0.67347,-1.536967 0.1344,-0.08306 0.24436,-0.323885 0.24436,-0.535165 0,-0.211278 0.22053,-0.88886 0.49006,-1.505738 1.01406,-2.32087 1.58629,-3.815329 2.05039,-5.354929 0.2632,-0.873125 0.63271,-1.719689 0.82113,-1.881251 0.18842,-0.161565 0.34258,-0.465175 0.34258,-0.674688 0,-0.209515 0.11096,-0.494046 0.24657,-0.63229 0.32357,-0.329841 1.8701,-5.008235 1.8701,-5.657202 0,-0.276749 0.13452,-0.548021 0.29894,-0.602827 0.27679,-0.09226 0.67151,-1.336495 1.69769,-5.351415 0.22078,-0.863777 0.50479,-1.697215 0.63115,-1.852083 0.26562,-0.325562 0.90706,-2.84711 1.45139,-5.705536 0.49036,-2.574976 1.49573,-4.7976 2.69848,-5.965627 0.81701,-0.793427 0.9404,-1.062069 0.82225,-1.790184 -0.0845,-0.520928 0.006,-1.055301 0.23158,-1.363499 0.20383,-0.278757 0.3706,-0.894876 0.3706,-1.369155 0,-0.474279 0.16894,-0.957538 0.37541,-1.073909 0.45143,-0.25444 1.47668,-2.764531 1.47668,-3.615333 0,-0.383853 0.50925,-1.099286 1.38906,-1.951456 3.12564,-3.027431 3.90613,-3.738861 4.74424,-4.324432 0.48299,-0.337455 1.4216,-1.065789 2.08581,-1.618522 0.66421,-0.552731 1.34882,-1.004967 1.52135,-1.004967 0.17254,0 0.3137,-0.111041 0.3137,-0.246753 0,-0.135716 0.2679,-0.330357 0.59532,-0.432536 0.32742,-0.102182 0.65484,-0.264948 0.7276,-0.361707 0.31691,-0.421436 3.60725,-2.398588 3.99168,-2.398588 0.23333,0 0.64125,-0.239808 0.9065,-0.532908 0.28284,-0.312537 0.67121,-0.472937 0.93917,-0.387897 0.25129,0.0798 0.62382,-0.0219 0.82784,-0.22593 0.34439,-0.34439 1.31669,-0.76528 1.93377,-0.83709 0.33746,-0.0393 1.19046,-0.36534 1.78235,-0.68132 0.25268,-0.1349 0.64337,-0.24527 0.8682,-0.24527 0.22482,0 0.4752,-0.17312 0.5564,-0.38472 0.0812,-0.21159 0.70253,-0.64445 1.38076,-0.96191 3.79141,-1.77465 4.73374,-2.27167 5.32144,-2.8067 0.56872,-0.51774 1.72134,-0.97303 2.52627,-0.99788 0.14552,-0.005 0.42173,-0.15681 0.61381,-0.3385 0.19208,-0.18168 0.66833,-0.40941 1.05833,-0.50606 0.39001,-0.0967 1.15852,-0.47179 1.7078,-0.83362 0.63206,-0.41636 1.50624,-0.70021 2.38125,-0.7732 0.7604,-0.0634 1.75665,-0.28329 2.21388,-0.48856 0.56107,-0.25189 1.24111,-0.31706 2.09186,-0.20045 1.00316,0.1375 1.21674,0.10191 1.04603,-0.17432 -0.14108,-0.22828 -0.11131,-0.2833 0.087,-0.16075 0.16864,0.10422 0.64398,-0.164 1.07863,-0.60864 0.60466,-0.61856 1.03126,-0.80455 1.92219,-0.83807 1.09207,-0.0411 1.67837,-0.22721 3.80322,-1.20741 0.73284,-0.33806 1.45611,-0.40335 3.3022,-0.29809 1.31826,0.0752 2.30066,0.0326 2.22101,-0.0963 -0.0785,-0.12709 0.10234,-0.23107 0.40197,-0.23107 0.29963,0 0.5449,0.0893 0.54503,0.19844 1.4e-4,0.10914 1.04194,0.22855 2.31511,0.26535 1.27317,0.0368 2.55298,0.11911 2.84402,0.18291 1.68005,0.36828 3.57195,0.98227 4.4877,1.45643 0.57648,0.29849 1.31649,0.5427 1.64444,0.5427 0.32798,0 0.98743,0.3394 1.46542,0.75421 0.68403,0.5936 1.22881,0.79073 2.55823,0.92569 1.30101,0.13209 1.82306,0.31601 2.27203,0.80044 0.32057,0.34592 1.04876,0.83455 1.61817,1.08584 0.56938,0.2513 1.80917,0.82194 2.75505,1.26808 0.94589,0.44615 2.00644,0.93994 2.35678,1.09732 0.35036,0.15737 0.69284,0.49897 0.76107,0.75912 0.0767,0.29233 0.56605,0.59119 1.28125,0.78248 0.63643,0.17022 1.15715,0.46112 1.15715,0.64645 0,0.18533 0.29684,0.41146 0.65964,0.50251 0.36279,0.0911 0.59388,0.27192 0.51355,0.40192 -0.0804,0.13 0.0395,0.23636 0.26641,0.23636 0.22685,0 0.41249,0.1235 0.41249,0.27445 0,0.59727 2.43435,2.611097 3.64167,3.012573 0.68921,0.229193 1.69309,0.803762 2.23081,1.276824 0.53774,0.473059 1.39898,1.206584 1.91383,1.630055 0.51488,0.423469 0.99759,0.95925 1.07268,1.190625 0.0751,0.231373 0.85098,1.00855 1.72418,1.72706 0.87321,0.718508 1.58766,1.462649 1.58766,1.653646 0,0.602155 1.02841,1.405599 1.79917,1.405599 0.40745,0 0.87495,0.13412 1.03888,0.298045 0.16391,0.163923 0.78198,0.339072 1.37345,0.389218 0.59148,0.05015 1.39957,0.302983 1.79576,0.561854 0.39619,0.258871 0.96279,0.480075 1.25915,0.491566 1.60525,0.06224 1.99295,0.148148 2.36995,0.525145 0.22757,0.227558 0.53126,0.341114 0.6749,0.252347 0.14362,-0.08877 0.49916,-0.034 0.7901,0.121703 0.29094,0.155704 1.75191,0.449223 3.24662,0.652264 2.33111,0.316661 3.05512,0.544986 5.09038,1.605304 2.22461,1.158981 4.10956,2.705089 4.10956,3.370836 0,0.292254 0.40656,1.674218 0.80888,2.749458 0.25344,0.677378 2.84602,2.009312 4.05379,2.082641 0.46672,0.02833 1.08979,0.180613 1.38462,0.338397 0.42973,0.229994 0.84716,0.138173 2.10531,-0.4631 0.8631,-0.412486 1.66534,-0.691581 1.78274,-0.62021 0.37346,0.227005 1.36305,-0.144111 2.02247,-0.758447 0.42114,-0.392353 0.67408,-0.485738 0.74438,-0.274822 0.0586,0.175707 0.34171,0.319468 0.62923,0.319468 0.2875,0 0.4649,-0.09355 0.39423,-0.207886 -0.0706,-0.114337 0.39958,-0.230867 1.045,-0.258958 0.6454,-0.02809 1.52371,-0.232196 1.95181,-0.453573 0.42809,-0.221374 1.32003,-0.4025 1.9821,-0.4025 0.66209,0 1.20377,-0.11104 1.20377,-0.246753 0,-0.135715 0.26789,-0.32608 0.59531,-0.423034 0.32742,-0.09695 1.21301,-0.462164 1.968,-0.81158 0.75496,-0.349414 1.61817,-0.635299 1.91823,-0.635299 0.30004,0 0.54554,-0.127122 0.54554,-0.282493 0,-0.297384 4.14798,-0.221734 8.46667,0.154416 1.23693,0.107733 2.68028,0.210389 3.20746,0.228124 0.52719,0.01773 0.91351,0.151307 0.8585,0.296828 -0.055,0.145521 0.40666,0.476782 1.02589,0.736131 2.14673,0.899129 3.51108,2.575095 3.60077,4.423244 0.0958,1.974135 0.2948,2.579513 0.91363,2.779834 0.31912,0.103296 0.65263,0.180565 0.74113,0.171704 0.0885,-0.0089 0.49773,0.335452 0.9094,0.765135 0.41166,0.429684 0.95827,0.781244 1.21467,0.781244 0.25641,0 0.79968,0.44473 1.20727,0.98829 0.40759,0.54356 1.07352,1.272752 1.47984,1.620422 0.40635,0.347673 0.6844,0.686533 0.61791,0.753023 -0.0665,0.06649 0.16661,0.544536 0.51797,1.062331 0.3514,0.517795 0.63889,1.087366 0.63889,1.265716 0,0.178351 0.23075,0.617615 0.51277,0.976146 0.28202,0.358532 0.59568,0.999667 0.69699,1.424744 0.10133,0.425077 0.33896,0.952146 0.52808,1.171263 0.19479,0.225666 0.40262,1.372788 0.47937,2.645834 0.0745,1.236091 0.3124,2.604627 0.52856,3.041189 0.30499,0.615911 0.33748,1.086806 0.14499,2.101731 -0.13644,0.719392 -0.18039,1.521246 -0.0977,1.781898 0.0889,0.280178 -0.11311,0.827095 -0.49418,1.337852 -0.35452,0.475165 -0.89935,1.557303 -1.21074,2.40475 -0.31139,0.847448 -1.10032,2.638875 -1.75321,3.980953 -0.65288,1.342075 -1.18922,2.61324 -1.19186,2.824811 -0.003,0.211569 -0.35984,0.908606 -0.79375,1.548966 -0.43392,0.640363 -0.78894,1.274032 -0.78894,1.408158 0,0.134125 -0.52377,0.800817 -1.1639,1.481539 -0.64016,0.680723 -1.65497,1.862754 -2.25512,2.626739 -0.60016,0.763984 -1.26701,1.389062 -1.48194,1.389062 -0.21489,0 -0.39071,0.178594 -0.39071,0.396875 0,0.218282 -0.15946,0.396875 -0.35438,0.396875 -0.19489,0 -0.81997,0.471874 -1.38906,1.04861 -1.8234,1.847953 -2.06222,2.025425 -3.85659,2.865978 -0.96999,0.454371 -1.83219,0.937085 -1.91599,1.072697 -0.26331,0.426022 -2.89919,1.703163 -3.71668,1.800786 -0.42989,0.05134 -0.90019,0.211902 -1.0451,0.356804 -0.14489,0.144902 -0.78245,0.263459 -1.41677,0.263459 -0.70151,0 -1.08926,0.10365 -0.9898,0.264583 0.10025,0.162198 -0.32885,0.266097 -1.10887,0.268494 -0.6998,0.0021 -2.02361,0.181017 -2.9418,0.397481 -0.91815,0.216464 -2.10878,0.330854 -2.64583,0.254201 -0.53702,-0.07665 -3.33454,-0.169942 -6.2167,-0.207312 -4.00799,-0.05196 -5.29125,-0.150413 -5.45703,-0.41865 -0.11923,-0.192889 -0.28485,-0.240501 -0.36812,-0.105801 -0.22175,0.358822 -2.74579,0.418684 -2.96116,0.07023 -0.10012,-0.162018 -0.5587,-0.262131 -1.01905,-0.22247 -0.46034,0.03966 -0.95845,-0.003 -1.10691,-0.09472 -0.47336,-0.292545 -3.9515,-0.297744 -4.49529,-0.0067 -0.93808,0.502047 -2.58459,0.467993 -3.49936,-0.07238 -0.47074,-0.278085 -0.85592,-0.599003 -0.85592,-0.71315 0,-0.114144 -0.24771,-0.207536 -0.55047,-0.207536 -0.50795,0 -3.08893,-1.52813 -3.9002,-2.309217 -0.19229,-0.18514 -0.43042,-0.338519 -0.52916,-0.340842 -0.74338,-0.0175 -3.48684,-3.438689 -3.48684,-4.348181 0,-0.312865 -0.13608,-0.704916 -0.30239,-0.871225 -0.40836,-0.408358 -0.38428,-2.983508 0.0352,-3.767347 0.37611,-0.702784 0.46866,-5.240835 0.14452,-7.085976 -0.14825,-0.843865 -0.0927,-1.289031 0.22071,-1.767311 0.58383,-0.891034 0.78603,-2.565029 0.37037,-3.06615 -0.57936,-0.698431 -4.92141,-4.225002 -5.202,-4.225002 -0.14698,0 -0.36243,-0.161269 -0.47879,-0.358373 -0.11637,-0.197106 -0.69858,-0.662847 -1.29381,-1.034978 -0.59524,-0.372134 -1.25008,-0.835946 -1.45521,-1.03069 -0.20513,-0.194747 -0.84924,-0.699273 -1.43132,-1.121172 -0.58208,-0.421897 -1.1906,-0.928007 -1.35223,-1.124686 -0.16166,-0.19668 -1.02487,-0.433998 -1.91823,-0.527375 -0.89339,-0.09338 -1.62433,-0.274145 -1.62433,-0.401709 0,-0.127563 -0.29575,-0.157702 -0.65723,-0.06698 -0.45384,0.113908 -1.0211,-0.04829 -1.83306,-0.524127 -0.64669,-0.378991 -1.40406,-0.689078 -1.68301,-0.689078 -0.27895,0 -0.72268,-0.238125 -0.98608,-0.529166 -0.26339,-0.291042 -0.6291,-0.529167 -0.81272,-0.529167 -0.18359,0 -0.37348,-0.09133 -0.42201,-0.202967 -0.14308,-0.329325 -2.50102,-2.178283 -2.77791,-2.178283 -0.1397,0 -0.59619,-0.357188 -1.01444,-0.79375 -0.41825,-0.436563 -0.92051,-0.79375 -1.11614,-0.79375 -0.19561,0 -0.42421,-0.178594 -0.50798,-0.396875 -0.0838,-0.218282 -0.31012,-0.396875 -0.50302,-0.396875 -0.19291,0 -0.42633,-0.238125 -0.51869,-0.529167 -0.0924,-0.291042 -0.30877,-0.542901 -0.48086,-0.559686 -0.17208,-0.01677 -0.45442,-0.04655 -0.6274,-0.06615 -0.39389,-0.04462 -1.40528,-1.109623 -1.40528,-1.479772 0,-0.151604 -0.11907,-0.275646 -0.26459,-0.275646 -0.14552,0 -0.51482,-0.250254 -0.82071,-0.556117 -0.33012,-0.330131 -0.92128,-0.56647 -1.45476,-0.581594 -0.54305,-0.0154 -0.87265,-0.149611 -0.83293,-0.339193 0.1034,-0.493721 -1.66375,-2.544755 -2.06116,-2.392257 -0.19428,0.07455 -0.83714,-0.334079 -1.42859,-0.908063 -0.59145,-0.573985 -1.29879,-1.043609 -1.57184,-1.043609 -0.27305,0 -0.64706,-0.18147 -0.83116,-0.40327 -0.18407,-0.221798 -0.38865,-0.349298 -0.45461,-0.283337 -0.066,0.06596 -0.52887,-0.109755 -1.02867,-0.390481 -0.51461,-0.289046 -1.41343,-0.510413 -2.07243,-0.510413 -0.71884,0 -1.32715,-0.163483 -1.59133,-0.427672 -0.23525,-0.23522 -0.92835,-0.538255 -1.54028,-0.673407 -2.21622,-0.489495 -3.14699,-0.789154 -2.97753,-0.958612 0.36423,-0.364225 -3.99397,-1.171866 -8.1733,-1.514636 -0.86438,-0.07089 -1.66805,-0.277937 -1.78594,-0.460098 -0.16863,-0.260564 -0.26471,-0.253029 -0.45053,0.03534 -0.16826,0.261136 -0.45358,0.306353 -0.99218,0.157242 -1.23969,-0.343202 -6.50691,-0.189532 -6.74568,0.196805 -0.15437,0.249785 -0.2817,0.257619 -0.50806,0.03126 -0.22636,-0.226356 -0.42805,-0.17607 -0.80477,0.200649 -0.27649,0.27649 -0.72625,0.502709 -0.99948,0.502709 -0.27322,0 -0.64498,0.178593 -0.82614,0.396875 -0.18116,0.218281 -0.55293,0.396875 -0.82615,0.396875 -0.27322,0 -0.49677,0.119062 -0.49677,0.264583 0,0.145521 -0.21983,0.264583 -0.48851,0.264583 -0.65951,0 -1.93164,0.656209 -2.75951,1.423448 -0.37343,0.346086 -1.23192,0.817655 -1.90775,1.047935 -0.67583,0.230278 -1.80432,0.90056 -2.50777,1.489515 -1.93725,1.621964 -4.90854,5.259763 -5.63174,6.895049 -0.35398,0.800415 -1.0197,1.810274 -1.47937,2.24413 -0.45967,0.433856 -0.83577,0.883597 -0.83577,0.999424 0,0.317003 -1.91898,2.83292 -3.00914,3.945197 -0.52778,0.538491 -0.95961,1.163569 -0.95961,1.389063 0,0.225496 -0.11906,0.40999 -0.26458,0.40999 -0.14552,0 -0.26458,0.110323 -0.26458,0.24516 0,0.13484 -0.58444,1.197428 -1.29876,2.361309 -0.71432,1.163881 -1.37718,2.363247 -1.47304,2.665256 -0.0958,0.302009 -0.27118,0.549108 -0.38962,0.549108 -0.11844,0 -0.35744,0.565547 -0.53111,1.256771 -0.29053,1.156325 -0.79277,2.487433 -1.33043,3.526058 -0.11878,0.229459 -0.48514,1.479616 -0.81414,2.778125 -0.32899,1.298506 -0.75045,2.599047 -0.93658,2.890088 -0.18613,0.291042 -0.37832,0.826823 -0.42709,1.190625 -0.0488,0.363803 -0.1591,0.780521 -0.24518,0.926042 -0.36437,0.615969 -0.99677,3.017123 -1.1498,4.365625 -0.0908,0.800365 -0.26531,1.693334 -0.38776,1.984375 -0.28842,0.685589 -0.92287,3.635878 -0.84564,3.93241 0.14854,0.570383 -0.53604,4.280942 -0.85799,4.650467 -0.22167,0.254429 -0.40992,1.34383 -0.49036,2.837837 -0.0876,1.627579 -0.30364,2.802014 -0.65692,3.571875 -0.51843,1.129789 -0.96095,3.18561 -1.30048,6.041787 -0.0952,0.800364 -0.39341,1.870165 -0.6628,2.377331 -0.26939,0.50717 -0.4898,1.0181621 -0.4898,1.1355419 0,0.1173824 -0.25023,0.476332 -0.55607,0.7976685 -0.49679,0.5219727 -0.53922,0.7914746 -0.39806,2.528324 l 0.158,1.9440764 -1.48803,1.6277987 c -1.54007,1.6847265 -3.27209,4.1596523 -3.27209,4.6755686 0,0.1622822 -0.38696,0.678061 -0.8599,1.1461751 -0.47294,0.4681114 -1.31642,1.3530845 -1.87439,1.9666056 -0.63444,0.6975951 -1.24399,1.1154939 -1.62706,1.1154939 -0.33691,0 -1.23354,0.4178909 -1.99252,0.9286452 -0.75898,0.5107544 -1.63849,0.9935316 -1.95447,1.0728352 -0.31598,0.079306 -0.68923,0.3958193 -0.82944,0.7033604 -0.14021,0.3075411 -0.47525,0.6879696 -0.74454,0.8453914 -0.26928,0.1574245 -1.22178,0.9698801 -2.11666,1.8054611 -0.89489,0.835578 -1.71636,1.520187 -1.8255,1.521354 -0.10914,0.0012 -0.19844,0.240245 -0.19844,0.531286 0,0.291042 -0.11496,0.529167 -0.25546,0.529167 -0.3335,0 -1.86121,1.49516 -1.86121,1.821561 0,0.138544 -0.54469,0.886698 -1.21042,1.662565 -0.66574,0.775867 -1.36709,1.78099 -1.55856,2.23361 -0.19148,0.45262 -0.87912,1.345589 -1.5281,1.984375 -1.15827,1.140066 -3.11125,4.320096 -3.11125,5.06602 0,0.208462 -0.2358,0.592415 -0.52399,0.853228 -0.2882,0.260813 -0.60235,0.904346 -0.69811,1.43007 -0.0958,0.525725 -0.38095,1.253519 -0.63374,1.617321 -0.25279,0.363803 -0.54875,1.078178 -0.6577,1.5875 -0.10895,0.509323 -0.4007,1.223698 -0.64834,1.587501 -1.30136,1.911778 -2.33978,4.297145 -2.76435,6.35 -0.55504,2.683711 -1.10436,4.282543 -1.92993,5.617138 -0.33578,0.542812 -0.61051,1.15428 -0.61051,1.358818 0,0.442371 -0.4509,1.334453 -1.22343,2.420475 -0.30909,0.434515 -0.820007,1.38534 -1.135379,2.112944 -0.315371,0.727604 -0.747091,1.638943 -0.95938,2.025198 -0.212285,0.386254 -0.385974,0.860795 -0.385974,1.054536 0,0.193739 -0.281495,0.949275 -0.625544,1.678969 -0.811548,1.721216 -1.226539,3.045061 -1.226539,3.912736 0,0.675505 -0.481746,2.040376 -0.814901,2.30877 -0.28652,0.230822 -0.743865,1.218385 -1.18006,2.548157 -0.232429,0.708565 -0.661421,1.81189 -0.95332,2.45183 -0.348176,0.76332 -0.581383,1.991908 -0.678006,3.571875 -0.081,1.324592 -0.284271,2.58694 -0.451702,2.805221 -0.521036,0.679284 -1.40222,2.480173 -1.576853,3.222644 -0.09173,0.390006 -0.315436,0.868436 -0.497118,1.06318 -0.610044,0.653894 -1.256366,2.008122 -1.257188,2.634166 -5.3e-4,0.341349 -0.412335,1.43764 -0.915303,2.436201 -0.502965,0.998561 -1.042212,2.202585 -1.198324,2.675607 -0.15611,0.473022 -0.756256,1.493224 -1.333656,2.267114 -0.5774,0.773893 -1.049819,1.543413 -1.049819,1.710045 0,0.166634 -0.312365,0.591613 -0.694145,0.944403 -0.381781,0.352788 -1.05464,1.415339 -1.495245,2.361224 -0.440603,0.945886 -1.057937,2.136511 -1.371852,2.645834 -0.313912,0.509322 -0.847116,1.580885 -1.184894,2.38125 -0.337778,0.800364 -0.893191,1.787998 -1.234247,2.194748 -0.341058,0.40674 -0.763185,1.24018 -0.938059,1.85208 -0.174876,0.6119 -0.394726,1.23161 -0.488558,1.37713 -0.634024,0.9833 -1.59893,6.66824 -1.481955,8.73125 0.106569,1.87952 1.281239,6.21914 3.632393,13.41927 0.271732,0.83214 0.494062,1.7412 0.494062,2.02012 0,0.67106 0.749006,3.16389 1.216382,4.04831 0.204115,0.38627 0.371118,1.1829 0.371118,1.77033 0,0.58743 0.119062,1.14162 0.264583,1.23155 0.145521,0.0899 0.264583,0.50594 0.264583,0.92443 0,0.41852 0.126093,1.09257 0.280205,1.49791 0.154112,0.40534 0.344651,1.33583 0.423418,2.06775 0.07877,0.73192 0.239585,1.39067 0.357375,1.46389 0.216985,0.13491 0.679799,4.26897 0.56633,5.05872 -0.03393,0.23617 0.166098,0.83148 0.444505,1.32292 0.278406,0.49146 0.657389,1.66746 0.842188,2.61334 0.184795,0.94589 0.432604,1.82732 0.550685,1.95877 0.118081,0.13144 0.09832,0.4564 -0.04391,0.72218 -0.142232,0.26574 -0.19295,0.75353 -0.11271,1.08394 0.132911,0.54729 0.48614,3.57831 0.81003,6.95074 0.06988,0.7276 0.23469,1.79916 0.366246,2.38125 0.435774,1.9281 0.893088,7.37973 0.62651,7.4686 -0.306864,0.10229 0.03643,3.27663 0.434864,4.02114 0.151304,0.28271 0.275098,0.83743 0.275098,1.23275 0,0.70011 1.999938,5.13572 2.912612,6.4598 0.959134,1.3915 1.398487,6.39305 0.771406,8.78163 -0.140988,0.53705 -0.244086,1.60861 -0.229102,2.38125 0.01498,0.77266 0.01363,2.70451 -0.003,4.29302 -0.0176,1.67825 0.08433,3.00281 0.243295,3.16177 0.350425,0.35044 0.354756,1.40925 0.0066,1.62441 -0.152273,0.0941 -0.25786,1.26569 -0.245819,2.72759 0.02381,2.89063 -0.516088,5.04881 -1.69278,6.76672 -0.387692,0.56602 -0.704893,1.26635 -0.704893,1.55628 0,0.82243 -1.034441,2.29333 -1.736809,2.46962 -0.626417,0.15721 -0.632802,0.19116 -0.485058,2.57924 0.08234,1.33096 0.212386,2.59852 0.288988,2.8168 0.340524,0.97034 0.333272,3.79355 -0.015,5.83965 -0.208777,1.22658 -0.317021,2.62821 -0.240538,3.11475 0.136972,0.8713 -0.695314,3.16728 -1.429639,3.94388 -0.375915,0.39757 -0.729729,2.96529 -0.54311,3.94153 0.22248,1.16385 -0.272254,4.09644 -0.985507,5.84171 -0.580324,1.42002 -0.693595,2.18622 -0.821396,5.55625 -0.08154,2.15 -0.248447,4.14723 -0.370917,4.43828 -0.267946,0.63677 -0.985761,3.13015 -1.218718,4.23333 -0.09219,0.43656 -0.393952,1.4233 -0.670582,2.19273 -0.366352,1.01902 -0.502965,2.11156 -0.502965,4.02246 0,1.44288 -0.135794,2.95649 -0.301765,3.36349 -0.16597,0.40704 -0.464703,1.11752 -0.663847,1.57885 -0.199147,0.46133 -0.437309,1.23524 -0.529252,1.71979 -0.09194,0.48456 -0.297317,1.11914 -0.456385,1.41018 -0.159067,0.29104 -0.429485,1.06495 -0.600924,1.71979 -0.17144,0.65485 -0.512948,1.72641 -0.758907,2.38125 -0.245959,0.65485 -0.554511,2.50031 -0.685668,4.10104 -0.180192,2.19917 -0.399891,3.25165 -0.898985,4.30671 -0.363284,0.76798 -0.662557,1.66094 -0.665052,1.98437 -0.0024,0.32345 -0.234299,1.47288 -0.515125,2.55432 -0.280826,1.0814 -0.461843,2.04507 -0.402259,2.14148 0.05958,0.0964 1.27e-4,0.58084 -0.13212,1.07648 -0.132249,0.49567 -0.296801,3.04435 -0.365673,5.66373 -0.07313,2.78146 -0.305461,5.69799 -0.55853,7.01146 -0.238318,1.23692 -0.48609,2.66567 -0.550603,3.175 -0.06451,0.50932 -0.181512,1.28323 -0.259995,1.71979 -0.07849,0.43656 -0.236416,2.87734 -0.350954,5.42396 -0.114541,2.54661 -0.286576,4.8088 -0.382299,5.02708 -0.343138,0.78245 -0.95938,5.74974 -1.116029,8.99583 -0.08778,1.81901 -0.273126,3.78355 -0.411885,4.36563 -0.458242,1.92233 -1.026093,5.53939 -1.03079,6.56582 -0.0026,0.55528 -0.120221,1.2256 -0.261511,1.4896 -0.14129,0.26401 -0.374666,1.47656 -0.518613,2.69457 -0.143946,1.21804 -0.381243,2.8099 -0.527325,3.53751 -1.276726,6.35913 -2.124125,12.14181 -2.083218,14.2159 0.02506,1.27032 -0.03524,2.39046 -0.133988,2.4892 -0.09875,0.0987 -0.05076,0.33473 0.106646,0.52438 0.199649,0.24056 0.204798,0.60793 0.01704,1.21497 -0.148037,0.47858 -0.333385,1.73368 -0.411887,2.78916 -0.0785,1.05545 -0.284912,2.18469 -0.458687,2.50938 -0.414708,0.77489 -1.273863,4.59344 -1.282523,5.70021 -0.0041,0.52274 -0.164714,0.9288 -0.403667,1.0205 -0.242964,0.0932 -0.396875,0.49438 -0.396875,1.03442 0,0.48516 -0.104137,0.94646 -0.231415,1.02512 -0.205648,0.12711 -0.428752,1.52641 -0.641157,4.0213 -0.03867,0.45418 -0.393938,1.31485 -0.789493,1.91257 -0.395552,0.59772 -0.719185,1.19962 -0.719185,1.33755 0,0.13795 -0.684609,0.58295 -1.521354,0.98893 -0.836745,0.406 -1.678686,0.89098 -1.870983,1.07781 -0.192294,0.18679 -0.638778,0.33964 -0.992187,0.33964 -0.353407,0 -0.642559,0.11906 -0.642559,0.26459 0,0.14552 -0.35237,0.26458 -0.783043,0.26458 -0.482491,0 -1.015648,0.24416 -1.389062,0.63611 -0.493766,0.51829 -0.949084,0.66072 -2.458104,0.76891 -1.018646,0.073 -2.625989,0.035 -3.571875,-0.0846 z m 1.726933,-10.91158 c 0.611312,-0.39309 1.028695,-0.93234 1.228796,-1.5875 0.166667,-0.5457 0.417828,-0.99219 0.558131,-0.99219 0.140306,0 0.116491,-0.167 -0.05292,-0.37115 -0.235257,-0.28345 -0.232201,-0.3964 0.01294,-0.47813 0.176525,-0.0588 0.348112,-0.3383 0.381299,-0.62103 0.03319,-0.28273 0.236792,-1.1689 0.452451,-1.96927 0.215656,-0.80036 0.474567,-1.93146 0.575355,-2.51354 0.10079,-0.58208 0.363953,-1.33869 0.584806,-1.68135 0.420396,-0.65225 0.343543,-1.73373 -0.241784,-3.4023 -0.253511,-0.72266 -0.22488,-0.93141 0.190751,-1.39068 0.26897,-0.2972 0.424365,-0.60505 0.345323,-0.68408 -0.07904,-0.0791 -0.01579,-0.64386 0.140547,-1.25516 0.156342,-0.61129 0.312809,-2.18299 0.3477,-3.49268 0.07387,-2.7727 0.335486,-4.67924 0.618114,-4.50456 0.109204,0.0675 0.202509,-0.20106 0.207346,-0.59677 0.0113,-0.92469 0.186896,-1.72627 0.737201,-3.36534 0.244284,-0.7276 0.50007,-1.79755 0.568407,-2.37768 0.06834,-0.58012 0.242464,-1.12781 0.38694,-1.21711 0.144478,-0.0893 0.287885,-0.32903 0.318682,-0.53273 0.0308,-0.20371 0.128598,-0.48946 0.217334,-0.63498 0.08874,-0.14552 0.169201,-1.09802 0.178814,-2.11666 0.02474,-2.6216 0.322678,-4.95957 0.691208,-5.42396 0.525819,-0.66263 1.009316,-2.53392 0.813834,-3.14981 -0.106807,-0.33653 -0.04745,-0.7443 0.141492,-0.97195 0.233619,-0.28149 0.278209,-1.05833 0.157977,-2.75217 -0.107781,-1.51844 -0.07,-2.42025 0.105936,-2.52899 0.166312,-0.10279 0.204732,-0.62725 0.09806,-1.33858 -0.116004,-0.77357 -0.06521,-1.30231 0.15,-1.56163 0.215215,-0.25932 0.266004,-0.78806 0.15,-1.56162 -0.10411,-0.69427 -0.0674,-1.23632 0.09034,-1.33382 0.146147,-0.0903 0.200493,-0.33419 0.120771,-0.54195 -0.07972,-0.20775 -0.005,-1.00761 0.166127,-1.77747 0.17109,-0.76985 0.366879,-2.70941 0.435086,-4.31014 0.06821,-1.60073 0.295828,-3.98198 0.505825,-5.29167 0.209997,-1.30968 0.382291,-2.84969 0.382876,-3.42222 0.0011,-1.1488 0.484153,-3.21009 1.460937,-6.23507 0.502853,-1.55728 0.591542,-2.19792 0.412059,-2.97656 -0.129416,-0.56145 -0.128781,-0.99219 0.0016,-0.99219 0.126595,0 0.119208,-0.29186 -0.0164,-0.64857 -0.271409,-0.71387 -0.233153,-3.28441 0.05567,-3.74044 0.100309,-0.15838 0.255553,-1.22994 0.344991,-2.38125 0.08943,-1.15131 0.214918,-2.25589 0.278852,-2.45465 0.06393,-0.19875 0.182623,-1.09172 0.263755,-1.98437 0.08113,-0.89265 0.257508,-2.03973 0.391946,-2.54905 0.13444,-0.50932 0.244787,-1.58089 0.245218,-2.38125 0.0011,-1.73458 0.617601,-4.64952 1.371349,-6.48229 0.299236,-0.72761 0.656704,-2.03729 0.794369,-2.91042 0.137665,-0.87312 0.498769,-2.12328 0.80245,-2.77812 0.303683,-0.65485 0.574291,-1.54782 0.601353,-1.98438 0.02706,-0.43656 0.17558,-1.09141 0.330038,-1.45521 0.154459,-0.3638 0.404164,-1.13771 0.5549,-1.71979 0.150739,-0.58208 0.457888,-1.764 0.682556,-2.62649 0.312513,-1.19973 0.336299,-1.65516 0.10123,-1.93842 -0.234122,-0.2821 -0.23092,-0.41738 0.01344,-0.56843 0.17639,-0.10901 0.395814,-0.84407 0.487606,-1.63348 0.09179,-0.78939 0.332486,-1.69098 0.534876,-2.00351 0.259514,-0.40076 0.316519,-0.95618 0.193395,-1.88434 -0.113869,-0.85838 -0.07228,-1.37929 0.119591,-1.49788 0.161796,-0.1 0.294172,-0.44863 0.294172,-0.77473 0,-0.32612 0.113856,-0.70678 0.253016,-0.84595 0.139157,-0.13914 0.325935,-1.26428 0.41506,-2.50031 0.08912,-1.236 0.343252,-2.7558 0.564726,-3.3773 0.221472,-0.62148 0.410811,-1.66796 0.420751,-2.32548 0.0099,-0.65751 0.10703,-1.25047 0.215755,-1.31765 0.108725,-0.0672 0.132254,-0.37237 0.05229,-0.67818 -0.07997,-0.30578 -0.01146,-0.63876 0.15226,-0.73993 0.163708,-0.10118 0.361743,-1.18737 0.440076,-2.4138 0.09383,-1.4691 0.329075,-2.6154 0.689538,-3.36002 0.300914,-0.62159 0.581316,-1.44174 0.623118,-1.82253 0.0418,-0.38082 0.234455,-0.79028 0.428122,-0.90998 0.262192,-0.16206 0.362601,-1.15107 0.393158,-3.87252 0.05638,-5.02129 0.37325,-8.80862 0.808315,-9.66103 0.20056,-0.39295 0.364652,-0.94578 0.364652,-1.22848 0,-0.28268 0.186139,-0.58542 0.413644,-0.67271 0.227504,-0.0873 0.345771,-0.26857 0.262816,-0.4028 -0.136583,-0.22098 0.951312,-1.7608 1.540309,-2.18016 0.132596,-0.0944 -0.0057,-0.5705 -0.307533,-1.05892 -0.363326,-0.58788 -0.471702,-1.02452 -0.321088,-1.29365 0.299646,-0.53544 -0.455248,-2.09968 -1.025882,-2.12577 -1.011757,-0.0463 -1.753976,-0.28446 -1.943894,-0.62381 -0.244282,-0.43651 -2.974364,-1.74397 -4.980305,-2.38514 -0.793803,-0.25371 -2.400221,-0.92623 -3.569822,-1.49447 -1.169599,-0.56825 -2.330458,-1.03317 -2.579688,-1.03317 -0.249227,0 -0.453141,-0.099 -0.453141,-0.21987 0,-0.12094 -0.267891,-0.34856 -0.595313,-0.50583 -3.065819,-1.47259 -5.237583,-2.4493 -5.446175,-2.4493 -0.661466,0 -0.771681,2.2997 -0.192929,4.02566 0.495559,1.47783 0.871437,8.14517 0.459192,8.14517 -0.161469,0 -0.234058,0.15513 -0.161303,0.34473 0.07275,0.18957 -0.0553,0.79364 -0.284554,1.34233 -0.249314,0.59669 -0.339717,1.22905 -0.224951,1.57351 0.105537,0.31673 0.231529,1.46886 0.279982,2.56026 0.04846,1.09141 0.116186,2.59157 0.150513,3.33373 0.03433,0.74213 -0.0808,1.6351 -0.255841,1.98437 -0.758717,1.51392 -0.926981,3.03599 -1.020824,9.23399 -0.05398,3.56526 -0.222424,8.0301 -0.374321,9.92187 -0.151898,1.89177 -0.325914,4.09443 -0.386708,4.89479 -0.16402,2.15943 -0.850574,6.51622 -1.087162,6.89902 -0.113421,0.18351 -0.427029,1.35546 -0.69691,2.60432 -0.58194,2.69287 -1.12858,5.04499 -1.511548,6.50396 -0.152792,0.58208 -0.40321,2.9038 -0.556485,5.15937 -0.153276,2.25557 -0.397399,4.63683 -0.542494,5.29167 -0.852601,3.84791 -1.045919,4.86815 -1.045919,5.51976 0,0.39841 -0.143867,0.86826 -0.319704,1.0441 -0.219131,0.21913 -0.298889,1.21378 -0.253532,3.16177 0.0364,1.56316 0.07101,3.67551 0.07691,4.69416 0.01019,1.75861 -0.492704,5.74731 -1.0508,8.33438 -0.141269,0.65484 -0.329685,2.55431 -0.418704,4.22103 -0.08902,1.66671 -0.278108,3.45265 -0.420203,3.96875 -0.142094,0.51609 -0.443529,2.60522 -0.669856,4.64251 -0.226327,2.03729 -0.521785,4.35901 -0.656577,5.15937 -0.134789,0.80037 -0.374761,2.64584 -0.53327,4.10105 -0.15851,1.4552 -0.469726,3.71739 -0.691595,5.02708 -0.221866,1.30969 -0.499081,2.99111 -0.616034,3.7365 -0.116954,0.74536 -0.327073,1.57879 -0.466932,1.85208 -0.139858,0.27326 -0.397465,1.44934 -0.572458,2.6135 -0.174995,1.16417 -0.500657,2.68663 -0.723698,3.38328 -0.223039,0.69662 -0.331627,1.45918 -0.241306,1.69455 0.19938,0.51959 -0.570105,6.3789 -0.922348,7.02326 -0.138128,0.25271 -0.251142,0.81987 -0.251142,1.26037 0,0.44051 -0.108212,1.00767 -0.24047,1.26037 -0.369959,0.70683 -0.813554,4.45913 -0.7967,6.73918 0.0083,1.12553 -0.07076,2.1854 -0.175733,2.35524 -0.104974,0.16986 -0.404059,1.49582 -0.664634,2.94658 -0.435824,2.42647 -0.440356,2.72127 -0.0566,3.68036 0.314484,0.78597 0.369716,1.44563 0.22438,2.67994 -0.106034,0.9005 -0.239744,2.53026 -0.297132,3.62166 -0.05739,1.09141 -0.23521,2.87735 -0.395161,3.96875 -0.468873,3.19929 -0.58566,6.33495 -0.250965,6.73823 0.281442,0.33911 2.206432,0.63815 4.240517,0.65873 0.509323,0.005 1.283229,0.11864 1.719791,0.2522 1.455381,0.4453 2.990372,0.32676 3.975892,-0.30697 z M 100.40809,21.943715 c 0.17786,-0.680162 -0.19982,-1.288683 -0.429062,-0.691293 -0.240043,0.625549 -0.209362,1.19117 0.06461,1.19117 0.12855,0 0.29255,-0.224946 0.36445,-0.499877 z M 88.210605,158.90512 c -0.420457,-0.42045 -0.386347,-0.99486 0.05908,-0.99486 0.397295,0 0.767405,0.98071 0.445249,1.17981 -0.108564,0.0671 -0.335511,-0.0161 -0.504329,-0.18495 z"
       id="path39" />
  </g>
</svg>
