<?xml version="1.0" encoding="UTF-8" standalone="no"?>
<!-- Created with Inkscape (http://www.inkscape.org/) -->

<svg
   width="239.8896mm"
   height="270.8667mm"
   viewBox="0 0 239.8896 270.8667"
   version="1.1"
   id="svg5"
   xmlns="http://www.w3.org/2000/svg"
   xmlns:svg="http://www.w3.org/2000/svg">
  <defs
     id="defs2" />
  <g
     id="layer1"
     transform="translate(13.696514,-52.035116)">
    <path
       style="fill:#efe;stroke-width:0.264583"
       d="m 173.16075,322.42057 c -1.70103,-0.65831 -2.5105,-1.64053 -2.51223,-3.0484 -0.002,-1.29233 0.35781,-1.70656 1.48064,-1.70656 0.7049,0 1.06356,-0.25514 2.13866,-1.52136 1.28905,-1.5182 2.4564,-3.19458 3.27032,-4.69635 0.23661,-0.43657 0.91417,-1.63232 1.5057,-2.65723 0.92859,-1.60892 1.92212,-3.67114 1.92212,-3.98967 0,-0.055 -0.57003,-0.1 -1.26672,-0.1 -1.17077,0 -1.3659,-0.1007 -2.57622,-1.32949 l -1.30951,-1.3295 -0.0978,-3.78179 c -0.0538,-2.07999 0.0295,-4.60711 0.18505,-5.61582 0.25186,-1.63319 0.39869,-1.94267 1.34085,-2.82621 0.91879,-0.86163 1.22474,-0.99206 2.32503,-0.9912 0.81309,5.3e-4 1.58804,0.1967 2.16308,0.54727 l 0.89606,0.54628 -0.16791,2.16471 c -0.0923,1.19059 -0.24451,2.80721 -0.33813,3.59249 -0.21437,1.79802 5.3e-4,1.68654 1.82701,-0.94826 2.20075,-3.17449 2.24165,-3.24775 2.41357,-4.32288 0.23579,-1.47454 0.91316,-1.84518 3.37223,-1.84518 1.94677,0 2.06374,0.035 2.71925,0.81405 0.42123,0.5006 0.6853,1.13734 0.68582,1.65365 0.001,0.97337 -0.83945,4.10519 -1.71632,6.39584 -0.33423,0.87313 -0.76073,2.00422 -0.94777,2.51354 -0.35339,0.96228 -2.87844,6.25172 -3.53656,7.40834 -0.207,0.3638 -0.79129,1.55442 -1.29841,2.64583 -0.50712,1.09141 -1.23014,2.27301 -1.6067,2.6258 -0.37657,0.3528 -0.68466,0.79016 -0.68466,0.9719 0,0.18174 -0.29766,0.68418 -0.66146,1.11654 -0.3638,0.43235 -0.66146,0.91096 -0.66146,1.06357 0,0.15264 -0.62864,1.02841 -1.39697,1.9462 -0.76834,0.91778 -1.60871,2.00252 -1.8675,2.41051 -0.25879,0.40801 -0.63688,0.80568 -0.84019,0.88368 -0.20332,0.078 -0.80017,0.54787 -1.32634,1.04413 -1.09159,1.02949 -1.58195,1.08172 -3.43254,0.36555 z m -12.7,-12.28822 c -4.76313,-1.04246 -6.22064,-2.00053 -7.2564,-4.76987 -0.73512,-1.96551 -1.17994,-5.96476 -0.95642,-8.59896 0.19963,-2.35265 0.9517,-3.67675 3.58271,-6.30776 1.89774,-1.89775 3.76679,-2.95265 5.2314,-2.95265 1.42064,0 4.22078,0.99734 4.69301,1.67155 0.47353,0.67605 0.51932,2.33087 0.0767,2.77345 -0.17462,0.17462 -0.77376,0.3175 -1.33141,0.3175 -1.49696,0 -2.60679,0.56967 -3.8406,1.97134 -1.78146,2.02385 -2.28392,3.31348 -2.10273,5.39685 0.0842,0.96796 0.37035,2.46475 0.6359,3.32619 l 0.48284,1.56627 1.82526,0.36889 c 3.09847,0.62622 5.44199,2.13777 5.44199,3.51004 0,0.41581 -0.29794,0.98019 -0.74208,1.40571 -0.65503,0.62756 -0.94212,0.70849 -2.4474,0.68992 -0.93792,-0.0116 -2.41969,-0.17738 -3.29281,-0.36847 z m -30.2965,-0.11106 c -1.35386,-0.43474 -2.2889,-1.08993 -3.88295,-2.72077 -2.24549,-2.29733 -2.56907,-3.21505 -2.39004,-6.7786 0.1763,-3.50934 0.50669,-4.52398 2.02185,-6.2092 1.53315,-1.70523 2.38986,-2.04711 5.12974,-2.04711 1.51487,0 2.48928,-0.13593 3.07729,-0.42927 1.41694,-0.70687 3.10182,-0.33744 4.31405,0.94589 0.5457,0.57771 0.99219,1.29334 0.99219,1.59029 0,0.72186 1.48269,4.96977 2.02187,5.79266 0.66335,1.0124 2.51206,2.94834 2.81549,2.94834 0.14964,0 0.67025,0.30372 1.15693,0.67493 1.13374,0.86474 1.2077,2.07582 0.19989,3.27352 -0.62013,0.73699 -0.83048,0.81405 -2.22209,0.81405 -1.20331,0 -1.87332,-0.17645 -3.08533,-0.81253 -0.85152,-0.4469 -1.80189,-1.0496 -2.11193,-1.33935 l -0.5637,-0.5268 -0.26955,0.77322 c -0.51013,1.46335 -1.64752,2.95395 -2.64059,3.46057 -1.14672,0.58501 -3.59363,0.90147 -4.56312,0.59016 z m 1.92912,-8.29683 c 0.85661,-4.53489 0.87445,-4.16719 -0.20218,-4.16719 -1.16463,0 -1.51847,0.69425 -1.55078,3.04271 -0.021,1.52945 0.5805,3.30729 1.11905,3.30729 0.12187,0 0.40713,-0.98226 0.63391,-2.18281 z m -24.2676,7.73364 c -1.67183,-0.65274 -3.43944,-2.3792 -4.31233,-4.21195 -1.04251,-2.18889 -1.10292,-4.50785 -0.21114,-8.10531 0.7973,-3.21632 1.79115,-4.97716 3.81694,-6.76258 2.04805,-1.80504 4.14418,-1.96996 6.95226,-0.54699 1.29955,0.65853 1.41667,0.7949 1.49417,1.73968 0.0679,0.82844 -0.059,1.1759 -0.66146,1.8109 -0.69358,0.73101 -0.84204,0.77469 -2.13016,0.62673 l -1.38461,-0.15905 -0.66166,1.04813 c -0.71222,1.12822 -1.72849,4.43724 -1.72849,5.62802 0,0.91846 0.92979,3.40135 1.38094,3.68763 0.18637,0.11826 1.07386,0.21685 1.9722,0.21908 1.36774,0.003 1.76572,0.11543 2.44739,0.68903 0.58315,0.49068 0.81406,0.91513 0.81406,1.49638 0,0.96429 -1.03323,2.41775 -2.11721,2.97829 -1.09526,0.56639 -4.05104,0.49446 -5.6709,-0.13799 z m -86.271268,-1.2644 c -3.140178,-1.51341 -3.883906,-2.64696 -3.33638,-5.08512 0.147664,-0.65756 0.591492,-3.33647 0.986282,-5.95313 1.020633,-6.76472 1.008634,-12.33238 -0.03706,-17.19297 -1.123764,-5.2235 -1.128736,-5.46598 -0.129304,-6.30694 l 0.837268,-0.70452 h 7.110426 c 4.068702,0 7.67733,0.12158 8.435631,0.28421 1.876237,0.40238 2.669593,1.09521 2.669593,2.33133 0,2.08522 -2.015781,2.96281 -7.056255,3.07201 -1.334325,0.0289 -2.977764,0.20703 -3.652083,0.39583 l -1.226035,0.34327 0.155388,3.86428 c 0.08546,2.12535 0.218797,4.59409 0.296293,5.48608 l 0.140907,1.6218 0.974537,-0.22642 c 1.522891,-0.35384 7.029984,-0.29549 7.403915,0.0785 0.55332,0.55332 0.386865,2.4862 -0.277813,3.226 -0.681831,0.7589 -4.536122,2.29862 -7.033532,2.80978 -1.869181,0.38257 -2.160739,0.74351 -2.160739,2.6749 0,0.58093 -0.135144,1.59294 -0.30032,2.24892 -0.17399,0.69098 -0.201814,1.289 -0.06615,1.42168 0.128796,0.12595 1.662925,0.3575 3.409175,0.51454 6.120728,0.55044 6.850594,0.8962 6.868747,3.25392 0.0098,1.27037 -0.04643,1.38714 -0.915622,1.90196 -0.839653,0.49733 -1.419702,0.55581 -6.217709,0.62687 l -5.291666,0.0784 z m 32.97746,-1.38481 c -0.343546,-0.2862 -0.767752,-0.52037 -0.942687,-0.52037 -0.174935,0 -0.626044,-0.32742 -1.002467,-0.7276 -0.642376,-0.68293 -0.69578,-0.94695 -0.869653,-4.29948 -0.228677,-4.40916 -0.51489,-6.02742 -1.193864,-6.75016 -0.738581,-0.78619 -0.669036,-1.93522 0.170149,-2.81113 0.595534,-0.62161 0.727559,-1.06376 0.912854,-3.05719 0.119145,-1.28176 0.40322,-3.16392 0.631278,-4.18256 0.22806,-1.01865 0.477641,-2.13294 0.554627,-2.47621 0.208566,-0.92998 2.64396,-3.37097 4.319948,-4.32987 1.275516,-0.72978 1.781786,-0.85672 3.801914,-0.95331 2.646926,-0.12655 3.370649,0.2151 3.370649,1.59118 0,1.43067 -0.676522,2.53852 -1.901934,3.11453 -0.628756,0.29555 -1.45973,0.83088 -1.846612,1.18961 -1.021178,0.94689 -1.839396,3.3543 -2.004904,5.89896 l -0.141972,2.18282 h 0.702101 c 1.097631,0 4.422989,0.99751 4.967202,1.49001 0.726223,0.65723 0.66638,2.48866 -0.104611,3.20146 -0.478784,0.44265 -1.096819,0.58705 -3.157421,0.73773 l -2.562106,0.18734 0.153906,4.67908 0.153905,4.67908 -1.069456,0.84702 c -1.222055,0.96788 -2.046068,1.05448 -2.940846,0.30906 z m 35.429909,-1.77714 c -1.330002,-1.24068 -1.350897,-1.28474 -1.632196,-3.44184 -0.156721,-1.20179 -0.243375,-3.24795 -0.192561,-4.54702 0.08614,-2.20234 0.146023,-2.41852 0.886137,-3.19919 0.771035,-0.81329 0.845621,-0.83366 2.606405,-0.71192 1.45492,0.10059 1.936208,0.24941 2.438704,0.75405 0.578009,0.58049 0.639522,0.91297 0.801629,4.3329 0.09995,2.10869 0.331624,4.08846 0.537859,4.59637 0.527415,1.29891 0.446989,2.08985 -0.287155,2.82399 -0.544613,0.54461 -0.904611,0.64943 -2.230501,0.64943 -1.520717,0 -1.632503,-0.048 -2.928321,-1.25677 z m -18.10268,-0.58612 c -0.890146,-1.05708 -2.476786,-6.38262 -2.207906,-7.41081 0.106045,-0.40552 -0.0681,-0.57762 -0.830255,-0.82049 -0.530444,-0.16903 -1.351399,-0.67375 -1.824341,-1.1216 -1.547741,-1.46561 -0.90809,-3.34952 1.273931,-3.752 0.518761,-0.0957 1.094836,-0.26769 1.280166,-0.38223 0.188425,-0.11645 0.454361,-1.1793 0.603279,-2.41108 0.471802,-3.90258 2.167443,-7.66022 4.679862,-10.37088 1.132803,-1.22218 1.207284,-1.25677 2.70623,-1.25677 2.048166,0 4.214746,0.82819 5.249423,2.00662 0.899256,1.02419 1.015857,1.81466 0.397836,2.69701 -0.352325,0.50301 -0.655572,0.58804 -2.097249,0.58804 h -1.685372 l -0.78704,1.38906 c -0.432872,0.76399 -1.025602,2.28203 -1.317175,3.37344 -0.905077,3.38784 -0.910884,3.43946 -0.387057,3.44057 0.579432,10e-4 2.078821,0.88444 3.047749,1.79528 0.960017,0.90246 0.966216,2.02676 0.01664,3.0179 -0.603644,0.63007 -0.922382,0.74208 -2.111626,0.74208 -1.274363,0 -1.415674,0.0598 -1.567119,0.6632 -0.211696,0.84347 0.06081,2.33097 0.689551,3.76401 0.770038,1.75508 0.941914,3.43276 0.411703,4.01864 -0.370226,0.40909 -0.824098,0.48341 -2.820265,0.46181 -1.789912,-0.0194 -2.463708,-0.1263 -2.72097,-0.4318 z m 16.684394,-17.94919 c -0.927526,-0.96813 -0.952238,-2.21569 -0.06153,-3.1064 0.571696,-0.5717 0.882176,-0.64944 2.59393,-0.64944 1.8522,0 1.984639,0.0414 2.79015,0.8725 1.071674,1.10568 1.065737,1.72081 -0.02684,2.77977 -0.812877,0.78787 -0.999316,0.84565 -2.728624,0.84565 -1.688269,0 -1.920428,-0.0671 -2.567091,-0.74208 z m 11.154492,-31.14472 c -1.551972,-0.80827 -2.214933,-1.65004 -2.781803,-3.53208 -1.181208,-3.92168 -3.614197,-11.07443 -4.072535,-11.97284 -0.711049,-1.39377 -0.657844,-2.3864 0.169577,-3.16372 0.594137,-0.55816 0.934013,-0.64143 2.618057,-0.64143 2.266384,0 2.780263,0.32264 3.721809,2.3368 l 0.597641,1.27846 0.190897,-2.54618 c 0.10499,-1.4004 0.1466,-7.78983 0.0925,-14.19873 l -0.0984,-11.65255 0.64658,-0.52512 c 0.53578,-0.43513 0.87582,-0.49508 1.98437,-0.34987 2.56309,0.33576 2.75438,0.71337 3.48121,6.87177 0.48745,4.13017 0.67425,19.93462 0.28301,23.94479 l -0.21941,2.24896 1.01304,-1.19063 c 5.20913,-6.12226 9.66501,-8.58408 12.45651,-6.88206 0.71849,0.43807 0.8599,0.68384 0.8599,1.49448 0,1.03135 -0.21031,1.2785 -4.43262,5.20932 -0.90997,0.84715 -3.22731,3.28765 -5.14964,5.42333 -1.92233,2.13568 -4.40373,4.8017 -5.51422,5.92447 -2.76395,2.79452 -3.62739,3.0785 -5.846403,1.92283 z M 46.648836,195.94265 c -0.153564,-0.15357 -0.683392,-0.48099 -1.177396,-0.72761 -1.481386,-0.73954 -1.343511,-1.45876 0.718551,-3.74827 1.929788,-2.14265 4.187221,-5.47664 5.088736,-7.51553 0.69083,-1.56239 0.688086,-1.48772 0.05466,-1.48772 -0.283747,0 -1.049353,-0.36002 -1.70135,-0.80005 -1.608365,-1.08547 -1.872761,-1.96937 -1.644624,-5.4981 0.277842,-4.2975 0.960668,-5.34352 3.488193,-5.34352 1.549458,0 2.754934,0.72471 2.754934,1.65621 0,0.53258 0.03591,0.52505 0.747522,-0.15671 1.433314,-1.3732 3.772112,-1.62774 5.05301,-0.54994 0.981331,0.82574 1.025715,1.51495 0.278511,4.32477 -0.745154,2.80212 -2.622537,8.2381 -3.061637,8.865 -0.204364,0.29178 -0.371573,0.79491 -0.371573,1.11808 0,0.32317 -0.213802,0.74317 -0.475115,0.93332 -0.588766,0.42843 -1.641551,2.12537 -1.641551,2.64594 0,0.21212 -0.30897,0.67432 -0.686597,1.02711 -0.377629,0.35279 -0.871344,0.99862 -1.097142,1.43518 -0.534972,1.03432 -2.301711,3.04028 -3.198815,3.63194 -0.777788,0.51297 -2.689217,0.629 -3.12832,0.1899 z m 97.936914,-9.21891 c -0.68352,-0.39923 -0.80521,-0.64165 -0.87624,-1.74567 -0.0687,-1.0684 0.12591,-1.73762 1.16799,-4.01556 0.68777,-1.50342 1.18157,-2.80241 1.09734,-2.88663 -0.0842,-0.0842 -0.41662,-0.0122 -0.73864,0.1602 -0.32202,0.17234 -1.50814,0.37658 -2.63582,0.45387 l -2.05032,0.14054 -1.2233,-1.1276 c -1.37048,-1.26327 -1.59146,-2.23251 -0.69413,-3.04458 0.29104,-0.26339 0.52916,-0.69153 0.52916,-0.95143 0,-0.2599 0.12077,-0.54719 0.26837,-0.63841 0.1476,-0.0912 0.521,-0.66379 0.82978,-1.27238 1.03666,-2.04319 4.62213,-6.06351 6.54147,-7.33483 1.05237,-0.69706 1.40555,-0.78316 3.21265,-0.78316 2.27023,0 2.76587,0.29121 3.06816,1.80265 0.20328,1.01639 -0.12695,1.47479 -1.5996,2.22044 -0.59182,0.29965 -1.53479,0.91603 -2.09549,1.36972 -1.27532,1.03194 -4.13319,3.93215 -4.13705,4.19834 -0.002,0.10914 1.17015,0.19844 2.60384,0.19844 2.27661,0 2.72055,0.0766 3.50572,0.6047 0.87178,0.58637 0.90148,0.66456 0.97994,2.57969 0.0687,1.67699 -0.0259,2.21451 -0.62672,3.56248 -1.16757,2.61928 -2.53431,5.23822 -3.21031,6.15156 -0.56619,0.76499 -0.77366,0.85776 -1.87974,0.84056 -0.68382,-0.0106 -1.6005,-0.22796 -2.03706,-0.48294 z m -38.62917,-1.01556 c -1.65008,-1.20395 -4.64849,-4.57849 -5.19466,-5.84628 -0.63829,-1.48164 -0.62386,-2.60419 0.0557,-4.3339 1.14522,-2.91493 3.63634,-5.79416 6.72646,-7.77442 1.47954,-0.94813 1.74633,-1.02419 3.92287,-1.11827 2.14019,-0.0925 2.38896,-0.0506 2.97656,0.50141 1.2991,1.22044 0.54311,3.08856 -1.90648,4.7111 -0.68597,0.45436 -1.51532,0.82612 -1.84301,0.82612 -0.61379,0 -2.22389,1.17414 -2.22389,1.62173 0,0.13848 -0.23794,0.57438 -0.52875,0.96867 -0.2908,0.39429 -0.74975,1.32271 -1.01988,2.06317 -0.47885,1.31257 -0.47877,1.37038 0.003,2.3092 0.2717,0.5296 1.04137,1.35253 1.71037,1.82872 1.98618,1.41376 2.48122,1.97081 2.48122,2.79203 0,1.16746 -1.03807,1.97601 -2.70994,2.11077 -1.21517,0.098 -1.52495,0.0145 -2.44943,-0.66005 z m -77.804799,-0.15374 c -1.917036,-0.91555 -3.10434,-2.06006 -4.099832,-3.95208 -0.478176,-0.90881 -1.146421,-2.17858 -1.484993,-2.8217 -0.431866,-0.82035 -0.615579,-1.61145 -0.615579,-2.65078 0,-2.50547 2.533988,-11.68957 3.846883,-13.9425 0.93999,-1.61303 3.162479,-3.48867 5.413533,-4.56868 1.909861,-0.91631 2.094437,-0.95206 4.915387,-0.95206 2.802731,0 2.973536,0.0324 3.902604,0.74107 0.772459,0.58918 0.971593,0.91971 0.971593,1.61264 0,1.3821 -0.63137,1.74734 -3.020553,1.74734 -1.875705,0 -2.204,0.0845 -3.804639,0.97966 -2.872542,1.60641 -3.733345,2.89862 -5.347494,8.02745 -1.370272,4.35394 -1.53067,5.39606 -1.101156,7.15421 0.296609,1.21413 0.657387,1.81591 1.859976,3.1025 1.265986,1.35441 1.732462,1.66418 3.079491,2.04495 1.960446,0.55419 2.513541,1.01779 2.513541,2.10685 0,1.39838 -0.723024,1.80783 -3.38487,1.91685 -2.008187,0.0823 -2.475576,0.0123 -3.643892,-0.54572 z m 100.016569,-0.95185 c -0.13824,-0.1332 -0.54579,-0.28203 -0.90566,-0.33073 -1.54122,-0.20858 -2.44769,-3.60214 -2.49339,-9.33452 l -0.0273,-3.42513 0.89902,-0.60976 c 1.081,-0.73319 3.04088,-0.82548 3.9536,-0.18619 0.89753,0.62866 1.06806,1.32047 1.51631,6.15136 0.22481,2.4229 0.47462,4.91926 0.55512,5.54747 0.19926,1.55489 -0.57654,2.42968 -2.15475,2.42968 -0.60038,0 -1.2047,-0.10898 -1.34295,-0.24218 z m -40.194225,-0.84356 -0.935249,-0.82116 v -4.31081 -4.31081 l 0.935249,-0.82116 c 0.704154,-0.61825 1.190223,-0.82115 1.967151,-0.82115 2.816984,0 3.183016,0.73715 3.183016,6.41028 0,5.37744 -0.05433,5.49597 -2.519338,5.49597 -1.519272,0 -1.79283,-0.0854 -2.630829,-0.82116 z M 69.708668,182.8633 c -0.436563,-0.19293 -1.082612,-0.6597 -1.435666,-1.03726 -0.618422,-0.66134 -0.630577,-0.74698 -0.332079,-2.3396 0.170413,-0.90922 0.445958,-3.26047 0.612323,-5.225 0.273788,-3.23305 0.363161,-3.62835 0.942144,-4.16719 0.521165,-0.48503 0.94461,-0.59531 2.285828,-0.59531 1.121783,0 1.850937,0.14342 2.289003,0.45026 0.503568,0.35271 1.109239,0.43413 2.795677,0.37585 l 2.152843,-0.0744 1.342118,1.2778 1.342115,1.27779 0.156223,4.1292 c 0.147857,3.90807 0.126759,4.16666 -0.393962,4.82864 -0.471302,0.59917 -0.751417,0.69945 -1.953792,0.69945 -0.924872,0 -1.515949,-0.13536 -1.732984,-0.39688 -0.181157,-0.21828 -0.484751,-0.39687 -0.67465,-0.39687 -0.53376,0 -1.4083,-1.27101 -1.608381,-2.33754 -0.150778,-0.80371 -0.21381,-0.87507 -0.385233,-0.43618 -0.112729,0.28862 -0.213329,1.09572 -0.223555,1.79356 -0.02746,1.87381 -0.812331,2.57477 -2.850843,2.54608 -0.843359,-0.0119 -1.890567,-0.17945 -2.327129,-0.37239 z m 93.530202,-2.96669 c -0.7646,-0.27721 -2.11666,-1.77567 -2.11666,-2.34586 0,-0.3166 0.29647,-1.74437 0.65883,-3.17283 0.36236,-1.42846 0.78546,-3.31896 0.94022,-4.20111 0.54353,-3.09815 1.54254,-5.93545 2.25401,-6.40163 0.86465,-0.56654 3.17398,-0.33138 3.90278,0.39742 0.49959,0.49959 0.52565,0.4973 1.78706,-0.15714 1.56813,-0.81358 3.28819,-1.03574 4.64708,-0.60023 1.15277,0.36946 2.21418,1.22597 2.21418,1.78673 0,0.2461 0.42822,0.0635 1.25678,-0.536 1.55572,-1.1256 2.67866,-1.51702 4.35209,-1.51702 2.61406,0 3.65155,1.07773 3.65155,3.79319 0,1.06765 0.28422,2.98051 0.68575,4.61524 0.70921,2.88735 0.7009,3.88337 -0.0418,5.01693 -0.37818,0.57717 -0.52181,0.60842 -2.04667,0.4453 -1.32771,-0.14204 -1.80139,-0.32823 -2.48783,-0.97789 -0.7892,-0.74691 -2.19484,-3.66802 -2.19484,-4.56118 0,-1.2695 -1.29451,0.52356 -2.12892,2.94882 -0.71454,2.07684 -2.13022,3.53936 -3.41488,3.52784 -0.51617,-0.005 -1.1696,-0.18323 -1.45208,-0.39688 -0.28247,-0.21365 -0.7105,-0.38846 -0.95118,-0.38846 -0.93943,0 -1.38721,-0.96666 -1.55181,-3.35003 -0.155,-2.24437 -0.16698,-2.27724 -0.55529,-1.52245 -0.21828,0.42429 -0.65643,1.16273 -0.97367,1.64096 -0.31723,0.47824 -0.88695,1.80086 -1.26604,2.93916 -0.8925,2.67993 -1.44709,3.20929 -3.33359,3.18189 -0.79099,-0.0115 -1.61675,-0.0856 -1.83504,-0.16477 z m -73.818744,-14.2887 c -1.09192,-0.39915 -1.5875,-1.21514 -1.5875,-2.61387 0,-1.22239 0.09587,-1.46624 0.814051,-2.07054 1.330688,-1.1197 3.988824,-0.76976 4.734357,0.62328 0.472503,0.88288 0.33764,3.31321 -0.211429,3.81011 -0.477454,0.43209 -2.824348,0.58921 -3.749479,0.25102 z m 37.570834,-6.6016 c -1.30849,-0.52671 -1.7355,-2.02976 -0.91104,-3.20684 0.34766,-0.49635 0.65894,-0.58803 1.9964,-0.58803 1.32956,0 1.68903,0.1045 2.23396,0.64943 0.85487,0.85487 0.87226,2.10278 0.0369,2.65011 -0.67545,0.44257 -2.73295,0.74623 -3.35625,0.49533 z m -24.87083,-19.14339 c -0.65485,-0.30699 -1.72844,-1.13034 -2.38576,-1.82966 -1.103014,-1.17349 -1.324938,-1.66681 -2.879267,-6.40031 -2.961527,-9.01893 -3.095387,-9.60782 -2.328622,-10.24418 0.501846,-0.4165 2.394286,-0.66438 3.49527,-0.45783 0.761638,0.14288 1.112896,0.42922 1.743012,1.42086 0.434037,0.68306 0.978787,1.89677 1.210567,2.69713 0.23179,0.80037 0.58419,1.69007 0.78311,1.97711 0.19893,0.28703 0.37005,0.88235 0.38028,1.32291 0.0102,0.44057 0.13139,1.03915 0.26925,1.33019 0.16371,0.34564 0.20209,-0.84734 0.11064,-3.43958 -0.077,-2.18281 -0.21671,-7.0744 -0.31045,-10.8702 l -0.17044,-6.90145 0.62924,-0.44074 c 0.82611,-0.57863 3.60405,-0.60134 4.41109,-0.0361 0.89173,0.62459 1.12381,2.00477 1.13319,6.73907 0.005,2.4011 0.15173,5.49672 0.32661,6.87917 0.17489,1.38245 0.30199,4.03165 0.28246,5.88712 -0.0195,1.85547 0.055,3.31766 0.16555,3.24931 0.11059,-0.0684 0.71766,-0.81255 1.34904,-1.65379 0.63138,-0.84123 1.5119,-1.9269 1.9567,-2.4126 1.67912,-1.83348 3.96493,-2.38849 5.63738,-1.36877 0.77828,0.47453 0.8599,0.64507 0.8599,1.79689 0,1.20197 -0.10305,1.38801 -1.8563,3.3514 -2.236,2.50401 -3.96454,4.98023 -3.96454,5.67941 0,0.506 -0.28469,0.77353 -2.67883,2.51735 -1.90744,1.38932 -2.23141,1.50273 -4.68009,1.63824 -1.95654,0.10828 -2.47545,0.0442 -3.48899,-0.43099 z m 2.91041,-5.0244 c -0.51815,-0.33486 -0.86841,-0.33486 -0.66146,0 0.0899,0.14552 0.36486,0.26276 0.61093,0.26053 0.38557,-0.003 0.39256,-0.0395 0.0505,-0.26053 z M -12.961997,94.768152 c -0.174763,-0.210577 -0.285421,-0.657061 -0.245906,-0.992188 0.03951,-0.335126 -0.08193,-1.063352 -0.269866,-1.618279 -0.393066,-1.160592 -0.308128,-2.516087 0.68284,-10.897293 0.522171,-4.416298 0.686802,-7.357004 0.802434,-14.333327 0.14431,-8.706499 0.140797,-8.784654 -0.436782,-9.719197 -1.180725,-1.910453 -0.428737,-2.604662 4.6202983,-4.265298 2.8148626,-0.925812 3.0685549,-0.962795 6.0124583,-0.876471 3.7484616,0.109914 4.5133233,0.49152 4.64792,2.318943 0.1076933,1.462157 -0.2685238,1.872224 -1.7176753,1.872224 -3.3306016,0 -7.0444189,1.101696 -7.3758887,2.188041 -0.099027,0.324546 -0.4678963,1.206198 -0.8197101,1.959225 -0.6175679,1.321851 -0.6333111,1.503544 -0.4557998,5.260393 l 0.1838616,3.891252 1.7968214,-0.150639 c 0.9882518,-0.08285 2.0331858,-0.277138 2.3220756,-0.431747 0.2888901,-0.154609 1.2862338,-0.281108 2.21631986,-0.281108 1.4255525,0 1.78139035,0.09615 2.26635224,0.612365 1.0711384,1.140175 0.5875028,2.926015 -1.01713527,3.755806 -0.42160243,0.218019 -1.93242193,0.583805 -3.35737623,0.812858 -1.4249542,0.229052 -2.9774281,0.612661 -3.4499414,0.852464 -0.968823,0.491677 -0.9421625,0.389752 -1.3631053,5.211299 -0.1524556,1.74625 -0.423418,4.573813 -0.6021387,6.283473 -0.2470812,2.3636 -0.2511767,3.182242 -0.017092,3.416327 0.2340856,0.234085 0.9918197,0.173538 3.1621531,-0.25268 6.7612939,-1.327806 8.6795622,-1.455764 9.4278727,-0.628891 0.5657082,0.6251 0.6092639,3.277871 0.061285,3.73265 -0.2071264,0.171902 -1.7251743,0.549425 -3.37343667,0.83894 -1.64826154,0.289515 -3.65168363,0.691695 -4.45204813,0.893731 -3.6625488,0.924544 -8.6887955,1.221878 -9.2487905,0.547127 z M 20.50749,94.273016 c -0.502227,-0.775049 -1.731113,-4.489868 -1.731113,-5.233009 0,-0.490871 -0.257374,-0.309343 -1.485376,1.047644 -1.711534,1.891306 -2.581664,2.417533 -3.997452,2.417533 -1.518558,0 -2.983839,-1.285219 -2.983839,-2.617169 0,-0.816448 0.361413,-1.489911 2.050521,-3.820964 1.127786,-1.556404 2.605135,-3.615616 3.282998,-4.576027 l 1.232479,-1.746203 -1.313537,-3.812447 c -1.551713,-4.50374 -1.633419,-5.815115 -0.399016,-6.404142 1.512562,-0.721758 4.343631,0.281864 5.123342,1.816239 0.183208,0.360527 0.588674,1.282421 0.901038,2.048652 l 0.567936,1.393147 1.277245,-1.194709 c 1.160346,-1.085368 1.397732,-1.194711 2.593779,-1.194711 1.232828,0 1.376545,0.07323 2.260293,1.151729 1.202708,1.467749 1.292532,2.768848 0.24788,3.590573 -0.382733,0.301059 -1.510615,1.470559 -2.506406,2.598891 l -1.81053,2.051515 0.120136,1.984376 c 0.164442,2.716236 0.814975,7.541622 1.218925,9.041495 0.475623,1.765988 0.190982,2.017276 -2.296067,2.027031 -1.748068,0.0069 -2.022891,-0.05965 -2.353236,-0.569444 z m 16.63882,-4.139743 c -1.214736,-0.49164 -1.766292,-2.282732 -1.178798,-3.82796 0.592124,-1.557406 1.108162,-8.086381 1.451311,-18.362144 0.417068,-12.489328 0.30062,-11.950486 2.582622,-11.950486 1.376346,0 2.092097,0.264895 3.035411,1.123386 0.780719,0.710517 0.948952,2.38432 0.68489,6.814114 -0.117108,1.964531 -0.171988,4.300592 -0.121957,5.191246 l 0.09097,1.61937 1.326679,0.157126 c 3.268072,0.387054 4.306686,2.070514 5.740207,9.304133 0.288385,1.455209 0.562686,3.821036 0.609557,5.257393 0.08339,2.555645 0.0703,2.622817 -0.611362,3.137353 -0.997169,0.752681 -2.614702,0.438263 -3.949594,-0.767731 -1.098187,-0.992145 -1.438158,-1.809581 -1.686531,-4.055139 -0.08853,-0.800365 -0.359082,-2.319769 -0.601234,-3.376452 -0.420856,-1.836502 -0.453641,-1.889019 -0.743246,-1.190625 -0.389818,0.940062 -1.37368,6.307561 -1.564616,8.535827 -0.191984,2.240518 -0.64494,2.652265 -2.892195,2.629061 -0.893384,-0.0092 -1.870834,-0.116536 -2.17211,-0.238472 z m 29.784233,-0.149026 c -0.509323,-0.194067 -1.244288,-0.420584 -1.633255,-0.503378 -2.072806,-0.4412 -3.624122,-3.050032 -3.84335,-6.463329 -0.329372,-5.128154 1.888506,-9.340688 5.587944,-10.613481 1.822442,-0.627013 4.473292,-0.694928 5.444911,-0.139501 0.363802,0.207968 1.149609,0.382343 1.746239,0.3875 0.775851,0.0067 1.397487,0.235898 2.182813,0.804785 l 1.098031,0.795408 0.0021,1.784279 c 0.0032,2.808959 0.44056,5.904479 1.027874,7.274383 l 0.538814,1.256771 h 2.23484 c 2.170731,0 2.25449,0.02336 2.91982,0.814051 0.987808,1.173943 0.895567,1.949495 -0.328182,2.759334 -2.399379,1.587834 -6.826861,1.453989 -8.930737,-0.26998 l -1.09161,-0.894493 -0.898393,0.929373 c -2.218822,2.295334 -3.939135,2.885532 -6.057768,2.078278 z m 2.480188,-8.57272 c 0.791615,-2.309066 1.145649,-4.252177 0.774748,-4.252177 -0.393592,0 -1.288518,1.08177 -1.895152,2.290823 -0.688542,1.372304 -0.950506,2.940281 -0.707581,4.235181 l 0.186645,0.994907 0.47729,-0.632756 c 0.262509,-0.348017 0.786331,-1.534208 1.16405,-2.635978 z m 59.870189,8.493136 c -0.25733,-0.28435 -0.43788,-0.93041 -0.43788,-1.566884 0,-0.931495 0.14435,-1.206582 1.03166,-1.96609 1.17734,-1.007755 2.79288,-3.343481 3.23121,-4.67161 0.33947,-1.028626 0.19919,-1.192562 -1.39952,-1.635442 -0.53616,-0.14853 -1.5163,-0.797497 -2.18282,-1.445271 -1.11596,-1.084591 -1.20969,-1.277393 -1.20969,-2.488179 0,-1.023207 0.14974,-1.490443 0.67938,-2.119892 0.79123,-0.940315 2.48629,-2.12495 4.79252,-3.349368 3.69296,-1.960654 8.28643,-1.324492 8.28643,1.147609 0,1.047007 -1.59905,2.439397 -2.80145,2.439397 -0.25025,0 -1.23049,0.433682 -2.17831,0.96374 l -1.72333,0.963737 0.95521,0.490053 c 0.56586,0.290301 1.35326,1.089742 1.93176,1.961285 0.91044,1.37164 0.96724,1.573884 0.83905,2.98763 -0.2661,2.934539 -2.51904,7.040412 -4.53907,8.272209 -1.15782,0.706027 -4.64145,0.717304 -5.27515,0.01707 z M 100.9295,89.709342 c -1.508937,-0.781955 -2.466318,-1.984933 -3.228905,-4.057219 -0.691777,-1.879859 -0.739844,-2.276927 -0.739844,-6.111523 0,-4.385138 0.435896,-6.713853 1.513046,-8.083227 1.039408,-1.321393 4.673843,-0.620959 5.469643,1.05412 0.30464,0.641236 0.31233,1.055032 0.0442,2.381251 -0.17846,0.88283 -0.44056,2.179611 -0.58244,2.881731 -0.40273,1.993074 -0.132,2.327571 0.51273,0.633478 0.81933,-2.152909 3.62739,-7.790244 4.50986,-9.053811 0.70724,-1.012656 0.79962,-1.057777 2.14045,-1.045424 1.31751,0.01214 1.47072,0.08637 2.56199,1.24137 1.04575,1.106809 1.16069,1.356689 1.16069,2.523357 0,1.061506 -0.16024,1.505398 -0.88903,2.462797 -1.51369,1.988505 -3.07972,5.456687 -3.07972,6.820445 0,1.073163 0.56235,1.558094 2.05368,1.770938 1.69383,0.241747 2.70882,1.189241 2.70882,2.528689 0,0.762821 -0.16676,1.12235 -0.72761,1.568726 -0.66553,0.529695 -0.92557,0.565401 -3.04838,0.41856 -1.53219,-0.105987 -2.67275,-0.340101 -3.35662,-0.688983 -1.03448,-0.527751 -1.03607,-0.527754 -1.20323,-0.0011 -0.23213,0.73135 -1.43048,2.112039 -1.83313,2.112039 -0.18279,0 -0.54785,0.238125 -0.81124,0.529166 -0.58522,0.646661 -2.04647,0.699392 -3.175,0.114576 z m 92.075,-1.966658 c -0.0899,-0.145521 -0.39428,-0.264584 -0.67631,-0.264584 -1.18182,0 -4.0131,-3.414657 -5.25366,-6.336173 -0.5235,-1.232844 -0.59544,-1.768761 -0.49728,-3.704166 0.14289,-2.81749 0.62769,-3.817563 2.91334,-6.009817 1.42844,-1.370066 1.89716,-1.659956 2.93583,-1.815714 1.93936,-0.290825 2.96673,0.02802 4.34477,1.348417 0.67847,0.65009 1.68796,1.318115 2.2433,1.484499 0.61846,0.185296 1.46947,0.794037 2.19622,1.570986 l 1.1865,1.268465 -0.004,2.061856 c -0.004,2.387859 -0.36913,3.589745 -1.99317,6.569093 -1.30637,2.396549 -1.93826,3.089889 -3.3559,3.682217 -1.0948,0.457436 -3.78695,0.554011 -4.03979,0.144921 z m 3.18146,-7.540626 c 0.18633,-0.436562 0.42039,-1.452255 0.52013,-2.257094 0.22451,-1.811658 -0.25114,-2.504154 -1.88199,-2.740012 -1.04994,-0.151844 -1.118,-0.116662 -1.81656,0.938922 -1.26342,1.909159 -1.13068,3.590078 0.47282,5.987317 l 0.58247,0.870802 0.89217,-1.003094 c 0.49069,-0.551698 1.04462,-1.360278 1.23096,-1.796841 z m -39.29709,6.900511 c -1.35689,-0.892318 -3.14773,-2.935142 -3.73303,-4.258315 -0.43106,-0.974484 -0.99725,-4.802545 -1.02264,-6.914137 -0.006,-0.518562 -0.19603,-0.584293 -2.18964,-0.758346 -3.31972,-0.289835 -4.96093,-1.308622 -4.96093,-3.079526 0,-1.570322 0.72285,-1.894071 4.53225,-2.02989 2.44401,-0.08714 3.14066,-0.193184 3.14066,-0.478073 0,-0.494574 1.20917,-4.945524 2.18293,-8.035349 0.54852,-1.740498 1.04667,-2.785125 1.61971,-3.396591 0.77405,-0.825942 0.91811,-0.875807 2.2276,-0.771072 0.85813,0.06863 1.67743,0.321706 2.11667,0.653814 0.63085,0.476978 0.71338,0.711795 0.68947,1.961697 -0.0172,0.89957 -0.26911,1.953104 -0.68744,2.875069 -0.62982,1.388049 -1.64522,4.465931 -2.06668,6.264467 l -0.19695,0.840508 1.9337,0.430209 c 2.44599,0.54418 3.66219,1.324119 3.77002,2.417673 0.1099,1.114529 -0.31796,1.372355 -2.74429,1.653676 -2.94787,0.341788 -3.48574,0.597783 -3.70434,1.76304 -0.31404,1.673974 0.5294,5.535285 1.35959,6.224284 0.19804,0.164351 1.14232,0.395835 2.09841,0.514408 2.33018,0.28898 3.04327,0.775591 3.04327,2.076714 0,1.814989 -1.51054,2.695433 -4.58129,2.670289 -1.52232,-0.01246 -2.08547,-0.136877 -2.82705,-0.624549 z m 17.5948,-0.06823 c -0.43657,-0.23632 -0.97235,-0.511865 -1.19063,-0.612317 -1.19987,-0.552172 -1.9464,-3.45897 -2.29734,-8.945256 -0.15567,-2.433653 -0.14918,-2.46929 0.5903,-3.241146 1.43447,-1.497264 4.30327,-0.769937 4.85577,1.231085 0.14894,0.539396 0.53586,3.163181 0.85983,5.830637 l 0.58904,4.849915 -0.62513,0.665422 c -0.72253,0.769102 -1.63608,0.841896 -2.78184,0.22166 z m 34.75895,-4.226854 c -0.63309,-0.762378 -0.61737,-4.538361 0.0344,-8.256148 0.83817,-4.781227 1.23675,-6.078404 2.14757,-6.989228 0.68701,-0.687007 0.92482,-0.769378 1.85933,-0.644032 0.58937,0.07905 1.35889,0.413647 1.71005,0.743549 l 0.63848,0.599821 0.85687,-0.810968 c 1.61114,-1.524842 2.40307,-1.692855 4.58005,-0.971685 1.77882,0.589273 2.65074,1.468128 3.76185,3.79173 0.98307,2.055847 1.31534,4.076435 1.3597,8.268679 0.0172,1.623071 -0.0522,1.857619 -0.80235,2.711979 -0.4816,0.548516 -1.06654,0.935249 -1.41456,0.935249 -0.72934,0 -2.03153,-0.629483 -2.59874,-1.256249 -0.39202,-0.433181 -0.93911,-3.217529 -1.37775,-7.01198 -0.0967,-0.836745 -0.26301,-1.521354 -0.36951,-1.521354 -0.44984,0 -1.89441,1.81882 -2.41663,3.042708 -0.31046,0.727605 -0.71912,1.501511 -0.90813,1.719792 -0.189,0.218281 -0.66194,1.365393 -1.05097,2.549136 -0.85104,2.589554 -1.30811,3.078946 -2.77658,2.972919 -0.59376,-0.04287 -1.2203,0.06602 -1.39709,0.242816 -0.4568,0.456801 -1.41002,0.396193 -1.83597,-0.116734 z M 174.78597,63.393554 c -1.26726,-0.379764 -1.75751,-1.010795 -1.75751,-2.262203 0,-1.68391 0.98413,-2.757418 2.52785,-2.757418 0.91786,0 1.35179,0.170232 2.09315,0.821159 0.86505,0.759525 0.93525,0.934282 0.93525,2.328333 0,0.828946 -0.14288,1.65005 -0.3175,1.824675 -0.3598,0.359799 -2.34575,0.385729 -3.48124,0.04545 z"
       id="path1580" />
  </g>
</svg>
