<?xml version="1.0" encoding="UTF-8" standalone="no"?>
<!-- Created with Inkscape (http://www.inkscape.org/) -->

<svg
   width="228.5899mm"
   height="261.5076mm"
   viewBox="0 0 228.5899 261.5076"
   version="1.1"
   id="svg5"
   xmlns="http://www.w3.org/2000/svg"
   xmlns:svg="http://www.w3.org/2000/svg">
  <defs
     id="defs2" />
  <g
     id="layer1"
     transform="translate(18.551146,-38.947617)">
    <path
       style="fill:#dab;stroke-width:0.264583"
       d="m 165.12569,299.73897 c 0,-0.66169 0.0337,-0.68447 0.42818,-0.28995 0.2355,0.23548 0.34754,0.55866 0.24897,0.71813 -0.3247,0.52538 -0.67715,0.30252 -0.67715,-0.42818 z m -4.7559,-2.93933 c -1.55621,-0.51874 -2.12326,-1.17859 -2.12326,-2.18117 0,-0.68424 0.081,-0.78589 0.51594,-0.64784 0.28377,0.0901 0.84932,-0.009 1.25677,-0.2194 1.13911,-0.58915 3.71234,-3.94098 5.21111,-6.78785 0.42136,-0.80036 0.90658,-1.6338 1.07826,-1.85208 0.24526,-0.31184 2.52797,-4.95013 2.51911,-5.11864 -0.001,-0.0224 -0.72556,-0.0578 -1.60974,-0.0786 -1.35366,-0.0319 -1.76081,-0.16133 -2.57755,-0.81938 -1.26243,-1.01716 -1.60439,-2.12244 -1.63418,-5.28209 -0.045,-4.76977 0.64131,-7.00827 2.28801,-7.46295 0.97755,-0.26991 2.46269,0.10427 2.84056,0.71567 0.0898,0.14534 -0.002,1.25882 -0.20494,2.4744 -0.5444,3.26734 -0.73965,6.0466 -0.42478,6.0466 0.14653,0 0.47479,-0.20841 0.72945,-0.46314 0.65353,-0.65371 2.97656,-3.69578 2.97656,-3.8979 0,-0.0924 0.3718,-0.63055 0.82621,-1.19601 0.45442,-0.56546 1.32503,-1.62094 1.28352,-2.43188 l 0.4573,-1.40378 1.52501,-0.21508 c 1.82909,-0.25797 2.11368,-0.16995 2.62074,0.8106 0.35479,0.6861 0.33474,0.95909 -0.21969,2.99018 -1.16705,4.27531 -4.88735,12.8922 -5.42318,12.56104 -0.15104,-0.0933 -0.20951,-0.009 -0.13264,0.19128 0.17244,0.44938 -2.20792,5.28906 -2.50966,5.10257 -0.12189,-0.0753 -0.44304,0.29022 -0.71367,0.81233 -0.27064,0.52211 -0.60959,1.17591 -0.75324,1.45287 -0.14365,0.27698 -0.50084,0.51195 -0.79375,0.52218 -0.45723,0.016 -0.46883,0.044 -0.0819,0.19844 0.40098,0.16002 0.37182,0.27998 -0.26459,1.08858 -0.39337,0.49981 -1.16171,1.40609 -1.70741,2.01396 -0.5457,0.60787 -0.99219,1.23848 -0.99219,1.40133 0,0.16285 -0.29765,0.37082 -0.66145,0.46212 -0.36381,0.0913 -0.66146,0.31801 -0.66146,0.50377 0,0.27953 -1.12753,1.23801 -1.37976,1.1729 -0.0415,-0.0106 -0.59977,-0.24312 -1.25948,-0.46302 z m -12.17743,-11.83003 c -3.21678,-0.53927 -4.4056,-1.01841 -5.60649,-2.25961 -1.22885,-1.27011 -2.18725,-5.48791 -2.02541,-8.91353 0.087,-1.84113 0.1949,-2.19274 1.07483,-3.50184 1.59022,-2.36581 3.39915,-4.07661 5.26353,-4.978 0.67101,-0.32442 1.41515,-0.52771 1.65365,-0.45176 0.2385,0.0759 0.642,0.21551 0.89666,0.31014 0.25466,0.0946 0.67772,0.2139 0.94013,0.26507 1.22761,0.23938 2.03643,0.89875 2.03643,1.66016 0,0.68603 -0.0845,0.7588 -0.85989,0.74067 -1.94846,-0.0455 -2.76656,0.31012 -4.12013,1.79115 -2.54558,2.78527 -2.92405,4.41463 -2.02713,8.72712 0.58926,2.83324 0.69326,2.98513 2.1792,3.183 2.67417,0.35609 4.34499,1.07395 5.28621,2.27119 0.26622,0.33863 0.22796,0.51983 -0.20874,0.98857 -0.61249,0.65743 -1.38832,0.68645 -4.48285,0.16767 z m -48.439798,-0.1495 c -3.838363,0 -6.605016,-3.74804 -6.586744,-7.4578 0.0089,-1.8089 0.814176,-5.30513 1.566916,-6.80309 0.682177,-1.35755 2.449599,-3.30204 3.506382,-3.85768 1.110766,-0.58403 2.842484,-0.46317 4.386244,0.30612 1.07573,0.53606 1.35544,0.80467 1.30871,1.25677 -0.0899,0.87016 -1.1082,1.59557 -1.75433,1.24977 -1.41826,-0.75903 -2.455708,-0.0703 -3.568006,2.36871 -1.416351,3.10573 -1.417248,6.5367 -0.0021,8.39193 0.767768,1.00659 1.551776,1.27357 2.585646,0.8805 0.57458,-0.21846 0.93643,-0.18768 1.62285,0.13805 1.24757,0.59201 1.34059,1.09324 0.43489,2.34351 -0.87356,1.20592 -1.61191,1.18321 -3.500358,1.18321 z m 19.167538,0.0448 c -1.07985,-0.26499 -2.07603,-0.9891 -3.59544,-2.61347 -1.80063,-1.92502 -2.1377,-2.88627 -1.96605,-5.60685 0.17325,-2.74592 0.50311,-3.75861 1.7137,-5.26114 1.34375,-1.66781 2.61536,-2.1553 4.94192,-1.89454 1.55986,0.17482 1.97758,0.13241 2.64744,-0.26881 0.66031,-0.39551 0.99984,-0.43277 1.99973,-0.21952 1.35483,0.28896 1.90681,0.97397 2.21532,2.74922 0.25777,1.48327 1.20163,4.08396 1.82446,5.02708 0.95541,1.44674 2.4092,2.81548 3.68233,3.4669 1.15136,0.58913 1.64109,1.16331 0.99218,1.16331 -0.14552,0 -0.25048,0.0893 -0.23325,0.19844 0.14267,0.90358 -1.10305,1.53913 -2.46125,1.25569 -1.24806,-0.26045 -3.07391,-1.34401 -4.3831,-2.60118 -0.61847,-0.59388 -1.13937,-0.99547 -1.15756,-0.89241 -0.0182,0.10306 -0.0572,0.27668 -0.0867,0.38582 -0.0295,0.10914 -0.14622,0.67468 -0.25945,1.25677 -0.26607,1.36787 -1.27484,2.92774 -2.19937,3.40092 -0.97131,0.49711 -2.65242,0.70469 -3.67495,0.45377 z m 1.7038,-4.11128 c 0.52969,-1.16253 1.07855,-3.6622 1.26535,-5.76268 0.19662,-2.21099 0.19149,-2.21899 -1.31614,-2.05819 -0.2747,0.0293 -0.57825,-0.0742 -0.67456,-0.23004 -0.32061,-0.51875 -1.27056,0.44588 -1.71045,1.73687 -0.76953,2.25845 -0.45482,4.31603 0.91391,5.97532 0.96458,1.16932 1.12698,1.20547 1.52189,0.33872 z m -106.638933,1.87851 c -0.501791,-0.38273 -1.05249,-0.69588 -1.223775,-0.69588 -0.646781,0 -0.929841,-1.24829 -0.614894,-2.71168 0.482301,-2.24099 1.067861,-5.75459 1.267756,-7.60707 0.321503,-2.97944 0.335852,-3.23485 0.371602,-6.61458 0.04995,-4.72265 -0.222804,-7.12402 -1.232159,-10.84792 -0.216937,-0.80036 -0.415768,-1.68926 -0.441847,-1.97533 -0.05599,-0.61415 1.026757,-1.22722 2.125952,-1.20375 0.405378,0.009 3.475487,0.0167 6.822466,0.0179 5.158816,0.002 6.266706,0.0726 7.276041,0.46469 1.003562,0.38982 1.192573,0.57682 1.203026,1.19021 0.01844,1.08243 -0.678619,1.52295 -2.90396,1.83521 -1.101778,0.15461 -2.007193,0.41173 -2.012035,0.57137 -3.334299,-0.84322 -6.635475,0.68716 -6.635475,0.68716 -0.07345,0 0.01654,1.27992 0.199983,2.84427 0.183438,1.56435 0.348131,4.26903 0.365982,6.0104 0.01786,1.74137 0.08562,3.25213 0.150583,3.35726 0.06497,0.10511 0.800208,-0.0442 1.633865,-0.33179 1.852866,-0.63922 5.848858,-0.81441 6.487448,-0.28443 0.593059,0.4922 0.447247,1.41244 -0.321704,2.03033 -0.809725,0.65066 -6.194097,2.48976 -7.329588,2.50352 -1.189429,0.0144 -1.486492,0.54753 -1.553252,2.78755 -0.03236,1.08566 -0.175861,2.12524 -0.318897,2.31018 -0.360156,0.46566 -0.106569,2.58521 0.309301,2.58521 1.036415,0 7.840794,0.84423 8.695935,1.07892 0.736616,0.20216 0.972056,0.38736 0.860846,0.67717 -0.08419,0.2194 -0.03827,0.61343 0.102045,0.87561 0.440203,0.82252 -0.435097,1.25057 -3.212532,1.57102 -4.190978,-0.0829 -7.53299,0.82455 -10.072713,-1.12555 z m 32.857929,-0.66104 c 0.01911,-0.38225 -1.07652,-0.48376 -1.566645,-0.87075 l -0.891141,-0.70362 -0.07617,-2.73596 c -0.139216,-5.00051 -0.343612,-6.37174 -1.050303,-7.04616 -0.836184,-0.79798 -0.802598,-1.48758 0.103886,-2.13306 0.69551,-0.49524 0.743,-0.65561 0.808429,-2.72999 0.07153,-2.26779 0.857927,-6.13055 1.501426,-7.37494 0.8026,-1.55205 3.860916,-3.52183 5.99886,-3.86371 0.539761,-0.0863 1.403763,-0.0777 1.920002,0.0192 0.764112,0.14334 0.938618,0.29363 0.938618,0.80833 0,0.98574 -0.473258,1.98961 -0.937967,1.98961 -0.578781,0 -2.597954,1.42148 -3.079345,2.16783 -0.395153,0.61266 -0.465553,0.81566 -1.129157,3.25613 -0.335127,1.23245 -0.523769,3.17192 -0.443926,4.56406 0.02799,0.48791 0.189283,0.59558 0.89404,0.59679 0.948259,0.002 2.383425,0.34357 4.095126,0.97572 1.003655,0.37065 1.109893,0.4923 1.034158,1.1841 -0.134363,1.22735 -0.518511,1.40052 -3.422568,1.54287 l -2.698903,0.13229 v 1.5875 c 0,0.87312 0.08471,2.91452 0.188243,4.53643 0.183555,2.87545 0.172334,2.96609 -0.450387,3.63802 -0.351247,0.379 -0.733613,0.675 -0.849701,0.65779 -0.116089,-0.0172 -0.90569,0.18381 -0.886577,-0.19844 z m 34.797558,-0.57431 c 0.743855,0 -1.613119,-1.28065 -1.945973,-2.15928 -0.148844,-0.3929 -0.351578,-2.0684 -0.450519,-3.72334 -0.210431,-3.51976 0.07924,-4.85906 1.10672,-5.11694 0.879139,-0.22065 2.911208,0.11042 3.260423,0.5312 0.165302,0.19918 0.314241,1.89423 0.354735,4.03718 0.05793,3.06567 0.1528,3.82054 0.557848,4.43872 0.476252,0.72685 0.475512,0.76164 -0.03066,1.43995 -0.539957,0.72359 -4.010557,0.55251 -2.852577,0.55251 z m -17.752041,-1.00736 c 0.143575,1.91434 -1.869568,-3.85537 -2.443398,-6.39573 l 0.0963,-1.91631 -1.145953,-0.34066 c -1.821196,-0.54139 -2.713598,-1.65184 -2.053243,-2.55493 0.164706,-0.22525 0.985829,-0.46459 1.765861,-0.73771 l 1.466392,-0.32816 0.314838,-2.49273 c 0.396379,-3.13833 1.50907,-6.06452 3.247134,-8.53944 1.645766,-2.34348 2.125657,-2.59502 4.10556,-2.15194 2.855902,0.63913 4.021807,1.51495 3.762592,2.82643 -0.106132,0.53697 -1.268142,0.66631 -2.640864,0.29396 -0.634013,-0.17198 -0.791094,-0.055 -1.607389,1.19724 -1.095732,1.68089 -2.030665,4.48 -2.23801,6.7004 l -0.153183,1.64039 1.045096,0.17657 c 0.698518,0.11801 1.412232,0.52239 2.152195,1.21938 1.15951,1.09218 1.376601,1.57299 0.710224,1.57299 -0.218281,0 -0.396875,0.17315 -0.396875,0.38478 0,0.29093 -0.435625,0.40389 -1.785938,0.46302 l -1.785937,0.0782 -0.07729,1.89606 c -0.06341,1.55544 0.04679,2.19711 0.613405,3.57188 0.37988,0.92169 0.694457,2.0707 0.699058,2.55334 0.0164,1.72125 -3.815469,-1.31561 -3.650578,0.88293 z m 15.969112,-17.45069 c -0.395348,-0.18958 -0.795393,-0.65198 -0.889931,-1.02865 -0.244711,-0.975 0.686432,-1.61673 2.364724,-1.62973 1.056172,-0.008 1.411852,0.1146 1.919835,0.66272 l 0.623491,0.67275 -0.567441,0.76751 c -0.312092,0.42213 -0.693878,0.77667 -0.848413,0.78787 -1.493978,0.10828 -1.982735,0.0646 -2.602265,-0.23247 z m 9.944097,-30.49945 c -1.435991,-0.71081 -1.490847,-0.79005 -2.275885,-3.28736 -2.0814,-6.62126 -3.152394,-9.75779 -3.796077,-11.11727 l -0.722247,-1.52541 0.607201,-0.49168 c 0.62297,-0.50445 2.150977,-0.61761 3.458995,-0.25615 0.736643,0.20356 0.949607,1.32525 2.381092,4.21464 l 0.697298,1.93663 0.379035,-3.39184 c 0.279208,-2.49853 0.347506,-5.51718 0.25932,-11.46163 -0.06584,-4.43839 -0.125373,-9.85384 -0.132291,-12.03435 -0.01421,-4.47509 -0.09889,-4.31713 2.135155,-3.98211 0.858417,0.12873 1.159558,0.29336 1.159558,0.63392 0,0.25302 0.121772,0.58181 0.270605,0.73064 0.148834,0.14884 0.329904,1.09538 0.402381,2.10344 0.07248,1.00806 0.26956,2.9044 0.43796,4.21408 0.373729,2.90657 0.426402,18.419 0.07007,20.6375 -0.271921,1.69298 -0.216945,4.36903 0.08958,4.36047 0.101536,-0.003 0.898985,-0.85001 1.77211,-1.88263 4.595018,-5.43434 8.900678,-8.36718 10.625038,-7.23734 0.32562,0.21335 0.77686,0.31698 1.00276,0.23029 0.50747,-0.19473 0.50796,-0.1337 0.008,1.06181 -0.25099,0.6007 -1.01031,1.43385 -2.01885,2.21512 -1.75443,1.3591 -3.4832,3.1083 -6.728978,6.80853 -1.148845,1.30969 -2.279182,2.55985 -2.511867,2.77813 -0.232685,0.21828 -1.246037,1.33758 -2.25189,2.48734 -1.64937,1.88534 -2.918471,2.8047 -3.870849,2.80412 -0.186576,-1.2e-4 -0.838028,-0.24712 -1.447673,-0.54889 z m 2.299071,-5.27174 c 0,-0.14552 -0.119063,-0.26458 -0.264584,-0.26458 -0.14552,0 -0.264583,0.11906 -0.264583,0.26458 0,0.14552 0.119063,0.26458 0.264583,0.26458 0.145521,0 0.264584,-0.11906 0.264584,-0.26458 z M 39.022101,175.45969 c -0.07507,-0.19562 -0.486063,-0.42559 -0.913323,-0.51105 -0.42726,-0.0854 -0.776835,-0.31123 -0.776835,-0.50174 0,-0.19051 0.663707,-0.99716 1.474906,-1.79256 1.598314,-1.56716 3.777864,-4.73955 4.992706,-7.267 0.419677,-0.87312 0.862558,-1.79424 0.984176,-2.04693 0.33908,-0.70449 0.303676,-0.73119 -0.969497,-0.73119 -0.654843,0 -1.190625,-0.11257 -1.190625,-0.25015 0,-0.13758 -0.323937,-0.40547 -0.719862,-0.59531 -1.368018,-0.65595 -1.642565,-2.01275 -1.127715,-5.5731 0.28562,-1.97514 0.621054,-2.6854 1.436441,-3.04158 1.20364,-0.52577 2.796916,0.0226 2.788537,0.95972 -0.0021,0.23684 -0.186378,0.95479 -0.409467,1.59543 -0.608751,1.74815 -0.114334,1.96799 1.197764,0.53257 0.5872,-0.64238 1.067636,-1.31411 1.067636,-1.49272 0,-0.46369 1.025263,-1.06133 2.183979,-1.27308 0.726644,-0.13279 1.177317,-0.061 1.678509,0.2674 0.602927,0.39505 0.668687,0.58119 0.547968,1.55102 -0.130159,1.04566 -1.724747,6.16894 -2.360592,7.58438 -0.163428,0.3638 -0.327297,0.93083 -0.364154,1.26007 -0.03686,0.32924 -0.252626,0.78423 -0.479488,1.01109 -0.226859,0.22686 -0.426207,0.55279 -0.442992,0.7243 -0.01678,0.17151 -0.04655,0.46462 -0.06615,0.65137 -0.01961,0.18674 -0.160851,0.42486 -0.313904,0.52916 -0.153054,0.1043 -0.647071,0.74337 -1.097812,1.42016 -0.575247,0.86372 -0.736264,1.31379 -0.540179,1.50987 0.196086,0.19609 0.03164,0.4208 -0.55169,0.75386 -0.785183,0.44831 -1.490287,1.36181 -0.770158,0.99778 0.180235,-0.0911 0.08957,0.0302 -0.201467,0.26952 -0.291041,0.23934 -0.502155,0.53756 -0.469143,0.66271 0.03301,0.12515 -0.303543,0.53346 -0.747905,0.90737 -0.44436,0.3739 -0.721874,0.67982 -0.616699,0.67982 0.105174,0 -0.150254,0.31648 -0.567621,0.70328 -0.844259,0.78243 -2.433021,1.0849 -2.655348,0.50553 z m 94.948899,-8.2747 c -0.33344,0 -0.59531,-0.22544 -0.59531,-0.36084 0,-0.1354 -0.22539,-0.24618 -0.50086,-0.24618 -0.98905,0 -0.85279,-0.85166 0.63591,-3.97453 0.81112,-1.70152 1.49952,-3.4381 1.52976,-3.85906 0.0528,-0.73431 0.0134,-0.76206 -0.97029,-0.68365 -0.5639,0.045 -1.27828,0.2462 -1.5875,0.44721 -0.30923,0.20101 -1.17694,0.44609 -1.92827,0.54462 -1.33509,0.17508 -1.39204,0.15439 -2.51354,-0.91338 -1.05373,-1.00325 -1.11,-1.12143 -0.68859,-1.44626 0.2524,-0.19455 0.38138,-0.43126 0.28663,-0.52601 -0.0948,-0.0947 -0.0334,-0.17228 0.1364,-0.17228 0.16978,0 0.30868,-0.22538 0.30868,-0.50086 0,-0.27547 0.16737,-0.56508 0.37193,-0.64358 0.20456,-0.0785 0.44636,-0.48159 0.53733,-0.89577 0.091,-0.41418 0.51947,-1.16637 0.95223,-1.67153 0.43275,-0.50515 1.1572,-1.45425 1.60988,-2.10909 0.94903,-1.37286 2.80604,-2.95773 4.33384,-3.69875 0.83845,-0.40666 1.3332,-0.47361 2.38125,-0.32224 0.72761,0.10509 1.32292,0.32851 1.32292,0.49648 0,0.16798 0.0893,0.39471 0.19844,0.50385 0.44837,0.44837 0.12868,0.80456 -1.12018,1.24812 -0.72524,0.25758 -1.43653,0.68867 -1.58066,0.95798 -0.14413,0.2693 -0.66239,0.72584 -1.15168,1.01454 -1.1844,0.6988 -2.03446,1.44236 -2.03446,1.77955 0,0.15094 -0.23594,0.42178 -0.52431,0.60187 -0.52869,0.33017 -1.99353,2.92646 -1.77462,3.14536 0.0648,0.0649 0.66445,-0.0197 1.33246,-0.18793 1.51894,-0.38248 5.25023,-0.22816 5.40074,0.22335 0.0593,0.17778 0.27641,0.32324 0.48257,0.32324 0.52466,0 0.49902,2.53839 -0.0391,3.87029 -0.49789,1.23232 -1.6709,3.77998 -1.99447,4.33179 -0.128,0.21828 -0.53345,0.96242 -0.901,1.65365 -0.36756,0.69122 -0.8151,1.24055 -0.99455,1.22074 -0.17945,-0.0198 -0.58814,-0.1507 -0.92158,-0.1507 z m -39.407713,-2.59593 c -2.588837,-2.38216 -3.908174,-4.4952 -3.713398,-5.94735 0.238593,-1.77885 2.571443,-5.68978 3.393918,-5.68978 0.130974,0 0.226521,-0.10043 0.212326,-0.22317 -0.05499,-0.47547 1.563648,-1.85449 3.333102,-2.83968 1.385673,-0.77151 2.151917,-1.03117 3.042705,-1.03109 1.75586,1.8e-4 2.31494,0.22182 2.50891,0.99468 0.1484,0.59126 -0.0239,0.86143 -1.23436,1.93499 -1.02242,0.90682 -1.70996,1.2944 -2.516148,1.41839 -0.812785,0.12502 -1.325529,0.41689 -1.918228,1.09194 -0.444907,0.50672 -0.808921,1.09576 -0.808921,1.30898 0,0.21321 -0.09815,0.38766 -0.218123,0.38766 -0.315923,0 -1.63396,2.95837 -1.63396,3.66746 0,0.33037 0.132969,0.86073 0.295484,1.17858 0.490667,0.95967 2.428639,2.84281 3.309464,3.21584 0.626724,0.26541 0.826824,0.51801 0.826824,1.04375 0,0.74102 -0.27796,1.02224 -1.124481,1.1377 -0.291041,0.0397 -0.772821,0.12862 -1.070618,0.19761 -0.398163,0.0922 -1.108588,-0.39641 -2.684496,-1.84651 z m -73.238636,0.96142 c -0.873125,-0.43792 -1.780567,-0.95337 -2.016538,-1.14545 -0.67191,-0.54695 -1.81992,-2.3502 -1.81992,-2.85867 0,-0.25292 -0.17998,-0.60922 -0.399956,-0.79178 -0.850853,-0.70615 -1.501979,-2.70351 -1.326238,-4.06831 0.31342,-2.434 1.801275,-7.80429 3.160419,-11.40726 0.633989,-1.68065 1.860785,-2.98753 3.966422,-4.22535 2.581787,-1.51773 3.448306,-1.68745 7.642107,-1.49681 0.895522,0.0407 2.09872,1.15631 1.875232,1.73872 -0.126222,0.32892 -0.62226,0.41156 -2.470394,0.41156 -1.943046,0 -2.411253,0.0857 -2.9309,0.53638 -0.340143,0.295 -0.920401,0.61215 -1.289465,0.70478 -0.988301,0.24805 -2.629553,1.87872 -3.411044,3.38905 -0.376485,0.72761 -0.69791,1.44198 -0.714278,1.5875 -0.01637,0.14552 -0.178246,0.61596 -0.359728,1.04541 -0.181482,0.42946 -0.51562,1.50102 -0.742529,2.38125 -0.22691,0.88023 -0.510848,1.83855 -0.630975,2.12959 -0.299257,0.72504 -0.878391,3.08072 -0.605992,3.90261 1.037709,2.75736 -0.288645,1.5257 3.264402,5.43764 0.577291,0.59906 1.603645,0.97061 2.949978,1.21448 2.395987,0.43399 1.699162,1.96375 -0.99468,2.18365 -1.35105,0.11028 -1.769665,0.0213 -3.145923,-0.66899 z m 59.120085,-0.78975 c -0.382857,0 -1.147986,-0.30604 -1.455208,-0.74067 l -0.77946,-0.57354 -0.0858,-3.70629 c -0.08009,-3.45964 -0.04928,-3.74281 0.463021,-4.25511 0.593296,-0.59329 2.077331,-0.74061 2.919638,-0.28982 0.803865,0.43021 1.006173,1.57957 0.910809,5.17453 -0.126664,4.77492 -0.101289,4.3909 -1.972998,4.3909 z m 36.791374,-0.0542 c 0,-0.15619 -0.20377,-0.24474 -0.45283,-0.19677 -0.71437,0.13757 -1.54914,-0.85879 -1.89776,-2.26514 -0.17597,-0.70988 -0.43772,-2.94953 -0.58166,-4.977 -0.26032,-3.66671 -0.2585,-3.68898 0.34308,-4.19061 0.6056,-0.50498 1.69519,-0.64806 2.75983,-0.36241 0.79166,0.21241 1.19332,1.83737 1.31508,5.32036 0.11097,3.17399 0.1626,3.73808 0.47237,5.16074 0.16261,0.74678 0.11651,1.0809 -0.19164,1.38906 -0.46167,0.46167 -1.76647,0.55161 -1.76647,0.12177 z m -55.5625,-1.46226 c -0.20373,0 -0.224936,-0.37042 -0.499856,-0.37042 -0.274918,0 -0.751997,-0.20836 -1.060167,-0.46302 -0.482688,-0.39887 -0.525579,-0.59132 -0.309592,-1.38906 0.217072,-0.80176 0.863113,-7.33233 0.778968,-7.8743 -0.09589,-0.6176 0.123145,-0.92123 0.892209,-1.23681 1.199322,-0.49213 2.588808,-0.2342 3.287543,0.61028 0.462169,0.55857 0.642007,0.63046 0.912813,0.36489 0.199041,-0.19519 1.033102,-0.33073 2.035252,-0.33073 1.629645,0 1.740823,0.0428 2.761673,1.06367 1.031152,1.03116 1.059267,1.10634 0.919612,2.45945 -0.07923,0.76768 -0.04941,2.258 0.06627,3.31183 0.267139,2.43356 -0.0501,3.31421 -1.119624,3.10809 -0.400182,-0.0771 -0.727604,-0.0241 -0.727604,0.11774 0,0.14188 -0.238125,0.0198 -0.529167,-0.2712 -0.291042,-0.29104 -0.701008,-0.52916 -0.91104,-0.52916 -0.779446,0 -1.205327,-1.11018 -1.215141,-3.16773 l -0.0095,-1.99165 -0.674439,0.79375 c -0.977666,1.15062 -1.422569,2.32283 -1.427768,3.76182 -0.0035,0.96812 -0.145606,1.39886 -0.605113,1.83412 -0.704871,0.66768 -1.952147,0.19844 -2.565307,0.19844 z m 89.34716,-3.06448 c -0.40891,-0.14906 -1.01834,-0.52662 -1.3543,-0.83901 -0.50385,-0.4685 -0.56596,-0.68381 -0.35465,-1.22943 0.14089,-0.3638 0.76804,-3.06893 1.39366,-6.01139 0.71526,-3.36408 1.29992,-5.51236 1.57508,-5.78752 0.32878,-0.32878 0.74015,-0.4035 1.65424,-0.30047 1.10805,0.1249 1.6651,0.52721 1.82435,1.31761 0.022,0.10914 0.0549,0.26369 0.073,0.34344 0.0182,0.0797 0.53909,-0.19902 1.15756,-0.61949 2.05889,-1.39978 3.57536,-1.68326 5.10966,-0.95519 0.85216,0.40438 1.35074,1.18337 1.21365,1.89624 -0.11838,0.61559 0.79761,0.7057 1.25117,0.12307 0.23604,-0.30321 1.08129,-0.97664 1.87834,-1.49651 1.88666,-1.23055 3.745,-1.32703 5.01281,-0.26023 0.76564,0.64424 0.81405,0.79466 0.81405,2.52916 0,1.16208 -0.0979,1.78369 -0.26458,1.68066 -0.14552,-0.0899 -0.26458,-0.0374 -0.26458,0.11667 0,0.15411 0.15634,0.2802 0.34743,0.2802 0.22884,0 0.36959,0.4279 0.41232,1.25354 0.0357,0.68944 0.29871,1.78211 0.58448,2.42815 0.34466,0.77916 0.42552,1.23276 0.24018,1.3473 -0.15368,0.095 -0.19562,0.39106 -0.0932,0.65796 0.12867,0.33532 0.0906,0.42616 -0.12333,0.29396 -0.18946,-0.11709 -0.30955,-0.0187 -0.30955,0.25358 0,0.33211 -0.0861,0.37344 -0.3396,0.16304 -0.19809,-0.1644 -0.49114,-0.18819 -0.70324,-0.0571 -0.41604,0.25712 -1.56419,-0.17611 -2.06965,-0.78095 -0.83017,-0.99339 -1.76186,-3.40522 -1.86655,-4.83188 -0.0614,-0.83674 -0.20843,-1.52135 -0.32671,-1.52135 -0.69833,0 -3.4255,4.43059 -3.4255,5.56511 0,0.79368 -1.22449,2.29189 -1.99329,2.43885 -0.35855,0.0685 -0.86042,-0.0336 -1.11525,-0.22709 -0.25483,-0.19344 -0.65324,-0.35549 -0.88535,-0.36012 -0.23211,-0.005 -0.61906,-0.22615 -0.85989,-0.49227 -0.35481,-0.39205 -0.43789,-1.06974 -0.43789,-3.57188 0,-1.69841 -0.10214,-3.08802 -0.22697,-3.08802 -0.25697,0 -2.15428,2.98123 -2.15428,3.38501 0,0.1444 -0.16448,0.32566 -0.36551,0.40281 -0.35781,0.1373 -1.56728,3.03296 -1.8742,4.48714 -0.32427,1.53635 -1.47067,2.07275 -3.13396,1.4664 z M 80.326735,146.54392 c -0.87149,-0.21231 -1.455209,-0.90232 -1.455209,-1.72019 0,-1.16641 0.417251,-1.71379 1.454738,-1.90843 1.368216,-0.25667 2.394204,0.53472 2.590495,1.99819 0.219247,1.63461 -0.5598,2.12503 -2.590024,1.63043 z m 36.076975,-6.34656 c 0.38958,0 -0.88866,-0.31592 -1.11912,-0.57058 -0.3778,-0.41747 -0.37903,-0.52012 -0.0125,-1.04342 0.69765,-0.99603 3.08174,-0.59989 3.38573,0.56257 0.27674,1.05825 -4.19132,1.05143 -2.2541,1.05143 z M 91.490333,121.31309 c -1.882166,-1.2467 -2.352915,-1.98695 -3.442144,-5.41271 -0.553495,-1.74081 -1.475454,-4.61017 -2.048801,-6.37634 -1.091465,-3.36224 -1.274159,-4.45502 -0.711716,-4.25715 0.181901,0.064 0.620511,0.009 0.97469,-0.1222 1.496045,-0.55417 2.76143,0.72481 3.583311,3.62182 0.247708,0.87313 0.608227,1.76609 0.801155,1.98438 0.192929,0.21828 0.337027,0.85137 0.320215,1.40687 -0.01683,0.5555 0.09554,1.09128 0.249671,1.19062 0.154131,0.0994 0.405316,0.59735 0.558189,1.10667 0.795258,2.64953 0.967108,3.10009 1.438056,3.77031 0.621069,0.88387 1.718169,0.9682 2.628736,0.20206 l 0.624623,-0.52556 -0.661459,-0.5269 c -0.363802,-0.28979 -0.851365,-0.52954 -1.083471,-0.53277 -0.232108,-0.003 -0.648827,-0.25598 -0.926042,-0.56164 -0.427162,-0.471 -0.527761,-1.1267 -0.659646,-4.29948 -0.08559,-2.05905 -0.314465,-7.17008 -0.508608,-11.35783 -0.227558,-4.908505 -0.261977,-7.705113 -0.09686,-7.870229 0.334524,-0.334523 1.884006,-0.515051 2.832304,-0.329988 0.476605,0.09301 0.853091,0.396705 1.036905,0.836424 0.302448,0.723519 0.463381,3.291917 0.416269,6.643518 -0.04086,2.907225 -0.03549,3.144615 0.113763,5.027085 0.075,0.94588 0.258797,2.02719 0.408448,2.40291 0.295272,0.7413 0.294145,4.16659 -0.0016,4.62787 -0.166306,0.25947 0.20904,3.79382 0.42594,4.01072 0.124388,0.12439 1.017272,-0.97925 2.923919,-3.61407 2.17544,-3.00628 3.8289,-3.93909 5.57337,-3.14425 0.54158,0.24676 0.65705,0.44603 0.53658,0.92604 -0.0995,0.39657 -0.0355,0.61471 0.18226,0.62042 0.18467,0.005 0.0381,0.25737 -0.32569,0.56117 -0.3638,0.30381 -0.62978,0.70218 -0.59105,0.88527 0.0387,0.18309 -0.15019,0.39058 -0.41981,0.46108 -0.51287,0.13414 -2.95783,3.12624 -2.95783,3.61983 0,0.15657 -0.0934,0.28468 -0.20753,0.28468 -0.26655,0 -1.14898,1.48507 -1.05463,1.77487 0.11867,0.36451 -1.03296,1.66471 -1.474478,1.66471 -0.22635,0 -0.75235,0.36467 -1.168905,0.81039 -0.865828,0.92643 -2.113,1.29079 -4.449612,1.29997 -1.35958,0.005 -1.798529,-0.1197 -2.838532,-0.80857 z m 5.37286,-3.94762 c 0,-0.14552 -0.119063,-0.26458 -0.264584,-0.26458 -0.145521,0 -0.264583,0.11906 -0.264583,0.26458 0,0.14552 0.119062,0.26458 0.264583,0.26458 0.145521,0 0.264584,-0.11906 0.264584,-0.26458 z M 15.267497,78.40557 C 14.180684,79.854654 13.210222,75.566786 12.590705,73.15467 12.08352,71.179918 11.795114,70.766808 11.527726,71.632062 11.177608,72.765032 9.2237598,75.15555 8.0511903,75.885578 7.041744,76.514048 6.8054975,76.565432 6.1730746,76.294076 5.7751915,76.123356 5.1933172,75.680621 4.8800241,75.310225 4.4252503,74.772563 4.3672245,74.529927 4.5922394,74.10685 c 0.2601569,-0.489151 1.7303803,-2.474299 2.0580721,-2.778884 0.078282,-0.07276 0.8105616,-1.144903 1.6272907,-2.382539 0.816729,-1.237633 1.7349468,-2.476478 2.0404858,-2.752984 0.722468,-0.653825 0.693978,-1.465538 -0.13085,-3.728019 -1.3760136,-3.774373 -1.9860052,-5.752343 -1.9051353,-6.177631 0.144272,-0.758712 2.0263853,-0.813282 3.1148903,-0.09032 1.106334,0.734809 1.247065,0.935503 1.612254,2.299198 0.155879,0.582083 0.619197,1.553805 0.84219,2.234263 l 0.558776,1.175932 1.48422,-1.638953 c 1.353603,-1.494718 1.578512,-1.638951 2.555661,-1.638951 0.971994,0 1.11828,0.09209 1.576123,0.992188 0.277577,0.545703 0.61913,1.074287 0.75901,1.174636 0.264723,0.189905 -1.013682,1.537343 -1.458582,1.537343 -0.138023,0 -0.250952,0.154831 -0.250952,0.344067 0,0.189237 -0.760759,1.112342 -1.690579,2.051343 -1.81973,1.837703 -1.762612,1.647354 -1.345449,4.483756 -0.247748,2.029051 0.112524,1.935167 0.298186,3.189012 -0.106106,1.015167 -0.07293,1.543132 0.09062,1.442056 0.15693,-0.09699 0.198385,0.13866 0.105812,0.601522 -0.134048,0.670235 0.230799,2.350612 0.84087,3.872791 0.14261,0.355822 0.110916,0.449533 -0.106577,0.315116 -0.198057,-0.122406 -0.309547,0.0049 -0.309547,0.35347 0,0.823804 -0.647564,-1.971649 -1.691529,-0.579696 z m -33.102446,-0.04336 c 0.75118,-1.001574 -1.030765,-1.712524 -0.66647,-3.789519 0.17263,-0.984234 0.370011,-2.503892 0.438625,-3.377017 0.06861,-0.873125 0.348385,-3.671094 0.621713,-6.217708 0.477946,-4.453056 0.761644,-10.060291 0.825752,-16.320848 -0.121574,-2.850964 -0.107522,-3.2477 -0.291172,-5.362841 -0.732482,-0.834323 -0.957626,-1.271266 -0.77095,-1.496198 0.279756,-0.337084 4.504367,-1.917095 6.722936,-2.514386 2.0410715,-0.549505 4.6405606,-0.411637 5.9328253,0.314657 1.1493791,0.645987 1.2272698,0.795004 0.816618,1.562316 -0.2020782,0.377588 -0.425622,0.445822 -0.9772518,0.298294 -0.752938,-0.201367 -4.8900525,0.539764 -5.7024555,1.021548 -0.252688,0.149852 -0.618887,0.272459 -0.813776,0.272459 -0.673984,0 -1.459387,1.188089 -1.661613,2.513541 -1.185947,2.167107 -1.168706,1.861153 -0.948823,3.704167 -0.413472,1.13548 0.226516,1.631514 0.08777,3.042712 -0.02352,0.218281 0.04834,1.189563 0.115366,2.161916 l 0.158131,1.765043 2.229747,-0.105055 c 1.226363,-0.05778 2.4730765,-0.235279 2.7704755,-0.394441 0.997781,-0.533996 2.7013669,-0.531458 3.3526811,0.005 0.4946147,0.407387 0.5534581,0.606949 0.3425402,1.161709 -0.39506,1.039082 -1.2697407,1.437738 -3.8501613,1.754793 -1.3614185,0.167278 -3.0878805,0.36083 -3.7397205,0.911919 l -1.358472,0.619334 -0.179985,2.74062 c -0.09899,1.507344 -0.350883,4.269994 -0.559758,6.139227 -0.208869,1.869228 -0.379766,4.030472 -0.379766,4.802759 0,2.076299 0.515421,2.191152 5.3704585,1.196718 6.8032341,-1.393475 7.3607324,-1.343083 7.427537,0.671354 0.033427,1.007967 0.00751,1.038667 -1.024038,1.213683 -1.1349487,0.192556 -4.0671697,0.762445 -7.2760415,1.414132 -5.584369,1.134123 -7.748587,1.271265 -7.012725,0.290116 z m 48.633417,-4.00916 c 0.197949,0.263933 -0.666224,-0.366207 -0.896295,-0.370837 -0.230071,-0.0046 -0.577522,-0.305901 -0.772112,-0.669497 -0.285033,-0.53259 -0.291344,-0.854001 -0.03246,-1.653645 0.46572,-1.438529 1.097124,-6.15088 1.214258,-9.062355 0.05562,-1.382448 0.181393,-6.26401 0.2795,-10.847916 0.09811,-4.583906 0.224806,-8.410175 0.281556,-8.502819 0.255128,-0.416483 1.981835,-0.495888 2.700616,-0.124191 1.289309,0.666726 1.403961,0.988856 1.458351,4.097443 -0.41371,2.694581 -0.134741,3.572042 -0.159789,4.275141 -0.02254,0.570595 -0.192667,1.095655 -0.378066,1.166799 0.06998,1.919285 0.585662,1.340374 0.380347,2.630405 -0.210318,1.296038 -0.008,1.748888 0.781211,1.748888 1.289203,0 2.961939,0.593762 3.61089,1.28174 0.36453,0.38645 0.983264,1.639067 1.374969,2.783594 0.622837,1.819883 0.809942,2.754944 1.013068,5.062791 0.02561,0.291042 0.142692,0.678947 0.260173,0.862012 0.235273,0.366615 0.69074,5.105302 0.520993,5.420418 -0.544025,1.009939 -2.835576,0.274093 -3.748992,-1.203846 -0.337656,-0.546338 -0.6486,-1.727779 -0.819031,-3.111931 -0.262866,-2.134875 -0.450744,-3.118345 -1.024154,-5.361051 -0.311267,-1.217422 -0.375394,-1.293839 -0.912733,-1.087644 -0.374444,0.143688 -0.894969,1.526487 -0.765898,2.034646 0.02772,0.109141 -0.05514,0.198438 -0.184139,0.198438 -0.128998,0 -0.316164,0.565547 -0.415925,1.25677 -0.405371,2.808711 -0.58397,3.843065 -0.685279,3.96875 -0.10496,0.130218 -0.194832,0.488753 -0.355955,2.580373 l -0.203869,2.117354 -1.021628,0.436296 c -0.872287,0.372519 -1.806908,-0.33586 -1.49961,0.07387 z m 88.488162,-0.122928 c -0.25466,-0.15544 -0.46302,-0.202591 -0.46302,-0.104783 0,0.09781 -0.17859,0.02962 -0.39687,-0.15154 -0.70122,-0.581959 -0.47675,-1.488107 0.51334,-2.072275 1.64842,-0.972587 3.5877,-4.236273 3.5877,-6.037855 0,-0.624975 -0.789,-1.18146 -2.12891,-1.501542 -0.37054,-0.08852 -1.12567,-0.551709 -1.67806,-1.029319 -0.80769,-0.698347 -1.00977,-1.060265 -1.03203,-1.848324 -0.0341,-1.206669 0.38015,-1.690729 2.83644,-3.314559 2.61156,-1.72647 4.85972,-2.512764 6.54519,-2.28918 2.7281,0.361897 2.81354,2.234842 0.13042,2.858926 -0.99672,0.231833 -3.63869,1.362604 -4.31179,2.458008 l -0.75528,0.699973 0.92461,0.354166 c 1.49237,0.571643 1.67461,0.717138 2.59279,2.070119 0.76071,1.120939 0.85155,1.428022 0.69852,2.361329 -0.41899,2.555468 -1.69927,5.235408 -3.16687,6.629075 -0.94388,0.896326 -3.09944,1.40409 -3.89618,0.917781 z M 57.774014,73.618683 c -3.009148,0 -4.165534,-3.345611 -4.165254,-6.391759 2.65e-4,-3.166152 1.138555,-6.058302 3.037766,-7.718496 0.753248,-0.65845 3.164727,-1.410422 4.515274,-1.407999 0.499776,7.94e-4 1.249717,0.179491 1.666533,0.396875 0.416817,0.217385 1.202881,0.395245 1.746809,0.395245 0.592539,0 1.349336,0.242846 1.887987,0.605833 l 0.899022,0.605835 0.03217,2.603672 c 0.04373,3.539672 0.835295,6.900372 1.760852,7.47595 0.178006,0.110699 1.177433,0.165867 2.220944,0.122597 1.631075,-0.06763 1.974485,-0.0016 2.447396,0.471429 0.302557,0.302557 0.550101,0.650711 0.550101,0.773676 0,0.890141 -3.544001,2.024584 -5.097426,1.631699 -0.470635,-0.119031 -1.190159,-0.291539 -1.598943,-0.383355 -0.408781,-0.09181 -1.27692,-0.658862 -1.929194,-1.260107 l -1.185952,-1.093171 -0.584346,0.757814 c -1.379556,1.789089 -3.212533,3.05231 -4.386971,3.023336 -0.236892,-0.0058 -0.986411,-0.609074 -1.816764,-0.609074 z m 2.135187,-3.812071 c 1.006311,-1.601412 1.424774,-2.697091 2.00823,-5.258274 0.690221,-3.029833 0.68952,-3.274539 -0.0094,-3.274539 -2.818048,0 -5.186415,5.336776 -3.819837,8.607457 0.494752,1.184105 1.044133,1.161587 1.820968,-0.07464 z m 30.916102,3.722221 c -2.122106,-1.045731 -3.293501,-4.271121 -3.272125,-9.009665 0.01392,-3.085576 0.641101,-6.176843 1.455949,-7.1761 0.385069,-0.472216 2.229852,-0.268111 3.175193,0.3513 0.796242,0.521719 0.948084,1.655254 0.397428,2.966895 -0.466625,1.11148 -0.51729,1.536274 -0.567394,4.757308 -0.02527,1.62478 -0.13525,3.043608 -0.24439,3.15295 -0.109141,0.109344 -0.198438,0.314081 -0.198438,0.454975 0,0.34263 0.878555,-0.801138 1.40706,-1.831814 0.232952,-0.454297 0.965859,-2.158487 1.62868,-3.787092 1.434621,-3.524972 3.702647,-7.907647 4.418277,-8.53776 0.422519,-0.372025 0.636739,-0.397891 1.225357,-0.147944 1.05577,0.448309 1.90293,1.279784 2.32122,2.278239 0.36392,0.868675 0.34857,0.914453 -0.79866,2.38125 -0.64335,0.822553 -1.25035,1.822971 -1.34889,2.223154 -0.0985,0.400182 -0.28532,0.727604 -0.41506,0.727604 -0.129748,0 -0.235898,0.1603 -0.235898,0.356224 0,0.195924 -0.18659,0.730253 -0.41465,1.187397 -0.597992,1.198713 -0.749564,3.414755 -0.282331,4.127841 0.374891,0.572159 1.966189,1.207704 3.023879,1.207704 0.7762,0 1.35436,0.679289 1.29007,1.515711 -0.0435,0.565703 -0.24104,0.769638 -0.93969,0.97001 -1.06797,0.306289 -3.646018,-0.153247 -5.132823,-0.914924 -1.026107,-0.525666 -1.805691,-0.666218 -1.741784,-0.314026 0.01982,0.109141 -0.177837,0.706964 -0.439203,1.328499 -0.311025,0.739627 -0.685368,1.182809 -1.083487,1.282729 -0.334552,0.08397 -0.746802,0.319583 -0.916112,0.523584 -0.404175,0.487003 -1.227124,0.460645 -2.312178,-0.07405 z m 55.329567,-1.713245 c -0.48286,0 -0.91929,-0.348594 -1.00781,-0.491813 -0.0885,-0.143217 -0.33281,-0.260393 -0.54288,-0.260393 -0.42519,0 -2.17243,-1.820637 -2.714,-2.828012 -0.71157,-1.323583 -1.0854,-3.200443 -1.28512,-5.837091 l -0.16535,-2.71198 h -1.77914 c -2.45334,0 -3.23024,-0.197 -4.32029,-1.095515 -0.96165,-0.79267 -1.03084,-1.33958 -0.21652,-1.711576 0.2434,-0.111196 1.86565,-0.558989 3.58146,-0.351187 l 3.1389,-0.149013 0.9913,-3.96875 c 1.16974,-4.683156 2.14962,-7.44013 2.81802,-7.928878 0.56559,-0.413568 2.05574,-0.259999 2.96081,0.305129 0.50763,0.316957 0.58298,0.526743 0.44003,1.224977 -0.0949,0.463387 -0.41289,1.316879 -0.7067,1.896648 -0.70853,1.398097 -2.06564,5.578184 -2.06564,6.362452 0,0.34209 -0.10788,0.68866 -0.23974,0.770154 -0.35681,0.22052 -0.0376,1.143622 0.46425,1.342644 0.24032,0.0953 0.79414,0.2202 1.2307,0.277556 2.23673,0.293867 3.64474,0.94507 3.77692,1.746821 0.0596,0.361776 -0.25013,0.473568 -1.7198,0.620636 -0.98589,0.09866 -2.48566,0.096 -3.11545,0.501044 l -1.32292,0.321665 -0.0509,2.620811 c -0.028,1.441448 0.0399,2.743819 0.15078,2.894161 0.11094,0.150339 0.3607,0.777642 0.55503,1.394002 0.47951,1.52086 0.91325,1.823096 2.89873,2.019887 2.94824,0.292214 3.585,1.262473 1.64991,2.514026 -1.08639,0.702636 -2.10117,0.521595 -3.40456,0.521595 z m 33.11046,-0.08233 c -0.28248,-0.213651 -0.69716,-0.392244 -0.92153,-0.396875 -0.84505,-0.01744 -3.4202,-3.236941 -4.32918,-5.41243 -0.61992,-1.483667 -0.60049,-4.303217 0.0396,-5.750295 0.73461,-1.660721 2.57922,-3.486348 4.09734,-4.055197 1.07675,-0.403463 1.36861,-0.420783 2.08568,-0.123764 1.05544,0.437179 2.35092,1.517636 2.35092,1.960716 0,0.186306 0.41715,0.406429 0.92699,0.489167 1.24282,0.201681 2.95508,1.453533 3.32692,2.432348 0.50568,1.331098 0.55163,2.634946 0.12191,3.458993 -0.2221,0.425887 -0.40454,1.025615 -0.40544,1.33273 -7.9e-4,0.307116 -0.29756,0.994471 -0.65925,1.527456 -0.36169,0.532984 -0.88824,1.475285 -1.17009,2.094 -0.62489,1.371703 -1.26391,1.976572 -2.58654,2.448282 -1.32755,0.473461 -2.24677,0.471823 -2.87736,-0.0051 z m 1.77528,-3.514142 c 0.49238,-0.545703 1.15882,-1.419305 1.48098,-1.941338 0.72414,-1.173432 1.22357,-4.31642 0.81253,-5.113359 -0.52488,-1.017629 -1.08527,-1.490048 -1.58091,-1.332738 -0.26488,0.08407 -0.85176,-0.06308 -1.30415,-0.32699 l -0.82255,-0.479846 -0.86617,0.996664 c -0.4764,0.54817 -1.0776,1.550271 -1.33601,2.2269 -0.40948,1.072211 -0.42716,1.396709 -0.13766,2.526263 0.39265,1.53207 0.92857,2.668463 1.47056,3.118271 0.21526,0.178652 0.39138,0.478914 0.39138,0.66725 0,0.304794 0.34951,0.570468 0.82911,0.630221 0.0922,0.01148 0.57051,-0.425595 1.06289,-0.971298 z m -20.19034,2.737003 c 0,1.310346 -1.46571,-1.90949 -1.6645,-3.599937 -0.0939,-0.798695 -0.28415,-2.099116 -0.42272,-2.889826 -0.38057,-2.171668 -0.31629,-3.88416 0.16383,-4.364278 0.55878,-0.558774 1.95192,-0.516144 2.73197,0.08359 0.55998,0.430548 0.6772,0.855546 1.00179,3.632139 0.20218,1.729494 0.39982,3.647411 0.43921,4.262038 0.0394,0.614627 0.15413,1.200017 0.25498,1.300868 0.10085,0.100849 0.18336,0.501595 0.18336,0.890546 0,0.501054 -0.19643,0.796681 -0.6739,1.014235 -0.93447,0.425773 -2.01402,-1.404327 -2.01402,-0.32938 z m 34.6916,-3.556876 c 0,1.562732 -1.37968,-1.217435 -0.26082,-6.880248 0.56489,-2.859074 1.14908,-5.518499 1.2982,-5.909834 0.52711,-1.383353 1.844,-1.505241 3.29331,-0.304824 0.95023,0.787046 1.018,0.780354 1.72057,-0.169915 0.32098,-0.43416 0.95795,-0.982959 1.41548,-1.219555 0.77347,-0.399978 0.94134,-0.397025 2.39162,0.04208 1.75127,0.530244 2.13794,0.945756 3.41033,3.664794 0.52645,1.12499 0.84331,2.266397 0.90443,3.258005 0.0518,0.839491 0.1652,2.300253 0.25209,3.246139 0.15027,1.635725 0.11908,1.765059 -0.63817,2.645833 -0.51748,0.601906 -0.86831,0.824166 -1.00229,0.634984 -0.11337,-0.160081 -0.56332,-0.407363 -0.99988,-0.549516 -0.79223,-0.257963 -0.79455,-0.264776 -1.20931,-3.5454 -0.5476,-4.331417 -0.71987,-5.160711 -1.14541,-5.51388 -0.48647,-0.403735 -0.98543,-0.16447 -1.61403,0.773967 -0.29105,0.434494 -0.64936,0.790332 -0.79625,0.79075 -0.31181,7.94e-4 -0.92692,0.918874 -1.05245,1.570646 -0.0478,0.248372 -0.4599,1.038553 -0.91571,1.755955 -0.73661,1.15934 -1.24316,2.53302 -1.70059,4.611661 -0.27195,1.235768 -3.35112,-0.380271 -3.35112,1.098356 z m -34.0542,-19.129325 c -1.15153,0 -1.14005,-1.559642 -0.44234,-2.555772 0.35047,-0.500367 0.56885,-0.567766 1.35917,-0.419501 1.32448,0.248474 1.92744,0.943214 1.92744,2.220822 0,0.582083 -0.0298,1.06283 -0.0661,1.068326 -1.4705,0.222152 -1.88563,-0.313875 -2.77813,-0.313875 z"
       id="path21" />
  </g>
</svg>
