<?xml version="1.0" encoding="UTF-8" standalone="no"?>
<!-- Created with Inkscape (http://www.inkscape.org/) -->

<svg
   width="232.56856mm"
   height="189.41521mm"
   viewBox="0 0 232.56856 189.41521"
   version="1.1"
   id="svg1230"
   xmlns="http://www.w3.org/2000/svg"
   xmlns:svg="http://www.w3.org/2000/svg">
  <defs
     id="defs1227" />
  <g
     id="layer1"
     transform="translate(114.28486,-42.715008)">
    <path
       style="fill:#041;stroke-width:0.264583"
       d="m -106.95196,231.73873 c -0.40067,-0.21102 -0.90974,-0.73417 -1.13127,-1.16256 -0.44226,-0.85523 -0.56975,-0.89833 -1.55242,-0.52472 -0.8541,0.32473 -1.71727,-0.10567 -3.10195,-1.54671 -1.2263,-1.27621 -1.6249,-2.66897 -1.11808,-3.90673 0.29036,-0.70914 0.2814,-0.88341 -0.06,-1.16674 -0.28048,-0.23278 -0.39063,-0.77853 -0.36578,-1.81218 0.0582,-2.41844 0.31653,-2.80093 2.69659,-3.99218 2.38066,-1.19156 4.01984,-1.37455 5.59297,-0.62438 0.50103,0.23893 1.07062,0.36956 1.26574,0.29029 0.19513,-0.0793 0.71173,-0.8403 1.148,-1.69118 0.83695,-1.63235 2.00892,-3.4237 3.954852,-6.04498 1.21098,-1.63125 2.48823,-4.00149 2.67284,-4.96008 0.19447,-1.0098 0.68905,-2.31596 0.87694,-2.31596 0.10286,0 0.39801,-0.35719 0.6559,-0.79375 0.25788,-0.43656 0.64777,-0.79375 0.86641,-0.79375 0.21864,0 0.32066,-0.12438 0.22671,-0.27639 -0.1838,-0.29741 2.90834,-3.42127 4.06709,-4.10881 0.38649,-0.22932 1.0599,-1.01604 1.49646,-1.74828 0.43656,-0.73224 1.52695,-2.09254 2.42309,-3.02289 1.47377,-1.53004 1.73122,-1.69155 2.69636,-1.69155 0.58687,0 1.14061,0.11906 1.23055,0.26458 0.0899,0.14553 0.67041,0.26459 1.28994,0.26459 2.843466,0 5.799754,1.01151 7.405198,2.53375 0.801777,0.76022 2.013553,3.09723 2.0179,3.8917 0.0039,0.71138 -0.789358,1.77663 -1.32299,1.77663 -0.259033,0 -0.751354,-0.2956 -1.09405,-0.65689 -0.788326,-0.83109 -1.232278,-0.83794 -1.541825,-0.0237 -0.240048,0.63137 -0.478316,0.95669 -1.921303,2.6233 -0.397857,0.45951 -0.725279,0.98804 -0.727605,1.17451 -0.0024,0.18647 -0.162541,0.39978 -0.356039,0.47404 -0.193498,0.0742 -0.513376,0.54676 -0.710843,1.05002 -0.197463,0.50326 -0.455863,0.91502 -0.574223,0.91502 -0.11836,0 -0.2152,0.12485 -0.2152,0.27744 0,0.1526 -0.47625,0.99445 -1.05834,1.8708 -0.58208,0.87634 -1.05833,1.71374 -1.05833,1.86089 0,0.14714 -0.9525,1.21493 -2.11667,2.37286 -1.16416,1.15792 -2.11666,2.19041 -2.11666,2.29441 0,0.10401 -1.36922,1.542 -3.04271,3.19555 -1.67349,1.65354 -3.04192,3.20091 -3.04097,3.4386 0.002,0.45268 0.55908,1.35943 1.45347,2.36506 0.77423,0.87053 1.69657,3.68596 1.709,5.21671 0.009,1.10198 -0.12798,1.49713 -0.80222,2.31511 -0.79932,0.96971 -1.86354,1.31419 -2.2297,0.72174 -0.0899,-0.14552 -0.39122,-0.26459 -0.66953,-0.26459 -0.2783,0 -1.15902,-0.28879 -1.95715,-0.64176 l -1.45115,-0.64177 -0.90486,0.71909 c -0.49767,0.3955 -1.39586,0.9405 -1.99598,1.21112 -0.600122,0.27061 -1.091122,0.57311 -1.091122,0.67221 0,0.23554 -0.84031,0.17001 -1.27646,-0.0996 -0.45937,-0.2839 -1.579,0.0219 -2.37636,0.64915 -0.75411,0.59318 -1.72766,0.61888 -2.76422,0.073 z m 1.81522,-2.01216 c 0.69284,-0.73409 0.8566,-1.24819 1.00996,-3.1707 0.15131,-1.89684 0.2488,-2.05121 1.29237,-2.0462 1.39355,0.007 1.5788,0.26816 1.40423,1.98198 -0.15916,1.56258 -2.3e-4,2.77647 0.36353,2.77647 0.31658,0 2.537732,-2.16409 3.032592,-2.95469 0.31445,-0.50236 0.3905,-0.97887 0.26391,-1.65364 -0.0978,-0.52136 -0.13481,-0.95242 -0.0822,-0.95792 0.0526,-0.006 0.56416,-0.0777 1.13686,-0.16049 1.14581,-0.1656 1.73686,0.29845 1.73686,1.36366 0,0.30958 0.18105,1.17255 0.40235,1.91771 0.49235,1.65794 1.26531,2.0694 2.05514,1.09401 0.70235,-0.86738 0.4816,-2.14924 -0.80487,-4.67368 -0.86152,-1.69058 -1.16364,-2.05926 -1.74419,-2.12847 -0.3862,-0.0461 -0.70218,-0.19488 -0.70218,-0.33073 0,-0.13586 -0.14883,-0.24883 -0.33073,-0.25106 -0.1819,-0.002 -0.49078,-0.10549 -0.68641,-0.22948 -0.64514,-0.40887 0.29211,-1.62791 3.37,-4.38321 3.25478,-2.91364 8.36135,-8.29408 8.81327,-9.28593 0.16019,-0.35158 0.50524,-0.70716 0.76677,-0.79017 0.26153,-0.083 0.41855,-0.29937 0.34893,-0.4808 -0.0696,-0.18144 0.1709,-0.60937 0.53451,-0.95096 0.36361,-0.34159 0.59821,-0.72283 0.52135,-0.8472 -0.0769,-0.12436 -0.0223,-0.22612 0.12129,-0.22612 0.14357,0 0.695,-0.71437 1.2254,-1.5875 0.53039,-0.87312 1.06677,-1.5875 1.19195,-1.5875 0.12518,0 0.302644,-0.23646 0.394373,-0.52547 0.09173,-0.28901 0.527206,-0.8859 0.967732,-1.32643 0.440526,-0.44052 1.069668,-1.30539 1.398093,-1.92192 0.476157,-0.89386 0.739346,-1.11886 1.299054,-1.11054 0.795493,0.0118 0.880295,-0.29947 0.305241,-1.12048 -1.072274,-1.53089 -4.197532,-2.34173 -6.047133,-1.56891 -0.54275,0.22677 -1.30922,0.34819 -1.70327,0.26982 -0.5966,-0.11866 -0.89352,0.0525 -1.77479,1.02276 -0.58209,0.64089 -1.29646,1.47076 -1.58751,1.84414 -0.29104,0.37339 -1.69575,1.89992 -3.12158,3.39229 -1.42583,1.49238 -2.53677,2.85846 -2.46874,3.03573 0.068,0.17727 -0.22375,0.57917 -0.64838,0.89311 -0.82108,0.60706 -1.5665,2.07383 -1.5665,3.08244 0,0.33564 -0.18355,0.7938 -0.40789,1.01814 -0.22434,0.22434 -0.54085,0.78927 -0.70334,1.25541 -0.28488,0.8172 -0.67046,1.39677 -1.55482,2.33707 -0.2294,0.24391 -0.49044,0.63463 -0.58009,0.86826 -0.0896,0.23363 -0.80737,1.2961 -1.59493,2.36104 -0.787562,1.06494 -1.464412,2.05531 -1.504122,2.20083 -0.17347,0.6358 -0.41464,1.11525 -0.98148,1.95117 l -0.60543,0.89283 0.92334,0.84575 c 1.09078,0.99911 1.24705,1.99879 0.31245,1.99879 -0.33599,0 -0.842,-0.1748 -1.12448,-0.38846 -0.28247,-0.21365 -0.72669,-0.39224 -0.98715,-0.39687 -0.75817,-0.0135 -2.51707,-1.01501 -2.67909,-1.52552 -0.21223,-0.66864 -1.61683,-1.21994 -2.60478,-1.02235 -2.38798,0.4776 -3.57061,1.55608 -3.25952,2.97246 0.15761,0.71759 0.23317,0.75509 1.34357,0.66677 0.8662,-0.0689 1.42277,0.0586 2.10987,0.48324 1.05045,0.64921 1.04176,0.63038 0.63869,1.38351 -0.26626,0.49751 -0.2352,0.53494 0.32276,0.38904 0.33955,-0.0888 0.90233,-0.0899 1.25063,-0.002 0.56485,0.14176 0.6184,0.26979 0.49564,1.18503 -0.0757,0.56436 -0.38684,1.50423 -0.69144,2.08861 -0.66818,1.28193 -0.68129,1.52514 -0.11593,2.14986 0.55236,0.61035 0.63132,0.60336 1.3103,-0.11603 z m 26.297655,-33.2006 c 0,-0.80565 0.631476,-1.90416 0.92555,-1.61008 0.09629,0.0963 -0.02331,0.47782 -0.265756,0.84784 -0.242453,0.37003 -0.369085,0.78885 -0.281408,0.93072 0.08768,0.14187 0.03841,0.33272 -0.109487,0.42413 -0.158266,0.0978 -0.268899,-0.146 -0.268899,-0.59261 z m -30.984275,31.3207 c 0.16575,-0.19971 0.26962,-0.76525 0.23084,-1.25677 -0.0561,-0.71053 0.0515,-0.94718 0.52479,-1.15484 0.90179,-0.39563 0.72173,-0.60152 -0.61936,-0.70818 -0.8903,-0.0708 -1.26953,0.0104 -1.42009,0.30409 -0.35928,0.70083 -0.25888,2.22964 0.17813,2.71254 0.50803,0.56136 0.7098,0.58018 1.10569,0.10316 z m 74.640525,-16.33573 c 0,-0.0951 -0.559993,-0.13522 -1.24443,-0.0891 -0.684438,0.0461 -1.358863,0.0132 -1.498727,-0.0733 -0.139864,-0.0864 -0.562137,-0.19252 -0.938382,-0.23573 -1.796965,-0.20639 -3.843806,-0.65112 -6.504919,-1.41337 -1.600729,-0.45852 -3.267604,-0.90154 -3.704167,-0.98451 -0.436562,-0.083 -0.912812,-0.23853 -1.058333,-0.3457 -0.145521,-0.10718 -0.56224,-0.26561 -0.926042,-0.35208 -0.363802,-0.0865 -0.770752,-0.19218 -0.904335,-0.23492 -0.133583,-0.0427 -0.265462,0.39855 -0.293066,0.98063 -0.02761,0.58208 -0.06714,1.20716 -0.08786,1.38906 -0.06063,0.53248 -1.366882,0.38021 -2.004718,-0.23369 -0.644491,-0.6203 -0.659077,-0.44458 0.392387,-4.72725 0.3999,-1.6288 1.111298,-9.03177 1.118722,-11.64166 0.006,-2.11883 -0.558173,-6.35308 -0.903711,-6.78221 -0.132823,-0.16496 -0.302789,-0.93887 -0.3777,-1.7198 -0.171125,-1.78393 -0.594731,-3.40424 -0.88999,-3.40424 -0.124134,0 -0.300408,0.29765 -0.391715,0.66146 -0.2759,1.09926 -0.753375,0.79025 -0.558766,-0.36162 0.152032,-0.89987 0.234884,-10.33869 0.143139,-16.30713 -0.01788,-1.16417 0.04865,-4.33421 0.147866,-7.04453 l 0.180403,-4.92787 h -0.694933 c -0.8504,0 -1.490311,-0.49382 -1.490311,-1.15008 0,-0.27384 -0.340831,-0.66623 -0.772673,-0.88954 -0.919224,-0.47535 -2.515775,-2.35709 -2.934748,-3.45897 -0.164219,-0.4319 -0.582277,-1.90322 -0.929018,-3.2696 -0.619636,-2.44176 -0.622803,-2.51616 -0.184761,-4.34133 0.364958,-1.52067 0.642236,-2.05308 1.530934,-2.93963 0.596892,-0.59544 1.359437,-1.48091 1.694545,-1.9677 0.397227,-0.57703 1.209345,-1.16282 2.333379,-1.68308 1.90182,-0.88027 2.924125,-0.89615 4.660088,-0.0724 1.56773,0.74394 1.728092,1.45525 1.612186,7.15114 -0.05514,2.70987 -0.218358,5.06572 -0.363032,5.24004 -0.144566,0.1742 -0.309701,0.6114 -0.366964,0.97158 -0.05726,0.36018 -0.422627,1.35545 -0.811919,2.21172 -0.642311,1.41281 -0.731653,2.01258 -0.965592,6.48229 -0.141782,2.70899 -0.258151,8.25919 -0.258593,12.33377 -5.29e-4,4.07458 -0.05144,7.73032 -0.113318,8.12385 -0.06902,0.43896 0.06726,0.92279 0.352612,1.25181 0.32239,0.37171 0.517639,1.20767 0.636244,2.72407 0.09412,1.20327 0.237778,2.48543 0.319254,2.84923 0.08148,0.3638 0.19345,1.01864 0.248833,1.45521 0.05538,0.43656 0.334031,1.68805 0.61922,2.78109 0.285187,1.09304 0.605496,3.44452 0.711793,5.22552 0.147616,2.47322 0.278995,3.23818 0.556151,3.23818 0.199583,0 0.362879,-0.1786 0.362879,-0.39688 0,-0.5202 0.165021,-0.50156 1.194972,0.13498 0.828585,0.5121 1.070568,0.52219 6.513521,0.27167 3.109132,-0.14311 7.141247,-0.49264 8.960257,-0.77675 1.81901,-0.2841 4.081198,-0.58597 5.027083,-0.67082 3.191185,-0.28625 4.356849,-0.44679 6.879167,-0.94742 3.726302,-0.7396 4.25836,-0.78558 12.170833,-1.05183 5.8213422,-0.19589 7.7160312,-0.35292 9.47675917,-0.78542 3.23945503,-0.79573 3.22324103,-0.78165 3.22324103,-2.7983 0,-1.71199 -0.146452,-1.98736 -0.740833,-1.39298 -0.174625,0.17462 -0.317773,0.20439 -0.318109,0.0661 -2.64e-4,-0.13824 -1.04213,-0.26042 -2.31510403,-0.2715 -1.272971,-0.0111 -2.65189197,-0.10515 -3.06426897,-0.20904 -0.5491612,-0.13835 -0.6975082,-0.10433 -0.5544322,0.12717 0.1337312,0.21638 0.08217,0.24613 -0.163462,0.0943 -0.197342,-0.12196 -0.821439,-0.19446 -1.386877,-0.16109 -0.660717,0.039 -0.966978,-0.0382 -0.857089,-0.216 0.229725,-0.3717 0.105178,-0.35085 -0.9003,0.15075 -0.554122,0.27643 -0.947528,0.33666 -1.113684,0.17051 -0.147278,-0.14728 -0.702268,-0.17548 -1.300544,-0.0661 -0.573995,0.10496 -1.04363,0.0878 -1.04363,-0.0382 0,-0.39308 -0.859473,-0.25084 -1.413708,0.23397 -0.291135,0.25466 -0.442312,0.31419 -0.33595,0.13229 0.258617,-0.44229 -0.144663,-0.41936 -0.778711,0.0443 -0.361945,0.26466 -0.610372,0.29405 -0.84432,0.0999 -0.233873,-0.1941 -0.331478,-0.18276 -0.331478,0.0385 0,0.17249 -0.208359,0.29242 -0.46302,0.26651 -0.910051,-0.0926 -1.180497,0.0154 -1.028798,0.41071 0.177117,0.46156 -0.751639,0.5693 -1.029663,0.11945 -0.106794,-0.1728 -0.287314,-0.18534 -0.478637,-0.0333 -0.168944,0.13429 -0.575064,0.20035 -0.902486,0.1468 -0.327422,-0.0536 -0.595312,0.0299 -0.595312,0.18549 0,0.15557 -0.327494,0.24851 -0.727763,0.20652 -0.40027,-0.042 -0.846754,-0.007 -0.992188,0.0783 -0.145433,0.085 -1.633643,0.17466 -3.307133,0.19914 -1.673489,0.0245 -4.084505,0.0777 -5.357812,0.11829 -1.322208,0.0421 -2.315104,-0.033 -2.315104,-0.17515 0,-0.13691 -0.173429,-0.10499 -0.3854,0.0709 -0.284639,0.23623 -1.235787,0.26872 -3.638021,0.12426 -1.788941,-0.10758 -3.818168,-0.20717 -4.509392,-0.22131 -0.691224,-0.0141 -1.256771,-0.11501 -1.256771,-0.22415 0,-0.10915 -0.238125,-0.19844 -0.529166,-0.19844 -0.291042,0 -0.529405,0.0893 -0.529694,0.19844 -7.93e-4,0.32218 -3.176635,0.3495 -4.894265,0.0421 -1.802979,-0.32267 -3.495471,-1.21653 -3.083507,-1.62849 0.292121,-0.29212 1.741906,-0.28865 3.337274,0.008 0.576136,0.10713 2.064417,0.1154 3.307292,0.0184 1.242878,-0.097 2.855087,-0.12196 3.582691,-0.0554 4.34571,0.3974 7.198895,0.51185 8.534556,0.34234 0.835787,-0.10607 3.917395,-0.25619 6.848018,-0.33361 5.166812,-0.13649 7.131277,-0.38132 11.604926,-1.44629 1.466448,-0.3491 3.256894,-0.44379 8.598959,-0.45481 3.71078117,-0.008 6.8957032,-0.10663 7.0776042,-0.21997 0.235834,-0.14693 0.330729,-1.15103 0.330729,-3.49948 0,-2.8378 0.414496,-6.85286 0.940554,-9.11076 0.08476,-0.36381 0.184129,-2.03729 0.220816,-3.71885 0.03669,-1.68157 0.157827,-3.20483 0.269195,-3.38503 0.111371,-0.1802 0.08407,-0.47125 -0.06068,-0.64678 -0.14474,-0.17552 -0.280387,-1.27164 -0.301434,-2.4358 -0.07762,-4.29331 -0.284861,-7.98958 -0.556292,-9.92188 -0.15331,-1.0914 -0.42677,-3.35359 -0.60769,-5.02708 -0.180919,-1.67349 -0.492514,-3.29829 -0.692433,-3.61066 -0.328676,-0.51356 -0.294087,-0.62766 0.361125,-1.19125 0.636682,-0.54765 0.736668,-0.84796 0.823944,-2.47475 0.05463,-1.01831 0.177546,-2.40863 0.273145,-3.0896 l 0.173815,-1.23813 -0.885055,-0.0848 -0.885055,-0.0848 -0.01312,-2.24896 c -0.02331,-3.99638 -0.01717,-3.96875 -0.880528,-3.96875 -0.84985203,0 -1.47690103,-0.59498 -1.50849503,-1.43134 -0.01148,-0.30417 -0.04125,-1.15535 -0.06615,-1.89153 -0.06896,-2.03949 -0.270674,-2.17595 -3.48483817,-2.35748 -1.527968,-0.0863 -3.254375,-0.26943 -3.836458,-0.40697 -1.532366,-0.36206 -2.495815,-0.3182 -2.948215,0.1342 -0.218281,0.21828 -0.268965,0.39687 -0.112631,0.39687 0.156335,0 -0.187859,0.42652 -0.764878,0.94782 -0.577017,0.5213 -1.14422,0.88905 -1.260451,0.81721 -0.283663,-0.17531 -1.272421,0.56353 -1.050772,0.78518 0.359746,0.35974 -1.254839,1.44574 -1.99899,1.34455 -0.400183,-0.0544 -0.727605,-0.004 -0.727605,0.11151 0,0.11575 -0.178593,0.14192 -0.396875,0.0582 -0.218281,-0.0838 -0.396875,-0.043 -0.396875,0.0906 0,0.7072 -6.892573,1.24522 -9.803558,0.76524 -0.501637,-0.0827 -2.276655,-0.21432 -3.944485,-0.29247 -1.667831,-0.0782 -3.471498,-0.27364 -4.008149,-0.43443 -0.889202,-0.26641 -1.060223,-0.22788 -1.928519,0.4344 -0.524034,0.3997 -0.952789,0.84491 -0.952789,0.98935 0,0.15633 -0.370977,0.19303 -0.916567,0.0907 -0.675597,-0.12675 -1.214683,-0.0192 -2.05052,0.40925 -1.426226,0.73101 -4.370909,0.95402 -6.819371,0.51646 -2.24781,-0.40171 -3.625168,0.0353 -3.864298,1.22615 -0.08166,0.40662 -0.322559,0.97687 -0.535342,1.2672 -0.314121,0.4286 -0.42958,0.45878 -0.613934,0.16049 -0.131456,-0.2127 -0.457377,-0.30715 -0.774099,-0.22432 -0.59816,0.15642 -1.018654,-0.58513 -0.674378,-1.18929 1.694664,-2.97392 2.086626,-3.22488 4.832665,-3.0942 2.716543,0.12928 6.232043,-0.056 6.777659,-0.35718 0.295428,-0.16308 1.191987,-0.43329 1.992352,-0.60046 1.599528,-0.33409 1.564084,-0.24138 0.955334,-2.49896 -0.46976,-1.74212 -0.828924,-3.62839 -1.234297,-6.48229 -0.16536,-1.16417 -0.632296,-2.95011 -1.037633,-3.96875 -1.911437,-4.80359 -2.358189,-6.19647 -2.461006,-7.67292 -0.125113,-1.79669 -0.584176,-4.19307 -1.140407,-5.95313 -0.206952,-0.65484 -0.375687,-1.575156 -0.374967,-2.045156 7.93e-4,-0.47 -0.160224,-1.30344 -0.357654,-1.85208 -0.697042,-1.93705 -0.963953,-2.89342 -0.963953,-3.45393 0,-0.31171 -0.236387,-1.16646 -0.525307,-1.89945 -0.37997,-0.964 -0.434872,-1.34106 -0.198437,-1.36291 1.192315,-0.11015 5.575136,0.0755 6.072269,0.25724 0.986592,0.36064 3.857258,0.1002 6.55125,-0.59436 3.28394,-0.84666 6.218621,-1.31215 7.013972,-1.11252 0.349099,0.0876 1.673548,-0.0829 2.94322,-0.37897 1.269669,-0.29605 2.913684,-0.59938 3.653367,-0.67408 0.739679,-0.0747 1.64253,-0.24044 2.006332,-0.36832 0.363802,-0.12788 1.852084,-0.29958 3.307292,-0.38157 3.044089,-0.1715 3.546046,0.0318 3.600154,1.45773 0.03743,0.9864 -0.220115,4.56578 -0.43959,6.10948 -0.07641,0.53743 -0.0098,2.24671 0.148053,3.7984 0.394251,3.875826 0.571677,10.949996 0.298538,11.903006 -0.278572,0.97197 0.03426,4.59139 0.637804,7.37921 0.365705,1.68924 0.390829,2.19859 0.129117,2.61766 -0.308782,0.49443 -0.270055,0.51153 0.778819,0.34381 0.822175,-0.13147 1.053968,-0.0959 0.90859,0.13929 -0.132093,0.21373 -0.05611,0.26242 0.235098,0.15068 0.236646,-0.0908 1.297975,0.0161 2.358507,0.23752 2.108562,0.44028 7.25509217,0.5745 10.0458852,0.26198 2.065885,-0.23133 2.862567,0.0582 2.862567,1.04019 0,0.4033 -0.151443,0.65215 -0.396875,0.65215 -0.488651,0 -0.501666,-0.13874 0.149262,1.59124 0.300376,0.79831 0.760822,2.10632 1.023218,2.90668 0.565052,1.72355 0.872574,5.81874 0.437411,5.82489 -0.183845,0.003 -0.174424,0.0756 0.02622,0.20321 0.240368,0.15285 0.231547,0.82393 -0.03793,2.88597 -0.193117,1.47775 -0.438701,2.82852 -0.545743,3.00172 -0.107043,0.17319 -0.179351,0.9773 -0.160687,1.78689 0.02217,0.96224 -0.114946,1.69921 -0.395978,2.12812 -0.358246,0.54675 -0.398968,1.07925 -0.24429,3.19444 0.102092,1.39606 0.308105,3.13362 0.457806,3.86122 0.149701,0.7276 0.30203,1.50151 0.338505,1.71979 0.03648,0.21828 0.159232,0.73728 0.272788,1.15333 0.113557,0.41604 0.237099,3.03542 0.274535,5.82083 0.03744,2.78541 0.07877,5.30251 0.09184,5.59355 0.108387,2.41203 -0.316957,9.69636 -0.6561,11.23619 -0.133924,0.60806 -0.282533,2.81942 -0.459983,6.84469 l -0.07391,1.67671 0.803275,-0.16066 c 0.441803,-0.0884 1.229354,-0.45593 1.750112,-0.81681 1.131999,-0.78448 1.9085878,-0.875 1.656959,-0.19314 -0.272119,0.73737 -2.098294,2.45939 -2.739001,2.58278 -0.881203,0.1697 -1.103527,0.57528 -1.062781,1.93877 0.025,0.8364 0.222112,1.10084 0.820565,1.10084 0.277334,0 0.638757,0.25134 0.803159,0.55853 0.257715,0.48154 0.171812,0.69126 -0.623181,1.52136 l -0.9221,0.96282 0.08049,3.70417 c 0.04427,2.03729 0.184627,4.12089 0.31191,4.63021 0.216379,0.86584 0.313658,0.93556 1.496478,1.07254 0.695777,0.0806 1.373997,0.3187 1.507154,0.52917 0.360148,0.56925 0.301257,0.78252 -0.166521,0.60302 -0.302083,-0.11592 -0.393065,-0.0226 -0.330729,0.33903 0.108243,0.62804 0.01251,0.63836 -6.925464,0.74658 -2.98317703,0.0465 -5.6025522,0.14039 -5.8208332,0.20856 -0.218281,0.0682 -0.732047,0.26131 -1.141704,0.42919 -0.409654,0.16788 -0.891857,0.30524 -1.071562,0.30524 -0.179702,0 -0.469609,0.14288 -0.644234,0.3175 -0.174625,0.17463 -0.3175,0.21958 -0.3175,0.0999 0,-0.11969 -0.148828,-0.10039 -0.330729,0.0429 -0.342318,0.26963 -1.712788,0.66158 -1.876375,0.53664 -0.05105,-0.039 -0.259942,0.0615 -0.464211,0.22336 -0.411906,0.32634 -1.625267,0.68645 -2.580347,0.76581 -0.341799,0.0284 -0.698987,0.17262 -0.79375,0.32047 -0.09476,0.14786 -0.946203,0.54207 -1.892088,0.87603 -0.945885,0.33395 -1.832901,0.70699 -1.971146,0.82896 -0.138245,0.12198 -0.51817,0.22177 -0.84428,0.22177 -0.32611,0 -0.666782,0.1195 -0.75705,0.26556 -0.09027,0.14605 -0.45448,0.19268 -0.809365,0.10361 -0.354883,-0.0891 -0.645242,-0.0518 -0.645242,0.0828 0,0.20432 -1.779598,0.60356 -5.55625,1.24649 -0.363802,0.0619 -1.256771,0.24325 -1.984375,0.40291 -1.462707,0.32099 -7.805209,0.52396 -7.805209,0.24979 z m 10.412466,-2.59157 c 3.989088,-0.77843 9.299202,-2.37248 11.916008,-3.57707 2.687825,-1.23728 7.367352,-2.84639 8.972139,-3.08516 0.9020072,-0.13421 3.09852817,-0.24571 4.88115817,-0.24778 2.38786703,-0.003 3.24061903,-0.0895 3.23914803,-0.32927 -0.0011,-0.17904 -0.132998,-1.09942 -0.293105,-2.04531 -0.160107,-0.94588 -0.308036,-2.77958 -0.328729,-4.07489 -0.03237,-2.02582 -0.102542,-2.36476 -0.501907,-2.42417 -0.255354,-0.038 -0.399314,0.0361 -0.319907,0.16453 0.211441,0.34213 -1.085493,0.60155 -2.14652003,0.42937 -0.63577,-0.10317 -0.861825,-0.0587 -0.735983,0.14497 0.115387,0.1867 0.0305,0.23588 -0.232789,0.13485 -0.227925,-0.0875 -0.49367,-0.0798 -0.590542,0.0171 -0.25056797,0.25057 -4.62634317,0.24702 -4.47143417,-0.004 0.07048,-0.11405 -0.14654,-0.10669 -0.482278,0.0163 -0.335737,0.12305 -1.354574,0.203 -2.264079,0.17766 -0.909505,-0.0253 -1.653646,0.0522 -1.653646,0.17236 0,0.35262 -1.268134,0.25016 -1.390134,-0.11232 -0.08666,-0.25748 -0.209224,-0.2499 -0.553452,0.0343 -0.283909,0.23436 -0.772751,0.31133 -1.365944,0.21507 -0.508092,-0.0825 -0.923803,-0.0438 -0.923803,0.0859 0,0.12971 -0.43847,0.1797 -0.974376,0.11109 -0.535908,-0.0686 -1.38349,0.0103 -1.883521,0.17529 -0.691875,0.22834 -0.955675,0.22476 -1.103842,-0.015 -0.144317,-0.23351 -0.302455,-0.20728 -0.611121,0.10139 -0.229034,0.22904 -0.692822,0.41891 -1.030637,0.42194 -0.337817,0.003 -1.355338,0.16083 -2.261158,0.35066 -1.125077,0.23578 -1.73291,0.25918 -1.918229,0.0739 -0.185322,-0.18533 -0.271283,-0.17653 -0.271283,0.0277 0,0.20646 -0.245734,0.22856 -0.79375,0.0714 -0.521422,-0.14954 -0.79375,-0.13262 -0.79375,0.0493 0,0.15233 -0.238125,0.2147 -0.529166,0.13859 -0.291042,-0.0761 -0.529167,-0.0305 -0.529167,0.10143 0,0.1319 -0.304684,0.23981 -0.677074,0.23981 -0.384006,0 -0.606293,-0.11452 -0.513551,-0.26458 0.18383,-0.29744 -0.209426,-0.36384 -0.490458,-0.0828 -0.09998,0.1 -0.387715,0.19898 -0.639411,0.22002 -0.251698,0.021 -0.993412,0.0989 -1.648256,0.1731 -0.654844,0.0742 -0.9525,0.0794 -0.661458,0.0116 l 0.529166,-0.12327 -0.529166,-0.20001 c -0.336405,-0.12715 -0.689396,-0.0596 -0.969029,0.18531 -0.241924,0.21193 -0.956299,0.44331 -1.5875,0.51418 -0.6312,0.0709 -1.623888,0.23754 -2.205971,0.37036 -1.341425,0.30609 -2.046267,0.30068 -1.322917,-0.0102 0.426765,-0.18339 0.443222,-0.23099 0.08505,-0.24599 -0.244269,-0.0102 -0.601456,0.13023 -0.79375,0.31213 -0.439788,0.41602 -8.463314,0.55436 -9.855594,0.16993 -0.521687,-0.14404 -1.189805,-0.52088 -1.48471,-0.83743 -0.394964,-0.42394 -0.643694,-0.50765 -0.944348,-0.31781 -0.330742,0.20883 -0.423288,0.9854 -0.487913,4.09417 -0.04386,2.11005 -0.205814,4.15156 -0.359888,4.53668 -0.442421,1.10588 0.0595,1.44101 3.518439,2.34923 1.744067,0.45795 3.234865,0.87208 3.312883,0.9203 0.07802,0.0482 0.675116,0.16718 1.326885,0.26436 0.651769,0.0972 1.304097,0.27339 1.449618,0.39158 0.228129,0.18528 2.776564,0.63761 4.894791,0.86879 2.612443,0.28511 8.259895,-0.11026 11.999966,-0.8401 z M 6.3056502,172.24341 c -0.08146,-0.0815 -0.229407,0.0654 -0.328766,0.32632 -0.143584,0.37708 -0.113194,0.40747 0.148113,0.14811 0.180822,-0.17948 0.262115,-0.39297 0.180653,-0.47443 z M -55.820335,151.97856 c 0,-0.14552 -0.119062,-0.191 -0.264583,-0.10107 -0.145521,0.0899 -0.264583,0.28259 -0.264583,0.42811 0,0.14552 0.119062,0.191 0.264583,0.10106 0.145521,-0.0899 0.264583,-0.28258 0.264583,-0.4281 z m 0.100934,-1.81901 c 1.283586,-0.97139 1.56175,-1.37734 2.130829,-3.10977 0.67287,-2.04841 1.054963,-9.57712 0.564481,-11.12249 -0.09381,-0.29556 -0.335735,-0.60075 -0.53762,-0.67823 -0.866984,-0.33269 -4.041532,1.14925 -3.687829,1.72155 0.07564,0.12238 -0.02818,0.22251 -0.23069,0.22251 -0.828548,0 -2.760197,3.03355 -2.99212,4.69897 -0.145807,1.04701 0.624673,4.80137 1.365128,6.65195 0.386792,0.96669 1.708185,2.41966 2.18271,2.40005 0.09798,-0.004 0.640275,-0.35709 1.205111,-0.78454 z m 33.654732,-22.84583 c 0.884838,-0.0635 2.544787,-0.39651 3.688779,-0.74011 1.666502,-0.50055 2.357678,-0.87854 3.476905,-1.90145 l 1.396926,-1.27671 -0.653931,-0.70523 c -0.764741,-0.82474 -0.785172,-0.9338 -0.257053,-1.3721 0.474999,-0.39422 0.519443,-2.26452 0.11317,-4.7625 -0.289634,-1.78082 -0.567856,-11.67184 -0.615151,-21.869026 -0.01495,-3.22395 -0.08672,-5.77945 -0.159477,-5.67889 -0.07276,0.10056 -0.761939,0.20757 -1.531509,0.2378 -0.769573,0.0302 -1.749259,0.23596 -2.177084,0.4572 -0.502936,0.26007 -1.166826,0.35337 -1.878373,0.26397 -0.605279,-0.076 -1.247055,-0.0166 -1.42617,0.13201 -0.179112,0.14865 -0.787792,0.2984 -1.352616,0.33279 -0.564827,0.0344 -1.089113,0.14473 -1.16508,0.24521 -0.07597,0.10048 -0.790342,0.20743 -1.5875,0.23766 -0.797158,0.0302 -1.747033,0.20812 -2.110835,0.39531 -0.363802,0.18717 -0.993749,0.41118 -1.399884,0.49778 -0.406133,0.0866 -0.66784,0.27166 -0.58157,0.41125 0.08627,0.13959 -0.01257,0.18878 -0.21962,0.10933 -0.20706,-0.0795 -0.44337,0.0299 -0.525134,0.24293 -0.106673,0.27798 -0.43392,0.35391 -1.158621,0.26882 -0.55548,-0.0652 -2.438713,-0.12016 -4.184963,-0.1221 -1.74625,-0.002 -4.156855,-0.1728 -5.356902,-0.3797 -1.459479,-0.25163 -2.397855,-0.29408 -2.834135,-0.12821 -0.60412,0.22969 -0.630629,0.31218 -0.359394,1.11828 0.161057,0.47866 0.411589,1.022 0.556731,1.20742 0.145145,0.18542 0.200949,0.40007 0.124008,0.47701 -0.07694,0.0769 0.03451,0.69914 0.247668,1.38267 0.213157,0.68353 0.441974,1.59997 0.508484,2.03653 0.06651,0.43656 0.294257,1.34877 0.506101,2.027126 0.211846,0.67835 0.45358,1.69038 0.537183,2.24895 0.08361,0.55857 0.275514,1.49067 0.426464,2.07132 0.150947,0.58065 0.319196,1.41409 0.373882,1.85208 0.145053,1.16172 1.359435,5.2519 2.239603,7.54323 1.223751,3.18577 2.169025,6.8792 1.856883,7.25531 -0.329629,0.39718 0.384961,3.52814 0.93857,4.11232 0.321429,0.33919 0.367146,0.33369 0.367146,-0.0441 0,-0.23733 -0.148828,-0.49157 -0.330729,-0.56497 -0.181901,-0.0734 0.178234,-0.14285 0.800298,-0.15434 0.987063,-0.0182 1.16473,0.0677 1.395802,0.67552 0.145624,0.38302 0.197104,0.90961 0.114398,1.17019 -0.139206,0.43859 0.09247,0.47228 3.118916,0.45346 1.798108,-0.0112 3.461081,0.0873 3.695491,0.21887 0.420814,0.23617 2.246593,0.24197 5.382323,0.0171 z m -8.58275,-19.43803 c -1.142642,-0.0653 -1.443804,-0.18076 -1.552212,-0.59531 -0.130694,-0.49977 -0.431229,-0.60633 -1.527995,-0.54177 -0.689142,0.0406 -1.573419,-1.63857 -1.215306,-2.30771 0.212961,-0.39792 0.5186,-0.43179 2.449108,-0.27142 3.761883,0.31249 6.281264,0.24721 7.853601,-0.20351 0.822761,-0.23585 1.618691,-0.52645 1.768731,-0.64578 0.15004,-0.11933 0.606846,-0.27754 1.015125,-0.35157 0.408275,-0.074 0.880827,-0.24473 1.050115,-0.37931 0.414036,-0.32918 2.027584,-0.54035 2.027584,-0.26537 0,0.12032 0.224613,0.21876 0.499136,0.21876 0.683803,0 0.892736,1.42703 0.307698,2.10158 -1.093806,1.26117 -4.001633,2.17722 -7.090688,2.23377 -0.909505,0.0166 -1.653646,0.11957 -1.653646,0.22871 0,0.10914 -0.267891,0.19917 -0.595312,0.20007 -0.327422,7.9e-4 -0.892969,0.14973 -1.256771,0.33073 -0.363802,0.181 -1.299427,0.29266 -2.079168,0.24813 z m -20.145832,24.14244 c 0,-0.22687 0.121004,-0.33771 0.268898,-0.2463 0.147894,0.0914 0.200401,0.27702 0.116676,0.41249 -0.226808,0.36699 -0.385574,0.29856 -0.385574,-0.16619 z m 88.329685,-21.40378 c -0.05013,-0.0452 -1.043644,-0.15859 -2.20781,-0.25191 -1.164167,-0.0933 -2.156354,-0.28586 -2.204861,-0.42784 -0.04851,-0.14198 -0.204361,-0.25815 -0.346344,-0.25815 -0.141984,0 -0.189019,0.11186 -0.104524,0.24857 0.17372,0.28109 -0.007,0.29799 -2.76823,0.25884 -3.138482,-0.0445 -5.641398,-0.35535 -6.217708,-0.77222 -0.145521,-0.10527 -0.605145,-0.2729 -1.021385,-0.37253 -1.113358,-0.26649 -3.046624,-1.1978 -4.402574,-2.12084 -2.581701,-1.75747 -6.576044,-3.81694 -7.124681,-3.67347 -0.30153,0.0789 -0.548235,0.23993 -0.548235,0.35795 0,0.11802 -0.7986838,0.59194 -1.7748568,1.05316 -1.385019,0.65439 -1.980686,0.8022 -2.711979,0.67299 -0.515416,-0.0911 -1.499637,-0.21884 -2.187154,-0.28393 -0.737915,-0.0699 -2.117545,-0.55451 -3.36756403,-1.18301 -2.13738097,-1.07466 -3.34153397,-1.29981 -4.18339117,-0.7822 -0.340283,0.20922 -0.71674,0.17399 -1.451617,-0.13584 -1.026155,-0.43264 -1.264233,-0.8526 -0.622869,-1.09871 0.2677,-0.10273 0.329509,-0.43854 0.224634,-1.22045 l -0.144688,-1.078716 1.92336,0.18952 c 1.8543162,0.18272 1.9578532,0.16208 2.88422317,-0.57498 0.528473,-0.42048 1.16922,-0.84206 1.423881,-0.93685 0.254662,-0.0948 0.46302103,-0.29514 0.46302103,-0.44523 0,-0.15008 0.15784,-0.27288 0.350755,-0.27288 0.643787,0 1.501294,-1.21369 1.695286,-2.39945 0.394706,-2.41261 0.266235,-2.85621 -2.00012,-6.90628 -3.120133,-5.5758 -3.057461,-5.38933 -3.06225,-9.11143 -0.0033,-2.59696 0.08261,-3.33599 0.453869,-3.90261 0.251896,-0.38444 0.39266,-0.69898 0.312806,-0.69898 -0.07985,0 0.03473,-0.34793 0.25463697,-0.77318 0.444561,-0.85968 0.928487,-2.26985 1.596007,-4.65078 0.44860903,-1.60012 1.15638003,-3.32729 1.46370703,-3.57188 0.09142,-0.0728 0.450426,-0.84666 0.797784,-1.71979 0.347359,-0.87312 0.784776,-1.82235 0.97204,-2.10939 0.187264,-0.28704 0.340479,-0.71579 0.340479,-0.95278 0,-1.239133 3.226853,-5.536788 4.157242,-5.536788 0.18737,0 0.340675,-0.118027 0.340675,-0.262282 0,-0.445516 1.6379498,-1.854385 2.1559058,-1.854385 0.26946,0 0.489927,-0.135175 0.489927,-0.300389 0,-0.335334 1.237017,-1.56075 1.531379,-1.51702 0.491792,0.07306 0.849871,-0.06099 0.849871,-0.318157 0,-0.798312 3.078742,-2.756783 5.42078,-3.448304 0.65659,-0.193869 1.193803,-0.452584 1.193803,-0.574924 0,-0.12234 0.09874,-0.161413 0.219416,-0.08683 0.120677,0.07458 0.765911,-0.02887 1.433852,-0.229886 0.66794,-0.20102 1.730062,-0.416756 2.360271,-0.479412 0.630211,-0.06266 1.32443,-0.177327 1.542711,-0.254824 2.361949,-0.838563 4.970042,-0.961061 13.229167,-0.621353 2.692135,0.110731 5.108964,0.198582 5.370732,0.195226 0.368398,-0.0047 0.435703,0.124918 0.29786,0.573739 -0.236024,0.768518 -0.248973,0.77828 -1.032184,0.77828 -0.372521,0 -0.731772,0.08813 -0.798341,0.195833 -0.06657,0.107708 -0.448254,0.159913 -0.848193,0.116011 -0.399939,-0.0439 -0.879084,0.04626 -1.064768,0.200366 -0.253156,0.2101 -0.339077,0.156262 -0.34349,-0.21523 -0.0055,-0.464295 -0.0346,-0.460974 -0.463021,0.05286 -0.40037,0.480199 -0.726443,0.543172 -2.62585,0.50712 -2.137626,-0.04057 -3.176963,-0.407616 -2.814576,-0.99397 0.09887,-0.159984 0.04219,-0.196333 -0.135205,-0.0867 -0.168005,0.103833 -0.305464,0.360354 -0.305464,0.570047 0,0.439904 -0.679585,0.515452 -0.933982,0.103829 -0.117213,-0.189655 -0.289576,-0.179405 -0.544782,0.0324 -0.298585,0.247803 -0.374931,0.21065 -0.381365,-0.18559 -0.0071,-0.440341 -0.0361,-0.447391 -0.260374,-0.06341 -0.23721,0.406118 -2.024687,0.801535 -4.097206,0.906363 -1.108411,0.05606 -5.125669,0.892652 -5.650997,1.176813 -0.238929,0.129242 -1.089263,0.470752 -1.889628,0.758911 -0.800364,0.288158 -1.931098,0.759911 -2.51274,1.048341 -0.581644,0.288429 -1.121685,0.420617 -1.200091,0.293751 -0.212424,-0.34371 -1.314252,0.01968 -1.314252,0.433451 0,0.210457 -0.16461,0.294544 -0.399875,0.204265 -0.285705,-0.109635 -0.353333,-0.03216 -0.236861,0.271368 0.08966,0.233648 0.299371,0.348499 0.466022,0.255226 0.166653,-0.09327 0.139295,-0.0033 -0.0608,0.199958 -0.29055,0.295135 -0.388951,0.30076 -0.488696,0.02793 -0.08838,-0.241736 -0.272095,-0.171885 -0.628386,0.238922 -0.276921,0.319291 -0.503491,0.681375 -0.503491,0.80463 0,0.123254 -0.174858,0.224099 -0.388573,0.224099 -0.236693,0 -0.329043,-0.155122 -0.236275,-0.396875 0.08376,-0.218281 0.03507,-0.396875 -0.108199,-0.396875 -0.277611,0 -0.751578,0.488711 -0.898099,0.926042 -0.04875,0.14552 -0.177943,0.234817 -0.287083,0.198437 -0.109141,-0.03638 -0.198438,0.06142 -0.198438,0.217337 0,0.444844 -0.760016,1.091512 -1.06286,0.904345 -0.150241,-0.09286 -0.240451,-0.02169 -0.200467,0.158146 0.03999,0.179835 -0.197189,0.397044 -0.5270578,0.482687 -0.329866,0.08564 -0.776351,0.496746 -0.992187,0.913562 -0.464664,0.897348 -0.473247,0.961944 -0.127844,0.961944 0.145521,0 0.264583,-0.15875 0.264583,-0.352778 0,-0.194028 0.183716,-0.352778 0.40826,-0.352778 0.243314,0 0.350213,0.151275 0.264583,0.374418 -0.07902,0.205929 -0.143676,0.424211 -0.143676,0.485069 0,0.06086 -0.185621,0.110652 -0.412491,0.110652 -0.22687,0 -0.34399,0.110836 -0.260268,0.246301 0.08372,0.135466 0.03122,0.321086 -0.116676,0.41249 -0.147894,0.0914 -0.268899,-0.01943 -0.268899,-0.246301 0,-0.226869 -0.208359,-0.40309 -0.463021,-0.391602 -0.254661,0.01149 -0.32549,0.07718 -0.157395,0.145973 0.616249,0.252215 -0.656764,3.537311 -1.370753,3.537311 -0.214546,0 -0.390081,0.1318 -0.390081,0.29289 0,0.16109 0.178594,0.22435 0.396875,0.14059 0.218282,-0.0838 0.396875,-0.088 0.396875,-0.009 0,0.0786 -0.178593,0.32148 -0.396875,0.53976 -0.39089,0.39089 -0.556575,1.41741 -0.228777,1.41741 0.09245,0 0.443955,-0.29765 0.781116,-0.66145 0.337161,-0.36381 0.725027,-0.66146 0.861928,-0.66146 0.136901,0 0.329684,-0.20836 0.428405,-0.46302 0.16636,-0.42914 0.208659,-0.4243 0.577999,0.0661 0.376547,0.50001 0.393726,0.50152 0.311832,0.0275 -0.04767,-0.27595 0.07218,-0.5571 0.266325,-0.62479 0.243088,-0.0847 0.325466,0.0715 0.264583,0.50172 -0.05848,0.41325 -0.291293,0.65358 -0.687647,0.70985 -0.329581,0.0468 -0.52596,0.20362 -0.436401,0.34853 0.08956,0.14492 -0.08727,0.32888 -0.392949,0.40882 -0.316478,0.0828 -0.555789,0.3599 -0.555789,0.64365 0,0.27407 -0.115326,0.49831 -0.25628,0.49831 -0.140952,0 -0.192905,-0.20836 -0.115449,-0.46302 0.07746,-0.25466 -0.06374,-0.10583 -0.313766,0.33073 -0.250026,0.43656 -0.676318,0.95072 -0.947309,1.14258 -0.270994,0.19186 -0.433999,0.44384 -0.362236,0.55995 0.07176,0.11612 -0.104839,0.42408 -0.392449,0.68436 -0.28761,0.26029 -0.522927,0.59613 -0.522927,0.74632 0,0.1502 0.372866,-0.0766 0.82859,-0.50402 l 0.82859,-0.77711 -0.630152,1.12449 c -0.346583,0.61846 -0.772917,1.07101 -0.947407,1.00566 -0.189445,-0.0709 -0.257985,0.0356 -0.17013,0.26458 0.08092,0.21087 0.01532,0.3834 -0.145767,0.3834 -0.161091,0 -0.292891,-0.14152 -0.292891,-0.31448 0,-0.17296 -0.216741,-0.0818 -0.481645,0.20252 -0.566719,0.6083 -1.16283,2.18697 -0.953624,2.52547 0.08024,0.12983 -0.01894,0.29931 -0.220438,0.37663 -0.242673,0.0931 -0.325734,0.4172 -0.24606,0.96005 0.08451,0.57576 -0.0088,0.89169 -0.313645,1.06231 -0.360582,0.20179 -0.379994,0.34106 -0.114855,0.82402 0.175487,0.31965 0.285062,0.86245 0.243504,1.20622 -0.05528,0.45723 0.01937,0.57112 0.277995,0.42421 0.284697,-0.16172 0.289144,-0.13144 0.02283,0.15548 -0.181901,0.19597 -0.330729,0.60482 -0.330729,0.90855 0,0.36257 -0.181753,0.56593 -0.529167,0.5921 -0.392038,0.0295 -0.529166,-0.12324 -0.529166,-0.58954 0,-0.34617 -0.11049003,-0.69768 -0.24553403,-0.78114 -0.425161,-0.26277 -0.596183,0.86183 -0.513514,3.37677 0.07849,2.38777 0.364747,3.46972 0.84025103,3.17585 0.131932,-0.0815 0.07833,-0.25061 -0.119102,-0.37571 -0.27964103,-0.17719 -0.25664603,-0.22836 0.104044,-0.23151 0.254662,-0.002 0.47633,0.14477 0.492596,0.32668 0.139634,1.56141 0.280776,2.19844 0.539584,2.43534 0.215783,0.19751 0.248817,0.18204 0.115501,-0.0541 -0.11588,-0.20525 -0.02429,-0.33073 0.241382,-0.33073 0.235458,0 0.359606,0.11083 0.275884,0.2463 -0.08373,0.13546 -0.02757,0.32334 0.124793,0.4175 0.162698,0.10056 0.206923,0.54486 0.107162,1.07662 -0.114237,0.60894 -0.06916,0.90541 0.137676,0.90541 0.16914,0 0.478242,0.40858 0.686895,0.90795 0.20865,0.49937 0.500232,0.98265 0.647957,1.07395 0.147724,0.0913 0.268591,0.40084 0.268591,0.68786 0,0.28702 0.191011,0.59515 0.424471,0.68474 0.327618,0.12572 0.39351,0.41059 0.28878,1.24847 -0.07463,0.59707 -0.07832,0.87722 -0.0082,0.62256 0.174358,-0.63319 0.617865,-0.58571 0.617865,0.0661 0,0.29105 0.11651,0.52917 0.258911,0.52917 0.157501,0 0.140867,0.25908 -0.04247,0.66146 -0.165762,0.3638 -0.408361,0.66146 -0.53911,0.66146 -0.130752,0 -0.16923,0.11083 -0.08551,0.2463 0.08373,0.13547 0.03122,0.32109 -0.116676,0.41249 -0.156004,0.0964 -0.279641,-0.14585 -0.294487,-0.57703 -0.01696,-0.49285 -0.175148,-0.17328 -0.469566,0.94867 -0.383649,1.462 -0.56892,1.75937 -1.363475,2.18843 -0.59115,0.31923 -0.891937,0.65987 -0.842317,0.95394 0.06562,0.3889 0.03733,0.39797 -0.18887,0.0605 -0.2354,-0.35116 -0.31401,-0.34892 -0.682421,0.0194 -0.229008,0.22894 -0.441672,0.764596 -0.472591,1.190346 -0.04518,0.62215 0.06064,0.79075 0.539099,0.85892 0.327422,0.0466 0.595313,0.25513 0.595313,0.46329 0,0.20816 0.231097,0.37847 0.513551,0.37847 0.282453,0 0.577445,0.10338 0.655539,0.22974 0.07809,0.12636 0.834454,0.30808 1.680803,0.40384 1.483339,0.16782 2.011138,0.0451 3.76469,-0.87548 0.218281,-0.11459 0.434549,-0.52376 0.480594,-0.90926 0.06973,-0.58377 0.216361,-0.70092 0.8772898,-0.70092 0.889762,0 1.345996,0.2074 3.333991,1.51562 0.761521,0.50112 1.535427,0.93617 1.719791,0.96678 0.184365,0.0306 0.826741,0.3699 1.427501,0.75399 0.600763,0.3841 1.493732,0.89121 1.984375,1.12691 1.654144,0.79463 2.082708,1.05302 2.082708,1.25569 0,0.11101 0.162536,0.20184 0.361193,0.20184 0.198657,0 0.673695,0.24582 1.055643,0.54625 0.381947,0.30044 0.90402,0.51661 1.16016,0.48037 0.256141,-0.0362 0.8229,0.0133 1.259462,0.11008 0.436563,0.0968 1.389063,0.2506 2.116667,0.3418 0.727604,0.0912 1.416672,0.22234 1.53126,0.29143 0.114588,0.0691 1.364745,0.10122 2.778125,0.0714 1.413381,-0.0298 2.807907,-0.043 3.098948,-0.0293 0.484751,0.0229 9.090851,0.30055 10.31875,0.33291 0.587812,0.0155 3.137183,-0.22631 3.241146,-0.30742 0.03638,-0.0284 0.155443,-0.0679 0.264584,-0.0877 0.10914,-0.0199 0.555625,-0.16977 0.992187,-0.33311 2.021869,-0.75649 6.912898,-1.52563 7.159919,-1.12595 0.06216,0.10059 0.593476,0.0749 1.1807,-0.057 1.144233,-0.25709 2.465433,-0.0649 2.22527,0.32367 -0.08034,0.13 -0.02,0.23636 0.13412,0.23636 0.261975,0 0.392422,-0.37633 0.304933,-0.87969 -0.02085,-0.12003 0.232928,-0.19098 0.56398,-0.15767 0.70703,0.0712 2.05712,-0.26696 2.05712,-0.51518 0,-0.39206 1.228225,-0.88746 3.133108,-1.26372 2.198436,-0.43425 2.359472,-0.4718 2.952308,-0.6884 0.860158,-0.31427 3.608208,-1.05492 4.233334,-1.14098 0.363802,-0.0501 1.286536,-0.19814 2.05052,-0.32902 0.763985,-0.13089 1.390886,-0.16646 1.393114,-0.0791 0.0021,0.0874 0.100298,0.007 0.217934,-0.17808 0.250944,-0.3954 2.584159,-0.84687 5.201973,-1.00654 1.018646,-0.0621 2.62599,-0.16123 3.571875,-0.22023 0.945886,-0.059 2.434171,-0.24743 3.307291,-0.41875 0.87313,-0.171326 3.96875,-0.354576 6.87917,-0.407216 2.91041,-0.0526 5.886983,-0.17069 6.614583,-0.26234 0.7276,-0.0916 1.79917,-0.21789 2.38125,-0.28056 1.7149,-0.18463 3.91906,-0.92745 4.63021,-1.56041 0.3638,-0.32381 0.87736,-0.66489 1.14125,-0.75795 0.26388,-0.0931 0.41077,-0.28089 0.32641,-0.41738 -0.0844,-0.13649 -0.0304,-0.32416 0.11984,-0.41703 0.15027,-0.0929 0.21308,-0.26615 0.13958,-0.38507 -0.0735,-0.11892 0.12772,-0.28457 0.44715,-0.3681 0.31943,-0.0835 0.50021,-0.23246 0.40172,-0.33095 -0.15777,-0.15776 0.45723,-1.21297 1.2518,-2.14784 0.15031,-0.17685 0.42212,-0.49925 0.60402,-0.71644 0.1819,-0.21719 0.33073,-0.52372 0.33073,-0.68118 0,-0.15746 0.23812,-0.75305 0.52917,-1.32354 0.29104,-0.5705 0.52916,-1.45872 0.52916,-1.97384 0,-0.51512 0.10731,-0.93659 0.23847,-0.93659 0.18521,0 0.45257,-6.5606 0.31807,-7.8052 -0.12594,-1.1655 -0.27141,-5.06113 -0.32764,-8.77447 -0.0741,-4.89133 -0.26748,-5.80939 -1.84903,-8.77686 -0.49137,-0.92197 -1.06073,-1.993536 -1.26523,-2.381247 -0.20449,-0.38771 -0.47239,-0.744616 -0.59531,-0.793122 -0.12292,-0.04852 -0.22349,-0.245966 -0.22349,-0.438781 0,-0.314061 -2.05214,-3.040011 -2.79022,-3.706372 -0.16118,-0.14552 -0.70065,-0.796806 -1.19881,-1.447302 -1.09564,-1.430647 -3.29163,-3.654809 -4.51128,-4.569144 -1.00035,-0.749936 -2.26382,-1.237011 -1.96825,-0.758775 0.24742,0.400346 0.004,0.36797 -0.952573,-0.126722 -0.44634,-0.230808 -1.03136,-0.362162 -1.30005,-0.291897 -0.26869,0.07026 -0.62655,-0.03855 -0.79524,-0.241807 -0.16869,-0.203259 -0.58204,-0.369561 -0.91855,-0.369561 -0.33651,0 -0.94701,-0.12762 -1.35666,-0.283599 -1.02522,-0.39036 -3.19225,-0.816942 -4.36551,-0.859355 -0.82047,-0.02966 -0.92522,-0.09664 -0.66146,-0.422974 0.24491,-0.303009 0.24112,-0.344316 -0.0173,-0.189038 -0.1819,0.109283 -0.33073,0.09812 -0.33073,-0.02481 0,-0.122926 -0.23813,-0.223502 -0.52917,-0.223502 -0.34903,0 -0.53627,0.183352 -0.55005,0.538616 -0.0115,0.296239 -0.0787,0.396477 -0.14939,0.222751 -0.0707,-0.173727 -0.30075,-0.249767 -0.51128,-0.168979 -0.28196,0.108198 -0.33532,0.01717 -0.20262,-0.345593 0.17553,-0.479853 0.16575,-0.479837 -0.38181,6.35e-4 -0.47673,0.418319 -0.69069,0.448235 -1.410687,0.197245 -0.466793,-0.162726 -0.908785,-0.235797 -0.982202,-0.16238 -0.210645,0.210645 0.11003,0.422724 0.7072,0.467708 0.731029,0.05507 0.431998,0.323965 -0.377571,0.339529 -0.353769,0.0068 -0.639514,-0.140981 -0.639514,-0.330734 0,-0.188662 -0.178594,-0.343023 -0.396875,-0.343023 -0.218281,0 -0.382775,0.0893 -0.365543,0.198437 0.07867,0.498238 -0.06021,0.771702 -0.391906,0.771702 -0.228306,0 -0.310645,-0.190927 -0.224459,-0.520492 0.09859,-0.377018 0.03388,-0.474309 -0.234741,-0.352948 -0.203968,0.09215 -0.57921,0.241038 -0.833872,0.330864 -0.254661,0.08983 -0.463021,0.268497 -0.463021,0.397046 0,0.128548 -0.208359,0.231901 -0.46302,0.229673 -0.387242,-0.0034 -0.399535,-0.04421 -0.07511,-0.249392 0.309668,-0.195856 0.235497,-0.303287 -0.367734,-0.532635 -0.747721,-0.284283 -1.275501,-0.053 -2.095656,0.91837 -0.129921,0.153873 -0.161073,0.07084 -0.07445,-0.198438 0.106428,-0.330841 0.0053,-0.46302 -0.354087,-0.46302 -0.276667,0 -0.578609,0.238125 -0.670983,0.529166 -0.197917,0.623582 -0.484185,0.668642 -0.996043,0.156784 -0.485267,-0.485267 -1.740728,-0.57692 -2.575832,-0.188044 -0.659839,0.30726 -0.659599,0.307644 0.09811,0.156575 0.657141,-0.131019 0.708761,-0.100636 0.382813,0.225313 -0.276151,0.27615 -0.655604,0.323089 -1.421025,0.175782 -0.574349,-0.110535 -0.816067,-0.214665 -0.537151,-0.2314 0.727633,-0.04366 0.317648,-0.345408 -0.617194,-0.454254 -0.436036,-0.05077 -0.865764,0.02576 -0.954953,0.170077 -0.08919,0.14431 -0.291753,0.182291 -0.450141,0.0844 -0.18947,-0.117098 -0.235071,0.02433 -0.133315,0.413459 0.113951,0.435745 0.0575,0.554154 -0.214432,0.449804 -0.203001,-0.0779 -0.439467,-0.02777 -0.525475,0.111392 -0.08601,0.139165 -0.32421,0.253028 -0.529336,0.253028 -0.572839,0 -0.16247,-0.744073 0.492701,-0.893356 0.315119,-0.0718 -0.133143,-0.07838 -0.996137,-0.01463 -0.862994,0.06376 -1.84526,0.296878 -2.182813,0.518051 -0.337553,0.221173 -0.613733,0.300169 -0.613733,0.175547 0,-0.124622 -0.178593,-0.226585 -0.396875,-0.226585 -0.218281,0 -0.396875,0.103408 -0.396875,0.229795 0,0.126387 -0.211434,0.116639 -0.469852,-0.02166 -0.303747,-0.16256 -0.643961,-0.154023 -0.962335,0.02415 -0.37769,0.211365 -0.444603,0.198136 -0.287067,-0.05676 0.135824,-0.219767 0.08089,-0.287124 -0.162145,-0.198822 -0.202157,0.07345 -0.337793,0.267489 -0.301413,0.4312 0.03638,0.163711 -0.162057,0.297656 -0.440973,0.297656 -0.278913,0 -0.551945,0.134481 -0.606732,0.298847 -0.05865,0.175959 -0.965306,0.342826 -2.204863,0.405799 -1.157883,0.05882 -2.581495,0.151285 -3.163578,0.205469 -0.582083,0.05418 -2.368021,0.117128 -3.96875,0.139877 -2.91769,0.04147 -6.577399,0.727396 -8.057065,1.510119 -0.617363,0.326576 -0.72517,0.298433 -1.279102,-0.333907 -0.415745,-0.474595 -0.549868,-0.863983 -0.428884,-1.245166 0.197802,-0.623221 1.130789,-1.488009 1.619805,-1.501402 0.176782,-0.0048 0.451239,-0.276693 0.609907,-0.604115 0.27703,-0.571665 0.272146,-0.574912 -0.122981,-0.08172 -0.403309,0.503404 -0.411472,0.502092 -0.411472,-0.06615 0,-0.686003 0.981525,-0.823175 1.231371,-0.172088 0.114991,0.299664 0.375619,0.364807 0.983882,0.24592 0.455102,-0.08895 2.256206,-0.213254 4.002456,-0.276229 1.74625,-0.06298 3.889375,-0.176791 4.7625,-0.252924 3.362936,-0.293236 4.251356,-0.315268 4.77371,-0.118382 0.322966,0.121733 0.800653,0.06438 1.187305,-0.142548 0.355809,-0.190424 0.727728,-0.296289 0.826484,-0.235255 0.09875,0.06103 0.502065,-0.01165 0.896244,-0.161514 0.394182,-0.149867 1.326907,-0.32576 2.072725,-0.390873 0.745818,-0.06511 2.546657,-0.24734 4.001865,-0.404949 2.487398,-0.269402 4.20434,-0.42709 7.011458,-0.643948 0.654844,-0.05059 1.726407,-0.156794 2.38125,-0.23601 1.021694,-0.123595 2.531124,-0.27283 5.878918,-0.581239 0.395748,-0.03646 1.46731,-0.156184 2.381249,-0.266059 0.91394,-0.109874 2.61421,-0.167729 3.77837,-0.128566 1.16417,0.03916 2.53339,0.06273 3.04271,0.05238 3.95064,-0.08031 5.47998,0.112752 6.204483,0.783257 0.13825,0.127942 0.4359,0.232513 0.66146,0.232381 0.22556,-1.33e-4 0.76729,0.352228 1.20385,0.783024 0.43657,0.430795 2.01415,1.963865 3.50573,3.406821 1.49159,1.442956 2.71198,2.701952 2.71198,2.797768 0,0.09582 0.35719,0.523374 0.79375,0.950127 0.43657,0.426754 0.79375,0.898991 0.79375,1.049416 0,0.150426 0.13891,0.273501 0.30868,0.273501 0.16978,0 0.24396,0.06473 0.16485,0.143835 -0.0791,0.07911 0.31776,0.596318 0.88194,1.149352 0.56418,0.553034 1.02769,1.113387 1.03001,1.245227 0.002,0.131841 0.36406,0.648007 0.80386,1.147036 0.43979,0.499029 0.73928,1.064576 0.66553,1.256771 -0.0738,0.192195 -0.0444,0.349446 0.0651,0.349446 0.32691,0 1.15106,1.566867 0.97445,1.852626 -0.0897,0.145223 -0.007,0.264633 0.18316,0.265353 0.41729,0.002 1.92213,3.14834 2.21362,4.6289 0.1146,0.58208 0.23142,1.71317 0.25959,2.51354 0.0282,0.80036 0.13935,3.00302 0.24705,4.89479 0.10769,1.89177 0.18401,3.61818 0.16959,3.83646 -0.0454,0.68747 0.008,2.70524 0.12619,4.7625 0.1533,2.66993 0.15295,2.55929 0.0138,4.40492 -0.0674,0.89473 -0.24276,1.85125 -0.38958,2.12559 -0.14683,0.27434 -0.34614,1.02976 -0.44294,1.67871 -0.0968,0.64896 -0.29126,1.25117 -0.43215,1.33824 -0.14089,0.0871 -0.2263,0.26648 -0.18978,0.39866 0.0958,0.34692 -0.30447,1.43096 -0.52841,1.43096 -0.10434,0 -0.39568,0.34869 -0.64742,0.77486 -0.44732,0.75725 -0.44469,0.77678 0.11599,0.85989 0.56559,0.0838 0.56351,0.0971 -0.14687,0.93882 -0.39631,0.46957 -0.86113,0.82676 -1.03293,0.79375 -0.1718,-0.033 -0.27463,0.16028 -0.22852,0.42955 0.0503,0.29387 -0.029,0.41983 -0.19844,0.31511 -0.15525,-0.0959 -0.28228,0.0112 -0.28228,0.23803 0,0.22687 -0.1061,0.38273 -0.23578,0.34635 -0.12968,-0.0364 -0.48687,0.21996 -0.79375,0.56965 -0.59291,0.67562 -0.75275,1.23561 -0.26699,0.93539 0.42425,-0.2622 -0.15399,0.76387 -0.6734,1.19495 -0.27777,0.230516 -0.41133,0.244936 -0.41133,0.0444 0,-0.51612 -0.40496,-0.32781 -1.60224,0.745056 -1.14509,1.0261 -1.19196,1.04116 -3.06672,0.98509 -1.04712,-0.0313 -1.84754,0.0342 -1.7787,0.14556 0.0688,0.11138 -0.0299,0.14695 -0.21932,0.079 -1.01018,-0.36201 -2.49042,-0.32258 -2.94031,0.0783 -0.34751,0.30967 -0.53145,0.34242 -0.66942,0.11918 -0.11619,-0.18798 -0.64757,-0.26596 -1.364953,-0.2003 -0.73484,0.0673 -1.25047,-0.0117 -1.37705,-0.21082 -0.15366,-0.24174 -0.20332,-0.23652 -0.2064,0.0217 -0.003,0.25795 -0.1318,0.27167 -0.53322,0.0568 -0.37653,-0.20152 -0.68293,-0.20091 -1.06226,0.002 -0.40848,0.21862 -0.56568,0.20039 -0.67249,-0.0779 -0.11534,-0.30059 -0.89827,-0.39814 -1.44025,-0.17945 -0.0728,0.0294 -0.24514,0.0314 -0.38306,0.005 -0.9914,-0.19283 -2.342,-0.11528 -2.44,0.1401 -0.0643,0.1676 -0.49723,0.3056 -0.96204,0.30668 -1.56961,0.004 -2.55724,0.19911 -2.68538,0.53151 -0.0701,0.18191 -0.25732,0.33073 -0.416,0.33073 -0.15867,0 -0.21491,-0.11906 -0.12498,-0.26458 0.20528,-0.33214 -0.46748,-0.3499 -0.806976,-0.0213 -0.382313,0.37005 -2.771786,0.55565 -3.889375,0.30211 -0.834978,-0.18942 -0.992831,-0.15614 -0.996238,0.21007 -0.0024,0.24955 -0.08696,0.32231 -0.198438,0.17057 -0.403902,-0.54976 -3.272253,-0.34988 -3.16361,0.22046 0.03234,0.16978 -0.238852,0.3087 -0.602654,0.3087 -0.363802,0 -0.72099,0.0771 -0.79375,0.17134 -0.208862,0.27053 -1.421326,0.36259 -1.785938,0.13561 -0.185994,-0.11579 -0.330729,-0.0833 -0.330729,0.0743 0,0.1541 -0.185621,0.28019 -0.412491,0.28019 -0.226869,0 -0.338904,-0.11906 -0.248967,-0.26458 0.08994,-0.14552 0.03743,-0.26458 -0.116676,-0.26458 -0.154109,0 -0.280199,0.17859 -0.280199,0.39687 0,0.47473 -0.56346,0.52134 -1.001914,0.0829 -0.242271,-0.24227 -0.450778,-0.18989 -0.912812,0.22931 -0.384011,0.34842 -0.907275,0.52521 -1.458712,0.49284 -0.57998,-0.034 -0.859896,0.0687 -0.859896,0.31547 0,0.20127 -0.108894,0.29864 -0.241985,0.21639 -0.133091,-0.0823 -0.281919,-0.0486 -0.330729,0.0747 -0.04881,0.12336 -0.505463,0.30253 -1.014786,0.39816 -0.700677,0.13155 -0.829458,0.10414 -0.529166,-0.11263 0.303112,-0.21881 0.185907,-0.24997 -0.496094,-0.13192 -0.491133,0.085 -1.24642,0.15456 -1.678416,0.15456 -0.545939,0 -0.825072,0.15153 -0.915392,0.49692 -0.07147,0.2733 -0.417513,0.62794 -0.76898,0.78808 -0.35147,0.16014 -0.639035,0.38887 -0.639035,0.50829 0,0.11942 -0.403164,0.17006 -0.895919,0.11253 -0.492755,-0.0575 -1.140373,0.0262 -1.439151,0.18614 -0.35828,0.19174 -0.599056,0.2004 -0.707196,0.0254 -0.09018,-0.14591 -0.305766,-0.25589 -0.479079,-0.24441 -0.227211,0.0151 -0.222856,0.0581 0.01561,0.15434 0.181901,0.0734 0.330729,0.23886 0.330729,0.36769 0,0.29225 -0.857406,-0.007 -1.120429,-0.39132 -0.114845,-0.16773 -0.196043,-0.0806 -0.198437,0.21295 -0.0035,0.43109 -0.144108,0.47444 -1.062384,0.3276 -0.705604,-0.11283 -1.058334,-0.0704 -1.058334,0.12716 0,0.1866 -0.253243,0.23283 -0.683627,0.12482 -0.375994,-0.0944 -0.625489,-0.0775 -0.554432,0.0375 0.07106,0.11497 -0.663107,0.22821 -1.631477,0.25165 -3.365793,0.0815 -5.01515,0.22314 -4.894008,0.42041 0.06702,0.10914 -0.06376,0.19844 -0.290632,0.19844 -0.226869,0 -0.41249,0.10789 -0.41249,0.23975 0,0.13187 -0.565547,0.31206 -1.256771,0.40042 -1.402279,0.17927 -8.96044,0.42647 -9.103127,0.29773 z m -5.250519,-1.99623 c 0,-0.14552 -0.112035,-0.26459 -0.248967,-0.26459 -0.136933,0 -0.322554,0.11907 -0.412491,0.26459 -0.08994,0.14552 0.02209,0.26458 0.248968,0.26458 0.226869,0 0.41249,-0.11906 0.41249,-0.26458 z M 101.375,101.40381 c -0.26131,-0.25936 -0.2917,-0.22897 -0.14812,0.14812 0.0994,0.26093 0.24731,0.40778 0.32877,0.32631 0.0815,-0.0815 1.7e-4,-0.29495 -0.18065,-0.47443 z M -0.07709483,77.612264 c -0.08446,-0.21107 -0.147156,-0.14838 -0.159851,0.15985 -0.01148,0.27891 0.05105,0.43518 0.138965,0.34727 0.08792,-0.0879 0.0973199983,-0.31613 0.02088,-0.50712 z M 60.630082,47.565515 c 0.329108,-0.419644 0.319749,-0.429002 -0.0999,-0.09989 -0.44073,0.345644 -0.580887,0.562916 -0.363125,0.562916 0.05494,0 0.263301,-0.20836 0.463021,-0.463021 z m 1.024583,0.346344 c 0,-0.06417 -0.119062,-0.190261 -0.264583,-0.280198 -0.145521,-0.08994 -0.264583,-0.03743 -0.264583,0.116676 0,0.154109 0.119062,0.280199 0.264583,0.280199 0.145521,0 0.264583,-0.0525 0.264583,-0.116677 z m 3.704167,58.854171 c -0.339169,-0.21918 -0.329552,-0.25706 0.06615,-0.26053 0.254661,-0.002 0.463021,0.11501 0.463021,0.26053 0,0.32269 -0.02984,0.32269 -0.529167,0 z m 44.862448,-5.94471 c 0.28248,-0.21365 0.62565,-0.39224 0.7626,-0.39687 0.13695,-0.005 0.0179,0.16639 -0.26458,0.38005 -0.28248,0.21365 -0.62565,0.39224 -0.7626,0.39687 -0.13696,0.005 -0.0179,-0.16639 0.26458,-0.38005 z M 42.024823,99.899044 c -0.507053,-0.41059 -0.523846,-0.52898 -0.21078,-1.48592 0.187092,-0.57189 0.620112,-1.45439 0.962268,-1.96111 0.881679,-1.30573 0.805865,-1.53107 -0.484209,-1.43918 -1.282681,0.0914 -1.899359,-0.17782 -2.497015,-1.08996 -0.360186,-0.54971 -0.376124,-0.77973 -0.100193,-1.4459 0.180475,-0.4357 0.432755,-0.79219 0.560621,-0.79219 0.127865,0 0.232484,-0.18562 0.232484,-0.41249 0,-0.22687 0.119062,-0.3389 0.264583,-0.24896 0.145521,0.0899 0.264583,-0.067 0.264583,-0.34887 0,-0.28181 0.178594,-0.6606 0.396875,-0.84176 0.218282,-0.18116 0.396875,-0.48339 0.396875,-0.67162 0,-0.74361 3.189402,-2.72145 5.056095,-3.13544 0.988365,-0.2192 1.747875,0.64971 1.408309,1.61116 -0.245859,0.69612 -1.477077,1.6073 -2.23107,1.65113 -0.218282,0.0127 -1.037614,0.6679 -1.820738,1.45603 l -1.423866,1.43295 1.026991,0.16153 c 0.564843,0.0888 1.47244,0.28024 2.016881,0.42533 0.943523,0.25144 0.987968,0.31294 0.948785,1.31289 -0.02259,0.57701 0.03692,1.12713 0.132292,1.2225 0.09537,0.0954 0.04079,0.33318 -0.121288,0.52847 -0.162075,0.19529 -0.190809,0.35689 -0.06385,0.35912 0.126958,0.002 0.07361,0.10374 -0.118549,0.22558 -0.192159,0.12184 -0.919485,1.04276 -1.616279,2.04647 -1.358857,1.957406 -1.973971,2.254706 -2.979805,1.44024 z m -20.429644,-1.29482 c -0.08979,-0.14527 -0.514601,-0.34131 -0.94403,-0.43563 -1.121614,-0.24635 -1.937473,-1.68783 -2.007786,-3.5474 -0.06366,-1.68377 0.337688,-2.61342 1.691259,-3.91746 1.149118,-1.10708 1.609442,-1.22882 2.786608,-0.73696 0.810178,0.33851 0.932109,0.48687 0.72232,0.87885 -0.138813,0.25938 -0.671449,0.69728 -1.183634,0.97311 -1.26274,0.68003 -1.813267,1.7891 -1.705348,3.43555 0.104042,1.5873 0.564147,1.80077 1.743114,0.80873 1.162598,-0.97826 1.771645,-0.89401 1.830361,0.25317 0.02603,0.50867 -0.07029,0.92485 -0.214053,0.92485 -0.143764,0 -0.187804,-0.11906 -0.09787,-0.26458 0.08994,-0.14552 0.03743,-0.26458 -0.116676,-0.26458 -0.154109,0 -0.280199,0.30568 -0.280199,0.67929 0,0.54963 -0.09704,0.64849 -0.508391,0.51793 -0.330576,-0.10492 -0.690973,0.0346 -1.03041,0.39896 -0.302016,0.32417 -0.590817,0.449 -0.685268,0.29617 z m 31.987028,-1.10292 c -0.0914,-0.14789 -0.284425,-0.19582 -0.428935,-0.10651 -0.424643,0.26244 -2.341417,-1.94036 -2.388203,-2.74458 -0.202943,-3.48843 1.256853,-6.63911 3.604551,-7.77971 1.476399,-0.71729 2.967791,-0.507 3.208591,0.45242 0.162476,0.64735 -0.353279,1.45145 -0.930968,1.45145 -0.343077,0 -2.400911,1.82583 -2.400911,2.13023 0,0.11911 -0.13829,0.55174 -0.307308,0.9614 -0.169021,0.40965 -0.288084,0.83412 -0.264584,0.94326 0.0235,0.10914 -0.07634,0.19844 -0.221858,0.19844 -0.426059,0 -0.304363,0.95058 0.201702,1.57555 0.404286,0.49927 0.567341,0.53741 1.226339,0.28686 0.603181,-0.22933 0.889204,-0.20434 1.385797,0.12104 0.764509,0.50092 0.789139,0.82044 0.09658,1.25295 -0.291042,0.18176 -0.529167,0.46878 -0.529167,0.63782 0,0.16904 -0.374954,0.43806 -0.833231,0.59781 -1.028414,0.35851 -1.208463,0.36125 -1.418394,0.0216 z m 8.570293,-0.4587 c -0.01722,-0.10914 -0.01722,-0.28774 0,-0.39688 0.05283,-0.33458 -0.445886,-0.21985 -0.575006,0.13229 -0.09591,0.26157 -0.197344,0.2588 -0.485068,-0.0132 -0.528296,-0.49948 -0.478335,-3.64843 0.0764,-4.81541 0.591661,-1.24467 0.932122,-2.44064 1.280443,-4.49792 0.40377,-2.38477 0.48537,-2.59655 1.072258,-2.78282 0.691798,-0.21956 1.954811,0.7909 2.01989,1.616 0.02766,0.35071 -0.06091,0.63765 -0.196818,0.63765 -0.135908,0 -0.191093,0.44649 -0.122626,0.99219 0.08752,0.69758 0.04896,0.87435 -0.129861,0.59531 -0.206054,-0.32152 -0.255113,-0.28612 -0.258397,0.18645 -0.0032,0.46378 0.195538,0.62077 0.969825,0.76602 0.535633,0.10049 1.186873,0.19518 1.447199,0.21043 0.260327,0.0152 0.735542,0.25247 1.056035,0.52715 0.56869,0.4874 0.570566,0.5083 0.078,0.86848 -0.277596,0.20298 -0.8041,0.34541 -1.170017,0.31651 -0.904184,-0.0714 -2.385089,0.30935 -2.385089,0.61324 0,0.13592 -0.105447,0.18195 -0.234328,0.1023 -0.128881,-0.0797 -0.298072,0.12168 -0.375981,0.4474 -0.677479,2.83248 -1.036574,4.04915 -1.282565,4.34555 -0.31674,0.38165 -0.735031,0.46127 -0.784291,0.14929 z m 9.480219,-1.33043 c -0.387355,-0.40431 -0.838964,-1.12146 -1.003575,-1.59366 -0.261379,-0.7498 -0.209669,-1.04174 0.408213,-2.30465 1.07842,-2.20421 3.631612,-4.02931 4.246017,-3.03518 0.0914,0.14789 0.258805,0.21166 0.372002,0.1417 0.315774,-0.19516 1.691568,1.35956 1.490702,1.68457 -0.09724,0.15735 -0.03614,0.28608 0.135787,0.28608 0.207219,0 0.228192,0.11149 0.06222,0.33073 -0.434404,0.57383 -0.402895,2.49129 0.05551,3.37774 0.41893,0.81012 0.413541,0.86482 -0.135589,1.37641 l -0.571854,0.53276 -0.843804,-0.81784 -0.843804,-0.81785 -1.184836,0.78602 c -0.651658,0.43231 -1.251855,0.78653 -1.33377,0.78715 -0.08192,5.3e-4 -0.465862,-0.32967 -0.853219,-0.73398 z m -43.197526,-0.30868 c -0.298887,-0.12303 -1.146508,-0.88355 -1.883603,-1.69005 -1.256244,-1.37453 -1.359249,-1.59464 -1.644833,-3.51476 -0.167566,-1.12663 -0.207941,-2.14513 -0.08973,-2.26335 0.351497,-0.35149 1.779752,0.33541 2.097538,1.00879 0.162049,0.34338 0.232386,0.86238 0.1563,1.15333 -0.07733,0.29571 -0.008,0.529 0.157106,0.529 0.162494,0 0.295442,0.22207 0.295442,0.49349 0,0.27141 0.238125,0.79621 0.529167,1.16621 0.291042,0.37 0.529167,0.80277 0.529167,0.96172 0,0.15895 0.137588,0.289 0.305755,0.289 0.465042,0 2.075495,1.30476 2.075495,1.68153 0,0.3915 -1.720303,0.51747 -2.527806,0.18509 z m 56.045114,0.0352 c -0.297104,-0.18873 -0.49557,-2.59609 -0.577226,-7.0016 -0.02233,-1.20474 -0.07838,-1.29649 -1.209612,-1.97977 -0.698494,-0.42191 -1.290933,-1.01694 -1.440936,-1.44724 -0.227378,-0.65225 -0.18515,-0.74821 0.393165,-0.89336 0.356346,-0.0894 1.0643,-0.114 1.573226,-0.0546 0.53067,0.062 0.934604,-0.0104 0.947081,-0.16957 0.197456,-2.5194 0.965147,-3.10686 2.461226,-1.88342 0.70703,0.57819 0.7411,0.68747 0.46302,1.48517 -0.411074,1.17922 -0.376332,1.84044 0.0967,1.84044 0.21828,0 0.39688,0.16585 0.39688,0.36857 0,0.20271 0.17859,0.43709 0.39687,0.52086 0.47839,0.18358 0.53434,0.74511 0.0661,0.66389 -0.55837,-0.0969 -1.784058,0.62371 -1.818091,1.06884 -0.01768,0.2313 -0.0551,1.47753 -0.08313,2.7694 -0.04137,1.90642 -0.139512,2.4136 -0.521009,2.69255 -0.319175,0.23339 -0.413473,0.52191 -0.293807,0.89894 0.122703,0.3866 0.06972,0.53314 -0.17444,0.48246 -0.205803,-0.0427 -0.31855,0.11848 -0.272923,0.39022 0.08737,0.52033 0.0558,0.53976 -0.403145,0.24821 z m 1.200343,-2.83489 c -0.08146,-0.0815 -0.229407,0.0654 -0.328766,0.32631 -0.143584,0.37709 -0.113194,0.40748 0.148113,0.14812 0.180822,-0.17948 0.262115,-0.39297 0.180653,-0.47443 z m -61.531887,2.43252 c -0.827437,-0.30013 -0.839967,-0.32555 -0.320461,-0.64998 0.297355,-0.1857 0.4581,-0.47121 0.357206,-0.63445 -0.111744,-0.18081 -0.06405,-0.22303 0.122026,-0.10803 0.181004,0.11187 0.305464,0.0207 0.305464,-0.2237 0,-0.22687 0.111099,-0.41249 0.246888,-0.41249 0.437076,0 0.232365,1.55606 -0.220673,1.67739 -0.354393,0.0949 -0.347911,0.11829 0.03993,0.144 0.254662,0.0169 0.463021,0.14976 0.463021,0.29528 0,0.14552 -0.02977,0.25552 -0.06615,0.24445 -0.03638,-0.0111 -0.453644,-0.16068 -0.927256,-0.33247 z m 91.745487,-1.64739 c 0,-0.22687 0.121,-0.3377 0.2689,-0.2463 0.14789,0.0914 0.2004,0.27702 0.11667,0.41249 -0.22681,0.36699 -0.38557,0.29856 -0.38557,-0.16619 z m -23.472429,-1.13108 c -2.35653,-2.01788 -1.94307,-5.73669 0.88514,-7.96137 1.19006,-0.9361 3.2727,-0.532 3.2727,0.63501 0,0.25544 -0.60974,1.04599 -1.35499,1.75677 -0.74524,0.71078 -1.27828,1.29233 -1.18452,1.29233 0.0938,0 -0.0281,0.30305 -0.2708,0.67345 -0.37125,0.56659 -0.38782,0.77331 -0.10448,1.30274 0.18523,0.34612 0.62405,0.7014 0.97515,0.78952 0.3511,0.0881 0.57203,0.26756 0.49094,0.39876 -0.0811,0.1312 -0.0174,0.31893 0.1416,0.41718 0.27791,0.17175 -1.32496,1.4581 -1.78771,1.43468 -0.11687,-0.006 -0.59522,-0.3385 -1.06303,-0.73907 z m 13.178509,-0.91688 c -0.14969,-0.46576 -0.34166,-1.25869 -0.4266,-1.76207 -0.0849,-0.50337 -0.29197,-1.08093 -0.46005,-1.28346 -0.16809,-0.20253 -0.33235,-0.55038 -0.36502,-0.773 -0.0327,-0.22262 -0.18672,-0.53208 -0.34233,-0.68769 -0.20083,-0.20083 -0.28292,-0.11404 -0.28292,0.29917 0,0.32014 -0.12609,0.58208 -0.2802,0.58208 -0.1541,0 -0.20661,0.11906 -0.11667,0.26459 0.0899,0.14552 -0.009,0.26458 -0.21952,0.26458 -0.22477,0 -0.45153,0.36505 -0.54879,0.88347 -0.22876,1.21939 -1.1624,1.7185 -2.08449,1.11433 -0.36778,-0.24098 -0.740079,-0.72253 -0.827309,-1.07011 -0.23483,-0.93564 0.24493,-3.70034 1.033339,-5.95477 0.38168,-1.09141 0.82336,-2.46063 0.9815,-3.04271 0.15815,-0.58209 0.40375,-1.20716 0.54578,-1.38907 0.35035,-0.44868 1.12796,-0.41675 1.61086,0.0662 0.21828,0.21829 0.51484,0.39688 0.65903,0.39688 0.3019,0 -0.0381,1.50134 -0.63816,2.81811 -0.58175,1.27655 -0.49252,1.59161 0.45077,1.59161 0.62296,0 1.01275,0.22303 1.55852,0.89174 0.40029,0.49045 0.66857,1.04607 0.59618,1.23472 -0.0724,0.18864 -0.0258,0.34299 0.10356,0.34299 0.23448,0 0.40172,0.80255 0.45487,2.18281 0.0154,0.40018 0.10348,0.7276 0.1957,0.7276 0.0922,0 0.12959,0.38696 0.083,0.8599 -0.0465,0.47294 -0.0922,1.04914 -0.10153,1.28044 -0.009,0.23131 -0.30725,0.55285 -0.66214,0.71455 -0.59321,0.27028 -0.6672,0.22569 -0.91741,-0.55284 z M 2.0467522,79.778534 c -0.07611,-0.29104 -0.03046,-0.52916 0.101434,-0.52916 0.131897,0 0.239813,0.23812 0.239813,0.52916 0,0.29104 -0.04565,0.52917 -0.101434,0.52917 -0.05579,0 -0.163703,-0.23813 -0.239813,-0.52917 z m 0.473538,-1.32291 c 0.08994,-0.14553 0.216027,-0.26459 0.280199,-0.26459 0.06417,0 0.116676,0.11906 0.116676,0.26459 0,0.14552 -0.126089,0.26458 -0.280199,0.26458 -0.154109,0 -0.206613,-0.11906 -0.116676,-0.26458 z M 43.69404,77.037814 c -0.227079,-0.27361 -0.18106,-0.51059 0.192677,-0.99219 0.270058,-0.34799 0.447463,-0.75716 0.39424,-0.90927 -0.05323,-0.1521 0.143147,-0.53408 0.436385,-0.84883 0.293235,-0.31475 0.533157,-0.67786 0.533157,-0.80692 0,-0.12905 0.238125,-0.45014 0.529166,-0.71353 0.291042,-0.26339 0.529167,-0.58182 0.529167,-0.70763 0,-0.34172 -1.413346,-0.0198 -1.719225,0.39151 -0.145833,0.19612 -0.527585,0.42421 -0.848339,0.50685 -0.97472,0.25115 -1.402342,-0.74839 -1.348963,-3.1531 0.02521,-1.13559 -0.05144,-2.57073 -0.170325,-3.18919 -0.192471,-1.00126 -0.161602,-1.12437 0.281702,-1.12349 0.273822,5.3e-4 0.905772,0.24967 1.404331,0.5536 0.905,0.55172 0.907146,0.55176 1.322917,0.024 0.542375,-0.68843 2.358194,-1.63692 3.133812,-1.63692 0.605444,0 1.868731,0.66817 2.239518,1.18451 0.309166,0.43054 0.233241,0.96089 -0.12824,0.8958 -0.859097,-0.15468 -4.679477,2.34629 -4.246097,2.77967 0.09191,0.0919 0.508637,0.1671 0.926065,0.1671 0.628394,0 1.130888,0.21003 2.280849,0.95331 0.04691,0.0303 0.142944,0.42092 0.213402,0.86799 0.139388,0.88442 -0.736693,3.20579 -1.209863,3.20579 -0.153704,0 -0.279461,0.13594 -0.279461,0.30208 0,0.28569 -0.814035,1.12707 -2.065499,2.13488 -0.324159,0.26104 -0.628478,0.34502 -0.719076,0.19843 -0.08639,-0.13978 -0.276133,-0.25414 -0.421653,-0.25414 -0.145521,0 -0.191,0.11906 -0.101063,0.26458 0.249084,0.40303 -0.81888,0.31564 -1.159584,-0.0949 z m 25.329615,-0.64784 c -1.586804,-1.61325 -2.10172,-3.75866 -1.9808,-8.2531 0.04894,-1.81901 -0.01246,-4.66412 -0.136422,-6.32246 -0.255694,-3.420405 -0.120756,-3.852424 1.073248,-3.436192 1.471739,0.513052 1.817989,1.39697 1.779436,4.542632 -0.02942,2.40069 0.02532,2.81011 0.362215,2.70916 0.218281,-0.0654 1.07188,-0.14342 1.896888,-0.17336 1.845183,-0.067 2.597568,0.37201 3.314427,1.93384 0.551016,1.2005 0.556485,3.39221 0.0085,3.39221 -0.15449,0 -0.204653,0.0762 -0.111474,0.16942 0.415557,0.41555 -1.632151,3.1549 -2.655856,3.5529 -0.366162,0.14236 -0.534075,0.37591 -0.442272,0.61514 0.08889,0.23163 -0.123563,0.56357 -0.531948,0.83116 -0.373964,0.24503 -0.622112,0.53907 -0.551436,0.65343 0.135951,0.21997 -0.49384,0.5383 -1.014579,0.51283 -0.169998,-0.008 -0.624452,-0.33574 -1.009891,-0.72761 z m 1.831258,-3.95363 c 0.140901,-0.40018 0.68833,-1.19735 1.216509,-1.77149 0.692365,-0.75261 0.960327,-1.28351 0.960327,-1.90262 0,-0.86098 -0.360821,-1.37639 -0.643441,-0.9191 -0.08296,0.13423 -0.388842,0.18182 -0.679741,0.10575 -0.290896,-0.0761 -0.528902,-0.031 -0.528902,0.10008 0,0.13112 -0.357187,0.44939 -0.79375,0.70728 -0.720852,0.42581 -0.793419,0.59507 -0.790138,1.84298 0.0045,1.71743 0.223488,2.56473 0.662823,2.56473 0.187074,0 0.455415,-0.32742 0.596313,-0.72761 z m -43.196846,4.17101 c -0.08864,-0.14342 -0.142354,-0.82803 -0.119367,-1.52135 0.06396,-1.92919 -0.425463,-8.50584 -0.649676,-8.73006 -0.06272,-0.0627 -0.354531,0.0147 -0.64847,0.17199 -0.957586,0.51248 -2.386711,0.34466 -3.094789,-0.36341 -0.357188,-0.35719 -0.649433,-0.78046 -0.649433,-0.9406 0,-0.39708 2.456098,-1.45342 4.233754,-1.8209 1.557401,-0.32194 2.909996,-0.30844 2.909996,0.029 0,0.11378 0.184507,0.20688 0.410014,0.20688 0.760228,0 1.971236,0.7995 1.971236,1.3014 0,0.58707 -0.675542,0.90771 -1.243158,0.59006 -0.233101,-0.13045 -0.643102,-0.11319 -0.969449,0.0408 -0.547069,0.25817 -0.564978,0.41875 -0.548979,4.92198 0.01032,2.90245 -0.0893,4.79493 -0.264583,5.02649 -0.154618,0.20427 -0.254614,0.41138 -0.222216,0.46025 0.0324,0.0489 -0.01011,0.26869 -0.09445,0.4885 -0.173151,0.45123 -0.776624,0.53337 -1.020427,0.13889 z m 9.52123,-0.73481 c -0.395044,-0.28968 -0.854401,-1.84737 -1.052333,-3.56849 -0.160044,-1.39166 -0.130987,-1.52135 0.34085,-1.52135 0.283694,0 0.66294,0.17728 0.842766,0.39396 0.17983,0.21668 0.426559,0.33241 0.548288,0.25717 0.298101,-0.18423 0.777862,0.75483 0.773642,1.51429 -0.0049,0.88566 -1.134253,3.15831 -1.453213,2.92442 z m 44.010231,-1.5971 c -0.24265,-0.102 -0.699935,-0.51562 -1.016188,-0.91915 -0.509834,-0.65054 -0.584462,-1.11816 -0.658429,-4.12567 -0.04588,-1.86558 -0.0053,-3.51138 0.09015,-3.65733 0.09546,-0.14595 0.492281,-0.34331 0.881822,-0.43858 0.566531,-0.13855 0.818002,-0.0337 1.256702,0.52402 0.454308,0.57756 0.529931,0.97497 0.440579,2.31529 -0.05933,0.88993 -0.128749,1.61805 -0.154268,1.61805 -0.02553,0 -0.09304,0.44649 -0.150037,0.99219 -0.057,0.5457 -0.01402,0.99219 0.09553,0.99219 0.224803,0 1.110527,-0.9777 1.110527,-1.22584 0,-0.0888 0.313055,-0.96296 0.69568,-1.94258 0.683469,-1.74985 0.712319,-1.78063 1.643954,-1.75374 0.902555,0.026 0.993857,0.11804 1.893561,1.9079 0.5199,1.03429 1.15012,2.08537 1.40048,2.33573 0.98984,0.98984 1.04604,1.42501 0.23799,1.84286 -0.67797,0.3506 -0.82286,0.34216 -1.47538,-0.0859 -0.39797,-0.26106 -1.053528,-0.86988 -1.456798,-1.35294 -0.492509,-0.58994 -0.796486,-0.77591 -0.925928,-0.56647 -0.105987,0.17149 -0.119417,0.3118 -0.02984,0.3118 0.361995,0 -0.804661,1.58903 -1.18087,1.60839 -0.261019,0.0134 -0.290541,0.0677 -0.08268,0.15186 0.467032,0.18921 -0.688086,1.34663 -1.513917,1.51694 -0.363802,0.075 -0.859988,0.053 -1.102637,-0.049 z m 12.959273,-2.87973 c 0.191,-0.0764 0.41921,-0.067 0.50712,0.0209 0.0879,0.0879 -0.0683,0.15045 -0.34726,0.13896 -0.30823,-0.0127 -0.37092,-0.0754 -0.15986,-0.15985 z m 0.27252,-1.29652 c -0.0229,-0.42443 -0.0181,-0.95029 0.0107,-1.16857 0.0288,-0.21829 0.0693,-1.17079 0.0898,-2.11667 l 0.0374,-1.71979 -1.1136,0.0717 c -0.88512,0.057 -1.30213,-0.0787 -2.03252,-0.66146 -1.70507,-1.36048 -1.03825,-2.24906 1.72007,-2.29211 1.00806,-0.0157 1.93603,-0.14766 2.06217,-0.29318 0.27044,-0.312 0.76273,-2.367723 1.01377,-4.233334 0.2857,-2.123135 0.51967,-2.545939 1.36008,-2.457815 0.43922,0.04606 0.97025,0.390832 1.33263,0.865228 0.63413,0.830153 0.66561,1.81916 0.10966,3.444671 -0.14931,0.436562 -0.34434,1.12604 -0.4334,1.53218 -0.0891,0.40613 -0.26905,0.67221 -0.39999,0.59129 -0.40304,-0.2491 -0.0448,1.56231 0.36883,1.86518 0.43331,0.31724 0.27613,1.40997 -0.21225,1.47561 -0.16493,0.0222 -0.41894,0.068 -0.56446,0.10177 -0.14552,0.0338 -0.41341,0.0752 -0.59531,0.092 -0.1819,0.0168 -0.33073,0.31825 -0.33073,0.66993 0,0.35167 -0.14883,0.69946 -0.33073,0.77286 -0.26306,0.10615 -0.2626,0.13773 0.002,0.15434 0.23542,0.0148 0.25948,0.15655 0.0821,0.48391 -0.13796,0.25466 -0.31983,0.79044 -0.40416,1.19062 -0.0843,0.40019 -0.32545,0.72761 -0.53584,0.72761 -0.33919,0 -1.12389,1.05301 -0.95297,1.27882 0.0367,0.0485 -0.003,0.15765 -0.0876,0.24253 -0.0849,0.0849 -0.17309,-0.19292 -0.19602,-0.61736 z m 1.2323,-0.37482 c 0.0899,-0.14553 0.21603,-0.26459 0.2802,-0.26459 0.0642,0 0.11668,0.11906 0.11668,0.26459 0,0.14552 -0.12609,0.26458 -0.2802,0.26458 -0.15411,0 -0.20662,-0.11906 -0.11668,-0.26458 z M 17.42981,68.651764 c -1.702816,-2.30127 -2.847335,-5.01281 -2.115863,-5.01281 0.12427,0 0.547124,0.29766 0.939673,0.66146 0.392549,0.3638 0.826654,0.66146 0.964676,0.66146 0.138023,0 0.250952,0.17859 0.250952,0.39687 0,0.21828 0.119063,0.39688 0.264584,0.39688 0.145521,0 0.264583,0.24595 0.264583,0.54656 0,0.3006 0.122722,0.77587 0.272717,1.05613 0.165912,0.31001 0.186679,0.84161 0.05303,1.3574 l -0.219692,0.84781 z m 21.215286,-3.1124 c -0.609578,-0.20504 -1.313635,-1.18095 -1.323295,-1.83427 -0.0048,-0.32742 0.04706,-0.59531 0.115343,-0.59531 0.407937,0 2.255676,1.16334 2.248691,1.41578 -0.0149,0.53801 -0.641263,1.14817 -1.040739,1.0138 z M 9.8281592,56.712429 c -0.208151,-0.333302 -0.223245,-0.46782 -0.03977,-0.354427 0.16264,0.100516 0.4690848,0.03887 0.6809898,-0.137002 0.472064,-0.391777 0.491956,-0.02051 0.03136,0.585262 -0.311298,0.409413 -0.36278,0.402231 -0.6725778,-0.09383 z m 2.6140058,-2.043263 c 0,-0.274755 0.503293,-0.672499 0.652375,-0.515562 0.0484,0.05095 -0.07858,0.246162 -0.282186,0.433801 -0.203605,0.187638 -0.370189,0.224431 -0.370189,0.08176 z"
       id="path1264" />
  </g>
</svg>
