<?xml version="1.0" encoding="UTF-8" standalone="no"?>
<!-- Created with Inkscape (http://www.inkscape.org/) -->

<svg
   width="97.986mm"
   height="123.40717mm"
   viewBox="0 0 97.986 123.40717"
   version="1.1"
   id="svg5"
   xmlns="http://www.w3.org/2000/svg"
   xmlns:svg="http://www.w3.org/2000/svg">
  <defs
     id="defs2" />
  <g
     id="layer1"
     transform="translate(184.50352,-23.961178)">
    <path
       style="fill:#dab;stroke-width:0.264583"
       d="m -142.31958,147.02156 c -0.44616,-0.32624 -0.45001,-0.40505 -0.057,-1.16508 0.23185,-0.44835 0.81138,-1.05679 1.28785,-1.3521 1.18412,-0.7339 7.76088,-7.46033 7.98513,-8.16685 0.0994,-0.31312 0.56867,-0.79823 1.04288,-1.07802 0.78543,-0.46341 1.45933,-1.41743 4.11671,-5.82793 0.3774,-0.62636 1.13266,-1.832 1.67836,-2.67919 0.5457,-0.8472 0.99219,-1.61962 0.99219,-1.7165 0,-0.0969 0.23864,-0.43228 0.53031,-0.74535 0.29167,-0.31308 0.78947,-1.11177 1.10623,-1.77488 0.31676,-0.66311 0.65631,-1.26518 0.75455,-1.33794 0.18119,-0.13421 2.22143,-3.70608 2.94701,-5.15938 0.57203,-1.14575 1.53105,-2.80677 2.0623,-3.57188 1.03024,-1.48376 4.50585,-7.38587 4.50585,-7.65162 0,-0.15723 0.20836,-0.50535 0.46302,-0.77361 0.47485,-0.50019 0.81897,-1.07072 2.37881,-3.94404 0.49374,-0.909501 0.98677,-1.653642 1.09562,-1.653642 0.10882,0 0.39992,-0.386953 0.64688,-0.859896 0.53464,-1.023895 0.94943,-1.682514 2.66311,-4.22856 0.71189,-1.057651 1.72217,-2.577846 2.24512,-3.378211 0.52292,-0.800364 1.72074,-2.526771 2.66179,-3.836458 0.94104,-1.309688 2.498961,-3.512344 3.462018,-4.894792 0.963083,-1.382448 2.715524,-3.890057 3.894296,-5.572463 1.178798,-1.682407 2.558494,-3.766 3.066018,-4.630209 1.309344,-2.229609 2.112037,-2.928832 2.999899,-2.613199 0.476091,0.169246 0.811503,0.576667 1.054761,1.281157 0.333217,0.96497 0.315648,1.086935 -0.266858,1.852083 -0.342953,0.450501 -0.883127,1.29534 -1.200388,1.877423 -0.317236,0.582083 -0.899954,1.49316 -1.294924,2.024618 -0.39497,0.531455 -1.480291,2.079268 -2.411836,3.439583 -0.931545,1.360313 -1.969611,2.830486 -2.306796,3.267049 -3.758803,4.86646 -5.320163,7.057996 -6.52259,9.155136 -0.62566,1.091206 -1.94148,2.857601 -2.93629,3.941739 -0.20032,0.218281 -0.45141,0.679141 -0.55798,1.024131 -0.10657,0.34499 -0.52337,1.118896 -0.9262,1.719791 -1.46397,2.18379 -3.31354,5.20568 -6.09373,9.95608 -1.06458,1.81901 -2.63434,4.47869 -3.48835,5.91039 -0.85401,1.43171 -1.9686,3.39624 -2.47686,4.36563 -0.50826,0.96939 -1.12953,2.08366 -1.3806,2.47616 -1.16833,1.82651 -2.97003,4.98785 -2.97003,5.21136 0,0.13673 -0.10324,0.2883 -0.22943,0.33681 -0.32556,0.12514 -2.68098,3.97399 -2.68098,4.38083 0,0.18566 -0.10614,0.33757 -0.23586,0.33757 -0.12972,0 -0.415,0.44648 -0.63396,0.99219 -0.21896,0.5457 -0.97888,1.71783 -1.68871,2.60472 -2.18323,2.72786 -10.40757,11.13162 -11.73702,11.99307 -1.35642,0.87893 -2.73102,1.05899 -3.54434,0.46428 z m -41.72299,-18.46714 c -0.46299,-0.46299 -0.53323,-0.76192 -0.40273,-1.71401 0.0869,-0.63426 0.2711,-1.36417 0.40926,-1.62202 0.46382,-0.8656 1.6149,-4.95845 1.62009,-5.76047 0.003,-0.43656 0.13128,-1.27 0.28546,-1.85208 0.15419,-0.58208 0.37836,-1.59411 0.49816,-2.24896 0.18141,-0.99157 0.97847,-3.5359 1.86493,-5.95312 0.42046,-1.14652 0.81675,-2.76501 1.32294,-5.40295 0.29099,-1.51642 0.63025,-2.88563 0.75393,-3.04271 0.67138,-0.85267 0.83465,-3.225757 0.73472,-10.678549 -0.0571,-4.260916 -0.15932,-7.802557 -0.22708,-7.870311 -0.0678,-0.06775 -0.36606,0.144232 -0.6629,0.47108 -0.66734,0.734782 -1.63394,4.001939 -2.08204,7.037366 -0.23965,1.623367 -1.27866,2.693813 -2.42947,2.50298 -0.84072,-0.139415 -0.8598,-0.172903 -0.85575,-1.501627 0.002,-0.747467 0.22905,-2.430595 0.50393,-3.740283 0.27487,-1.309687 0.58545,-3.193491 0.69017,-4.186229 0.2172,-2.059099 0.2284,-2.068261 3.14932,-2.576915 1.5849,-0.276 1.73393,-0.360953 1.98808,-1.133237 0.47311,-1.437661 0.83642,-7.252745 0.76296,-12.211952 -0.0388,-2.619375 0.0177,-4.90423 0.12546,-5.077458 0.18426,-0.29609 -0.7346,-1.404834 -1.16424,-1.404834 -0.10472,0 -0.52875,-0.53557 -0.9423,-1.190151 -0.41354,-0.654585 -0.84119,-1.190366 -0.95033,-1.190625 -0.10915,-2.62e-4 -0.19988,-0.208833 -0.20163,-0.463495 -0.002,-0.254661 -0.29941,-0.981189 -0.66146,-1.614506 -0.36205,-0.633317 -0.65827,-1.42245 -0.65827,-1.753626 0,-0.331177 -0.17335,-1.017035 -0.38523,-1.524127 -0.23252,-0.556493 -0.45078,-2.326154 -0.55057,-4.464085 -0.0909,-1.948151 -0.25819,-3.83975 -0.37167,-4.203552 -0.28426,-0.911222 0.17196,-6.481834 0.65005,-7.9375 0.21507,-0.654844 0.80879,-2.849578 1.31936,-4.877186 0.51057,-2.027611 1.11008,-3.963969 1.33223,-4.30302 0.66163,-1.009779 2.80776,-2.412629 4.22354,-2.760781 3.47382,-0.854247 7.75037,-0.06487 9.59115,1.770351 0.71446,0.712308 0.85989,1.057666 0.85989,2.04199 0,0.730274 0.15223,1.311024 0.39688,1.514063 0.21828,0.181157 0.39687,0.455954 0.39687,0.610655 0,0.154705 0.24071,0.537509 0.53492,0.850676 0.73673,0.784217 1.02753,3.665561 0.64693,6.410023 -0.20741,1.495631 -0.65268,1.43864 -0.65268,-0.08354 0,-0.664411 -0.11939,-1.431091 -0.2653,-1.703734 -0.17734,-0.331369 -0.17734,-0.550076 0,-0.65968 0.34465,-0.213008 0.34524,-1.191067 7.1e-4,-1.191067 -0.14552,0 -0.26458,-0.238125 -0.26458,-0.529167 0,-0.291041 -0.10255,-0.529166 -0.22788,-0.529166 -0.12533,0 -0.24394,1.577578 -0.26356,3.505729 -0.0196,1.928151 -0.11104,4.547526 -0.20312,5.820833 -0.15118,2.090203 -0.12258,2.315105 0.29442,2.315105 0.3316,0 0.42283,-0.149247 0.32348,-0.529167 -0.0761,-0.291042 -0.039,-0.529167 0.0824,-0.529167 0.40394,0 0.606,2.946451 0.29459,4.295556 -0.16518,0.715586 -0.30032,1.768231 -0.30032,2.339213 0,0.756983 -0.11001,1.038148 -0.40618,1.038148 -0.30948,0 -0.34537,0.113636 -0.15076,0.477277 0.15485,0.289327 0.16089,0.627951 0.0153,0.859895 -0.13204,0.210442 -0.17259,0.599335 -0.0901,0.864206 0.10543,0.338529 -0.0143,0.524537 -0.40291,0.626171 -0.30409,0.07952 -0.55289,0.350369 -0.55289,0.601885 0,0.251515 -0.24487,0.678905 -0.54415,0.949754 -0.37478,0.339169 -0.49628,0.683236 -0.39032,1.105381 0.12166,0.484743 -0.11038,0.874509 -1.1095,1.863662 -0.69483,0.6879 -1.62051,1.429131 -2.05707,1.647182 -0.43657,0.218048 -0.85906,0.483907 -0.93887,0.590798 -0.0798,0.106892 -0.85372,0.423276 -1.71979,0.703078 -1.0783,0.348363 -1.53298,0.620847 -1.44239,0.864407 0.0728,0.195625 0.1323,3.879212 0.1323,8.185753 0,5.904868 0.0819,7.928914 0.33312,8.232082 0.18322,0.221104 0.98444,0.478557 1.78048,0.572116 1.27933,0.15036 2.3201,0.449559 5.29473,1.522103 1.62949,0.587537 4.71782,1.356503 7.80521,1.943421 1.23693,0.235143 3.02286,0.595341 3.96875,0.800441 0.94588,0.205102 2.3151,0.445032 3.04271,0.533178 2.0513,0.248509 2.24896,0.350924 2.24896,1.165283 0,1.566288 -1.61579,2.046986 -4.24767,1.263692 -0.79248,-0.235855 -2.86962,-0.744701 -4.61587,-1.130766 -1.74625,-0.386066 -3.88938,-0.876845 -4.7625,-1.09062 -0.87313,-0.213773 -1.88516,-0.411168 -2.24896,-0.438658 -0.3638,-0.02749 -1.1364,-0.260935 -1.71688,-0.518771 -0.91825,-0.407863 -3.80163,-1.274943 -5.62482,-1.691474 -0.32849,-0.07505 -0.90042,0.06434 -1.27733,0.311301 l -0.6825,0.447194 0.0751,9.513766 c 0.0667,8.457212 0.12372,9.557782 0.51307,9.910152 0.2409,0.21801 0.65512,0.89887 0.92048,1.51302 0.26536,0.61415 0.68982,1.35476 0.94324,1.6458 0.52652,0.60468 1.1463,2.19868 1.74889,4.49792 0.22884,0.87312 0.53419,1.73872 0.67856,1.92355 0.47382,0.60658 2.23971,5.78437 3.26926,9.58582 0.21676,0.80037 0.50532,1.82085 0.64124,2.26775 0.59356,1.95159 -0.0107,3.31908 -1.28422,2.90645 -0.52637,-0.17054 -2.43359,-3.94321 -3.35141,-6.62941 -0.94829,-2.77538 -1.2544,-3.62079 -1.64307,-4.5379 -0.19434,-0.45855 -0.35334,-0.95992 -0.35334,-1.11416 0,-0.38493 -2.05332,-5.93281 -2.83574,-7.66189 -0.81664,-1.80472 -1.23527,-1.53125 -1.67103,1.0916 -0.17394,1.04698 -0.53866,2.40384 -0.81048,3.01524 -0.57748,1.29891 -0.95261,2.70211 -2.21387,8.28107 -0.50992,2.25557 -1.22489,5.05354 -1.58883,6.21771 -0.36393,1.16417 -0.66348,2.44782 -0.66566,2.85257 -0.003,0.46752 -0.17284,0.78818 -0.467,0.87921 -0.25466,0.0788 -0.66976,0.25368 -0.92245,0.38858 -0.67428,0.35996 -0.93365,0.30739 -1.55657,-0.31553 z m 12.69793,-70.738503 c 0.62608,-0.679212 1.09203,-1.446893 1.09203,-1.799167 0,-0.33795 0.11635,-0.7308 0.25855,-0.873006 0.37485,-0.374848 1.36193,-3.221344 1.59854,-4.60978 0.11159,-0.654843 0.3967,-2.024062 0.63356,-3.042708 0.51286,-2.205554 1.01594,-11.790865 0.77453,-14.757464 -0.13466,-1.654937 -0.30221,-2.231638 -0.8564,-2.947739 -1.33685,-1.727411 -5.05461,-3.786872 -5.05461,-2.800006 0,0.145521 -0.12389,0.264584 -0.2753,0.264584 -0.35613,0 -1.84137,1.096198 -1.84137,1.359043 0,0.110656 -0.29304,0.51739 -0.6512,0.903851 -2.42031,2.611559 -3.6006,9.520301 -2.84531,16.654814 0.16946,1.600729 0.36965,3.766471 0.44487,4.812761 0.14983,2.084064 0.87118,4.295491 1.92739,5.908706 0.6563,1.002417 2.37434,2.110179 3.27337,2.110616 0.23612,1.16e-4 0.92073,-0.532913 1.52135,-1.184505 z m 5.58995,-4.106953 c 0,-0.145521 -0.11906,-0.264583 -0.26459,-0.264583 -0.14552,0 -0.26458,0.119062 -0.26458,0.264583 0,0.145521 0.11906,0.264584 0.26458,0.264584 0.14553,0 0.26459,-0.119063 0.26459,-0.264584 z m 1.31171,-3.401962 c 0.55734,-1.871443 0.71973,-4.006371 0.30474,-4.006371 -0.12961,0 -0.29639,0.386953 -0.37064,0.859896 -0.0742,0.472942 -0.32539,1.693288 -0.55811,2.711881 -0.49591,2.170573 -0.50183,2.249056 -0.16974,2.249056 0.13936,0 0.49655,-0.816509 0.79375,-1.814462 z m 1.38371,-8.807447 c 0.0455,-0.633627 0.20177,-1.122284 0.34729,-1.085903 0.39783,0.09946 0.32429,1.98652 -0.0827,2.122186 -0.259,0.08633 -0.32626,-0.177134 -0.26458,-1.036283 z"
       id="path39" />
  </g>
</svg>
