<?xml version="1.0" encoding="UTF-8" standalone="no"?>
<!-- Created with Inkscape (http://www.inkscape.org/) -->

<svg
   width="99.441216mm"
   height="108.80865mm"
   viewBox="0 0 99.441216 108.80865"
   version="1.1"
   id="svg5"
   xmlns="http://www.w3.org/2000/svg"
   xmlns:svg="http://www.w3.org/2000/svg">
  <defs
     id="defs2" />
  <g
     id="layer1"
     transform="translate(-78.486518,-28.420033)">
    <path
       style="fill:#000000;stroke-width:0.264583"
       d="m 109.0151,137.0679 c -1.40078,-0.4275 -8.563,-1.09889 -14.419791,-1.35171 -3.748326,-0.16181 -6.673056,-0.4351 -8.57504,-0.80127 -1.733815,-0.33378 -3.213047,-0.48276 -3.704167,-0.37306 -1.575012,0.35182 -2.847234,0.25842 -3.208417,-0.23553 -0.188806,-0.25819 -0.422592,-1.44252 -0.519536,-2.63184 -0.329803,-4.04566 0.202089,-18.70512 0.750438,-20.68323 0.08067,-0.29105 0.340096,-1.60073 0.576474,-2.91042 0.236379,-1.30969 0.592138,-3.21469 0.790575,-4.23333 0.198411,-1.01865 0.497311,-3.75709 0.664237,-6.08542 0.336709,-4.696921 0.826108,-7.549357 1.461664,-8.519348 0.56388,-0.860571 1.0541,-0.633095 1.022085,0.47426 -0.06686,2.312678 -0.933423,12.409258 -1.156017,13.469048 -0.137557,0.65484 -0.25527,2.28148 -0.261594,3.61474 -0.0063,1.33327 -0.190103,3.35733 -0.408358,4.49792 -0.459131,2.39932 -0.504957,3.6956 -0.138641,3.92199 0.142055,0.0878 0.838306,0.22831 1.54723,0.31228 1.170914,0.13867 1.416526,0.0649 2.681817,-0.80547 1.755722,-1.20772 2.546376,-1.21317 4.65836,-0.0321 0.910749,0.50933 2.01594,0.92604 2.455968,0.92604 0.440029,0 2.028031,-0.2975 3.52888,-0.66111 3.557773,-0.86194 3.809683,-0.84816 4.828593,0.26424 0.46654,0.50932 0.99256,0.92604 1.16896,0.92604 0.17642,0 0.89577,-0.29139 1.59858,-0.64753 1.87825,-0.95177 3.65498,-1.12276 4.94377,-0.47578 0.62076,0.31165 1.88624,0.58953 3.15351,0.69249 1.16417,0.0946 2.47386,0.27027 2.91042,0.39043 0.59259,0.16309 1.26312,0.0514 2.64583,-0.44078 1.45288,-0.51715 2.65049,-0.70333 5.55625,-0.86376 2.0373,-0.11249 4.3937,-0.38208 5.23648,-0.5991 0.84278,-0.21702 2.86684,-0.53793 4.49792,-0.71313 2.32036,-0.24924 3.09469,-0.4362 3.55888,-0.85928 0.84405,-0.76928 3.32846,-0.96118 4.04527,-0.31247 0.67333,0.60937 0.65693,0.96799 -0.0745,1.62813 -0.67742,0.61139 -2.74492,1.05034 -6.01927,1.27794 -1.23693,0.086 -3.02287,0.33745 -3.96875,0.55881 -0.94589,0.22137 -2.40935,0.5005 -3.25216,0.6203 -0.84277,0.11979 -1.88089,0.36219 -2.30695,0.53866 -0.58111,0.24071 -0.98475,0.24759 -1.61597,0.0275 -1.27085,-0.44301 -2.69317,-0.35437 -4.11393,0.2564 -1.51476,0.65118 -3.44421,0.74893 -5.18152,0.26251 -1.00904,-0.28252 -1.4836,-0.28825 -2.40914,-0.0291 -1.06135,0.29716 -1.25962,0.26846 -2.50475,-0.36249 -1.80063,-0.91245 -2.68227,-0.86487 -4.68054,0.25262 -1.63163,0.91247 -1.70251,0.92713 -2.62257,0.54271 -0.52007,-0.21731 -1.35488,-0.70727 -1.8551,-1.08881 -0.801345,-0.61122 -1.060954,-0.67188 -2.18292,-0.51014 -0.700378,0.10097 -1.674918,0.34751 -2.165614,0.54787 -0.490723,0.20037 -1.664679,0.3643 -2.608792,0.3643 -1.415706,0 -1.988846,-0.1451 -3.269721,-0.8278 l -1.55313,-0.82781 -1.611736,0.9601 c -1.789907,1.06624 -2.867343,1.20058 -4.421373,0.55126 -1.665129,-0.69574 -1.706695,-0.50414 -1.581309,7.28801 0.115808,7.19509 0.30226,8.38243 1.346465,8.57447 0.312896,0.0575 1.461849,0.29451 2.553255,0.5266 2.372175,0.50446 8.016876,0.95156 12.024731,0.95245 2.815167,5.3e-4 6.874904,0.39545 12.599674,1.22535 2.3523,0.34101 3.52856,0.35851 7.40833,0.11022 2.53664,-0.16233 4.79065,-0.34592 5.00893,-0.40797 0.21828,-0.0621 2.1685,-0.29601 4.33385,-0.51991 3.75507,-0.38827 8.45804,-1.29058 11.19685,-2.14823 2.18752,-0.68501 4.19552,-1.79094 4.04847,-2.22974 -0.21381,-0.6379 -0.0358,-6.08649 0.38028,-11.6395 0.21262,-2.83765 0.45263,-7.3025 0.53338,-9.92187 0.0807,-2.61938 0.3829,-7.02469 0.67151,-9.789584 0.28861,-2.764895 0.60296,-6.33677 0.69855,-7.9375 0.22358,-3.743838 0.35579,-4.101041 1.51789,-4.101041 0.59701,0 0.96131,0.148645 1.07215,0.437446 0.0923,0.240593 0.24296,3.446296 0.33475,7.123782 0.16706,6.693517 -0.0401,11.068277 -0.84479,17.838767 -0.19889,1.67349 -0.43386,4.41193 -0.52216,6.08542 -0.0883,1.67349 -0.34126,4.65005 -0.56213,6.61459 -0.2209,1.96453 -0.42407,4.27655 -0.45148,5.13782 -0.0475,1.49206 -0.0873,1.57754 -0.84358,1.81146 -0.43656,0.13504 -1.68671,0.59894 -2.77812,1.0309 -1.09141,0.43195 -2.46063,0.88834 -3.04271,1.01418 -0.58208,0.12585 -2.27512,0.52274 -3.76229,0.88198 -1.4872,0.35925 -3.45173,0.73385 -4.36563,0.83245 -0.91392,0.0986 -3.56666,0.41179 -5.895,0.69596 -4.75802,0.58073 -13.34341,0.88555 -14.55208,0.51668 z m 47.83614,-35.32354 c 0.0814,-0.50189 0.32091,-1.30556 0.53215,-1.78594 0.21122,-0.480378 0.65138,-1.528257 0.97812,-2.328622 1.14273,-2.79921 2.99164,-6.237301 4.62425,-8.598958 0.90541,-1.309688 2.34834,-3.690938 3.20651,-5.291667 l 1.56033,-2.910417 -0.0571,-7.14375 c -0.0314,-3.929062 -0.12589,-7.423248 -0.20995,-7.764857 -0.18944,-0.769855 -0.75012,-0.671724 -3.47834,0.608775 -2.99993,1.408025 -5.55594,3.312221 -8.68196,6.467972 l -2.90235,2.929964 -1.72786,-0.142626 c -2.38636,-0.196985 -3.20707,0.08815 -3.79315,1.317858 -0.34583,0.725644 -0.60161,0.963372 -0.92604,0.860772 -0.97615,-0.308706 -2.85797,-0.998115 -3.35865,-1.230453 -2.59273,-1.203164 -4.36562,-1.430936 -4.36562,-0.560869 0,0.276188 -0.2975,1.020328 -0.66112,1.653646 -0.59663,1.039153 -0.64476,1.337667 -0.49355,3.059977 0.30081,3.42623 -1.34884,14.690683 -2.32338,15.864933 -0.41027,0.49435 -1.12112,0.435311 -1.8483,-0.153508 l -0.62246,-0.504042 0.5942,-3.001688 c 1.17102,-5.915549 1.65309,-9.705985 1.58586,-12.469839 -0.0743,-3.054416 0.27297,-4.074268 1.67814,-4.928806 l 0.79412,-0.482931 -1.75828,-1.381789 c -1.41603,-1.112798 -1.91212,-1.710481 -2.54844,-3.070244 -1.05826,-2.261452 -1.11827,-4.317889 -0.15632,-5.355674 0.36319,-0.391822 1.08611,-1.605373 1.6065,-2.696779 1.53924,-3.228298 5.91137,-8.202084 7.20995,-8.202084 0.18422,0 0.84362,-0.533699 1.46528,-1.185994 1.38208,-1.450153 2.51556,-1.887763 3.79545,-1.465361 1.40557,0.463886 2.43779,1.733235 3.9728,4.885492 l 1.41002,2.895597 -0.79825,1.522831 c -1.02531,1.956006 -0.87532,2.457817 0.65826,2.202399 0.61814,-0.102949 2.07639,-0.577736 3.24056,-1.055076 3.20937,-1.315934 5.1925,-1.541936 8.81856,-1.004985 2.58848,0.383307 3.02988,0.392268 3.23326,0.06565 0.42024,-0.674777 -0.24251,-9.451224 -0.83224,-11.020915 -0.1216,-0.323667 -0.913,-1.125807 -1.75866,-1.782529 -1.94183,-1.507972 -2.40874,-2.309397 -2.86372,-4.915559 -0.69871,-4.002368 0.60703,-10.325553 2.60128,-12.596868 0.84243,-0.959491 3.18722,-2.284812 4.55985,-2.577336 1.79131,-0.381743 4.86305,1.454759 7.29838,4.363487 1.1989,1.431976 1.79982,2.794749 1.81813,4.123225 0.0161,1.16192 -0.6736,4.329734 -1.14617,5.26511 -0.21437,0.424302 -0.54105,1.290127 -0.72594,1.924053 -0.18492,0.633928 -0.48067,1.208029 -0.65722,1.275784 -0.17656,0.06775 -0.47673,0.501586 -0.66707,0.964073 -0.47408,1.152027 -1.08889,1.638855 -3.45607,2.736646 -1.11866,0.518774 -2.09878,1.112271 -2.17805,1.318882 -0.0793,0.20661 -0.0316,0.937056 0.10602,1.623213 0.13761,0.686157 0.38037,4.402715 0.53949,8.259017 0.15912,3.856302 0.44659,10.226146 0.63881,14.155208 l 0.34954,7.14375 -0.63334,1.165215 c -0.56179,1.033584 -0.5893,1.213874 -0.24352,1.595948 0.37767,0.417317 0.97362,1.778349 3.82937,8.745336 0.74493,1.817429 1.76911,3.928954 2.27595,4.692283 0.5068,0.763328 0.92149,1.50074 0.92149,1.638694 0,0.436433 -0.97065,0.579676 -1.69416,0.250018 -1.0986,-0.500552 -2.14582,-2.436948 -5.43832,-10.055929 -1.67037,-3.865279 -1.48768,-3.79666 -3.31457,-1.244984 -1.65089,2.305852 -5.64952,9.489438 -6.53169,11.734251 -0.84675,2.15472 -1.16713,2.51354 -2.24428,2.51354 -0.94046,0 -0.95236,-0.0135 -0.80647,-0.91252 z M 144.30528,75.464009 c 0.13835,-0.258477 0.38322,-1.196232 0.54419,-2.083901 0.16095,-0.887666 0.65247,-2.670484 1.09223,-3.961812 0.56486,-1.658687 0.75218,-2.609107 0.63812,-3.237826 -0.12591,-0.694108 -0.0411,-1.002056 0.38537,-1.39937 0.43262,-0.403059 0.54679,-0.833456 0.54679,-2.061467 0,-1.546289 -0.004,-1.554501 -1.12496,-2.211327 -0.6327,-0.370776 -1.6369,-1.365919 -2.29484,-2.274099 -0.64341,-0.888153 -1.37104,-1.614826 -1.61694,-1.614826 -0.55388,0 -2.54186,2.13355 -3.42993,3.681098 -0.3638,0.63396 -1.12474,1.674175 -1.69098,2.311588 -1.14819,1.292547 -1.88008,3.681833 -2.18316,7.127023 -0.1601,1.819743 -0.1425,1.895779 0.59783,2.583823 0.49181,0.457078 1.82687,1.050276 3.75827,1.669888 1.64754,0.528543 3.25488,1.177563 3.57188,1.44227 0.72707,0.607135 0.89456,0.611154 1.20613,0.02894 z m 10.16021,-5.059511 c 3.62027,-3.421943 7.8236,-6.237277 9.77924,-6.549998 1.88592,-0.301572 0.88627,-0.874975 -1.53675,-0.881507 -1.98205,-0.0053 -4.13523,0.441917 -7.33918,1.524494 -2.66922,0.901899 -2.84866,1.006356 -2.70586,1.575237 0.12186,0.485632 0.0101,0.663541 -0.55031,0.876641 -0.38677,0.147048 -1.11421,0.23444 -1.61655,0.194207 l -0.91334,-0.07315 -0.91234,2.896939 c -0.50181,1.593315 -0.87736,3.081596 -0.83457,3.307291 0.0861,0.454557 2.16865,0.827458 2.85115,0.51054 0.21828,-0.101359 1.91862,-1.622671 3.77851,-3.380694 z m -3.21252,-5.591836 c -0.72834,-0.606769 -1.09516,-0.662903 -1.09516,-0.167587 0,0.522726 0.27345,0.706577 1.03629,0.696753 l 0.6835,-0.0088 -0.62463,-0.520364 z m 15.95917,-1.031248 c 0.19566,-0.316601 -0.30205,-0.630299 -0.65448,-0.412491 -0.29591,0.182875 -0.10165,0.658791 0.2689,0.658791 0.12835,0 0.30186,-0.110836 0.38558,-0.2463 z m -18.27581,-4.645737 c 0.47916,-0.362797 0.45495,-0.461566 -0.63031,-2.571271 -0.62074,-1.206691 -1.37975,-2.470388 -1.6867,-2.808219 l -0.55805,-0.614235 -0.72986,0.816848 c -0.40142,0.449265 -0.72985,0.998304 -0.72985,1.220086 0,1.082633 1.64933,3.274121 3.04271,4.042868 0.66913,0.369181 0.69286,0.367599 1.29206,-0.08608 z m 19.68712,-11.257809 c 2.2466,-0.518224 3.3016,-1.216663 4.49421,-2.975348 2.91055,-4.292042 3.3097,-10.00433 0.85432,-12.226415 -0.56841,-0.514397 -4.01945,-1.721308 -4.92192,-1.721308 -0.64219,0 -1.92934,1.192348 -2.98076,2.761237 -0.65741,0.980943 -0.69562,1.211493 -0.65784,3.96875 0.0394,2.87092 0.52292,5.142489 1.70865,8.026162 0.28814,0.700752 0.29234,0.967237 0.0222,1.399823 -0.31702,0.507638 -0.2318,1.049441 0.16288,1.035476 0.10057,-0.0035 0.69376,-0.124328 1.31826,-0.268377 z m -39.83075,47.98599 c -0.69588,-0.485431 -0.73075,-1.01505 -0.19719,-2.99656 0.2155,-0.800365 0.51964,-2.807666 0.67585,-4.460669 0.15621,-1.653003 0.41677,-3.319878 0.57902,-3.704166 0.16224,-0.384289 0.36271,-2.365582 0.44548,-4.402873 0.13938,-3.430575 0.20912,-3.821423 0.94424,-5.291667 0.73792,-1.475827 0.86355,-1.593276 1.78594,-1.669619 1.19941,-0.09927 1.24455,0.15598 0.46643,2.638235 -0.28916,0.922469 -0.52729,2.376313 -0.52916,3.230761 -0.003,0.85445 -0.17537,2.75945 -0.38556,4.233333 -0.21018,1.473885 -0.5747,4.049009 -0.81004,5.722498 -0.47557,3.381434 -1.13059,6.308553 -1.52467,6.813021 -0.33522,0.429136 -0.71649,0.399616 -1.45034,-0.112294 z m 8.30924,-0.04083 c -0.61161,-0.67582 -0.55329,-1.301371 0.35283,-3.784198 0.96623,-2.647492 1.22444,-4.897157 0.82521,-7.18971 -0.28507,-1.636827 -0.25713,-1.87678 0.48889,-4.201089 0.97923,-3.050966 1.41169,-3.713586 2.35255,-3.604691 0.58094,0.06724 0.71651,0.232248 0.78607,0.956688 0.0463,0.481491 -0.15174,1.612585 -0.43997,2.513542 -0.68893,2.153412 -0.69559,2.234522 -0.45374,5.514107 0.1872,2.538688 0.15021,2.984029 -0.37369,4.497917 -0.31981,0.924136 -0.67432,1.799309 -0.7878,1.94483 -0.11351,0.145521 -0.27123,0.775134 -0.35055,1.399143 -0.26866,2.113743 -1.41226,3.044664 -2.3998,1.953461 z"
       id="path39" />
  </g>
</svg>
