<?xml version="1.0" encoding="UTF-8" standalone="no"?>
<!-- Created with Inkscape (http://www.inkscape.org/) -->

<svg
   width="634.83405mm"
   height="260.90103mm"
   viewBox="0 0 634.83405 260.90103"
   version="1.1"
   id="svg25"
   xmlns="http://www.w3.org/2000/svg"
   xmlns:svg="http://www.w3.org/2000/svg">
  <defs
     id="defs22" />
  <g
     id="layer1"
     transform="translate(353.70749,-37.753681)">
    <path
       style="fill:#041;stroke-width:0.264583"
       d="m -345.80366,298.30886 c -0.58209,-0.19185 -1.43613,-0.35796 -1.89788,-0.36912 -1.07126,-0.0259 -2.38508,-1.29498 -2.61621,-2.52701 -0.28814,-1.53594 -0.28307,-1.53877 5.47608,-3.05565 2.12983,-0.56097 4.31726,-1.20581 4.86096,-1.43298 0.5437,-0.22717 1.21256,-0.41304 1.48636,-0.41304 0.2738,0 0.9421,-0.23813 1.48512,-0.52917 0.54302,-0.29104 1.30376,-0.52917 1.69053,-0.52917 0.38677,0 0.76076,-0.14996 0.83109,-0.33324 0.0703,-0.1833 0.69855,-0.48588 1.39604,-0.67244 0.69749,-0.18656 2.8851,-1.09148 4.86137,-2.01099 3.36233,-1.5644 4.57777,-2.02396 7.35241,-2.77998 2.11423,-0.57605 1.91134,-0.76729 -2.15356,-2.0298 -1.2997,-0.40365 -4.99537,-2.0523 -8.21259,-3.66363 -3.58045,-1.79327 -7.43622,-3.49219 -9.94002,-4.37973 -2.2498,-0.79754 -4.74538,-1.84409 -5.54575,-2.32572 -1.97917,-1.19096 -2.48448,-1.28439 -3.33383,-0.61626 -0.91401,0.71895 -1.27289,0.7004 -1.79254,-0.0927 -0.78107,-1.19205 -1.80604,-4.72532 -1.8445,-6.35833 -0.059,-2.50428 0.24436,-3.44175 1.52099,-4.70064 1.25012,-1.23275 2.53947,-3.52505 2.53947,-4.51488 0,-0.34607 0.23137,-0.83862 0.51417,-1.09455 0.28279,-0.25593 0.58791,-0.80108 0.67805,-1.21145 0.2409,-1.09683 2.03403,-3.5619 4.19001,-5.76017 2.1588,-2.20112 4.9971,-4.1212 8.53797,-5.77585 1.34396,-0.62804 2.52061,-1.26656 2.61478,-1.41893 0.42026,-0.67998 3.13373,-1.69273 6.72934,-2.51159 4.99058,-1.13655 9.25711,-2.38217 9.70972,-2.83477 0.1946,-0.19461 0.48624,-1.00659 0.64808,-1.80441 0.38712,-1.90836 0.38101,-11.86053 -0.0109,-17.80943 l -0.31079,-4.71718 -1.5605,-2.37651 c -1.73042,-2.63528 -1.98588,-3.36506 -3.18084,-9.08657 -1.47258,-7.0508 -1.33417,-10.22432 0.57029,-13.07628 0.56824,-0.85094 1.03316,-1.63403 1.03316,-1.74019 0,-0.10616 0.29765,-0.54677 0.66146,-0.97913 0.3638,-0.43235 0.66145,-1.00549 0.66145,-1.27364 0,-0.68376 2.44953,-3.28758 4.23063,-4.4971 2.28793,-1.55371 5.32142,-2.08941 9.07453,-1.60253 2.09188,0.27137 5.47379,1.52988 6.32903,2.35522 0.78386,0.75645 4.18792,7.22993 4.88344,9.28679 0.36666,1.08433 0.72608,2.81074 0.79871,3.83646 0.12172,1.71902 0.0596,2.02019 -0.79464,3.84931 -0.50968,1.0914 -1.00972,2.46062 -1.11121,3.04271 -0.10149,0.58208 -0.45311,1.47505 -0.78137,1.98437 -0.32827,0.50932 -1.09921,1.87854 -1.7132,3.04271 -1.39123,2.63783 -2.76727,4.43977 -4.94879,6.48047 -1.77778,1.66303 -2.93209,2.37005 -4.76181,2.91665 l -1.09781,0.32795 -0.2205,4.39788 c -0.12127,2.41884 -0.21974,6.42195 -0.21881,8.8958 0.002,3.94435 0.066,4.62817 0.52455,5.55625 l 0.52288,1.05833 1.98437,-0.0804 c 1.52804,-0.0619 3.41425,0.20082 8.20209,1.14236 3.41974,0.6725 7.31916,1.29172 8.66538,1.37603 l 2.44767,0.1533 0.28364,1.0856 c 0.15601,0.59706 0.75333,2.06523 1.32738,3.26258 0.88764,1.85139 1.56735,2.72536 4.54473,5.84358 6.0125,6.29695 6.14682,6.69177 6.14682,18.06594 0,9.0325 -0.017,9.12894 -1.74253,9.90708 -0.56095,0.25295 -1.22439,0.68586 -1.47432,0.96203 -0.24993,0.27617 -0.95938,0.72549 -1.57656,0.99851 -0.6756,0.29885 -1.28297,0.80738 -1.52631,1.27794 -0.2725,0.52697 -0.67649,0.83603 -1.24019,0.94877 -0.45981,0.092 -1.52403,0.58512 -2.36492,1.09595 -2.16892,1.31755 -4.18275,2.18337 -7.62476,3.27814 -1.64863,0.52438 -3.01785,1.07198 -3.04271,1.21692 -0.0617,0.35986 2.45615,1.70702 3.20474,1.71466 0.33226,0.003 1.18491,0.30052 1.89478,0.66022 1.43823,0.72882 4.80277,1.72643 5.83017,1.7287 1.27691,0.003 2.64144,0.55407 3.59297,1.45148 0.84928,0.80098 0.93651,1.00216 0.76988,1.7757 -0.50053,2.32355 -1.36638,2.86089 -4.67191,2.89938 -1.40936,0.0164 -2.22428,-0.1112 -2.87655,-0.45048 -1.3071,-0.67987 -12.23233,-4.29082 -14.27157,-4.71699 -0.94588,-0.19767 -2.51556,-0.57978 -3.48816,-0.84915 -1.54871,-0.42889 -1.99239,-0.45037 -3.57188,-0.17285 -0.99192,0.17428 -2.54991,0.62224 -3.4622,0.99547 -0.91228,0.37322 -2.81728,0.92069 -4.23333,1.2166 -2.86309,0.5983 -7.02153,1.90773 -7.92314,2.49484 -0.32231,0.20989 -0.93464,0.38161 -1.36076,0.38161 -0.44459,0 -0.83965,0.16912 -0.92704,0.39687 -0.0838,0.21828 -0.32901,0.39688 -0.545,0.39688 -0.21598,0 -2.17511,0.77525 -4.35363,1.72278 -2.17851,0.94755 -4.56331,1.83703 -5.29955,1.97667 -0.73625,0.13962 -1.8122,0.49546 -2.39101,0.79074 -0.6847,0.3493 -1.56746,0.53689 -2.52663,0.53689 -0.81084,0 -1.90169,0.17859 -2.4241,0.39687 -1.08245,0.45228 -0.94434,0.45271 -2.34045,-0.007 z m 40.98345,-18.89816 c 1.13071,-0.14568 2.10813,-0.44439 2.56897,-0.7851 0.40912,-0.30247 0.93123,-0.54996 1.16024,-0.54996 0.22902,0 0.97798,-0.28284 1.66436,-0.62854 0.68639,-0.34571 1.84781,-0.75576 2.58094,-0.91123 1.77175,-0.37571 5.30942,-1.88481 7.57849,-3.23286 1.92419,-1.14314 2.68547,-2.12432 2.10187,-2.70902 -0.46142,-0.46231 -9.64312,-0.57515 -16.70186,-0.20529 -4.92498,0.25805 -5.99042,0.24215 -7.9375,-0.11835 -4.76032,-0.8814 -5.90275,-0.97075 -12.96459,-1.01386 -7.24028,-0.0442 -8.86453,0.0849 -8.66329,0.68866 0.0976,0.29271 5.93927,3.56772 9.10525,5.10463 0.75239,0.36526 2.71693,0.96433 4.36562,1.33126 1.6487,0.36692 3.77154,1.02613 4.71742,1.46491 3.41499,1.58414 6.5827,2.05963 10.42408,1.56475 z m 22.8883,-14.71549 c 0.23629,-0.2363 0.52359,-2.73762 0.53852,-4.68855 0.0277,-3.62556 -0.99883,-7.28416 -2.99392,-10.67012 -0.91792,-1.55784 -4.58165,-5.37212 -7.3029,-7.60298 l -1.44904,-1.1879 -1.73423,0.14539 c -1.53255,0.12848 -2.06913,0.0298 -4.6138,-0.84889 -2.57827,-0.89027 -3.06791,-0.97851 -4.67967,-0.84339 -2.26945,0.19026 -4.13095,0.97581 -4.3069,1.81753 -0.13258,0.63421 -0.55383,14.85122 -0.5513,18.60621 0.002,2.74109 0.28127,4.02133 0.95659,4.38275 0.38434,0.20568 1.80043,0.21148 4.94955,0.0204 2.80537,-0.17036 6.08082,-0.18084 8.99769,-0.0288 3.9221,0.20445 5.72069,0.40767 10.09787,1.14105 0.6538,0.10953 1.88186,-0.0329 2.09154,-0.24257 z m -49.31967,-0.62312 c 10.78215,-0.35872 13.88975,-0.62129 14.32021,-1.20997 0.19391,-0.26521 0.36728,-2.34315 0.47007,-5.63406 0.0896,-2.86763 0.31073,-7.74406 0.49149,-10.83651 l 0.32865,-5.62264 -1.02613,2.4e-4 c -0.64291,1.6e-4 -1.5322,0.2862 -2.38125,0.766 -0.74532,0.42116 -1.77184,0.84957 -2.28116,0.95202 -0.50933,0.10242 -1.20608,0.36385 -1.54834,0.58092 -0.34225,0.21709 -1.40946,0.50615 -2.37156,0.64241 -1.10937,0.15711 -1.95263,0.43878 -2.30518,0.76999 -0.30575,0.28723 -0.80057,0.52223 -1.0996,0.52223 -0.29904,0 -1.1248,0.4604 -1.83503,1.02312 -0.71024,0.56272 -1.82712,1.29066 -2.48196,1.61766 -0.65485,0.32703 -1.79694,1.05725 -2.53798,1.62274 -0.74105,0.56547 -1.47282,1.02815 -1.62616,1.02815 -0.6296,0 -4.31302,4.31197 -5.1101,5.98207 -0.45094,0.94488 -1.15251,2.09881 -1.55903,2.56429 -1.03738,1.18784 -2.17954,4.09831 -1.84996,4.71413 0.45948,0.85855 1.11192,1.04254 3.29052,0.9279 1.16417,-0.0613 6.16479,-0.24609 11.1125,-0.41069 z m 21.98964,-57.32702 c 2.63941,-1.76152 5.3848,-5.16791 8.10827,-10.06048 1.11744,-2.00744 1.88531,-3.73558 2.05321,-4.62091 0.14751,-0.77783 0.3855,-1.53153 0.52885,-1.67489 0.39327,-0.39326 0.31323,-2.26294 -0.16597,-3.87711 -0.49398,-1.664 -1.75108,-4.25153 -2.26376,-4.65959 -0.19378,-0.15423 -1.11132,-0.36306 -2.03898,-0.46406 -0.92766,-0.101 -2.26145,-0.4102 -2.96397,-0.68711 l -1.27731,-0.50347 -1.26936,1.00457 c -3.1459,2.48965 -5.16199,5.42286 -6.04064,8.78852 -0.64215,2.45975 -0.40495,6.5419 0.64117,11.03414 0.84547,3.63063 1.28922,4.7909 2.2228,5.81189 0.70323,0.7691 1.20405,0.75051 2.46569,-0.0915 z m 541.63903,-36.10801 c -0.65895,-0.3887 -0.57267,-1.18052 0.19438,-1.78388 0.81151,-0.63833 5.41835,-1.92447 10.26258,-2.86509 2.00417,-0.38915 3.82778,-0.84199 4.05249,-1.00632 0.26149,-0.19119 0.63553,-1.53352 1.0391,-3.72898 1.05725,-5.75154 1.42677,-9.70354 2.12675,-22.74486 0.26138,-4.86992 0.59857,-8.63621 0.92297,-10.30983 0.7143,-3.68486 1.4877,-13.96409 1.11263,-14.78731 -0.27305,-0.59923 -0.35301,-0.61609 -1.8292,-0.38562 -0.84902,0.13255 -2.19853,0.43509 -2.99889,0.6723 -1.68892,0.50058 -5.43298,0.57315 -11.64167,0.22565 -3.4513,-0.19318 -4.45021,-0.1587 -6.30499,0.21758 -2.84578,0.57732 -11.30065,3.2428 -12.40949,3.91221 -1.90378,1.14929 -5.05643,0.80216 -5.50333,-0.60595 -0.26461,-0.83371 0.22899,-1.1413 3.31573,-2.06617 4.88389,-1.46336 11.19111,-3.49882 12.96458,-4.18392 2.29648,-0.88714 4.24209,-1.01016 8.20277,-0.51868 6.31963,0.7842 6.84618,0.79619 9.26859,0.211 3.98288,-0.96217 15.03292,-1.79303 27.43034,-2.06251 8.15697,-0.1773 8.54414,-0.1317 8.54414,1.00636 0,0.27322 -0.21919,0.71596 -0.4871,0.98386 -0.54359,0.54358 -1.47331,0.61898 -13.53582,1.09772 -3.71078,0.14727 -8.30266,-0.56984 -8.6487,0.42085 l -1.90183,0.15308 -0.1353,1.36802 c -0.0744,0.75242 -0.25424,3.53723 -0.3996,6.18847 -0.14632,2.66916 -0.40386,5.08128 -0.57706,5.40493 -0.55544,1.03785 -0.99711,5.05831 -1.29405,11.77984 -0.50245,11.37282 -0.79074,15.22598 -1.33295,17.81458 -0.28956,1.38245 -0.64809,3.64464 -0.79674,5.02709 -0.14864,1.38244 -0.32848,2.77667 -0.3996,3.09827 -0.24021,1.08587 0.62437,1.20771 3.36318,0.47397 5.13492,-1.3757 9.96452,-0.40415 7.36015,1.48056 -0.43439,0.31437 -1.52429,0.572 -3.175,0.75054 -3.38725,0.36632 -6.57223,1.32916 -8.27408,2.50127 -1.51675,1.04462 -2.49663,1.19194 -3.51033,0.52776 -0.35931,-0.23543 -1.12514,-0.42153 -1.70188,-0.4136 -1.19549,0.0164 -9.41242,1.55652 -10.04298,1.88225 -0.7367,0.3806 -2.78172,0.54655 -3.25979,0.26456 z m -42.03582,-2.41078 c -0.39256,-0.31912 -0.40899,-1.50342 -0.18825,-13.57876 0.21998,-12.03164 0.28851,-13.36599 0.757,-14.74052 0.51173,-1.50138 0.51163,-1.53107 -0.0169,-4.49792 -1.46831,-8.24046 -1.85457,-10.94407 -2.48677,-17.40636 -0.37724,-3.8563 -0.80309,-7.58286 -0.94633,-8.28125 -0.42656,-2.08004 -0.33121,-3.5542 0.26876,-4.15416 0.63712,-0.63712 1.01603,-0.66166 1.79472,-0.11623 1.34173,0.93979 1.9217,3.51009 2.56353,11.36102 0.40819,4.99323 0.74107,7.19601 1.73926,11.50937 0.28623,1.23693 0.75576,3.83054 1.04336,5.76358 0.28763,1.93305 0.64825,3.74875 0.8014,4.0349 0.37221,0.69554 0.91535,0.67268 6.66996,-0.28062 2.65906,-0.44048 5.90621,-0.87212 7.2159,-0.95917 2.9233,-0.19433 3.17532,-0.003 3.54756,2.69976 0.80671,5.85615 1.01174,24.5555 0.29519,26.92487 -0.55515,1.83576 -2.0325,2.6152 -3.04247,1.6052 -0.37475,-0.37475 -0.40753,-0.99353 -0.26278,-4.96093 0.12023,-3.29475 0.014,-6.88142 -0.38841,-13.13175 -0.30456,-4.72943 -0.70404,-9.79107 -0.71977,-9.36191 l -0.16598,-0.76295 -1.88063,0.14485 c -1.99444,0.15361 -5.27309,0.72263 -8.7598,1.52025 -1.16416,0.2663 -2.43615,0.55258 -2.82662,0.63614 -0.3905,0.0836 -0.7807,0.3748 -0.86717,0.64719 -0.0864,0.27236 -0.27101,5.42155 -0.41013,11.4426 -0.25445,11.01222 -0.41048,12.92934 -1.10913,13.628 -0.5487,0.54866 -2.10768,0.73562 -2.62536,0.3148 z m 35.83337,-5.56049 c -0.50274,-0.67032 -1.12792,-1.34315 -2.73214,-7.15848 -0.7326,-2.6557 -1.56697,-5.40996 -1.85417,-6.12061 -0.28721,-0.71062 -0.52218,-1.52019 -0.52218,-1.79906 0,-0.27887 -0.17391,-0.84336 -0.38651,-1.25442 -0.21256,-0.41105 -0.5157,-1.5563 -0.67365,-2.545 -0.28565,-1.78816 -2.12879,-7.127 -2.84821,-8.25013 -0.20736,-0.32372 -1.02445,-0.90532 -1.81576,-1.29249 -1.2061,-0.5901 -1.97276,-0.73853 -4.74133,-0.9181 -1.93458,-0.12547 -3.93079,-0.11131 -4.8191,0.0342 -0.83407,0.13663 -1.60845,0.24908 -1.72082,0.24993 -0.1124,0 -0.70771,0.46087 -1.32292,1.02232 -1.51998,1.38708 -2.20014,1.70439 -3.23651,1.50998 -1.52583,-0.28625 -1.56094,-0.43339 -1.76464,-7.39508 -0.10269,-3.50926 -0.30081,-6.91626 -0.44024,-7.57111 -0.3097,-1.4543 -0.50075,-4.15106 -0.84352,-11.90625 -0.1447,-3.27421 -0.44326,-7.14375 -0.66342,-8.59895 -0.22018,-1.455213 -0.47462,-4.134124 -0.56544,-5.953133 l -0.16513,-3.30729 -1.84269,-1.95022 c -2.43572,-2.577848 -3.54372,-4.94349 -3.90027,-8.32748 -0.58537,-5.55519 -0.22781,-9.4716 1.34443,-14.72543 1.34225,-4.48524 2.06356,-5.8439 3.85275,-7.25706 5.73289,-4.52795 14.9419,-7.83864 16.62642,-5.97728 0.4944,0.54631 1.1494,0.71686 3.5646,0.92817 2.11066,0.18466 3.97108,1.21015 5.78326,3.18784 2.33897,2.55258 3.27903,4.50086 3.50335,7.26066 0.10078,1.24 0.0833,3.4268 -0.0389,4.85954 -0.19846,2.32783 -0.31787,2.75009 -1.12231,3.96875 -0.49511,0.75007 -1.14527,1.84797 -1.44481,2.43979 -0.29951,0.59182 -0.73186,1.23148 -0.96078,1.42146 -0.22892,0.18998 -0.41622,0.44258 -0.41622,0.56133 0,0.30622 -3.0766,4.41659 -4.21063,5.62543 -2.18284,2.32685 -9.66361,6.97778 -12.45812,7.74542 -2.22774,0.61196 -2.71687,0.86298 -2.54651,1.30689 0.0832,0.21672 0.28007,1.43106 0.43757,2.69853 0.15751,1.26747 0.34891,2.3673 0.42535,2.44407 0.0764,0.0768 4.91829,-2.276718 9.1795,0.28692 l 9.04055,0.14733 1.47177,0.70926 c 0.80949,0.390104 1.85129,0.78517 2.31511,0.87794 0.81518,0.16303 0.84322,0.13886 0.84018,-0.72431 -0.003,-0.49113 -0.17891,-1.54781 -0.39372,-2.34818 -0.531,-1.97832 -0.50229,-2.24828 0.27704,-2.60336 2.88862,-1.31615 4.60193,1.53183 5.54538,9.217953 0.23661,1.92764 0.22923,1.92411 3.06194,1.46472 1.37099,-0.22234 3.02929,-0.40474 3.68509,-0.40533 0.6558,-5.2e-4 1.6083,-0.12286 2.11667,-0.27172 0.50837,-0.14886 2.14561,-0.39592 3.63831,-0.54901 2.92703,-0.30021 4.36002,-0.0686 4.79287,0.77472 0.34219,0.66658 0.0897,1.064 -1.04335,1.64202 -1.55208,0.79181 -3.88144,1.24251 -8.83169,1.70883 -4.53311,0.42702 -5.95905,0.6687 -13.97278,2.3682 -2.43906,0.51727 -4.7367,0.94048 -5.10585,0.94048 -0.60465,0 -1.96884,-1.09959 -1.96884,-1.58696 0,-0.5412 6.45811,-2.91095 7.93297,-2.91095 0.97491,0 1.41769,-0.57429 1.20156,-1.55838 -0.19476,-0.88676 -0.50607,-1.20185 -1.46162,-1.47941 -0.3638,-0.10567 -1.61396,-0.62451 -2.77812,-1.15296 l -2.11667,-0.96083 -8.33437,-0.0801 c -5.2528,-0.0505 -8.48112,0.0177 -8.73125,0.18444 -0.58822,0.39212 -0.74332,4.64443 -0.49247,13.50179 0.30498,10.7691 0.76501,14.53125 1.84772,15.11069 0.37197,0.19907 1.80975,0.23273 4.55506,0.10665 3.81135,-0.17502 4.137,-0.14973 6.5251,0.50718 1.38245,0.38026 2.88603,0.69149 3.34129,0.6916 2.00631,0 4.59346,4.81248 6.19872,11.52945 0.44341,1.85542 0.92255,3.5909 1.06476,3.85662 0.29975,0.5601 1.35014,4.07247 2.24306,7.50057 0.34115,1.30969 0.92368,3.2653 1.29455,4.34583 0.86752,2.52749 0.8632,3.27237 -0.0228,3.96934 -0.75901,0.59706 -1.79515,1.034 -2.39644,0.23227 z M 203.27252,87.585217 c 2.16702,-1.01225 5.3439,-2.94086 6.9038,-4.19112 2.47346,-1.98248 7.43291,-8.55992 8.99745,-11.93282 0.63846,-1.37646 0.68723,-1.75098 0.69424,-5.33267 l 0.007,-3.85224 -1.32924,-2.09461 c -0.73109,-1.152047 -1.70673,-2.34899 -2.16805,-2.65988 -0.48596,-0.32748 -1.8618,-0.75243 -3.2706,-1.01017 -1.33749,-0.2447 -2.79199,-0.63116 -3.2322,-0.8588 -1.30858,-0.67669 -3.55814,-0.38207 -4.96123,0.64976 -0.63262,0.46524 -1.30791,0.84589 -1.50064,0.84589 -0.19274,0 -0.48606,0.29765 -0.65182,0.66145 -0.16574,0.36381 -0.44434,0.66146 -0.61913,0.66146 -0.63344,0 -4.31043,2.64546 -5.47073,3.93601 -0.9747,1.08409 -1.34525,1.81416 -2.05606,4.05102 -1.5839,4.98438 -1.92452,7.24582 -1.78591,11.85672 0.1346,4.47778 0.45284,5.84544 1.83148,7.87101 1.73487,2.54893 5.01017,3.08104 8.61113,1.39899 z M -145.9771,163.47794 c -0.97645,-0.36981 -0.9298,-1.0926 0.1323,-2.04985 2.95109,-2.65976 8.15612,-7.9085 8.69176,-8.76475 0.34914,-0.55812 0.95186,-1.20382 1.33939,-1.43489 0.65026,-0.38773 2.94944,-3.7629 4.85166,-7.12218 0.43656,-0.77096 1.06164,-1.73696 1.38906,-2.14667 0.32742,-0.4097 0.59531,-0.885 0.59531,-1.05621 0,-0.17122 0.23657,-0.56524 0.52573,-0.8756 0.28914,-0.31036 0.78872,-1.07695 1.11017,-1.70353 0.32146,-0.62659 0.66511,-1.19878 0.76366,-1.27154 0.0986,-0.0728 1.08964,-1.79917 2.20237,-3.83646 2.32201,-4.25131 2.0306,-3.74706 4.05191,-7.01146 2.57995,-4.16658 3.517,-5.75779 3.517,-5.97217 0,-0.11213 0.1896,-0.41338 0.42135,-0.66945 0.45341,-0.50102 0.75469,-1.01548 2.29396,-3.91715 0.54753,-1.03216 1.09101,-1.87665 1.20777,-1.87665 0.11673,0 0.41214,-0.38695 0.65648,-0.85989 0.58878,-1.13965 0.84559,-1.53917 2.5925,-4.03341 0.81592,-1.16498 1.63764,-2.41581 1.82605,-2.77961 0.18838,-0.3638 1.76463,-2.65907 3.50279,-5.10059 4.916328,-6.905775 5.867875,-8.291549 11.447515,-16.671703 1.174247,-1.763625 2.472531,-1.769202 3.206009,-0.01378 0.356023,0.852119 0.344567,0.992052 -0.144463,1.764641 -0.292126,0.461521 -0.772768,1.278668 -1.06807,1.81588 -0.295301,0.537213 -1.103577,1.751108 -1.796177,2.697547 -0.6926,0.946435 -1.675976,2.329561 -2.185299,3.073609 -1.04148,1.521468 -2.811701,3.939159 -5.151782,7.036156 -2.034723,2.69287 -3.131183,4.27666 -3.646063,5.26659 -0.45104,0.86715 -3.02009,4.40755 -3.35682,4.62599 -0.1152,0.0747 -0.30102,0.43351 -0.41294,0.79731 -0.11194,0.3638 -0.52805,1.13771 -0.92472,1.71979 -1.46185,2.14521 -3.73311,5.85565 -6.88329,11.2448 -0.12758,0.21828 -1.16144,1.97241 -2.29746,3.89807 -1.81083,3.06955 -3.52298,6.13233 -4.62465,8.27276 -0.18727,0.3638 -0.41235,0.72099 -0.50022,0.79375 -0.0878,0.0728 -0.6771,1.02526 -1.30942,2.11667 -0.63233,1.0914 -1.64984,2.75828 -2.26113,3.70416 -1.03781,1.60587 -1.57327,2.52959 -2.89505,4.99429 -0.91749,1.71083 -1.67177,2.60341 -6.81547,8.06522 -6.3577,6.75088 -8.10603,8.01717 -10.05172,7.28029 z M 19.585937,295.94443 c -2.96188,-0.5736 -9.6173183,-1.19733 -15.4781303,-1.45057 -3.63439703,-0.15704 -6.307588,-0.41632 -8.102124,-0.78586 -2.449698,-0.50445 -2.773019,-0.51803 -3.790157,-0.15917 -0.954537,0.33678 -1.235445,0.34074 -1.983978,0.028 -0.7480827,-0.31257 -0.8948997,-0.52809 -1.0332767,-1.51662 -0.281226,-2.00911 -0.225081,-15.90028 0.06882,-17.02727 0.151818,-0.58209 0.278844,-1.83264 0.28231,-2.77902 0.0034,-0.94638 0.414153,-3.74435 0.9126007,-6.21771 0.898393,-4.45789 1.291696,-7.4533 1.615255,-12.30223 0.288105,-4.31731 1.139719,-7.14375 2.152465,-7.14375 0.368406,0 0.403251,0.23186 0.248523,1.65364 -0.09895,0.90951 -0.357293,3.97537 -0.574093,6.81302 -0.216773,2.83766 -0.502841,5.75469 -0.635714,6.4823 -0.132874,0.7276 -0.248841,2.33494 -0.257731,3.57187 -0.009,1.23693 -0.194389,3.26099 -0.412274,4.49792 -0.459581,2.60904 -0.502311,3.87235 -0.138588,4.09715 0.142054,0.0878 0.838305,0.22832 1.54723,0.31228 1.170914,0.13867 1.416526,0.0649 2.681817,-0.80547 1.799166,-1.23761 2.72129197,-1.24367 4.887807,-0.0321 0.910748,0.50933 1.976199,0.92605 2.367676,0.92605 0.391452,0 2.075233,-0.31092 3.741738,-0.69094 1.712304,-0.39046 3.3203643,-0.61804 3.6977343,-0.52333 0.36727,0.0922 0.9837,0.52216 1.3698,0.95552 0.85291,0.95724 1.01846,0.96484 2.64414,0.12141 1.85582,-0.96283 3.82702,-1.14348 5.06548,-0.4642 0.62775,0.34431 1.73032,0.59405 3.09718,0.70153 1.16737,0.0918 2.5113,0.27842 2.98654,0.41472 0.69654,0.19977 1.20843,0.11591 2.64007,-0.43247 1.45531,-0.55747 2.46861,-0.71863 5.61242,-0.89261 2.11005,-0.11677 4.54385,-0.39348 5.40845,-0.61492 0.86461,-0.22144 2.9482,-0.54911 4.63021,-0.72816 2.47708,-0.26368 3.19672,-0.43891 3.78709,-0.92211 1.0152,-0.83095 2.90578,-1.08628 3.78375,-0.51102 2.28195,1.49521 -0.0243,2.77627 -5.70325,3.16796 -1.38245,0.0954 -3.28745,0.35627 -4.23334,0.5798 -0.94588,0.22354 -2.40934,0.50445 -3.25215,0.62425 -0.84278,0.11979 -1.89156,0.36661 -2.33063,0.54847 -0.64389,0.26671 -1.08144,0.26273 -2.26243,-0.0206 -1.19017,-0.28553 -1.66997,-0.2888 -2.56416,-0.0175 -4.15364,1.26012 -3.9951,1.24069 -5.97143,0.73158 -1.54339,-0.39759 -2.00649,-0.42185 -2.90634,-0.15225 -0.97264,0.29141 -1.21312,0.25667 -2.63253,-0.38033 -2.06137,-0.92509 -2.77344,-0.88595 -4.62023,0.25395 -1.85314,1.14383 -2.52312,1.09622 -4.44696,-0.316 -1.45375,-1.06715 -1.9774143,-1.07363 -5.1287603,-0.0635 -2.005886,0.64299 -3.7098925,0.46016 -5.62443303,-0.60335 l -1.391127,-0.77276 -1.30214597,0.65984 c -0.7161793,0.36291 -1.371468,0.77201 -1.456188,0.90911 -0.338164,0.54714 -1.697752,0.57246 -3.159125,0.0588 l -1.489154,-0.52339 -0.28583,0.53412 c -0.1908034,0.35655 -0.255746,2.83518 -0.195315,7.45487 0.116549,8.90708 -0.158406,8.31331 4.230502,9.13564 2.530819,0.4742 4.82806397,0.66384 10.221834,0.84386 3.826536,0.12771 7.0527023,0.29114 7.1692823,0.36318 0.11657,0.072 1.92685,0.31147 4.02286,0.53207 2.096,0.2206 4.40623,0.51305 5.13384,0.6499 0.7276,0.13685 1.8587,0.19383 2.51354,0.12663 0.65484,-0.0672 2.79797,-0.23107 4.7625,-0.36414 3.36457,-0.22791 9.42568,-0.84599 11.77396,-1.20065 2.804,-0.42349 8.1529,-1.87473 10.00546,-2.71463 1.95265,-0.88528 2.05753,-0.97564 1.88102,-1.62038 -0.2274,-0.83063 -0.16343,-3.8797 0.16701,-7.95885 0.13555,-1.67349 0.42566,-6.85271 0.64466,-11.50938 0.21899,-4.65666 0.57774,-10.13354 0.79721,-12.17083 0.21948,-2.03729 0.51991,-5.48946 0.66765,-7.67149 0.22384,-3.30584 0.35185,-4.05054 0.7678,-4.46649 0.64436,-0.64436 1.74537,-0.4049 1.96458,0.42727 0.0866,0.32902 0.23614,3.45571 0.33216,6.94821 0.17658,6.4238 -0.0472,11.30082 -0.8318,18.12396 -0.20915,1.81901 -0.50427,5.26002 -0.65579,7.64668 -0.15153,2.38667 -0.45755,5.6446 -0.68006,7.23984 -0.22249,1.59525 -0.36825,3.38785 -0.32388,3.98357 0.0745,1.00073 0.0204,1.10177 -0.7131,1.32827 -0.43657,0.13483 -1.4486,0.51416 -2.24896,0.84297 -2.02671,0.8326 -4.22365,1.485 -7.9375,2.35711 -1.52242,0.3575 -6.78921,1.05248 -13.09688,1.72819 -4.22018,0.45208 -10.48652,0.52792 -12.43541,0.1505 z M -188.86474,144.50636 c -0.68164,-0.7532 -0.52635,-2.13974 0.61853,-5.52272 0.58102,-1.71685 1.05727,-3.59858 1.05834,-4.18163 0.001,-0.58304 0.12719,-1.47601 0.28031,-1.98437 0.15311,-0.50836 0.38348,-1.46008 0.51193,-2.11492 0.21314,-1.08656 1.33285,-4.66773 1.86136,-5.95313 0.26701,-0.6494 0.61404,-1.97776 0.65666,-2.51354 0.0174,-0.21828 0.10234,-0.57547 0.18883,-0.79375 0.0865,-0.21828 0.30068,-1.17078 0.47598,-2.11666 0.1753,-0.94589 0.60605,-2.58147 0.95722,-3.63462 0.62755,-1.88195 0.63726,-2.05565 0.56605,-10.12006 -0.0744,-8.422293 -0.15507,-8.996296 -1.06866,-7.601989 -0.34887,0.532447 -0.5944,1.269806 -1.51694,4.555619 -0.12257,0.43657 -0.30444,1.42901 -0.40415,2.20543 -0.20301,1.58075 -1.53984,3.49745 -2.06975,2.96753 -0.153,-0.15299 -0.47975,-0.27817 -0.72611,-0.27817 -0.90383,0 -0.90039,-0.63532 0.0322,-5.95312 0.28073,-1.60073 0.60255,-3.50573 0.71517,-4.233334 l 0.20475,-1.322917 1.98363,-0.358338 c 1.09099,-0.197088 2.16222,-0.447109 2.3805,-0.555604 0.79378,-0.394544 1.09807,-3.114813 1.20212,-10.746775 0.0557,-4.085061 0.17606,-7.62231 0.26748,-7.860551 0.11532,-0.300516 -0.0823,-0.584271 -0.64516,-0.926597 -0.44626,-0.271389 -1.12984,-0.960861 -1.51907,-1.53216 -1.09772,-1.611202 -2.47765,-4.417343 -2.47908,-5.04131 -7.9e-4,-0.30965 -0.17587,-0.980837 -0.38925,-1.491525 -0.33551,-0.80299 -0.77162,-5.214549 -1.03928,-10.513182 -0.0938,-1.856592 0.29845,-5.341181 0.77434,-6.879167 0.20263,-0.654844 0.79042,-2.8575 1.3062,-4.894792 0.51579,-2.037292 1.15375,-3.995873 1.4177,-4.352401 0.69483,-0.938541 2.82707,-2.337769 4.10369,-2.692948 0.60575,-0.168529 2.17292,-0.308451 3.4826,-0.310944 2.73015,-0.0052 4.63224,0.583923 6.28386,1.946225 0.89795,0.740654 0.99219,0.940414 0.99219,2.103141 0,0.706615 0.14882,1.4453 0.33073,1.641523 1.06514,1.149006 1.64109,2.279674 1.66082,3.260453 0.0118,0.586234 0.11526,1.217665 0.22991,1.403178 0.19946,0.322723 0.01,3.080739 -0.28241,4.10601 -0.27895,0.978887 -0.6253,-0.02529 -0.72232,-2.094246 -0.0983,-2.095449 -0.3353,-3.290837 -0.65228,-3.289485 -0.0922,2.65e-4 -0.19846,1.518439 -0.2362,3.373438 -0.0377,1.854996 -0.13997,4.534807 -0.22717,5.955133 -0.14255,2.321827 -0.11481,2.565625 0.27494,2.416064 0.29936,-0.114874 0.38092,-0.340865 0.26358,-0.730327 -0.14155,-0.469844 -0.10974,-0.506645 0.19056,-0.22048 0.25629,0.244237 0.34553,0.970595 0.3088,2.513542 -0.10126,4.253905 -0.19184,5.21275 -0.49247,5.21275 -0.17645,0 -0.30583,0.511386 -0.31704,1.253172 -0.0146,0.963888 -0.1464,1.3378 -0.57108,1.619771 -0.30367,0.201631 -0.55212,0.512218 -0.55212,0.690195 0,0.17798 -0.24546,0.545727 -0.54545,0.817221 -0.34024,0.307909 -0.49369,0.691568 -0.40787,1.019747 0.34623,1.323978 -2.83232,4.06995 -6.00398,5.186892 l -1.35424,0.476911 0.12087,1.281068 c 0.17973,1.904846 0.14645,7.139982 -0.072,11.335232 -0.24,4.607864 -0.1683,4.751392 2.57417,5.152678 1.01865,0.14905 2.86412,0.632328 4.10105,1.073952 3.7251,1.329986 8.93361,2.543352 15.34583,3.574936 3.11729,0.501502 3.90301,1.244381 2.64583,2.501561 -0.64979,0.64979 -2.37026,0.70627 -4.05815,0.13322 -0.64143,-0.21777 -2.2827,-0.6278 -3.64727,-0.91117 -1.36457,-0.28337 -3.75456,-0.818289 -5.31109,-1.188705 -1.55652,-0.37042 -3.01504,-0.602499 -3.24114,-0.515734 -0.2261,0.08676 -0.4111,0.03996 -0.4111,-0.104021 0,-0.399987 -4.74259,-1.873176 -6.76188,-2.10044 -1.8819,-0.211802 -1.84055,-0.453541 -1.76638,10.32821 0.0544,7.90424 0.1314,9.60764 0.45036,9.9601 0.21163,0.23384 0.64442,1.01613 0.96178,1.73841 0.31734,0.72229 0.85767,1.64981 1.20072,2.06116 0.34306,0.41134 0.62374,0.95414 0.62374,1.2062 0,0.25206 0.1748,0.68941 0.38846,0.97189 0.21365,0.28247 0.39224,0.80279 0.39687,1.15626 0.008,0.64537 0.54523,2.41733 0.80719,2.66462 0.44726,0.4222 3.69914,10.33049 3.69914,11.27104 0,0.36382 0.16737,0.98513 0.37192,1.3807 0.50411,0.97484 0.24726,2.1438 -0.53652,2.44179 -0.78605,0.29886 -1.35533,0.0883 -1.56738,-0.57986 -0.0905,-0.28528 -0.54628,-1.19702 -1.01275,-2.02608 -0.46646,-0.82906 -1.10373,-2.28129 -1.41615,-3.22717 -0.31241,-0.94589 -0.87818,-2.55323 -1.25726,-3.57188 -0.37907,-1.01865 -1.03345,-2.86411 -1.45416,-4.10104 -1.48701,-4.37194 -1.86509,-5.38589 -2.54116,-6.81498 -0.62153,-1.3138 -0.71353,-1.3998 -1.0192,-0.95262 -0.3088,0.45178 -0.52439,1.30955 -0.85505,3.40197 -0.12536,0.79333 -0.21154,1.04076 -0.96755,2.77813 -0.22163,0.50932 -0.7211,2.35479 -1.10994,4.10104 -0.95979,4.31035 -1.82248,7.8216 -2.48569,10.11696 -0.3043,1.05319 -0.55327,2.15627 -0.55327,2.45129 0,0.56166 -1.3809,1.58419 -2.14181,1.58597 -0.23211,5.3e-4 -0.61906,-0.21674 -0.8599,-0.48287 z m 12.77585,-72.078122 c 0.59547,-0.618464 1.15325,-1.422136 1.2395,-1.785938 0.0863,-0.363802 0.5605,-1.702458 1.05389,-2.974795 0.49337,-1.272336 0.89705,-2.663568 0.89705,-3.09163 0,-0.428061 0.1254,-1.10812 0.27866,-1.511239 0.63215,-1.662668 1.01966,-6.233687 1.03069,-12.15793 l 0.0114,-6.109549 -0.94383,-1.211456 c -0.51911,-0.666298 -1.33565,-1.397381 -1.81454,-1.624629 -0.47888,-0.227245 -1.01105,-0.582282 -1.18259,-0.788972 -0.64149,-0.772948 -1.50636,-0.722325 -2.89385,0.169387 -0.73437,0.471958 -1.28991,0.997079 -1.23456,1.166937 0.0554,0.169857 -0.0653,0.37253 -0.26821,0.450381 -0.20288,0.07785 -0.66719,0.614117 -1.03181,1.191697 -1.80775,2.863665 -3.11994,10.184762 -2.51939,14.056381 0.12415,0.800365 0.35849,3.122084 0.52075,5.159376 0.33655,4.225668 1.02065,6.625137 2.37717,8.337883 0.52298,0.66031 1.15465,1.140788 1.62287,1.234435 0.42164,0.08433 0.8307,0.257006 0.90902,0.38373 0.2932,0.474409 0.89709,0.197213 1.94781,-0.894069 z m 5.83627,-4.283864 c 0,-0.06417 -0.11906,-0.190262 -0.26458,-0.280199 -0.14552,-0.08994 -0.26458,-0.03743 -0.26458,0.116676 0,0.154109 0.11906,0.280199 0.26458,0.280199 0.14552,0 0.26458,-0.0525 0.26458,-0.116676 z m 1.31171,-3.549869 c 0.56404,-1.893933 0.70957,-3.870577 0.30344,-4.121574 -0.13031,-0.08054 -0.296,0.299387 -0.3682,0.84428 -0.0722,0.544894 -0.32277,1.824107 -0.55682,2.8427 -0.49846,2.169303 -0.50456,2.249056 -0.17217,2.249056 0.13937,0 0.49655,-0.81651 0.79375,-1.814462 z M 68.805317,260.01782 c -0.483335,0 0.34155,-1.21708 0.5375,-1.65364 0.19592,-0.43657 0.71442,-1.7077 1.1522,-2.82475 0.98055,-2.50196 3.09693,-6.3527 4.8458,-8.81692 1.47933,-2.08444 4.00177,-6.61621 4.46659,-8.02467 0.32652,-0.98935 0.2196,-15.49538 -0.11669,-15.83167 -0.2859,-0.28589 -3.66993,1.16664 -6.14214,2.63642 -1.78864,1.06337 -3.090627,2.16398 -5.72818,4.84224 l -3.41339,3.46607 -1.15911,-0.26524 c -0.729881,-0.16702 -1.67992,-0.17683 -2.56558,-0.0265 -1.28442,0.21803 -1.44812,0.32729 -1.88595,1.25887 -0.38984,0.82948 -0.58786,0.99423 -1.05953,0.88158 -0.88783,-0.21204 -2.82826,-0.93809 -4.15195,-1.55352 -0.65484,-0.30447 -2.136369,-0.0833 -2.24895,-0.65721 l -1.05834,-0.10363 -0.75366,1.56446 c -0.414516,0.86046 -0.75441,1.84627 -0.75534,2.1907 0,0.34444 0.0206,1.51922 0.0478,2.61063 0.10311,4.14123 -1.49614,13.87516 -2.50671,15.2572 -0.33055,0.45203 -0.39378,0.45309 -1.29861,0.0216 -1.10786,-0.5283 -1.1821,-1.01019 -0.56798,-3.68686 0.8994,-3.9203 1.73136,-10.43296 1.66667,-13.04715 -0.0761,-3.0754 1.491129,-3.44182 1.70921,-4.93611 l 0.82962,-0.3929 -1.84904,-1.47533 c -1.490444,-1.18921 -1.98689,-1.78244 -2.55968,-3.05882 -0.97637,-2.17561 -1.15512,-3.69745 -0.57735,-4.91501 0.25172,-0.5305 0.562,-0.96454 0.6895,-0.96454 0.12748,0 0.57661,-0.76048 0.99807,-1.68995 1.57442,-3.47232 5.16432,-7.85526 7.26807,-8.87367 0.61585,-0.29813 1.61682,-1.06364 2.22438,-1.70112 1.21965,-1.2797 2.16863,-1.60073 3.57992,-1.21106 1.41068,0.38951 2.074801,8.06745 4.06577,4.96982 l 1.46802,3.00767 -0.68776,1.26361 c -0.378263,0.69497 -0.68773,1.58537 -0.68773,1.97866 0,0.69423 0.0327,0.7096 1.12448,0.52777 0.61846,-0.10301 2.07698,-0.57957 3.24114,-1.05902 3.18244,-1.31066 5.74607,-1.62331 8.90098,-1.08554 1.3979,0.23829 3.107084,0.76274 3.14463,0.43324 h 0.60298 l -0.1593,-3.77031 c -0.08761,-2.07367 -0.30655,-4.69831 -0.48657,-5.83254 -0.3102,-1.95459 -0.39029,-2.11838 -1.53479,-3.1382 -2.73106,-2.43354 -2.85311,-2.58957 -3.33513,-4.26266 -0.57722,-2.00349 -0.5905,-5.32005 -0.0326,-8.1317 0.90464,-4.55901 2.3363,-6.76205 5.24169,-8.06591 2.06676,-0.92751 3.91967,-0.80318 5.60993,0.37643 1.68918,1.17884 4.6002,4.26856 5.05558,5.36587 0.70858,1.70756 0.4127,5.11985 -0.64889,7.48298 -0.26149,0.58208 -0.62833,1.57165 -0.81521,2.19904 -0.18687,0.62738 -0.54274,1.24932 -0.79081,1.38208 -0.24805,0.13276 -0.52896,0.55195 -0.62423,0.93153 -0.23964,0.95473 -1.33202,1.84753 -3.12823,2.55671 -2.6312,1.03883 -2.66887,1.095 -2.33661,3.4839 0.15703,1.12901 0.28808,3.26452 0.2912,4.74557 0.003,1.48106 0.17968,5.43128 0.39235,8.77826 0.21267,3.34697 0.46641,8.41811 0.56388,11.26918 0.17341,5.07299 0.16428,5.20677 -0.42754,6.25976 -0.6037,1.07412 -0.60383,1.07728 -0.0893,1.82769 0.47255,0.68917 0.99309,1.85469 2.99451,6.70483 1.87105,4.53427 2.53111,5.94831 3.22127,6.90104 0.8345,1.15202 0.93673,1.70097 0.35806,1.92303 -0.79946,0.30678 -1.96916,-0.39428 -2.73132,-1.63705 -0.69559,-1.13422 -3.22926,-6.45265 -3.22926,-6.77855 0,-0.0776 -0.55304,-1.33255 -1.22897,-2.78887 -0.99237,-2.13807 -1.29831,-2.59029 -1.58911,-2.34894 -1.27024,1.0542 -7.18056,11.20767 -8.19095,14.07139 -0.67691,1.91863 -1.04923,2.29962 -2.24726,2.29962 -1.07164,0 -0.01429,-0.8599 -0.89204,-0.8599 z m -12.36129,-28.13109 c 0.19008,-0.86261 0.76632,-2.92633 1.28054,-4.58604 0.76874,-2.48129 0.88283,-3.13192 0.64198,-3.66053 -0.24905,-0.54662 -0.19317,-0.76138 0.37314,-1.43442 0.5293,-0.62903 0.66604,-1.08098 0.66604,-2.20131 0,-1.38958 -0.0169,-1.41968 -1.18219,-2.10257 -0.65021,-0.38104 -1.53051,-1.19603 -1.95627,-1.81108 -0.42574,-0.61505 -1.382537,-1.24014 -1.43825,-1.73584 l -0.66416,-0.61757 -1.04084,0.94033 c -0.572461,0.51718 -1.73197,2.01548 -2.5767,3.32954 -0.84474,1.31408 -1.63491,2.38923 -1.75591,2.38923 -0.64593,0 -2.08568,5.44612 -2.08568,7.88939 0,1.50551 0.91667,2.17103 4.6287,3.36055 1.68235,0.53911 3.32343,1.20076 3.64683,1.47033 0.3234,0.26956 0.70707,0.45598 0.85259,0.41425 0.14552,-0.0417 0.42011,-0.78164 0.61018,-1.64426 z m 9.26979,-3.31693 c 4.182947,-3.98567 8.56699,-6.90655 10.93465,-7.28515 1.45856,-0.23323 1.24811,-0.55579 -0.50785,-0.77834 -2.13521,-0.27061 -4.97583,0.20439 -8.53281,1.42685 -2.60607,0.89565 -3.03432,1.12247 -2.98429,1.58061 0.0832,0.76187 -1.531431,2.59383 -1.88306,1.16525 l -1.28204,0.0831 -0.92316,2.97448 c -0.507738,1.63597 -0.85426,3.15402 -0.77007,3.37344 0.10888,0.28371 1.269374,1.33271 1.50855,0.39896 h 1.35543 z m -2.21748,-6.07353 c -0.0832,-0.13468 -0.38282,-0.36877 -0.66577,-0.52019 -0.42825,-0.2292 -0.51443,-0.18837 -0.51443,0.24376 0,0.28549 0.20836,0.56639 0.46303,0.62422 0.58277,0.13234 0.9145,-0.0285 0.71717,-0.34779 z m 16.01772,-1.29044 c 0,-0.31217 -0.51604,-0.64611 -0.70556,-0.45659 -0.18952,0.18953 0.14443,0.70556 0.45659,0.70556 0.13695,0 0.24897,-0.11204 0.24897,-0.24897 z m -18.5498,-4.87549 c 0.23299,-0.28075 0.0124,-0.91572 -0.98264,-2.82984 -1.55967,-2.99998 -1.94717,-3.31147 -2.84088,-2.28355 -0.81611,0.93867 -0.81275,1.57149 0.0159,2.98541 1.17298,2.00154 3.04451,3.04749 3.80765,2.12798 z m 21.43844,-11.83789 c 1.70826,-0.58548 2.25441,-1.06119 3.41284,-2.97259 2.71647,-4.48217 2.95399,-9.78019 0.53729,-11.98472 -0.34158,-0.31159 -2.478995,-0.0187 -2.97143,-1.27603 l -2.35038,-0.7095 -1.04478,1.01145 c -0.57463,0.5563 -1.358,1.54137 -1.7408,2.18905 -0.61534,1.04114 -0.69234,1.4397 -0.66445,3.43958 0.0375,2.68401 0.56883,5.3758 1.54077,7.80533 0.64837,1.62063 0.67239,1.80618 0.2888,2.23007 -0.31774,0.35108 -0.34449,0.53631 -0.11113,0.76965 0.3375,0.33751 0.93536,0.24074 3.10327,-0.50229 z m -42.13511,49.43278 -0.74961,-0.59986 0.54843,-2.37539 c 0.30159,-1.30646 0.66368,-3.6344 0.80462,-5.1732 0.14092,-1.5388 0.38029,-3.12413 0.53192,-3.52296 0.15163,-0.39882 0.27569,-1.94253 0.27569,-3.43045 0,-5.18722 1.57242,-8.70651 3.55084,-7.94732 0.54603,0.20953 0.52713,0.79471 -0.0908,2.81017 -0.27977,0.91256 -0.63301,3.14749 -0.78502,4.9665 -0.3725,4.45778 -0.9589,8.81642 -1.63745,12.17083 -0.80317,3.9704 -1.01994,4.245 -2.44867,3.10168 z m 8.62095,0.15946 c -0.8097,-0.56481 -0.75739,-1.21589 0.36367,-4.52853 l 0.95896,-2.83365 -0.17566,-3.30729 c -0.162651,-3.06236 -0.12835,-3.4456 0.46323,-5.17486 0.96078,-2.8084 1.40973,-3.55639 2.1345,-3.55639 1.25667,0 1.39322,0.62363 0.68699,3.13784 -0.56316,2.00494 -0.63217,2.72629 -0.56092,5.86506 0.0646,2.84417 -0.0135,3.87624 -0.3807,5.02708 -0.25408,0.79648 -0.54938,1.56721 -0.65625,1.71273 -0.10687,0.14552 -0.27443,0.75081 -0.37235,1.34509 -0.20706,1.25676 -1.04785,2.76213 -1.53154,2.74207 -0.18404,-0.008 -0.60251,-0.20075 -0.92993,-0.42915 z M -167.60678,55.56105 c 0,-0.764352 0.11024,-1.058333 0.39687,-1.058333 0.28663,0 0.39688,0.293981 0.39688,1.058333 0,0.764352 -0.11025,1.058333 -0.39688,1.058333 -0.28663,0 -0.39687,-0.293981 -0.39687,-1.058333 z"
       id="path41" />
  </g>
</svg>
