<?xml version="1.0" encoding="UTF-8" standalone="no"?>
<!-- Created with Inkscape (http://www.inkscape.org/) -->

<svg
   width="196.77554mm"
   height="173.16039mm"
   viewBox="0 0 196.77554 173.16039"
   version="1.1"
   id="svg5"
   xmlns="http://www.w3.org/2000/svg"
   xmlns:svg="http://www.w3.org/2000/svg">
  <defs
     id="defs2" />
  <g
     id="layer1"
     transform="translate(154.9469,-84.610747)">
    <path
       style="fill:#041;stroke-width:0.264583"
       d="m -59.729898,257.47767 c -2.729945,-0.33254 -8.910506,-0.86434 -10.980209,-0.94477 -5.731825,-0.22276 -14.767939,-1.77759 -19.953595,-3.4334 -0.860777,-0.27485 -1.829433,-0.49973 -2.152568,-0.49973 -0.323133,0 -0.928548,-0.17786 -1.345364,-0.39524 -0.416817,-0.21739 -0.95114,-0.39598 -1.187384,-0.39688 -0.755875,-0.003 -9.006182,-2.81984 -11.609002,-3.96377 -2.57881,-1.13336 -5.72035,-2.68287 -7.56023,-3.72893 -0.5713,-0.32482 -1.75311,-0.97273 -2.62623,-1.43982 -0.87313,-0.46708 -2.01932,-1.13379 -2.54711,-1.48157 -0.88409,-0.58257 -3.33629,-2.15407 -4.59664,-2.94576 -0.29105,-0.18282 -0.5887,-0.39824 -0.66146,-0.47871 -0.0728,-0.0805 -0.9062,-0.77929 -1.85209,-1.55293 -2.91201,-2.38175 -7.40833,-6.88204 -7.40833,-7.41488 0,-0.12897 -0.0965,-0.27418 -0.21448,-0.32269 -0.36791,-0.15128 -2.9487,-3.65797 -3.52839,-4.79427 -0.30348,-0.59487 -0.71658,-1.24638 -0.918,-1.4478 -0.20142,-0.20141 -0.36621,-0.49231 -0.36621,-0.64644 0,-0.15413 -0.41729,-0.86107 -0.92732,-1.57098 -0.79979,-1.11326 -4.09977,-7.53011 -4.09977,-7.97207 0,-0.0859 -0.36846,-0.96815 -0.8188,-1.96057 -0.45035,-0.99241 -1.03049,-2.28064 -1.28922,-2.86273 -0.25873,-0.58208 -0.90229,-1.97962 -1.43015,-3.10565 -0.52786,-1.12602 -0.95974,-2.11566 -0.95974,-2.1992 0,-0.0835 -0.30726,-0.82911 -0.68281,-1.65685 -0.37554,-0.82773 -0.7894,-1.74309 -0.91968,-2.03413 -0.28732,-0.64182 -1.84378,-5.38552 -2.60439,-7.9375 -0.72473,-2.43163 -1.5763,-6.56626 -1.81224,-8.79904 -0.34479,-3.26281 -0.12816,-9.26309 0.43696,-12.10304 1.22129,-6.13746 1.6491,-7.60819 4.34838,-14.94896 1.84867,-5.02751 2.14553,-5.79782 2.75304,-7.14375 0.29558,-0.65485 0.867,-1.96453 1.26983,-2.91042 0.40283,-0.94588 1.01164,-2.32697 1.35291,-3.06908 0.34127,-0.74211 0.6205,-1.41705 0.6205,-1.49987 0,-0.19658 2.193,-4.90463 3.23284,-6.94042 1.05202,-2.05966 4.48338,-7.53051 5.89118,-9.39271 0.60506,-0.80037 1.56174,-2.16959 2.12594,-3.04271 0.5642,-0.87313 1.29882,-1.94469 1.63247,-2.38125 0.66693,-0.87263 0.88741,-1.16911 2.45944,-3.30729 1.18772,-1.61547 6.16106,-6.7253 7.80917,-8.02349 0.58208,-0.4585 2.08972,-1.69828 3.3503,-2.75507 1.26059,-1.05679 2.40687,-1.92144 2.5473,-1.92144 0.14042,0 0.4101,-0.1865 0.59928,-0.41445 0.62085,-0.74809 4.01097,-2.797049 8.46064,-5.113553 7.430596,-3.868373 12.131475,-5.961444 15.601856,-6.946739 0.509323,-0.144605 1.759479,-0.540819 2.778125,-0.880476 1.824842,-0.608475 5.969384,-1.653244 8.914119,-2.247099 0.832485,-0.167885 3.435223,-0.284609 5.820834,-0.261045 2.373275,0.02344 5.148485,-0.07548 6.167131,-0.219821 8.469855,-1.200187 18.213237,-1.733721 19.513021,-1.068504 1.040106,0.532317 0.274241,0.676269 -3.439583,0.646504 -5.012643,-0.04017 -10.82837,0.421543 -14.099988,1.119415 -0.648835,0.138403 -1.86431,0.331638 -2.701055,0.429409 -0.836744,0.09777 -1.521354,0.296285 -1.521354,0.441141 0,0.144856 -0.229608,0.1905 -0.510243,0.10143 -0.463701,-0.147173 -2.422951,0.260445 -6.360438,1.323277 -0.795698,0.21478 -2.14388,0.390509 -2.995962,0.390509 -1.332529,0 -1.536957,-0.06477 -1.461432,-0.463021 0.05653,-0.298072 0.369771,-0.486993 0.879295,-0.530311 1.602494,-0.136239 5.826276,-0.945813 6.069926,-1.163424 0.651293,-0.581694 -3.846507,-0.02524 -8.049768,0.995894 -1.531708,0.372109 -2.963514,0.718796 -3.181795,0.770416 -4.092755,0.967852 -16.143659,5.912976 -17.350519,7.119834 -0.2279,0.227899 -0.70725,0.414362 -1.06522,0.414362 -0.35798,0 -0.71427,0.165233 -0.79177,0.367185 -0.0775,0.201951 -0.46234,0.431472 -0.85521,0.510046 -0.39287,0.07857 -0.99879,0.38959 -1.34649,0.691148 -0.34769,0.301558 -0.7691,0.548287 -0.93644,0.548287 -0.16735,0 -0.77421,0.338717 -1.34858,0.752704 -0.57437,0.413987 -1.57496,1.039062 -2.22354,1.389062 -0.64857,0.35 -1.37627,0.82827 -1.6171,1.06283 -0.24083,0.23456 -0.8115,0.64719 -1.26817,0.91694 -0.45666,0.26976 -0.8303,0.58387 -0.8303,0.69801 0,0.11415 -0.15753,0.20754 -0.35007,0.20754 -0.19254,0 -0.9875,0.59531 -1.76659,1.32291 -0.77909,0.72761 -1.50262,1.32292 -1.60785,1.32292 -0.21388,0 -0.72641,0.47586 -4.95607,4.60139 -1.62488,1.58488 -3.46186,3.54941 -4.08218,4.36562 -0.62032,0.81622 -1.24692,1.6132 -1.39244,1.77108 -0.14552,0.15788 -0.50271,0.61291 -0.79375,1.01118 -0.29105,0.39828 -0.85659,1.07169 -1.25677,1.49648 -0.40019,0.4248 -0.72761,0.95203 -0.72761,1.17163 0,0.21961 -0.0893,0.40065 -0.19844,0.40232 -0.10914,0.002 -0.41787,0.46132 -0.68608,1.02145 -0.26821,0.56013 -0.77422,1.32747 -1.12448,1.70521 -0.35026,0.37774 -0.63683,0.81105 -0.63683,0.96293 0,0.15187 -0.099,0.27613 -0.21988,0.27613 -0.12093,0 -0.37917,0.29765 -0.57387,0.66146 -0.1947,0.3638 -0.51951,0.66145 -0.72179,0.66145 -0.20228,0 -0.29177,0.12299 -0.19887,0.2733 0.17452,0.28238 0.0682,0.48285 -2.21593,4.1779 -0.74873,1.21123 -1.36133,2.27464 -1.36133,2.36315 0,0.0885 -0.6091,1.41922 -1.35355,2.95714 -0.74445,1.53792 -1.81601,3.75317 -2.38125,4.92277 -0.56523,1.1696 -1.0277,2.33046 -1.0277,2.57969 0,0.24922 -0.0992,0.45314 -0.22049,0.45314 -0.12126,0 -0.22054,0.14883 -0.22061,0.33073 -1.5e-4,0.3507 -0.51007,1.59993 -1.53901,3.77031 -0.34494,0.7276 -0.83302,1.97776 -1.08462,2.77812 -0.51575,1.6407 -0.80297,2.4235 -1.31058,3.57188 -0.19297,0.43656 -0.43409,1.09141 -0.53583,1.45521 -0.10174,0.3638 -0.39538,1.13771 -0.65255,1.71979 -0.46947,1.06261 -0.63822,1.64553 -1.60851,5.55625 -1.68522,6.79222 -2.07347,9.6268 -1.95696,14.2875 0.0509,2.03729 0.23229,4.59713 0.40302,5.68854 0.17073,1.09141 0.35725,2.32117 0.41449,2.73281 0.0573,0.41164 0.17783,0.86775 0.26796,1.01359 0.0901,0.14583 0.31776,0.8806 0.50585,1.63281 0.58885,2.35493 1.45433,5.31408 1.71554,5.86558 0.13784,0.29104 0.50802,1.30308 0.82262,2.24896 0.31459,0.94589 0.65973,1.83886 0.76698,1.98438 0.10724,0.14552 0.34542,0.73113 0.52929,1.30137 0.18387,0.57023 0.56833,1.43344 0.85437,1.91823 0.28603,0.48479 0.44271,0.88144 0.34817,0.88144 -0.0945,0 0.118,0.38695 0.47232,0.85989 0.35432,0.47295 0.73147,1.15756 0.83812,1.52136 0.18737,0.63915 2.07388,5.19837 2.50726,6.05941 0.11707,0.23258 0.95652,1.93596 1.86545,3.78528 0.90893,1.84931 1.84909,3.57572 2.08924,3.83645 0.24014,0.26074 0.60167,0.87594 0.80338,1.36711 0.20172,0.49118 0.88192,1.59284 1.51156,2.44814 0.62963,0.8553 1.14479,1.7149 1.14479,1.91022 0,0.19532 0.25357,0.58194 0.56349,0.85915 0.30991,0.27722 0.83113,0.92075 1.15826,1.43007 0.99285,1.54583 5.36214,6.27153 6.68065,7.2256 0.44055,0.31879 1.67703,1.24833 2.74774,2.06566 3.82545,2.92017 12.87478,8.21308 16.8957,9.88222 0.94588,0.39266 2.3151,0.98785 3.0427,1.32265 1.87267,0.8617 11.698445,3.84554 12.663367,3.84554 0.238432,0 0.433512,0.10358 0.433512,0.23017 0,0.1266 0.506016,0.298 1.124479,0.38089 0.618464,0.0829 2.255573,0.46532 3.638021,0.84982 1.382448,0.38451 3.108854,0.80774 3.836459,0.94052 0.727604,0.13277 1.865794,0.35332 2.52931,0.4901 0.663515,0.13678 1.85414,0.32202 2.645834,0.41165 0.791691,0.0896 1.677564,0.21097 1.968606,0.26966 0.291041,0.0587 1.898385,0.17307 3.571875,0.25419 4.197339,0.20347 6.35217,0.36785 11.1125,0.8477 4.01587,0.40481 15.804368,0.55264 19.050001,0.2389 0.800364,-0.0774 2.586302,-0.21414 3.96875,-0.30393 7.953976,-0.51663 25.267436,-4.35025 33.851163,-7.49546 1.2284023,-0.45011 2.4487929,-0.81838 2.71197928,-0.81838 0.26318899,0 0.47852543,-0.0901 0.47852543,-0.20016 0,-0.11009 0.50601564,-0.35511 1.12447921,-0.54448 2.72863478,-0.83552 8.27569068,-3.35141 9.98157308,-4.5272 0.367348,-0.2532 1.739469,-1.08199 3.049156,-1.84177 5.525204,-3.20528 9.282769,-6.39573 13.279089,-11.27493 1.353474,-1.65248 3.786537,-5.02659 3.786537,-5.25107 0,-0.071 0.515808,-1.00221 1.146244,-2.06926 1.111716,-1.88165 1.533633,-2.72354 3.889438,-7.76092 1.512512,-3.23418 3.042537,-7.95079 4.119772,-12.7 0.908603,-4.00576 1.146998,-8.86568 0.636297,-12.97152 -0.144328,-1.16036 -0.318527,-3.11133 -0.387107,-4.33552 -0.06858,-1.22418 -0.186542,-2.71246 -0.262139,-3.30729 -0.07559,-0.59483 -0.203898,-1.91494 -0.285123,-2.93359 -0.156297,-1.96017 -0.768164,-5.5509 -1.172225,-6.87916 -0.241859,-0.79507 -0.782387,-2.82358 -0.951506,-3.57085 -0.04953,-0.21885 -0.211174,-0.79826 -0.359214,-1.28758 -0.148042,-0.48933 -0.25473,-0.96558 -0.237088,-1.05834 0.01765,-0.0928 -0.03137,-0.34724 -0.108908,-0.56553 -0.07754,-0.21828 -0.269139,-0.99218 -0.425775,-1.71979 -0.772435,-3.58813 -1.191406,-5.4187 -1.544185,-6.74687 -0.444148,-1.67216 -1.77323,-5.42855 -2.50381,-7.07651 -0.443053,-0.9994 -1.189477,-3.34708 -2.208546,-6.94641 -0.185407,-0.65484 -0.602623,-1.905 -0.927153,-2.77812 -0.32453,-0.87313 -0.654759,-1.87391 -0.733846,-2.22396 -0.07909,-0.35005 -0.422598,-1.12395 -0.763357,-1.71979 -0.34076,-0.59583 -0.620996,-1.23954 -0.622748,-1.43045 -0.0019,-0.19091 -0.310448,-1.02435 -0.68599,-1.85209 -0.375542,-0.82773 -0.790525,-1.74309 -0.922181,-2.03413 -0.13166,-0.29104 -0.633096,-1.5412 -1.114301,-2.77813 -1.402517,-3.60513 -2.822668,-6.15645 -6.378649,-11.45931 -1.835616,-2.73736 -3.337484,-5.08885 -3.337484,-5.22552 0,-0.13668 -0.116004,-0.2485 -0.257789,-0.2485 -0.141785,0 -0.429146,-0.32742 -0.638585,-0.7276 -0.209439,-0.40019 -1.164995,-1.54007 -2.123461,-2.53308 -0.958466,-0.993 -1.7474407,-1.88597 -1.7532774,-1.98437 -0.00583,-0.0984 -0.6219587,-0.65516 -1.3691659,-1.23724 -0.7472045,-0.58208 -2.0389136,-1.68628 -2.870462,-2.45377 -1.3559526,-1.25149 -4.89088128,-4.028522 -5.12797442,-4.028522 -0.0514853,0 -0.71134025,-0.415702 -1.46634469,-0.923782 -1.55273379,-1.044913 -5.71114519,-3.098387 -8.86689949,-4.378582 -1.1641671,-0.472268 -2.2297761,-0.960718 -2.3680211,-1.085444 -0.138245,-0.124727 -0.465666,-0.226776 -0.727604,-0.226776 -0.261938,0 -0.47625,-0.09355 -0.47625,-0.207886 0,-0.114338 -0.208359,-0.220497 -0.463021,-0.235909 -0.254661,-0.01541 -2.427552,-0.47244 -4.828646,-1.015618 -4.814734,-1.089196 -6.599783,-1.452375 -7.830294,-1.593124 -2.440659,-0.279167 -7.679042,-1.251697 -7.949041,-1.475776 -0.20733,-0.172069 -0.373322,-0.162502 -0.491252,0.02831 -0.09796,0.158507 -0.376452,0.227898 -0.618868,0.154203 -0.242414,-0.0737 -1.69091,-0.206493 -3.218879,-0.295105 -1.527969,-0.08861 -3.313906,-0.206115 -3.96875,-0.26112 -0.654844,-0.055 -1.743435,-0.105644 -2.419088,-0.112533 -0.8392,-0.0086 -1.276721,-0.138284 -1.38076,-0.409401 -0.119838,-0.312294 0.07481,-0.396875 0.91335,-0.396875 0.782097,0 1.012774,0.088 0.866949,0.330729 -0.148299,0.246843 -0.101928,0.260609 0.182822,0.05427 0.209836,-0.152051 0.9173,-0.255611 1.572144,-0.230134 4.364262,0.169794 7.949811,0.441953 8.817065,0.669253 0.556522,0.14586 1.687616,0.322184 2.513542,0.39183 0.825926,0.06965 1.799341,0.201267 2.163143,0.292491 0.363802,0.09122 0.750755,0.146329 0.859896,0.122459 0.109141,-0.02387 0.198438,0.08368 0.198438,0.239011 0,0.16418 0.226769,0.210439 0.541665,0.110495 0.603255,-0.191466 3.95128,0.279035 5.080731,0.713999 0.400182,0.154115 0.727604,0.399405 0.727604,0.545089 0,0.160765 0.140869,0.147971 0.358383,-0.03255 0.388477,-0.322408 1.762686,-0.127244 4.404117,0.62547 0.800364,0.228075 1.901693,0.486793 2.447396,0.574929 0.545703,0.08814 0.992187,0.263632 0.992187,0.389992 0,0.126361 0.230278,0.229746 0.511728,0.229746 0.451292,0 2.005182,0.580939 4.6876339,1.752525 0.4585547,0.200278 1.0095231,0.364142 1.2243727,0.364142 0.2148522,0 0.5388583,0.178594 0.7200159,0.396875 0.1811576,0.218281 0.4568931,0.396875 0.6127459,0.396875 0.499364,0 4.2402153,1.896486 5.50724937,2.79199 0.67386467,0.476267 1.56683343,1.047145 1.98437503,1.268616 0.4175443,0.221472 1.0636198,0.69164 1.4357218,1.044819 0.3721048,0.353179 0.9376517,0.78188 1.2567709,0.952669 0.3191219,0.170788 0.5802207,0.476905 0.5802207,0.68026 0,0.203355 0.2159265,0.438269 0.4798351,0.52203 0.2639087,0.0838 0.9337173,0.56803 1.4884639,1.07616 0.5547466,0.50813 1.0840879,0.92387 1.1763137,0.92387 0.092223,0 0.3163941,0.23812 0.4981522,0.52916 0.1817582,0.29105 0.5106062,0.52917 0.7307739,0.52917 0.2201678,0 0.5359268,0.29766 0.7016856,0.66146 0.1657615,0.3638 0.4678914,0.66146 0.6714014,0.66146 0.203512,0 0.31192,0.094 0.240906,0.20891 -0.07101,0.1149 0.19921,0.42958 0.600498,0.69928 0.401288,0.26971 0.983668,0.86031 1.294175,1.31245 0.31051,0.45213 1.041908,1.35785 1.625336,2.01269 0.583424,0.65484 1.06621,1.30969 1.072853,1.45521 0.0066,0.14552 0.307682,0.54497 0.66897,0.88767 0.361286,0.34269 0.656887,0.74228 0.656887,0.88796 0,0.14569 0.357187,0.71587 0.79375,1.26708 0.436562,0.5512 0.79375,1.07946 0.79375,1.1739 0,0.0944 0.47625,0.80251 1.058333,1.57347 0.582083,0.77096 1.058333,1.52984 1.058333,1.68639 0,0.15655 0.09167,0.32433 0.203719,0.37284 0.289711,0.12542 2.177531,3.03429 2.177531,3.35527 0,0.14685 0.148829,0.42893 0.33073,0.62686 0.480049,0.52233 0.990893,1.47061 1.000461,1.85716 0.0045,0.18387 0.301119,0.92963 0.65904,1.65723 0.35792,0.72761 0.651854,1.50747 0.653185,1.73302 0.0013,0.22556 0.105825,0.52322 0.232211,0.66146 0.126384,0.13825 0.443111,0.84667 0.703831,1.57427 0.260724,0.72761 0.767088,1.97776 1.125258,2.77813 1.200782,2.68327 2.759617,6.72815 3.415874,8.86354 0.83694,2.72332 0.769043,2.46825 1.005221,3.77617 0.112262,0.62169 0.307538,1.19427 0.433943,1.27239 0.126407,0.0781 0.23387,0.34338 0.238807,0.58945 0.0049,0.24607 0.239022,0.92366 0.52019,1.50574 0.281167,0.58208 0.515252,1.21856 0.520189,1.41439 0.0049,0.19582 0.178091,0.67207 0.384789,1.05833 0.796629,1.48867 1.719077,4.70931 3.08084,10.75645 0.589862,2.61937 1.356421,5.83406 1.70347,7.14375 1.454824,5.49023 1.70235,6.75537 1.863315,9.52363 0.09303,1.59997 0.208356,2.97248 0.256272,3.05001 0.04792,0.0775 0.165227,1.3283 0.260694,2.77949 0.09546,1.45119 0.321443,3.65056 0.502174,4.88749 0.639961,4.37988 0.02614,11.04509 -1.535049,16.66875 -1.116708,4.02255 -1.774097,5.93508 -2.773796,8.06979 -0.40889,0.87313 -0.889704,2.03399 -1.068478,2.57969 -0.178773,0.5457 -0.415028,0.99219 -0.52501,0.99219 -0.109982,0 -0.203568,0.14883 -0.20797,0.33073 -0.01125,0.4643 -1.945804,4.39952 -2.642286,5.37483 -0.317746,0.44496 -0.655121,1.1174 -0.749726,1.49432 -0.0946,0.37693 -0.371356,0.90545 -0.615013,1.17449 -0.243655,0.26904 -0.670269,0.84636 -0.948031,1.28292 -1.676088,2.63432 -8.456243,10.18646 -9.145191,10.18646 -0.13706,0 -0.610492,0.35317 -1.052071,0.78483 -0.441579,0.43166 -0.802873,0.72931 -0.802873,0.66146 0,-0.0679 -0.238125,0.11475 -0.529166,0.40579 -0.291042,0.29104 -0.672328,0.52917 -0.847299,0.52917 -0.174975,0 -0.709639,0.37946 -1.188144,0.84324 -0.478504,0.46379 -1.134679,0.88364 -1.458163,0.93301 -0.323485,0.0494 -0.860383,0.3455 -1.193107,0.65808 -0.332724,0.31258 -0.608574,0.45828 -0.613,0.32377 -0.0044,-0.13451 -0.129403,-0.0362 -0.277731,0.21846 -0.148325,0.25466 -0.412596,0.46567 -0.587266,0.46891 -0.17467,0.003 -0.615238,0.23871 -0.979041,0.52328 -0.363802,0.28457 -0.859895,0.52004 -1.102431,0.52328 -0.242533,0.003 -0.480658,0.11214 -0.529167,0.24201 -0.11844,0.31712 -3.5383865,2.14512 -4.0132157,2.14512 -0.2066952,0 -0.5240285,0.1786 -0.7051861,0.39688 -0.1811575,0.21828 -0.6166432,0.39687 -0.9677479,0.39687 -0.3511021,0 -0.9020705,0.17117 -1.2243727,0.38037 -0.5891927,0.38244 -2.56522279,1.11052 -3.51531247,1.29524 -0.28065148,0.0546 -0.93358763,0.28711 -1.45096713,0.51676 -0.5173821,0.22964 -1.2626472,0.49834 -1.6561462,0.5971 -0.3934989,0.0988 -0.780886,0.28545 -0.8608616,0.41484 -0.079973,0.1294 -0.4062703,0.23389 -0.7251038,0.23219 -0.3188335,-0.002 -1.4726656,0.28807 -2.5640719,0.64393 -2.3192582,0.75621 -5.0832305,1.58412 -5.3357645,1.59825 -0.09701,0.005 -0.265684,0.0992 -0.374825,0.2083 -0.109141,0.10914 -0.565547,0.19917 -1.014238,0.20007 -0.448688,7.9e-4 -1.151107,0.17652 -1.560928,0.39028 -0.409818,0.21375 -1.419122,0.46143 -2.242894,0.55038 -0.823772,0.089 -1.737492,0.29003 -2.030495,0.44684 -0.292999,0.15681 -0.771977,0.3169 -1.064395,0.35576 -0.292417,0.0389 -1.126982,0.18847 -1.854586,0.33248 -0.727604,0.144 -1.858698,0.33695 -2.513542,0.42876 -0.654844,0.0918 -1.905,0.33038 -2.778125,0.53014 -0.873125,0.19976 -1.766094,0.35856 -1.984375,0.35288 -0.218281,-0.006 -0.964147,0.0729 -1.657482,0.17462 -1.710942,0.251 -2.704534,0.33616 -6.41231,0.54962 -1.74625,0.10053 -3.277089,0.24311 -3.401867,0.31684 -0.550534,0.32532 -15.234635,0.25894 -18.029383,-0.0815 z m -21.700547,-23.11382 c -0.917038,-0.38202 -1.318204,-1.52515 -1.318204,-3.75623 0,-1.78575 0.08058,-2.14954 0.588817,-2.65837 l 0.588817,-0.58949 -0.830734,-0.69353 c -0.825418,-0.68909 -0.828664,-0.70173 -0.507698,-1.9764 0.610119,-2.42301 0.981316,-3.04631 1.814171,-3.04631 0.977162,0 1.44689,0.45642 1.112592,1.08106 -0.470596,0.87931 -0.769234,1.82936 -0.575046,1.82936 0.106397,0 0.341654,-0.33482 0.522796,-0.74405 0.815528,-1.84241 2.199531,-2.41249 3.266511,-1.34551 0.487418,0.48741 0.533313,0.7412 0.370822,2.05052 -0.227103,1.82991 -1.799439,7.14672 -2.593634,8.77029 -0.611039,1.24915 -1.299326,1.55352 -2.43921,1.07866 z m 1.328217,-4.25539 c 0.362852,-1.06683 0.621543,-1.97788 0.574865,-2.02455 -0.04668,-0.0467 -0.41811,0.26297 -0.82541,0.6881 -0.822672,0.85868 -1.370031,2.9249 -0.858568,3.24101 0.395579,0.24448 0.353748,0.31631 1.109113,-1.90456 z m 1.190037,-4.264 c 0,-0.46917 -0.0653,-0.50737 -0.396875,-0.23219 -0.218281,0.18116 -0.396875,0.43387 -0.396875,0.56157 0,0.1277 0.178594,0.23218 0.396875,0.23218 0.228119,0 0.396875,-0.23878 0.396875,-0.56156 z m 40.117397,7.62988 c -0.255747,-0.187 -0.52881,-0.81579 -0.606806,-1.3973 -0.140875,-1.0503 -0.133327,-1.06108 1.142029,-1.63071 0.706112,-0.31539 1.538747,-0.64301 1.850302,-0.72804 0.358355,-0.0978 0.771467,-0.63116 1.124479,-1.45176 0.729285,-1.69527 0.709253,-1.77022 -0.256034,-0.95798 -1.079426,0.90827 -2.155807,0.89695 -2.885234,-0.0304 -1.683544,-2.14028 1.442403,-4.91417 3.47458,-3.08327 0.291827,0.26293 0.494549,0.29999 0.610928,0.11168 0.276588,-0.44753 1.077365,-0.32811 1.588707,0.23691 0.478546,0.52879 0.469905,0.90595 -0.0679,2.96348 -0.203517,0.77861 -0.168857,1.05427 0.17666,1.40499 0.397597,0.4036 0.347308,0.50959 -0.670237,1.41259 -0.605049,0.53694 -1.415606,1.46876 -1.801236,2.07072 -0.87167,1.36065 -2.601518,1.86785 -3.68024,1.07906 z m 1.752917,-1.08663 c 0.546391,-0.41477 0.61709,-1.21919 0.107154,-1.21919 -0.498645,0 -1.319644,0.96646 -1.109644,1.30625 0.224295,0.36292 0.433673,0.34474 1.00249,-0.0871 z m 1.47601,-6.7276 c 0.07787,-0.54957 -0.005,-0.60482 -0.79375,-0.52917 -0.688848,0.0661 -0.899639,0.21813 -0.967645,0.69809 -0.07787,0.54956 0.005,0.60481 0.79375,0.52916 0.688848,-0.0661 0.899639,-0.21813 0.967645,-0.69808 z m -54.814691,3.17248 c -0.503415,-0.55627 -0.558089,-1.9983 -0.142158,-3.74948 0.155535,-0.65485 0.360984,-2.02406 0.456554,-3.04271 l 0.173763,-1.85208 h 1.058333 1.058333 l 0.07953,1.37614 0.07952,1.37615 1.570591,-0.0435 c 0.886568,-0.0246 1.70266,0.0885 1.873837,0.25971 0.512776,0.51278 0.04683,1.09536 -1.009883,1.26267 -0.553352,0.0876 -1.39275,0.21859 -1.865331,0.29105 -1.039077,0.15932 -1.654304,1.17155 -1.654304,2.72181 0,0.96335 -0.506405,1.88412 -1.036225,1.88412 -0.112572,0 -0.401725,-0.21773 -0.642559,-0.48385 z m 16.853255,-0.0573 c -0.312531,-0.11856 -0.642821,-0.33624 -0.733976,-0.48373 -0.250243,-0.4049 1.48499,-6.94865 1.883114,-7.10142 0.190479,-0.0731 0.656111,-0.0551 1.034743,0.0399 0.606526,0.15223 0.675609,0.2825 0.580734,1.09516 -0.08838,0.75705 -0.03404,0.88995 0.303178,0.74148 0.921483,-0.40573 2.05477,-0.41506 2.207067,-0.0182 0.151556,0.39495 -0.08916,0.62601 -2.348968,2.25478 -0.821039,0.59177 -1.163939,1.07272 -1.42204,1.99457 -0.403172,1.43999 -0.737312,1.76827 -1.503852,1.47747 z m -22.973814,-0.51075 c -0.4719,-0.52145 -0.478835,-2.09815 -0.01421,-3.22832 0.143306,-0.34857 0.06838,-0.4139 -0.349425,-0.30464 -0.695542,0.18189 -1.872247,-0.68561 -1.882889,-1.38812 -0.0046,-0.30193 0.289343,-1.42411 0.653145,-2.49374 0.363803,-1.06962 0.661459,-2.18431 0.661459,-2.47709 0,-0.48268 -0.07402,-0.46141 -0.79375,0.22814 l -0.79375,0.76046 v 4.04223 c 0,3.84881 -0.02686,4.05661 -0.561401,4.34268 -1.530542,0.81913 -2.344582,-2.62659 -1.717612,-7.27043 0.18097,-1.34047 0.36885,-1.72652 1.311273,-2.69447 1.749986,-1.79738 3.1887,-2.14294 4.299053,-1.03259 0.759767,0.75977 0.71872,1.51796 -0.22688,4.19058 -0.591442,1.67163 -0.461748,2.01428 0.765775,2.02311 1.150054,0.008 1.287661,0.62773 0.660218,2.97202 -0.777232,2.90394 -1.126022,3.30809 -2.011019,2.33018 z m 52.370312,0.041 c -0.986769,-0.61555 -1.708468,-1.67245 -1.708468,-2.50198 0,-0.38321 -0.303943,-0.84572 -0.79375,-1.20785 -1.123625,-0.83073 -1.060918,-1.45384 0.132292,-1.31454 0.809733,0.0945 0.926041,0.0352 0.926041,-0.47224 0,-0.31919 0.345424,-0.95013 0.767612,-1.40208 0.680688,-0.72868 0.934194,-0.82173 2.23865,-0.82173 1.172568,0 1.5805,0.11749 2.010514,0.57906 0.647332,0.69483 0.648348,0.7089 0.126484,1.755 -0.37986,0.76144 -0.981832,1.28635 -2.36627,2.06332 -0.326649,0.18333 -0.496461,0.51128 -0.445254,0.8599 0.04553,0.30995 -0.0508,0.56355 -0.214053,0.56355 -0.163256,0 -0.217281,0.12871 -0.120057,0.28603 0.09722,0.15731 0.461438,0.21457 0.809363,0.12725 0.710316,-0.17828 1.955511,0.0636 1.955511,0.37984 0,0.11363 -0.208359,0.45755 -0.46302,0.76427 -0.668327,0.80497 -1.880823,0.95026 -2.855595,0.3422 z m 1.943541,-5.79731 c 0.08713,-0.57935 -0.502666,-0.93985 -1.138467,-0.69587 -0.388086,0.14892 -0.552516,1.17476 -0.238617,1.48866 0.305583,0.30558 1.297805,-0.26564 1.377084,-0.79279 z m -10.687799,4.82377 c -0.399399,-0.60956 -0.399878,-0.71263 -0.0061,-1.31361 0.541526,-0.82645 0.535827,-0.93535 -0.04893,-0.93535 -1.291738,0 -1.421037,-1.17419 -0.30752,-2.79263 1.125932,-1.63649 2.617733,-2.29707 3.585261,-1.58758 0.482724,0.35399 0.457515,0.41307 -0.552532,1.29492 -1.104263,0.96412 -1.111438,0.92731 0.264583,1.35719 0.79983,0.24988 0.311833,1.88321 -1.12895,3.77862 -0.784543,1.03209 -1.227659,1.08079 -1.805798,0.19844 z m 32.79483,0.3991 c -0.73815,-0.29788 -1.417373,-1.28231 -1.417373,-2.05427 0,-0.7113 1.022554,-2.77885 1.903299,-3.84838 0.358746,-0.43564 1.030118,-0.83553 1.62905,-0.97032 0.948963,-0.21357 1.089504,-0.16277 2.050085,0.74104 1.171863,1.1026 1.273797,1.74113 0.53504,3.35158 -0.646229,1.40874 -1.735645,2.44731 -2.908988,2.77323 -1.106191,0.30726 -1.04793,0.30703 -1.791113,0.007 z m 2.265379,-2.28406 c 1.052272,-1.33774 1.374706,-3.87843 0.424735,-3.3468 -0.505552,0.28292 -1.93173,2.52295 -2.143495,3.36669 -0.353206,1.40728 0.604869,1.3962 1.71876,-0.0199 z m 15.7267992,-0.16556 c -0.2895415,-0.32743 -0.7297605,-0.92274 -0.9782598,-1.32292 -0.248502,-0.40018 -0.6327723,-0.72761 -0.8539322,-0.72761 -0.2211626,0 -0.9749049,0.53579 -1.6749872,1.19063 -0.7000796,0.65484 -1.459148,1.19062 -1.6868167,1.19062 -0.7670615,0 -1.2901163,-0.33309 -1.5351707,-0.97763 l -0.2436654,-0.64089 -0.6345688,0.73773 c -0.5581624,0.64891 -0.7251834,0.70587 -1.3871414,0.47307 -0.944412,-0.33214 -1.035968,-0.80685 -0.506736,-2.62735 0.479661,-1.64997 1.138831,-2.20257 1.9918844,-1.66983 0.294394,0.18385 0.53526,0.48423 0.53526,0.66751 0,0.18983 0.3239241,0.33323 0.7527423,0.33323 0.4140094,0 0.9627791,0.23208 1.2194884,0.51574 0.462452,0.51101 0.4734111,0.51083 1.1910166,-0.0197 0.3983514,-0.29452 1.2033912,-0.59974 1.7889803,-0.67829 0.9525768,-0.12777 1.1797771,-0.0388 2.1572829,0.84427 0.6009164,0.54289 1.09257313,1.20432 1.09257313,1.46984 0,0.26552 0.1190625,0.55634 0.26458334,0.64628 0.14552084,0.0899 0.26458334,0.39462 0.26458334,0.67708 0,0.72367 -1.08970501,0.67296 -1.75711651,-0.0818 z M -59.111596,209.08912 c -0.04903,-0.0422 -1.934605,-0.14338 -4.190178,-0.22479 -2.255573,-0.0814 -4.279635,-0.21329 -4.497916,-0.29306 -0.218282,-0.0798 -2.22259,-0.38174 -4.45402,-0.67106 -2.23143,-0.28931 -4.434086,-0.63804 -4.894792,-0.77495 -0.460706,-0.13691 -1.730616,-0.45602 -2.822022,-0.70914 -3.628306,-0.8415 -9.767266,-2.98124 -12.594088,-4.38968 -5.036516,-2.50941 -12.756168,-9.36577 -16.937478,-15.04333 -4.12656,-5.60324 -5.42966,-7.49425 -5.83442,-8.46667 -0.0909,-0.21828 -0.42809,-0.99219 -0.74941,-1.71979 -2.14575,-4.85891 -3.5521,-12.48606 -3.56873,-19.35453 -0.005,-1.99735 0.77258,-7.64698 1.3052,-9.48505 0.1265,-0.43657 0.43739,-1.71649 0.69086,-2.84427 0.25347,-1.12779 0.53616,-2.05053 0.62821,-2.05053 0.0921,0 0.19263,-0.30538 0.22352,-0.67861 0.0309,-0.37325 0.34295,-1.41504 0.69346,-2.31511 0.35051,-0.90007 0.77522,-2.07711 0.9438,-2.61566 0.16859,-0.53854 0.57288,-1.37198 0.89843,-1.85208 0.32555,-0.4801 0.6717,-1.08127 0.76922,-1.33593 0.0975,-0.25466 0.30012,-0.46302 0.45021,-0.46302 0.15008,0 0.27288,-0.19333 0.27288,-0.42962 0,-0.43488 3.16305,-5.42471 3.94253,-6.2195 0.2327,-0.23727 0.83982,-0.94036 1.34914,-1.56242 0.50932,-0.62205 1.26656,-1.49948 1.68275,-1.94984 0.41619,-0.45036 1.0142,-1.11649 1.3289,-1.48029 0.78202,-0.90401 2.9655,-2.64583 3.31673,-2.64583 0.15741,0 0.2862,-0.099 0.2862,-0.21988 0,-0.12093 0.32742,-0.38543 0.72761,-0.58778 0.400178,-0.20235 0.906194,-0.52812 1.124475,-0.72393 0.519838,-0.46633 4.474893,-3.23091 4.622187,-3.23091 0.06258,0 0.684503,-0.38517 1.382048,-0.85594 0.697545,-0.47077 1.923902,-1.18776 2.725243,-1.59331 0.801338,-0.40555 1.920243,-1.02059 2.486451,-1.36676 0.566211,-0.34616 2.233086,-1.13407 3.704167,-1.75092 1.471083,-0.61685 3.179416,-1.34304 3.796292,-1.61377 0.616878,-0.27072 1.279123,-0.49222 1.471657,-0.49222 0.192535,0 0.842926,-0.23812 1.445311,-0.52917 0.602387,-0.29104 1.199536,-0.52916 1.326999,-0.52916 0.12746,0 0.964284,-0.29766 1.859605,-0.66146 1.74601,-0.70947 4.403564,-0.8994 5.367346,-0.3836 0.736722,0.39428 0.376439,0.77509 -0.768025,0.81178 -0.537114,0.0172 -1.333759,0.11557 -1.770321,0.21856 -0.436563,0.10299 2.778125,0.19074 7.14375,0.19499 4.365625,0.004 9.187656,0.088 10.715625,0.18619 1.527969,0.0982 4.124116,0.23145 5.769216,0.29623 1.6451,0.0648 3.10705,0.18945 3.248774,0.27704 0.141727,0.0876 0.700736,0.20256 1.242242,0.25548 1.129459,0.11039 3.845341,0.55434 4.821019,0.78807 0.363802,0.0872 1.078177,0.2225 1.5875,0.30077 0.509323,0.0783 1.104635,0.207 1.322916,0.28607 0.218282,0.0791 0.635,0.17794 0.926042,0.21972 2.236944,0.32112 2.96808,0.50487 3.358129,0.84397 0.24624,0.21408 0.602173,0.33775 0.790961,0.27482 0.188788,-0.0629 1.297006,0.2337 2.462705,0.65916 1.165701,0.42547 2.83383,1.00293 3.706955,1.28324 0.873125,0.28031 1.766094,0.58974 1.984375,0.68763 0.218282,0.0979 0.515938,0.18792 0.661459,0.20008 0.145521,0.0122 0.383646,0.0918 0.529166,0.17698 0.145521,0.0852 0.596017,0.23413 1.001099,0.33102 0.405085,0.0969 1.417116,0.48822 2.248959,0.86963 0.831844,0.38142 1.676831,0.72708 1.877753,0.76814 0.200919,0.0411 0.492622,0.20196 0.648229,0.35757 0.155604,0.1556 0.433115,0.28292 0.616688,0.28292 0.183573,0 2.034995,0.81922 4.114271,1.82049 2.0792759,1.00127 5.0604238,2.43213 6.6247728,3.1797 1.564349,0.74756 2.8442709,1.47615 2.8442709,1.61909 0,0.14294 0.089297,0.24035 0.1984375,0.21648 0.45794349,-0.10016 1.62619271,0.38398 1.75848968,0.72874 0.0787215,0.20515 0.33016032,0.373 0.55874972,0.373 0.4702652,0 3.1030784,1.70138 2.918476,1.88598 -0.065884,0.0659 0.3513534,0.41097 0.9271953,0.76687 0.5758418,0.35588 1.0469854,0.73802 1.0469854,0.84919 0,0.11117 0.148881,0.20212 0.3308455,0.20212 0.1819672,0 0.8201528,0.44649 1.4181906,0.99219 0.5980403,0.5457 1.4623415,1.27877 1.9206739,1.62904 0.4583297,0.35026 0.7885217,0.68166 0.7337527,0.73642 -0.05477,0.0548 0.271505,0.48435 0.725043,0.95463 1.599489,1.65851 3.338161,3.65213 3.338161,3.82764 0,0.0977 0.316175,0.44929 0.702612,0.78135 0.386437,0.33205 0.618545,0.60373 0.515797,0.60373 -0.102746,0 0.354984,0.75927 1.01718,1.68725 0.662197,0.92799 1.207302,1.79119 1.211345,1.91823 0.004,0.12704 0.353025,0.57004 0.77552,0.98446 0.474697,0.46561 0.707416,0.91179 0.609145,1.16788 -0.104936,0.27345 -0.05374,0.34934 0.150521,0.2231 0.198057,-0.12241 0.309547,0.005 0.309547,0.35347 0,0.29963 0.138906,0.54478 0.308681,0.54478 0.169773,0 0.233495,0.0752 0.1416,0.16708 -0.0919,0.0919 -0.02691,0.41932 0.144407,0.7276 0.171315,0.30829 0.291269,0.63458 0.266563,0.72509 -0.02471,0.0905 0.244845,0.96345 0.599003,1.93986 0.354158,0.97641 0.721958,2.36354 0.817335,3.08252 0.09537,0.71897 0.289491,1.37897 0.431366,1.46665 0.159703,0.0987 0.143163,0.23038 -0.04341,0.34569 -0.215953,0.13347 -0.06431,1.11643 0.535027,3.46803 0.728318,2.85769 0.840541,3.76104 0.868439,6.99056 0.03289,3.80795 -0.443166,8.72182 -0.898083,9.26996 -0.140753,0.16959 -0.188034,0.37624 -0.105071,0.4592 0.210711,0.21071 -0.729973,3.10776 -1.009103,3.10776 -0.125325,0 -0.203549,0.14883 -0.173834,0.33073 0.09963,0.60986 -1.29966,3.63191 -2.542064,5.4901 -0.437832,0.65485 -1.081344,1.71404 -1.430025,2.35376 -0.698873,1.28222 -1.292709,1.95306 -2.121498,2.39662 -0.300609,0.16088 -0.51798,0.39826 -0.48305,0.52752 0.09773,0.36163 -1.913022,2.39502 -2.368357,2.39502 -0.249404,0 -0.344855,0.15118 -0.250573,0.39688 0.102608,0.26739 -0.01254,0.39687 -0.352954,0.39687 -0.277887,0 -0.577991,0.1177 -0.666896,0.26155 -0.0945,0.1529 0.0364,0.19889 0.315113,0.1107 0.433044,-0.13703 0.430425,-0.11304 -0.02855,0.26156 -0.277921,0.22683 -0.847516,0.71732 -1.265767,1.08999 -0.418248,0.37266 -0.8756913,0.60634 -1.0165369,0.51929 -0.1408457,-0.087 -0.3719751,0.14656 -0.5136224,0.51912 -0.1416474,0.37255 -0.4331653,0.67737 -0.6478165,0.67737 -0.2146511,0 -0.4854892,0.16101 -0.6018609,0.3578 -0.1163717,0.19678 -0.7567481,0.65929 -1.4230589,1.0278 -2.3144745,1.28003 -2.4938461,1.39433 -2.7042772,1.72326 -0.1163717,0.1819 -0.3312636,0.33073 -0.4775359,0.33073 -0.2394188,0 -2.39498988,0.91052 -2.98978117,1.2629 -0.13162492,0.078 -0.15436321,0.004 -0.0505301,-0.16369 0.10383309,-0.168 0.0626983,-0.30546 -0.0914109,-0.30546 -0.15410922,0 -0.28019905,0.17859 -0.28019905,0.39687 0,0.21828 -0.15059026,0.39688 -0.33464766,0.39688 -0.18405476,0 -0.80913292,0.25842 -1.38906252,0.57426 -0.579927,0.31584 -1.3097008,0.55634 -1.6217134,0.53445 -0.3120152,-0.0219 -0.7135468,0.1364 -0.8922941,0.35178 -0.1787472,0.21537 -0.5842582,0.39159 -0.9011364,0.39159 -0.3168809,0 -0.6892555,0.10136 -0.8275003,0.22524 -0.1382448,0.12389 -1.0252604,0.43025 -1.9711459,0.68082 -0.9458854,0.25057 -2.3151038,0.67077 -3.0427088,0.93378 -0.727604,0.26302 -1.821981,0.56125 -2.431949,0.66275 -0.609968,0.1015 -1.557877,0.41337 -2.106465,0.69306 -0.548587,0.27968 -1.193826,0.50852 -1.433864,0.50852 -0.240038,0 -1.316191,0.27878 -2.391452,0.6195 -1.075262,0.34073 -2.609864,0.7024 -3.410228,0.80371 -0.800365,0.10131 -1.812396,0.29355 -2.248959,0.42721 -0.688906,0.21091 -5.069115,0.95584 -7.011458,1.19242 -0.363802,0.0443 -1.375834,0.16497 -2.248959,0.26813 -0.873125,0.10316 -2.182812,0.29746 -2.910416,0.43178 -2.141387,0.3953 -2.501448,0.44767 -5.953126,0.86582 -0.509323,0.0617 -1.997604,0.24946 -3.307291,0.41723 -2.118421,0.27137 -12.384612,0.60633 -12.610865,0.41146 z m 11.884022,-1.6535 c 6.315978,-0.71888 7.487394,-0.87394 14.485176,-1.91739 3.929063,-0.58588 7.977188,-1.2573 8.995834,-1.49206 1.018646,-0.23476 2.328333,-0.51596 2.910417,-0.62488 1.497324,-0.28019 3.392268,-0.82334 3.704167,-1.06174 0.14552,-0.11122 0.62177,-0.28367 1.058333,-0.3832 1.060095,-0.24171 5.378342,-1.5728 9.1281252,-2.81373 11.5751534,-3.8306 18.9889188,-8.98235 24.2099688,-16.82324 1.585195,-2.38062 4.100449,-7.19849 4.100449,-7.85424 0,-0.19713 0.0821,-0.44053 0.182456,-0.54088 0.376505,-0.3765 1.401676,-5.95982 1.571546,-8.55899 0.177403,-2.71444 -0.11449,-5.94447 -0.831951,-9.20612 -0.192058,-0.87313 -0.432429,-2.36141 -0.534159,-3.30729 -0.555903,-5.16885 -1.792089,-8.4599 -5.018101,-13.35949 -0.436562,-0.66304 -1.119269,-1.58957 -1.517129,-2.05896 -0.397856,-0.46938 -0.725278,-1.00226 -0.727604,-1.18416 -0.0024,-0.1819 -0.104587,-0.33073 -0.227253,-0.33073 -0.122666,0 -0.904708,-0.8632 -1.737873,-1.91822 -1.324264,-1.67691 -4.3413632,-4.48942 -7.297074,-6.80226 -1.562616,-1.22275 -4.45673971,-3.18577 -4.69684645,-3.18577 -0.12476427,0 -0.34693226,-0.12008 -0.49370457,-0.26685 -0.14677232,-0.14678 -1.74816298,-0.9823 -3.55864598,-1.85673 -1.8104829,-0.87443 -3.3314747,-1.70684 -3.3799807,-1.84981 -0.048509,-0.14297 -0.2508594,-0.25994 -0.4496726,-0.25994 -0.1988106,0 -1.8259982,-0.69275 -3.6159707,-1.53944 -1.789972,-0.84669 -4.087934,-1.88085 -5.10658,-2.29812 -1.018646,-0.41728 -1.971146,-0.84187 -2.116667,-0.94355 -0.145521,-0.10168 -0.681302,-0.26697 -1.190625,-0.36733 -0.840301,-0.16557 -2.790232,-0.86053 -7.672917,-2.73465 -2.859892,-1.09771 -5.775373,-1.83428 -10.186458,-2.57352 -1.309688,-0.21948 -3.631407,-0.62591 -5.159376,-0.90317 -3.917402,-0.71085 -11.952764,-1.09661 -21.828125,-1.04794 -4.656667,0.0229 -8.942917,0.0214 -9.525001,-0.003 -1.105797,-0.0472 -4.101041,0.75633 -4.101041,1.10015 0,0.10917 -0.227574,0.19849 -0.505722,0.19849 -0.278146,0 -1.49093,0.42169 -2.695078,0.93709 -2.898566,1.24062 -10.557534,5.17311 -10.557534,5.42074 0,0.10727 -0.20836,0.26499 -0.463021,0.3505 -0.417729,0.14026 -0.986491,0.47138 -1.771497,1.03131 -1.158745,0.82652 -3.10134,2.16675 -3.983191,2.74806 -0.582083,0.3837 -1.236927,0.85788 -1.455208,1.05371 -0.218281,0.19585 -1.123222,0.94289 -2.010972,1.66011 -1.72509,1.39369 -4.76098,4.64642 -5.87844,6.29831 -0.37406,0.55295 -0.8239,1.15104 -0.99964,1.32908 -0.17575,0.17804 -0.59531,0.77336 -0.93236,1.32292 -0.33706,0.54956 -0.71152,1.11827 -0.83213,1.26379 -2.8302,3.41459 -6.52623,13.64297 -7.49453,20.74035 -0.0673,0.49313 -0.19177,1.00898 -0.27667,1.14634 -0.16524,0.26736 -0.14723,7.83282 0.0213,8.93726 0.19438,1.27405 0.67434,4.10596 0.78474,4.63021 0.74986,3.56074 2.41669,8.90907 3.30681,10.61047 0.77844,1.48793 3.4673,5.46464 4.45413,6.58745 0.25579,0.29104 0.91125,1.15908 1.45657,1.92898 1.42842,2.01668 3.59624,4.57764 4.40085,5.19894 0.38119,0.29435 1.58604,1.39226 2.67745,2.4398 1.091407,1.04754 2.460626,2.22245 3.042709,2.6109 0.582083,0.38845 1.415521,1.03879 1.852083,1.4452 0.436563,0.40641 1.27,0.99113 1.852084,1.29939 0.582083,0.30825 1.236927,0.67674 1.455208,0.81887 1.719472,1.11957 9.053235,3.7585 13.493751,4.8555 3.089314,0.7632 10.728928,1.89578 16.007292,2.3731 2.547064,0.23033 12.8416,0.0536 15.677325,-0.26921 z m -12.36876,-14.85429 c -0.657119,-0.65711 -0.797666,-1.01655 -0.810268,-2.07214 -0.01545,-1.29364 -0.145828,-2.84176 -0.298175,-3.5403 -0.06032,-0.27661 0.172191,-0.38266 0.838962,-0.38266 0.719341,0 0.940049,0.1165 1.00249,0.52917 0.298932,1.97556 0.503561,2.065 1.228638,0.53701 0.60415,-1.27315 1.260991,-1.59022 2.020396,-0.97529 l 0.592873,0.48007 -1.561973,3.00026 c -0.859087,1.65014 -1.709563,3.04945 -1.889948,3.10958 -0.180385,0.0601 -0.685734,-0.24843 -1.122995,-0.6857 z m -17.663185,-0.0284 c -0.539744,-0.44973 -0.609523,-0.79379 -0.735904,-3.62864 -0.07679,-1.72249 -0.194225,-3.56206 -0.260971,-4.08793 -0.09548,-0.75232 0.03903,-1.17532 0.631026,-1.98438 1.186484,-1.62152 1.775507,-2.02113 3.177701,-2.15586 1.645071,-0.15808 2.414643,0.47851 2.414643,1.99736 0,1.47323 -1.98904,4.65514 -2.981912,4.77023 -0.445609,0.0517 -0.742469,-0.0497 -0.775031,-0.26458 -0.02902,-0.19157 -0.118322,1.01134 -0.198438,2.67313 -0.08011,1.66179 -0.264723,3.05655 -0.410244,3.09947 -0.145521,0.0429 -0.532911,-0.14555 -0.86087,-0.4188 z m 2.759184,-8.52855 c 0.04993,-0.45605 0.214559,-0.97833 0.36585,-1.16062 0.436761,-0.52627 -0.105706,-0.64687 -0.717129,-0.15943 -0.940052,0.74943 -1.454997,1.77732 -1.266545,2.52817 l 0.172342,0.68668 0.677354,-0.53281 c 0.407308,-0.32039 0.713545,-0.86338 0.768128,-1.36199 z m 57.986302,8.44753 c -0.832853,-0.70175 -1.596565,-2.1335 -1.404715,-2.63345 0.135538,-0.35321 0.733965,-0.79065 1.977393,-1.44543 0.643183,-0.3387 0.645181,-0.34836 0.07224,-0.34995 -0.335407,-0.001 -0.776055,-0.28679 -1.022972,-0.66363 -0.41185,-0.62856 -0.398663,-0.73213 0.261115,-2.05052 1.178274,-2.35448 2.503562,-3.55352 3.398361,-3.07464 0.388533,0.20793 0.628722,0.16589 1.006766,-0.17624 0.571998,-0.51764 1.69344,-0.35833 1.936512,0.27511 0.142944,0.3725 -0.108365,2.06426 -0.525195,3.53551 -0.163991,0.57882 -0.133387,0.6019 0.411382,0.31035 0.323705,-0.17324 0.7578435,-0.25002 0.964753,-0.17062 0.5982335,0.22956 0.4374118,0.84189 -0.3106315,1.18272 -1.3306165,0.60627 -2.3938735,1.62339 -3.0041455,2.8738 -1.443791,2.95822 -2.378686,3.5516 -3.760867,2.38699 z m 1.34075,-2.1974 c 0.54243,-0.91935 0.366228,-0.97114 -0.569635,-0.16743 -0.48859,0.41959 -0.628224,1.10937 -0.224573,1.10937 0.131149,0 0.48854,-0.42387 0.794208,-0.94194 z m 0.980948,-2.43555 c 0.374888,-0.24803 1.2403,-1.92347 1.077574,-2.08619 -0.06756,-0.0676 -0.489032,0.41975 -0.936599,1.08292 -0.767919,1.13784 -0.811331,1.44678 -0.140975,1.00327 z m -39.32607,4.21941 c -0.484918,-0.39266 -0.617151,-0.8227 -0.720048,-2.34171 -0.13811,-2.03888 0.01363,-2.26722 1.338345,-2.01399 0.694081,0.13268 0.710835,0.18142 0.710835,2.06778 0,2.81562 -0.216731,3.18869 -1.329132,2.28792 z m -17.526519,-0.77714 c -1.767136,-1.8445 7.4e-5,-5.4918 2.569432,-5.30298 0.950341,0.0698 1.082225,0.16181 1.156396,0.80643 0.04605,0.40018 0.245465,0.7276 0.443148,0.7276 0.453628,0 2.003677,2.82284 1.817074,3.30912 -0.161134,0.4199 -0.733579,0.26117 -1.680157,-0.46587 l -0.659133,-0.50626 -0.796076,0.93315 c -1.116115,1.3083 -1.937451,1.45202 -2.850684,0.49881 z m 2.327868,-2.99197 c 0.220982,-0.42734 0.282725,-0.77698 0.137205,-0.77698 -0.240263,0 -1.071923,1.33624 -1.071923,1.72227 0,0.35041 0.554863,-0.21074 0.934718,-0.94529 z m 18.804263,2.59838 c -0.654336,-0.5851 -0.664083,-0.64827 -0.480002,-3.11077 0.183716,-2.45762 0.202139,-2.51196 0.828062,-2.44257 0.881983,0.0978 1.34421,0.53942 1.34421,1.28434 0,0.71333 0.251767,0.75207 1.648251,0.25361 0.797809,-0.28478 1.074425,-0.28816 1.444376,-0.0177 0.424482,0.31039 0.409181,0.3777 -0.211513,0.93057 -0.368001,0.32779 -1.196565,0.79014 -1.841251,1.02744 -0.969881,0.35701 -1.187273,0.56295 -1.259772,1.19343 -0.04818,0.41908 -0.248904,0.92326 -0.446037,1.12039 -0.301508,0.30151 -0.464478,0.26359 -1.026324,-0.2388 z m 7.009821,-0.769 c -0.159758,-0.45828 -0.290468,-1.45574 -0.290468,-2.21657 0,-0.91186 -0.136376,-1.49651 -0.400137,-1.71541 -0.313735,-0.26038 -0.332293,-0.41383 -0.08595,-0.71066 0.172804,-0.20821 0.344553,-0.97907 0.381669,-1.71301 0.03712,-0.73395 0.147878,-1.81032 0.246144,-2.39195 0.171308,-1.01396 0.212114,-1.0508 0.991365,-0.89495 0.446985,0.0894 0.878697,0.22853 0.959358,0.30919 0.189905,0.18991 0.141976,1.98848 -0.07615,2.85756 l -0.16942,0.67502 1.662858,-0.15528 c 1.360446,-0.12704 1.729719,-0.0747 2.03049,0.28769 0.322612,0.38872 0.297503,0.4613 -0.205047,0.59272 -0.314973,0.0824 -0.58474,0.2847 -0.599485,0.44963 -0.08211,0.91852 0.124489,2.23484 0.449366,2.86308 0.506288,0.97906 0.478305,1.05629 -0.347867,0.9601 -0.822751,-0.0958 -1.926775,-1.52168 -1.926775,-2.48849 0,-0.33369 -0.129437,-0.68671 -0.287636,-0.78448 -0.541536,-0.33469 -0.823614,0.35869 -0.823614,2.02453 0,1.89169 -0.289359,2.88451 -0.840692,2.88451 -0.207648,0 -0.508252,-0.37496 -0.668007,-0.83323 z m 11.197204,-0.68813 c -0.115835,-0.25466 -0.336931,-0.98556 -0.491329,-1.62422 l -0.280717,-1.1612 -0.661459,1.01138 c -0.822192,1.25715 -1.13724,1.36441 -1.866265,0.63538 -0.450704,-0.4507 -0.546708,-0.78611 -0.440187,-1.53789 0.241348,-1.70333 0.642271,-2.41668 1.358247,-2.41668 0.358817,0 0.725977,0.11907 0.815914,0.26459 0.08994,0.14552 0.581041,0.26458 1.091342,0.26458 1.866324,0 2.366021,0.87913 2.046238,3.59999 -0.1475,1.25498 -0.239694,1.42709 -0.76445,1.42709 -0.328197,0 -0.691497,-0.20836 -0.807334,-0.46302 z m 3.921808,-0.8563 c -0.180525,-0.28907 -0.328229,-1.24531 -0.328229,-2.12497 0,-1.81665 0.367067,-2.18781 1.457251,-1.47349 0.558533,0.36597 0.659416,0.63619 0.659416,1.76628 0,0.73381 -0.123251,1.56451 -0.273892,1.84598 -0.354153,0.66174 -1.096891,0.65497 -1.514546,-0.0138 z m 7.47372,-0.97069 c -0.240864,-0.24087 -0.561216,-0.74688 -0.711896,-1.12448 -0.197475,-0.49487 -0.311494,-0.57574 -0.408392,-0.28967 -0.07394,0.21828 -0.373304,0.6596 -0.665258,0.98071 -0.494768,0.54417 -0.582346,0.55719 -1.289241,0.19164 -0.868648,-0.4492 -0.92461,-0.92037 -0.406352,-3.42131 0.275196,-1.328 0.427066,-1.60163 0.92906,-1.67396 0.734285,-0.10579 1.364713,0.3769 1.364713,1.0449 0,0.37248 0.193173,0.49677 0.77211,0.49677 1.443141,0 1.60914,0.1917 1.60914,1.85834 0,0.94372 0.12023,1.57722 0.311428,1.64095 0.457756,0.15259 0.0041,0.73404 -0.572727,0.73404 -0.272058,0 -0.691722,-0.19707 -0.932585,-0.43793 z m -46.05411,-2.58974 c -0.08923,-0.35553 -0.0731,-0.79064 0.03584,-0.96692 0.126039,-0.20394 0.08699,-0.25184 -0.107384,-0.13172 -0.411911,0.25458 -0.391305,0.13711 0.230352,-1.31316 0.294698,-0.6875 0.463775,-1.32205 0.375724,-1.4101 -0.08805,-0.088 -0.558977,0.27516 -1.046504,0.80715 -0.620723,0.67732 -0.843047,1.13305 -0.741738,1.52045 0.0991,0.37896 0.02013,0.55322 -0.250666,0.55322 -0.577602,0 -0.895181,-0.51797 -1.086337,-1.77181 -0.158118,-1.03713 -0.109779,-1.15574 0.733033,-1.79858 1.316966,-1.0045 2.495696,-1.12476 3.398901,-0.34678 0.797333,0.68679 0.890635,1.33353 0.43152,2.99113 -0.314727,1.13629 -1.17442,2.51354 -1.568974,2.51354 -0.13284,0 -0.314534,-0.29089 -0.403767,-0.64642 z m 13.813883,-0.6957 c -0.900149,-0.70806 -0.880308,-0.95339 0.07931,-0.98068 0.871781,-0.0248 1.477799,0.52431 1.245831,1.12881 -0.206015,0.53686 -0.495446,0.50451 -1.32514,-0.14813 z m 25.358663,-2.89746 c -0.669584,-0.73989 -0.168564,-1.26159 0.86419,-0.89988 0.984652,0.34487 1.181579,1.43529 0.259209,1.43529 -0.351369,0 -0.8569,-0.24093 -1.123399,-0.53541 z M -64.35672,173.3334 c -8.876867,-0.9818 -19.032126,-4.05622 -22.944898,-6.94638 -1.199846,-0.88626 -3.648893,-3.99758 -4.529974,-5.75497 -0.645324,-1.28716 -2.476116,-6.30518 -2.983341,-8.17706 -0.459282,-1.69495 -0.459219,-6.99189 1.06e-4,-8.73125 0.486132,-1.84087 1.372251,-4.10081 1.935255,-4.93563 0.260496,-0.38627 0.473631,-0.78036 0.473631,-0.87577 0,-0.16482 1.126749,-1.74882 2.438757,-3.42843 2.782964,-3.56273 8.342136,-8.65639 11.227346,-10.2872 3.089156,-1.74609 9.096785,-3.93013 12.924523,-4.69863 2.603717,-0.52275 23.415792,0.0859 28.707292,0.83953 2.011535,0.2865 4.133033,0.80105 8.202084,1.98935 7.966731,2.32655 14.441334,5.94946 19.3275034,10.81484 1.3066395,1.30108 2.0737513,2.39137 3.1196148,4.43385 0.7627938,1.48968 1.4353065,2.94663 1.4944699,3.23768 0.059161,0.29104 0.2484253,1.24354 0.4205817,2.11666 0.1721591,0.87313 0.3697023,1.7661 0.4389888,1.98438 0.1154191,0.36362 0.1626737,2.37673 0.066768,2.84427 -0.022384,0.10914 -0.069435,0.73422 -0.1045475,1.38906 -0.035113,0.65484 -0.093199,1.48828 -0.1290796,1.85208 -0.061092,0.61939 -0.080846,0.62781 -0.3105547,0.1323 -0.1887009,-0.40705 -0.2110687,-0.33518 -0.096914,0.31141 0.091541,0.51852 -0.0127,1.15211 -0.2720525,1.65365 -0.2312458,0.44718 -0.3497527,0.81306 -0.2633477,0.81306 0.086408,0 -0.1188932,0.38648 -0.4562264,0.85884 -0.8087334,1.13246 -1.5166102,2.33788 -1.7097587,2.91147 -0.085751,0.25466 -0.3206194,0.46302 -0.5219277,0.46302 -0.2013082,0 -0.3660166,0.19991 -0.3660166,0.44424 0,0.24433 -0.3869532,0.82415 -0.8598959,1.28849 -0.4729427,0.46435 -1.0158623,1.04096 -1.2064863,1.28138 -0.190625,0.2404 -0.444979,0.37629 -0.565232,0.30197 -0.120253,-0.0743 -0.280562,0.10166 -0.356243,0.39107 -0.07881,0.30136 -0.361104,0.52619 -0.660681,0.52619 -0.298553,0 -0.5818,0.22455 -0.659881,0.52313 -0.09225,0.35277 -0.527349,0.62759 -1.336024,0.84388 -0.759323,0.20309 -1.24528,0.49687 -1.32478,0.80088 -0.07684,0.29383 -0.277743,0.42172 -0.517768,0.32962 -0.215852,-0.0828 -0.679582,0.12488 -1.031306,0.46193 -0.796592,0.76336 -1.672537,1.27389 -2.185689,1.27389 -0.215831,0 -0.812758,0.23609 -1.326507,0.52465 -0.513749,0.28855 -0.93409,0.47073 -0.93409,0.40485 0,-0.0659 -0.446485,0.18426 -0.992188,0.5559 -0.743032,0.50601 -1.209611,0.64083 -1.858013,0.53686 -0.577101,-0.0925 -0.80745,-0.0444 -0.690774,0.14441 0.101563,0.16433 0.02074,0.23131 -0.192508,0.15954 -0.202157,-0.068 -0.486622,0.0235 -0.632142,0.20342 -0.309015,0.38204 -4.002956,1.31817 -7.408334,1.87744 -1.309688,0.2151 -3.452813,0.58381 -4.7625,0.81936 -1.309688,0.23556 -2.678906,0.45007 -3.042709,0.4767 -0.363802,0.0266 -1.078177,0.12034 -1.5875,0.20825 -1.410086,0.24338 -3.881448,0.4812 -6.085416,0.58561 -1.091407,0.0517 -2.936876,0.20519 -4.101042,0.34107 -3.043317,0.35521 -7.953706,0.30729 -11.770573,-0.11486 z m 12.696613,-1.44006 c 4.240636,-0.28282 9.633186,-0.86693 12.170834,-1.31833 0.800365,-0.14237 2.645834,-0.44399 4.101042,-0.67026 6.335363,-0.98511 11.726659,-2.61301 16.547487,-4.99653 5.002355,-2.47328 7.927364,-4.83693 10.2784989,-8.30589 2.2939429,-3.38458 3.1945634,-6.38023 3.1957196,-10.62963 0.00132,-5.01596 -1.6508889,-9.04739 -5.1508715,-12.56795 -2.880273,-2.8972 -6.94368,-5.75421 -9.842117,-6.92005 -1.280795,-0.51518 -2.450698,-1.0364 -2.599788,-1.15827 -0.428651,-0.35039 -2.599801,-1.0366 -6.740387,-2.13033 -1.091406,-0.2883 -2.282032,-0.6271 -2.645834,-0.75289 -2.215914,-0.76619 -3.890322,-1.08261 -6.35,-1.19998 -1.527969,-0.0729 -4.564062,-0.25487 -6.746875,-0.40437 -2.182813,-0.1495 -7.362031,-0.30847 -11.509375,-0.35327 -7.522906,-0.0813 -9.322102,0.0692 -11.021127,0.92179 -0.313544,0.15734 -0.700497,0.20547 -0.859896,0.10695 -0.159395,-0.0985 -0.289811,-0.0748 -0.289811,0.0526 0,0.12744 -0.922734,0.50931 -2.050521,0.8486 -1.127786,0.33929 -2.348177,0.76332 -2.711979,0.9423 -0.363802,0.17897 -1.018646,0.47277 -1.455209,0.65289 -0.436562,0.18011 -0.972343,0.43149 -1.190625,0.55862 -0.218281,0.12714 -0.813593,0.4581 -1.322916,0.73548 -2.279111,1.24122 -7.523219,5.9703 -9.599978,8.65716 -0.550561,0.7123 -1.457696,1.89041 -2.015855,2.61801 -1.321586,1.72279 -3.339825,5.95668 -3.720638,7.80521 -0.378364,1.83666 -0.378804,5.50966 -7.93e-4,7.40833 0.159308,0.80037 0.337582,1.79532 0.396166,2.21101 0.05858,0.41568 0.216376,0.89193 0.350647,1.05833 0.134273,0.1664 0.395396,0.98715 0.580273,1.82389 0.184878,0.83675 0.436256,1.52136 0.55862,1.52136 0.122365,0 0.222481,0.18021 0.222481,0.40046 0,0.46603 0.468966,1.33789 1.115329,2.07353 0.24963,0.28411 0.39914,0.60512 0.332248,0.71335 -0.06689,0.10824 0.05739,0.26549 0.276188,0.34945 0.218795,0.084 0.369068,0.24526 0.333936,0.35845 -0.07576,0.24409 0.570844,1.04573 2.112875,2.61947 2.80056,2.85814 13.249869,6.10149 22.420049,6.95892 5.522836,0.51639 5.266569,0.51616 12.832292,0.0116 z M -70.356671,151.0505 c -0.467916,-0.0667 -0.599837,-0.30853 -0.721548,-1.32291 -0.249473,-2.07922 -0.29922,-4.76325 -0.09212,-4.97035 0.107606,-0.10761 0.195649,-1.19158 0.195649,-2.40881 0,-2.42832 0.242488,-2.79726 1.470718,-2.23764 0.563745,0.25686 0.635219,0.44561 0.57844,1.52757 -0.05979,1.13938 -0.0078,1.25399 0.674817,1.48755 0.643623,0.22021 0.898189,0.1295 1.96165,-0.69904 1.270066,-0.9895 1.566103,-1.09026 2.137648,-0.72764 0.254328,0.16135 0.272801,0.39566 0.0727,0.92199 -0.147561,0.38811 -0.360534,0.70903 -0.473276,0.71316 -0.112742,0.004 -0.714007,0.46066 -1.336146,1.01451 l -1.13116,1.00701 0.469702,1.03939 c 0.258336,0.57166 0.737592,1.41343 1.065014,1.87059 0.756071,1.05568 0.75188,1.41099 -0.01664,1.41099 -0.738058,0 -1.7735,-1.05191 -2.539313,-2.57969 -0.310007,-0.61846 -0.665411,-1.12448 -0.789784,-1.12448 -0.286564,0 -0.549142,1.29541 -0.583236,2.87734 -0.03814,1.76976 -0.264195,2.29718 -0.943108,2.20046 z m 7.644643,-0.75697 c -0.605525,-0.24363 -1.118912,-1.62246 -1.118912,-3.00512 0,-1.14642 0.119737,-1.47615 0.773398,-2.12981 0.767096,-0.7671 2.18817,-1.06821 2.518542,-0.53365 0.0815,0.13186 0.386811,0.17733 0.678482,0.10106 0.726493,-0.18998 1.233273,0.29794 1.436915,1.38344 0.193376,1.03078 -0.07181,1.64765 -1.406885,3.27263 -0.880803,1.07206 -1.777455,1.35568 -2.88154,0.91145 z m 1.914258,-2.39787 c 0.369049,-0.54311 0.670997,-1.3005 0.670997,-1.6831 0,-0.61523 -0.08411,-0.68004 -0.727605,-0.56061 -0.400182,0.0743 -0.815078,0.26611 -0.921991,0.42633 -0.288176,0.43185 -0.243713,2.80484 0.05256,2.80484 0.140274,0 0.556993,-0.44436 0.926042,-0.98746 z m 23.024886,2.13688 c -0.331483,-0.33148 -0.402979,-0.73385 -0.293833,-1.65364 0.07933,-0.66857 0.224872,-2.01925 0.323422,-3.00151 0.174712,-1.7414 0.197831,-1.78594 0.927084,-1.78594 0.863169,0 1.345792,0.67729 1.114065,1.56342 -0.144537,0.55271 -0.09269,0.57905 0.807334,0.41021 0.847164,-0.15893 0.961789,-0.11698 0.961789,0.35204 0,0.32071 -0.343315,0.73504 -0.863227,1.04179 -0.667856,0.39405 -0.97033,0.84909 -1.336437,2.01051 -0.494448,1.56857 -0.882941,1.82038 -1.640197,1.06312 z m 6.561061,0.0475 c -1.529709,-0.66511 -1.413962,-2.26117 0.312807,-4.31332 0.763457,-0.90732 1.826421,-1.1391 2.088758,-0.45547 0.08376,0.21828 0.456634,0.39688 0.828606,0.39688 0.753523,0 1.30329,0.97248 1.008335,1.78364 -0.203139,0.55866 -1.524013,1.87902 -2.518627,2.51765 -0.840404,0.53961 -0.658429,0.53214 -1.719879,0.0706 z m 2.220191,-3.1391 c 0.214111,-0.41405 0.309372,-0.83105 0.211685,-0.92667 -0.264708,-0.2591 -1.713492,1.57758 -1.713492,2.17227 0,0.5056 0.0091,0.50578 0.556255,0.0106 0.30594,-0.27688 0.731438,-0.84218 0.945552,-1.25623 z m 9.302123,2.5375 c -0.808919,-1.30226 -0.791985,-3.42879 0.05004,-6.28385 0.659633,-2.23663 0.845288,-2.50301 1.749028,-2.50949 0.831972,-0.006 0.88733,0.71578 0.213654,2.78565 -0.482182,1.48151 -0.587338,2.34368 -0.539121,4.42019 0.05327,2.29401 0.0091,2.57969 -0.398692,2.57969 -0.252228,0 -0.735936,-0.44649 -1.074907,-0.99219 z m -4.974717,0.0167 c -0.660406,-0.83957 -0.689737,-2.24617 -0.115427,-5.53524 0.580678,-3.32555 1.273325,-4.31728 2.481625,-3.55317 0.341603,0.21602 0.334224,0.42148 -0.05926,1.64959 -0.424373,1.32454 -0.779221,3.05538 -1.087694,5.30545 -0.125076,0.91232 -0.08412,0.99218 0.508799,0.99218 0.496472,0 0.644824,0.14001 0.644824,0.60854 0,1.35618 -1.466191,1.6853 -2.37287,0.53265 z m -19.527188,-0.50443 c -1.041339,-0.4552 -1.910098,-1.78378 -1.911453,-2.92318 -7.94e-4,-0.68534 -0.128418,-0.86319 -0.727115,-1.01346 -1.639694,-0.41153 -1.714944,-1.19803 -0.114622,-1.19803 0.952476,0 0.988613,-0.0358 1.281972,-1.27079 0.166026,-0.69894 0.485783,-1.71097 0.71057,-2.24896 0.340019,-0.81378 0.53961,-0.97816 1.187646,-0.97816 1.025218,0 1.187048,0.52198 0.592233,1.91027 -0.851157,1.98659 -0.884584,2.74578 -0.142319,3.23213 0.860351,0.56372 0.820324,0.86361 -0.143521,1.07531 -0.816957,0.17943 -0.90116,0.36598 -0.626986,1.38906 0.12409,0.46304 0.35124,0.59531 1.022324,0.59531 1.056616,0 1.475846,0.45024 1.170218,1.25677 -0.261451,0.68996 -0.991749,0.74515 -2.298947,0.17374 z m -12.030035,-0.43831 c -0.23603,-0.1819 -0.46077,-0.50932 -0.499422,-0.72761 -0.07691,-0.43433 0.257405,-2.76065 0.480147,-3.34111 0.161306,-0.42036 1.177039,-0.4858 1.562182,-0.10065 0.173477,0.17347 0.552341,0.15295 1.117981,-0.0606 1.27358,-0.48072 1.733457,-0.0662 1.931284,1.74074 0.08972,0.81948 0.308324,1.66491 0.485799,1.87876 0.725498,0.87417 -0.622319,1.31846 -1.398358,0.46095 -0.239016,-0.26411 -0.5681,-0.86324 -0.7313,-1.33139 -0.227484,-0.65256 -0.376547,-0.78493 -0.638805,-0.56728 -0.188145,0.15615 -0.422865,0.60578 -0.521602,0.99918 -0.333497,1.32875 -0.953133,1.69229 -1.787906,1.04896 z"
       id="path974" />
  </g>
</svg>
