<?xml version="1.0" encoding="UTF-8" standalone="no"?>
<!-- Created with Inkscape (http://www.inkscape.org/) -->

<svg
   width="62.883892mm"
   height="136.09213mm"
   viewBox="0 0 62.883892 136.09213"
   version="1.1"
   id="svg5"
   xmlns="http://www.w3.org/2000/svg"
   xmlns:svg="http://www.w3.org/2000/svg">
  <defs
     id="defs2" />
  <g
     id="layer1"
     transform="translate(38.558681,-147.00929)">
    <path
       style="fill:#dab;stroke-width:0.264583"
       d="m -15.612011,282.6597 c -0.365945,-0.36597 -0.414496,-0.7687 -0.279056,-2.31511 0.09017,-1.02965 0.235082,-5.11484 0.322077,-9.07819 0.137425,-6.2637 0.102262,-7.34574 -0.269001,-8.27358 -0.259901,-0.64952 -0.427117,-1.84232 -0.427117,-3.04649 0,-2.20834 0.0093,-2.20038 -1.984375,-1.70167 -1.836711,0.45942 -13.614374,1.26577 -15.672012,1.07294 -1.699181,-0.15923 -2.017369,-0.27985 -2.839138,-1.07632 -1.049549,-1.01727 -1.71622,-2.91463 -1.792843,-5.10252 -0.06834,-1.95153 0.553297,-15.37533 0.866881,-18.71938 0.143272,-1.52797 0.375523,-6.11187 0.516096,-10.18646 0.140547,-4.07458 0.432779,-11.27786 0.649367,-16.00729 0.216614,-4.72942 0.409495,-12.70661 0.428678,-17.72708 0.01905,-5.02047 0.136049,-10.37828 0.259741,-11.90625 0.123693,-1.52797 0.356553,-4.74266 0.517419,-7.14375 0.160894,-2.40109 0.460243,-6.38969 0.665269,-8.86354 0.204999,-2.47386 0.453919,-6.32204 0.553138,-8.55152 0.174016,-3.90998 0.203253,-4.06857 0.824653,-4.47572 0.507233,-0.33236 1.83298,-0.4681 6.234774,-0.63837 3.074802,-0.11894 7.202937,-0.3915 9.173633,-0.60568 5.372973,-0.58397 12.1447194,-0.89433 24.6174688,-1.12824 15.4619322,-0.28998 15.3194282,-0.29486 16.0461852,0.55004 0.795338,0.92466 0.942155,2.21701 0.80018,7.04428 -0.06633,2.25557 -0.244952,8.9826 -0.396928,14.94896 -0.151977,5.96635 -0.407803,11.80041 -0.56851,12.96458 -0.598673,4.3369 -0.754698,9.41021 -0.532951,17.33021 0.630952,22.53577 0.822669,28.68005 1.069102,34.26354 0.347266,7.86812 0.745728,14.30634 1.03976,16.80104 0.128667,1.09141 0.152797,2.81782 0.05363,3.83646 l -0.180261,1.85208 -1.190625,0.53097 c -1.148609,0.51223 -1.578001,0.52573 -12.170833,0.38243 -6.0391148,-0.0817 -11.08617421,-0.0599 -11.21571421,0.0485 -0.38793208,0.32456 -0.65545229,5.96558 -0.67590459,14.25165 -0.010583,4.29286 -0.094324,8.43028 -0.1860815,9.19427 -0.1438539,1.19758 -0.2459566,1.38906 -0.7408862,1.38906 -0.3157008,0 -0.7790127,-0.14989 -1.0295467,-0.33308 -0.4065587,-0.29729 -0.4585494,-0.9865 -0.4839229,-6.41615 -0.01561,-3.34568 0.1270265,-8.74895 0.3170238,-12.00729 0.3349889,-5.74466 0.3300677,-5.93591 -0.1619515,-6.30958 -0.414946,-0.31514 -1.1822113,-0.35414 -4.2115582,-0.2141 -4.072096,0.18825 -5.680657,0.31295 -5.817738,0.45101 -0.185896,0.18722 -0.181451,5.85216 0.009,11.60002 0.18042,5.44214 -0.03257,10.29177 -0.57232,13.03073 -0.165973,0.8423 -0.877729,0.97174 -1.564905,0.28459 z m -9.516639,-25.47477 c 2.764896,-0.28274 5.920052,-0.7198 7.011458,-0.97124 2.159609,-0.49752 9.7876258,-0.59166 29.236459,-0.36078 6.551427,0.0778 9.462743,0.022 9.95209,-0.19055 0.635291,-0.27596 0.706438,-0.46975 0.872755,-2.37618 0.09959,-1.14163 0.05839,-3.14502 -0.09155,-4.45198 -0.299244,-2.60869 -0.680059,-12.02691 -1.08032,-26.71794 -0.142743,-5.23875 -0.383249,-12.08485 -0.534459,-15.21354 -0.462227,-9.56365 -0.417406,-19.67032 0.107368,-24.20938 0.267759,-2.31593 0.566659,-7.93552 0.717683,-13.49375 0.142372,-5.23875 0.365839,-10.4775 0.496623,-11.64167 0.287575,-2.55981 0.314854,-6.48936 0.05511,-7.9375 l -0.189812,-1.05833 -1.183984,0.0679 c -0.651219,0.0374 -6.601354,0.17344 -13.2225519,0.30239 -14.1975682,0.2765 -17.4202461,0.41919 -24.4739581,1.08362 -2.910417,0.27415 -7.58362,0.57894 -10.384896,0.67731 l -5.093229,0.17886 -0.004,4.00432 c -0.0026,2.20237 -0.117687,5.73072 -0.25654,7.84077 -0.840793,12.77751 -0.925116,15.62728 -0.927471,31.35312 -0.0026,10.68745 -0.122925,18.42517 -0.338084,21.56355 -0.184573,2.69213 -0.396134,7.33557 -0.470165,10.31875 -0.07403,2.98317 -0.303609,7.74567 -0.510196,10.58333 -0.854816,11.74198 -1.003168,14.49658 -0.820446,15.23304 0.105674,0.42584 0.375258,1.78628 0.599096,3.02321 0.223864,1.23693 0.496226,2.3458 0.605261,2.46417 0.314298,0.34115 2.682081,0.68519 3.842438,0.55827 0.582083,-0.0637 3.32052,-0.34708 6.085416,-0.62981 z m 15.08125,-3.63107 c -1.907434,-0.42795 -8.168322,-2.59935 -8.699474,-3.01716 -0.354409,-0.2788 -0.749247,-0.5069 -0.877384,-0.5069 -0.347875,0 -1.958605,-2.02425 -3.127852,-3.9309 -1.028726,-1.67747 -1.031769,-1.69067 -1.140989,-4.97173 -0.108849,-3.2691 0.104643,-5.11091 0.925724,-7.98724 0.503661,-1.76438 2.943437,-4.69479 4.770385,-5.72971 1.335299,-0.75641 4.960117,-1.44223 7.67633,-1.45236 2.2305961,-0.008 8.3537688,1.67542 10.76422884,2.95992 1.34397746,0.71621 3.90876896,3.54275 4.73186126,5.21478 0.7690379,1.5623 0.8492331,1.94987 0.8219811,3.97356 -0.01905,1.42115 -0.1408642,2.2793 -0.3323696,2.34315 -0.1662113,0.0554 -0.2374107,0.20555 -0.1582473,0.33366 0.07919,0.12812 -0.2153444,1.0773 -0.6544734,2.10929 -1.7296606,4.06461 -5.43583811,8.27891 -8.7784517,9.98195 -1.4596798,0.7437 -1.9383904,0.85584 -3.5400192,0.82921 -1.0186458,-0.0169 -2.0902083,-0.0842 -2.38125,-0.14952 z m 5.2306009,-2.81282 c 1.3471525,-0.78949 3.6431802,-2.96305 5.1365944,-4.86263 1.3427604,-1.70794 2.6208302,-4.72896 3.0435815,-7.19426 0.2963333,-1.72815 0.2748227,-2.02202 -0.2724944,-3.72139 -0.5128154,-1.59224 -0.8010525,-2.02938 -2.10327877,-3.19004 -0.829945,-0.73973 -1.80689251,-1.40884 -2.17095913,-1.48693 -0.3640667,-0.0781 -1.3473907,-0.42708 -2.1851409,-0.77554 -0.8377502,-0.34847 -2.2496992,-0.82183 -3.1376408,-1.05192 -1.9662246,-0.5095 -5.4021038,-0.55626 -5.9743978,-0.0813 -0.228573,0.1897 -1.115615,0.3407 -2.029195,0.34543 -1.358768,0.007 -1.815068,0.13801 -2.801938,0.80435 -1.692407,1.14272 -2.753492,2.68204 -3.549147,5.14885 -0.58756,1.82159 -0.69596,2.63572 -0.69596,5.22692 0,6.28961 1.615625,8.38213 8.17417,10.58701 3.023526,1.01646 3.5268427,1.11152 5.385964,1.01719 1.5828698,-0.0803 2.3083573,-0.25502 3.1798419,-0.76573 z m -5.1713077,-27.37503 c -0.2644772,-0.0566 -0.4379382,-0.29388 -0.3968752,-0.54286 0.06316,-0.38271 -0.261329,-0.45262 -2.40837,-0.51883 -2.245307,-0.0692 -2.517298,-0.0252 -2.859272,0.46302 -0.226034,0.32272 -0.673127,0.53954 -1.112547,0.53954 -0.977556,0 -1.147604,-0.22151 -0.681223,-0.88738 0.556472,-0.79447 0.510302,-0.88492 -0.736943,-1.44389 -0.618464,-0.27717 -1.713045,-1.05665 -2.432421,-1.73217 -0.990626,-0.93024 -1.512332,-1.22822 -2.150427,-1.22822 -0.463339,0 -0.990733,-0.17865 -1.171946,-0.397 -0.278368,-0.33542 -0.201321,-0.42261 0.496782,-0.56224 0.454422,-0.0909 0.826241,-0.18828 0.826241,-0.21644 0,-0.0282 -0.172006,-0.63835 -0.382244,-1.35599 -0.938953,-3.20524 -1.266507,-6.2341 -1.092544,-10.10219 l 0.169572,-3.77031 h -0.611426 c -0.834999,0 -1.787525,-0.71294 -1.787525,-1.33792 0,-0.69387 0.372427,-0.64684 1.166574,0.14729 0.363802,0.36381 0.794068,0.66146 0.956125,0.66146 0.162057,0 0.827908,-1.16086 1.47963,-2.57969 0.651721,-1.41882 1.327335,-2.87734 1.501351,-3.24114 0.447278,-0.93508 3.287236,-3.65558 4.40735,-4.22198 3.031199,-1.53276 9.5095219,-1.39442 16.32886633,0.34868 1.44944043,0.3705 2.67808607,0.8606 5.56402877,2.21952 1.6766381,0.78946 3.7597027,2.94412 4.6318488,4.79103 1.1197431,2.37115 1.1540861,5.13502 0.095911,7.71849 -1.1637168,2.8412 -2.6068073,5.52408 -3.7671639,7.00363 -0.3423709,0.43657 -0.7593013,0.97235 -0.9264915,1.19063 -0.1671902,0.21828 -0.6097852,0.72993 -0.9835356,1.137 -0.543269,0.59169 -0.6064515,0.78533 -0.3149336,0.96548 0.4834202,0.29878 0.2122223,0.9363 -0.6342591,1.49093 -0.6487848,0.42511 -0.7044267,0.42354 -1.0354205,-0.0291 -0.3339835,-0.45675 -0.395261,-0.45025 -1.35680976,0.14401 -0.99769084,0.61661 -1.00171251,0.62591 -0.43399604,1.00285 0.31514521,0.20926 0.57300812,0.58562 0.57300812,0.83635 0,0.6232 -0.91175417,1.39996 -1.50166917,1.27934 -0.38229646,-0.0782 -0.46627525,-0.30544 -0.40375417,-1.09248 l 0.0789781,-0.99378 -1.26960308,0.63555 c -0.6982619,0.34956 -2.2220767,0.95051 -3.3862434,1.33545 -1.6678539,0.5515 -2.2073658,0.85938 -2.5443656,1.45198 -0.4392613,0.7724 -1.0679377,1.06824 -1.8942579,0.89139 z m 1.0776214,-3.26954 c 2.9001244,-0.40431 5.4067076,-1.3684 7.95160236,-3.05836 2.65361214,-1.76215 4.26365464,-3.35238 5.97175174,-5.89823 2.5517475,-3.80331 3.8228587,-7.47797 3.433445,-9.92571 -0.5957094,-3.74441 -2.4775848,-5.83125 -6.6281565,-7.35009 -4.5718942,-1.67301 -7.1300446,-2.15426 -11.4686822,-2.15755 -3.411881,-0.003 -3.98018,0.0626 -5.135139,0.58884 -1.572287,0.71642 -3.855588,2.61888 -4.39338,3.6606 -0.215874,0.41816 -0.455242,0.81982 -0.531892,0.89258 -0.07665,0.0728 -0.582877,1.0285 -1.124929,2.12387 -1.232932,2.49147 -1.636871,5.22951 -1.396471,9.46609 0.218282,3.84748 0.563087,5.66367 1.389116,7.31711 0.877596,1.75664 1.777841,2.69112 3.387487,3.51628 2.704359,1.38636 3.774678,1.48964 8.5452476,0.82457 z m -11.9479216,2.19287 c -0.518531,-0.57299 -0.130916,-1.09912 0.809757,-1.09912 0.760783,0 0.83984,0.91592 0.112686,1.30509 -0.376687,0.20159 -0.598408,0.15207 -0.922443,-0.20597 z m 14.4318829,0.0254 c 0.05297,-0.27927 0.3756819,-0.49625 0.8131704,-0.54674 0.7723717,-0.0892 0.9269148,0.17317 0.4078288,0.69226 -0.4961467,0.49614 -1.323975,0.39748 -1.2209992,-0.14552 z m 12.0048603,-4.50465 c -0.081174,-0.0812 -0.1476111,-0.90921 -0.1476111,-1.84007 v -1.69246 l 0.8598958,0.0829 c 0.7755732,0.0748 0.8676482,0.17518 0.9389534,1.0239 0.1037696,1.23504 -0.3044296,2.25974 -0.9694863,2.43365 -0.2937668,0.0768 -0.6005512,0.0733 -0.6817518,-0.008 z m 3.4525743,-2.5946 c -0.088344,-0.23018 -0.1632214,-0.67666 -0.1664229,-0.99218 -0.00318,-0.31552 -0.2330714,-1.07428 -0.510831,-1.68614 -0.4979723,-1.09686 -0.4978929,-1.11474 0.00582,-1.2746 1.2213696,-0.38764 2.0983574,0.62249 2.0983574,2.41691 0,1.58163 -0.9973997,2.6553 -1.4268978,1.53601 z M -27.4913,211.95987 c -0.164941,-0.26686 0.882227,-0.60606 1.222269,-0.39591 0.122635,0.0758 0.154464,0.24865 0.07075,0.38411 -0.19349,0.31307 -1.101725,0.32136 -1.293019,0.0118 z m 39.536608,-1.41176 c 0,-0.19718 -0.238125,-0.82557 -0.529166,-1.39644 -0.689478,-1.35235 -0.667465,-1.71979 0.102976,-1.71979 1.085532,0 1.763765,0.78626 1.825836,2.11667 0.05218,1.11817 0.01138,1.19572 -0.672041,1.27434 -0.476965,0.0549 -0.727605,-0.0398 -0.727605,-0.27478 z m -38.029859,-1.47978 c -0.179731,-0.11415 -0.397695,-0.61834 -0.484425,-1.12043 l -0.157639,-0.91289 0.815128,0.86407 c 0.44831,0.47524 0.815129,0.98125 0.815129,1.12448 0,0.31069 -0.531628,0.33477 -0.988193,0.0448 z m 39.220484,-5.864 c -1.596892,-0.93962 -1.723733,-1.47295 -0.340492,-1.43168 1.288362,0.0385 2.383208,0.75459 2.274941,1.48804 -0.120941,0.8191 -0.46355,0.80912 -1.934449,-0.0564 z m -39.787539,-0.24483 c -0.361394,-0.2289 -0.203835,-0.81928 0.218626,-0.81928 0.120808,0 0.50075,0.23416 0.844285,0.52036 l 0.624628,0.52036 -0.661458,0.005 c -0.363802,0.003 -0.825553,-0.0992 -1.026081,-0.2262 z m 36.804733,-5.79252 c -0.4985281,-0.33301 0.302445,-0.93871 2.056765,-1.55535 1.422268,-0.49992 2.645833,-0.54018 2.645833,-0.0871 0,0.30206 -2.570427,1.54258 -3.571875,1.72384 -0.436562,0.079 -0.945383,0.0424 -1.130723,-0.0814 z m -36.329673,-3.80807 c -1.578002,-1.9344 -1.834701,-2.40389 -1.520958,-2.78193 0.465561,-0.56096 1.397583,-0.39234 2.125663,0.38459 0.838756,0.89505 1.766464,2.72754 1.607344,3.175 -0.249344,0.70113 -1.309873,0.3283 -2.212049,-0.77766 z m 31.8101661,-1.88815 c -0.5916612,-0.71291 2.9263711,-3.3569 4.4548689,-3.3481 l 0.930778,0.005 -1.9843752,1.83521 c -1.9673358,1.81944 -2.8264115,2.20021 -3.4012717,1.50754 z m -26.1262281,-0.75043 c -0.0876,-0.14174 -0.223123,-0.96188 -0.301176,-1.82252 -0.151738,-1.67355 0.139859,-2.36801 0.994331,-2.36801 0.371554,0 0.53303,0.36422 0.773377,1.74434 0.325411,1.86869 0.189389,2.31252 -0.787029,2.56785 -0.286121,0.0748 -0.5919,0.0201 -0.679503,-0.12166 z m 18.1882783,-1.44213 -0.6090709,-0.42661 0.7486121,-0.78764 c 1.217639,-1.28107 2.96899546,-1.95799 3.3733053,-1.3038 0.1308629,0.21171 -2.4301451,2.94465 -2.7593661,2.94465 -0.079428,0 -0.4185179,-0.19197 -0.7534804,-0.4266 z m -9.7668023,-0.14776 c -0.857806,-0.85779 0.278024,-2.60064 1.694841,-2.60064 0.6774656,0 0.86614,0.71214 0.330544,1.24773 -0.162375,0.16237 -0.433255,0.57208 -0.601954,0.91046 -0.357558,0.71716 -0.961125,0.90477 -1.423431,0.44245 z m -0.457518,-4.5464 c -2.718938,-0.76304 -3.677285,-1.27063 -5.246899,-2.77905 -1.470978,-1.41364 -2.050098,-2.43816 -3.156665,-5.58459 -0.701198,-1.99386 -0.797877,-2.63011 -0.825526,-5.43331 -0.02916,-2.95532 0.02328,-3.30882 0.759592,-5.10916 1.466665,-3.58665 4.442937,-6.48341 6.975131,-6.78877 1.875208,-0.22614 4.8664816,-0.97969 5.4967985,-1.38474 1.1882438,-0.76356 2.2181608,-0.85676 5.3829215,-0.48707 6.6409623,0.77574 11.866589,3.41837 12.8012561,6.4737 0.2036762,0.66584 0.5204089,1.70857 0.7038179,2.31717 0.20328,0.6745 0.265086,1.60425 0.158327,2.38125 -0.09633,0.70109 -0.275299,2.0578 -0.397669,3.01492 -0.12237,0.95711 -0.6138332,2.74305 -1.0921205,3.96875 -0.7189523,1.8423 -1.17221,2.54219 -2.6153533,4.03831 -1.1287655,1.17019 -2.2599651,2.04741 -3.2009028,2.48221 -0.8003646,0.36984 -1.5171208,0.76833 -1.5928181,0.88553 -0.2430198,0.37636 -2.63998605,1.29623 -4.050665,1.5545 -0.7523956,0.13775 -1.9037565,0.36606 -2.5586002,0.50736 -2.7166623,0.58617 -5.3188661,0.5665 -7.5406251,-0.057 z m 8.645234,-1.86116 c 2.2281357,-0.51674 5.0569813,-1.58573 6.123649,-2.31404 1.5534746,-1.06072 3.6572825,-3.26138 4.2659565,-4.46237 0.790284,-1.5593 1.3372042,-3.32704 1.8801556,-6.0771 0.4173538,-2.11379 0.4159515,-2.3667 -0.024871,-4.46718 -0.4389438,-2.09159 -0.5518944,-2.31118 -1.8636192,-3.6229 -0.768006,-0.76799 -1.6721931,-1.47461 -2.0093517,-1.57027 -0.3371585,-0.0957 -1.5655131,-0.45323 -2.7296798,-0.79462 -1.16416664,-0.34138 -3.1617444,-0.76961 -4.4390469,-0.95162 -2.9083264,-0.41442 -4.197985,-0.15388 -7.3921144,1.49337 -2.0151991,1.03927 -2.3742651,1.14678 -2.8460431,0.85215 -1.201605,-0.75043 -4.527048,1.99854 -5.959528,4.92647 -2.705153,5.5291 -0.39587,14.47991 4.312126,16.71401 2.311215,1.09675 6.6545883,1.20819 10.6823404,0.2741 z"
       id="path39" />
  </g>
</svg>
