<?xml version="1.0" encoding="UTF-8" standalone="no"?>
<!-- Created with Inkscape (http://www.inkscape.org/) -->

<svg
   width="91.991997mm"
   height="115.93303mm"
   viewBox="0 0 91.991997 115.93303"
   version="1.1"
   id="svg5"
   xmlns="http://www.w3.org/2000/svg"
   xmlns:svg="http://www.w3.org/2000/svg">
  <defs
     id="defs2" />
  <g
     id="layer1"
     transform="translate(-226.1316,-145.43059)">
    <path
       style="fill:#dab;stroke-width:0.264583"
       d="m 270.27274,260.92614 c -0.49752,-0.40286 -0.5453,-0.57119 -0.29498,-1.03892 0.49988,-0.93406 4.86082,-2.28396 11.25357,-3.48353 1.6409,-0.30789 3.092,-0.7302 3.36826,-0.9802 0.26696,-0.24159 0.55559,-0.86939 0.64143,-1.39512 0.0858,-0.52572 0.38549,-2.20602 0.66595,-3.73399 0.6821,-3.71644 1.20608,-9.59816 1.70884,-19.18229 0.40968,-7.80955 0.55039,-9.28119 1.29035,-13.49375 0.45571,-2.5945 1.10812,-12.04288 0.87373,-12.65372 -0.23521,-0.61297 -1.49744,-0.56995 -4.04693,0.13793 -1.8442,0.51206 -2.59581,0.56986 -6.32619,0.48657 -7.84381,-0.17515 -11.6214,-0.10997 -12.83229,0.22142 -3.57405,0.97812 -10.08399,3.09775 -11.14238,3.62793 -1.82602,0.91472 -3.59835,1.0613 -4.67537,0.38667 -1.03574,-0.64878 -1.32268,-1.24978 -0.82103,-1.71955 0.2018,-0.18897 1.61706,-0.72246 3.14503,-1.18553 5.54564,-1.68067 11.27119,-3.52115 12.43541,-3.99735 2.7509,-1.12521 3.55394,-1.17609 8.77025,-0.55566 5.89569,0.70122 6.44599,0.70424 9.1049,0.0499 1.15549,-0.28436 4.24402,-0.7001 6.86339,-0.92387 9.20647,-0.78648 25.63583,-1.39751 26.9875,-1.0037 0.97335,0.28359 1.17269,1.13962 0.43673,1.87557 -0.66167,0.66169 -1.37465,0.72592 -13.49248,1.21555 -6.40181,0.25867 -9.74045,0.4917 -9.98802,0.69716 -0.25525,0.21184 -0.37267,0.89997 -0.37447,2.19444 -0.005,3.47555 -0.53454,9.54885 -0.91832,10.52871 -0.56134,1.43319 -0.8868,4.54287 -1.19435,11.41203 -0.4917,10.98202 -0.80317,15.09413 -1.32197,17.4531 -0.28043,1.27513 -0.64653,3.59685 -0.81356,5.15937 -0.16701,1.56253 -0.35719,2.92975 -0.4226,3.03827 -0.0654,0.10852 0.1582,0.32358 0.49689,0.4779 0.47874,0.21812 1.19526,0.13003 3.2189,-0.39575 2.80278,-0.72823 4.70297,-0.82256 6.38159,-0.3168 0.7411,0.2233 1.05833,0.46639 1.05833,0.81101 0,0.91699 -1.19007,1.47243 -3.77259,1.76075 -3.33383,0.37221 -6.25948,1.26947 -7.96491,2.44268 -1.54405,1.06222 -2.4915,1.21251 -3.44291,0.5461 -0.34783,-0.2436 -1.09379,-0.42026 -1.72154,-0.40767 -1.26254,0.0254 -7.2652,1.15157 -10.20152,1.91405 -2.38564,0.61947 -2.20731,0.61764 -2.93264,0.0303 z m -41.03063,-2.21237 c -0.38171,-0.31546 -0.40537,-1.62782 -0.24228,-13.44647 0.15685,-11.3663 0.23897,-13.23225 0.62143,-14.12137 0.59248,-1.37731 0.55705,-2.46889 -0.20923,-6.44825 -1.06797,-5.54594 -1.42021,-7.91457 -1.85942,-12.5033 -0.22981,-2.40109 -0.60698,-5.91343 -0.83814,-7.80521 -0.72856,-5.96193 -0.74319,-6.43815 -0.21585,-7.02087 1.19962,-1.32556 2.75087,-0.021 3.38524,2.84697 0.49533,2.23922 0.6269,3.32153 1.09119,8.97593 0.35769,4.35635 0.80471,7.22055 1.63391,10.46941 0.21241,0.83221 0.62201,3.12383 0.91025,5.09249 0.69067,4.71743 0.76784,4.90413 2.02631,4.90244 0.54933,-7.9e-4 3.2014,-0.35732 5.89354,-0.79241 5.29788,-0.85621 9.00044,-1.02893 9.48708,-0.44257 0.46393,0.559 0.77407,3.52724 1.11366,10.6577 0.41548,8.72447 0.2371,16.7411 -0.40724,18.30145 -0.69377,1.68 -2.09902,2.20493 -2.88783,1.07876 -0.32972,-0.47074 -0.37009,-1.26232 -0.23756,-4.65619 0.21674,-5.55014 -0.58471,-20.94828 -1.16967,-22.47269 -0.1315,-0.34271 -0.45369,-0.39119 -1.77785,-0.26754 -2.06517,0.19285 -5.74159,0.84054 -8.61851,1.51836 -1.23692,0.29143 -2.44274,0.52676 -2.67959,0.52296 -1.07884,-0.0173 -1.13662,0.45387 -1.32615,10.81196 -0.18341,10.02522 -0.47918,13.8878 -1.11188,14.52049 -0.51747,0.51745 -2.08714,0.68649 -2.58141,0.27795 z m 35.18162,-5.37892 c -0.88281,-0.47968 -1.24968,-1.41336 -3.00405,-7.64514 -1.33951,-4.7582 -1.8991,-6.62049 -2.5517,-8.4922 -0.15221,-0.43656 -0.4327,-1.62719 -0.62327,-2.64584 -0.19061,-1.01864 -0.84582,-3.16177 -1.45609,-4.7625 -1.66804,-4.37548 -2.62816,-4.98144 -8.38758,-5.29361 -4.34597,-0.23557 -5.78326,0.0726 -7.51602,1.61154 -1.46756,1.30341 -2.64702,1.53079 -3.65961,0.70551 -0.53835,-0.43875 -0.57549,-0.74732 -0.70911,-5.88698 -0.0775,-2.98317 -0.31173,-6.57188 -0.52046,-7.97489 -0.2087,-1.40302 -0.4953,-5.27255 -0.63691,-8.59896 -0.303,-7.11889 -0.45198,-9.10719 -0.94879,-12.66261 -0.20336,-1.4552 -0.3719,-3.88331 -0.37457,-5.39579 l -0.005,-2.74996 -2.08053,-2.16712 c -1.78623,-1.86059 -2.20461,-2.48208 -2.95788,-4.39379 l -0.87736,-2.22667 -0.0188,-5.42396 c -0.0185,-5.35834 -0.008,-5.46226 0.86014,-8.59039 1.42332,-5.12842 2.27039,-7.07148 3.62836,-8.32324 3.55457,-3.27648 11.3084,-6.90484 14.92597,-6.98452 1.1571,-0.0255 1.64528,0.0985 2.29957,0.58393 0.61137,0.45362 1.30974,0.6527 2.64583,0.75425 2.56435,0.19489 4.25903,1.08576 6.33897,3.33228 2.37112,2.56101 3.2394,4.43914 3.44599,7.45373 0.0897,1.30969 0.033,3.4332 -0.12613,4.71891 -0.24672,1.99341 -0.43646,2.56303 -1.28836,3.86815 -0.54946,0.84177 -1.23714,1.92717 -1.52818,2.41201 -2.852,4.75099 -5.65894,7.86514 -9.26185,10.27548 -2.76942,1.85276 -7.35843,4.21444 -9.39128,4.83313 -0.92874,0.28266 -1.17808,0.47747 -1.13358,0.88568 0.22455,2.06046 0.61532,4.6925 0.72234,4.86567 0.0707,0.11444 4.09146,0.27509 8.93501,0.35701 8.75728,0.14811 8.81467,0.15275 10.27821,0.83034 0.8095,0.37477 1.85129,0.7573 2.31511,0.85006 0.83399,0.1668 0.84333,0.15712 0.84333,-0.87472 0,-0.57386 -0.18674,-1.67224 -0.415,-2.44085 -0.22826,-0.7686 -0.35346,-1.55788 -0.27821,-1.75394 0.0752,-0.19607 0.63754,-0.49132 1.24958,-0.65612 0.96313,-0.25935 1.19896,-0.23453 1.75376,0.18457 1.43275,1.08227 2.45994,3.90734 2.95979,8.14034 0.15356,1.30046 0.37012,2.45363 0.48122,2.56262 0.1111,0.10897 1.33308,0.0339 2.71553,-0.16688 11.8574,-1.72198 13.45586,-1.76436 13.8989,-0.36849 0.21527,0.67827 0.003,0.9481 -1.24539,1.58512 -1.37644,0.70221 -4.07088,1.19016 -9.34622,1.69256 -2.32834,0.22174 -5.66209,0.70762 -7.40834,1.07974 -11.02661,2.34974 -10.81471,2.3267 -11.79398,1.28255 l -0.64143,-0.68393 0.59243,-0.48063 c 0.7802,-0.63294 4.8615,-2.10046 6.39767,-2.3004 1.64653,-0.21432 2.13802,-0.51233 2.13802,-1.2964 0,-0.72017 -1.06386,-1.96303 -1.68031,-1.96303 -0.20979,0 -1.31652,-0.44521 -2.45941,-0.98934 l -2.07799,-0.98934 -7.60764,-0.0983 c -8.47606,-0.10949 -9.33124,-0.0359 -9.63165,0.82938 -0.54735,1.57648 0.0251,20.83584 0.74393,25.02682 0.46281,2.69833 0.52504,2.72707 5.45679,2.52011 3.80616,-0.15972 4.32292,-0.12554 6.08468,0.40239 1.05888,0.31732 2.51224,0.64646 3.22966,0.73142 1.15662,0.13699 1.42774,0.30079 2.39331,1.44589 1.43161,1.69782 2.97254,5.43815 3.98365,9.66969 0.44521,1.86324 0.96814,3.7449 1.16208,4.18146 0.40523,0.9123 1.9904,6.15438 1.9904,6.58224 0,0.15702 0.48909,1.86593 1.08686,3.79758 0.62632,2.02391 1.02333,3.76521 0.93694,4.10943 -0.13734,0.5472 -1.40052,1.53263 -1.93233,1.50745 -0.12306,-0.006 -0.53676,-0.18066 -0.9193,-0.38852 z m -22.10448,-73.91639 c 2.42792,-1.20405 4.98472,-2.76243 6.30655,-3.84388 2.77501,-2.27034 8.3511,-9.91606 9.09918,-12.47637 0.22527,-0.77094 0.41749,-2.67893 0.45316,-4.49792 0.0596,-3.03713 0.0317,-3.21882 -0.72306,-4.70837 -0.96096,-1.89655 -2.5173,-3.7082 -3.50538,-4.08041 -0.40519,-0.15263 -1.48926,-0.41455 -2.40909,-0.58203 -0.91985,-0.16749 -2.40813,-0.54116 -3.30729,-0.83038 -1.96239,-0.63118 -3.00064,-0.50303 -4.70074,0.58023 -0.6676,0.42536 -1.34914,0.77339 -1.51459,0.77339 -0.16541,0 -0.48548,0.35718 -0.71122,0.79375 -0.22574,0.43656 -0.59976,0.79375 -0.83111,0.79375 -0.64463,0 -3.88255,2.24892 -4.96843,3.45086 -1.11921,1.23883 -1.41113,1.85644 -2.49581,5.28039 -2.43769,7.69491 -2.00771,15.9619 0.982,18.88129 2.15657,2.10582 4.72847,2.24968 8.32583,0.4657 z"
       id="path39" />
  </g>
</svg>
