<?xml version="1.0" encoding="UTF-8" standalone="no"?>
<!-- Created with Inkscape (http://www.inkscape.org/) -->

<svg
   width="78.238243mm"
   height="120.86096mm"
   viewBox="0 0 78.238243 120.86096"
   version="1.1"
   id="svg5"
   inkscape:version="1.1.2 (b8e25be8, 2022-02-05)"
   sodipodi:docname="needs-meditation-dark.svg"
   xmlns:inkscape="http://www.inkscape.org/namespaces/inkscape"
   xmlns:sodipodi="http://sodipodi.sourceforge.net/DTD/sodipodi-0.dtd"
   xmlns="http://www.w3.org/2000/svg"
   xmlns:svg="http://www.w3.org/2000/svg">

  <defs
     id="defs2" />
  <g
     inkscape:label="Layer 1"
     inkscape:groupmode="layer"
     id="layer1"
     transform="translate(345.51155,-158.77616)">
    <path
       style="fill:#dab;stroke-width:0.264583"
       d="m -337.46928,279.39855 c -0.21828,-0.14108 -0.78765,-0.25831 -1.26527,-0.26054 -2.09997,-0.01 -3.62205,-1.45036 -3.44659,-3.26204 l 0.0817,-0.84305 4.10104,-1.13347 c 2.25557,-0.62341 4.69865,-1.36755 5.42907,-1.65365 0.73042,-0.28609 1.62666,-0.52017 1.99165,-0.52017 0.36499,0 0.89847,-0.16338 1.18551,-0.36306 0.28704,-0.19968 0.93861,-0.45106 1.44793,-0.55861 0.50933,-0.10756 1.10464,-0.34036 1.32292,-0.51734 0.21828,-0.17698 0.93266,-0.47504 1.5875,-0.66233 0.65484,-0.1873 2.82956,-1.10615 4.83271,-2.04187 2.00314,-0.93575 4.55867,-1.93577 5.67895,-2.22229 3.25508,-0.83251 3.20633,-0.96978 -0.81515,-2.29524 -1.43364,-0.47251 -5.24364,-2.16312 -8.46667,-3.75692 -3.28569,-1.62475 -7.54543,-3.4925 -9.69651,-4.25152 -2.11005,-0.74456 -4.37224,-1.69628 -5.02708,-2.11494 -1.98971,-1.27206 -2.58249,-1.41244 -3.36504,-0.79689 -1.35337,1.06456 -1.88434,0.57426 -3.00652,-2.77628 -0.44962,-1.34242 -0.6181,-2.43455 -0.61227,-3.96875 0.008,-2.20055 0.31806,-3.15609 1.23325,-3.80511 0.80094,-0.56799 2.54377,-3.427 2.73999,-4.49478 0.0971,-0.52829 0.26036,-1.02006 0.36286,-1.09282 0.10249,-0.0728 0.55458,-0.9062 1.00463,-1.85208 2.0104,-4.22532 6.29069,-8.02374 12.10156,-10.73917 1.32317,-0.61832 2.54913,-1.29697 2.72437,-1.50812 0.59706,-0.71942 3.47723,-1.80285 6.19129,-2.32897 2.47468,-0.47972 7.01108,-1.685 9.13135,-2.42613 0.89415,-0.31254 1.16656,-0.84148 1.5242,-2.95951 0.2747,-1.62684 0.19039,-11.7579 -0.14002,-16.82515 l -0.29825,-4.57399 -1.26301,-1.87521 c -1.88224,-2.79459 -2.13281,-3.39542 -2.81247,-6.7438 -0.34261,-1.6879 -0.80444,-3.90235 -1.02629,-4.92099 -0.46143,-2.11873 -0.52839,-6.32037 -0.12838,-8.05607 0.24303,-1.05458 1.46098,-3.21788 2.83799,-5.04081 0.27482,-0.3638 0.58335,-1.00227 0.68564,-1.41883 0.23483,-0.95633 2.53399,-3.27107 4.49514,-4.5256 1.97414,-1.26284 4.8928,-1.70971 8.32008,-1.27387 2.44133,0.31046 5.34153,1.3675 6.3086,2.2993 0.59423,0.57255 3.44994,5.66627 4.33733,7.73647 0.76295,1.77988 1.32506,4.18787 1.33677,5.72642 0.008,1.02589 -0.22249,1.88503 -0.90126,3.36236 -0.50145,1.09141 -0.98188,2.44563 -1.06762,3.00938 -0.0857,0.56375 -0.32445,1.2186 -0.53048,1.45521 -0.20603,0.23661 -0.92149,1.47584 -1.58991,2.75384 -2.49931,4.77857 -6.79537,9.13662 -9.44855,9.58487 -0.65451,0.11058 -1.15894,0.37776 -1.33528,0.70726 -0.18215,0.34035 -0.29908,3.61966 -0.32728,9.1789 -0.0404,7.96178 -0.006,8.70805 0.43774,9.38756 0.46443,0.71188 0.53992,0.73234 2.11666,0.57387 1.32803,-0.13348 2.8026,0.0646 7.85276,1.05476 3.41974,0.67051 7.37285,1.28865 8.78467,1.37367 l 2.56696,0.15456 0.17545,0.82212 c 0.66151,3.09969 2.30761,5.6566 6.29751,9.78199 3.19551,3.30402 4.36515,5.07666 5.02741,7.61927 0.51669,1.98369 0.72106,17.27756 0.24205,18.11294 -0.17687,0.30846 -0.75305,0.76557 -1.2804,1.01581 -0.52734,0.25025 -1.18136,0.67754 -1.45338,0.94956 -0.27201,0.27201 -0.9729,0.73858 -1.55754,1.03685 -0.58463,0.29826 -1.31731,0.8863 -1.62817,1.30677 -0.31086,0.42045 -0.89869,0.83117 -1.30628,0.91268 -0.40759,0.0815 -1.49556,0.60786 -2.4177,1.16962 -2.00475,1.22132 -4.80082,2.40025 -7.97564,3.36283 -1.4284,0.43309 -2.29084,0.82656 -2.22839,1.01663 0.14717,0.44792 2.00195,1.44206 3.23575,1.73435 0.58208,0.1379 1.7727,0.5502 2.64583,0.91625 0.87312,0.36605 2.82843,0.91345 4.34513,1.21647 4.23585,0.84622 5.34809,1.96837 4.29982,4.33817 -0.4403,0.99536 -0.69856,1.24245 -1.54413,1.47724 -1.57669,0.43781 -4.47955,0.35473 -5.46031,-0.15629 -0.46572,-0.24265 -3.22801,-1.23486 -6.13843,-2.2049 -2.91041,-0.97004 -5.64885,-1.89421 -6.08541,-2.0537 -0.43657,-0.15949 -1.38907,-0.40137 -2.11667,-0.53752 -0.72761,-0.13613 -2.07261,-0.45051 -2.98891,-0.69858 -2.04725,-0.55425 -4.18611,-0.29165 -7.19755,0.88368 -1.09141,0.42598 -2.75828,0.90993 -3.70417,1.07545 -2.28168,0.39928 -5.88219,1.48995 -7.61738,2.30746 -0.76982,0.36269 -1.59018,0.58634 -1.82302,0.49699 -0.26028,-0.0999 -0.56771,0.0437 -0.79814,0.37264 -0.20614,0.2943 -0.51687,0.53448 -0.69052,0.53372 -0.17365,0 -2.12652,0.77954 -4.33972,1.73402 -2.21319,0.95446 -4.59444,1.82952 -5.29166,1.94459 -0.69723,0.11506 -1.77543,0.47876 -2.39601,0.80824 -0.83237,0.44191 -1.36368,0.55492 -2.02555,0.43075 -0.54375,-0.10203 -1.35003,-0.0106 -2.04667,0.23198 -1.34088,0.46702 -1.79622,0.49493 -2.34008,0.14346 z m 39.6875,-18.5293 c 1.23561,-0.15984 2.25488,-0.45627 2.70127,-0.78557 0.39429,-0.29089 0.93007,-0.53031 1.19062,-0.53206 0.26056,-0.003 0.96307,-0.28305 1.56114,-0.62507 0.59807,-0.34203 1.55057,-0.70401 2.11667,-0.80439 1.53548,-0.27231 4.17778,-1.33308 6.824,-2.73955 3.68906,-1.96074 4.23156,-3.22745 1.54457,-3.60645 -0.68964,-0.0973 -5.8378,-0.0372 -11.44035,0.13341 -9.26858,0.28232 -10.3395,0.27067 -11.8849,-0.12929 -0.93415,-0.24176 -2.83959,-0.56371 -4.23431,-0.71544 -3.33206,-0.36249 -15.76202,-0.21703 -16.16759,0.1892 -0.38921,0.38983 0.44419,0.97822 3.68583,2.60226 1.36816,0.68543 2.91613,1.52986 3.43992,1.87649 1.21358,0.80311 3.49484,1.60038 6.46514,2.25951 1.28615,0.28541 2.8935,0.7968 3.57187,1.13641 3.50477,1.75462 6.5992,2.26148 10.62612,1.74054 z m 22.76072,-14.95772 c 0.14192,-0.37327 0.25803,-2.08063 0.25803,-3.79413 0,-7.31865 -2.64231,-12.25289 -9.50761,-17.75446 -2.06637,-1.6559 -2.28798,-1.76862 -2.9936,-1.52264 -1.02455,0.35716 -2.96891,0.0683 -5.14847,-0.76478 -2.82023,-1.07801 -3.43063,-1.15985 -5.49079,-0.73618 -2.32114,0.47733 -2.94655,0.79541 -3.28783,1.67219 -0.1616,0.41517 -0.30095,4.89778 -0.34817,11.1997 -0.0787,10.50225 -0.0785,10.50777 0.49962,11.08819 0.57676,0.57912 0.5902,0.57981 4.89479,0.24789 4.66641,-0.35981 11.98484,-0.0683 15.69352,0.62518 1.01865,0.19046 2.59917,0.36237 3.51228,0.38201 1.55334,0.0334 1.6768,-0.008 1.91823,-0.64297 z m -56.11318,0.14729 c 1.97276,-0.14675 7.33731,-0.38183 11.92121,-0.52241 4.58391,-0.14058 8.65891,-0.3315 9.05555,-0.42426 0.94569,-0.22117 0.95032,-0.25536 1.27073,-9.36985 0.1458,-4.14734 0.34113,-8.77916 0.43406,-10.29293 l 0.16897,-2.7523 -1.16517,0.18051 c -0.64085,0.0993 -1.47188,0.40333 -1.84673,0.67566 -0.66955,0.48642 -2.88359,1.34114 -3.47405,1.34114 -0.16536,0 -0.48862,0.16662 -0.71836,0.37026 -0.22974,0.20364 -1.23548,0.4956 -2.23497,0.64881 -0.9995,0.1532 -2.01154,0.44684 -2.24896,0.65254 -0.23743,0.20569 -0.74689,0.44871 -1.13214,0.54004 -0.38524,0.0913 -1.21868,0.60083 -1.85208,1.13223 -0.6334,0.5314 -1.56836,1.1406 -2.07768,1.35378 -0.50932,0.21319 -1.58089,0.85513 -2.38125,1.42655 -0.80036,0.57141 -1.86793,1.30451 -2.37237,1.62911 -1.28774,0.82863 -3.84518,3.95369 -4.67686,5.71488 -0.38459,0.81442 -1.08637,1.93396 -1.55952,2.48787 -0.47315,0.55391 -0.91762,1.26829 -0.98772,1.5875 -0.0701,0.31922 -0.32353,1.02957 -0.5632,1.57856 -0.42781,0.97996 -0.42381,1.01011 0.21972,1.65364 0.7595,0.7595 1.0183,0.77567 6.22082,0.38867 z m 28.98684,-56.31537 c 1.48747,-0.9155 3.43698,-2.87718 4.93465,-4.96546 2.18803,-3.05087 4.65192,-7.47515 4.9997,-8.97768 0.16665,-0.71998 0.47014,-1.64612 0.67443,-2.0581 0.20428,-0.41197 0.37001,-1.06682 0.36829,-1.45521 -0.008,-1.86521 -1.93092,-6.67705 -2.85742,-7.1514 -0.2457,-0.1258 -1.1808,-0.30178 -2.07799,-0.39107 -0.89719,-0.0893 -2.04548,-0.35989 -2.55177,-0.60131 -0.52087,-0.24839 -1.19298,-0.37058 -1.54809,-0.28146 -0.34518,0.0866 -1.57927,1.08496 -2.74244,2.21851 -4.65995,4.54128 -5.61419,9.01004 -3.72272,17.4336 0.93263,4.1534 1.35612,5.27864 2.32712,6.18326 0.71199,0.66332 1.17781,0.67314 2.19624,0.0463 z"
       id="path39"
       sodipodi:nodetypes="scscssssssssssssssscsssssssssscsssssssssscssssssscssscssssssssssssssssssssssssssscsssscsssscssssssssssssssssssssssssssssssscssssssssssssssssssssscsssssssss" />
  </g>
</svg>
