<?xml version="1.0" encoding="UTF-8" standalone="no"?>
<!-- Created with Inkscape (http://www.inkscape.org/) -->

<svg
   width="829.73016mm"
   height="324.15988mm"
   viewBox="0 0 829.73016 324.15988"
   version="1.1"
   id="svg749"
   xmlns="http://www.w3.org/2000/svg"
   xmlns:svg="http://www.w3.org/2000/svg">
  <defs
     id="defs746" />
  <g
     id="layer1"
     transform="translate(573.60574,-255.77801)">
    <path
       style="fill:#041;stroke-width:0.195213"
       d="m -160.29347,579.82646 c -0.78349,-0.0975 -1.42004,-0.92797 -1.42004,-1.85259 0,-0.36536 0.18208,-2.10871 0.40462,-3.87412 0.34849,-2.76458 0.40325,-4.2452 0.3948,-10.67413 -0.006,-4.10537 -0.0675,-7.70705 -0.13802,-8.00373 -0.0705,-0.29669 -0.27013,-0.7021 -0.4436,-0.90093 -0.24841,-0.28474 -0.33614,-0.96886 -0.41301,-3.22102 l -0.0976,-2.85952 -0.58564,0.0627 c -0.3221,0.0345 -1.28841,0.23476 -2.14734,0.44502 -1.59374,0.39014 -2.4184,0.48597 -5.8564,0.68055 -1.85071,0.10476 -2.82693,0.17519 -5.07553,0.36626 -0.53684,0.0456 -1.19568,0.0801 -1.4641,0.0766 -0.26842,-0.004 -0.57588,-0.008 -0.68325,-0.009 -0.10736,-0.002 -0.97598,0.0914 -1.93024,0.20675 -1.20558,0.14569 -2.17409,0.14861 -3.17372,0.01 -0.79126,-0.11006 -1.51977,-0.14998 -1.6189,-0.0887 -0.0991,0.0613 -0.23555,0.0219 -0.30317,-0.0875 -0.0752,-0.12169 -0.25096,-0.13245 -0.45272,-0.0277 -0.42238,0.21929 -0.73849,0.0848 -1.77643,-0.7558 -1.17355,-0.95041 -2.03692,-2.24286 -1.8898,-2.82902 0.0707,-0.28143 0.004,-0.57294 -0.17031,-0.74746 -0.15736,-0.15736 -0.32813,-0.58097 -0.37949,-0.94139 -0.0514,-0.36041 -0.17296,-1.17087 -0.2702,-1.80102 -0.11726,-0.75991 -0.0932,-2.07474 0.0714,-3.90426 0.13654,-1.5172 0.30155,-5.04251 0.36671,-7.83406 0.11912,-5.10257 0.19231,-6.37292 0.77049,-13.37209 0.3866,-4.67982 0.45896,-6.25457 0.60559,-13.17687 0.0637,-3.00629 0.19888,-6.65189 0.30045,-8.10135 0.10157,-1.44945 0.23143,-4.34836 0.28855,-6.44203 0.0571,-2.09366 0.18998,-4.50941 0.29518,-5.36835 0.10522,-0.85894 0.24542,-5.91008 0.31158,-11.22475 0.0661,-5.31467 0.14633,-10.76112 0.17819,-12.10321 0.0319,-1.34209 0.073,-3.09901 0.0914,-3.90426 0.0183,-0.80525 -0.0237,-2.29863 -0.0935,-3.31862 -0.0714,-1.04306 -0.0365,-2.45244 0.0799,-3.22102 0.11379,-0.75157 0.29695,-2.99164 0.40702,-4.97793 0.11006,-1.98629 0.31698,-4.75343 0.45982,-6.14921 0.14286,-1.39577 0.27345,-3.15269 0.2902,-3.90426 0.0488,-2.18674 0.40573,-7.02511 0.70572,-9.56543 0.15215,-1.28841 0.279,-3.13318 0.28192,-4.09948 0.003,-0.9663 0.0937,-2.59145 0.20184,-3.61144 0.1081,-1.01999 0.19806,-2.64816 0.19993,-3.61816 0.003,-1.72814 0.0145,-1.7702 0.55665,-2.09046 0.96523,-0.57017 2.3872,-0.78887 5.49833,-0.84563 4.32965,-0.079 8.51467,-0.23529 9.76066,-0.36449 0.59051,-0.0612 2.65489,-0.28038 4.5875,-0.48698 1.93261,-0.2066 4.39229,-0.42933 5.46597,-0.49496 1.07367,-0.0657 2.87451,-0.20626 4.00186,-0.31251 1.12736,-0.10625 6.09065,-0.23637 11.02954,-0.28917 4.93889,-0.0528 10.73672,-0.14781 12.88406,-0.21116 2.14734,-0.0634 4.25564,-0.10771 4.68511,-0.0986 3.16076,0.0671 5.82934,-0.041 6.83246,-0.27692 1.41164,-0.33196 2.32963,-0.3541 2.86229,-0.0691 0.21803,0.11669 0.78308,0.23824 1.25563,0.2701 1.08962,0.0735 1.79024,0.53164 2.15767,1.41102 0.71918,1.72125 0.93532,9.853 0.35701,13.43093 -0.45952,2.84279 -0.68887,7.56542 -0.50547,10.40834 0.0878,1.36165 0.13702,2.95887 0.1093,3.54938 -0.0277,0.59053 -0.10758,3.35767 -0.17745,6.14922 -0.11791,4.70947 -0.56485,11.05852 -0.80593,11.44861 -0.0572,0.0926 -0.13295,0.54135 -0.1682,0.99715 -0.48489,6.2678 -0.51968,7.58009 -0.38939,14.68885 0.14758,8.0521 0.14953,8.11938 0.37026,12.68885 0.0778,1.6105 0.1712,4.11411 0.20757,5.56356 0.18063,7.19634 0.30599,10.95101 0.40409,12.10321 0.10241,1.2026 0.11598,1.62082 0.0935,2.87939 -0.005,0.29526 0.008,1.45922 0.029,2.58658 0.0212,1.12735 0.0251,2.44504 0.009,2.92819 -0.0504,1.47673 0.14953,6.22679 0.35339,8.39416 0.10602,1.12736 0.2366,3.82686 0.29015,5.9989 0.0535,2.17203 0.16989,4.67565 0.25854,5.56357 0.0887,0.88793 0.0909,1.80621 0.005,2.04064 -0.0859,0.23441 -0.081,0.45403 0.0111,0.48803 0.17893,0.0661 0.31497,1.3125 0.51809,4.74692 0.0699,1.18104 0.22692,2.54265 0.34903,3.0258 0.13903,0.55009 0.16511,1.2798 0.0698,1.95213 -0.0837,0.59052 -0.18907,1.76394 -0.23405,2.6076 -0.0752,1.41031 -0.12214,1.55488 -0.58276,1.79385 -0.27555,0.14296 -0.61106,0.33116 -0.74558,0.4182 -0.13452,0.087 -0.59597,0.24884 -1.02544,0.35955 -0.43273,0.11152 -0.75908,0.30734 -0.73204,0.43923 0.0624,0.30416 -0.28398,0.31332 -0.38502,0.0102 -0.0418,-0.12529 -0.3785,-0.21361 -0.74831,-0.19627 -0.36982,0.0173 -2.12185,0.0205 -3.89341,0.007 -4.82602,-0.0366 -12.6165,-0.0268 -14.05534,0.0178 -1.60342,0.0496 -4.53128,-0.14986 -5.54571,-0.37777 -0.42671,-0.0959 -1.0006,-0.13 -1.27531,-0.0758 -0.2747,0.0542 -0.71654,0.0176 -0.98184,-0.0814 -0.78556,-0.29303 -1.14473,0.37803 -1.35208,2.52616 -0.0969,1.00339 -0.17839,2.39534 -0.18118,3.09322 -0.003,0.69789 -0.0762,2.67442 -0.16304,4.3923 -0.0869,1.71787 -0.1593,7.12877 -0.16092,12.0242 -0.003,9.79657 0.028,9.54684 -1.19507,9.54684 -0.82952,0 -1.86995,-0.87242 -1.8687,-1.56692 0,-0.26555 0.007,-2.05333 0.014,-3.97286 0.007,-1.91951 -0.0242,-3.55042 -0.0698,-3.62423 -0.16074,-0.26008 0.35363,-13.18398 0.6764,-16.99454 0.0955,-1.12736 0.17569,-2.70858 0.17823,-3.51384 0.004,-1.35489 -0.0333,-1.49176 -0.50383,-1.83492 -0.47511,-0.34649 -0.77234,-0.36236 -4.53251,-0.242 -2.21323,0.0708 -4.50497,0.21356 -5.09278,0.31717 -0.58781,0.10363 -1.141,0.11614 -1.22934,0.0278 -0.0883,-0.0883 -0.5559,-0.0304 -1.03908,0.12864 l -0.87849,0.28921 0.0581,2.98136 c 0.032,1.63974 -0.0135,2.93699 -0.10077,2.88279 -0.0874,-0.0542 -0.10399,0.19556 -0.037,0.55508 0.067,0.3595 0.15791,1.53211 0.20187,2.60578 0.044,1.07368 0.14379,2.56705 0.2218,3.31863 0.16091,1.5501 0.15996,8.81728 -0.002,11.02953 -0.14955,2.04983 -0.69445,7.23129 -0.81605,7.75972 -0.0556,0.24158 -0.20919,0.42518 -0.34137,0.40799 -0.13216,-0.0172 -0.52366,-0.0666 -0.86999,-0.10963 z m -19.18443,-31.67329 c 0.37579,-0.10311 2.26448,-0.33147 4.19708,-0.50745 4.22037,-0.38432 4.18346,-0.38116 6.63725,-0.56864 1.12562,-0.086 2.57201,-0.34692 3.41623,-0.61627 1.12686,-0.35953 2.43081,-0.54127 5.66117,-0.78903 5.3205,-0.40808 17.24579,-0.47062 19.81413,-0.10392 1.98151,0.28291 5.96178,0.40285 14.29336,0.4307 7.92299,0.0265 10.85013,-0.2365 11.09134,-0.99646 0.36817,-1.15997 0.42285,-7.20537 0.0735,-8.12426 -0.0943,-0.24798 -0.226,-2.14014 -0.2927,-4.20481 -0.0667,-2.06465 -0.14874,-3.79953 -0.18225,-3.8553 -0.0335,-0.0558 -0.116,-2.33977 -0.18323,-5.07554 -0.0673,-2.73577 -0.16457,-5.24972 -0.21624,-5.58657 -0.09,-0.58657 -0.37414,-10.84898 -0.58033,-20.95861 -0.0536,-2.6305 -0.13993,-5.39765 -0.19176,-6.14921 -0.3025,-4.3873 -0.71188,-15.42388 -0.80012,-21.57104 -0.10559,-7.35533 -0.003,-9.62787 0.69426,-15.42183 0.49213,-4.08774 0.83867,-12.27853 0.87984,-20.79559 0.0178,-3.65347 0.10532,-6.76111 0.19481,-6.9059 0.0895,-0.14477 0.19185,-0.75725 0.22748,-1.36108 0.0356,-0.60381 0.15205,-2.06414 0.25868,-3.24518 0.10662,-1.18104 0.21666,-2.6305 0.24454,-3.22102 0.0769,-1.62812 -0.24952,-6.29521 -0.46941,-6.71232 -0.1704,-0.32322 -0.34822,-0.35349 -1.46439,-0.24926 -0.69873,0.0652 -1.40548,0.2308 -1.57053,0.3679 -0.22381,0.18591 -1.61968,0.26014 -5.49228,0.29205 -17.57632,0.14484 -28.13094,0.32921 -28.91058,0.50502 -0.26842,0.0605 -1.7618,0.15934 -3.31862,0.21959 -2.86362,0.11081 -4.51848,0.25184 -9.46783,0.80684 -3.04441,0.34137 -4.11275,0.40082 -11.78777,0.65591 -2.94014,0.0977 -5.46268,0.13279 -5.60562,0.0779 -0.25098,-0.0963 -0.35538,0.79796 -0.26611,2.27941 0.083,1.37647 0.0609,2.99807 -0.09,6.63725 -0.21739,5.23959 -0.22914,5.47328 -0.37327,7.41809 -0.21583,2.91219 -0.52428,8.66309 -0.50259,9.37022 0.0213,0.6951 -0.30036,5.77638 -0.50051,7.90614 -0.16374,1.74223 -0.1964,13.19706 -0.0526,18.44762 0.0691,2.52313 0.12601,6.69581 0.12648,9.27262 0,2.57681 0.0204,5.25611 0.0443,5.954 0.0883,2.57446 -0.16796,7.54877 -0.52799,10.24868 -0.15748,1.18104 -0.2646,2.67442 -0.23801,3.31862 0.0266,0.64421 -0.014,2.31328 -0.0905,3.70905 -0.36124,6.60201 -0.54103,14.90738 -0.32559,15.04052 0.091,0.0563 0.0888,0.30418 -0.005,0.55091 -0.0938,0.24671 -0.2309,1.27579 -0.30465,2.28684 -0.0737,1.01103 -0.16732,2.10179 -0.20792,2.42389 -0.0406,0.32209 -0.12441,1.50802 -0.18622,2.63537 -0.11552,2.10752 -0.23338,3.53728 -0.30572,3.70905 -0.0226,0.0537 -0.0674,0.75645 -0.0996,1.5617 -0.18877,4.72298 -0.23863,5.70151 -0.35802,7.02767 -0.0725,0.80525 -0.17193,1.68371 -0.22094,1.95213 -0.17415,0.95354 -0.28109,4.88033 -0.13292,4.88033 0.34537,0 0.6598,0.89358 0.84415,2.39901 0.36529,2.9825 0.60021,4.04456 0.93408,4.22292 0.17647,0.0943 0.93495,0.23063 1.68551,0.30302 0.75057,0.0724 1.4021,0.16901 1.44783,0.21477 0.15399,0.15398 1.86663,0.0826 2.55587,-0.10649 z m 25.87774,-5.06168 c -0.073,-0.11804 -0.43195,-0.21464 -0.79776,-0.21464 -0.36581,0 -0.95358,-0.1205 -1.30617,-0.26777 -1.1649,-0.48659 -2.58337,-0.93989 -3.2519,-1.03923 -0.36229,-0.0538 -1.24075,-0.31746 -1.95213,-0.58586 -0.71138,-0.2684 -1.4884,-0.53301 -1.7267,-0.58806 -0.23829,-0.055 -0.53455,-0.22211 -0.65833,-0.37128 -0.12379,-0.14916 -0.48304,-0.2712 -0.79835,-0.2712 -0.38359,0 -0.52717,-0.0746 -0.43396,-0.22537 0.0845,-0.1367 0.0537,-0.17252 -0.0781,-0.091 -0.11954,0.0739 -0.46255,-0.11109 -0.7622,-0.41108 -0.29966,-0.29998 -0.65463,-0.5533 -0.78884,-0.56293 -0.53209,-0.0382 -0.63444,-0.0842 -0.63444,-0.28538 0,-0.11512 -0.40841,-0.64064 -0.90755,-1.16785 -0.83805,-0.88513 -1.19621,-1.37584 -1.55952,-2.13668 -0.0769,-0.16105 -0.19015,-0.33674 -0.25169,-0.39042 -0.0615,-0.0537 -0.23177,-0.3103 -0.37838,-0.57026 -1.42558,-2.52795 -1.2786,-2.03125 -1.56432,-5.28613 -0.21506,-2.44997 -0.0937,-5.89683 0.26458,-7.51571 1.0371,-4.68589 1.25986,-5.26501 2.68105,-6.97035 1.1793,-1.41508 3.45014,-3.66876 3.69671,-3.66876 0.0709,0 0.6729,-0.30746 1.33774,-0.68324 0.69964,-0.39547 1.4779,-0.68325 1.84771,-0.68325 0.3514,0 1.41908,-0.137 2.3726,-0.30445 2.11499,-0.37143 6.82041,-0.44714 7.43084,-0.11957 0.23451,0.12583 0.62359,0.22881 0.8646,0.22881 0.24101,0 0.70798,0.0826 1.03769,0.18348 0.32974,0.10091 1.12658,0.28952 1.77078,0.41912 0.6442,0.1296 1.35343,0.34636 1.57605,0.48169 0.22262,0.13532 1.36462,0.57256 2.53777,0.97163 1.17316,0.39908 2.48438,0.93074 2.91385,1.18148 1.74573,1.01922 5.36836,4.76138 5.36836,5.54546 0,0.0877 0.30006,0.6903 0.66683,1.33915 0.86098,1.52327 0.86883,1.55491 0.92453,3.72531 0.0333,1.29768 -0.0221,1.86483 -0.18764,1.91999 -0.12918,0.043 -0.17743,0.17125 -0.10721,0.28486 0.0702,0.11361 0.16681,0.54534 0.21463,0.95939 0.0764,0.66156 0.0374,0.75282 -0.32167,0.75282 -0.22473,0 -0.40862,0.093 -0.40862,0.20674 0,0.11371 0.0879,0.15243 0.19521,0.0861 0.10737,-0.0663 0.19522,-0.0328 0.19522,0.0746 0,0.10737 -0.0879,0.2495 -0.19522,0.31586 -0.10736,0.0663 -0.19521,0.28214 -0.19521,0.47952 0,0.19738 -0.26354,0.89003 -0.58564,1.53923 -0.3221,0.64921 -0.58564,1.2775 -0.58564,1.39623 0,0.31382 -0.57504,1.40241 -0.98032,1.85577 -0.19195,0.21474 -0.51109,0.66499 -0.70921,1.00057 -0.89696,1.51932 -2.00345,2.97287 -2.99363,3.93262 -0.59159,0.57341 -1.56008,1.51722 -2.1522,2.09733 -0.99815,0.97792 -1.52411,1.33563 -3.60853,2.4542 -0.42947,0.23047 -0.91263,0.52889 -1.07368,0.66318 -0.35413,0.29526 -0.28339,0.28635 -3.3439,0.42133 -1.69123,0.0746 -2.5071,0.0413 -2.59809,-0.10591 z m 4.75289,-3.03974 c 1.23833,-0.45717 1.4849,-0.60891 3.04472,-1.87352 1.78145,-1.44432 4.54495,-4.41851 5.5197,-5.94048 0.56354,-0.87995 1.78804,-3.62504 2.35714,-5.28435 0.78343,-2.2842 1.03137,-5.23592 0.53836,-6.4096 -0.17604,-0.41912 -0.2747,-0.80742 -0.21922,-0.86288 0.0555,-0.0555 -0.018,-0.28356 -0.16307,-0.50687 -0.14514,-0.22331 -0.36889,-0.72637 -0.4972,-1.1179 -0.15805,-0.48226 -0.72251,-1.15362 -1.74989,-2.08131 -1.74517,-1.57578 -2.73084,-2.18473 -3.53638,-2.18473 -0.3125,0 -0.62248,-0.0878 -0.68883,-0.19521 -0.0663,-0.10737 -0.28041,-0.19521 -0.47566,-0.19521 -0.19525,0 -0.46242,-0.12945 -0.59372,-0.28765 -0.1313,-0.15822 -0.55932,-0.34504 -0.95118,-0.41515 -0.39183,-0.0701 -0.84419,-0.23745 -1.00525,-0.37183 -0.16105,-0.13437 -0.55635,-0.2864 -0.87845,-0.33785 -0.32211,-0.0514 -1.2727,-0.28389 -2.1124,-0.5165 -1.75833,-0.48708 -3.67245,-0.6207 -5.43618,-0.3795 -1.03008,0.14087 -1.30603,0.26327 -1.68484,0.74728 -0.42805,0.54695 -0.47804,0.56241 -0.90784,0.2808 -0.34055,-0.22315 -0.82646,-0.27725 -1.93349,-0.21529 -1.24062,0.0694 -1.5764,0.16504 -2.0862,0.594 -0.33417,0.2812 -0.73219,0.51126 -0.88445,0.51126 -0.26827,0 -1.61945,1.25737 -2.62675,2.44438 -0.63603,0.7495 -1.29428,2.15863 -1.46361,3.13313 -0.16966,0.97644 -0.64778,2.44696 -0.89076,2.73974 -0.25994,0.31324 -0.46228,4.09972 -0.36919,6.90937 0.053,1.5985 0.86775,4.37685 1.55769,5.31165 0.21471,0.2909 0.39038,0.61164 0.39038,0.71274 0,0.23047 1.93349,1.89562 3.19408,2.7508 0.93751,0.63599 3.48326,1.6672 4.80966,1.94825 0.6304,0.13359 2.28592,0.65076 4.19708,1.31117 1.01784,0.3517 4.35737,0.21998 5.54575,-0.21874 z m -14.11986,-34.82991 c -0.42107,-0.0653 -0.80174,-0.22851 -0.84593,-0.36272 -0.0442,-0.13421 0.002,-0.24402 0.10151,-0.24402 0.1,0 0.34113,-0.35328 0.53584,-0.78507 0.34461,-0.76419 0.3441,-0.79258 -0.0191,-1.06817 -0.20525,-0.15571 -0.47656,-0.24688 -0.60292,-0.20261 -0.12636,0.0443 -0.33477,-0.046 -0.46312,-0.2007 -0.12838,-0.15466 -0.31139,-0.28121 -0.40671,-0.28121 -0.52877,0 -3.87836,-2.88229 -3.87836,-3.33729 0,-0.25261 -0.46985,-0.31681 -1.07238,-0.14651 -0.88937,0.25138 -1.24253,0.20191 -1.60828,-0.22526 -0.18387,-0.21473 -0.45731,-0.39042 -0.60764,-0.39042 -0.60551,0 0.20806,-0.55854 1.00579,-0.69051 0.45013,-0.0745 0.87358,-0.16773 0.94101,-0.20727 0.0674,-0.0396 -0.12129,-0.79806 -0.41936,-1.68559 -0.29809,-0.88754 -0.60051,-2.14079 -0.67208,-2.78499 -0.0716,-0.6442 -0.25475,-1.69835 -0.40709,-2.34256 -0.15237,-0.6442 -0.32472,-1.96189 -0.38303,-2.92819 -0.1021,-1.69164 0.20066,-8.56794 0.41254,-9.37023 0.0766,-0.28989 0.0551,-0.32104 -0.0833,-0.12101 -0.14002,0.20236 -0.42261,0.23401 -1.13526,0.12714 -1.3228,-0.19833 -1.58794,-0.38605 -1.83352,-1.29802 -0.23792,-0.88365 -0.22143,-0.93164 0.35884,-1.04338 0.2955,-0.0569 0.50869,0.0968 0.78599,0.56684 0.30863,0.52311 1.55101,1.42679 1.69437,1.23244 0.0201,-0.0273 0.28089,-0.57672 0.57945,-1.22092 0.29858,-0.64421 0.69715,-1.39089 0.88572,-1.65931 0.18858,-0.26842 0.45485,-0.86242 0.59173,-1.32001 0.13687,-0.45758 0.3664,-0.92953 0.51005,-1.04877 0.14368,-0.11923 0.26124,-0.3585 0.26124,-0.53172 0,-0.66544 1.11976,-2.5141 2.14734,-3.54512 3.14471,-3.15523 4.01444,-3.67946 7.32049,-4.41237 1.64141,-0.36387 8.09504,-0.411 8.99852,-0.0657 0.31181,0.11917 1.35753,0.26573 2.32384,0.32573 0.9663,0.06 1.84476,0.17305 1.95213,0.25131 0.10736,0.0782 0.58616,0.20203 1.06399,0.27508 0.47782,0.073 0.96097,0.20577 1.07367,0.29495 0.11269,0.0892 0.46843,0.21141 0.79053,0.27164 2.40672,0.45 3.54013,0.82937 5.39477,1.80573 0.4977,0.26199 1.00824,0.47636 1.13458,0.47636 0.46549,0 2.35017,1.01218 2.9762,1.59839 0.35505,0.33244 1.12868,0.9981 1.7192,1.47923 1.02344,0.83384 2.1369,2.36875 2.14401,2.95556 0.002,0.15092 0.22295,0.56233 0.49137,0.91424 0.26841,0.35191 0.48936,0.75551 0.49098,0.89688 0.002,0.14138 0.12542,0.60842 0.27515,1.0379 0.4071,1.16774 0.2235,5.3919 -0.28001,6.44202 -0.97859,2.04101 -1.55308,3.46439 -1.45942,3.61593 0.0567,0.0917 -0.0322,0.24244 -0.19757,0.33497 -0.16535,0.0925 -0.34084,0.37698 -0.38996,0.6321 -0.0491,0.25511 -0.16925,0.51423 -0.26693,0.5758 -0.0977,0.0615 -0.42203,0.661 -0.72079,1.33204 -0.29875,0.67105 -0.61574,1.22008 -0.70442,1.22008 -0.0887,0 -0.34838,0.3981 -0.57709,0.88465 -0.22871,0.48656 -0.57965,0.97231 -0.77984,1.07946 -0.416,0.22264 -0.99949,1.24361 -0.81576,1.42736 0.0673,0.0673 0.49584,0.12237 0.95233,0.12237 1.28442,0 1.44753,0.12224 1.44753,1.08495 0,0.46638 -0.0965,1.29809 -0.21452,1.84824 -0.24921,1.16196 -0.94655,1.74309 -1.92022,1.60019 l -0.57939,-0.085 0.11648,-1.91201 c 0.0641,-1.05161 0.0601,-2.05902 -0.009,-2.23869 -0.11154,-0.29065 -0.15771,-0.29432 -0.41873,-0.0333 -0.16136,0.16136 -0.29338,0.3875 -0.29338,0.50254 0,0.11504 -0.0871,0.20914 -0.19352,0.20914 -0.22014,0 -1.36819,1.15317 -1.36819,1.37428 0,0.0798 0.22586,0.2018 0.50189,0.27108 0.27605,0.0693 0.46691,0.18861 0.42414,0.26517 -0.0428,0.0766 -0.19197,0.40337 -0.33159,0.72625 -0.31097,0.71919 -0.88531,1.17171 -1.71967,1.35498 -0.58624,0.12876 -0.63169,0.10208 -0.63169,-0.37092 0,-0.61108 -0.55071,-0.90173 -0.81472,-0.42998 -0.0994,0.17764 -0.27008,0.32298 -0.37928,0.32298 -0.25266,0 -1.53898,0.97476 -1.53898,1.1662 0,0.0791 0.2855,0.22518 0.63444,0.32462 0.8737,0.24899 0.9732,1.12084 0.22887,2.00541 -0.46933,0.55778 -0.61767,0.61648 -1.42562,0.5641 -0.87387,-0.0567 -0.89999,-0.0766 -0.84369,-0.6441 0.032,-0.3221 0.15357,-0.83003 0.27029,-1.12875 0.30262,-0.77452 0.0782,-0.86151 -0.86762,-0.33631 -1.74216,0.96737 -2.6078,1.35968 -3.26742,1.48091 -0.37579,0.0691 -0.86161,0.23687 -1.07959,0.37289 -0.21799,0.13603 -0.92076,0.36029 -1.5617,0.49837 -1.36399,0.29387 -1.58831,0.43832 -1.93273,1.24469 -0.51753,1.21161 -0.94731,1.5073 -2.09547,1.44161 -0.91618,-0.0524 -1.03403,-0.10653 -0.97991,-0.45001 0.18682,-1.18589 0.41348,-1.09869 -2.9544,-1.13656 -2.88679,-0.0325 -3.10211,-0.01 -3.30312,0.3491 -0.28569,0.50991 -1.06715,1.28257 -1.26201,1.2478 -0.0854,-0.0152 -0.49981,-0.0811 -0.92088,-0.14641 z m 8.28129,-3.81477 c 2.80954,-0.30791 5.31212,-0.80186 6.08348,-1.20074 0.29391,-0.15199 0.69246,-0.2771 0.88568,-0.27802 0.56831,-0.003 3.38623,-1.43784 4.75102,-2.41962 0.69381,-0.4991 1.74464,-1.24695 2.33516,-1.66187 1.8055,-1.26864 3.83199,-3.54392 5.7083,-6.40916 1.06823,-1.63126 3.2691,-6.00592 3.27058,-6.50096 0,-0.16643 0.087,-0.38862 0.19211,-0.49378 0.30287,-0.30287 0.64098,-3.1879 0.52438,-4.4744 -0.13688,-1.51015 -0.96941,-4.08492 -1.6484,-5.09804 -0.64354,-0.96025 -2.80728,-2.91399 -3.75061,-3.38659 -0.3767,-0.18874 -1.27767,-0.53217 -2.00212,-0.76321 -0.72446,-0.23102 -1.79493,-0.63857 -2.37885,-0.90565 -0.5839,-0.26709 -1.19628,-0.48562 -1.36085,-0.48562 -0.16454,0 -1.50981,-0.30944 -2.98949,-0.68767 -3.96175,-1.01269 -6.32908,-1.23701 -10.79167,-1.02259 -3.70598,0.17806 -5.35295,0.92383 -8.24775,3.73468 -1.09725,1.06544 -1.5129,1.60403 -1.5129,1.96039 0,0.29157 -0.15875,0.57633 -0.39043,0.7003 -0.21473,0.11493 -0.39042,0.34575 -0.39042,0.51293 0,0.16718 -0.17569,0.52731 -0.39043,0.80029 -0.21473,0.27301 -0.39042,0.64473 -0.39042,0.82609 0,0.18137 -0.30746,0.76219 -0.68325,1.29074 -0.37579,0.52854 -0.68325,1.143 -0.68325,1.36542 0,0.22243 -0.14693,0.88156 -0.32651,1.46472 -0.17958,0.58316 -0.33604,1.6313 -0.34769,2.32919 -0.0117,0.69789 -0.0977,2.47677 -0.19121,3.95306 -0.12777,2.01681 -0.11323,2.68418 0.0585,2.68418 0.14445,0 0.22324,0.34104 0.21418,0.92726 -0.008,0.51 0.0311,1.23473 0.0867,1.61052 0.0555,0.37578 0.15524,1.12247 0.22151,1.6593 0.1779,1.44062 0.44132,2.42023 0.94491,3.51383 0.2472,0.53684 0.58459,1.28353 0.74974,1.65932 0.16515,0.37579 0.65064,1.07855 1.07884,1.5617 0.71044,0.80159 1.102,1.0749 2.87947,2.00986 1.03285,0.54327 2.59651,1.11345 3.062,1.11654 0.2485,0.002 0.58361,0.0881 0.74466,0.19223 0.39919,0.25797 1.78772,0.23288 4.68511,-0.0846 z m 5.61237,3.05165 c -0.55565,-0.0474 -0.73204,-0.14823 -0.73204,-0.4186 0,-0.66501 1.21342,-1.18303 2.03376,-0.86823 0.85781,0.32917 -0.20544,1.38026 -1.30172,1.28683 z m -18.64284,-0.54697 c -0.24158,-0.2756 -0.43923,-0.5765 -0.43923,-0.66865 0,-0.35743 0.9055,-0.77534 1.67991,-0.77534 0.78505,0 0.81114,0.0203 0.78167,0.60657 -0.0324,0.64371 -0.69553,1.34829 -1.26313,1.34203 -0.176,-0.002 -0.51764,-0.22901 -0.75922,-0.50461 z m 37.33225,-9.69174 c -0.076,-0.67105 -0.30426,-1.58861 -0.50721,-2.03902 -0.20296,-0.45043 -0.36901,-0.88273 -0.36901,-0.96071 0,-0.078 -0.13965,-0.29605 -0.31033,-0.48466 -0.28766,-0.31788 -0.26697,-0.36535 0.28312,-0.64981 0.82925,-0.42883 1.27119,-0.38479 1.96068,0.19539 0.76311,0.64211 1.06393,1.74188 0.89874,3.28578 -0.19576,1.82946 -0.22069,1.87311 -1.06928,1.87311 h -0.74852 z m -45.5687,-3.15861 c -0.30627,-0.36903 0.27929,-0.69685 1.24476,-0.69685 0.72152,0 0.90649,0.29714 0.46181,0.74181 -0.32341,0.32341 -1.42495,0.29438 -1.70657,-0.0449 z m 49.3776,-1.74598 c 0,-0.67151 -0.45938,-1.87089 -1.04984,-2.74099 -0.60567,-0.89247 -0.43552,-1.28542 0.55657,-1.28542 1.62304,0 2.31263,0.70226 2.5473,2.59411 0.17534,1.41346 -0.15629,1.8958 -1.30344,1.8958 -0.6599,0 -0.75059,-0.056 -0.75059,-0.4635 z m -47.70583,-2.09942 c -0.28455,-0.33233 -0.30411,-0.44757 -0.0977,-0.57516 0.20259,-0.12518 0.18578,-0.18732 -0.078,-0.28854 -0.35691,-0.13696 -0.49825,-1.45372 -0.15604,-1.45372 0.28788,0 1.96722,2.05939 1.96722,2.41241 0,0.49375 -1.19066,0.42461 -1.63555,-0.095 z m 50.55557,-6.36195 c -0.20422,-0.0522 -0.5556,-0.26946 -0.78086,-0.48271 -0.22527,-0.21323 -0.81587,-0.59546 -1.31247,-0.84937 -1.28735,-0.65824 -1.37584,-1.13782 -0.2824,-1.53037 0.49936,-0.17927 2.43259,0.421 3.01173,0.93511 0.70128,0.62255 0.88715,1.26722 0.49141,1.7045 -0.333,0.36794 -0.46119,0.39327 -1.12741,0.22284 z m -50.66081,-0.99282 c -1.0393,-0.39892 -1.2081,-0.74661 -0.49424,-1.01802 0.61734,-0.23472 1.0308,-0.13428 1.73825,0.42219 0.40489,0.3185 0.46428,0.4592 0.28501,0.67521 -0.28313,0.34115 -0.45697,0.33213 -1.52902,-0.0794 z m 45.71253,-7.31996 c -0.24158,-0.12589 -0.43923,-0.30012 -0.43923,-0.38719 0,-0.23339 1.03363,-1.10228 1.31981,-1.10945 0.13538,-0.003 0.61853,-0.16942 1.07367,-0.36895 1.60991,-0.70575 1.92549,-0.80849 2.48333,-0.80849 0.78704,0 1.61265,0.34571 1.51626,0.63491 -0.0444,0.13315 -0.90802,0.66561 -1.9192,1.18326 -1.94024,0.99326 -3.2414,1.26929 -4.03464,0.85591 z m -44.93016,-4.18698 c -1.71912,-2.00457 -2.75063,-3.36265 -2.75063,-3.62144 0,-0.42807 0.672,-0.92521 1.39109,-1.02917 1.04527,-0.15107 2.08013,1.00732 3.71151,4.15457 0.32565,0.62823 -0.22828,1.4233 -0.99162,1.4233 -0.43244,0 -0.75185,-0.21772 -1.36035,-0.92726 z m 39.46419,-2.71302 c -0.34894,-0.172 -0.63444,-0.42473 -0.63444,-0.5616 0,-0.3495 1.81564,-1.96895 3.4417,-3.06981 1.19199,-0.80699 1.49922,-0.92726 2.36868,-0.92726 1.5145,0 1.51563,0.20831 0.008,1.41971 -0.50418,0.40504 -1.54316,1.34938 -2.30882,2.09854 -1.48567,1.45359 -1.80346,1.56861 -2.87489,1.04042 z m -32.92412,-1.0781 c -0.23252,-0.76208 -0.50611,-2.69552 -0.50611,-3.57671 0,-1.18955 0.53408,-1.85599 1.48741,-1.85599 h 0.58378 l 0.36624,2.25398 0.36622,2.25397 -0.47456,0.46028 c -0.57758,0.56016 -1.70605,0.84769 -1.82298,0.46447 z m 23.21227,-1.59687 c -0.7029,-0.26658 -1.07367,-0.59248 -1.07367,-0.94375 0,-0.46965 2.2788,-2.46689 3.09298,-2.7108 0.74981,-0.22466 2.18504,-0.1128 2.17086,0.16918 -0.02,0.3975 -0.63366,1.12464 -1.99785,2.36735 -0.8342,0.75991 -1.53697,1.37231 -1.5617,1.36089 -0.0247,-0.0115 -0.30852,-0.1207 -0.63062,-0.24287 z m -12.61117,-0.38462 c -0.53912,-0.36825 -0.65783,-0.57016 -0.63401,-1.0785 0.0354,-0.75619 0.92191,-1.98229 1.43321,-1.98229 0.20293,0 0.42326,-0.0878 0.48962,-0.19521 0.16847,-0.2726 1.33678,-0.24444 1.62026,0.039 0.35656,0.35657 0.28826,0.61102 -0.35848,1.3354 -0.32601,0.36517 -0.64526,0.88609 -0.70947,1.15765 -0.1378,0.58287 -0.61435,1.17696 -0.94412,1.17696 -0.12853,0 -0.5322,-0.20388 -0.89701,-0.45305 z m 1.90317,-5.14814 c -0.086,-0.0867 -0.8304,-0.29867 -1.65423,-0.47111 -3.15623,-0.66061 -4.54064,-1.19984 -6.10303,-2.37707 -1.24058,-0.93476 -3.30099,-3.1663 -3.30099,-3.57517 0,-0.0638 -0.16429,-0.34918 -0.36507,-0.63416 -0.20079,-0.285 -0.64588,-1.34645 -0.98908,-2.35876 -0.34321,-1.01232 -0.73738,-2.06647 -0.87592,-2.34256 -0.32441,-0.64638 -0.48671,-1.45756 -0.72538,-3.62538 -0.10639,-0.9663 -0.24321,-2.15223 -0.30408,-2.63538 -0.20197,-1.60348 0.30441,-4.42758 1.10262,-6.14921 0.39824,-0.85893 0.89273,-1.95588 1.09887,-2.43764 0.42081,-0.98349 2.31699,-3.1786 3.85019,-4.45719 1.61795,-1.34925 2.8718,-1.84448 4.82116,-1.9042 1.11232,-0.0341 1.94889,-0.1754 2.53777,-0.42871 0.48315,-0.2078 1.3148,-0.44294 1.84812,-0.5225 0.57006,-0.085 1.19886,-0.33752 1.52588,-0.61268 0.30592,-0.25743 1.04724,-0.61078 1.64738,-0.78524 0.94111,-0.27359 1.38895,-0.28697 3.25684,-0.0972 5.17418,0.52571 6.15903,0.70536 8.5101,1.55237 0.59052,0.21274 1.41285,0.44989 1.82741,0.52698 0.41455,0.0771 1.46773,0.62079 2.34037,1.20823 0.87264,0.58744 1.74676,1.09892 1.94248,1.13661 0.84163,0.16209 2.98682,2.44032 3.15826,3.35409 0.0743,0.39633 0.25942,0.96084 0.41125,1.25448 0.15186,0.29364 0.27609,0.83494 0.27609,1.20292 0,0.36798 0.13177,0.77839 0.29282,0.91205 0.40948,0.33986 0.40936,3.77289 -1.7e-4,4.75306 -0.1716,0.41064 -0.28011,1.20924 -0.2619,1.92716 0.0311,1.22353 -0.40987,3.15179 -0.90034,3.9374 -0.14143,0.22655 -0.45374,1.02685 -0.69401,1.77841 -0.24026,0.75157 -0.51382,1.44995 -0.60791,1.55195 -0.0941,0.102 -0.17104,0.29559 -0.17104,0.43021 0,0.13463 -0.48259,0.75395 -1.07241,1.37625 -0.58983,0.62232 -1.07299,1.06327 -1.07367,0.97985 0,-0.0834 -0.37461,0.26231 -0.83092,0.7682 -1.44614,1.60335 -1.68385,1.8236 -1.96816,1.8236 -0.15279,0 -0.38715,0.13178 -0.52081,0.29283 -0.13366,0.16105 -0.40796,0.29281 -0.60953,0.29281 -0.2016,0 -0.36653,0.0862 -0.36653,0.19149 0,0.10534 -0.24158,0.24526 -0.53684,0.31097 -1.07332,0.23887 -1.22008,0.30967 -1.22008,0.58855 0,0.15613 -0.24158,0.38051 -0.53684,0.49866 -0.29526,0.11813 -0.97606,0.4184 -1.5129,0.66725 -1.26185,0.58495 -2.32071,0.85277 -3.58979,0.90799 -0.56167,0.0244 -1.11453,0.15686 -1.22859,0.29429 -0.11405,0.13741 -0.53334,0.24985 -0.93177,0.24985 -0.39843,0 -0.78019,0.0558 -0.84836,0.12394 -0.14126,0.14126 -1.55354,0.32737 -2.28368,0.30092 -0.26842,-0.01 -0.6198,0.0302 -0.78085,0.0889 -0.51724,0.18815 -3.42088,0.29507 -3.58273,0.13191 z m 5.04683,-2.43179 c 0.53683,-0.10658 1.41529,-0.26515 1.95213,-0.35236 2.84339,-0.46191 6.88926,-1.83508 8.58937,-2.91523 1.81835,-1.15527 4.29621,-3.48976 5.28348,-4.97773 0.74665,-1.12532 1.88318,-4.08357 2.17842,-5.67015 0.16117,-0.8661 0.46923,-2.36342 0.68459,-3.3274 0.26707,-1.19539 0.3556,-2.09685 0.27843,-2.83512 -0.12312,-1.17809 -0.73694,-3.85992 -1.08948,-4.76007 -0.2177,-0.55583 -2.097,-2.4957 -3.23597,-3.34026 -0.59321,-0.43985 -2.02594,-0.91519 -2.72398,-0.90371 -0.2098,0.004 -0.48228,-0.0774 -0.60553,-0.17971 -0.48374,-0.40146 -2.96279,-1.16238 -3.79492,-1.1648 -0.48362,-0.002 -1.71384,-0.17597 -2.73383,-0.38787 -2.35561,-0.4894 -3.55545,-0.4894 -4.97793,0 -0.62413,0.21473 -1.29674,0.39043 -1.49467,0.39043 -0.1979,0 -0.35985,0.0776 -0.35985,0.17245 0,0.0948 -0.15373,0.22521 -0.34162,0.28973 -0.1879,0.0645 -0.69301,0.3297 -1.12248,0.58929 -0.42947,0.25958 -0.85656,0.42541 -0.94909,0.36848 -0.0925,-0.057 -0.2243,-0.0156 -0.29282,0.0916 -0.0685,0.10727 -0.68334,0.47608 -1.36627,0.81958 l -1.24171,0.62455 -0.45795,-0.43026 c -0.5778,-0.54278 -1.3289,-0.4246 -2.55325,0.4017 -0.47816,0.3227 -0.90201,0.58675 -0.94187,0.58675 -0.16812,0 -2.64094,2.51006 -2.64094,2.6807 0,0.10284 -0.1637,0.33513 -0.36376,0.51619 -0.35407,0.32042 -1.6285,2.75502 -1.852,3.53796 -0.21577,0.75581 -0.37091,1.57072 -0.46451,2.44016 -0.052,0.48316 -0.16582,0.96661 -0.25284,1.07436 -0.13046,0.16151 -0.12597,1.70526 0.006,2.04905 0.0206,0.0537 0.0612,0.8443 0.0902,1.75692 0.0668,2.10195 0.11061,2.37706 0.42935,2.69579 0.14315,0.14317 0.26028,0.55071 0.26028,0.90569 0,0.35497 0.13177,0.75475 0.29282,0.88841 0.16105,0.13367 0.29282,0.42368 0.29282,0.64448 0,0.52755 0.42728,1.69808 0.61984,1.69808 0.083,0 0.29596,0.2855 0.47314,0.63445 0.79238,1.56053 1.62491,2.59297 2.80677,3.48078 0.70036,0.5261 1.42193,0.9574 1.6035,0.95844 0.18155,0.002 0.37813,0.0796 0.43683,0.17457 0.0587,0.095 0.34939,0.2196 0.64598,0.2769 0.29656,0.0573 1.2859,0.28284 2.19852,0.50124 1.33573,0.31965 2.05903,0.37686 3.70905,0.29343 1.12736,-0.057 2.48897,-0.19086 3.0258,-0.29745 z"
       id="path765" />
    <path
       d="m -565.83757,574.88514 c -2.95246,0 -4.31647,-4.12783 -3.18694,-5.04323 0.39436,-0.31953 3.22157,-1.17222 6.28288,-1.89486 3.06127,-0.72264 5.8164,-1.5423 6.12253,-1.82146 0.30612,-0.27919 1.14741,-0.50763 1.86956,-0.50763 0.72211,0 1.47593,-0.26364 1.67506,-0.58588 0.19908,-0.32223 1.00569,-0.5859 1.79223,-0.5859 0.78662,0 1.43016,-0.26364 1.43016,-0.58588 0,-0.32223 0.54826,-0.58588 1.21835,-0.58588 0.67007,0 3.63612,-1.22685 6.59123,-2.72636 2.95511,-1.49947 6.50194,-2.88363 7.88194,-3.07593 3.04176,-0.42376 3.36827,-1.37964 0.65216,-1.90917 -2.92464,-0.57018 -7.97628,-2.77118 -14.58602,-6.35506 -3.33447,-1.80804 -7.05777,-3.35027 -11.42482,-4.73226 -2.25565,-0.71385 -4.23302,-1.48505 -4.39414,-1.7138 -0.16121,-0.22872 -1.15779,-0.85902 -2.21478,-1.40062 -1.75449,-0.8991 -2.00261,-0.9039 -2.85092,-0.0556 -0.51108,0.51102 -1.19018,0.84215 -1.50914,0.73582 -1.16937,-0.3898 -3.29708,-6.80691 -3.10538,-9.36578 0.21103,-2.81782 0.78263,-4.55451 1.49893,-4.55451 0.88002,0 4.04802,-5.26067 3.70546,-6.15316 -0.18513,-0.4826 -0.0735,-0.87749 0.2484,-0.87749 0.32178,0 0.76142,-0.7026 0.97692,-1.56127 0.70752,-2.81917 5.73097,-8.57429 9.587,-10.9834 4.11134,-2.5687 6.54413,-3.86017 7.27115,-3.86017 0.37538,0 1.35604,-0.62339 2.17926,-1.38527 1.31926,-1.22099 5.01937,-2.53268 8.52737,-3.02296 1.62994,-0.22773 10.35485,-2.66432 11.42486,-3.1905 1.25484,-0.61712 1.68397,-9.26927 1.02758,-20.71756 l -0.5318,-9.27502 -2.25654,-3.32158 c -1.52471,-2.24434 -2.38557,-4.27169 -2.65438,-6.25106 -0.21878,-1.61118 -0.84173,-4.64315 -1.38438,-6.73771 -1.34878,-5.20607 -0.89142,-11.63538 0.96852,-13.61521 0.72364,-0.77025 1.31568,-1.68074 1.31568,-2.0233 0,-0.34257 0.39546,-0.95108 0.87877,-1.35224 0.48342,-0.40115 0.88298,-1.15847 0.88797,-1.6829 0.0155,-1.57106 5.37522,-6.33303 7.92565,-7.04113 3.67702,-1.02085 9.52185,-0.80548 12.23989,0.45103 1.31011,0.60561 2.77752,1.23609 3.26087,1.40101 0.48338,0.16498 1.53797,1.57266 2.34357,3.1283 0.80559,1.55571 2.13667,4.0231 2.9579,5.4832 0.82124,1.46003 1.79617,4.31443 2.16643,6.34306 0.63323,3.46887 0.58794,3.84886 -0.76084,6.38552 -0.78871,1.48347 -1.43407,3.30148 -1.43407,4.04006 0,0.73856 -0.26664,1.50766 -0.59257,1.70908 -0.32587,0.20151 -1.38731,2.06613 -2.35871,4.14381 -2.21952,4.74734 -7.80644,10.48856 -11.0588,11.36434 l -2.24507,0.60453 -0.41985,9.26405 c -0.61015,13.4624 0.0709,16.45675 3.38561,14.88945 1.76054,-0.83242 19.72056,4.31388 23.85921,3.19015 3.07493,14.47815 14.44291,12.99939 15.14134,27.18127 -0.007,6.58261 0.0199,13.1077 0.0562,14.50012 0.0899,3.54064 -0.35448,4.55878 -2.35123,5.3859 -0.95599,0.396 -1.73815,0.92581 -1.73815,1.17745 0,0.25158 -0.81416,0.74133 -1.80924,1.08817 -1.00882,0.35171 -1.95011,1.16932 -2.12764,1.84812 -0.17516,0.6696 -0.64148,1.09343 -1.03644,0.94188 -0.39493,-0.15146 -1.48077,0.2392 -2.41303,0.86839 -2.61387,1.76418 -7.546,3.93816 -10.62731,4.68441 -1.53197,0.37104 -3.00542,0.87204 -3.27433,1.11326 -0.55543,0.49816 2.80212,2.33151 4.27005,2.33151 0.53052,0 1.21507,0.22864 1.52121,0.50803 0.94286,0.86055 6.22756,2.42142 8.19849,2.42142 1.02694,0 2.58706,0.56626 3.46688,1.25825 1.31315,1.03292 1.53684,1.57259 1.24875,3.01286 -0.19309,0.96496 -0.81139,2.10406 -1.3742,2.53135 -1.06068,0.80523 -6.67484,1.11903 -7.38129,0.41258 -0.54979,-0.54987 -3.83287,-1.72252 -9.75385,-3.48399 -2.73903,-0.81485 -5.23052,-1.72403 -5.53666,-2.02042 -0.30611,-0.29635 -1.30329,-0.53885 -2.21588,-0.53885 -0.91263,0 -2.58867,-0.38833 -3.72454,-0.8629 -2.48176,-1.03697 -6.55865,-0.68736 -9.57287,0.82101 -1.15099,0.57598 -3.31906,1.20792 -4.81811,1.40431 -3.11569,0.4082 -9.99612,2.65584 -10.50379,3.43124 -0.18689,0.28539 -0.7801,0.35008 -1.31824,0.1435 -0.55091,-0.21148 -0.97849,-0.0921 -0.97849,0.2731 0,0.35673 -0.26652,0.64856 -0.59228,0.64856 -0.55583,0 -2.69966,0.88212 -8.65115,3.55979 -1.37814,0.61999 -3.09907,1.12732 -3.82432,1.12732 -0.72534,0 -1.92465,0.42441 -2.66527,0.94315 -0.81292,0.56943 -1.96752,0.81965 -2.91333,0.63141 -0.86172,-0.17139 -2.22591,0.0538 -3.0315,0.50082 -1.88034,1.04304 -1.82808,-0.42478 -4.85361,-0.42478 z m 53.18933,-22.95819 c 0.96671,-0.0427 1.96852,-0.40691 2.22621,-0.80971 0.25766,-0.40279 0.93232,-0.73236 1.49922,-0.73236 0.56683,0 1.5424,-0.38709 2.16796,-0.8602 0.6255,-0.4731 1.68395,-0.86856 2.35209,-0.87882 2.38743,-0.0363 11.64241,-4.47319 12.38996,-5.93931 0.66943,-1.31304 0.59438,-1.43087 -1.17179,-1.83904 -1.74459,-0.40329 -16.24104,-0.13464 -23.95119,0.44387 -2.02144,0.15168 -4.65155,-0.12401 -6.73771,-0.70623 -2.49043,-0.69498 -6.13326,-0.97258 -13.38202,-1.01981 -13.56296,-0.0884 -13.91887,0.0915 -6.9754,3.5223 2.44719,1.20916 4.75411,2.48909 5.1265,2.84426 0.84784,0.80864 6.78652,2.67532 8.51107,2.67532 0.70748,0 2.66164,0.69914 4.34267,1.55361 3.10712,1.57942 8.54656,2.66028 10.67299,2.12079 0.64447,-0.16342 1.96273,-0.33209 2.92944,-0.37467 z m 27.73376,-24.09872 c 0.24495,-8.01273 -5.0029,-14.71111 -5.0029,-14.71111 -4.63022,-5.32549 -9.75843,-8.80208 -9.75843,-8.80208 -4.40969,2.08189 -9.14003,-2.55828 -12.67949,-1.91035 -5.74509,1.04271 -5.93475,1.20821 -5.84558,5.10144 0.0421,1.83224 -0.10252,7.84649 -0.32106,13.36497 -0.50169,12.66684 -0.43725,12.83768 4.6131,12.2219 6.21691,-0.75802 18.07305,-0.32739 23.52434,0.85447 1.28894,0.27941 3.00267,0.46701 3.80826,0.41679 1.45516,-0.0908 1.46601,-0.13331 1.66176,-6.53603 z m -56.57284,5.20507 c 8.31461,0 12.90382,-0.61524 13.17455,-1.03907 0.22861,-0.35787 0.44839,-3.81447 0.4884,-7.68132 0.0399,-3.86686 0.27917,-9.8649 0.53145,-13.32894 l 0.45865,-6.29831 h -1.50698 c -0.82884,0 -1.9186,0.41158 -2.42175,0.91469 -0.503,0.50311 -1.8401,1.06492 -2.97121,1.24847 -1.13113,0.18357 -2.05658,0.51891 -2.05658,0.74531 0,0.42529 -0.0996,0.44954 -3.49887,0.85276 -1.11882,0.13264 -2.12946,0.52713 -2.24589,0.87649 -0.11648,0.34941 -0.68114,0.63526 -1.25484,0.63526 -0.57364,0 -1.67219,0.62357 -2.44116,1.38563 -0.76898,0.76212 -2.03802,1.58565 -2.82005,1.83003 -0.78199,0.24442 -2.09755,1.071 -2.9234,1.83676 -0.82588,0.76582 -1.74256,1.39235 -2.03703,1.39235 -1.26417,0 -6.80016,6.75288 -6.80016,8.295 0,0.29945 -0.65913,1.25526 -1.46472,2.12407 -0.80559,0.86881 -1.46472,1.91551 -1.46472,2.32599 0,0.41041 -0.31373,1.24857 -0.69709,1.86253 -0.55131,0.8827 -0.526,1.32247 0.12091,2.10193 0.67944,0.81866 1.51714,0.92834 4.94477,0.64722 2.26972,-0.18623 9.86505,-0.72685 16.88567,-0.72685 z m 26.61007,-73.72749 c 1.44315,-1.59666 3.27336,-4.10134 4.06723,-5.56593 0.79381,-1.46461 2.08477,-3.71752 2.8688,-5.00646 0.78404,-1.28897 1.42987,-3.05301 1.43514,-3.92018 0.007,-0.86711 0.29194,-1.75104 0.63692,-1.96424 0.90659,-0.56035 0.0857,-4.71424 -1.58683,-8.03042 -1.31075,-2.5986 -1.55389,-2.78297 -3.67042,-2.78297 -1.24669,0 -2.98093,-0.37051 -3.85383,-0.82339 -1.73331,-0.89924 -1.47124,-1.02028 -5.29303,2.4446 -5.0684,4.59513 -6.91143,11.36094 -5.1711,18.98351 0.46583,2.04031 1.09824,4.88062 1.40537,6.31184 0.30711,1.4312 1.12274,3.20292 1.81256,3.93721 1.21853,1.29705 1.30354,1.30635 2.98979,0.32722 0.95457,-0.55424 2.91631,-2.31414 4.3594,-3.91079 z"
       style="fill:#041;stroke-width:0.155016"
       id="path1886" />
    <path
       d="m -319.55451,409.85464 c -0.87921,0 -0.11337,-1.75842 0.7933,-2.58654 0.47408,-0.43302 0.94393,-0.78899 1.04408,-0.79106 0.18359,-0.004 2.6262,-2.1891 4.21565,-3.77163 0.47223,-0.47016 0.85919,-1.00364 0.85993,-1.18555 0,-0.1819 0.16848,-0.33072 0.37279,-0.33072 0.54973,0 4.07377,-3.9178 4.44334,-4.93983 0.17523,-0.48456 0.50302,-0.88302 0.72845,-0.88545 0.59214,-0.006 2.30513,-1.83433 2.77669,-2.96291 0.2218,-0.53086 0.53639,-1.04749 0.69909,-1.14803 0.16266,-0.10054 0.56967,-0.77401 0.90447,-1.49661 0.33478,-0.72261 0.85834,-1.48868 1.16343,-1.70239 0.30509,-0.2137 0.55473,-0.57176 0.55473,-0.7957 0,-0.22395 0.24624,-0.75298 0.54718,-1.17563 0.30096,-0.42264 0.47485,-0.76845 0.38645,-0.76845 -0.171,0 -0.0116,-0.21884 1.0268,-1.40997 0.3589,-0.41169 0.72892,-1.0963 0.82229,-1.52135 0.0943,-0.42937 0.34373,-0.77285 0.56121,-0.77285 0.21532,0 0.31737,-0.11991 0.2268,-0.26646 -0.0906,-0.14653 0.0214,-0.33788 0.24898,-0.42519 0.22749,-0.0873 0.41362,-0.30998 0.41362,-0.49487 0,-0.18492 0.17859,-0.4844 0.39687,-0.66556 0.21829,-0.18116 0.39688,-0.61246 0.39688,-0.95843 0,-0.346 0.11906,-0.62907 0.26458,-0.62907 0.14552,0 0.26459,-0.18564 0.26459,-0.41249 0,-0.22688 0.11557,-0.34107 0.25683,-0.25376 0.14126,0.0873 0.33276,-0.1438 0.42555,-0.51356 0.0928,-0.36975 0.24818,-0.67228 0.34526,-0.67228 0.0971,0 0.70927,-1.04179 1.36038,-2.3151 0.65111,-1.27331 1.27315,-2.35479 1.38229,-2.40329 0.10914,-0.0485 0.19844,-0.31642 0.19844,-0.59531 0,-0.27893 0.11906,-0.50713 0.26458,-0.50713 0.14552,0 0.26458,-0.16402 0.26458,-0.36449 0,-0.20045 0.1786,-0.51268 0.39688,-0.69384 0.21828,-0.18116 0.39687,-0.53835 0.39687,-0.79375 0,-0.25541 0.17471,-0.60936 0.3882,-0.78656 0.21349,-0.17719 0.82833,-1.1145 1.36628,-2.0829 0.53795,-0.9684 1.05386,-1.82028 1.14644,-1.89304 0.23141,-0.18185 1.86158,-2.87962 1.86158,-3.08073 0,-0.0893 0.47625,-0.86008 1.05834,-1.71283 0.58208,-0.85276 1.05833,-1.64714 1.05833,-1.76528 0,-0.51011 0.69064,-1.63931 1.0038,-1.64119 0.18828,0 0.31099,-0.15089 0.27268,-0.3328 -0.0612,-0.29088 0.69792,-1.69018 1.11244,-2.05052 0.0837,-0.0728 0.35764,-0.54901 0.60876,-1.05833 0.25109,-0.50932 0.5585,-1.10463 0.68315,-1.32292 0.12465,-0.21828 0.37957,-0.72429 0.56655,-1.12447 0.18698,-0.40019 0.48678,-0.72761 0.66625,-0.72761 0.17947,0 0.44987,-0.35451 0.60092,-0.78782 0.15105,-0.43331 0.51988,-1.05106 0.81963,-1.37282 0.29974,-0.32173 0.54499,-0.80065 0.54499,-1.06426 0,-0.2636 0.0893,-0.4795 0.19843,-0.47977 0.10914,0 0.61304,-0.62537 1.11977,-1.38906 0.50671,-0.76372 1.20981,-1.74575 1.56239,-2.18231 0.35261,-0.43656 0.89231,-1.32953 1.19939,-1.98438 0.30701,-0.65484 0.88386,-1.51262 1.28185,-1.90619 0.39798,-0.39356 0.72358,-0.89958 0.72358,-1.12448 0,-0.22489 0.0912,-0.40891 0.20267,-0.40891 0.11149,0 0.60992,-0.62508 1.10765,-1.38906 0.49771,-0.76399 1.94591,-2.78678 3.21818,-4.49511 1.27228,-1.70834 2.38921,-3.34545 2.48208,-3.63802 0.0929,-0.29258 0.27988,-0.53197 0.41558,-0.53197 0.13571,0 0.24675,-0.1288 0.24675,-0.2862 0,-0.15741 0.40299,-0.78248 0.89554,-1.38907 0.49255,-0.60658 1.44918,-1.9363 2.12585,-2.95494 0.67667,-1.01865 1.82605,-2.68552 2.55418,-3.70417 0.72811,-1.01865 1.47598,-2.14974 1.66193,-2.51354 1.20496,-2.35746 2.39241,-3.8713 3.1946,-4.07265 0.99224,-0.24903 1.96535,0.24312 2.14882,1.08672 0.0881,0.40534 0.29982,1.02433 0.4704,1.37557 0.24199,0.49829 0.23749,0.66302 -0.0206,0.74967 -0.1819,0.0611 -0.33073,0.26125 -0.33073,0.44484 0,0.18362 -0.23812,0.54933 -0.52916,0.81272 -0.29105,0.2634 -0.52917,0.63903 -0.52917,0.83476 0,0.19572 -0.11906,0.35587 -0.26458,0.35587 -0.14553,0 -0.26459,0.18341 -0.26459,0.40759 0,0.45384 -1.00769,1.98893 -1.52135,2.31754 -0.1819,0.11636 -0.33073,0.34007 -0.33073,0.4971 0,0.15703 -0.41672,0.74676 -0.92604,1.31053 -0.50933,0.56375 -0.92604,1.15631 -0.92604,1.31678 0,0.16047 -0.2679,0.62571 -0.59532,1.03383 -1.37133,1.70934 -1.58543,2.01129 -1.87301,2.64163 -0.16597,0.3638 -0.6895,1.07818 -1.1634,1.5875 -0.47387,0.50932 -0.86265,1.02036 -0.86392,1.13564 -0.003,0.25863 -0.46778,0.83572 -1.28489,1.59467 -0.34163,0.31734 -0.8377,0.9937 -1.10239,1.50302 -0.26466,0.50932 -1.02693,1.56083 -1.69394,2.33672 -0.66699,0.77587 -1.21272,1.57361 -1.21272,1.77279 0,0.19915 -0.15536,0.45733 -0.34523,0.5737 -0.37012,0.22685 -1.08521,1.33953 -2.24115,3.48723 -0.3965,0.73673 -1.29127,1.94175 -1.98842,2.67785 -0.6971,0.7361 -1.2014,1.44528 -1.12062,1.57599 0.0808,0.1307 -0.093,0.31374 -0.38616,0.4068 -0.29316,0.0931 -0.533,0.37547 -0.533,0.62759 0,0.25212 -0.14288,0.60129 -0.3175,0.77591 -0.21529,0.2153 -0.2237,0.3175 -0.0262,0.3175 0.16026,0 -0.0243,0.33849 -0.41007,0.75221 -0.38581,0.41371 -0.9712,1.29363 -1.30085,1.95535 -0.32967,0.66173 -0.77615,1.34986 -0.99219,1.52916 -0.21605,0.17929 -0.39282,0.449 -0.39282,0.59936 0,0.15034 -0.29766,0.66361 -0.66143,1.14057 -0.36383,0.47696 -0.66149,0.97965 -0.66149,1.11704 0,0.13743 -0.16058,0.38315 -0.35687,0.54605 -0.19629,0.16291 -0.75718,1.10022 -1.2464,2.08292 -0.48921,0.98271 -1.16464,2.12635 -1.50093,2.54145 -0.33631,0.41511 -0.84997,1.27831 -1.14149,1.91823 -0.29152,0.63992 -0.64611,1.16351 -0.78801,1.16351 -0.14187,0 -0.25797,0.23108 -0.25797,0.51355 0,0.28245 -0.13253,0.59547 -0.29456,0.69559 -0.162,0.10015 -0.52242,0.69718 -0.80092,1.32676 -0.2785,0.6296 -0.78203,1.47743 -1.11897,1.88409 -0.33695,0.40667 -0.83288,1.2454 -1.1021,1.86386 -0.26919,0.61846 -0.5856,1.12448 -0.7031,1.12448 -0.11753,0 -0.21368,0.15613 -0.21368,0.34697 0,0.19085 -0.21225,0.5778 -0.47167,0.8599 -0.49946,0.54314 -1.38041,2.26833 -1.38041,2.70333 0,0.14208 -0.1786,0.40656 -0.39688,0.58772 -0.21828,0.18116 -0.39687,0.53144 -0.39687,0.77843 0,0.24699 -0.29766,0.70786 -0.66143,1.0242 -0.37669,0.3275 -0.66149,0.86066 -0.66149,1.23833 0,0.41312 -0.14965,0.6632 -0.39687,0.6632 -0.21829,0 -0.39688,0.13566 -0.39688,0.30147 0,0.16581 -0.37531,0.90995 -0.83399,1.65365 -1.48855,2.41337 -2.05904,3.5303 -1.88968,3.69966 0.0913,0.0913 -0.005,0.16606 -0.21477,0.16606 -0.20944,0 -0.61235,0.44648 -0.89532,0.99218 -0.283,0.54571 -0.96491,1.67027 -1.5154,2.49902 -0.55044,0.82878 -1.00084,1.68606 -1.00084,1.90508 0,0.21905 -0.16121,0.49347 -0.35825,0.60984 -0.44918,0.26529 -0.96467,1.22851 -0.96467,1.80258 0,0.23934 -0.59531,1.11961 -1.32291,1.95614 -0.72761,0.83656 -1.32292,1.61176 -1.32292,1.72268 0,0.11091 -1.16086,1.35564 -2.57969,2.76608 -1.41883,1.41044 -3.39553,3.45358 -4.39269,4.54031 -3.55989,3.87966 -5.7377,6.07692 -6.02308,6.07692 -0.15941,0 -0.77859,0.38695 -1.37597,0.85989 -0.9212,0.72933 -1.30257,0.8599 -2.51147,0.8599 -1.08622,0 -1.27313,-0.46262 -1.67304,-0.46262 z m -52.05251,-23.01568 c -0.54642,-0.66056 -0.61121,-0.96409 -0.50861,-2.3825 0.0659,-0.91053 0.254,-1.67095 0.42775,-1.72886 0.17058,-0.0569 0.31015,-0.326 0.31015,-0.59807 0,-0.44804 0.11028,-0.78843 0.81129,-2.50394 0.11893,-0.29104 0.29644,-0.94588 0.39449,-1.4552 0.098,-0.50933 0.28475,-1.05876 0.41492,-1.22095 0.13021,-0.16219 0.21926,-0.69797 0.19797,-1.19062 -0.0523,-1.20952 0.3122,-3.46665 0.62388,-3.86308 0.13904,-0.17685 0.29329,-0.99216 0.34274,-1.81181 0.0524,-0.86866 0.26281,-1.68132 0.50441,-1.94826 0.22796,-0.25189 0.41447,-0.69821 0.41447,-0.99182 0,-0.29361 0.20439,-0.93909 0.45421,-1.43439 0.24979,-0.4953 0.52112,-1.43631 0.60293,-2.09116 0.0922,-0.73776 0.27165,-1.16546 0.47186,-1.12448 0.21092,0.0432 0.32308,-0.2958 0.32308,-0.97657 0,-0.57349 0.12872,-1.12226 0.28601,-1.21949 0.15732,-0.0972 0.21458,-0.46144 0.12727,-0.80936 -0.0896,-0.35709 -0.0414,-0.6326 0.11086,-0.6326 0.14827,0 0.26961,-0.54282 0.26961,-1.20623 0,-0.66344 0.10229,-1.14303 0.22728,-1.06577 0.12501,0.0773 0.30578,-0.70406 0.40171,-1.73628 0.117,-1.25905 0.35571,-2.1313 0.72523,-2.65026 0.30292,-0.42542 0.55078,-1.18491 0.55078,-1.68769 0,-0.50282 0.099,-0.91419 0.21992,-0.91419 0.371,0 0.2894,-8.81031 -0.0838,-9.05219 -0.23699,-0.15359 -0.24233,-0.2603 -0.0204,-0.40667 0.331,-0.21822 0.61577,-4.52096 0.30642,-4.62957 -0.26911,-0.0945 -0.34388,-3.21868 -0.12031,-5.02772 0.14875,-1.20361 0.11229,-1.52135 -0.17465,-1.52135 -0.57663,0 -1.76763,1.70003 -1.76763,2.52309 0,0.22749 -0.19592,0.79248 -0.43537,1.25556 -0.23947,0.4631 -0.42529,1.19782 -0.41294,1.63271 0.0124,0.43492 -0.0893,0.92551 -0.22603,1.09022 -0.13668,0.1647 -0.31745,1.06116 -0.40172,1.99215 -0.0843,0.93102 -0.28694,1.99038 -0.45042,2.35418 -0.63159,1.40566 -2.30685,2.72982 -2.30685,1.82341 0,-0.17944 -0.25265,-0.22985 -0.65085,-0.12991 -0.46789,0.11742 -0.71771,0.0325 -0.88852,-0.30205 -0.29663,-0.58089 0.074,-4.48781 0.59631,-6.28624 0.21133,-0.7276 0.46432,-1.97776 0.56222,-2.77812 0.0979,-0.80037 0.23553,-1.87193 0.30588,-2.38125 0.21138,-1.53046 0.27038,-1.97004 0.30578,-2.27896 0.0339,-0.29594 3.14164,-1.00412 5.3893,-1.22809 0.77113,-0.0769 1.20851,-2.35093 1.51365,-7.87003 0.3178,-5.74744 0.30782,-5.29252 0.21199,-9.6573 -0.0383,-1.74625 -0.16973,-3.3298 -0.29197,-3.51903 -0.13316,-0.20609 -0.0447,-0.71832 0.22066,-1.27749 0.49221,-1.03722 0.40214,-1.18756 -1.25518,-2.09481 -0.40018,-0.21905 -0.72758,-0.50361 -0.72758,-0.63233 0,-0.36055 -1.38877,-2.39821 -1.63451,-2.39821 -0.11968,0 -0.2176,-0.21164 -0.2176,-0.4703 0,-0.25865 -0.16081,-0.70514 -0.3574,-0.99218 -0.19656,-0.28705 -0.43817,-0.85419 -0.53692,-1.26032 -0.0987,-0.40614 -0.29509,-0.66699 -0.43635,-0.5797 -0.15092,0.0933 -0.25683,-0.31301 -0.25683,-0.98528 0,-0.6454 -0.23487,-1.58224 -0.53885,-2.14943 -0.29638,-0.55298 -0.53493,-1.4442 -0.53006,-1.98046 0.005,-0.53628 -0.0935,-1.85113 -0.2186,-2.92192 -0.12507,-1.0708 -0.19593,-2.74939 -0.15746,-3.7302 0.0462,-1.17814 -0.0657,-2.06338 -0.32975,-2.60858 -0.31512,-0.65061 -0.33832,-1.00135 -0.10967,-1.65725 0.15952,-0.45757 0.19344,-1.00457 0.0754,-1.21552 -0.11806,-0.21098 -0.11068,-1.06085 0.0164,-1.88862 0.12711,-0.82775 0.26975,-2.10767 0.31703,-2.84425 0.0473,-0.73654 0.20706,-1.56998 0.35512,-1.85208 0.33078,-0.63018 1.0218,-3.05308 1.27815,-4.48162 0.10446,-0.58208 0.34986,-1.44145 0.54528,-1.90973 0.19545,-0.46826 0.35536,-1.2124 0.35536,-1.65365 0,-0.44122 0.11906,-0.80224 0.26459,-0.80224 0.14552,0 0.26458,-0.47998 0.26458,-1.06664 0,-0.68321 0.13666,-1.11909 0.38018,-1.21251 0.2091,-0.0802 0.3362,-0.28488 0.28247,-0.45474 -0.15505,-0.49014 2.84186,-2.90354 4.26299,-3.43294 0.71065,-0.26474 1.88738,-0.5279 2.61498,-0.58481 0.72761,-0.0569 1.81819,-0.17407 2.42353,-0.2604 1.14343,-0.16309 4.87596,0.61325 6.02967,1.25412 2.66211,1.47876 3.48941,2.4996 3.2452,4.00447 -0.19833,1.22214 0.0206,1.96496 0.63714,2.16061 0.27744,0.0881 0.43683,0.26954 0.35417,0.40326 -0.19846,0.32115 0.70766,1.55188 1.15041,1.56252 0.19047,0.005 0.28321,0.11041 0.20608,0.23521 -0.0771,0.12481 -0.0386,0.58132 0.0856,1.01444 0.13494,0.47046 0.12227,0.97264 -0.0315,1.24733 -0.18134,0.32403 -0.14663,0.59087 0.11756,0.90379 0.37629,0.44569 0.37626,0.68003 0,4.01587 -0.14282,1.26407 -0.29924,1.71979 -0.59031,1.71979 -0.30859,0 -0.40532,-0.39629 -0.43807,-1.79488 -0.023,-0.98718 -0.1754,-1.95556 -0.33835,-2.15191 -0.2218,-0.26725 -0.20998,-0.39015 0.047,-0.48879 0.50956,-0.19553 0.5553,-1.51754 0.0525,-1.51754 -0.22305,0 -0.38619,-0.14883 -0.36259,-0.33073 0.0844,-0.64995 -0.0243,-0.99219 -0.31517,-0.99219 -0.17693,0 -0.23193,0.23884 -0.13711,0.59531 0.0871,0.32743 0.0286,1.61565 -0.12993,2.86274 -0.19677,1.54766 -0.20588,2.89145 -0.0287,4.23334 0.14274,1.08124 0.17174,2.1445 0.0644,2.36278 -0.10734,0.21828 -0.27514,1.39729 -0.37291,2.62001 -0.14967,1.87227 -0.12017,2.17537 0.1869,1.92053 0.20053,-0.16645 0.44297,-0.22429 0.53872,-0.12854 0.0958,0.0958 0.1741,-0.0839 0.1741,-0.39915 0,-0.3153 -0.11906,-0.57327 -0.26458,-0.57327 -0.14553,0 -0.26459,-0.10853 -0.26459,-0.24117 0,-0.13266 0.20836,-0.21095 0.46302,-0.17404 0.36336,0.0527 0.50144,0.43206 0.64159,1.76252 0.19725,1.8727 0.003,4.47352 -0.33515,4.47352 -0.11882,0 -0.16068,0.84188 -0.093,1.87082 0.1197,1.82099 0.10774,1.86597 -0.44905,1.68926 -0.45717,-0.1451 -0.53742,-0.0958 -0.3997,0.24585 0.0948,0.23508 0.24458,0.606 0.33292,0.82428 0.0883,0.21828 0.0236,0.39688 -0.14375,0.39688 -0.18909,0 -0.27495,0.37573 -0.22674,0.99218 0.0669,0.85569 -0.004,1.00383 -0.51772,1.07675 -0.55819,0.0793 -0.63201,0.18884 -0.70426,1.0454 -0.0156,0.18489 -0.36992,0.60854 -0.7874,0.94141 -0.68358,0.54507 -0.72393,0.66143 -0.40611,1.17036 0.30273,0.48474 0.28874,0.63606 -0.0984,1.06378 -0.24821,0.27427 -0.45127,0.56941 -0.45127,0.65591 0,0.28014 -1.47969,1.64263 -2.20046,2.0262 -0.38556,0.20518 -0.94269,0.59822 -1.2381,0.87342 -0.29538,0.27519 -0.65458,0.4277 -0.79819,0.33893 -0.14364,-0.0888 -0.26117,0.0227 -0.26117,0.24797 0,0.27336 -0.35354,0.46587 -1.06421,0.57951 -0.58531,0.0936 -1.1281,0.27361 -1.20623,0.40003 -0.0781,0.12639 -0.40291,0.23164 -0.72173,0.23386 -0.75904,0.005 -1.50972,0.51017 -1.04109,0.70014 0.18283,0.0741 0.26509,0.24366 0.18283,0.37674 -0.0822,0.13309 -0.0569,0.39082 0.0564,0.57272 0.35467,0.56957 0.31573,11.01047 -0.0548,14.70281 -0.34483,3.43557 -0.31065,4.28104 0.17298,4.28104 0.12997,0 0.2363,0.22424 0.2363,0.49832 0,0.54422 0.67554,0.81521 2.04671,0.82097 1.34419,0.006 3.51293,0.5715 5.20409,1.35774 0.34992,0.16269 0.76663,0.21521 0.92605,0.11668 0.15941,-0.0985 0.28982,-0.0564 0.28982,0.0935 0,0.27739 2.98389,1.26367 4.28948,1.41779 0.39468,0.0466 0.80145,0.16862 0.90397,0.27112 0.10253,0.10253 0.44868,0.1864 0.76931,0.1864 0.32057,0 1.28299,0.22331 2.1387,0.49623 1.3276,0.42346 3.46753,0.79422 5.52456,0.95718 0.29106,0.023 0.8636,0.18145 1.27232,0.35195 0.74848,0.31226 1.914,0.53393 3.62249,0.68895 0.50933,0.0462 1.42942,0.17356 2.0447,0.28297 1.0132,0.18015 1.13491,0.28554 1.29107,1.11792 0.25524,1.36054 -0.71422,2.2534 -2.56956,2.36659 -0.75811,0.0462 -1.53432,-0.0453 -1.72487,-0.20344 -0.19055,-0.15814 -0.49824,-0.23696 -0.68374,-0.17513 -0.1855,0.0618 -0.49675,-0.0471 -0.69167,-0.24198 -0.19495,-0.19495 -0.46389,-0.28679 -0.59769,-0.2041 -0.13378,0.0827 -0.24324,0.0424 -0.24324,-0.0896 0,-0.13198 -0.32744,-0.24998 -0.7276,-0.26228 -0.40018,-0.0122 -1.26339,-0.1578 -1.91823,-0.32335 -0.65484,-0.16555 -2.04528,-0.46366 -3.08986,-0.66244 -1.04457,-0.19878 -2.41379,-0.53274 -3.0427,-0.74215 -0.62892,-0.2094 -1.73879,-0.46631 -2.46642,-0.57087 -0.72758,-0.10459 -1.46413,-0.30633 -1.63672,-0.44834 -0.20587,-0.16936 -0.50302,-0.15692 -0.86383,0.0362 -0.43921,0.23509 -0.58156,0.21212 -0.70668,-0.11393 -0.0862,-0.22455 -0.37502,-0.40827 -0.64191,-0.40827 -0.26688,0 -0.55144,-0.10711 -0.63232,-0.238 -0.0809,-0.13091 -0.77256,-0.37848 -1.53699,-0.5502 -0.76441,-0.17171 -1.82288,-0.47495 -2.3521,-0.67392 -0.52922,-0.19894 -1.02491,-0.29903 -1.10151,-0.22241 -0.0766,0.0766 -0.44709,-0.0624 -0.82325,-0.30882 -0.50835,-0.33308 -0.97684,-0.4042 -1.82504,-0.27702 -1.60325,0.24043 -1.82507,0.95801 -1.60973,5.20745 0.0914,1.80435 0.15298,5.24515 0.13682,7.64625 -0.0458,6.80437 -0.0404,7.17293 0.13157,8.92969 0.11137,1.13773 0.0697,1.65364 -0.13351,1.65364 -0.48876,0 -0.33252,0.90787 0.21511,1.24987 0.52149,0.32567 1.87074,2.75336 1.87074,3.36601 0,0.18648 0.28011,0.62317 0.62246,0.97044 0.76139,0.77229 1.22766,1.62811 1.23549,2.26766 0.003,0.26421 0.23871,0.77806 0.5233,1.14186 0.32832,0.41974 0.51953,1.07929 0.52326,1.80483 0.003,0.64151 0.17516,1.31265 0.39153,1.52903 0.21209,0.21209 0.32433,0.54541 0.24937,0.7407 -0.0749,0.19529 0.0492,0.42624 0.27583,0.51321 0.22664,0.087 0.41209,0.39595 0.41209,0.68662 0,0.29067 0.19582,0.97901 0.43519,1.52967 1.25484,2.88668 1.94606,5.01694 1.94606,5.9976 0,0.38065 0.11904,0.69209 0.26458,0.69209 0.14552,0 0.26459,0.21432 0.26459,0.47625 0,0.26194 0.10266,0.58936 0.22812,0.72761 0.27898,0.30734 1.09479,3.57568 1.09479,4.38594 0,0.32242 0.19032,0.79653 0.42291,1.05357 0.5546,0.61283 0.27231,2.50955 -0.42936,2.88507 -1.16838,0.62532 -2.3748,0.14269 -2.3748,-0.95001 0,-0.31687 -0.17399,-0.72051 -0.38663,-0.89702 -0.21265,-0.17647 -0.46638,-0.57801 -0.56388,-0.89228 -0.0975,-0.31427 -0.42733,-0.92617 -0.73298,-1.35977 -0.30564,-0.4336 -0.56472,-0.90985 -0.57573,-1.05833 -0.0188,-0.25258 -0.11255,-0.52237 -0.64606,-1.85749 -0.11631,-0.29104 -0.3538,-1.06494 -0.52776,-1.71979 -0.17399,-0.65484 -0.54428,-1.58437 -0.82288,-2.06565 -0.27864,-0.48125 -0.50658,-1.21081 -0.50658,-1.62124 0,-0.41042 -0.17859,-0.89445 -0.39687,-1.07561 -0.21828,-0.18116 -0.39688,-0.51469 -0.39688,-0.7412 0,-0.68561 -1.37154,-4.72268 -2.01236,-5.92333 -0.20881,-0.3913 -0.35804,-0.80801 -0.33155,-0.92604 0.0265,-0.11806 -0.0902,-0.54981 -0.25922,-0.95946 -0.16901,-0.40966 -0.30728,-0.90109 -0.30728,-1.0921 0,-0.19097 -0.17862,-0.49546 -0.3969,-0.67662 -0.21829,-0.18116 -0.39685,-0.47212 -0.39685,-0.64661 0,-0.52396 -1.03635,-2.43591 -1.04781,-1.93307 -0.006,0.25466 -0.12014,0.46302 -0.2541,0.46302 -0.25866,0 -0.69107,1.49815 -0.58997,2.04409 0.033,0.17835 -0.12184,0.67596 -0.34409,1.10577 -0.23895,0.46207 -0.34189,1.0926 -0.25191,1.5426 0.10372,0.51853 0.0185,0.87215 -0.26744,1.10945 -0.23082,0.19156 -0.41968,0.552 -0.41968,0.80098 0,0.24897 -0.079,0.53168 -0.17558,0.62822 -0.30292,0.30292 -1.14734,2.90653 -1.14734,3.53756 0,0.33136 -0.22447,1.46704 -0.49884,2.52368 -0.27435,1.05666 -0.64427,2.63556 -0.82207,3.50869 -0.1778,0.87312 -0.4223,1.88515 -0.54337,2.24896 -0.12107,0.3638 -0.30038,1.19724 -0.39846,1.85208 -0.0981,0.65484 -0.2735,1.30969 -0.38981,1.45521 -0.11629,0.14552 -0.41466,1.09802 -0.66302,2.11666 -0.24837,1.01865 -0.56214,2.06788 -0.69726,2.33165 -0.13512,0.26376 -0.16976,0.71879 -0.077,1.01115 0.20034,0.63127 -0.52774,1.552 -1.2273,1.552 -0.2599,0 -0.53734,0.10485 -0.61653,0.23299 -0.36613,0.59243 -1.3571,0.4436 -1.96863,-0.29567 z m 15.05368,-87.54706 c 0.21405,-0.30898 0.84267,-1.05312 1.39695,-1.65365 0.75173,-0.81444 0.97681,-1.2573 0.88588,-1.74313 -0.067,-0.35822 0.0212,-0.77494 0.19576,-0.92604 0.17473,-0.1511 0.53229,-0.92959 0.79457,-1.72995 0.26228,-0.80036 0.66556,-1.87193 0.89615,-2.38125 0.23061,-0.50932 0.40269,-1.39078 0.38248,-1.95879 -0.0201,-0.56801 0.0943,-1.27767 0.2545,-1.57702 0.83333,-1.55713 1.84335,-11.26916 1.31413,-12.63632 -0.17716,-0.45762 -0.17952,-0.78316 -0.007,-0.95575 0.24241,-0.24241 0.30404,-3.20585 0.15735,-7.56748 -0.054,-1.60724 -0.14195,-1.87867 -0.78843,-2.43472 -0.40018,-0.34417 -0.72761,-0.73822 -0.72761,-0.87564 0,-0.36788 -1.80856,-1.8922 -2.24501,-1.8922 -0.20601,0 -0.46974,-0.14882 -0.58613,-0.33072 -0.26501,-0.41424 -1.62772,-1.1755 -2.3223,-1.29731 -0.32605,-0.0572 -0.52547,0.0564 -0.52917,0.30149 -0.003,0.2163 -0.24405,0.43469 -0.53509,0.48535 -0.29105,0.0507 -0.65794,0.25596 -0.81532,0.45623 -0.15737,0.20029 -0.61682,0.48987 -1.02095,0.64354 -0.61047,0.23209 -0.67968,0.34576 -0.40907,0.67186 0.25855,0.31154 0.25712,0.39248 -0.007,0.39248 -0.86754,0 -2.68785,3.13886 -3.32023,5.72524 -0.57298,2.34344 -1.19798,5.92862 -1.06971,6.13619 0.0625,0.10107 -0.0422,0.47487 -0.23265,0.83069 -0.23735,0.44349 -0.26987,0.84775 -0.1034,1.28563 0.16558,0.43545 0.14087,0.76158 -0.0777,1.02487 -0.23942,0.28847 -0.24564,0.50606 -0.0246,0.85992 0.17975,0.28784 0.20047,0.56909 0.0528,0.71678 -0.14772,0.14769 -0.14581,0.58222 0.005,1.10744 0.13634,0.47543 0.17737,1.04817 0.0912,1.27281 -0.0862,0.22463 -0.0214,0.49209 0.1442,0.59438 0.19087,0.11798 0.35309,1.58179 0.44355,4.00309 0.0785,2.09942 0.25249,3.92698 0.38671,4.0612 0.14362,0.14362 0.14785,0.42386 0.0103,0.68083 -0.13679,0.25558 -0.13335,0.59544 0.008,0.81936 0.13314,0.21042 0.24389,0.69019 0.24612,1.06611 0.003,0.37595 0.0846,0.76406 0.18304,0.86249 0.0985,0.0985 0.44135,0.92197 0.76205,1.83004 0.32067,0.90808 0.71429,1.62198 0.87468,1.58647 0.1604,-0.0355 0.36754,0.23775 0.46027,0.6073 0.19664,0.78348 1.81139,1.97083 2.68023,1.97083 0.33002,0 0.60003,0.11906 0.60003,0.26458 0,0.49255 1.20353,0.26831 1.59525,-0.29723 z m 7.50628,-5.8765 c 0.50578,0 0.0854,-0.69126 -0.0951,-0.57971 -0.15136,0.0936 -0.27519,0.48057 -0.27519,0.86003 0,0.82936 -0.67231,-0.28032 0.37026,-0.28032 z m 1.86516,-4.30192 c 0.10625,-0.56856 0.28524,-1.15279 0.39775,-1.29831 0.28511,-0.3688 0.54014,-2.85972 0.3624,-3.53949 -0.24773,-0.94729 -0.69665,-0.64227 -0.53359,0.36253 0.10639,0.65559 0.0249,1.04913 -0.28033,1.35438 -0.23664,0.23667 -0.45508,0.86262 -0.48537,1.39102 -0.0303,0.5284 -0.11745,1.13932 -0.19363,1.3576 -0.27908,0.79968 -0.44571,2.29164 -0.27506,2.46232 0.2454,0.24538 0.77761,-0.85831 1.00783,-2.09005 z m 1.90743,-9.81136 c -0.0957,-0.0958 -0.17409,-0.80909 -0.17409,-1.58522 0,-1.02217 0.10046,-1.4111 0.36449,-1.4111 0.66095,0 0.96371,0.64656 0.71262,1.52204 -0.12924,0.45066 -0.18346,0.8709 -0.12049,0.93387 0.063,0.063 -0.0482,0.2495 -0.24696,0.4145 -0.19881,0.16499 -0.43982,0.22167 -0.53557,0.12591 z"
       style="fill:#041;stroke-width:0.0700042"
       id="path2002" />
    <path
       d="m -4.8559316,397.45267 c -1.61626,-0.40522 -1.937121,-0.44634 -7.2760424,-0.9325 -1.673489,-0.15239 -3.578489,-0.38683 -4.233333,-0.52099 -0.654844,-0.13416 -4.097179,-0.3071 -7.649607,-0.38431 -3.552455,-0.0772 -6.886205,-0.2491 -7.408334,-0.38196 -0.522155,-0.13287 -1.782789,-0.38166 -2.801435,-0.55287 -1.018646,-0.17122 -2.294414,-0.4363 -2.835037,-0.58908 -0.817007,-0.23089 -1.204177,-0.18585 -2.293355,0.2668 -1.15684,0.48075 -1.42571,0.50493 -2.294282,0.20634 -0.541128,-0.18603 -1.098949,-0.54392 -1.239628,-0.7953 -0.4773,-0.85286 -0.717201,-6.86163 -0.486331,-12.18052 0.0316,-0.72761 -0.0236,-2.3159 -0.12242,-3.52955 -0.106939,-1.31209 -0.0771,-2.30941 0.0737,-2.46015 0.161629,-0.16163 0.15685,-0.61577 -0.0132,-1.25302 -0.21241,-0.79575 -0.177239,-1.17901 0.172461,-1.87998 0.331309,-0.66414 0.439229,-1.61426 0.439229,-3.86692 0,-1.70556 0.11348,-3.05658 0.264581,-3.14996 0.145529,-0.0899 0.264589,-0.55161 0.264589,-1.02593 0,-0.47432 0.168669,-1.44956 0.374811,-2.1672 0.206158,-0.71763 0.451379,-1.95963 0.544928,-2.76 0.0936,-0.80036 0.336902,-2.05052 0.54071,-2.77812 0.433671,-1.54813 0.901401,-5.94421 1.168242,-10.9802 0.250528,-4.72862 1.12119,-8.18932 2.206381,-8.7701 0.85942,-0.45994 1.201976,0.11424 0.929587,1.55805 -0.372692,1.97544 -0.686644,5.90372 -0.880189,11.01318 -0.0489,1.29026 -0.211905,2.8976 -0.362289,3.57187 -0.574471,2.57573 -0.816671,5.27855 -0.669642,7.47267 0.12436,1.85545 0.0761,2.35453 -0.26008,2.69072 -0.291279,0.29128 -0.320198,0.44359 -0.0982,0.51758 0.24193,0.0806 0.242811,0.28398 0.004,0.88115 -0.353959,0.88449 -0.881139,4.88111 -0.685588,5.19753 0.071,0.11495 0.345308,0.209 0.609468,0.209 0.26416,0 0.941731,0.16264 1.505746,0.36142 1.239996,0.43705 1.829276,0.25553 3.430746,-1.05674 0.749962,-0.61455 1.617875,-1.04481 2.403687,-1.19161 1.099291,-0.20537 1.354614,-0.1525 2.404507,0.49785 2.205408,1.36612 3.369522,1.91278 4.079082,1.91552 0.390075,0.002 2.176012,-0.3657 3.96875,-0.81601 1.792737,-0.4503 3.676226,-0.85364 4.185549,-0.89629 1.12059,-0.0939 2.281767,0.45562 2.514865,1.19001 0.09411,0.29652 0.445691,0.71903 0.781288,0.93893 0.57031,0.37368 0.719402,0.33579 2.281952,-0.58 1.315191,-0.7708 2.0696504,-1.01938 3.5369504,-1.16534 1.75424,-0.1745 1.937332,-0.14043 3.07893,0.57295 1.083363,0.67697 1.450499,0.75848 3.4163527,0.75848 1.32336597,0 2.763229,0.17675 3.60725,0.4428 1.179909,0.37193 1.522412,0.38851 2.139923,0.10358 2.2555199,-1.04074 4.762765,-1.6599 6.4237389,-1.58633 2.619852,0.11603 4.892993,0.0172 6.006545,-0.26125 0.552714,-0.13819 1.753896,-0.43748 2.669302,-0.66508 1.946248,-0.48393 8.50416,-1.25101 8.852826,-1.03553 0.131418,0.0812 0.473286,-0.10387 0.759724,-0.41131 0.989516,-1.06214 1.763557,-1.38764 3.412332,-1.43498 1.481193,-0.0425 1.682832,0.0194 2.265709,0.69567 0.810127,0.93995 0.801949,1.12059 -0.09118,2.0137 -0.537342,0.53735 -1.111541,0.78147 -2.167599,0.92157 -0.790152,0.10481 -1.56255,0.27265 -1.716405,0.37298 -0.153882,0.10033 -1.351359,0.19453 -2.661047,0.20933 -1.309687,0.0148 -3.393281,0.23146 -4.630208,0.48145 -1.236927,0.25 -2.542911,0.5129 -2.902188,0.58423 -0.359305,0.0713 -0.801556,0.25278 -0.982822,0.40322 -0.181266,0.15044 -0.839814,0.24123 -1.463436,0.20176 -1.27381,-0.0806 -2.432289,0.18366 -3.317611,0.75689 -0.527658,0.34165 -0.740754,0.33397 -1.852083,-0.0667 -2.23729,-0.80666 -2.835619,-0.79698 -4.6321659,0.0749 -2.3673331,1.14891 -4.674818,1.33768 -6.814529,0.5575 -1.58720903,-0.57872 -1.65105303,-0.58152 -3.06885,-0.13461 l -1.447905,0.45642 -1.9696907,-0.97325 c -2.272083,-1.12265 -3.220403,-1.1054 -5.018511,0.0913 -1.6335374,1.0872 -2.2547004,1.37672 -2.9538114,1.37672 -0.853913,0 -2.111399,-0.6629 -3.33081,-1.75585 -0.963166,-0.86339 -2.578815,-1.25519 -2.578815,-0.6254 0,0.14552 -0.5329,0.26458 -1.184222,0.26458 -0.717815,0 -1.525458,0.20803 -2.050521,0.52817 -0.634947,0.38712 -1.334402,0.52845 -2.618981,0.52917 -1.975961,10e-4 -3.375263,-0.41426 -4.985676,-1.47999 l -1.101487,-0.72893 -1.371756,0.70509 c -0.754462,0.3878 -1.701776,0.96976 -2.105134,1.29324 -0.941649,0.75513 -2.505207,0.719 -4.254809,-0.0983 -1.25738,-0.58738 -1.29173,-0.58934 -1.653651,-0.0944 -0.41714,0.57047 -0.488149,2.43165 -0.404069,10.59077 0.0526,5.10626 0.336341,7.53895 1.02145,8.75803 0.249291,0.44358 0.659501,0.58837 2.029455,0.7163 0.944351,0.0882 1.931908,0.27288 2.19456,0.41044 1.001845,0.5247 8.153826,1.13665 12.64838,1.08225 4.177641,-0.0506 7.409921,0.1864 10.980211,0.80501 0.800362,0.13868 2.5267714,0.30581 3.8364594,0.3714 1.309687,0.0656 3.274218,0.32393 4.365625,0.57409 1.7443707,0.39982 2.40035267,0.41822 5.4239577,0.15213 1.891771,-0.16649 4.2301049,-0.30254 5.1962839,-0.30233 0.9662061,2.1e-4 2.6926121,-0.17221 3.836459,-0.38316 1.143873,-0.21095 3.746632,-0.50568 5.783924,-0.65495 2.056685,-0.1507 4.93977,-0.56367 6.482291,-0.92852 1.527969,-0.3614 3.611563,-0.85126 4.630209,-1.08857 1.018645,-0.23731 2.20927,-0.552 2.645833,-0.69931 0.731388,-0.24679 4.634362,-2.03281 4.861772,-2.22477 0.05458,-0.0461 -0.08787,-0.5515 -0.316601,-1.12314 -0.228732,-0.57164 -0.358934,-1.09628 -0.289348,-1.16585 0.06956,-0.0696 0.173752,-1.36299 0.231484,-2.87424 0.159279,-4.16804 0.654896,-11.10487 0.811556,-11.35832 0.07636,-0.12355 0.20066,-3.11827 0.276225,-6.65494 0.07557,-3.53667 0.250852,-7.79952 0.38952,-9.47301 0.469159,-5.66205 0.776261,-8.85218 1.171575,-12.17083 0.216667,-1.81901 0.396319,-4.44986 0.399203,-5.84633 0.0069,-3.28485 0.405077,-4.20964 1.810544,-4.20378 0.535067,0.002 1.116991,0.0957 1.293204,0.20765 0.641641,0.40777 0.905748,19.31634 0.331258,23.7157 -0.153273,1.17373 -0.334962,3.20561 -0.40378,4.5153 -0.06879,1.30968 -0.235188,2.8575 -0.369729,3.43958 -0.244713,1.05862 -0.578935,4.98053 -0.721545,8.46667 -0.130175,3.18212 -0.554911,7.56503 -0.999861,10.3176 -0.263101,1.62752 -0.360706,3.17935 -0.253841,4.03485 0.17317,1.38587 0.170947,1.39132 -0.714058,1.76344 -0.488262,0.2053 -0.970544,0.3221 -1.071747,0.25956 -0.101203,-0.0625 -0.578618,0.10778 -1.060953,0.37848 -0.482335,0.27071 -1.353211,0.64044 -1.935295,0.82164 -0.582083,0.18119 -1.43547,0.4987 -1.896454,0.70557 -0.460957,0.20687 -1.386946,0.45136 -2.057744,0.5433 -0.670798,0.0919 -1.282938,0.2696 -1.360302,0.3948 -0.07739,0.1252 -0.42717,0.22763 -0.777293,0.22763 -0.350123,0 -1.146757,0.16051 -1.770327,0.35668 -1.821259,0.57298 -4.21386,0.96858 -8.363664,1.38291 -2.135399,0.21321 -4.656455,0.5136 -5.602341,0.66755 -2.097696,0.34141 -6.8121469,0.69486 -11.77395793,0.88272 -2.80212297,0.10608 -4.09074867,0.0433 -5.29166667,-0.25776 z M 54.278445,353.92289 c 0,-0.71864 0.79301,-3.12687 1.09011,-3.31049 0.128032,-0.0791 0.232807,-0.32121 0.232807,-0.53793 0,-0.21672 0.238125,-0.8869 0.529167,-1.48929 0.291041,-0.60238 0.529748,-1.22171 0.530458,-1.37628 0.003,-0.5117 3.70335,-7.50136 4.56182,-8.6154 1.65354,-2.14579 2.69555,-3.67198 3.00387,-4.39959 0.1929,-0.45524 1.1194,-2.14217 2.05885,-3.74872 1.66772,-2.85187 1.71196,-2.97631 1.8691,-5.2577 0.1906,-2.76684 -0.17465,-17.16608 -0.44223,-17.43364 -0.29996,-0.29997 -3.85349,1.12758 -6.41236,2.57603 -2.65324,1.50187 -4.68892,2.9515 -5.740611,4.08792 -0.386874,0.41804 -2.032582,2.11149 -3.657177,3.76322 l -2.953758,3.00315 -1.165805,-0.29355 c -1.334693,-0.33608 -4.755462,-0.10553 -5.11048,0.34443 -0.127079,0.16105 -0.377613,0.74764 -0.556736,1.30353 -0.407408,1.2642 -0.820949,1.42949 -1.919367,0.76712 -0.476647,-0.28743 -1.491697,-0.66807 -2.255681,-0.84587 -0.763982,-0.1778 -1.38906,-0.43047 -1.38906,-0.56147 0,-0.13101 -0.18333,-0.2382 -0.407408,-0.2382 -0.224076,0 -0.874181,-0.23812 -1.444678,-0.52916 -0.576871,-0.2943 -1.559399,-0.52917 -2.213634,-0.52917 -1.059659,0 -1.162185,0.0544 -1.033092,0.54805 0.08448,0.32303 -0.07117,0.83903 -0.379095,1.25677 -1.303284,1.76811 -1.488416,2.54274 -1.134112,4.74572 0.283606,1.76347 0.265035,2.47167 -0.133483,5.09113 -0.254635,1.67348 -0.551442,4.1738 -0.659606,5.55625 -0.182113,2.32732 -0.424974,3.53752 -1.486718,7.40833 -0.540228,1.96949 -0.678103,2.18068 -1.47955,2.26613 -0.458287,0.0489 -0.974701,-0.17851 -1.528632,-0.67305 -0.931149,-0.83134 -0.934959,-0.68711 0.13994,-5.29725 0.220554,-0.94588 0.507442,-2.67229 0.637564,-3.83646 0.130122,-1.16416 0.490778,-3.48588 0.801476,-5.15937 0.541338,-2.91582 0.557295,-3.94101 0.104431,-6.71145 -0.196321,-1.20087 0.51853,-3.68203 1.326806,-4.60529 0.289454,-0.33061 0.867146,-0.68944 1.283811,-0.79741 0.728689,-0.18882 0.739326,-0.21407 0.279162,-0.6629 -0.263128,-0.25663 -1.246029,-1.02889 -2.184267,-1.71613 -1.414063,-1.0358 -1.871187,-1.57486 -2.672477,-3.15151 -1.693254,-3.33179 -1.632241,-6.48285 0.14809,-7.64936 0.393935,-0.25812 0.766415,-0.86341 0.937709,-1.52385 0.869445,-3.35198 7.036168,-10.88414 9.438664,-11.52857 0.848971,-0.22772 1.34874,-0.60134 2.07092,-1.5482 1.063072,-1.39383 1.670476,-1.80223 3.031252,-2.03823 1.050425,-0.18216 2.687984,0.38418 3.631885,1.25606 0.940327,0.86858 2.645622,3.66584 2.957195,4.85083 0.15666,0.59585 0.640263,1.60788 1.074656,2.24896 0.915196,1.35062 0.944565,1.67351 0.250375,2.75309 -1.387737,2.15824 -1.677429,3.79048 -0.641427,3.61409 0.29096,-0.0495 1.005282,-0.1483 1.587368,-0.21946 0.582083,-0.0712 2.010833,-0.591 3.175,-1.1552 1.489737,-0.72197 2.878931,-1.15411 4.69024,-1.45902 2.73201,-0.45989 4.08636,-0.41279 7.47411,0.25996 2.36739,0.47012 2.50293,0.49012 3.02459,0.44619 0.31205,-0.0263 0.34448,-0.81247 0.2006,-4.86 -0.0944,-2.65575 -0.35126,-5.66204 -0.5707,-6.68063 -0.21948,-1.01859 -0.39905,-2.09656 -0.39905,-2.39549 0,-0.59845 -1.11474,-1.72847 -2.83588,-2.87475 -1.60279,-1.06746 -2.39744,-2.25064 -2.86467,-4.26529 -0.64127,-2.76515 -0.72517,-4.27078 -0.38947,-6.99057 0.70276,-5.6935 1.9508,-9.13192 3.98005,-10.96523 2.05671,-1.85811 6.10354,-3.2701 6.94904,-2.4246 0.22731,0.2273 0.58314,0.34809 0.79076,0.26842 0.97631,-0.37464 3.98283,2.0263 7.24757,5.78773 0.92356,1.06407 1.15721,1.57213 1.4332,3.11645 0.28488,1.59407 0.26773,2.14081 -0.12589,4.01814 -0.71255,3.39833 -0.73472,3.4684 -1.25635,3.96926 -0.29151,0.27992 -0.49294,0.84112 -0.49294,1.37345 0,0.49506 -0.10369,0.96419 -0.2304,1.04252 -0.12674,0.0783 -0.30393,0.50995 -0.39378,0.95919 -0.0898,0.44923 -0.27567,0.74737 -0.41294,0.66253 -0.34456,-0.21295 -1.07955,0.899 -1.07955,1.63327 0,0.33142 -0.10715,0.60259 -0.23812,0.60259 -0.13097,0 -0.64294,0.40479 -1.13769,0.89955 -0.53056,0.53057 -1.38252,1.02695 -2.07697,1.21011 -0.6476,0.1708 -1.71321,0.59343 -2.36805,0.93919 -1.30186,0.68737 -1.34205,0.83856 -0.80714,3.03656 0.15936,0.65484 0.34629,4.22672 0.41537,7.9375 0.0691,3.71078 0.24098,7.7589 0.38203,8.99583 0.14102,1.23693 0.33063,4.45162 0.42132,7.14375 0.0907,2.69214 0.26689,5.36897 0.39153,5.94852 0.12999,0.60437 0.12137,1.88389 -0.0201,3.00044 -0.17042,1.34402 -0.15775,2.11315 0.0409,2.48432 0.38947,0.72773 0.10417,1.96681 -0.69374,3.01291 -0.7901,1.03586 -0.79687,1.11071 -0.1638,1.80863 0.27249,0.30043 0.80235,1.32013 1.17745,2.26602 0.37512,0.94588 0.92607,2.22005 1.22436,2.83148 0.29826,0.61144 0.54231,1.23462 0.54231,1.38485 0,0.15023 0.35719,1.01052 0.79375,1.91175 0.43657,0.90124 0.7945,1.76634 0.79539,1.92245 0,0.15611 0.16706,0.60094 0.36928,0.9885 0.2022,0.38756 0.61005,1.35255 0.90633,2.14442 0.52996,1.4165 1.32334,2.7955 2.43234,4.22781 0.80299,1.03707 0.6036,1.63626 -0.57729,1.73494 -1.39708,0.11676 -2.50833,-0.97612 -3.89623,-3.83179 -0.62394,-1.28382 -1.28796,-2.63186 -1.4756,-2.99566 -0.18767,-0.36381 -0.7869,-1.79256 -1.33168,-3.175 -1.26989,-3.22271 -2.92875,-6.77711 -3.25779,-6.98046 -0.14076,-0.087 -0.76724,0.64435 -1.39216,1.6252 -0.62489,0.98086 -1.40538,2.08104 -1.73439,2.44484 -0.32898,0.3638 -0.97597,1.37583 -1.43772,2.24896 -1.22132,2.3094 -2.85338,5.3421 -3.77328,7.01146 -1.19772,2.1735 -1.66605,3.16796 -2.18054,4.6302 -0.79097,2.24802 -1.05791,2.51354 -2.527085,2.51354 -1.129083,0 -1.29249,-0.069 -1.29249,-0.5456 z M 38.921232,320.35848 c 0.149519,-0.27936 0.391824,-1.35386 0.538454,-2.38777 0.146632,-1.03392 0.514191,-2.56152 0.816771,-3.39468 0.492231,-1.35526 0.732605,-2.07199 1.546487,-4.61106 0.159888,-0.49886 0.12015,-0.85876 -0.131548,-1.19062 -0.534379,-0.70465 -0.456118,-1.43068 0.171926,-1.59492 0.73406,-0.19196 1.038172,-1.09048 1.037405,-3.06514 v -1.63642 l -1.413722,-0.73865 c -1.110059,-0.57999 -1.709208,-1.16189 -2.789478,-2.70908 -1.984981,-2.843 -2.078249,-2.86308 -3.993697,-0.8597 -0.87379,0.91388 -1.5893,1.79585 -1.59007,1.95993 0,0.16408 -0.19386,0.45809 -0.429125,0.65336 -0.235294,0.19527 -0.728874,0.99091 -1.096859,1.76809 -0.367956,0.77719 -1.055873,1.70812 -1.528657,2.06874 -0.47281,0.36062 -0.98171,0.97854 -1.130882,1.37315 -0.64312,1.70107 -1.619115,7.04304 -1.63142,8.92925 -0.0082,1.26982 2.113362,2.70844 4.915034,3.3327 2.043639,0.45537 5.502275,1.87197 5.818132,2.38301 0.232172,0.3757 0.603253,0.25913 0.891884,-0.28019 z m 11.637145,-5.5114 c 1.973289,-2.00094 4.302258,-4.12474 5.175515,-4.71956 1.967575,-1.34019 4.773425,-3.03289 5.823795,-3.51333 0.43482,-0.19888 0.9973,-0.46677 1.24997,-0.59531 0.25271,-0.12855 0.78849,-0.23554 1.19063,-0.23777 1.02767,-0.006 1.593,-0.3891 0.95181,-0.64551 -0.79547,-0.31811 -5.0908,-0.49206 -5.44769,-0.22061 -0.18106,0.1377 -0.80942,0.26342 -1.39639,0.27938 -1.06924,0.0291 -2.204591,0.34753 -5.415072,1.51888 -0.945885,0.34511 -2.017448,0.69314 -2.38125,0.77339 -1.110165,0.24492 -1.470924,0.57951 -1.102889,1.02295 0.796314,0.95951 -0.777904,1.76095 -2.737035,1.39342 -0.654606,-0.1228 -0.96057,-0.0728 -1.034603,0.16899 -0.05781,0.18886 -0.593434,1.89118 -1.190281,3.78295 -0.596818,1.89177 -1.083757,3.642 -1.08204,3.8894 0.0026,0.35968 0.307951,0.46895 1.52445,0.54529 0.836747,0.0525 1.692804,0.11798 1.90233,0.14549 0.20955,0.0275 1.995485,-1.5871 3.96875,-3.58805 z m -2.536005,-7.34668 c -0.06077,-0.15842 -0.463973,-0.49682 -0.895985,-0.75201 -0.784571,-0.46346 -0.785442,-0.46325 -0.785442,0.19304 0,0.41424 0.17108,0.69106 0.463021,0.74915 0.863018,0.17173 1.32937,0.0989 1.218406,-0.19018 z m 19.485245,-1.83191 c 0,-0.53958 -0.51854,-0.79354 -0.88075,-0.43134 -0.2309,0.2309 -0.20913,0.36637 0.0892,0.55498 0.55829,0.35297 0.79153,0.31654 0.79153,-0.12364 z m -22.673106,-7.086 c -0.304639,-0.33139 -0.827508,-1.25738 -1.161915,-2.05774 -0.729324,-1.7456 -1.587606,-3.17398 -2.225069,-3.70303 -0.424019,-0.35191 -0.552342,-0.29008 -1.380993,0.66535 -0.754536,0.86997 -0.889423,1.20387 -0.774938,1.91843 0.227568,1.42034 2.660068,4.35331 3.935386,4.74507 0.749988,0.23038 0.951206,0.18385 1.513234,-0.34992 l 0.648203,-0.61562 z m 24.657476,-12.83812 c 0.58208,-0.0797 1.29318,-0.3061 1.58022,-0.5031 0.28705,-0.197 0.72039,-0.35819 0.96298,-0.35819 1.2758,0 3.75417,-3.49471 5.02682,-7.08823 0.68371,-1.9305 0.82267,-2.73384 0.8564,-4.95031 0.0345,-2.26422 -0.0456,-2.81756 -0.55462,-3.83646 -1.0088,-2.01911 -1.88052,-2.80891 -3.50617,-3.17664 -0.80037,-0.18105 -2.07005,-0.56207 -2.82152,-0.84672 -0.99407,-0.37654 -1.49863,-0.44545 -1.85208,-0.25293 -0.89184,0.48578 -3.34585,3.44568 -3.70002,4.46274 -0.65249,1.87383 -0.45516,5.97686 0.46292,9.62473 0.4514,1.79361 1.09691,3.66705 1.43483,4.16436 0.6336,0.93243 0.60997,1.53011 -0.0827,2.08963 -0.33161,0.26788 -0.34057,0.39306 -0.0529,0.73964 0.19765,0.23814 0.52676,0.34405 0.76687,0.24679 0.23135,-0.0937 0.89689,-0.23561 1.47897,-0.31531 z m -49.65777,60.40097 c -0.390393,-0.33921 -0.865687,-0.66869 -1.056187,-0.73219 -0.362456,-0.12082 -0.255749,-0.78862 0.772713,-4.83528 0.221906,-0.87312 0.435954,-2.54 0.475641,-3.70417 0.0853,-2.50086 0.574516,-5.40904 0.995392,-5.91738 0.198593,-0.23985 0.27887,-1.65514 0.239022,-4.21373 -0.05821,-3.73683 -0.03498,-3.92076 0.773324,-6.12116 0.458337,-1.24771 1.067914,-2.47692 1.354613,-2.73158 0.60836,-0.54039 2.124314,-0.61436 2.531666,-0.12353 0.334354,0.40287 0.05104,1.8714 -0.756018,3.91898 -0.430823,1.09296 -0.540678,1.95775 -0.531309,4.1821 0.0066,1.57614 -0.160208,3.55739 -0.380977,4.52401 -0.216032,0.94589 -0.523822,3.08901 -0.684,4.7625 -0.269902,2.82028 -0.711835,5.47969 -1.340986,8.06979 -0.141366,0.58209 -0.339777,1.46061 -0.440877,1.95227 -0.101122,0.49167 -0.421958,1.04968 -0.713,1.24003 -0.45921,0.30033 -0.622987,0.26455 -1.239017,-0.27066 z m 10.002047,-0.25651 c -0.703027,-0.57493 -0.747872,-0.71699 -0.580023,-1.8364 0.100068,-0.6673 0.29414,-1.2826 0.431247,-1.36734 0.137107,-0.0847 0.249288,-0.39135 0.249288,-0.68135 0,-0.29001 0.226856,-0.96759 0.504113,-1.50574 1.083096,-2.10227 1.410941,-5.97533 0.768903,-9.08372 -0.297045,-1.43826 -0.26638,-1.67346 0.554011,-4.24926 1.176761,-3.69466 1.807369,-4.89914 2.653612,-5.06859 0.47247,-0.0946 0.855242,0.0396 1.259499,0.44152 0.553929,0.55073 0.565068,0.6508 0.241088,2.16492 -0.186851,0.87313 -0.615394,2.3383 -0.952341,3.25594 -0.590417,1.6079 -0.600181,1.76261 -0.269137,4.26391 0.372431,2.81383 0.246066,6.42197 -0.230475,6.58081 -0.162775,0.0542 -0.29594,0.34816 -0.29594,0.65313 0,0.75666 -0.582451,2.31184 -0.865849,2.31184 -0.126679,0 -0.198649,0.26789 -0.159914,0.59531 0.03873,0.32742 -0.144751,1.25015 -0.407776,2.05052 -0.726252,2.21012 -1.512196,2.60969 -2.900306,1.4745 z"
       style="fill:#041;stroke-width:0.0700042"
       id="path2023" />
    <path
       d="m 196.38605,552.32598 c -1.17264,-0.82135 -0.74264,-1.82291 1.1355,-2.64474 1.94851,-0.85264 9.03439,-2.64118 12.88108,-3.25132 4.13115,-0.65525 4.41649,-0.86099 4.71921,-3.40274 0.1408,-1.18178 0.4909,-3.18714 0.7781,-4.45638 0.78227,-3.45721 1.65039,-13.63554 2.11227,-24.76532 0.22672,-5.46353 0.64734,-10.94111 0.93703,-12.20192 0.74477,-3.24185 0.89634,-4.22775 1.11373,-7.2449 0.10578,-1.46803 0.31496,-4.21347 0.46489,-6.10096 0.1499,-1.88748 0.26055,-3.73207 0.24595,-4.09908 -0.11746,-2.94959 0.10477,-2.70423 -2.20313,-2.43299 -1.15049,0.13519 -2.90928,0.52716 -3.90843,0.87096 -2.32413,0.79974 -6.55976,0.9511 -11.1587,0.39878 -6.51305,-0.78222 -10.29591,-0.38121 -16.9683,1.79877 -2.09721,0.68519 -4.84264,1.54881 -6.10096,1.91915 -1.25834,0.37035 -2.54777,0.90231 -2.86547,1.18213 -0.87344,0.76937 -3.45449,1.22526 -4.85409,0.85737 -0.68049,-0.17886 -1.51953,-0.75597 -1.86449,-1.28244 -0.58967,-0.89993 -0.58406,-0.9899 0.0934,-1.50273 0.39633,-0.30002 1.02316,-0.55094 1.39304,-0.55761 0.36983,-0.007 0.9704,-0.18065 1.33458,-0.38663 0.36416,-0.20597 1.69165,-0.64269 2.94997,-0.97047 4.69092,-1.22197 6.1463,-1.66787 7.8967,-2.4194 0.98768,-0.42405 2.44619,-0.89101 3.24114,-1.03771 0.795,-0.14668 2.04341,-0.58474 2.77434,-0.97346 0.7309,-0.38869 1.63411,-0.70673 2.00707,-0.70673 0.37296,0 0.98076,-0.18903 1.35068,-0.42005 0.50245,-0.31378 2.21331,-0.21692 6.7631,0.38292 7.14774,0.94237 9.55663,0.9964 11.51644,0.25832 0.79068,-0.29779 2.46716,-0.64278 3.72549,-0.76665 8.21327,-0.80851 11.09326,-1.03018 17.73091,-1.36476 10.10232,-0.50921 19.33731,-0.72329 21.06739,-0.48837 1.26123,0.17126 1.42992,0.31869 1.42992,1.24969 0,1.57757 -0.92175,2.09804 -3.77696,2.13264 -1.38305,0.0167 -4.31635,0.14124 -6.51842,0.27671 -2.20207,0.13547 -7.09237,0.34029 -10.86734,0.45528 -5.83458,0.17771 -8.92014,0.41765 -8.97306,0.69776 -0.007,0.0357 -0.17503,3.38943 -0.37393,7.4526 -0.19892,4.06317 -0.50428,7.58075 -0.6786,7.81686 -1.11001,1.50324 -1.66523,7.62641 -2.18267,24.0705 -0.22017,6.99695 -0.58252,10.17449 -1.65236,14.48979 -0.20796,0.83888 -0.46665,2.73895 -0.57479,4.22239 -0.10823,1.48343 -0.31195,3.15642 -0.45284,3.71777 -0.20103,0.80099 -0.11933,1.02063 0.37963,1.02063 0.3497,0 0.53658,0.16057 0.41528,0.3568 -0.12654,0.20471 0.31089,0.18726 1.02611,-0.0409 4.91379,-1.56774 7.48851,-1.91993 10.01675,-1.37017 0.83888,0.18242 1.76306,0.56663 2.05373,0.85379 0.44969,0.44426 0.37819,0.66143 -0.47965,1.45642 -0.8348,0.77368 -1.51567,0.96795 -3.96028,1.12994 -1.62366,0.10751 -3.81009,0.46377 -4.8587,0.79149 -1.0486,0.32773 -2.3608,0.68949 -2.91602,0.80392 -0.55519,0.11443 -1.72967,0.80975 -2.60992,1.54518 -1.80768,1.51029 -2.91181,1.66767 -4.25996,0.60719 -1.03243,-0.8121 -1.60955,-0.80424 -6.41978,0.0873 -5.39908,1.00076 -7.39893,1.4348 -8.19816,1.77933 -0.41944,0.18079 -1.02001,0.32174 -1.33459,0.31319 -0.31458,-0.009 -0.83065,0.0931 -1.14682,0.22588 -0.31615,0.13273 -0.9439,-0.0172 -1.39496,-0.33304 z m -51.6706,-2.93613 c -0.54146,-0.42742 -0.58527,-0.82188 -0.28877,-2.60104 0.19223,-1.15347 0.35649,-8.43419 0.36499,-16.17941 0.0146,-13.28966 0.0589,-14.18024 0.78707,-15.82437 0.84768,-1.91411 0.89399,-1.34071 -0.84835,-10.5123 -1.19029,-6.26584 -1.37049,-7.63838 -2.21224,-16.85111 -0.42528,-4.65426 -0.94367,-9.20138 -1.15202,-10.10472 -0.77741,-3.37051 -0.23979,-5.26487 1.49406,-5.26487 2.40508,0 3.45616,3.34849 4.1893,13.34584 0.50249,6.85203 0.75736,9.03501 1.18667,10.16423 0.1973,0.51888 0.35871,1.44103 0.35871,2.0492 0,0.60818 0.25314,1.85142 0.56255,2.76277 0.30943,0.91134 0.65459,2.33294 0.76703,3.15912 0.11242,0.8262 0.39284,2.87488 0.62307,4.55264 0.23024,1.67777 0.60019,3.54143 0.82203,4.14147 0.45868,1.24036 0.48556,1.24056 7.5207,0.0546 6.7781,-1.14262 8.19683,-1.3209 10.57255,-1.32856 3.60026,-0.0115 3.36873,-0.84 4.15411,14.86343 0.37087,7.41545 0.36095,16.55664 -0.0213,19.56332 -0.3939,3.09865 -1.2854,4.4592 -2.92191,4.4592 -1.50164,0 -2.011,-1.33225 -1.66129,-4.34536 0.3645,-3.1403 0.29571,-9.00724 -0.1793,-15.29211 -0.22192,-2.93608 -0.40499,-6.52541 -0.40682,-7.97627 0,-1.45087 -0.19633,-3.74615 -0.43222,-5.10065 l -0.42885,-2.46271 -2.83458,0.25686 c -1.55904,0.14124 -3.25067,0.41506 -3.75916,0.60838 -0.50852,0.19335 -1.91409,0.43212 -3.1235,0.53064 -1.2094,0.0986 -2.8853,0.4395 -3.72418,0.75775 -0.83889,0.31826 -1.97611,0.58617 -2.52718,0.59538 -0.55103,0.009 -1.19361,0.24774 -1.42793,0.53008 -0.29162,0.35139 -0.44662,4.44904 -0.49128,12.98816 -0.0626,11.94738 -0.47683,17.31264 -1.40886,18.24472 -0.59274,0.59273 -2.89826,0.73269 -3.55317,0.2157 z m 44.45354,-6.59369 c -1.00323,-0.42183 -1.30671,-0.90399 -2.07722,-3.30021 -0.49628,-1.54343 -0.94176,-3.06487 -0.99004,-3.38101 -0.0483,-0.31612 -0.44166,-1.7759 -0.8743,-3.24395 -0.4326,-1.46805 -0.95233,-3.36636 -1.15496,-4.21848 -0.20258,-0.85212 -0.63113,-2.05325 -0.95231,-2.66918 -0.32118,-0.61592 -0.59051,-1.54883 -0.59843,-2.07313 -0.009,-0.5243 -0.26642,-1.28635 -0.57433,-1.69345 -0.30792,-0.40709 -0.55985,-1.45841 -0.55985,-2.33627 0,-0.87784 -0.52319,-2.94702 -1.16268,-4.59817 -0.63951,-1.65114 -1.45489,-3.77422 -1.81199,-4.71797 -0.54913,-1.45109 -0.96574,-1.87625 -2.69964,-2.75502 -1.5479,-0.78448 -2.57552,-1.03198 -4.19361,-1.00994 -1.17885,0.016 -2.92236,-0.0881 -3.87454,-0.23142 -0.95213,-0.1434 -2.83962,-0.0633 -4.19441,0.17808 -2.10964,0.37572 -2.66216,0.65391 -3.84909,1.93785 -1.09361,1.183 -1.66123,1.49915 -2.6916,1.49915 -0.71821,0 -1.63884,-0.24389 -2.04596,-0.54199 -0.68548,-0.50194 -0.74077,-1.05826 -0.7484,-7.53087 -0.006,-5.01439 -0.1875,-7.85071 -0.64273,-10.03938 -0.38853,-1.86802 -0.72153,-5.88773 -0.85899,-10.36998 -0.28018,-9.13434 -0.51881,-12.41848 -1.19636,-16.46699 -0.29414,-1.75767 -0.53482,-4.72892 -0.53482,-6.60279 v -3.40702 l -2.38319,-2.3627 c -2.51913,-2.49747 -2.58715,-2.60816 -4.40067,-7.16217 -0.62332,-1.56524 -0.94469,-10.09701 -0.51651,-13.7123 0.23412,-1.97663 1.10225,-5.42066 2.19618,-8.71251 1.70069,-5.11769 1.91347,-5.53335 3.55195,-6.93942 6.66344,-5.71822 19.307,-10.50057 21.04787,-7.96123 0.30026,0.43795 1.09178,0.83315 1.85774,0.92753 0.73404,0.0905 1.4204,0.19423 1.52525,0.23061 0.10492,0.0363 0.65356,0.0359 1.21935,-7.7e-4 1.60567,-0.10463 4.53585,1.38448 6.2684,3.18561 2.78102,2.89114 4.69473,6.04101 4.9194,8.09709 0.54931,5.02679 -0.0115,11.26907 -1.07911,12.00728 -0.38302,0.2649 -1.12581,1.49205 -1.95371,3.22768 -0.30806,0.64586 -0.82741,1.39612 -1.15412,1.66725 -0.3267,0.27114 -0.59401,0.70833 -0.59401,0.97156 0,0.26322 -0.27541,0.70717 -0.61207,0.98656 -0.33663,0.27938 -1.31572,1.54442 -2.17572,2.81118 -1.71121,2.52051 -2.23094,3.07461 -5.04367,5.37736 -2.88915,2.36528 -11.83271,7.39066 -13.17904,7.40527 -1.31201,0.0144 -3.04194,0.84568 -2.67866,1.28745 0.19679,0.23929 0.47469,1.71976 0.61753,3.28993 0.14282,1.57017 0.33788,2.98136 0.43343,3.13596 0.0955,0.15461 5.16165,0.27632 11.25797,0.27047 8.97805,-0.009 11.20293,0.0911 11.70889,0.52486 0.50764,0.43522 4.10557,1.79334 4.7509,1.79334 0.52907,0 0.46596,-1.78394 -0.14052,-3.97104 l -0.69414,-2.50336 0.82222,-0.5759 c 0.8689,-0.60861 2.47921,-0.75387 3.14944,-0.28409 0.54482,0.38188 2.18643,2.75866 1.90533,2.75866 -0.12394,0 0.0202,0.38608 0.32044,0.85795 0.62577,0.9836 1.3638,4.33886 1.54588,7.02798 0.10218,1.51009 0.49211,3.19745 0.73116,3.16457 0.0301,-0.004 1.42725,-0.25552 3.10501,-0.55866 1.67777,-0.30315 3.96261,-0.55716 5.07742,-0.56446 1.11483,-0.007 2.33842,-0.18001 2.71907,-0.38373 0.3807,-0.20374 2.33501,-0.48591 4.3429,-0.62706 3.06219,-0.21523 3.80715,-0.1541 4.62114,0.37922 1.53732,1.00731 1.23079,1.89426 -1.03148,2.98451 -1.98118,0.95479 -5.54941,1.51853 -12.86922,2.03322 -2.65617,0.18676 -6.52979,0.89237 -12.58324,2.29213 -1.36319,0.31521 -3.91579,0.8356 -5.67245,1.15644 -3.16578,0.57819 -3.20186,0.57585 -4.09909,-0.26704 -0.49783,-0.4677 -0.90515,-1.04849 -0.90515,-1.29068 0,-0.8291 7.61889,-3.62115 9.88128,-3.62115 1.3164,0 1.66816,-0.71427 1.12253,-2.27942 -0.27332,-0.78399 -0.7291,-1.22725 -1.41382,-1.37499 -1.21939,-0.2631 -2.41278,-0.75454 -4.44229,-1.82941 -1.43027,-0.75749 -2.18053,-0.81468 -12.04739,-0.91821 -8.68016,-0.0911 -10.60013,-0.0164 -10.96763,0.42635 -0.49932,0.60164 -0.60774,8.41055 -0.2554,18.3951 0.36358,10.3037 0.95483,15.49195 1.87136,16.42102 0.30256,0.30674 1.92683,0.3572 5.57467,0.17322 2.83123,-0.14282 5.66246,-0.1137 6.29163,0.0647 0.62916,0.17838 1.40131,0.39131 1.71589,0.47317 0.31458,0.0819 1.17139,0.32983 1.90403,0.55106 0.73265,0.22122 1.88288,0.40222 2.55604,0.40222 0.88236,0 1.4152,0.27342 1.90908,0.97955 0.3768,0.53875 1.07117,1.3889 1.54305,1.88922 0.47187,0.50031 0.85794,1.08524 0.85794,1.29985 0,0.21462 0.41356,1.29485 0.91907,2.40053 1.06504,2.32954 1.84844,4.96831 2.74777,9.25521 0.35194,1.67777 0.87201,3.24099 1.1557,3.47383 0.28369,0.23285 0.5158,0.88482 0.5158,1.44885 0,0.56403 0.22875,1.48885 0.50833,2.05517 0.27957,0.56632 0.73299,2.0592 1.00758,3.31752 0.52608,2.41101 1.40272,5.58237 1.8972,6.86358 1.42401,3.68971 1.37886,4.63029 -0.26905,5.60373 -0.89826,0.53059 -1.22241,0.5491 -2.22621,0.12711 z m -28.01247,-92.33955 c 1.5848,-0.76228 3.39619,-1.76639 4.02535,-2.23134 0.62915,-0.46497 1.66769,-1.11508 2.30787,-1.4447 2.1604,-1.11242 6.44186,-5.77442 9.35855,-10.1904 4.12112,-6.23949 4.15049,-6.31715 4.38674,-11.61752 0.22326,-5.00858 0.19809,-5.09818 -2.61068,-9.29546 -1.32669,-1.98255 -2.29014,-2.58126 -4.67234,-2.9034 -2.30579,-0.31183 -4.82483,-0.98163 -5.31929,-1.41437 -0.19922,-0.17435 -1.21256,-0.31703 -2.25186,-0.31703 -1.474,0 -2.19108,0.23037 -3.2602,1.04737 -0.75381,0.57604 -1.49927,1.06937 -1.65657,1.09626 -0.15729,0.0268 -0.4618,0.0703 -0.67675,0.0966 -0.21491,0.0262 -0.56044,0.49408 -0.76789,1.0397 -0.22195,0.58379 -0.58472,0.91238 -0.88158,0.79848 -0.27741,-0.1065 -1.24288,0.39088 -2.14556,1.10518 -0.90263,0.71429 -1.75826,1.29871 -1.90137,1.29871 -0.70004,0 -4.20821,4.04857 -4.20821,4.85647 0,0.48822 -0.27118,1.52562 -0.60262,2.30534 -1.56821,3.68923 -2.56466,9.42701 -2.48053,14.28351 0.14969,8.64175 2.90541,12.86402 8.39991,12.87025 1.6073,10e-4 2.72584,-0.31039 4.95703,-1.38363 z"
       style="fill:#000000;stroke-width:0.100888"
       id="path2040" />
  </g>
</svg>
