<?xml version="1.0" encoding="UTF-8" standalone="no"?>
<!-- Created with Inkscape (http://www.inkscape.org/) -->

<svg
   width="58.166626mm"
   height="48.651257mm"
   viewBox="0 0 58.166626 48.651257"
   version="1.1"
   id="svg18"
   inkscape:version="1.1.2 (b8e25be8, 2022-02-05)"
   sodipodi:docname="rest-sleep-dark.svg"
   xmlns:inkscape="http://www.inkscape.org/namespaces/inkscape"
   xmlns:sodipodi="http://sodipodi.sourceforge.net/DTD/sodipodi-0.dtd"
   xmlns="http://www.w3.org/2000/svg"
   xmlns:svg="http://www.w3.org/2000/svg">
  <sodipodi:namedview
     id="namedview20"
     pagecolor="#ffffff"
     bordercolor="#666666"
     borderopacity="1.0"
     inkscape:pageshadow="2"
     inkscape:pageopacity="0.0"
     inkscape:pagecheckerboard="0"
     inkscape:document-units="mm"
     showgrid="false"
     fit-margin-top="0"
     fit-margin-left="0"
     fit-margin-right="0"
     fit-margin-bottom="0"
     inkscape:zoom="0.90583672"
     inkscape:cx="-242.3174"
     inkscape:cy="279.85176"
     inkscape:window-width="2560"
     inkscape:window-height="1387"
     inkscape:window-x="1728"
     inkscape:window-y="25"
     inkscape:window-maximized="1"
     inkscape:current-layer="layer1" />
  <defs
     id="defs15" />
  <g
     inkscape:label="Layer 1"
     inkscape:groupmode="layer"
     id="layer1"
     transform="translate(160.96009,-87.581179)">
    <path
       style="fill:#dab;stroke-width:0.264583"
       d="m -107.05173,135.90777 c -0.42182,-0.30844 -0.46401,-0.58592 -0.31177,-2.05052 0.0968,-0.9316 0.34858,-3.65834 0.55942,-6.05944 0.21085,-2.40109 0.52269,-5.31812 0.69299,-6.48229 0.17031,-1.16416 0.32369,-2.47385 0.34087,-2.91041 l 0.0312,-0.79375 -7.54062,-0.31881 c -16.47786,-0.69666 -21.99636,-0.84236 -32.45122,-0.85679 l -10.88767,-0.015 -0.29355,1.25677 c -0.16146,0.69123 -0.32983,1.61934 -0.37417,2.06249 -0.0443,0.44314 -0.18292,0.97126 -0.30796,1.17358 -0.12505,0.20233 -0.1988,1.77452 -0.16389,3.49377 0.0379,1.86561 -0.039,3.12589 -0.19063,3.12589 -0.13976,0 -0.2564,0.26789 -0.25921,0.59531 -0.003,0.32743 -0.10471,2.14313 -0.22643,4.0349 -0.21905,3.40432 -0.2281,3.44038 -0.88301,3.51694 -0.36393,0.0425 -0.89281,-0.0916 -1.17528,-0.29818 -0.47329,-0.34607 -0.50796,-0.67311 -0.44197,-4.16854 0.0394,-2.08614 0.16425,-3.97603 0.27747,-4.19973 0.11322,-0.22371 0.34991,-1.71643 0.52597,-3.31716 0.17606,-1.60073 0.36054,-3.11865 0.40995,-3.37317 0.0494,-0.25452 -0.0156,-0.52793 -0.14449,-0.60758 -0.13581,-0.0839 -0.13496,-0.33432 0.002,-0.59558 0.51218,-0.97676 1.38427,-6.98856 1.88849,-13.01846 0.17644,-2.11005 0.36828,-4.37224 0.42631,-5.02708 0.058,-0.65485 0.26986,-1.84547 0.47075,-2.645835 0.20089,-0.800364 0.49778,-2.586302 0.65976,-3.96875 0.16198,-1.382448 0.48436,-3.287448 0.71641,-4.233333 0.23204,-0.945885 0.43203,-1.928151 0.44443,-2.182813 0.0124,-0.254661 0.10151,-0.46302 0.19803,-0.46302 1.17394,0 1.23812,5.927209 0.12087,11.163014 -0.39408,1.846787 -0.73678,4.197177 -0.76156,5.223067 -0.0248,1.0259 -0.12177,1.86637 -0.21551,1.86772 -0.0937,0.001 -0.16372,0.27034 -0.15549,0.59776 0.03,1.19324 -0.38938,5.90946 -0.59856,6.73134 -0.1439,0.56541 -0.10632,0.99284 0.11375,1.2938 0.29509,0.40356 0.87997,0.43891 5.72907,0.34627 2.97023,-0.0567 8.16863,-0.0979 11.55199,-0.0915 3.38336,0.006 6.15156,-0.0737 6.15156,-0.17798 0,-0.28065 -3.4063,-2.61669 -4.63021,-3.17538 -0.73049,-0.33346 -1.71401,-0.48759 -3.175,-0.49756 -1.34627,-0.009 -2.63845,-0.1946 -3.55027,-0.50941 -1.65286,-0.57064 -1.90588,-0.47922 -3.00827,1.08705 -1.31513,1.86852 -3.33107,2.23105 -5.22767,0.94009 -1.54552,-1.05199 -1.95865,-1.85699 -1.88679,-3.67653 0.11048,-2.79763 1.1908,-3.80871 4.03138,-3.77303 1.90512,0.0239 3.70571,0.95895 4.0445,2.10024 0.12927,0.43544 0.32262,0.96909 0.42967,1.18589 0.28226,0.5716 2.20981,0.85028 4.62542,0.66871 1.1571,-0.087 2.94303,-0.0346 3.96875,0.1164 7.28149,1.07185 11.34133,1.3227 11.70753,0.7234 0.49648,-0.81265 3.76058,-1.50582 7.09067,-1.50582 1.18347,0 2.81259,-0.12216 3.62026,-0.27146 1.8047,-0.33362 2.7966,-0.0408 2.73413,0.80727 -0.0653,0.88671 -0.61893,1.04649 -4.28884,1.23787 -3.34572,0.17446 -3.37345,0.18108 -2.19784,0.5242 0.65484,0.19113 1.76716,0.64526 2.47181,1.00919 0.70466,0.36392 1.40779,0.66168 1.56253,0.66168 0.55538,0 2.05108,1.3604 2.05108,1.86555 0,0.75781 -0.64262,0.65391 -3.45827,-0.55917 -2.91311,-1.25506 -7.24037,-2.07566 -8.20977,-1.55685 -0.57844,0.30957 -2.93163,0.20751 -6.8277,-0.29611 -1.0776,-0.1393 -2.01727,-0.19528 -2.08814,-0.12441 -0.0709,0.0709 0.37243,0.63013 0.98511,1.24281 0.73306,0.73306 1.07103,1.27809 0.98842,1.59398 -0.11552,0.44176 0.10979,0.48137 2.82626,0.49677 1.62349,0.009 4.26148,0.12776 5.86221,0.26347 1.60073,0.1357 6.46127,0.35375 10.8012,0.48455 7.72295,0.23277 7.90462,0.25084 8.54184,0.84947 0.50776,0.47702 0.61481,0.77669 0.48637,1.36151 -0.28708,1.30703 -0.89793,5.56275 -1.035,7.21072 -0.0726,0.87312 -0.25171,2.89719 -0.39797,4.49792 -0.14625,1.60073 -0.31521,3.5018 -0.37546,4.2246 -0.0845,1.01356 -0.27019,1.45236 -0.81179,1.91823 -0.8191,0.70456 -0.93797,0.72307 -1.58859,0.24733 z m -42.21951,-26.03982 c 0.94369,-1.42471 1.00105,-2.11868 0.25366,-3.06883 -0.71194,-0.90509 -1.02351,-0.87912 -2.0404,0.17003 -0.99216,1.02366 -1.30874,2.26062 -0.85741,3.35022 0.59044,1.42545 1.5043,1.26943 2.64415,-0.45142 z m 10.94998,-1.32948 c -0.31223,-0.0466 -0.76689,-0.30493 -1.01037,-0.57396 -0.4202,-0.46431 -0.38463,-0.52903 0.69997,-1.27367 1.68244,-1.15509 3.6007,-1.87799 5.21729,-1.96615 1.30015,-0.0709 1.433,-0.0264 1.4754,0.49372 0.0365,0.44833 -0.32871,0.78124 -1.69338,1.54345 -2.17284,1.21357 -3.95012,1.88698 -4.68891,1.77661 z"
       id="path495"
       sodipodi:nodetypes="ccssccsscssssscsccssssscssssssssscsssccsscssssssssccsssssssssssssscssssssssccssssscssscsc" />
  </g>
</svg>
