<?xml version="1.0" encoding="UTF-8" standalone="no"?>
<!-- Created with Inkscape (http://www.inkscape.org/) -->

<svg
   width="679.33807mm"
   height="341.45517mm"
   viewBox="0 0 679.33807 341.45517"
   version="1.1"
   id="svg510"
   xmlns="http://www.w3.org/2000/svg"
   xmlns:svg="http://www.w3.org/2000/svg">
  <defs
     id="defs507" />
  <g
     id="layer1"
     transform="translate(176.17986,43.52955)">
    <path
       style="fill:#041;stroke-width:0.264583"
       d="m 200.00966,93.16787 c 0.2182,-0.354567 0.0535,-0.45686 -0.38393,-0.31803 -0.39411,0.12509 -0.6248,0.0111 -0.85746,-0.42357 -0.27847,-0.52036 -0.23912,-0.64455 0.31462,-0.99312 1.28624,-0.80959 4.45993,-4.23973 4.30246,-4.65007 -0.1023,-0.26662 0.004,-0.40212 0.31498,-0.40212 0.2581,0 0.3914,-0.0779 0.29621,-0.17306 -0.0952,-0.0952 0.30062,-0.52142 0.87956,-0.94718 0.57895,-0.42577 1.23229,-1.15155 1.45188,-1.61288 0.21958,-0.4613 0.74934,-1.07307 1.17724,-1.35948 0.80615,-0.53956 1.20236,-1.35316 0.78469,-1.61128 -0.38139,-0.23572 -0.27799,-0.64612 0.1628,-0.64612 0.2214,0 0.53817,-0.29765 0.70393,-0.66146 0.32053,-0.70347 0.6387,-0.84989 0.79938,-0.36785 0.0609,0.1827 0.23327,0.13042 0.45634,-0.13835 0.3117,-0.37557 0.29775,-0.40865 -0.10686,-0.25339 -0.39774,0.15264 -0.37434,0.0204 0.16101,-0.90985 0.5029,-0.87392 0.66181,-0.99917 0.8062,-0.63555 0.14868,0.37441 0.18307,0.353 0.19844,-0.12351 0.0102,-0.31702 0.19152,-0.74933 0.40287,-0.96068 0.21136,-0.21134 0.3306,-0.43796 0.26499,-0.50358 -0.0656,-0.0656 0.17248,-0.27543 0.5291,-0.4663 0.35662,-0.19087 0.75898,-0.65736 0.89413,-1.03669 0.13515,-0.37931 0.65313,-1.10638 1.15107,-1.6157 1.00692,-1.02995 1.95273,-2.40724 1.86236,-2.71198 -0.0324,-0.10914 0.0541,-0.19844 0.19211,-0.19844 0.39153,0 1.61348,-1.22238 1.41768,-1.41817 -0.0962,-0.0962 0.12089,-0.50104 0.48234,-0.89969 0.93203,-1.02798 2.08237,-2.63234 2.08237,-2.90425 0,-0.12668 0.41671,-0.63423 0.92604,-1.12789 0.50932,-0.49366 0.92604,-1.05981 0.92604,-1.25815 0,-0.19833 0.10746,-0.29416 0.23881,-0.21299 0.13134,0.0812 0.3568,-0.19089 0.50102,-0.60457 0.14421,-0.4137 0.61599,-1.15768 1.04841,-1.65333 0.43241,-0.49564 0.86982,-1.16906 0.97202,-1.49648 0.1022,-0.32742 0.33448,-0.59531 0.51618,-0.59531 0.34974,0 1.62779,-1.34708 2.59799,-2.73831 0.31972,-0.45847 0.73611,-0.92879 0.92531,-1.04516 0.18921,-0.11636 0.34417,-0.41402 0.34437,-0.66145 2.1e-4,-0.24744 0.46957,-0.97841 1.04303,-1.62439 0.57346,-0.64598 0.98828,-1.26248 0.92183,-1.37001 -0.0665,-0.10753 0.0893,-0.26852 0.34604,-0.35774 0.25678,-0.0892 0.82405,-0.6281 1.26061,-1.19743 0.43657,-0.56935 0.94961,-1.04068 1.1401,-1.04743 0.19049,-0.007 0.27953,-0.12036 0.19788,-0.25246 -0.17081,-0.27639 2.55066,-3.19937 2.97879,-3.19937 0.39249,0 2.05751,-1.61555 2.25584,-2.18882 0.0892,-0.25797 0.37333,-0.54734 0.63129,-0.6431 0.52291,-0.19407 1.39506,-1.0955 1.39506,-1.4419 0,-0.12327 -0.14287,-0.2241 -0.3175,-0.2241 -0.24049,0 -0.24321,-0.0743 -0.0112,-0.30628 0.2192,-0.21921 0.40353,-0.22566 0.64823,-0.0228 0.41886,0.34737 1.45802,-0.47049 2.20542,-1.73572 0.27477,-0.46514 0.66164,-0.84572 0.85971,-0.84572 0.19808,0 1.46275,-1.10133 2.81038,-2.44739 1.34763,-1.34607 3.95786,-3.88991 5.80052,-5.65299 1.84266,-1.76307 3.35029,-3.3769 3.35029,-3.58632 0,-0.20939 0.4324,-0.85047 0.96089,-1.42462 0.52849,-0.57414 1.24436,-1.49037 1.59082,-2.03607 0.34646,-0.54571 0.7475,-0.99219 0.89119,-0.99219 0.1437,0 0.26127,-0.17859 0.26127,-0.39688 0,-0.21828 0.0895,-0.39687 0.19889,-0.39687 0.10939,0 0.49407,-0.56555 0.85484,-1.25677 0.36077,-0.69123 0.86658,-1.41235 1.12403,-1.6025 0.25744,-0.19016 0.46807,-0.50575 0.46807,-0.70131 0,-0.22587 0.55206,-0.45069 1.51357,-0.61635 1.58287,-0.2727 1.7836,-0.23397 3.18108,0.61368 0.79918,0.48474 0.85065,0.60243 0.74841,1.71117 -0.0604,0.65484 -0.19288,1.40276 -0.29443,1.66208 -0.10155,0.25929 -0.22502,1.39039 -0.27438,2.51354 -0.31435,7.15219 -0.3498,8.52438 -0.22023,8.52438 0.38184,0 2.52634,-2.37255 2.37128,-2.62345 -0.10372,-0.1678 0.0315,-0.28697 0.32575,-0.28697 0.30362,0 0.70088,-0.36722 1.00183,-0.92604 0.27429,-0.50933 0.65023,-0.92604 0.83541,-0.92604 0.18519,0 0.33861,-0.0893 0.34094,-0.19844 0.004,-0.18815 0.68937,-1.0668 2.21855,-2.84427 1.64223,-1.90887 2.00993,-2.39901 2.01023,-2.6796 1.8e-4,-0.16407 0.17892,-0.44653 0.3972,-0.62769 0.21828,-0.18116 0.39687,-0.59336 0.39687,-0.91597 0,-0.37213 0.24687,-0.69908 0.67521,-0.89423 0.37684,-0.17172 0.85709,-0.74584 1.08681,-1.29924 0.22638,-0.54539 0.57738,-1.08683 0.78,-1.20319 0.20262,-0.11637 0.3684,-0.36198 0.3684,-0.54581 0,-0.18383 0.35719,-0.67644 0.79375,-1.09469 0.43656,-0.41825 0.79435,-0.88701 0.79508,-1.04169 7.9e-4,-0.15468 0.47812,-0.68593 1.06087,-1.1806 0.58275,-0.49464 1.04429,-1.03042 1.02565,-1.19062 -0.0747,-0.64217 0.0445,-0.94943 0.34383,-0.88657 0.17326,0.0364 0.36085,-0.14359 0.41687,-0.39994 0.11844,-0.54203 0.451,-0.92377 4.20396,-4.82558 1.53966,-1.60073 3.16531,-3.4462 3.61256,-4.10104 0.97212,-1.42335 3.71085,-4.51382 6.79743,-7.67048 1.23693,-1.265 3.32052,-3.47083 4.63021,-4.90183 1.30969,-1.43097 3.18882,-3.44411 4.17586,-4.4736 0.98703,-1.0295 2.23719,-2.40631 2.77812,-3.05962 1.39225,-1.68145 4.91978,-5.38303 8.85487,-9.29174 1.8554,-1.84296 3.37344,-3.43308 3.37344,-3.53359 0,-0.10052 0.37587,-0.55862 0.83526,-1.01801 0.45939,-0.4594 1.04498,-1.18012 1.30131,-1.60163 0.54537,-0.89678 2.52074,-3.20381 4.21343,-4.92085 0.65485,-0.66424 1.45773,-1.53353 1.78419,-1.93173 0.50348,-0.61412 0.79532,-0.724 1.9229,-0.724 1.17032,0 1.4364,0.11022 2.22425,0.92152 0.8582,0.8837 0.89491,1.00435 0.89491,2.94137 0,2.03253 0.41687,5.53087 0.86388,7.24961 0.64703,2.48782 1.11408,3.92943 1.58593,4.89516 0.28451,0.58229 0.55767,1.53509 0.60703,2.11733 0.0494,0.58224 0.26999,1.41549 0.49028,1.85171 0.22029,0.43619 0.47357,1.43896 0.56284,2.22835 0.0893,0.78941 0.27004,1.50378 0.40171,1.5875 0.13167,0.0837 0.30571,0.62849 0.38676,1.21057 0.34157,2.45327 0.66202,3.64059 1.1669,4.32348 0.29481,0.39873 0.59878,1.19642 0.67549,1.77263 0.0767,0.57621 0.37823,1.88108 0.67003,2.89973 0.29181,1.01864 0.66248,2.56645 0.82373,3.43958 0.26699,1.44576 0.6708,3.01188 1.79065,6.94481 0.21746,0.76372 0.50343,1.45536 0.63549,1.53699 0.13207,0.0816 0.24012,0.49152 0.24012,0.91091 0,0.41939 0.10342,0.82645 0.22983,0.90455 0.1264,0.0781 0.30543,0.61487 0.39784,1.19277 0.0924,0.5779 0.3925,1.44375 0.66687,1.9241 0.27436,0.48036 0.64728,1.52821 0.8287,2.32858 0.18141,0.80036 0.5389,1.87192 0.79442,2.38125 0.64293,1.28156 1.26874,4.02971 1.39041,6.10576 0.0561,0.95705 0.20209,1.90209 0.32443,2.10002 0.12234,0.19796 0.56097,2.21287 0.97474,4.4776 0.41376,2.2647 0.87238,4.65344 1.01914,5.30828 0.14677,0.65485 0.44605,2.32172 0.66507,3.70417 0.21902,1.38245 0.50451,2.8112 0.63441,3.175 0.1299,0.3638 0.3113,1.11421 0.40309,1.66756 0.2045,1.23269 0.6264,1.42237 1.96888,0.88522 0.98452,-0.39391 2.75451,-0.43657 3.11602,-0.075 0.38205,0.38206 1.25706,0.10692 3.04176,-0.95639 1.93917,-1.15535 2.29555,-1.57136 3.68336,-4.29948 1.37804,-2.70891 1.62408,-3.13698 2.0911,-3.63828 0.24911,-0.26739 0.71697,-0.99954 1.03969,-1.627 0.32271,-0.62746 1.625,-3.991247 2.11645,-2.8357 l 1.52969,-1.6949 -2.01472,-0.004 c -1.70601,-0.003 -2.25185,-0.12467 -3.56227,-0.7906 -0.89775,-0.45622 -1.69947,-1.07926 -1.90937,-1.48378 -0.32039,-0.61749 -0.30505,-0.7628 0.13396,-1.26897 0.47968,-0.55309 0.67058,-0.57055 5.87812,-0.53769 2.96028,0.0188 5.52638,0.0241 5.70244,0.0122 0.4949,-0.0336 1.0349,-2.07986 0.65036,-2.46441 -0.44602,-0.446 -0.38168,-1.32916 0.21036,-2.88729 0.28566,-0.75176 0.45185,-1.47614 0.36932,-1.60967 -0.28924,-0.46797 -0.79237,-6.84699 -0.55178,-6.99569 0.1311,-0.081 0.17521,-0.3888 0.098,-0.68392 -0.31337,-1.19833 2.97573,-6.3563 4.92954,-7.73052 0.99327,-0.6986 1.37729,-0.7974 3.44679,-0.88675 1.28093,-0.0553 2.74199,-0.023 3.2468,0.0717 1.22018,0.22889 2.68363,1.55215 3.00539,2.71748 0.33552,1.21515 -0.20855,4.1592 -1.14834,6.21379 -0.37728,0.82481 -0.68596,1.66219 -0.68596,1.86087 0,0.42278 -1.92745,3.45223 -2.66692,4.19169 -0.27944,0.27961 -0.50807,0.74636 -0.50807,1.0374 0,0.32533 -0.17835,0.53144 -0.46302,0.53504 -0.25466,0.003 -0.76068,0.23874 -1.12448,0.5233 -0.3638,0.28455 -0.79851,0.52003 -0.96601,0.52329 -0.32424,0.006 -2.64552,2.64681 -3.20342,3.64405 -0.28339,0.50652 -0.27072,0.59516 0.085,0.59516 0.38002,0 0.38022,0.0378 0.002,0.41576 -0.22868,0.22868 -0.41578,0.63082 -0.41578,0.89366 0,0.26284 -0.18547,0.6318 -0.41216,0.81992 -0.68638,0.56964 -1.18619,2.04774 -0.9158,2.70827 0.13202,0.32247 0.43759,1.41978 0.67905,2.43843 0.24146,1.01864 0.51504,1.97114 0.60796,2.11666 0.84604,1.3249 0.93348,4.50017 0.13997,5.08281 -0.34624,0.25424 -0.54791,0.24206 -0.97772,-0.059 -0.29782,-0.20862 -0.79066,-0.31676 -1.09519,-0.24032 -0.73104,0.18349 -1.53249,-0.72864 -1.99454,-2.26997 -0.1963,-0.65484 -0.45527,-1.30373 -0.57549,-1.44197 -0.12022,-0.13825 -0.21858,-0.45863 -0.21858,-0.712 0,-0.25334 -0.13746,-0.5456 -0.30546,-0.64942 -0.18431,-0.1139 -0.23384,-0.0729 -0.12488,0.1034 0.0999,0.16169 -0.0886,0.43506 -0.42214,0.61204 -0.66317,0.35192 -1.00797,0.76686 -2.19023,2.63575 -1.23844,1.9577 -4.62134,5.502406 -4.83956,7.10067 l -0.88172,1.16621 0.94492,0.32485 c 1.51009,0.519147 1.78735,0.86704 1.62365,2.03737 -0.17395,1.24365 -0.67162,1.96091 -2.80086,4.03665 -0.89564,0.87312 -1.84688,2.00421 -2.11387,2.51354 -0.26699,0.50932 -0.73393,1.18896 -1.03764,1.51029 -0.30371,0.32134 -0.55221,0.63378 -0.55221,0.69435 0,0.0606 -0.42645,0.57155 -0.94766,1.13554 -0.52122,0.56398 -1.13312,1.38263 -1.35977,1.81919 -0.22666,0.43656 -0.98609,1.45928 -1.68763,2.27272 -0.93385,1.08281 -1.19694,1.55758 -0.98214,1.77236 0.16136,0.16137 0.32069,0.68647 0.35406,1.16687 0.0334,0.4804 0.20293,1.34972 0.37681,1.9318 0.17388,0.58209 0.44231,1.62388 0.59651,2.31511 0.1542,0.69122 0.39067,1.25677 0.5255,1.25677 0.13482,0 0.17756,0.10935 0.095,0.24299 -0.1631,0.2639 0.35545,2.43078 0.98658,4.12263 0.58268,1.56194 1.7782,5.80374 1.7782,6.30915 0,0.24074 0.1318,0.43773 0.29289,0.43773 0.16109,0 0.23348,0.15483 0.16086,0.34406 -0.0726,0.18923 0.0295,0.63571 0.2269,0.99219 0.19741,0.35647 0.36315,1.08757 0.3683,1.6247 0.005,0.5371 0.12526,1.04817 0.26688,1.13572 0.51848,0.32044 1.15453,2.08013 1.18378,3.27504 0.0171,0.69755 0.23651,1.53665 0.50839,1.94411 0.62565,0.93757 0.3695,2.24493 -0.5192,2.64985 -0.3502,0.15954 -0.63672,0.36714 -0.63672,0.4613 0,0.37431 -2.04772,1.04267 -3.06812,1.0014 -0.96448,-0.039 -1.087,-0.11787 -1.1133,-0.71684 -0.0547,-1.24552 -0.37432,-3.05213 -0.58716,-3.31883 -0.11613,-0.14552 -0.29459,-0.71106 -0.39656,-1.25677 -0.10198,-0.5457 -0.26742,-0.99218 -0.36764,-0.99218 -0.10022,0 -0.19216,-0.38696 -0.20431,-0.8599 -0.0416,-1.62052 -0.56307,-4.36168 -0.98487,-5.17734 -0.23198,-0.4486 -0.42179,-1.00391 -0.42179,-1.23396 0,-0.23009 -0.17859,-0.48686 -0.39687,-0.57063 -0.26616,-0.10213 -0.39688,-0.52062 -0.39688,-1.2705 0,-0.61503 -0.0789,-1.19714 -0.17534,-1.29358 -0.0964,-0.0964 -0.21492,-0.56277 -0.2633,-1.03629 -0.0484,-0.4735 -0.22352,-1.15858 -0.38922,-1.52239 -0.1657,-0.3638 -0.41845,-0.918 -0.56166,-1.23153 -0.14322,-0.31355 -0.18279,-0.69567 -0.0879,-0.84915 0.0949,-0.15346 0.064,-0.49226 -0.0686,-0.75282 -0.31347,-0.61611 -0.77593,-2.12656 -0.9419,-3.07642 -0.0721,-0.4128 -0.26449,-0.91119 -0.42745,-1.10757 -0.21922,-0.26413 -0.21559,-0.50784 0.0139,-0.93675 0.17614,-0.32909 0.20787,-0.65096 0.0734,-0.74452 -0.13027,-0.0906 -0.39974,-0.67079 -0.59883,-1.28926 -0.19909,-0.61846 -0.46199,-1.12448 -0.58422,-1.12448 -0.12223,0 -0.22041,-0.26789 -0.21818,-0.59531 0.003,-0.48138 0.0531,-0.51938 0.26053,-0.19844 0.14107,0.21828 0.25831,0.26263 0.26053,0.0985 0.002,-0.16406 -0.16654,-0.43989 -0.37505,-0.61296 -0.2085,-0.17303 -0.37094,-0.51503 -0.36098,-0.75998 0.01,-0.24496 -0.29568,-1.3833 -0.67923,-2.52966 -0.38354,-1.14636 -0.69735,-2.34027 -0.69735,-2.65311 0,-0.31287 -0.20059,-0.85521 -0.44575,-1.20523 -0.26818,-0.38288 -0.42184,-1.04161 -0.38573,-1.65359 0.033,-0.55946 -0.0321,-1.16279 -0.14469,-1.3407 -0.18031,-0.28493 -0.29814,-0.98028 -0.39109,-2.30788 -0.0153,-0.21828 -0.14853,-0.54972 -0.2961,-0.73652 -0.14758,-0.1868 -0.29648,-0.72258 -0.3309,-1.19062 -0.10937,-1.48725 -0.45038,-3.22194 -0.69442,-3.53248 -0.12978,-0.16516 -0.30951,-1.08789 -0.3994,-2.05052 -0.0899,-0.96266 -0.23552,-1.75028 -0.32362,-1.75028 -0.0881,0 -0.16703,-0.32742 -0.1754,-0.7276 -0.0401,-1.91418 -0.51959,-4.43468 -0.94901,-4.988 -0.12449,-0.16042 -0.30223,-1.05339 -0.39499,-1.98438 -0.0927,-0.93101 -0.27341,-1.82647 -0.40146,-1.98993 -0.12805,-0.16343 -0.1585,-0.49085 -0.0677,-0.7276 0.11031,-0.28745 0.024,-0.4304 -0.26002,-0.4304 -0.30989,0 -0.42518,-0.25223 -0.42518,-0.9302 0,-1.08712 -0.56117,-3.03855 -0.87379,-3.03855 -0.11867,0 -0.13849,-0.12504 -0.044,-0.27789 0.0945,-0.15283 -0.028,-0.69872 -0.27202,-1.21304 -0.25693,-0.54142 -0.37608,-1.20488 -0.283,-1.57572 0.15966,-0.63614 -0.41758,-3.64165 -0.8712,-4.53613 -0.13026,-0.25685 -0.35417,-0.88373 -0.49757,-1.39305 -0.38957,-1.38359 -1.12852,-3.9614 -1.47899,-5.15938 -0.35633,-1.21804 -1.21258,-1.55689 -1.80541,-0.71448 -0.19596,0.27845 -0.63415,0.59407 -0.97376,0.70138 -0.33962,0.10732 -0.93493,0.48186 -1.32292,0.83236 -0.38799,0.35046 -1.36542,1.14294 -2.17206,1.76106 -0.80665,0.61812 -1.84443,1.5108 -2.30619,1.98374 -0.46176,0.47295 -0.93287,0.86368 -1.04691,0.86831 -0.11405,0.005 -0.61835,0.42132 -1.12066,0.92604 -0.71896,0.72237 -1.12492,0.91763 -1.90775,0.91763 -1.21108,0 -3.92582,-0.80346 -3.92582,-1.16186 0,-0.14259 -0.2558,-0.53152 -0.56844,-0.86432 -0.44486,-0.47352 -0.6358,-4.1563468 -0.69621,-2.59612 l -0.12778,-1.99106 -1.08972,0.93263 c -0.59934,0.5129457 -1.32785,1.14001 -1.6189,1.39345 -0.99451,0.86603 -2.37381,1.77345 -3.40232,2.23827 -0.87357,0.39481 -1.19176,0.41759 -2.12005,0.15169 -0.60071,-0.17206 -1.19944,-0.28581 -1.33049,-0.25281 -0.53353,0.1344 -1.97982,-1.64672 -2.14867,-2.6461 -0.0949,-0.562 -0.28426,-1.09083 -0.42068,-1.17512 -0.13642,-0.0843 -0.98927,0.30927 -1.89521,0.87466 -0.90594,0.56536 -2.15684,1.28857 -2.77978,1.6071 -1.1385,0.58217 -2.70384,0.78169 -2.70384,0.34462 0,-0.12898 -0.53521,-0.3148 -1.18937,-0.41288 -1.30299,-0.19542 -2.77924,-1.24248 -2.77924,-1.97136 0,-0.25029 -0.17481,-0.68617 -0.38846,-0.96866 -0.21365,-0.28247 -0.39225,-0.9017 -0.39688,-1.37607 -0.005,-0.52705 -0.21421,-1.03871 -0.53758,-1.31557 -0.29104,-0.24921 -0.52916,-0.631 -0.52916,-0.84846 0,-0.79796 -0.86793,-2.63784 -1.28758,-2.7295 -0.26511,-0.0579 -1.18062,0.67855 -2.36792,1.90477 -1.06465,1.09955 -2.51447,2.59447 -3.22183,3.32208 -1.32315,1.36101 -3.17684,3.89342 -3.17684,4.34004 0,0.13848 -0.27588,0.46876 -0.61307,0.734 -0.33719,0.26522 -1.06829,1.13708 -1.62467,1.93744 -0.55638,0.80034 -1.64363,2.12458 -2.41611,2.9427 -0.77248,0.81814 -1.48303,1.80041 -1.57901,2.18281 -0.096,0.38243 -0.28066,0.6953 -0.41041,0.6953 -0.12974,0 -0.2359,0.18232 -0.2359,0.40518 0,0.22283 -0.17618,0.47279 -0.39152,0.55541 -0.21533,0.0826 -0.62793,0.53277 -0.91688,1.00031 -3.54305,5.73276 -11.76001,14.32915 -14.58895,15.2626 -1.55143,0.51192 -2.88657,0.58356 -2.89211,0.15515 -0.003,-0.21672 -0.0712,-0.20714 -0.22231,0.0311 -0.16516,0.26038 -0.43252,0.14394 -1.09902,-0.47868 -0.77654,-0.72538 -0.87521,-0.96962 -0.8339,-2.06386 0.16979,-4.49789 0.0114,-6.66509 -0.48693,-6.66509 -0.11418,0 -0.27613,0.1786 -0.35989,0.39688 -0.0838,0.21828 -0.33463,0.39687 -0.55748,0.39687 -0.22284,0 -0.40517,0.10689 -0.40517,0.23754 0,0.13066 -0.50602,0.79971 -1.12448,1.4868 -0.61847,0.6871 -1.25157,1.48035 -1.40691,1.76279 -0.15533,0.28242 -0.58693,0.71469 -0.95911,0.96057 -0.76516,0.50554 -3.38311,2.7972 -4.57948,4.00873 -0.43667,0.4422 -0.92495,0.80399 -1.08507,0.80399 -0.31516,0 -2.5021,2.28428 -3.18552,3.32729 -0.23116,0.3528 -0.56929,0.64146 -0.7514,0.64146 -0.4265,0 -3.57315,3.20193 -3.57522,3.63802 -7.9e-4,0.1819 -0.13773,0.33073 -0.30415,0.33073 -0.31409,0 -1.47869,1.00404 -3.14566,2.71198 -0.53261,0.5457 -1.07597,0.99224 -1.20747,0.99232 -0.32886,1.8e-4 -2.40869,2.44665 -2.78833,3.27988 -0.17005,0.37322 -0.52923,0.7484 -0.79819,0.83378 -0.26896,0.0854 -0.48901,0.27469 -0.48901,0.42071 0,0.24323 -1.66147,2.29997 -3.10886,3.84847 -0.32742,0.35031 -0.59531,0.75057 -0.59531,0.88948 0,0.13891 -0.18154,0.25254 -0.40342,0.25254 -0.22189,0 -0.50652,0.26789 -0.63251,0.59532 -0.126,0.32742 -0.60261,0.86921 -1.05914,1.20398 -0.45654,0.33478 -0.75696,0.72697 -0.66761,0.87154 0.22526,0.36446 -0.60272,1.5625 -1.07988,1.5625 -0.21492,0 -0.39077,0.23812 -0.39077,0.52916 0,0.29105 -0.13295,0.52917 -0.29545,0.52917 -0.16249,0 -0.23518,0.23043 -0.16154,0.51205 0.15752,0.60235 -0.46954,1.60462 -1.00392,1.60462 -0.20491,0 -0.51348,0.26789 -0.68571,0.59531 -0.17223,0.32742 -0.65267,0.88048 -1.06764,1.22899 -0.41497,0.34853 -0.75449,0.76872 -0.75449,0.93377 0,0.16504 -0.40096,0.71331 -0.89101,1.2184 -0.49006,0.50507 -0.97577,1.30527 -1.07936,1.77821 -0.10359,0.47295 -0.35372,0.8599 -0.55585,0.8599 -0.41336,0 -2.55547,2.75566 -2.77652,3.57177 -0.0788,0.29109 -0.52074,0.7674 -0.98199,1.05844 -0.46125,0.29104 -0.84323,0.66341 -0.84883,0.82751 -0.006,0.16407 -0.19036,0.44783 -0.41056,0.63061 -0.2202,0.18274 -0.37093,0.46521 -0.33495,0.62769 0.036,0.16248 -0.3494,0.71271 -0.8564,1.22272 -0.507,0.51001 -1.39808,1.62685 -1.98016,2.48187 -0.58208,0.85503 -1.34322,1.80698 -1.69143,2.11543 -0.3482,0.30845 -0.94026,0.88826 -1.31568,1.28844 -0.37543,0.40018 -0.8066,0.7276 -0.95814,0.7276 -0.15155,0 -0.48187,0.47625 -0.73405,1.05834 -0.25218,0.58208 -0.64109,1.05833 -0.86425,1.05833 -0.44809,0 -1.99679,1.63647 -2.30557,2.43623 -0.10791,0.27951 -0.32669,0.42754 -0.48618,0.32896 -0.15949,-0.0986 -0.68504,0.22121 -1.16789,0.71061 -0.7117,0.72136 -1.08237,0.88982 -1.95804,0.88982 -0.93028,0 -1.15652,-0.112746 -0.9249,-0.48913 z M 359.65642,50.26534 c 0,-0.21828 0.14883,-0.39955 0.33073,-0.40283 0.1819,-0.003 0.74745,-0.61243 1.25677,-1.35371 0.50932,-0.74126 1.72971,-2.27897 2.71198,-3.4171 0.98226,-1.13813 1.78594,-2.1363 1.78594,-2.21816 0,-0.40605 -0.78926,-0.0654 -1.35069,0.58301 -0.34853,0.40254 -1.14639,1.07821 -1.77302,1.50149 -0.97504,0.65865 -1.40417,0.7725 -2.97587,0.78951 -2.05232,0.0222 -2.08462,0.0644 -1.43342,1.87196 0.2097,0.58208 0.38307,1.2683 0.38526,1.52495 0.005,0.53483 0.56242,1.51775 0.86138,1.51775 0.11052,0 0.20094,-0.17859 0.20094,-0.39687 z m -0.96706,-7.77581 c 0.79436,-0.52372 0.77709,-0.56182 -0.58183,-1.28337 -0.82702,-0.43912 -1.09695,-0.22439 -1.09695,0.87271 0,1.07079 0.49418,1.19168 1.67878,0.41066 z M 386.50087,9.02796 c 0.60962,0 0.67222,-1.06182 0.67222,-1.28243 0,-0.22064 0.29766,-0.83976 0.66146,-1.37586 0.3638,-0.53607 0.66146,-1.18237 0.66146,-1.43619 0,-0.25378 0.23812,-0.92852 0.52916,-1.49939 0.70501,-1.38284 0.71521,-2.77812 0.0203,-2.77812 -0.46976,0 -2.15016,1.18403 -2.36071,1.6634 -0.0503,0.11454 -0.35543,0.53126 -0.67807,0.92605 -0.83396,1.02052 -1.43252,2.81098 -1.64186,4.9113 -0.13807,1.38533 -0.0968,1.86401 0.17508,2.03208 0.48055,0.29699 0.62765,-1.16084 1.96096,-1.16084 z M 333.21732,7.2044 c 3.88345,0 4.37276,-3.95113 6.657,-5.18739 1.17933,-0.63828 1.78297,-1.12594 1.78594,-1.4428 0.002,-0.26326 -0.10123,-0.41331 -0.23046,-0.33343 -0.12922,0.0798 -0.31672,-0.40013 -0.41667,-1.06667 -0.41144,-2.74365 -0.81482,-3.97536 -1.41875,-4.3321 -0.3477,-0.20539 -0.36961,-0.31035 -0.10172,-0.48731 0.27662,-0.18269 0.27876,-0.45995 0.0113,-1.46005 -0.18161,-0.67897 -0.42456,-1.23452 -0.5399,-1.23452 -0.11534,0 -0.20971,-0.2195 -0.20971,-0.48773 0,-0.26826 -0.24277,-1.191 -0.5395,-2.05052 -0.29673,-0.85955 -0.47937,-1.80552 -0.40587,-2.10217 0.0735,-0.29665 -0.0409,-0.87582 -0.25425,-1.28701 -0.21333,-0.41119 -0.38788,-1.02465 -0.38788,-1.36324 0,-0.33859 -0.1239,-0.69218 -0.27534,-0.78576 -0.15144,-0.0936 -0.20295,-0.39828 -0.11446,-0.67709 0.0885,-0.2788 0.0487,-0.50689 -0.0885,-0.50689 -0.24078,0 -0.51843,-0.92933 -0.73241,-2.45147 -0.0566,-0.40241 -0.28476,-1.08342 -0.50709,-1.51337 -0.22232,-0.42992 -0.38893,-0.87458 -0.37023,-0.98811 0.0187,-0.11353 0.0108,-0.26596 -0.0176,-0.33872 -0.11317,-0.29027 -0.28258,-1.2509 -0.41996,-2.38125 -0.12591,-1.03606 -0.71242,-2.87054 -1.48033,-4.63021 -0.36481,-0.83595 -0.80341,-3.05842 -0.87544,-4.43595 -0.0363,-0.6935 -0.13808,-1.3331 -0.22627,-1.42129 -0.19545,-0.19545 -1.77159,1.34043 -1.77159,1.72633 0,0.29387 -1.49627,1.96464 -5.5855,6.23684 -1.39854,1.46111 -3.36307,3.59386 -4.36562,4.7394 -3.29671,3.76692 -12.5055,13.61778 -16.41708,17.56169 -1.81867,1.83372 -1.89768,2.16434 -0.90337,3.78029 0.44728,0.72694 0.81324,1.40144 0.81324,1.49894 0,0.0975 0.41672,0.98253 0.92604,1.96673 0.50932,0.9842 0.92604,1.91386 0.92604,2.06589 0,0.15206 0.20668,0.75353 0.45929,1.3366 0.70883,1.63615 1.29124,1.45875 4.0353,-1.22918 1.28542,-1.25915 2.71867,-2.44978 3.18498,-2.64583 1.36784,-0.57513 4.72894,-0.42595 4.34646,0.19291 -0.078,0.12618 0.0317,0.50064 0.24374,0.83219 0.21203,0.33152 0.45968,1.40862 0.55032,2.39355 0.0906,0.98491 0.23251,1.96718 0.31525,2.18282 0.2142,0.55819 0.64828,0.48479 0.81091,-0.13714 0.0761,-0.29104 0.30683,-0.52916 0.51271,-0.52916 0.20587,0 0.44285,-0.1786 0.52661,-0.39688 0.0838,-0.21828 0.30093,-0.39687 0.4826,-0.39687 0.18166,0 1.10992,-0.71438 2.06278,-1.5875 0.95286,-0.87313 1.79823,-1.5875 1.8786,-1.5875 0.0804,0 0.58474,-0.29766 1.12083,-0.66146 0.9895,-0.67149 2.14047,-0.82365 3.76813,-0.49811 0.93904,0.1878 1.8103,1.28416 1.40865,1.77258 -0.1975,0.24019 -0.83633,5.06164 -0.83633,6.31211 0,0.50422 -0.29671,-1.96419 2.66508,-1.96419 z m 88.8386,290.24974 c -0.6936,-0.42182 -0.76922,-0.58467 -0.61883,-1.3326 0.28662,-1.42523 0.42132,-1.77808 0.67884,-1.77808 0.1357,0 0.24675,-0.18478 0.24675,-0.41066 0,-0.22584 0.47625,-1.36503 1.05833,-2.53156 0.58209,-1.16649 1.05834,-2.29139 1.05834,-2.49975 0,-0.20836 0.12199,-0.37886 0.27114,-0.37886 0.14912,0 0.38724,-0.29766 0.52917,-0.66146 0.14189,-0.3638 0.39618,-0.98888 0.56504,-1.38906 0.16886,-0.40018 0.28633,-0.86056 0.26109,-1.02304 -0.0251,-0.16248 0.13423,-0.44495 0.35444,-0.62769 0.22021,-0.18278 0.40037,-0.60833 0.40037,-0.94573 0,-0.3374 0.12718,-0.69205 0.28262,-0.78812 0.15545,-0.0961 0.22204,-0.33252 0.14801,-0.52543 -0.074,-0.19294 0.0369,-0.49313 0.24654,-0.6671 0.20963,-0.17399 0.38116,-0.48651 0.38116,-0.69453 0,-0.20801 0.25852,-0.87804 0.57449,-1.48897 0.93919,-1.81591 1.01301,-2.00451 1.01301,-2.58767 0,-0.30695 0.16774,-0.87411 0.3728,-1.26037 0.20502,-0.38627 0.63399,-1.35713 0.95326,-2.15749 0.31928,-0.80037 0.97319,-2.28865 1.45315,-3.3073 0.47995,-1.01864 1.25698,-2.68552 1.72672,-3.70416 0.46974,-1.01865 1.62031,-3.42858 2.5568,-5.35541 0.9365,-1.92683 1.63619,-3.611 1.55485,-3.74258 -0.0813,-0.13161 0.0101,-0.29991 0.20331,-0.37404 0.50877,-0.19524 4.51578,-7.2425 4.99343,-8.78211 0.13581,-0.43772 0.34388,-1.45071 0.46236,-2.25107 0.1185,-0.80037 0.46577,-2.54585 0.77168,-3.87884 0.30594,-1.333 0.73446,-3.69311 0.95224,-5.24468 0.2178,-1.55157 0.48328,-2.96124 0.58996,-3.13261 0.10668,-0.17138 0.21654,-0.7283 0.24411,-1.23762 0.11689,-2.1595 0.55938,-5.19925 0.83053,-5.70555 0.45812,-0.85545 0.54737,-5.3671 0.10948,-5.53514 -0.48985,-0.18796 -0.57676,-0.17288 -0.57676,0.1002 0,0.37213 -1.59409,1.98416 -2.25161,2.27695 -1.15636,0.51493 -6.67776,5.57958 -6.54624,6.00472 0.0313,0.10112 -0.29951,0.43764 -0.73512,0.74782 -0.43561,0.31019 -0.72858,0.66661 -0.65103,0.79205 0.0775,0.12544 -0.0132,0.3247 -0.20169,0.44278 -0.18844,0.11809 -0.55338,0.54592 -0.81093,0.95076 -0.25757,0.40481 -0.5625,0.67781 -0.67765,0.60663 -0.11514,-0.0712 -0.40846,0.25247 -0.65182,0.71917 -0.24334,0.46672 -0.74179,1.32482 -1.10763,1.9069 -0.36584,0.58208 -0.86326,1.44529 -1.10535,1.91823 -0.24273,0.47413 -0.64759,0.8599 -0.90252,0.8599 -0.25429,0 -0.53385,0.22526 -0.62121,0.50059 -0.30295,0.95446 -2.2088,1.0923 -3.57627,0.25868 -1.91667,-1.1684 -2.06825,-2.14955 -0.54925,-3.55499 0.57362,-0.53073 1.49416,-1.86598 2.04568,-2.96725 0.77171,-1.54094 1.56186,-2.55561 3.42924,-4.40354 4.93382,-4.88244 7.40621,-7.22326 8.69569,-8.23296 0.7276,-0.56973 1.79916,-1.47521 2.38125,-2.01218 1.31236,-1.21066 2.16887,-1.85203 3.10885,-2.32805 0.40018,-0.20267 0.72761,-0.46741 0.72761,-0.58835 0,-0.12092 0.16015,-0.21987 0.35586,-0.21987 0.85752,0 1.1607,-0.91361 1.36091,-4.10104 0.22577,-3.59415 0.21627,-15.13308 -0.0127,-15.50363 -0.16571,-0.2681 -2.19792,-1.29741 -2.56156,-1.29741 -0.31017,0 -3.91586,-2.69521 -4.52475,-3.3822 -0.91395,-1.03118 -2.28356,-3.78854 -2.4598,-4.95218 -0.0661,-0.43656 -0.23368,-1.13895 -0.3724,-1.56083 -0.1387,-0.4219 -0.25218,-1.81964 -0.25218,-3.10607 0,-1.89114 0.12938,-2.66221 0.67577,-4.02704 0.37169,-0.92842 0.87771,-1.91193 1.12448,-2.18559 0.24678,-0.27366 0.79778,-1.03333 1.22442,-1.68817 1.13598,-1.74358 4.57575,-5.0486 6.42127,-6.16969 0.88191,-0.53573 1.71429,-0.97406 1.84971,-0.97406 0.13544,0 0.47704,-0.21299 0.75914,-0.47334 0.2821,-0.26033 1.50061,-0.69776 2.7078,-0.97208 3.92213,-0.89123 7.84167,0.0146 10.37283,2.39715 0.54919,0.51694 1.39253,0.97573 2.07232,1.12736 0.73353,0.16362 1.40896,0.54989 1.87569,1.07268 0.40118,0.44934 0.84515,0.81698 0.98663,0.81698 0.1415,0 0.48805,0.20941 0.77015,0.4654 0.2821,0.25596 1.01465,0.85788 1.62785,1.33757 0.98726,0.77235 1.09926,0.96899 0.97811,1.71741 -0.18553,1.14618 -0.91403,3.66411 -1.20142,4.15253 -0.12843,0.21828 -0.30099,0.57547 -0.38346,0.79375 -0.0824,0.21828 -0.27991,0.635 -0.43879,0.92604 -0.15888,0.29105 -0.31922,0.8055 -0.35631,1.14327 -0.0812,0.73895 -0.81627,2.34336 -1.17536,2.56527 -0.14161,0.0875 -0.25749,0.37716 -0.25749,0.64359 0,0.26644 -0.52057,1.18216 -1.15682,2.03492 -1.17858,1.57966 -1.51608,1.9563 -3.10298,3.46284 -0.49477,0.46971 -1.25677,1.21372 -1.69333,1.65335 -0.43656,0.43961 -0.93266,0.79944 -1.10244,0.7996 -0.16976,1.6e-4 -0.34835,0.0944 -0.39687,0.20955 -0.1827,0.43352 -3.43953,2.96574 -3.8144,2.96574 -0.21529,0 -0.46336,0.18746 -0.55128,0.41656 -0.10742,0.27993 -0.35613,0.36729 -0.75832,0.26635 -0.37476,-0.0941 -0.82638,0.0344 -1.20814,0.34349 -0.60082,0.48649 -0.60323,0.51009 -0.16637,1.62221 0.24381,0.62071 0.40042,1.20142 0.348,1.2905 -0.0524,0.0891 -0.1715,2.88431 -0.26463,6.21165 -0.0931,3.32735 -0.28554,6.26692 -0.42762,6.53238 -0.17299,0.32322 -0.16553,0.54002 0.0225,0.65627 0.15451,0.0955 0.24558,0.44337 0.20238,0.77304 -0.0432,0.32967 0.0814,0.79211 0.27688,1.02764 0.30843,0.37166 0.89665,0.41119 4.45006,0.299 2.25208,-0.0711 5.18631,-0.31395 6.52052,-0.53969 4.90469,-0.82987 5.89486,-0.9679 7.29665,-1.01727 1.33948,-0.0471 1.50186,-0.12843 2.53386,-1.26831 1.19867,-1.32397 2.7676,-4.32432 3.7097,-7.09419 0.32769,-0.9634 0.71168,-1.98139 0.85336,-2.26219 1.00965,-2.00123 1.9154,-4.43267 1.91503,-5.14078 -1.6e-4,-0.33109 -0.0388,-0.33586 -0.23336,-0.0286 -0.17452,0.27559 -0.55624,0.32316 -1.51731,0.18912 -2.15757,-0.30091 -2.34482,-0.34993 -3.53692,-0.92588 -0.63463,-0.30662 -1.59171,-0.5575 -2.12686,-0.5575 -1.68891,0 -3.20489,-1.68487 -2.97576,-3.30729 0.29207,-2.06812 2.3586,-4.74411 4.54615,-5.88698 1.14855,-0.60005 3.30284,-0.81643 3.58489,-0.36005 0.08,0.12941 0.47397,0.31647 0.87553,0.41569 0.40153,0.0992 1.45764,0.66844 2.34688,1.265 1.81801,1.21957 2.21967,1.96551 2.21967,4.1221 0,1.29913 0.0357,1.37028 0.68763,1.37028 0.37817,0 1.06277,0.16584 1.52135,0.36854 0.45855,0.20272 1.04209,0.43709 1.29675,0.52088 0.45056,0.14819 0.57449,0.74832 0.47601,2.30495 -0.0472,0.74554 1.46188,2.85424 2.05915,2.87739 0.19381,0.007 1.08677,-0.43204 1.98437,-0.97679 1.45026,-0.88013 1.82359,-0.98941 3.35182,-0.98112 1.73131,0.01 4.49792,0.74694 4.49792,1.19909 0,0.13382 0.22188,0.24331 0.49308,0.24331 0.56277,0 1.85489,1.19541 2.1449,1.98437 0.24283,0.66067 0.0323,2.51354 -0.28567,2.51354 -0.1296,0 -0.23564,0.21352 -0.23564,0.47448 0,0.51226 -2.4543,3.56838 -2.98482,3.71674 -0.78835,0.22042 -2.57156,1.12164 -2.57273,1.30024 -0.003,0.32385 -3.24787,0.21177 -4.0336,-0.13928 -0.40018,-0.1788 -0.99549,-0.44513 -1.32292,-0.59182 -1.06986,-0.47937 -2.41985,-1.36337 -2.76354,-1.80964 -0.18518,-0.24043 -0.31533,-0.88374 -0.28927,-1.42952 0.0385,-0.80462 -0.12234,-1.16755 -0.84995,-1.91823 -0.49358,-0.50924 -1.11699,-0.92588 -1.38538,-0.92588 -1.17769,0 -2.84779,1.95612 -2.84779,3.33549 0,0.75957 -0.54036,2.01928 -0.98661,2.30005 -0.18497,0.11637 -0.33631,0.4454 -0.33631,0.73121 0,0.28577 -0.11385,0.72633 -0.25302,0.97903 -0.13917,0.25268 -0.4364,1.13112 -0.66051,1.9521 -0.22413,0.82097 -0.58652,1.56138 -0.80531,1.64536 -0.21881,0.084 -0.39783,0.37791 -0.39783,0.65321 0,0.2753 -0.28749,0.92419 -0.63889,1.44198 -0.35136,0.51779 -0.56964,1.01065 -0.48506,1.09527 0.0846,0.0846 -0.0301,0.1538 -0.25476,0.1538 -0.22471,0 -0.54258,0.16145 -0.70634,0.3588 -0.21386,0.25768 -1.46854,0.41233 -4.45211,0.5488 -2.28487,0.10448 -4.33835,0.28847 -4.56327,0.40883 -1.11247,0.59531 -9.80152,1.05087 -14.15291,0.74203 -0.99999,-0.071 -1.05209,-0.0351 -1.23624,0.85195 -0.10573,0.50933 -0.25103,1.81901 -0.32287,2.91042 -0.0718,1.09141 -0.24839,2.28989 -0.39235,2.6633 -0.14396,0.3734 -0.23595,1.18395 -0.20444,1.8012 0.0315,0.61722 -0.0393,1.18195 -0.15735,1.25489 -0.11806,0.073 -0.21466,0.59486 -0.21466,1.15978 0,0.56491 -0.10673,1.09307 -0.2372,1.17369 -0.13046,0.0806 -0.245,0.7992 -0.25453,1.59681 -0.01,0.79761 -0.19438,1.79263 -0.41081,2.21115 -0.41376,0.80007 -1.21412,5.241 -1.21412,6.73653 0,0.48181 -0.12608,1.00206 -0.28017,1.15615 -0.57036,0.57036 -1.3543,4.44855 -1.3553,6.70483 0,1.66402 -0.10851,2.3694 -0.41439,2.71198 -0.22739,0.25466 -0.28705,0.46302 -0.13259,0.46302 0.15444,0 0.21855,0.23813 0.14243,0.52917 -0.0761,0.29104 -0.0236,0.52917 0.11689,0.52917 0.45625,0 1.21367,2.09359 1.27043,3.51163 0.055,1.37369 0.33652,2.76576 1.09315,5.40527 0.21698,0.75698 0.36721,1.64995 0.33388,1.98438 -0.0334,0.33446 0.085,0.96528 0.2631,1.40184 0.17804,0.43656 0.33324,1.12165 0.34491,1.52239 0.0116,0.40076 0.18163,0.86182 0.37774,1.0246 0.19611,0.16277 0.35658,0.55917 0.35658,0.8809 0,0.32173 0.0828,0.66778 0.18405,0.76901 0.10123,0.10123 0.22413,0.38896 0.27313,0.63939 0.049,0.25046 0.13406,0.6935 0.18907,0.98454 0.055,0.29105 0.30326,1.24355 0.55165,2.11667 0.5982,2.10264 0.90112,3.45099 1.09967,4.89479 0.0961,0.69903 0.3824,1.38179 0.69336,1.65365 0.29128,0.25466 0.39235,0.46302 0.22455,0.46302 -0.42849,0 -0.37983,0.85836 0.0834,1.47079 0.21365,0.28247 0.39407,0.9303 0.40092,1.43962 0.007,0.50933 0.1214,1.09824 0.25453,1.30866 0.14169,0.22392 0.14513,0.56377 0.008,0.81936 -0.14036,0.26226 -0.13049,0.53999 0.0246,0.69514 0.23312,0.23313 0.51234,1.11623 0.57136,1.80705 0.13436,1.57303 -0.6737,2.77813 -1.86287,2.77813 -0.78333,0 -2.69582,-1.39758 -2.69582,-1.97001 0,-0.18918 -0.23185,-0.86812 -0.51522,-1.50873 -0.28337,-0.64061 -0.75121,-2.17379 -1.03963,-3.40707 -0.28839,-1.23328 -0.70998,-2.89716 -0.93683,-3.69753 -0.22686,-0.80036 -0.41387,-1.75881 -0.41559,-2.12989 -0.003,-0.37108 -0.10713,-0.7878 -0.23423,-0.92604 -0.26162,-0.28456 -1.09183,-4.29043 -1.09183,-5.2682 0,-0.35227 -0.10557,-0.70572 -0.23458,-0.78544 -0.12904,-0.0797 -0.3175,-0.5928 -0.41881,-1.14012 -0.10131,-0.54729 -0.54023,-2.06666 -0.97536,-3.37635 -0.43513,-1.30968 -0.83743,-2.7174 -0.894,-3.12824 -0.0566,-0.41085 -0.22516,-1.12522 -0.37468,-1.5875 -0.14951,-0.46228 0.2729,-2.16085 -0.56467,-2.39382 l -0.29287,-1.55332 -0.76721,1.15644 c -0.42197,0.63605 -0.76774,1.26426 -0.76835,1.39605 0,0.13179 -0.30067,0.63233 -0.66678,1.11231 -0.3661,0.47998 -0.74273,1.25822 -0.83698,1.72942 -0.0942,0.4712 -0.50908,1.35713 -0.92186,1.96877 -0.41278,0.61163 -0.7543,1.39244 -0.75893,1.73513 -0.005,0.34272 -0.18323,0.85421 -0.39688,1.13668 -0.21365,0.2825 -0.38846,0.7144 -0.38846,0.9598 0,0.2454 -0.17859,0.59442 -0.39687,0.77558 -0.21828,0.18116 -0.39688,0.55292 -0.39688,0.82613 0,0.27324 -0.23812,0.73491 -0.52916,1.02595 -0.29105,0.29104 -0.53295,0.73752 -0.53758,0.99219 -0.005,0.25466 -0.17942,0.68892 -0.38841,0.96501 -0.209,0.27609 -0.32494,0.59105 -0.25768,0.69988 0.0673,0.10885 -0.0556,0.26617 -0.27305,0.34959 -0.21746,0.0834 -0.39537,0.39754 -0.39537,0.698 0,0.30043 -0.27617,1.10783 -0.61373,1.79422 -0.59393,1.20771 -1.04767,2.57124 -1.36532,4.10308 -0.0904,0.43603 -0.26991,0.66624 -0.43831,0.56218 -0.18616,-0.11507 -0.22567,0.0111 -0.11377,0.36378 0.0943,0.29702 0.0426,0.6196 -0.1147,0.71686 -0.15735,0.0973 -0.2177,0.39238 -0.13407,0.65585 0.0856,0.26966 -0.037,0.66802 -0.28043,0.91146 -0.23786,0.23786 -0.69241,0.93501 -1.01015,1.54924 -0.31771,0.61423 -0.7167,1.35491 -0.88662,1.64595 -0.32806,0.56192 -0.84839,1.78633 -1.40544,3.30729 -0.18656,0.50932 -0.47776,1.10464 -0.64714,1.32292 -0.38667,0.49834 -0.46153,4.15773 -2.09878,4.49791 l -0.4386,1.19063 -1.59933,0.01 c -1.09284,0.007 -1.8496,-0.1425 -2.38953,-0.47085 z m 31.58085,-106.03039 c 2.413,-1.25772 6.95426,-5.42642 9.24915,-8.49034 0.93406,-1.24712 1.58824,-2.83229 1.25407,-3.03882 -0.14277,-0.0882 -1.04172,0.21674 -1.99766,0.67778 -2.60921,1.25841 -5.58114,1.22714 -10.91266,-0.11485 -0.9308,-0.23429 -2.06189,-0.58968 -2.51354,-0.78979 -1.19798,-0.53072 -4.61796,-1.33961 -4.81803,-1.13953 -0.2812,0.28117 -0.6844,2.32362 -0.82148,4.1611 -0.12912,1.73054 0.25609,4.06355 0.87368,5.29167 0.44217,0.87929 2.16167,2.68383 3.15092,3.30671 1.66762,1.05002 4.66246,1.11239 6.53555,0.13607 z m 5.5499,-15.17314 c -2.18534,0 3.20834,-1.81141 4.86474,-3.02016 0.6481,-0.47294 1.32614,-0.86064 1.5068,-0.86154 0.18063,0 0.022,-0.16147 -0.35234,-0.35687 -0.37444,-0.19539 -1.47575,-0.41907 -2.44735,-0.49707 -1.10511,-0.0887 -2.02814,-0.32658 -2.46517,-0.63529 -0.65278,-0.46112 -1.44876,-0.97772 -1.62949,-1.05759 -0.0435,-0.0193 0,-0.34581 0.0944,-0.72578 0.0954,-0.37997 0.27152,-0.63019 0.39148,-0.55608 0.11994,0.0741 0.28813,0.0214 0.37378,-0.11713 0.0856,-0.13856 -0.38696,-0.33329 -1.05016,-0.43275 -1.41496,-0.2122 -3.28509,0.21794 -4.62523,1.06378 -0.50933,0.32147 -1.25347,0.66567 -1.65365,0.76489 -0.40018,0.0992 -0.7276,0.29715 -0.7276,0.43992 0,0.14274 -0.15563,0.25953 -0.34587,0.25953 -0.44913,0 -1.84626,1.12226 -3.42445,2.75074 -1.42028,1.46555 -1.52225,1.74718 -0.63248,1.74718 0.34337,0 1.32564,0.34385 2.18281,0.76411 2.08767,1.02357 3.24583,1.27942 5.97106,1.31911 2.12405,0.0309 5.71853,-0.849 3.96875,-0.849 z M -64.37654,89.423467 c -0.80152,-0.631844 -0.82799,-0.716312 -0.72469,-2.31217 0.21788,-3.365537 0.56187,-6.490536 0.74754,-6.790946 0.10509,-0.170056 0.18223,-1.413447 0.1714,-2.763092 -0.0118,-1.468636 0.14379,-3.031595 0.38746,-3.892698 0.48096,-1.699691 0.46382,-1.444074 0.26946,-4.018483 -0.10589,-1.402506 -0.0633,-2.050521 0.13466,-2.050521 0.18986,0 0.22953,-0.354843 0.11526,-1.031179 -0.11195,-0.662593 -0.0664,-1.097796 0.12732,-1.217544 0.16585,-0.102499 0.27617,-0.620733 0.24516,-1.151633 -0.031,-0.530897 0.034,-1.414253 0.14449,-1.963015 0.11048,-0.548759 0.24433,-1.620322 0.29744,-2.38125 0.18672,-2.675057 0.52593,-4.686345 0.84402,-5.004443 0.37908,-0.379076 0.4351,-3.024404 0.0688,-3.250763 -0.13888,-0.08583 -3.44286,-0.213299 -7.34219,-0.28326 -3.89932,-0.06996 -8.93515,-0.245886 -11.19072,-0.390946 -3.56828,-0.229478 -6.80602,-0.312293 -8.59896,-0.21994 -0.57505,0.02962 -2.88607,-0.226529 -4.36562,-0.483876 -1.29701,-0.225594 -5.18003,-0.35316 -14.68438,-0.48242 -4.51114,-0.06135 -8.90088,-0.217074 -9.75497,-0.346051 -0.8541,-0.128976 -3.94972,-0.202525 -6.87917,-0.163443 -2.92945,0.03908 -6.93362,0.06547 -8.89815,0.05865 -1.96453,-0.0068 -8.39391,0.02753 -14.2875,0.07634 -15.74126,0.13037 -15.83651,-0.04664 -17.83037,-0.10794 l -1.82307,-0.218752 0.16281,0.814065 c 0.0895,0.447735 0.0586,0.814064 -0.0688,0.814064 -0.29659,0 -0.75998,2.177696 -0.77446,3.639511 -0.006,0.619283 -0.1899,1.381175 -0.40838,1.693095 -0.34861,0.49771 -0.35032,0.657839 -0.014,1.308285 0.49867,0.964319 0.48838,1.009973 -0.18768,0.833178 -0.48548,-0.126955 -0.54797,-0.06141 -0.41741,0.43783 0.0984,0.376341 0.0184,0.638985 -0.2228,0.731552 -0.46466,0.178308 -0.49341,0.790215 -0.0456,0.970904 0.26458,0.106762 0.26458,0.137628 0,0.154339 -0.1819,0.01148 -0.32891,0.229249 -0.32668,0.48391 0.003,0.379193 0.0474,0.394465 0.24368,0.08435 0.14807,-0.233973 0.1851,0.473734 0.0969,1.852084 -0.21825,3.411121 -0.23052,5.826106 -0.0356,6.993254 0.23031,1.378686 -0.005,2.585419 -0.46888,2.407309 -0.47514,-0.18233 -0.79028,0.375266 -0.36177,0.640101 0.27511,0.170024 0.26341,0.594969 -0.0613,2.226704 -0.23813,1.196758 -0.30178,2.078061 -0.15656,2.167813 0.13458,0.08318 0.0526,0.363535 -0.18226,0.623017 -0.28754,0.31772 -0.36992,0.699075 -0.25228,1.167795 0.0961,0.382804 0.0571,0.84329 -0.0867,1.023302 -0.15693,0.196517 -0.18288,0.908743 -0.0649,1.7825 0.26491,1.962468 0.0693,6.61225 -0.29665,7.053247 -0.53744,0.64757 -2.37114,0.418235 -3.66949,-0.458928 -1.03942,-0.702236 -1.2087,-0.951201 -1.33296,-1.960504 -0.0783,-0.635865 -0.0512,-1.099765 0.0603,-1.030888 0.11145,0.06888 0.16598,-1.755399 0.12117,-4.053951 -0.0448,-2.298552 0.0287,-4.536371 0.1633,-4.972934 0.13462,-0.436562 0.23228,-1.880888 0.21704,-3.209615 -0.0254,-2.209477 0.0177,-2.427742 0.50401,-2.554917 0.53694,-0.140412 0.77124,-1.332256 0.31708,-1.612945 -0.27905,-0.172461 -0.18459,-1.466953 0.18982,-2.601444 0.37724,-1.143042 0.71302,-3.833791 0.90085,-7.218995 0.0565,-1.018645 0.18841,-2.120561 0.29308,-2.4487 0.13532,-0.424212 0.0704,-0.642646 -0.22481,-0.755909 -0.43534,-0.167063 -0.58394,-0.896432 -0.18262,-0.896432 0.28831,0 0.81582,-1.270775 0.82372,-1.984375 0.0109,-0.980257 0.23678,-2.78022 0.37755,-3.007992 0.25893,-0.418963 0.97765,-5.181873 1.00337,-6.649299 0.0148,-0.844794 0.18418,-1.640655 0.40377,-1.897309 0.20804,-0.243155 0.35183,-0.838467 0.31954,-1.322916 -0.0323,-0.48445 0.0279,-1.083474 0.13366,-1.331167 0.10581,-0.247695 0.10277,-0.595349 -0.007,-0.772567 -0.13648,-0.220832 -0.0641,-0.270386 0.23014,-0.157486 0.3795,0.145624 0.41204,-0.05632 0.28063,-1.740974 -0.22738,-2.914747 -0.23015,-2.836851 0.34897,-9.843206 0.0842,-1.018646 0.16356,-2.060442 0.17637,-2.315104 0.0128,-0.254661 0.10777,-0.463021 0.21102,-0.463021 0.10326,0 0.2415,-0.922734 0.3072,-2.05052 0.0657,-1.127787 0.21013,-2.390609 0.32095,-2.806269 0.13648,-0.511868 0.0935,-0.8225 -0.1332,-0.962604 -0.18409,-0.113774 -0.25169,-0.341178 -0.15024,-0.505341 0.10146,-0.164164 0.29887,-0.227783 0.43868,-0.141375 0.14706,0.09089 0.24365,-0.269716 0.22917,-0.855581 -0.0551,-2.228503 0.0577,-3.355702 0.38931,-3.890862 0.37809,-0.610206 0.81968,-2.7770107 1.09968,-5.3959728 0.0976,-0.9127596 0.28446,-1.7257183 0.41528,-1.8065697 0.13082,-0.080851 0.16818,-0.5246714 0.083,-0.986266 -0.0907,-0.4918181 0.0224,-1.3321691 0.27319,-2.0298886 0.28557,-0.79434 0.42291,-2.01873903 0.41264,-3.6786607 -0.008,-1.3684196 0.0992,-2.6260847 0.2392,-2.7948095 0.14003,-0.1687274 0.3076,-0.734102 0.37239,-1.256395 0.0648,-0.52229 0.25479,-1.20563 0.42225,-1.518534 0.16746,-0.312904 0.26375,-0.771035 0.21398,-1.018071 -0.0498,-0.247034 0.11313,-0.671211 0.36202,-0.942615 0.33633,-0.366758 0.39184,-0.653074 0.21617,-1.1151107 -0.60582,-1.593442 1.20729,-0.544967 1.8986,1.0979047 0.17942,0.426386 0.36357,2.025406 0.40922,3.553375 0.0457,1.5279685 0.0916,2.8971872 0.1021,3.0427081 0.0105,0.1455208 -0.0516,1.2766145 -0.13808,2.51354147 -0.20006,2.86268053 -0.18849,2.48826863 -0.14146,4.57527013 0.0223,0.9884303 -0.0756,1.9409303 -0.21743,2.1166666 -0.14185,0.1757362 -0.31509,0.7957714 -0.38497,1.3778547 -0.0699,0.5820833 -0.32968,1.7727083 -0.57732,2.6458333 -0.24764,0.873125 -0.50753,2.046615 -0.57753,2.607757 -0.07,0.561141 -0.28979,1.45411 -0.48841,1.984375 -0.19863,0.530265 -0.43435,2.142194 -0.52383,3.582064 -0.0895,1.439868 -0.24639,2.749555 -0.34869,2.910417 -0.28787,0.452617 -0.33592,4.071299 -0.0636,4.787603 0.19438,0.511241 0.16633,0.609523 -0.14036,0.491834 -0.47043,-0.180517 -0.83027,0.629465 -0.44903,1.010711 0.15637,0.156371 0.19109,0.57381 0.081,0.974405 -0.1059,0.385458 -0.21927,1.648457 -0.25194,2.806663 -0.0327,1.158205 -0.16258,2.230146 -0.28869,2.382091 -0.25427,0.306382 -0.51213,3.180474 -0.55873,6.227704 -0.0182,1.18944 -0.1777,2.21714 -0.39817,2.565421 -0.21789,0.344215 -0.28826,0.788406 -0.17262,1.08979 0.28323,0.738214 1.97998,2.102908 2.11415,1.700403 0.0808,-0.242509 0.24378,-0.251691 0.64604,-0.0364 0.29921,0.160133 0.96491,0.213153 1.50001,0.119472 0.52914,-0.09264 2.76632,-0.193376 4.97151,-0.223869 2.2052,-0.03049 3.9731,-0.114969 3.92867,-0.18773 -0.0444,-0.07276 2.61616,-0.132291 5.91243,-0.132291 3.29626,0 6.10609,-0.05137 6.24406,-0.114155 0.36676,-0.166899 16.92086,-0.04712 20.71738,0.149908 2.19665,0.113995 3.24114,0.07855 3.24114,-0.109982 0,-0.377973 -1.99967,-1.938946 -2.21194,-1.726674 -0.0931,0.09312 -0.1693,0.04725 -0.1693,-0.101915 0,-0.279415 -2.72762,-2.198224 -3.12481,-2.198224 -0.12239,0 -0.51117,-0.312007 -0.86396,-0.693346 -0.35279,-0.381341 -1.11769,-0.917456 -1.69977,-1.191363 -0.58208,-0.273907 -1.47505,-0.759066 -1.98437,-1.078132 -0.8571,-0.536927 -1.29331,-0.584306 -5.85887,-0.636365 -3.2519,-0.03708 -5.13669,-0.165357 -5.53111,-0.376442 -0.76206,-0.407847 -5.18246,-1.845185 -5.67469,-1.845185 -0.20435,0 -0.48814,0.208359 -0.63066,0.463021 -0.14252,0.254661 -0.32702,0.433255 -0.41002,0.396875 -0.083,-0.03638 -0.29973,-0.06432 -0.48163,-0.06209 -0.22355,0.0028 -0.20436,0.08397 0.0592,0.250647 0.32867,0.207852 0.2871,0.362972 -0.26458,0.98728 -0.35999,0.407376 -0.74383,0.780756 -0.85297,0.829733 -0.10914,0.04898 -0.19843,0.223023 -0.19843,0.386765 0,0.412983 -2.57691,2.83319 -3.01663,2.83319 -0.19709,0 -0.78577,0.178594 -1.30819,0.396875 -1.91085,0.798404 -4.92566,0.239689 -6.81286,-1.262583 -0.49547,-0.394417 -1.17622,-0.926534 -1.51276,-1.182479 -0.33655,-0.255944 -0.98353,-1.001135 -1.43775,-1.655979 -0.45422,-0.654844 -0.93572,-1.265039 -1.07,-1.35599 -0.1413,-0.09571 -0.11898,-0.242723 0.053,-0.349012 0.16343,-0.101004 0.21155,-0.322154 0.10692,-0.491442 -0.2744,-0.443997 -0.31528,-1.331973 -0.0755,-1.640014 0.11327,-0.145521 0.16807,-1.03849 0.12178,-1.984375 -0.0953,-1.946347 0.49805,-3.863512 1.25711,-4.06201 0.25613,-0.06698 0.4657,-0.320027 0.4657,-0.562327 0,-0.443516 0.59427,-1.196496 0.94431,-1.196496 0.10359,0 0.67765,-0.225801 1.27567,-0.501777 1.26277,-0.58275 4.3946,-1.10702 4.3946,-0.735658 0,0.134887 0.35719,0.17381 0.79375,0.0865 0.44776,-0.08955 0.79375,-0.0463 0.79375,0.09922 0,0.141883 0.48667,0.257969 1.08149,0.257969 1.51274,0 5.48061,2.249834 5.62228,3.187903 0.0319,0.211185 0.16685,0.558501 0.2999,0.771816 0.13305,0.213315 0.26311,0.891011 0.28903,1.50599 0.0622,1.476804 0.56321,1.914668 2.41443,2.110235 0.84571,0.08934 1.75938,0.278111 2.03036,0.419483 0.58879,0.307166 7.20275,0.01942 7.87957,-0.342789 0.66727,-0.35711 2.65121,-0.29832 3.83145,0.113538 1.21398,0.423633 4.37596,0.886701 7.50774,1.0995 3.65121,0.248092 5.14284,0.427726 5.42396,0.653196 0.14552,0.11671 1.51474,0.298508 3.04271,0.403992 1.52797,0.105487 3.19484,0.23804 3.70417,0.294568 4.28139,0.475168 6.383,0.301787 6.50607,-0.536749 0.0774,-0.52713 0.55294,-0.938607 1.09265,-0.945383 0.17747,-0.0021 0.74664,-0.242176 1.26482,-0.533217 0.51817,-0.291042 1.33142,-0.529167 1.80721,-0.529167 0.4758,0 0.97819,-0.106664 1.11643,-0.237035 0.48991,-0.461997 4.824,-0.878469 10.43782,-1.00299 3.62319,-0.08037 6.23075,-0.262417 7.18194,-0.501412 1.93417,-0.485976 2.48203,-0.473205 4.09696,0.09551 1.15003,0.404995 1.30833,0.543568 1.13348,0.992187 -0.11178,0.286795 -0.14008,0.903058 -0.0629,1.36947 0.12601,0.761355 0.0632,0.866487 -0.61447,1.028671 -0.41516,0.09935 -0.92188,0.313058 -1.12606,0.474893 -0.2404,0.190545 -2.22936,0.307745 -5.64353,0.332547 -2.89976,0.02106 -5.94739,0.130995 -6.77252,0.244289 -0.82512,0.113295 -1.58951,0.185354 -1.69865,0.160137 -0.10914,-0.02521 -0.19844,0.05369 -0.19844,0.175358 0,0.121663 0.45007,0.238844 1.00016,0.260397 1.96794,0.07711 3.83016,0.585002 4.97303,1.356323 0.63892,0.431197 1.64133,0.927709 2.22759,1.103355 0.58625,0.175646 1.19815,0.478682 1.35976,0.673412 0.16161,0.194728 0.5603,0.354052 0.88598,0.354052 0.32567,0 0.9957,0.269005 1.48895,0.597789 0.49325,0.328782 1.22759,0.744472 1.63185,0.923751 0.40427,0.179281 0.80932,0.535355 0.90011,0.791276 0.0908,0.255921 0.30959,0.643903 0.48621,0.862184 0.17662,0.218282 0.3963,0.713891 0.48818,1.101352 0.15509,0.653958 0.092,0.717156 -0.87934,0.881266 -1.2707,0.214683 -1.54003,0.13344 -4.9857,-1.503907 -1.50016,-0.712862 -3.06642,-1.320557 -3.48056,-1.350433 -0.41415,-0.02987 -0.7063,-0.130249 -0.64923,-0.223049 0.0571,-0.0928 -0.52007,-0.468932 -1.28255,-0.835843 -1.00039,-0.481399 -2.19652,-0.751927 -4.29673,-0.971788 -1.60073,-0.167574 -3.56526,-0.434597 -4.36563,-0.593384 -2.63928,-0.523615 -3.33779,-0.521094 -4.29316,0.01551 -0.77928,0.437695 -1.31478,0.495353 -3.79713,0.408826 -4.35743,-0.151884 -7.25486,-0.336471 -7.48164,-0.476628 -0.11177,-0.06908 -1.08888,-0.199949 -2.17137,-0.290825 -1.08249,-0.09087 -2.44441,-0.273418 -3.02649,-0.405649 -2.83612,-0.644273 -3.40283,-0.09851 -1.32609,1.277062 0.9589,0.635151 1.82707,1.528395 3.59445,3.698272 0.19393,0.23809 0.15904,0.377227 -0.1216,0.484915 -0.21645,0.08306 -0.3288,0.319765 -0.24966,0.526002 0.0908,0.236723 -0.0291,0.374978 -0.32539,0.374978 -0.2581,0 -0.38253,0.08675 -0.27651,0.192773 0.10603,0.106024 1.64392,0.222594 3.41754,0.259048 1.77362,0.03645 4.26154,0.109503 5.52872,0.162335 1.26717,0.05283 2.4006,-5.29e-4 2.51873,-0.118718 0.11812,-0.118126 0.98634,-0.105003 1.92938,0.02916 0.94303,0.134168 3.26241,0.302628 5.15418,0.374354 3.4314,0.130106 4.10177,0.18729 8.31812,0.709557 1.22798,0.152106 3.19251,0.256622 4.36562,0.232259 1.17311,-0.02437 4.7523,0.02725 7.95376,0.114694 3.20146,0.08745 8.32115,0.223044 11.37709,0.301329 3.05593,0.07829 5.93648,0.209838 6.40122,0.292335 0.49076,0.08712 1.30154,0.597546 1.93412,1.217623 1.05215,1.031372 1.08425,1.112959 0.94511,2.402568 -0.0792,0.734216 -0.29472,1.430596 -0.4789,1.547508 -0.22237,0.14115 -0.23328,0.213931 -0.0325,0.216622 0.61615,0.0083 0.62995,0.848961 0.0218,1.327341 -0.52856,0.415763 -0.59488,0.671729 -0.52117,2.011425 0.0464,0.84427 -0.0387,1.838328 -0.18926,2.209015 -0.2745,0.675907 -0.49624,2.32311 -0.52463,3.897293 -0.0109,0.60165 -0.16627,0.890019 -0.54435,1.010018 -0.29104,0.09237 -0.52917,0.275254 -0.52917,0.4064 0,0.131149 0.1786,0.169918 0.39688,0.08616 0.29732,-0.114093 0.39687,0.04285 0.39687,0.625663 0,0.427879 -0.0755,0.853504 -0.16787,0.945835 -0.16801,0.168013 -0.35941,3.193042 -0.38548,6.092545 -0.008,0.848108 -0.17133,1.988325 -0.36379,2.533814 -0.19246,0.545491 -0.29522,1.280334 -0.22836,1.632987 0.0669,0.35265 -0.0131,1.176964 -0.17766,1.831808 -0.35885,1.427792 -0.42913,2.303214 -0.52878,6.586513 -0.0652,2.802813 -0.14745,3.340957 -0.5661,3.704167 -0.26939,0.23372 -0.80772,0.752366 -1.19629,1.152549 -0.92626,0.953968 -2.27592,0.979873 -3.43529,0.06593 z m -88.84085,-51.641175 c 0.51823,0 0.64048,-0.856033 0.64048,-1.057632 0,-0.201599 0.17618,-0.434152 0.39152,-0.516784 0.53544,-0.205467 1.46056,-1.753539 1.46056,-2.444067 0,-0.310248 0.12158,-0.564084 0.27018,-0.564084 0.1699,0 0.22569,-0.705697 0.15033,-1.901383 -0.10807,-1.714585 -0.1866,-1.936358 -0.79934,-2.257406 -0.37373,-0.195816 -0.6795,-0.530818 -0.6795,-0.744453 0,-0.274834 -0.3005,-0.388424 -1.02755,-0.388424 -0.87441,0 -1.17774,0.167587 -2.03532,1.124479 -0.55428,0.618463 -1.31799,1.362604 -1.69714,1.653645 -0.37915,0.291042 -0.70018,0.797058 -0.7134,1.12448 -0.0132,0.327421 -0.0502,0.625078 -0.0821,0.661458 -0.0319,0.03638 -0.0891,0.864042 -0.12717,1.839248 -0.0558,1.429896 0.0266,1.87587 0.4255,2.304039 0.27205,0.292018 0.49465,0.64823 0.49465,0.791583 0,0.433277 0.93933,0.948585 1.83972,1.009248 0.62086,0.04183 0.79874,-0.633947 1.48855,-0.633947 z m -16.11763,-11.527879 c -0.0734,-0.181901 -0.13345,-0.03307 -0.13345,0.330729 0,0.363802 0.0601,0.51263 0.13345,0.330729 0.0734,-0.181901 0.0734,-0.479557 0,-0.661458 z M 32.535144,269.8173 c -1.933284,-0.21863 -2.729045,-1.84338 -1.092756,-2.23113 1.43645,-0.34039 5.799561,-1.88249 6.87758,-2.43081 1.359032,-0.69125 4.295113,-3.5187 5.491268,-5.28809 2.307564,-3.4135 3.574653,-5.44853 4.113239,-6.60621 0.320067,-0.68801 0.820076,-1.76476 1.111118,-2.39279 0.291041,-0.62803 0.529166,-1.26528 0.529166,-1.41612 0,-0.15084 0.550122,-1.57177 1.222455,-3.15761 1.235392,-2.91382 2.514256,-6.60712 2.87655,-8.30732 0.108532,-0.50932 0.703183,-2.23573 1.321461,-3.83645 0.618279,-1.60073 1.332574,-3.80339 1.587368,-4.8948 0.254767,-1.0914 0.741098,-2.97168 1.080717,-4.1784 0.339619,-1.20672 0.552212,-2.36412 0.47244,-2.57201 -0.12954,-0.33759 0.140785,-2.95862 0.982081,-9.52146 0.483737,-3.77364 0.601318,-10.43383 0.262175,-14.85082 -0.248073,-3.23114 -0.252835,-4.60595 -0.02011,-5.80411 0.342503,-1.76322 0.759883,-5.33693 0.97192,-8.32173 0.215318,-3.03086 -0.709771,-5.76345 -1.978554,-5.84438 -1.540986,-0.0983 -4.64603,0.12694 -5.973524,0.43331 -1.46013,0.33698 -3.075543,0.24367 -4.392481,-0.25369 -0.218281,-0.0824 -1.594881,-0.24976 -3.059086,-0.37182 -2.273406,-0.18952 -2.93034,-0.35842 -4.497916,-1.15645 -1.00965,-0.51399 -2.49055,-1.21431 -3.290914,-1.55626 -0.800365,-0.34195 -1.971517,-0.98272 -2.602574,-1.42393 -2.240122,-1.56623 -2.577095,-1.74079 -4.408885,-2.28398 -4.091993,-1.21341 -8.863542,-4.1144 -8.863542,-5.38881 0,-0.31031 -0.10332,-0.67731 -0.229605,-0.81556 -0.126259,-0.13824 -0.304403,-0.65086 -0.395843,-1.13916 -0.134858,-0.7202 -0.09152,-0.85913 0.229605,-0.73591 0.39968,0.15337 0.557795,-0.37509 0.214842,-0.71804 -0.255085,-0.25509 -0.318955,-2.43676 -0.08252,-2.81931 0.143854,-0.23279 0.337132,-0.24211 0.724244,-0.0349 0.290433,0.15542 0.609521,0.20111 0.70911,0.10153 0.09959,-0.0996 0.1025,0.0237 0.0063,0.27389 -0.137583,0.35852 -0.02839,0.45496 0.51517,0.45496 0.687229,0 0.689795,0.008 0.693764,2.18281 0.0037,2.02435 0.289613,3.40231 0.927285,4.4686 0.412115,0.68917 3.028501,1.97448 5.643007,2.77216 1.323499,0.4038 2.69584,1.00258 3.049614,1.33062 2.350268,2.17931 8.22542,4.55844 11.675058,4.72781 0.436562,0.0214 1.872509,0.13401 3.190954,0.25016 1.890951,0.16658 2.916635,0.11081 4.856718,-0.26412 2.022952,-0.39093 2.841969,-0.42889 4.614254,-0.21387 1.446478,0.1755 2.213611,0.17346 2.333811,-0.006 0.234288,-0.3501 2.609003,-0.22327 3.075966,0.16428 0.919639,0.76323 1.397873,2.47032 1.397635,4.98895 0,5.86771 -0.08469,8.95173 -0.291544,10.68733 -0.121391,1.01864 -0.163513,3.57848 -0.09361,5.68854 0.0699,2.11005 0.102341,4.37224 0.0721,5.02708 -0.03024,0.65484 -0.03995,1.54781 -0.02143,1.98437 0.171265,4.06872 -0.249581,10.77871 -0.710856,11.33453 -0.158459,0.19093 -0.320516,1.18969 -0.360151,2.21948 -0.03963,1.02979 -0.153114,1.82252 -0.252201,1.76162 -0.09909,-0.0609 -0.264636,0.026 -0.367876,0.19302 -0.103241,0.16706 0,0.40906 0.230478,0.53778 0.504508,0.28234 0.436192,1.80202 -0.206428,4.59107 -0.60997,2.64739 -0.660876,2.77813 -1.081352,2.77813 -0.208465,0 -0.379042,0.11906 -0.379042,0.26458 0,0.14552 0.123164,0.26459 0.273685,0.26459 0.39325,0 0.03961,2.54515 -0.53303,3.83645 -0.258127,0.58209 -0.67257,1.59412 -0.920935,2.24896 -0.248391,0.65485 -0.643202,1.40399 -0.877358,1.66477 -0.272944,0.30395 -0.403066,0.85879 -0.362532,1.54574 0.03479,0.58938 -0.05424,1.21315 -0.197829,1.38616 -0.14359,0.17301 -0.314484,0.60917 -0.379783,0.96924 -0.0653,0.36007 -0.370946,1.08217 -0.679212,1.60465 -0.308266,0.52249 -0.626269,1.47434 -0.706676,2.11523 -0.199363,1.58893 -0.323294,1.89227 -0.682413,1.67031 -0.182854,-0.11301 -0.23622,-0.0748 -0.131736,0.0942 0.09657,0.15627 0.01058,0.4491 -0.191003,0.65072 -0.201612,0.20163 -0.424788,0.83631 -0.495908,1.4104 -0.14187,1.14513 -0.541523,2.35143 -1.296459,3.91307 -0.270457,0.55946 -0.491728,1.15653 -0.491728,1.32684 0,0.1703 -0.219842,0.7246 -0.488553,1.23176 -0.268711,0.50717 -0.563668,1.21978 -0.655452,1.58359 -0.09178,0.3638 -0.556551,1.09579 -1.032801,1.62665 -0.47625,0.53086 -1.22309,1.5835 -1.659652,2.3392 -1.464681,2.53538 -2.901368,4.13616 -6.226943,6.93814 -2.615141,2.20341 -7.232729,3.58776 -10.670381,3.199 z m 61.876496,-1.84904 c -2.57422,-0.58412 -6.12246,-2.18711 -8.54634,-3.86097 -2.66287,-1.83892 -6.22321,-6.42931 -7.44548,-9.59956 -0.33327,-0.86435 -0.88548,-2.22639 -1.22719,-3.02676 -0.63981,-1.49868 -1.15705,-4.90375 -1.36647,-8.99583 -0.11969,-2.3386 0.47903,-10.24068 1.14584,-15.12299 0.21182,-1.55093 0.44746,-4.03318 0.52363,-5.5161 0.0762,-1.48293 0.25228,-3.2961 0.39132,-4.02927 0.13904,-0.73317 0.25281,-2.13397 0.25281,-3.11289 0,-0.97892 0.12089,-2.41726 0.26863,-3.19632 0.46345,-2.44372 0.79568,-8.54834 0.91731,-16.85525 0.0645,-4.40717 0.1746,-8.10568 0.24458,-8.21891 0.07,-0.11323 0.25199,-1.4215 0.40447,-2.90728 0.15245,-1.48577 0.4114,-3.23438 0.57544,-3.88578 0.29726,-1.18051 0.30205,-1.18437 1.47484,-1.18437 0.64712,0 1.41936,0.12992 1.71609,0.28872 0.66186,0.35421 3.72089,1.50608 4.98197,1.87595 0.50933,0.14937 1.04511,0.36417 1.19063,0.47731 0.78248,0.60841 6.10283,0.9323 9.23885,0.56245 2.88788,-0.34059 7.16857,-1.40537 8.61357,-2.14255 1.20374,-0.61411 2.02109,-1.58025 2.26102,-2.67265 0.20804,-0.94721 -0.14034,-1.44576 -1.15163,-1.64802 -0.92805,-0.18561 -1.55577,-1.35434 -1.05288,-1.96029 0.43908,-0.52905 3.75923,-0.29936 4.42854,0.30636 0.2521,0.22814 0.85294,0.4148 1.33522,0.4148 0.69967,0 1.12319,-0.25488 2.09585,-1.26136 2.52799,-2.61591 4.19042,-5.14191 4.77176,-7.25055 0.37605,-1.36403 0.24722,-1.80684 -0.5257,-1.80684 -0.28247,0 -0.51356,-0.11821 -0.51356,-0.26268 0,-0.14447 -0.44648,-0.24969 -0.99219,-0.23381 -1.87917,0.0547 -4.28585,-1.43169 -4.6306,-2.85986 -0.16145,-0.66892 0.20783,-0.87698 1.55652,-0.87698 1.60461,0 2.9216,-1.03343 5.39496,-4.23334 1.24206,-1.60694 1.52024,-2.13853 2.11989,-4.05115 0.89617,-2.85845 0.57208,-5.15977 -0.82865,-5.88412 -0.41926,-0.21681 -0.85286,-0.4103 -0.9635,-0.42998 -0.11068,-0.0197 -0.58434,-0.19585 -1.05262,-0.39151 -0.46826,-0.19565 -1.08633,-0.35574 -1.37346,-0.35574 -0.28712,0 -0.59682,-0.121 -0.68823,-0.26889 -0.0914,-0.1479 -0.28583,-0.19496 -0.43206,-0.10458 -0.14624,0.0904 -0.52496,-0.0774 -0.84162,-0.37294 -0.31665,-0.2955 -0.93292,-0.62467 -1.36948,-0.73149 -0.91014,-0.22269 -1.71979,-1.03181 -1.71979,-1.71868 0,-0.54543 0.67876,-1.30133 1.1685,-1.30133 0.18534,0 0.54637,-0.23138 0.8023,-0.51417 0.25593,-0.2828 0.78039,-0.58522 1.16549,-0.67206 1.05712,-0.23838 3.12462,-1.85817 3.8613,-3.02516 0.35965,-0.56969 0.77438,-1.11027 0.92165,-1.20129 0.38645,-0.23884 1.34189,-2.49236 1.33713,-3.15377 -0.007,-1.01905 -0.85826,-1.73507 -2.26997,-1.91017 -0.5425,-0.0673 -1.11599,-0.2779 -1.27439,-0.46802 -0.2807,-0.33686 -2.28886,-1.02026 -2.71868,-0.9252 -0.11837,0.0262 -0.3938,-0.0128 -0.61208,-0.0866 -1.78131,-0.60225 -2.11667,-0.67303 -2.11667,-0.4467 0,0.1448 -0.23093,0.12732 -0.54607,-0.0413 -0.40534,-0.21693 -0.64402,-0.21098 -0.92604,0.0231 -0.2957,0.2454 -0.37997,0.24214 -0.37997,-0.0147 0,-0.22756 -0.25321,-0.27941 -0.81542,-0.16697 -0.44847,0.0897 -1.0514,0.0368 -1.33983,-0.11758 -0.37184,-0.19901 -0.62518,-0.19702 -0.87085,0.007 -0.19052,0.15813 -0.52805,0.2178 -0.75006,0.13261 -0.22201,-0.0852 -0.48525,-0.0229 -0.58497,0.13849 -0.1941,0.31408 -1.22034,0.10207 -1.48368,-0.3065 -0.16682,-0.25881 -1.56353,0.26302 -1.56353,0.58414 0,0.10198 -0.28453,0.13103 -0.6323,0.0645 -0.34779,-0.0665 -1.19636,0.12862 -1.88574,0.43356 -0.68937,0.30495 -1.58842,0.55444 -1.99789,0.55444 -0.40947,0 -0.81809,0.11907 -0.90802,0.26459 -0.0899,0.14552 -0.43035,0.26458 -0.75645,0.26458 -0.32612,0 -0.72236,0.12944 -0.88056,0.28764 -0.20714,0.20713 -0.33814,0.20595 -0.46802,-0.004 -0.12814,-0.20735 -0.38574,-0.1857 -0.88974,0.0748 -0.39018,0.20164 -1.24518,0.64065 -1.90003,0.97557 -0.65484,0.33492 -1.82022,0.93218 -2.58974,1.32724 -1.80652,0.92747 -2.84975,0.73383 -4.43653,-0.82349 -1.26953,-1.24594 -1.27122,-1.21506 0.1874,-3.43527 0.95906,-1.45982 1.98054,-3.47928 2.13006,-4.21108 0.0432,-0.21167 -0.0702,-0.40514 -0.25212,-0.42995 -0.1819,-0.0248 -0.3605,-0.0742 -0.39688,-0.10966 -0.23053,-0.22499 -3.9026,-0.18851 -3.9026,0.0388 0,0.16895 -0.395,0.20401 -1.0505,0.0933 -0.76118,-0.12859 -1.45471,-0.0263 -2.51794,0.37155 -0.80706,0.30196 -1.9119,0.55072 -2.4552,0.55279 -1.47992,0.006 -1.91386,0.0687 -1.91386,0.27822 0,0.10431 -0.26789,0.25618 -0.59532,0.3375 -0.32742,0.0813 -1.30968,0.34757 -2.18281,0.59165 -0.87312,0.24408 -2.12328,0.45931 -2.77812,0.47829 -0.82185,0.0238 -1.16888,0.14077 -1.12038,0.37758 0.0387,0.18868 -0.28877,0.46822 -0.72761,0.62119 -0.43881,0.15298 -0.79785,0.44508 -0.79785,0.64913 0,0.20405 -0.13758,0.37099 -0.30575,0.37099 -0.16817,0 -0.696012,0.29766 -1.172977,0.66146 -0.476964,0.3638 -1.117018,0.66146 -1.422347,0.66146 -0.305302,0 -0.619495,0.20836 -0.698182,0.46302 -0.171424,0.55472 -0.243311,0.67662 -1.420019,2.40822 -0.599334,0.88193 -1.008248,1.26122 -1.177396,1.09208 -0.142531,-0.14254 -0.482812,-0.25915 -0.756153,-0.25915 -0.565732,0 -2.572173,-1.91226 -2.572173,-2.45142 0,-0.19547 0.357188,-0.91863 0.79375,-1.60702 1.013989,-1.59888 1.01727,-2.02698 0.01561,-2.02698 -0.427963,0 -0.841851,0.10309 -0.919718,0.2291 -0.07787,0.126 -0.412326,0.18064 -0.743214,0.12142 -0.798063,-0.14284 -3.50311,0.75054 -3.545126,1.17083 -0.06837,0.68377 -0.122793,0.71472 -0.404363,0.23 -0.268155,-0.46166 -0.357081,-0.42343 -1.231212,0.52917 -0.518186,0.56472 -1.128659,1.0371 -1.356545,1.04972 -1.024678,0.0568 -2.085843,0.4566 -1.975432,0.74431 0.06646,0.17322 -0.295328,0.46213 -0.81325,0.64941 -0.513159,0.18556 -0.933,0.44873 -0.933,0.58483 0,0.1361 -0.126101,0.24746 -0.280194,0.24746 -0.15412,0 -0.214974,-0.10553 -0.135281,-0.2345 0.07972,-0.12898 -0.07223,-0.2913 -0.337635,-0.36071 -0.387456,-0.10131 -0.459026,-0.003 -0.363061,0.49909 0.09417,0.49268 0.0045,0.62529 -0.422302,0.62529 -0.332449,0 -1.075452,0.6135 -1.922621,1.5875 -0.759407,0.87312 -1.467009,1.5875 -1.572419,1.5875 -0.324035,0 -2.110237,1.73884 -2.110237,2.0543 0,0.16332 -0.21381,0.45252 -0.475113,0.64267 -0.261329,0.19015 -0.747289,0.79222 -1.079923,1.33792 -0.332634,0.5457 -0.717868,0.99219 -0.856086,0.99219 -0.138218,0 -0.329644,0.20836 -0.425371,0.46302 -0.09573,0.25466 -0.568245,1.08238 -1.050025,1.83937 -0.48178,0.757 -0.875982,1.4884 -0.875982,1.62534 0,0.13694 -0.169598,0.31407 -0.376873,0.39361 -0.207301,0.0795 -0.578035,0.56853 -0.823913,1.08664 -0.24585,0.51811 -0.565255,0.94202 -0.709744,0.94202 -0.144516,0 -0.19185,0.18478 -0.105172,0.41062 0.08665,0.22583 0.06395,0.35275 -0.05048,0.28204 -0.114432,-0.0707 -0.36232,-0.0332 -0.550889,0.0833 -0.270324,0.16707 -0.203993,0.55567 0.313717,1.83734 0.382825,0.94783 0.551074,1.69062 0.403569,1.78179 -0.139118,0.086 -0.192379,0.31418 -0.118348,0.5071 0.07403,0.19292 -0.0336,0.49036 -0.239184,0.66097 -0.292258,0.24255 -0.474054,0.20991 -0.833675,-0.1497 -0.252942,-0.25295 -0.850451,-0.62308 -1.327785,-0.82253 -0.785734,-0.3283 -0.916385,-0.3141 -1.38049,0.14998 -0.281914,0.28193 -1.049761,0.59315 -1.706298,0.6916 -0.656537,0.0984 -1.397953,0.4047 -1.647587,0.68053 -0.607166,0.67093 -0.761101,0.63277 -0.809414,-0.20068 -0.03088,-0.53294 0.02302,-0.61248 0.223415,-0.33054 0.204734,0.28786 0.228732,0.26238 0.106812,-0.11337 -0.08649,-0.26657 -0.157242,-0.55291 -0.157242,-0.63632 0,-0.0834 -0.23532,0.0613 -0.522923,0.32158 -0.287602,0.26029 -0.464476,0.56782 -0.393038,0.68342 0.07144,0.11559 -0.109961,0.2863 -0.403119,0.37934 -0.293159,0.093 -0.533003,0.28724 -0.533003,0.43154 0,0.1443 -0.119063,0.18878 -0.264584,0.0988 -0.414258,-0.25602 -0.309827,0.31385 0.139938,0.76361 0.222515,0.22249 0.594202,0.33175 0.826003,0.2428 0.339064,-0.13011 0.324617,-0.0488 -0.07379,0.41572 -0.272415,0.3176 -0.761656,1.25864 -1.087226,2.0912 l -0.591979,1.51375 0.03249,-1.05833 c 0.05972,-1.94634 0.02037,-2.0567 -0.670375,-1.88332 -0.908367,0.22798 -1.239229,-0.30181 -0.960464,-1.53788 0.210503,-0.93331 0.614257,-1.45904 1.128633,-1.46954 0.109141,-0.002 0.198438,0.13729 0.198438,0.31003 0,0.17275 0.363643,-0.0343 0.808064,-0.4601 0.52742,-0.50529 0.762608,-0.94804 0.677174,-1.27474 -0.07199,-0.27531 0.01085,-0.63381 0.184124,-0.79667 0.866352,-0.81438 3.139784,-1.48122 5.077513,-1.48932 0.841772,-0.004 1.192371,-0.0883 0.96393,-0.23298 -0.250243,-0.15856 -0.270272,-0.28228 -0.06615,-0.40844 0.161079,-0.0995 0.292841,-0.3975 0.292841,-0.66213 0,-0.26464 0.164068,-0.61732 0.364569,-0.78373 0.200528,-0.16641 0.420079,-0.92513 0.487919,-1.68604 0.06784,-0.76091 0.314827,-1.80019 0.548851,-2.30951 0.728054,-1.58452 2.057771,-3.82274 2.45372,-4.13021 0.208042,-0.16157 0.378275,-0.44606 0.378275,-0.63222 0,-0.18615 0.470429,-0.82786 1.045421,-1.42603 0.574993,-0.59817 1.676321,-1.7444 2.447396,-2.54718 2.041313,-2.1252 5.244068,-5.0227 5.551858,-5.0227 0.146024,0 0.970016,-0.53578 1.831076,-1.19062 0.86106,-0.65485 1.726776,-1.19063 1.923811,-1.19063 0.197036,0 0.660956,-0.23812 1.030976,-0.52916 0.369993,-0.29105 0.847725,-0.52917 1.061614,-0.52917 0.213889,0 0.543983,-0.18687 0.733531,-0.41527 0.189547,-0.2284 0.56859,-0.3567 0.842327,-0.28512 0.278183,0.0727 0.558642,-0.0287 0.6359,-0.23002 0.07601,-0.19809 0.475509,-0.43425 0.887757,-0.5248 0.412247,-0.0905 0.820023,-0.3483 0.906171,-0.57278 0.09091,-0.2369 0.32803,-0.34239 0.565124,-0.2514 0.224684,0.0862 0.682334,-0.0226 1.017005,-0.24195 0.71292,-0.46712 4.900692,-1.03355 6.146562,-0.83138 0.472969,0.0768 1.211501,0.39947 1.641184,0.71714 l 0.781235,0.57759 1.545749,-0.57833 c 0.85016,-0.31809 1.666267,-0.67553 1.81356,-0.7943 0.51721,-0.4171 3.93962,-1.45256 8.39555,-2.54011 0.83224,-0.20312 1.85959,-0.30003 2.28301,-0.21535 0.44532,0.0891 0.84685,0.0294 0.9525,-0.14158 0.10046,-0.16256 0.29871,-0.22383 0.44055,-0.13617 0.14185,0.0877 0.41471,0.0292 0.6064,-0.12984 0.38592,-0.32029 8.30324,-0.45143 10.07936,-0.16695 1.70963,0.27384 3.12393,0.74738 3.89789,1.30513 0.65289,0.47051 0.70922,0.63815 0.58177,1.73145 -0.17698,1.51833 -1.10813,3.52391 -1.5271,3.28914 -0.20537,-0.1151 -0.21931,-0.0832 -0.0421,0.0965 0.3724,0.37779 1.98437,0.6473 1.98437,0.33177 0,-0.14188 0.29062,-0.25797 0.64585,-0.25797 0.3552,0 0.72332,-0.12534 0.81798,-0.27855 0.0947,-0.1532 0.31007,-0.22982 0.47864,-0.17028 0.16856,0.0596 0.60415,-0.005 0.96795,-0.14266 0.85764,-0.32535 1.14496,-0.37691 4.7625,-0.85457 3.94554,-0.52096 8.37157,-0.51422 11.14941,0.017 1.21663,0.23266 2.49653,0.47612 2.84424,0.54104 0.34772,0.0649 1.04688,0.29127 1.55369,0.50303 0.50678,0.21176 1.18999,0.38501 1.5182,0.38501 0.32822,0 0.74496,0.17859 0.92612,0.39687 0.18116,0.21829 0.56076,0.39688 0.84355,0.39688 1.07926,0 2.13172,0.82277 3.94012,3.08022 1.49138,1.86172 1.61854,2.62226 0.73335,4.38611 -0.95914,1.91123 -2.40194,4.16826 -3.00347,4.69848 -2.49553,2.19964 -2.64033,2.36994 -2.37805,2.79654 0.14729,0.23954 0.95144,0.71366 1.78699,1.0536 1.64285,0.66839 1.70654,0.71918 3.17619,2.53313 0.9247,1.1413 0.98701,1.33261 0.99079,3.04271 0.003,1.00366 0.1129,1.99685 0.2459,2.2071 0.1642,0.25952 0.0773,0.61334 -0.27061,1.10195 -0.28184,0.39582 -0.58711,1.26431 -0.67834,1.92996 -0.0912,0.66565 -0.33536,1.35092 -0.54248,1.52282 -0.20711,0.1719 -0.53988,0.70333 -0.73943,1.18096 -0.19957,0.47763 -0.72628,1.26101 -1.17049,1.74085 -0.44421,0.47984 -1.05664,1.19995 -1.36101,1.60023 -0.42876,0.5639 -0.69798,0.6915 -1.19547,0.56663 -0.3905,-0.098 -0.64212,-0.0462 -0.64212,0.13211 0,0.1613 0.11906,0.29326 0.26458,0.29326 0.14553,0 0.26459,0.16695 0.26459,0.371 0,0.20404 0.36917,0.49969 0.82039,0.65699 0.45125,0.15729 1.28469,0.75024 1.85208,1.31767 0.87244,0.87243 1.03169,1.2036 1.03169,2.14555 0,0.71324 -0.19031,1.35583 -0.52916,1.7866 -0.29104,0.37 -0.52917,0.8535 -0.52917,1.07444 0,0.79908 -1.56826,3.69704 -2.36225,4.36512 -0.44702,0.37614 -0.81275,0.81064 -0.81275,0.96555 0,0.15492 -0.10221,0.28167 -0.22712,0.28167 -0.12493,0 -0.65034,0.63743 -1.16763,1.41651 -0.91279,1.37474 -2.60353,2.5945 -3.27737,2.36439 -0.16856,-0.0576 -0.38415,0.021 -0.47905,0.1746 -0.11756,0.19018 -0.33108,0.19445 -0.66942,0.0134 -0.44186,-0.23647 -0.51589,-0.13866 -0.66929,0.88438 -0.12259,0.8173 -0.52936,1.59125 -1.40537,2.6738 -1.39692,1.72628 -2.51251,2.39736 -4.41409,2.65534 -0.72419,0.0983 -1.85248,0.34485 -2.50733,0.54801 -0.65484,0.20315 -2.08359,0.39557 -3.175,0.4276 -1.0914,0.032 -2.13627,0.17107 -2.3219,0.30898 -0.18563,0.13792 -1.92955,0.23195 -3.87535,0.20895 -3.24811,-0.0384 -3.69023,-0.10466 -5.39885,-0.80922 -1.02354,-0.42208 -2.55384,-0.90954 -3.40066,-1.08324 -0.84683,-0.17371 -1.65876,-0.41063 -1.80428,-0.5265 -0.14552,-0.11586 -1.702302,-0.29134 -1.19062,-0.30205 l -0.92604,-0.0914 -0.0507,1.45521 c -0.288527,8.28138 -0.31096,11.34558 -0.0879,12.03523 0.16986,0.52508 0.16277,1.56446 -0.0206,3.04602 -0.31504,2.54329 -0.45336,4.16963 -0.63016,7.40833 -0.0675,1.23693 -0.26191,3.43958 -0.43196,4.89479 -0.17005,1.45521 -0.29623,3.17426 -0.2804,3.82011 0.0159,0.64585 -0.11293,1.34501 -0.2861,1.55369 -0.17319,0.20868 -0.33213,0.93041 -0.35319,1.60385 -0.0212,0.67344 -0.1868,1.72771 -0.36827,2.34283 -0.18151,0.61512 -0.23778,1.3295 -0.12505,1.5875 0.11272,0.25801 0.17794,0.58264 0.14497,0.7214 -0.0978,0.41135 -0.30681,3.01809 -0.44656,5.56854 -0.0718,1.30968 -0.24353,2.79796 -0.38169,3.30729 -0.13814,0.50932 -0.25186,2.0813 -0.25265,3.49328 0,1.41198 -0.13637,2.86327 -0.30123,3.22509 -0.23699,0.52017 -0.20931,0.88382 0.13229,1.73759 0.47575,1.189 0.55761,1.67722 0.18158,1.08284 -0.43248,-0.6836 -0.63158,0.94347 -0.31556,2.57871 0.16033,0.82969 0.30832,2.28243 0.32885,3.22832 0.0235,1.08237 0.21563,2.06302 0.51842,2.64583 0.43439,0.83609 0.69758,1.9573 0.85397,3.63802 0.0305,0.32743 0.14269,0.59532 0.2494,0.59532 0.10668,0 0.50786,0.61946 0.89154,1.37658 1.06034,2.09251 3.37272,5.26934 4.82274,6.62566 2.57318,2.4069 6.40808,3.76757 9.94762,3.52954 3.12105,-0.20989 4.05281,-0.005 4.25937,0.9352 0.0921,0.4192 0.30083,0.76218 0.46389,0.76218 0.75968,0 -0.39655,0.59124 -1.82202,0.93169 -1.4699,0.35105 -5.15956,0.47348 -6.32172,0.20977 z M 23.034776,153.68987 c 0,-0.12433 -0.316124,-0.0973 -0.507126,-0.0209 -0.211059,0.0845 -0.148379,0.14716 0.159861,0.15985 0.278897,0.0115 0.347265,-0.0146 0.347265,-0.13896 z m -49.031579,109.48782 c 0.737927,1.47586 -2.284518,-1.59758 -2.065866,-1.96266 0.253259,-0.42291 1.011872,-0.98067 2.221177,-1.63309 1.338395,-0.72206 9.686713,-6.27517 11.241273,-7.47744 0.725673,-0.56122 2.571141,-2.22967 4.101042,-3.70767 1.5299,-1.478 3.187805,-3.07034 3.684217,-3.53854 0.894159,-0.84332 0.897572,-0.85529 0.363855,-1.28148 -0.705459,-0.56334 -0.946415,-1.66786 -0.629973,-2.88774 0.140123,-0.54013 0.389122,-1.87502 0.553349,-2.96643 0.164201,-1.09141 0.427752,-2.67521 0.585656,-3.51956 0.401558,-2.14731 0.16711,-2.29971 -2.089944,-1.35858 -0.991209,0.41331 -2.216785,1.02512 -2.723489,1.3596 -0.50673,0.33447 -1.034679,0.60812 -1.173242,0.60812 -0.138562,0 -0.735991,0.22773 -1.327652,0.50607 -1.119955,0.52688 -2.652845,0.93071 -5.250339,1.38316 -1.499024,0.26112 -1.553078,0.24885 -2.77794,-0.63098 -0.68707,-0.49351 -1.280531,-1.0678 -1.318816,-1.27621 -0.04958,-0.26975 0.941282,-0.70947 3.439425,-1.52635 5.084842,-1.66272 13.931292,-6.20706 14.498611,-7.44781 0.165418,-0.36176 0.414761,-2.20723 0.554117,-4.10104 0.13933,-1.89381 0.34544,-4.04442 0.457994,-4.77912 0.112554,-0.73471 0.158327,-1.47478 0.101706,-1.64459 -0.05659,-0.16982 -0.64143,-0.57772 -1.299634,-0.90644 -1.156308,-0.57748 -2.819294,-2.29566 -3.530388,-3.64754 -0.626639,-1.19129 -0.759672,-2.45452 -0.500221,-4.74969 0.361579,-3.19884 0.648758,-4.07797 1.768184,-5.41299 0.54102,-0.64522 1.299474,-1.63315 1.685448,-2.19541 0.828967,-1.20757 2.367836,-2.03144 4.672225,-2.5014 1.458171,-0.29739 1.961197,-0.28063 3.96875,0.13217 2.599558,0.53453 3.718481,0.98877 5.134292,2.08434 0.540809,0.41849 1.398905,0.82833 1.906879,0.91076 1.484842,0.24096 1.845151,0.84885 1.655763,2.79355 -0.08872,0.91102 -0.275379,2.01359 -0.414761,2.45015 -0.139383,0.43656 -0.569913,1.80578 -0.956734,3.04271 -1.308285,4.18358 -3.992271,6.87248 -7.684823,7.69883 -1.41343,0.31631 -1.482725,0.36952 -1.349401,1.03612 0.07728,0.38647 -0.03114,1.0336 -0.240983,1.43807 -0.518054,0.99854 -0.544512,5.96656 -0.03178,5.96656 0.192352,0 0.876961,-0.17779 1.521354,-0.39509 2.061369,-0.69514 4.958292,-0.8692 6.538622,-0.39287 0.767053,0.23121 1.311963,0.50308 1.210865,0.60417 -0.101071,0.10109 -0.03659,0.18379 0.143299,0.18379 0.187854,0 0.291094,0.2534 0.242543,0.59531 -0.06456,0.45444 -0.258736,0.59532 -0.820632,0.59532 -0.404839,0 -0.821557,0.131 -0.926041,0.29112 -0.328057,0.50271 -1.237642,0.86263 -3.229637,1.27798 -1.060185,0.22106 -2.186225,0.57135 -2.50227,0.77844 -0.316045,0.20708 -1.103419,0.55403 -1.74969,0.771 -1.082966,0.36357 -1.202452,0.49528 -1.524794,1.68068 -0.49395,1.81647 -0.627115,3.47496 -0.324458,4.0405 0.142293,0.26587 0.17563,0.5665 0.07408,0.66805 -0.323612,0.3236 -0.821716,2.30984 -0.675084,2.69194 0.07766,0.2024 0.03622,0.36799 -0.09207,0.36799 -0.128297,0 -0.446961,1.0418 -0.708158,2.31511 -0.261196,1.27331 -0.585681,2.81431 -0.721095,3.42445 -0.331152,1.49237 -0.313955,1.66878 0.162878,1.66878 0.394626,0 1.699577,2.39268 1.705027,3.12624 0.0026,0.19147 0.144119,0.60819 0.317077,0.92605 0.172958,0.31785 0.339222,0.75651 0.369438,0.97479 0.03024,0.21828 0.305435,1.07851 0.611558,1.91162 0.306123,0.83311 0.556604,1.7413 0.556604,2.01821 0,0.73471 1.427903,3.67952 2.729759,5.62965 0.459449,0.68822 0.455454,0.70363 -0.359119,1.38906 -1.119849,0.94228 -1.901296,0.87674 -3.165581,-0.26547 -1.061376,-0.95889 -2.839482,-4.25248 -3.839131,-7.1112 -0.254423,-0.7276 -0.565996,-1.43602 -0.692388,-1.57427 -0.126391,-0.13824 -0.231616,-0.4359 -0.233838,-0.66145 -0.0026,-0.22556 -0.11221,-0.58104 -0.244423,-0.78997 -0.196082,-0.3099 -0.315039,-0.31788 -0.645821,-0.0434 -0.222991,0.18507 -0.528347,0.26053 -0.678577,0.16768 -0.168566,-0.10417 -0.206454,0.005 -0.09893,0.28521 0.103294,0.26916 0.06794,0.38834 -0.08678,0.29272 -0.143536,-0.0887 -0.466196,0.18605 -0.716968,0.6106 -0.386715,0.65464 -4.8963,4.23627 -7.049453,5.59887 -0.363802,0.23022 -0.947578,0.67044 -1.297252,0.97827 -0.349699,0.30782 -0.735621,0.55967 -0.85762,0.55967 -0.121973,0 -0.74684,0.38695 -1.388533,0.8599 -2.085023,1.53669 -4.384967,2.88002 -6.044433,3.53035 -1.903201,0.74586 -3.266112,-0.89289 -2.738306,0.16272 z M 0.601311,211.64128 c 1.009438,-0.29976 1.759558,-0.77289 2.671895,-1.68521 1.425575,-1.4256 2.197417,-2.8241 3.366558,-6.10009 1.348872,-3.77954 1.393666,-3.51021 -0.725435,-4.36328 -1.576123,-0.63451 -2.052187,-0.71383 -3.36087,-0.56002 -3.85736,0.45336 -6.15606,3.42391 -6.839902,8.83908 -0.208651,1.65231 0.162983,2.82502 1.169273,3.68967 0.818965,0.70368 1.795515,0.75092 3.718481,0.17985 z M -129.47768,32.696017 c -2.2597,-0.903497 -2.83348,-1.822866 -1.75909,-2.81858 0.38365,-0.355555 0.85875,-0.646462 1.05578,-0.646462 0.19703,0 0.35824,-0.12201 0.35824,-0.271132 0,-0.149121 0.26789,-0.37533 0.59531,-0.502681 0.32743,-0.127355 1.04709,-0.541126 1.59926,-0.919494 0.55216,-0.37837 1.08012,-0.687943 1.17323,-0.687943 0.0931,0 0.65337,-0.228047 1.24502,-0.506772 2.87973,-1.35664 3.72855,-1.574946 6.58594,-1.693807 2.28897,-0.09522 2.89286,-0.04493 3.00616,0.250333 0.078,0.203216 -0.0204,0.565925 -0.21854,0.806019 -0.2815,0.341029 -0.28798,0.460883 -0.0296,0.547843 0.38102,0.128241 0.4534,0.860968 0.085,0.860968 -0.13513,0 -0.40302,0.150936 -0.59531,0.335415 -0.1923,0.184478 -0.85212,0.558157 -1.46627,0.830397 -0.61415,0.27224 -1.31467,0.713809 -1.55671,0.981263 -0.24205,0.267454 -0.54438,0.42182 -0.67186,0.343032 -0.12748,-0.07878 -0.54434,0.102616 -0.92636,0.403117 -0.38202,0.300497 -0.86986,0.546359 -1.08409,0.546359 -0.24948,0 -0.33069,0.15326 -0.2259,0.426333 0.11261,0.293468 0.0488,0.382273 -0.20483,0.284954 -0.36891,-0.141563 -1.68637,0.242909 -2.68028,0.78218 -0.29104,0.157911 -0.68554,0.231232 -0.87666,0.162933 -0.19113,-0.0683 -0.49278,0.07451 -0.67035,0.317349 -0.44408,0.607309 -1.48087,0.671063 -2.73813,0.168376 z"
       id="path526" />
  </g>
</svg>
