<?xml version="1.0" encoding="UTF-8" standalone="no"?>
<!-- Created with Inkscape (http://www.inkscape.org/) -->

<svg
   width="94.470688mm"
   height="66.094025mm"
   viewBox="0 0 94.470688 66.094025"
   version="1.1"
   id="svg18"
   xmlns="http://www.w3.org/2000/svg"
   xmlns:svg="http://www.w3.org/2000/svg">
  <defs
     id="defs15" />
  <g
     id="layer1"
     transform="translate(-20.014305,-71.750002)">
    <path
       style="fill:#041;stroke-width:0.264583"
       d="m 20.251857,137.55671 c -0.434637,-0.2528 -0.349219,-0.42079 0.904028,-1.77789 0.761209,-0.82429 1.840405,-1.99347 2.398215,-2.59817 0.557811,-0.6047 1.014201,-1.27473 1.014201,-1.48896 0,-0.49747 0.642485,-1.04016 0.926658,-0.78272 0.119084,0.10787 0.1368,0.0569 0.03937,-0.11326 -0.09743,-0.17017 -0.02426,-0.46783 0.162602,-0.66146 0.271952,-0.28181 2.149872,-2.67843 3.174008,-4.05069 0.110877,-0.14857 0.527595,-0.70662 0.926042,-1.24011 0.398444,-0.5335 1.200695,-1.65332 1.782779,-2.4885 0.582083,-0.83517 1.332547,-1.76509 1.6677,-2.0665 0.33515,-0.3014 1.040027,-1.19682 1.566389,-1.98982 0.526359,-0.79299 2.926175,-3.35563 5.332921,-5.69475 7.254632,-7.05078 8.039161,-7.8745 9.665039,-10.14785 1.680509,-2.34974 2.380337,-2.776822 3.426719,-2.09121 0.566169,0.37097 0.602152,0.51841 0.410718,1.68282 -0.115398,0.70192 -0.216344,2.22872 -0.224324,3.39288 l -0.0145,2.11667 0.972738,-1.05833 c 1.553884,-1.69063 3.787224,-4.44969 3.787224,-4.67874 0,-0.26076 2.307868,-3.314471 2.677679,-3.543026 0.148402,-0.09172 0.355449,-0.39824 0.460108,-0.681159 0.272193,-0.735807 7.346064,-8.592537 17.499714,-19.436374 1.382448,-1.47642 3.267816,-3.532428 4.189704,-4.568907 1.776254,-1.997069 2.339657,-2.23431 3.21863,-1.355338 0.401637,0.401646 0.532844,0.895788 0.544406,2.05052 0.0085,0.836745 0.235559,2.295261 0.504772,3.241146 1.605307,5.639742 2.509362,8.936217 3.162671,11.5321 0.406003,1.613225 1.343237,4.827913 2.082774,7.14375 0.739536,2.315834 1.655207,5.877488 2.034831,7.914778 0.37965,2.03729 0.878311,4.61585 1.108154,5.73013 l 0.41791,2.02597 1.547786,-0.0794 c 2.290974,-0.11759 2.998837,-0.65875 4.598987,-3.51591 0.75584,-1.3496 1.65611,-2.71644 2.00065,-3.03741 l 0.6264,-0.58359 -1.14692,-0.19579 c -1.3172,-0.22487 -2.40117,-0.85017 -2.40117,-1.38514 0,-0.50927 1.80716,-0.77341 3.81807,-0.55806 1.24762,0.13361 1.72011,0.0877 1.95003,-0.1893 0.3251,-0.39171 0.33176,-0.49417 0.30239,-4.643907 -0.0185,-2.629847 0.0111,-2.775601 0.82236,-4.039928 1.23134,-1.918873 1.90526,-2.35992 3.6059,-2.35992 1.16715,0 1.55151,0.119952 2.081,0.649433 0.78465,0.784651 0.79155,0.956093 0.12462,3.093009 -0.6436,2.06217 -1.79912,3.840204 -3.06848,4.72156 -0.52605,0.365273 -1.10583,0.961783 -1.28839,1.325583 -1.39428,2.77856 -1.34819,2.53933 -0.85778,4.45304 0.48101,1.877 0.57433,3.11413 0.24934,3.30549 -0.49794,0.2932 -1.46201,-0.43037 -1.8711,-1.40435 -0.24419,-0.58142 -0.52862,-1.05835 -0.63201,-1.05982 -0.24395,-0.004 -2.93341,3.63291 -3.50645,4.74101 -0.42624,0.82427 -0.42267,0.85788 0.10531,0.99595 0.8301,0.21707 0.67892,1.25562 -0.3487,2.39552 -0.49233,0.54612 -1.72947,2.09587 -2.7492,3.44389 -1.841849,2.43477 -1.852433,2.45833 -1.605841,3.57187 0.255932,1.1557 2.278411,8.11782 3.162961,10.88808 0.27485,0.86077 0.49972,1.70552 0.49972,1.87722 0,0.5061 -0.86778,1.14167 -1.68518,1.23424 -0.693504,0.0785 -0.790421,-0.017 -1.120595,-1.10464 -0.198781,-0.65485 -0.491913,-1.905 -0.651404,-2.77813 -0.159491,-0.87312 -0.446193,-1.94468 -0.63709,-2.38125 -0.190924,-0.43656 -0.663787,-2.10343 -1.050846,-3.70416 -0.387059,-1.60073 -0.823886,-3.26761 -0.970756,-3.70417 -0.14687,-0.43656 -0.316363,-1.0335 -0.376688,-1.32653 -0.06033,-0.29302 -0.292179,-1.12646 -0.515196,-1.85208 -0.223044,-0.72562 -0.767345,-3.16478 -1.209596,-5.42035 -0.442224,-2.25557 -1.029679,-5.05354 -1.305428,-6.21771 -0.275748,-1.16416 -0.693711,-2.9501 -0.928793,-3.96875 -0.660691,-2.86289 -1.753685,-6.828366 -2.023719,-7.342184 -0.230849,-0.439288 -0.28014,-0.439595 -0.961628,-0.006 -0.395049,0.251362 -1.650682,1.20882 -2.790269,2.127684 -1.264841,1.019842 -2.244011,1.623012 -2.513542,1.548347 -0.242861,-0.06727 -0.71628,-0.20148 -1.052036,-0.298239 -0.648944,-0.187012 -1.109319,-1.071924 -1.109319,-2.132245 0,-0.785288 -0.289613,-0.818324 -0.933767,-0.106524 -1.594962,1.762411 -3.882576,2.086113 -4.614175,0.652915 -0.222859,-0.436562 -0.431509,-0.839914 -0.463682,-0.896339 -0.03217,-0.05643 -0.702496,0.234592 -1.489605,0.646702 -1.333738,0.698291 -1.506061,0.72684 -2.532115,0.419431 -1.140725,-0.341776 -1.158214,-0.365649 -2.304812,-3.146356 -0.255032,-0.618464 -0.600498,-1.124479 -0.767689,-1.124479 -0.38481,0 -3.359652,3.086671 -3.824975,3.96875 -0.191902,0.363802 -0.960999,1.375833 -1.709079,2.248958 -0.74808,0.873129 -1.830993,2.287859 -2.406478,3.143859 -1.543455,2.29579 -4.183563,5.30837 -5.708195,6.51353 -1.017003,0.8039 -1.574721,1.05824 -2.320438,1.05824 -1.377911,0 -1.616658,-0.35947 -1.616658,-2.43416 0,-0.98954 -0.07157,-1.79917 -0.159038,-1.79917 -0.08747,0 -1.129268,0.93608 -2.315104,2.08018 -1.185836,1.1441 -3.559998,3.43606 -5.275914,5.09323 -1.715918,1.65718 -3.226583,3.05028 -3.357033,3.09577 -0.13045,0.0455 -0.92061,0.93847 -1.755913,1.98438 -0.835303,1.04591 -1.944013,2.39149 -2.463803,2.99018 -1.384204,1.59433 -1.871112,2.28556 -1.871112,2.6563 0,0.18146 -0.153045,0.42513 -0.3401,0.5415 -0.406834,0.2531 -2.305733,2.57431 -2.305733,2.81852 0,0.0942 -0.20836,0.3923 -0.463021,0.66255 -0.254662,0.27025 -0.87974,1.05291 -1.389063,1.73926 -2.808345,3.78439 -6.880553,8.09404 -7.634912,8.08009 -0.239183,-0.004 -0.650875,-0.13368 -0.914865,-0.28723 z m 78.762947,-22.19802 c 0.818912,-1.02069 1.488916,-1.9144 1.488916,-1.98604 0,-0.0716 -0.49411,0.2277 -1.098021,0.66517 -0.632116,0.45789 -1.430496,0.79541 -1.881531,0.79541 -0.761815,0 -0.778352,0.0274 -0.597747,0.99017 0.178911,0.95371 0.341313,1.39108 0.516493,1.39108 0.04564,0 0.752978,-0.83511 1.57189,-1.85579 z m -1.950667,-2.11701 c 0.352769,-0.23158 0.352769,-0.28948 0,-0.52106 -0.594863,-0.39051 -0.79375,-0.32523 -0.79375,0.26053 0,0.58576 0.198887,0.65103 0.79375,0.26053 z M 111.42419,95.266519 c 0.37017,-0.950603 0.61732,-1.818537 0.54922,-1.928744 -0.54679,-0.884724 -2.19768,1.236716 -2.40689,3.092932 -0.13367,1.185889 -0.13348,1.186212 0.52544,0.875255 0.4573,-0.215813 0.86526,-0.840351 1.33223,-2.039443 z M 85.202601,96.16937 c 0.388382,-0.09248 1.221819,-0.734295 1.852083,-1.426242 0.630238,-0.691943 1.295638,-1.30684 1.478677,-1.366435 0.328904,-0.107101 0.319485,-0.16238 -0.582136,-3.414294 -0.06051,-0.218282 -0.544592,-2.06375 -1.07569,-4.101042 -0.531125,-2.037292 -1.209675,-4.597135 -1.507861,-5.688542 -0.298211,-1.091406 -0.678788,-2.607167 -0.845714,-3.36836 l -0.303503,-1.383982 -3.168306,3.48556 c -1.742573,1.917059 -4.977316,5.420034 -7.188307,7.784391 l -4.019999,4.298828 1.107228,2.39699 c 0.608965,1.318344 1.193615,2.39699 1.299184,2.39699 0.105595,0 0.79322,-0.534009 1.528101,-1.186688 2.160852,-1.919126 3.375713,-1.912109 3.806005,0.02199 0.366659,1.648042 0.444473,1.834322 0.644445,1.542846 0.403596,-0.588272 3.316711,-2.771849 3.889825,-2.915692 0.335889,-0.0843 0.867463,-0.01587 1.181285,0.152079 0.517261,0.276831 0.553456,0.442273 0.387456,1.770933 -0.169042,1.352857 -0.144886,1.454161 0.313981,1.317205 0.273394,-0.0816 0.814838,-0.224039 1.203246,-0.316527 z"
       id="path495" />
  </g>
</svg>
