<?xml version="1.0" encoding="UTF-8" standalone="no"?>
<!-- Created with Inkscape (http://www.inkscape.org/) -->

<svg
   width="74.848137mm"
   height="72.832718mm"
   viewBox="0 0 74.848137 72.832718"
   version="1.1"
   id="svg18"
   xmlns="http://www.w3.org/2000/svg"
   xmlns:svg="http://www.w3.org/2000/svg">
  <defs
     id="defs15" />
  <g
     id="layer1"
     transform="translate(89.440648,-150.11149)">
    <path
       style="fill:#dab;stroke-width:0.264583"
       d="m -60.693681,222.87521 c -0.927359,-0.26194 -0.431718,-0.84772 1.176925,-1.39097 2.413124,-0.81492 3.503274,-1.70458 5.203595,-4.24659 1.596152,-2.38627 2.666868,-4.89928 4.626507,-10.85859 1.813486,-5.51484 2.289254,-8.82821 2.286783,-15.92569 -7.94e-4,-2.37321 0.13697,-5.5121 0.306218,-6.97531 0.505706,-4.37202 0.158287,-4.93744 -2.894258,-4.71036 -3.682786,0.27397 -6.358232,-0.39414 -10.110458,-2.52478 -0.509323,-0.28921 -1.839208,-0.93882 -2.955303,-1.44358 -2.393987,-1.0827 -2.970276,-1.78596 -2.903794,-3.54361 0.05546,-1.46638 0.09712,-1.52213 0.806249,-1.07927 0.431054,0.2692 0.554932,0.61453 0.554932,1.54696 0,1.6206 0.475297,2.19286 2.427742,2.92303 0.910011,0.34032 2.313625,1.01625 3.119142,1.50206 2.647831,1.59692 5.013711,1.95656 10.554592,1.60438 3.777533,-0.24009 3.514492,-1.00113 3.360459,9.72264 -0.07006,4.87716 -0.187605,8.96503 -0.261223,9.08414 -0.07362,0.11912 -0.248216,1.43205 -0.387995,2.91762 -0.139782,1.48558 -0.360106,2.84254 -0.489612,3.01547 -0.129505,0.17294 -0.25527,0.67162 -0.279477,1.10818 -0.02421,0.43656 -0.324106,1.50812 -0.666445,2.38125 -0.342339,0.87312 -0.826114,2.24234 -1.075058,3.04271 -0.248944,0.80036 -0.612198,1.87192 -0.807233,2.38125 -0.195035,0.50932 -0.684427,1.81054 -1.087538,2.89161 -1.267066,3.39802 -4.125564,6.898 -6.469854,7.92178 -1.258348,0.54953 -3.259431,0.87471 -4.034896,0.65567 z m 27.715105,-1.8075 c -3.337465,-1.65808 -5.662364,-5.13283 -6.259502,-9.35532 -0.311965,-2.20597 -0.281639,-2.74777 0.727972,-13.00624 0.207666,-2.11006 0.554376,-7.11068 0.770469,-11.1125 0.216093,-4.00183 0.466879,-7.60347 0.557303,-8.00365 0.208272,-0.92174 0.522335,-0.91513 3.145425,0.0661 1.711764,0.64036 2.521569,0.79077 4.233333,0.78632 3.360243,-0.009 6.178701,-0.82658 6.67634,-1.93727 0.303747,-0.67794 0.160041,-1.2303 -0.32008,-1.2303 -0.382024,0 -0.723513,-0.64976 -0.473098,-0.90018 0.255174,-0.25517 1.154821,-0.18282 2.135327,0.17174 0.905637,0.32748 0.920779,0.32027 2.070386,-0.98617 1.419839,-1.61354 2.232872,-3.5002 1.663631,-3.8605 -0.20648,-0.13069 -0.589695,-0.23945 -0.851582,-0.24168 -0.679715,-0.006 -1.945926,-0.707 -2.126539,-1.17767 -0.112119,-0.29218 0.128588,-0.47534 0.896406,-0.68209 1.959446,-0.52763 4.161489,-4.2696 3.534013,-6.00542 -0.184975,-0.51171 -0.726342,-0.85551 -2.354035,-1.49493 -2.615925,-1.02764 -2.797005,-1.47125 -0.977029,-2.3935 2.183966,-1.1067 3.826356,-3.7873 2.693969,-4.39691 -1.914922,-1.03089 -2.585548,-1.17311 -5.55625,-1.17836 -3.256714,-0.006 -5.24826,0.39989 -7.877215,1.60445 -1.698266,0.77812 -2.538945,0.80631 -3.236733,0.10852 l -0.530611,-0.53061 0.795194,-1.40901 c 1.157939,-2.05175 1.124069,-2.1103 -1.123032,-1.94102 -1.055026,0.0795 -2.45401,0.26648 -3.108854,0.41556 -0.654844,0.14908 -1.845469,0.422 -2.645833,0.60649 -0.800365,0.18449 -1.685933,0.5462 -1.967929,0.80381 -0.281995,0.2576 -0.847542,0.61658 -1.256771,0.79772 -0.409228,0.18114 -0.744643,0.38958 -0.745365,0.4632 -7.94e-4,0.0736 -0.275537,0.47655 -0.610698,0.89539 -0.469721,0.58701 -0.74236,0.71934 -1.189591,0.5774 -0.89049,-0.28263 -1.21716,-1.0948 -0.723712,-1.79929 0.57572,-0.82196 0.515146,-0.99486 -0.348552,-0.99486 -0.68698,0 -4.379119,1.70336 -5.239012,2.41701 -0.194582,0.16149 -0.353787,0.21471 -0.353787,0.11827 0,-0.18496 -1.755442,1.3387 -2.927128,2.54064 -0.380828,0.39066 -1.416505,1.77471 -2.301502,3.07566 -1.481384,2.17765 -1.597467,2.45201 -1.462683,3.4569 0.154273,1.15019 -0.01704,1.30458 -0.793845,0.7154 -0.40616,-0.30806 -0.630939,-0.28332 -1.576552,0.17355 -0.779351,0.37654 -1.133517,0.44085 -1.207386,0.21924 -0.07219,-0.21656 -0.259498,-0.17336 -0.605327,0.13961 -0.320747,0.29027 -0.413862,0.55796 -0.258996,0.74456 0.150069,0.18082 0.103087,0.54197 -0.123851,0.95202 -0.277064,0.50063 -0.367917,0.54851 -0.375021,0.19766 -0.0052,-0.25466 -0.18797,-0.46302 -0.406251,-0.46302 -0.431385,0 -0.52333,-0.71377 -0.164804,-1.27937 0.123182,-0.19433 0.329718,-0.3269 0.458967,-0.29459 0.129252,0.0323 0.349187,-0.18789 0.488744,-0.4893 0.304953,-0.65864 1.217954,-1.11174 2.24015,-1.11174 0.784112,0 1.116307,-0.49904 1.497047,-2.24896 0.426551,-1.96046 3.035957,-5.21786 5.860966,-7.3164 3.221956,-2.39341 7.719031,-3.92621 9.197552,-3.13493 0.54506,0.29171 0.819878,0.26237 1.906212,-0.20348 2.671929,-1.14579 8.212013,-2.07908 10.455497,-1.76133 2.18267,0.30913 2.852378,0.62411 2.852378,1.34155 0,0.36209 -0.128709,0.89883 -0.28602,1.19277 -0.15731,0.29394 -0.215283,0.60517 -0.128828,0.69163 0.08646,0.0865 1.078368,-0.0648 2.204249,-0.33608 3.202493,-0.77168 7.286324,-0.67988 10.033212,0.22555 1.788369,0.58948 2.306545,0.89205 2.976563,1.73801 0.446182,0.56335 0.810125,1.18574 0.808759,1.38308 -0.0038,0.55524 -1.448977,2.9305 -2.218309,3.64606 -0.875651,0.81447 -0.865322,0.94139 0.109482,1.34517 0.439508,0.18205 1.108565,0.69877 1.486789,1.14826 0.622065,0.73928 0.675035,0.97485 0.555123,2.46869 -0.144764,1.80346 -1.018935,3.62269 -2.179373,4.53549 -0.838774,0.65978 -0.830416,0.74031 0.12827,1.23606 1.089419,0.56337 1.248965,1.44836 0.534948,2.96736 -0.828583,1.76274 -2.63719,3.99062 -3.477364,4.28351 -0.392112,0.13669 -0.760611,0.20085 -0.818885,0.14258 -0.05828,-0.0583 -0.316937,0.37224 -0.574802,0.95671 -0.753515,1.70788 -1.596044,2.07628 -5.978814,2.6143 -2.415127,0.29647 -3.636161,0.16085 -6.680729,-0.74204 l -1.785938,-0.52964 -0.0534,2.43065 c -0.02937,1.33685 -0.02434,2.84736 0.01119,3.35668 0.08178,1.17238 -0.390499,7.13842 -0.87969,11.1125 -0.366053,2.97376 -0.87304,9.66708 -0.931828,12.30217 -0.07286,3.26582 1.541621,7.27468 3.723614,9.24598 1.471734,1.32963 2.543368,1.73518 4.585004,1.73518 1.233781,0 1.830512,0.12112 2.144715,0.43533 0.652582,0.65258 0.07573,0.87893 -2.249609,0.88272 -1.737601,0.003 -2.214697,-0.11119 -3.836458,-0.9169 z m -56.263687,-1.63964 c -0.151186,-0.18217 -0.233863,-0.4429 -0.183724,-0.57941 0.05014,-0.13651 1.57944,-1.22936 3.398451,-2.42857 3.93763,-2.59594 7.307755,-5.68815 6.828602,-6.26549 -0.237196,-0.28581 -0.230812,-0.93241 0.02721,-2.75544 0.185425,-1.31011 0.270478,-2.44867 0.189005,-2.53014 -0.08147,-0.0815 -0.781442,0.16172 -1.555494,0.54043 -2.941561,1.43917 -4.681072,1.80836 -5.771303,1.22489 -0.821121,-0.43945 -0.61409,-0.67672 1.141873,-1.30864 2.105038,-0.75755 6.095651,-2.79762 6.62913,-3.38894 0.276191,-0.30613 0.462021,-1.26549 0.574524,-2.96603 l 0.166288,-2.51354 -0.852691,-0.52917 c -0.468982,-0.29104 -1.075288,-0.96231 -1.347348,-1.4917 -1.03677,-2.01743 0.296082,-5.60334 2.507832,-6.74708 1.170538,-0.60531 3.395863,-0.36487 5.409726,0.5845 1.562087,0.73639 1.644703,0.82258 1.653646,1.72525 0.01297,1.30852 -0.611359,3.26036 -1.446556,4.52243 -0.486392,0.73499 -1.123276,1.24342 -2.096956,1.67403 -1.263658,0.55885 -1.414515,0.71598 -1.565658,1.63071 -0.234374,1.41847 -0.212889,2.41165 0.05576,2.57769 0.125865,0.0778 0.870005,0.0117 1.653646,-0.14686 1.0278,-0.20796 1.627539,-0.20798 2.152406,-7e-5 1.317861,0.52202 0.945645,0.81416 -2.579687,2.0247 l -1.5875,0.54512 -0.213691,1.31314 c -0.117528,0.72223 -0.459036,2.47883 -0.758907,3.90355 -0.515387,2.44868 -0.520422,2.61781 -0.09204,3.09117 0.249248,0.27541 0.793914,1.58757 1.210368,2.9159 0.416455,1.32833 1.005867,2.81752 1.30981,3.30931 l 0.552622,0.89416 -0.54106,0.28956 c -1.047808,0.56077 -1.914866,-0.39804 -3.164509,-3.49936 -0.337156,-0.83675 -0.75442,-1.52136 -0.927254,-1.52136 -0.172834,0 -0.724551,0.42396 -1.226039,0.94212 -0.979962,1.01255 -6.932018,5.12921 -7.467484,5.16479 -0.177914,0.0118 -0.657524,0.0458 -1.0658,0.0755 -0.408276,0.0297 -0.866016,-0.095 -1.017201,-0.27718 z m 14.354247,-25.03144 c 0.66521,-0.44791 1.131675,-1.14755 1.793589,-2.69017 0.848788,-1.97814 0.870132,-2.1027 0.417055,-2.434 -1.408793,-1.03013 -3.632444,-0.49683 -4.62505,1.10924 -0.671433,1.0864 -0.965025,3.26524 -0.545584,4.04897 0.412795,0.77132 1.787404,0.75551 2.95999,-0.034 z"
       id="path495" />
  </g>
</svg>
