<?xml version="1.0" encoding="UTF-8" standalone="no"?>
<!-- Created with Inkscape (http://www.inkscape.org/) -->

<svg
   width="39.248055mm"
   height="64.270927mm"
   viewBox="0 0 39.248055 64.270927"
   version="1.1"
   id="svg18"
   xmlns="http://www.w3.org/2000/svg"
   xmlns:svg="http://www.w3.org/2000/svg">
  <defs
     id="defs15" />
  <g
     id="layer1"
     transform="translate(-127.52228,-172.2802)">
    <path
       style="fill:#dab;stroke-width:0.264583"
       d="m 127.82195,236.36633 c -0.57129,-0.23051 -0.37065,-1.01398 0.99219,-3.87456 0.7276,-1.52723 1.32291,-2.94339 1.32291,-3.14703 0,-0.20364 0.10306,-0.48337 0.229,-0.62161 0.12594,-0.13825 0.56166,-1.14433 0.96827,-2.23573 0.88088,-2.36436 3.94872,-9.00803 4.7666,-10.32246 1.34887,-2.16778 1.94583,-3.73525 2.46732,-6.47858 0.90937,-4.78389 1.39668,-8.25171 1.30884,-9.3139 l -0.0827,-1.00059 -2.93728,2.90828 c -1.61549,1.59956 -3.27771,3.44407 -3.69379,4.09891 -1.00838,1.587 -1.56861,2.11667 -2.2388,2.11667 -1.34699,0 -2.07155,-1.11573 -1.19629,-1.84214 0.2117,-0.17568 0.68342,-0.82884 1.04831,-1.45145 0.77946,-1.33008 6.53344,-6.92481 8.21788,-7.99047 0.64085,-0.40543 1.23021,-0.97917 1.30969,-1.27498 0.0795,-0.29581 0.14613,-2.41562 0.14811,-4.71069 l 0.004,-4.17286 -0.7276,-0.31044 c -1.39528,-0.59528 -3.04128,-2.13849 -3.58005,-3.35646 -0.81391,-1.84003 -0.75726,-4.36167 0.13174,-5.86257 0.8364,-1.41215 3.11356,-3.63981 4.57279,-4.4734 1.57692,-0.90082 3.94734,-1.02825 5.44449,-0.29268 3.27422,1.6087 5.25158,3.08867 5.26296,3.93909 0.009,0.67083 -0.70207,2.56399 -1.79565,4.78106 -0.78983,1.60123 -3.84926,4.60327 -5.59459,5.48964 l -1.07013,0.54347 -0.0283,3.944 c -0.0156,2.1692 -0.0151,4.15236 0,4.40703 0.0249,0.39252 0.30112,0.46278 1.81515,0.46146 1.57271,-0.001 6.04589,-0.53918 7.65106,-0.91988 0.31541,-0.0748 0.81468,-0.52632 1.10953,-1.00338 0.48432,-0.78367 2.6829,-5.91953 2.68245,-6.2662 -1e-4,-0.0789 -0.32189,-0.16203 -0.71509,-0.18485 -0.7053,-0.0409 -2.29851,-0.45865 -3.44461,-0.9031 -1.3726,-0.5323 -0.73353,-2.86483 1.08945,-3.97647 1.12382,-0.68528 1.70278,-0.63335 3.1464,0.28216 1.03344,0.65539 1.26487,0.95349 1.40097,1.80476 0.1366,0.85426 0.29713,1.05956 0.98946,1.26546 0.65051,0.19346 0.86434,0.43501 1.00465,1.13493 0.0981,0.48903 0.35944,1.07033 0.58087,1.29176 0.36041,0.36041 0.49826,0.34349 1.31543,-0.16156 1.11992,-0.69214 2.09891,-0.70643 3.54099,-0.0517 1.37481,0.62421 1.77885,1.29562 1.39282,2.31446 -0.58764,1.55095 -2.20924,2.73258 -3.73956,2.72495 -1.31329,-0.007 -2.9713,-1.04113 -3.07317,-1.91763 -0.0459,-0.39494 -0.33774,-0.8962 -0.64857,-1.11391 -0.51496,-0.3607 -0.61912,-0.34512 -1.17332,0.17552 -0.33451,0.31425 -0.6082,0.76598 -0.6082,1.00384 0,0.23786 -0.17481,0.66359 -0.38846,0.94607 -0.21365,0.28247 -0.39235,0.69218 -0.39709,0.91046 -0.005,0.21828 -0.35874,1.13701 -0.78671,2.04161 -0.55888,1.18134 -0.95014,1.68033 -1.38885,1.7711 -0.91432,0.18919 -4.15782,0.44977 -8.0191,0.64426 l -3.43958,0.17324 -0.56819,3.70417 c -0.62675,4.08603 -1.26201,7.4461 -1.52982,8.09191 -0.45943,1.10777 -0.61352,4.37261 -0.26123,5.53413 0.19863,0.65484 0.59759,2.32172 0.88662,3.70417 0.44971,2.15115 2.03991,8.33437 2.14342,8.33437 0.0191,0 0.0749,0.23813 0.12403,0.52917 0.0491,0.29104 0.23649,1.33963 0.41643,2.33019 0.28742,1.58224 0.27583,1.85236 -0.0954,2.22364 -0.98772,0.9877 -2.23295,-0.98991 -2.95072,-4.68612 -0.3048,-1.56954 -0.95758,-4.2599 -1.60493,-6.61459 -0.34007,-1.23692 -0.6935,-2.69875 -0.78542,-3.2485 -0.10419,-0.62312 -0.27543,-0.9326 -0.45471,-0.82179 -0.15819,0.0978 -0.87413,1.44052 -1.59099,2.98391 -0.71686,1.5434 -1.63933,3.52055 -2.04992,4.39367 -0.41058,0.87313 -0.95543,2.24235 -1.21078,3.04271 -0.25535,0.80037 -0.9834,2.53592 -1.61788,3.85679 -0.63449,1.32087 -1.15361,2.55697 -1.15361,2.7469 0,0.18992 -0.24783,0.74632 -0.55075,1.23644 -0.53798,0.87047 -1.31181,1.11202 -2.29352,0.71589 z m 15.41198,-51.37674 c 1.39136,-0.85086 3.68276,-3.11261 4.33967,-4.28346 l 0.63548,-1.13271 -0.63548,0.20162 c -1.42214,0.45118 -4.07892,0.46087 -5.66259,0.0206 -0.87312,-0.24271 -2.03827,-0.56756 -2.58918,-0.72188 -0.55094,-0.15433 -1.05643,-0.22585 -1.12334,-0.15894 -0.25924,0.25924 -0.44622,2.59976 -0.2789,3.49155 0.1956,1.04275 1.27087,2.47162 2.11775,2.81423 0.93866,0.37973 2.36662,0.27652 3.19659,-0.23105 z m 1.51609,-6.82533 c 0.54282,-0.0897 0.93408,-0.24868 0.86947,-0.35322 -0.0646,-0.10454 0.47731,-0.46865 1.20428,-0.80915 1.89651,-0.88827 2.10804,-1.24443 0.86135,-1.45019 -1.51654,-0.25031 -2.25682,-0.68536 -2.11153,-1.24093 0.10046,-0.38416 -0.036,-0.47434 -0.71078,-0.46965 -1.20367,0.008 -2.86779,0.84225 -4.28157,2.14543 l -1.22907,1.13292 1.01484,0.37098 c 2.2076,0.80699 2.91732,0.9161 4.38301,0.67381 z"
       id="path495" />
  </g>
</svg>
