<?xml version="1.0" encoding="UTF-8" standalone="no"?>
<svg
   xmlns:dc="http://purl.org/dc/elements/1.1/"
   xmlns:cc="http://creativecommons.org/ns#"
   xmlns:rdf="http://www.w3.org/1999/02/22-rdf-syntax-ns#"
   xmlns:svg="http://www.w3.org/2000/svg"
   xmlns="http://www.w3.org/2000/svg"
   width="115.27931mm"
   height="59.300793mm"
   viewBox="0 0 115.27931 59.300793"
   version="1.1"
   id="svg8">
  <defs
     id="defs2" />
  <metadata
     id="metadata5">
    <rdf:RDF>
      <cc:Work
         rdf:about="">
        <dc:format>image/svg+xml</dc:format>
        <dc:type
           rdf:resource="http://purl.org/dc/dcmitype/StillImage" />
        <dc:title></dc:title>
      </cc:Work>
    </rdf:RDF>
  </metadata>
  <g
     id="layer1"
     transform="translate(-64.281879,-93.37905)">
    <g
       id="g847">
      <path
         style="fill:#a6af4d;stroke-width:0.264583"
         d="m 98.845506,152.45654 c -0.621059,-0.2101 -1.801657,-0.85305 -2.623553,-1.42879 -0.821894,-0.57574 -1.623441,-1.04681 -1.781217,-1.04683 -0.423921,-6e-5 -4.092541,-2.39913 -5.81873,-3.80514 -0.825103,-0.67205 -1.613586,-1.22191 -1.752185,-1.22191 -0.138599,0 -0.775756,-0.38696 -1.415904,-0.8599 -0.640149,-0.47294 -1.895131,-1.39568 -2.788849,-2.05052 -0.89372,-0.65484 -2.127163,-1.57753 -2.740988,-2.05041 -0.935805,-0.72093 -5.453235,-3.08968 -6.804586,-3.56804 -0.218281,-0.0773 -1.170781,-0.71384 -2.116667,-1.41461 -2.452301,-1.8168 -4.838877,-3.43936 -5.757809,-3.91456 -0.763358,-0.39474 -0.792152,-0.47681 -0.828643,-2.36172 -0.0208,-1.07402 0.0809,-3.31106 0.225977,-4.97119 0.257972,-2.95193 0.282856,-3.03448 1.129319,-3.74695 l 0.865531,-0.72851 -1.177663,-1.02484 -1.17766,-1.02483 0.450056,-2.78061 c 0.247534,-1.52934 0.451882,-3.65737 0.45411,-4.72894 0.0021,-1.07158 0.09152,-2.06739 0.198437,-2.21292 0.475229,-0.64684 3.989036,-1.98437 5.213123,-1.98437 0.437599,0 0.669806,-0.14676 0.669806,-0.42333 0,-0.58196 1.687637,-2.22211 2.288645,-2.22425 0.269214,-9.5e-4 0.846667,-0.2383 1.28323,-0.52742 0.637788,-0.42239 1.261631,-0.52912 3.175,-0.5432 1.309687,-0.01 2.917031,-0.11933 3.571875,-0.24379 5.44572,-1.03494 7.065494,-1.38337 9.260416,-1.992057 4.140722,-1.148279 4.723069,-1.151255 6.527819,-0.03335 2.6011,1.611177 6.958404,5.844077 10.670094,10.365467 1.52797,1.86128 3.53002,4.22726 4.449,5.25773 0.91898,1.03047 1.95219,2.49406 2.29603,3.25242 l 0.62515,1.37885 -0.51009,1.05577 c -0.28054,0.58067 -0.51009,1.60135 -0.51009,2.26817 0,1.01704 0.20971,1.52008 1.30134,3.12164 0.71573,1.05007 1.60143,2.17001 1.96821,2.48874 0.64648,0.56178 0.66212,0.65313 0.51107,2.98463 -0.10603,1.63655 -0.0472,2.73411 0.18396,3.43465 0.3098,0.93872 0.28996,1.09287 -0.2249,1.74741 -0.31057,0.39483 -0.56468,0.97671 -0.56468,1.29307 0,0.31637 -0.14882,0.77447 -0.33073,1.01802 -0.28365,0.37977 -0.42487,0.39426 -0.99218,0.1018 -0.51322,-0.26458 -0.65272,-0.53038 -0.62245,-1.18599 0.0215,-0.46474 -0.0551,-0.84498 -0.17013,-0.84498 -0.44073,0 -0.617,1.02588 -0.65031,3.78462 -0.0315,2.604 -0.0838,2.88675 -0.58807,3.175 -1.69755,0.97035 -3.19183,1.9133 -3.65758,2.30807 -0.84549,0.71662 -3.56783,2.21838 -5.29167,2.91912 -1.68389,0.6845 -3.53156,1.81138 -4.10715,2.50492 -0.63994,0.77108 -1.14958,0.87767 -2.313714,0.48386 z m -0.21454,-3.49836 c -0.07602,-0.83651 0.02238,-1.55463 0.281016,-2.05052 0.218901,-0.41974 0.398735,-1.19018 0.399632,-1.71209 0.0016,-0.8804 -0.09867,-0.99924 -1.387432,-1.64571 -1.667349,-0.83639 -2.838559,-0.93045 -4.431771,-0.35595 -1.593557,0.57463 -1.99127,0.54745 -2.560484,-0.17501 -0.265224,-0.33663 -1.021067,-0.92761 -1.679652,-1.31328 -0.658585,-0.38568 -2.041075,-1.44971 -3.072199,-2.36451 -1.031123,-0.91481 -2.564696,-2.2586 -3.407939,-2.9862 -0.84324,-0.72761 -1.831917,-1.65034 -2.197055,-2.05052 -0.419531,-0.45979 -0.934408,-0.72761 -1.39885,-0.72761 -0.500906,0 -1.266367,-0.44612 -2.40366,-1.40089 -0.917786,-0.77049 -2.624354,-2.13399 -3.792376,-3.03001 -1.168019,-0.89602 -2.397247,-1.99916 -2.731616,-2.45142 -0.547153,-0.74006 -3.418192,-2.81544 -3.594989,-2.59869 -0.03962,0.0486 -0.219385,1.19389 -0.399487,2.54516 -0.25777,1.93402 -0.258746,2.53964 -0.0046,2.84589 0.348567,0.42 4.200573,3.20275 5.235697,3.78236 0.347569,0.19461 1.143521,0.74434 1.768779,1.22161 0.625258,0.47727 1.435417,0.9427 1.800349,1.0343 1.149787,0.28857 5.675389,2.9867 7.933709,4.73001 1.19349,0.92131 3.165017,2.26614 4.381169,2.9885 1.216155,0.72237 2.763967,1.80344 3.439583,2.40238 0.675619,0.59893 2.29996,1.62712 3.609647,2.28485 1.309688,0.65773 2.678907,1.44365 3.042709,1.74649 1.057558,0.88033 1.301527,0.73035 1.169805,-0.71914 z m 5.444774,-0.83541 c 1.49726,-0.48081 2.91634,-1.26872 6.12069,-3.39838 l 2.53483,-1.68468 0.16623,-2.53054 c 0.0914,-1.39179 0.0994,-2.59733 0.0178,-2.67896 -0.18384,-0.18384 -3.08795,1.40258 -4.34162,2.37168 -0.50932,0.39372 -1.28323,0.90364 -1.71979,1.13316 -1.65276,0.86894 -4.8298,2.2959 -5.11167,2.2959 -0.51769,0 -0.77663,0.87208 -0.92997,3.132 -0.0823,1.21327 -0.28493,2.36892 -0.45023,2.5681 -0.1653,0.19918 -0.2255,0.48357 -0.13377,0.63199 0.0995,0.16092 0.66939,-0.0789 1.41184,-0.59404 0.68478,-0.47513 1.78084,-1.03594 2.43568,-1.24623 z m -3.55864,-5.5353 c 0.13824,-0.13735 1.32291,-0.78802 2.6326,-1.44594 2.59449,-1.30333 2.67071,-1.51696 0.23951,-0.67124 -0.85933,0.29892 -2.14029,0.70811 -2.84656,0.90931 -1.597672,0.45513 -1.757443,0.6106 -1.112275,1.08236 0.604635,0.44212 0.751035,0.45903 1.086725,0.12551 z m -7.476434,-2.59454 c 0.978594,-3.61586 1.04983,-3.35886 -1.687623,-6.08851 -2.088621,-2.08267 -2.550496,-2.42097 -3.268414,-2.39398 -0.459838,0.0173 -1.187376,-0.18676 -1.616747,-0.45344 -1.841709,-1.14386 -8.903047,-8.19532 -11.58548,-11.56928 -1.128027,-1.41883 -2.144556,-2.57969 -2.258954,-2.57969 -0.114401,0 -0.605533,-0.56554 -1.091409,-1.25677 -0.485873,-0.69122 -1.602822,-2.23999 -2.482107,-3.4417 l -1.598697,-2.18493 -0.314902,1.54378 c -0.173196,0.84907 -0.397959,2.31935 -0.499475,3.26728 l -0.184573,1.72352 3.664334,4.34155 c 2.015384,2.38785 4.428027,5.05594 5.361432,5.9291 0.933405,0.87315 2.481217,2.40678 3.439583,3.40806 5.54781,5.79625 8.665136,8.55949 11.399777,10.10494 1.091406,0.61679 2.057982,1.13269 2.147945,1.14643 0.08997,0.0138 0.348856,-0.65962 0.57531,-1.49636 z m 4.261549,0.59623 c 0.908103,-0.3633 2.178566,-0.76949 2.823255,-0.90265 0.64468,-0.13315 2.12465,-0.60924 3.28882,-1.05797 1.16416,-0.44873 3.12869,-1.06317 4.36562,-1.36542 1.23693,-0.30225 2.72521,-0.71073 3.30729,-0.90772 0.58209,-0.19699 1.78396,-0.56257 2.67083,-0.81239 l 1.6125,-0.45422 0.29008,-1.87409 c 0.15955,-1.03074 0.26736,-1.89557 0.23959,-1.92183 -0.29716,-0.28097 -7.47821,1.31264 -9.6525,2.14207 -0.53973,0.20589 -1.69571,0.51302 -2.56883,0.68249 -0.87313,0.16948 -1.78579,0.4837 -2.02815,0.69826 -0.38863,0.34406 -0.51356,0.3424 -1.05833,-0.014 -0.769643,-0.50361 -3.398551,-0.22091 -4.13386,0.44454 -0.977077,0.88423 -1.803381,6.00352 -0.969028,6.00352 0.08889,0 0.90461,-0.29724 1.812713,-0.66054 z m 0.952696,-7.24606 c 5.212519,-0.60957 6.704909,-0.83482 6.990509,-1.0551 0.47772,-0.36844 4.49809,-1.61123 6.93497,-2.14376 2.69834,-0.58967 3.50951,-1.17255 3.00267,-2.15762 -0.49139,-0.95502 -1.89823,-2.34734 -2.37182,-2.34734 -0.23161,0 -1.42865,0.34768 -2.66008,0.77261 -1.96502,0.67809 -4.17313,1.2707 -6.34,1.70155 -0.3638,0.0723 -1.49241,0.31865 -2.50802,0.54734 -1.0156,0.2287 -2.80154,0.49192 -3.968746,0.58494 -1.167205,0.093 -2.241254,0.25492 -2.386775,0.35979 -0.785617,0.56617 -1.487898,0.44863 -2.658126,-0.44491 -0.6662,-0.50868 -1.685308,-1.19413 -2.264685,-1.52322 -1.086017,-0.61687 -7.422317,-6.48626 -11.293599,-10.46139 -8.550577,-8.77995 -8.367507,-8.56573 -7.925367,-9.27371 0.170085,-0.27235 0.25422,-0.5496 0.186971,-0.61611 -0.205248,-0.203 -2.735072,0.52692 -2.831777,0.81703 -0.04978,0.14935 0.195312,0.61396 0.544663,1.03246 0.349348,0.4185 0.848254,1.17763 1.108678,1.68696 0.260424,0.50932 0.695518,1.08275 0.966875,1.2743 0.271354,0.19154 1.380686,1.50123 2.465178,2.91041 3.197241,4.15449 4.418222,5.59011 7.109844,8.35971 2.468875,2.5404 2.564755,2.60803 3.060962,2.15897 0.319662,-0.2893 0.71215,-0.40014 1.043945,-0.29484 0.292431,0.0928 1.872107,1.47215 3.510391,3.06519 1.638282,1.59303 3.171754,2.9577 3.407712,3.03259 0.235958,0.0749 0.998466,0.79576 1.694463,1.60193 1.181164,1.36813 1.303335,1.4415 1.834245,1.10144 0.312836,-0.20038 1.81895,-0.51053 3.346919,-0.68922 z m -3.704167,-6.76857 c 0,-1.23783 -0.117353,-1.57966 -0.815194,-2.37446 -1.00479,-1.14439 -3.201623,-2.77974 -4.051039,-3.01564 -0.835072,-0.23192 -9.036944,-7.53626 -14.36775,-12.79549 -2.083967,-2.05598 -2.174875,-2.11328 -2.335766,-1.47225 -0.356558,1.42065 -0.01212,1.96895 3.710374,5.9064 2.037292,2.15494 4.001823,4.16397 4.365625,4.46453 0.363802,0.30055 1.733021,1.63239 3.042708,2.95964 2.796908,2.83441 5.238412,4.91974 7.313004,6.24616 0.820693,0.52472 1.571861,1.08298 1.669262,1.24058 0.0974,0.15759 0.46772,0.28653 0.822933,0.28653 0.605952,0 0.645843,-0.0893 0.645843,-1.446 z m 6.939936,0.77267 c 2.69259,-0.50297 4.57479,-0.98227 8.04682,-2.04911 l 2.68362,-0.82459 0.13557,-1.20275 c 0.15413,-1.36745 0.0723,-1.60177 -0.5575,-1.5964 -0.55426,0.005 -4.42868,1.00394 -7.55151,1.94753 -1.28788,0.38914 -2.83569,0.75091 -3.43958,0.80392 -0.60389,0.053 -1.837071,0.24876 -2.740403,0.43497 -1.472097,0.30346 -1.65935,0.41565 -1.805654,1.08177 -0.315884,1.4382 0.01691,1.81341 1.608449,1.81341 0.787604,0 2.416688,-0.18394 3.620188,-0.40875 z m -28.556476,-0.75641 c -0.317641,-0.55759 -2.166615,-2.76691 -3.544901,-4.23576 -1.234464,-1.31559 -1.903534,-1.47995 -2.258536,-0.55484 -0.212426,0.55358 0.300918,1.11356 2.019977,2.20352 0.800365,0.50747 1.958565,1.38073 2.573777,1.94058 1.167146,1.06212 1.568706,1.27673 1.209683,0.6465 z m 27.040498,-3.29028 c 1.797288,-0.25618 3.146588,-0.58667 6.746878,-1.65256 1.38245,-0.40928 3.04932,-0.88177 3.70416,-1.04997 1.40216,-0.36017 2.64584,-0.96434 2.64584,-1.28534 0,-0.31776 -2.14314,-3.5093 -2.68073,-3.99211 -0.61481,-0.55216 -2.99003,-3.43076 -4.91211,-5.95312 -0.8871,-1.16417 -2.42889,-2.87176 -3.42619,-3.79465 -0.99729,-0.9229 -2.527639,-2.36637 -3.400764,-3.20772 -2.351942,-2.26634 -2.879384,-2.474158 -5.402599,-2.12868 -1.142632,0.15645 -2.94976,0.52616 -4.01584,0.82159 -1.908421,0.52885 -4.386938,1.08738 -6.985728,1.57424 -0.727604,0.13631 -2.334948,0.31655 -3.571875,0.40054 -2.697118,0.18315 -4.233878,0.74461 -4.232103,1.54622 0.0013,0.58743 3.543504,4.92075 4.022389,4.92075 0.154546,0 1.366284,1.05012 2.692749,2.3336 2.169319,2.09902 3.357745,3.14647 7.744958,6.82622 0.714779,0.59951 1.980324,1.47421 2.812325,1.94376 0.832,0.46955 2.018527,1.38832 2.636726,2.04171 1.248519,1.31959 1.091451,1.30128 5.621914,0.65552 z m -8.776057,-5.52403 c -0.790578,-1.7899 -0.793022,-1.81029 -0.343725,-2.86821 0.349348,-0.82257 0.663307,-1.13018 1.377095,-1.34925 1.07936,-0.33126 1.789562,-0.047 1.789562,0.71633 0,0.28381 0.119063,0.51602 0.264584,0.51602 0.14552,0 0.264583,-0.28991 0.264583,-0.64424 0,-0.35433 0.119822,-0.95939 0.266271,-1.34458 0.243708,-0.641 0.371994,-0.6929 1.513989,-0.61253 0.953915,0.0671 1.260879,-0.006 1.30361,-0.30907 0.03074,-0.21828 0.12569,-0.82707 0.210999,-1.35286 l 0.15511,-0.95598 2.388257,-0.0225 2.38826,-0.0226 0.51597,0.84623 c 0.60038,0.98465 0.66991,2.25705 0.16135,2.95256 -0.27957,0.38232 -0.58403,0.45718 -1.40931,0.34648 -0.99723,-0.13375 -1.06558,-0.0975 -1.29704,0.68737 -0.20424,0.69258 -0.39407,0.84281 -1.156693,0.91538 -0.501796,0.0478 -1.544701,0.50655 -2.317568,1.01955 -0.772869,0.513 -1.578887,0.86609 -1.791152,0.78463 -0.476954,-0.18302 -0.724826,0.1961 -0.920104,1.4073 -0.144566,0.89667 -0.200343,0.93827 -1.359281,1.01384 l -1.208527,0.0788 -0.79624,-1.80271 z m -6.496235,-5.38342 c -0.250595,-0.14605 -0.881705,-0.99254 -1.402466,-1.88108 -1.649511,-2.81446 -0.93363,-4.81112 1.557427,-4.3438 1.69009,0.31707 2.020456,0.88098 2.020456,3.44881 0,2.00857 -0.05933,2.27551 -0.588039,2.64583 -0.67864,0.47534 -0.956185,0.49811 -1.587378,0.13024 z m 0.622686,-3.55482 c -0.136347,-0.82843 -0.302731,-1.0767 -0.765934,-1.14288 -0.735372,-0.10507 -0.743186,0.25484 -0.03917,1.80434 0.409549,0.9014 0.594196,1.09422 0.760124,0.79375 0.120542,-0.21828 0.140783,-0.87313 0.04498,-1.45521 z m 3.54157,-0.46302 c -0.06117,-0.1819 -0.369205,-1.20222 -0.68452,-2.26737 l -0.573296,-1.93665 0.787559,-0.97377 c 0.826127,-1.02146 1.530641,-1.33767 1.979726,-0.88859 0.179745,0.17974 0.127286,0.46671 -0.160396,0.87743 -0.580631,0.82897 -0.53943,1.02176 0.218348,1.02176 0.966443,0 1.082521,0.48548 0.309102,1.29275 -1.007798,1.05192 -0.911022,1.55251 0.292999,1.51556 0.708642,-0.0217 1.007785,0.0891 1.070788,0.39678 0.172693,0.84335 -2.966771,1.77551 -3.24031,0.9621 z m 55.509894,33.69013 c -1.3649,-0.63976 -1.72778,-0.95684 -2.1923,-1.91564 -0.62987,-1.30004 -0.59611,-2.16863 0.26058,-6.70522 0.77789,-4.11933 2.14354,-18.40667 2.23817,-23.41562 0.0742,-3.92938 0.47227,-7.05663 1.03722,-8.14913 0.6172,-1.19353 3.4279,-2.456669 7.13191,-3.205096 1.57915,-0.319082 3.90087,-0.921475 5.15937,-1.338652 2.41727,-0.801289 4.6154,-1.351091 7.44757,-1.862803 0.94588,-0.170901 1.85237,-0.419694 2.01441,-0.552873 0.29381,-0.241479 4.33503,-1.196466 6.29409,-1.487368 0.81469,-0.120973 1.10777,-0.05031 1.38952,0.334997 0.31266,0.427589 0.27128,0.577841 -0.3328,1.208364 -0.63345,0.661175 -0.66471,0.79627 -0.38227,1.652067 0.16917,0.512605 0.56626,1.26085 0.8824,1.662766 0.59353,0.754545 0.74527,2.294988 0.33976,3.449128 l -0.20201,0.57496 1.7739,-0.40463 c 2.45392,-0.55975 2.69161,-0.31485 1.96386,2.0234 -0.58585,1.88237 -1.46937,7.6838 -1.67511,10.99931 -0.0726,1.16947 -0.28048,2.71729 -0.46202,3.43958 -0.2319,0.92268 -0.33437,4.15925 -0.34451,10.88218 -0.008,5.2629 -0.0976,9.6522 -0.19933,9.754 -0.32043,0.32075 -3.22142,0.36962 -4.00289,0.0674 -1.14026,-0.44092 -6.61655,0.21741 -7.20348,0.86596 -0.37028,0.40916 -0.85676,0.48466 -3.12263,0.48464 -1.47621,-10e-6 -3.87464,0.17415 -5.32985,0.38703 -1.45521,0.21288 -3.36021,0.4668 -4.23333,0.56427 -0.87313,0.0975 -2.48047,0.41826 -3.57188,0.71286 -2.95979,0.79895 -2.91806,0.79918 -4.67835,-0.0259 z m 1.2009,-1.80784 c 0.3567,-0.67318 0.78067,-5.46958 0.8478,-9.59114 0.0975,-5.98815 0.22968,-7.63023 1.43724,-17.85938 0.35309,-2.99095 0.47333,-4.97095 0.42122,-6.936 -0.0153,-0.57632 -0.2005,-0.94582 -0.57439,-1.14592 -0.3035,-0.16243 -0.60842,-0.23873 -0.6776,-0.16955 -0.29444,0.29444 -0.69957,3.69598 -0.74642,6.2671 -0.0712,3.90839 -0.63154,11.30774 -1.0828,14.29905 -0.20951,1.3888 -0.38093,3.12872 -0.38093,3.86649 0,0.73777 -0.11938,1.9232 -0.26528,2.63428 -1.2932,6.30272 -1.256,6.00005 -0.89042,7.24495 0.48129,1.63891 1.4186,2.32053 1.91158,1.39012 z m 7.84308,-0.21622 c 2.47385,-0.3709 5.80046,-0.77457 7.39245,-0.89704 2.14656,-0.16512 2.97378,-0.33103 3.20119,-0.64203 0.33749,-0.46155 1.76281,-0.62084 7.23935,-0.80907 2.32221,-0.0798 3.34541,-0.21449 3.50167,-0.46092 0.26027,-0.41044 0.26472,-0.52895 0.38526,-10.27003 0.0513,-4.14734 0.12643,-7.89781 0.1669,-8.33437 0.0675,-0.72774 0.0119,-0.78653 -0.66802,-0.70684 -0.40789,0.0478 -0.93023,-0.0696 -1.16077,-0.26095 -0.35593,-0.2954 -0.4784,-0.25863 -0.81201,0.24381 -0.39426,0.59379 -1.23037,0.79402 -1.4992,0.35904 -0.0791,-0.12796 -0.39059,-0.29719 -0.69223,-0.37607 -0.40219,-0.10518 -0.62628,0.0274 -0.84034,0.49723 -0.2846,0.62463 -1.52988,0.94525 -1.52988,0.3939 0,-0.13572 -0.26789,-0.3284 -0.59531,-0.42817 -0.32742,-0.0998 -0.79617,-0.3576 -1.04166,-0.57292 -0.24549,-0.21532 -0.57968,-0.3091 -0.74264,-0.20838 -0.43284,0.26751 -1.50655,-0.0636 -1.68108,-0.51842 -0.0827,-0.21543 -0.0461,-0.72248 0.0812,-1.12676 0.12735,-0.40428 0.30528,-1.07081 0.3954,-1.48117 0.15167,-0.69065 0.1095,-0.73982 -0.56731,-0.66146 -0.91162,0.10555 -1.39279,0.99257 -1.40939,2.5982 -0.0148,1.43519 -0.51288,2.19215 -1.36309,2.07173 -0.5423,-0.0768 -0.61635,-0.23113 -0.61327,-1.27798 0.002,-0.65485 0.0781,-1.6835 0.16934,-2.28589 0.15036,-0.99304 0.10282,-1.12399 -0.50937,-1.40292 -0.61732,-0.28127 -0.63912,-0.34373 -0.2543,-0.72855 0.30518,-0.30518 0.91715,-0.4179 2.22566,-0.40995 3.62352,0.022 4.09576,0.12321 4.62346,0.99085 0.58373,0.95977 0.66649,1.12835 0.99203,2.02076 0.22671,0.62145 0.35065,0.6783 1.13233,0.51937 0.63285,-0.12868 0.90124,-0.341 0.96192,-0.76098 0.0751,-0.51985 -0.003,-0.56504 -0.72761,-0.42015 -0.72807,0.14562 -0.81176,0.096 -0.81176,-0.48161 0,-0.98009 0.59171,-1.63863 1.27694,-1.42115 0.3291,0.10445 0.57515,0.40129 0.57515,0.69388 0,0.33495 0.18254,0.51134 0.52916,0.51134 0.29105,0 0.7673,0.23812 1.05834,0.52916 0.29104,0.29105 0.5814,0.52917 0.64524,0.52917 0.0639,0 0.19785,-0.54525 0.29779,-1.21167 0.19731,-1.31577 0.57163,-1.63336 1.4016,-1.18918 0.42512,0.22752 0.57118,0.6641 0.7169,2.14291 0.21487,2.18059 0.64263,2.72643 0.64263,0.82002 0,-0.72668 0.1821,-2.18687 0.40465,-3.24486 0.22256,-1.05799 0.51869,-2.94101 0.65809,-4.18448 0.13939,-1.24348 0.32764,-2.74803 0.41832,-3.34346 l 0.16488,-1.08259 -3.40265,-0.21116 c -4.28342,-0.26581 -4.05962,-0.2686 -6.57766,0.0821 -5.84623,0.81434 -9.40851,1.20801 -13.93623,1.54011 -1.262,0.0926 -2.43502,0.25512 -2.60671,0.36122 -0.17509,0.10822 -0.46639,1.57281 -0.66344,3.33561 -0.40261,3.60186 -1.03787,9.04943 -1.4155,12.13852 -0.14232,1.16416 -0.33647,5.09322 -0.43145,8.73125 -0.095,3.63802 -0.28068,7.49114 -0.41268,8.56249 -0.13199,1.07136 -0.17466,2.05362 -0.0948,2.18281 0.21415,0.34651 0.85487,0.29745 5.80249,-0.44434 z m -1.42598,-8.29293 c -0.28775,-0.18222 -0.3272,-0.64331 -0.18153,-2.12164 0.10237,-1.03885 0.31363,-2.2546 0.46947,-2.70166 0.2647,-0.75932 0.34885,-0.80236 1.27821,-0.65375 0.74536,0.11919 1.03291,0.0599 1.14664,-0.23647 0.0835,-0.21756 0.37907,-0.39556 0.65686,-0.39556 0.81762,0 1.16889,0.65561 0.97288,1.81578 -0.18171,1.07552 0.1785,1.69148 0.57492,0.98311 0.69992,-1.25068 2.8667,-0.76265 3.61909,0.81515 0.82343,1.72673 0.67616,1.91264 -1.45843,1.84106 -1.57888,-0.053 -1.96539,-0.15829 -2.35752,-0.64255 -0.5705,-0.70454 -0.78107,-0.73167 -0.78107,-0.10062 0,0.26323 -0.16898,0.70969 -0.3755,0.99212 -0.3261,0.44597 -0.48138,0.47355 -1.18048,0.20967 -0.64564,-0.2437 -0.86578,-0.23059 -1.11211,0.0662 -0.3515,0.42353 -0.74366,0.46336 -1.27143,0.12914 z m 14.52285,-1.07797 c -0.32712,-0.20809 -0.33875,-0.34625 -0.0662,-0.78611 0.49596,-0.80025 0.40865,-1.07036 -0.4418,-1.36683 -1.11191,-0.38761 -1.16784,-0.86873 -0.25775,-2.21723 0.88929,-1.31767 1.5708,-1.79984 2.20174,-1.55772 0.5343,0.20503 0.52825,0.74416 -0.0177,1.57739 -0.41032,0.62623 -0.40317,0.69454 0.13229,1.26452 1.38881,1.47831 0.0647,4.11351 -1.55062,3.08598 z m -4.66315,-0.92051 c -0.0892,-0.23252 -0.0942,-0.76293 -0.011,-1.17869 0.10971,-0.54856 0.009,-0.88419 -0.36544,-1.22347 -0.71136,-0.64376 -0.65121,-1.17927 0.13245,-1.17927 0.51486,0 0.75798,-0.24619 1.17575,-1.19062 0.42662,-0.96446 0.65549,-1.19063 1.20485,-1.19063 h 0.67818 l -0.16926,1.91823 c -0.0931,1.05503 -0.32209,2.09682 -0.50888,2.3151 -0.18679,0.21829 -0.37934,0.75407 -0.4279,1.19063 -0.0715,0.64295 -0.22679,0.80968 -0.81739,0.87761 -0.48055,0.0553 -0.78441,-0.0603 -0.89133,-0.33889 z m -8.8306,-8.79537 c -0.21828,-0.0798 -0.66476,-0.3888 -0.99219,-0.68669 -1.17874,-1.07241 -0.59569,-5.73568 0.92157,-7.37078 0.76855,-0.82824 1.32828,-1.01749 2.13101,-0.72055 0.78391,0.28999 0.73929,0.9625 -0.10808,1.62903 -0.5763,0.45332 -1.42314,1.90082 -1.42314,2.43256 0,0.0774 0.24595,0.14079 0.54656,0.14079 0.30061,0 0.80662,0.13851 1.12448,0.3078 1.51787,0.80842 1.65472,2.24018 0.33979,3.55511 -0.86009,0.86009 -1.58242,1.06278 -2.54,0.71273 z m 1.33222,-2.07331 c 0.2236,-0.26943 0.24965,-0.49714 0.0766,-0.67014 -0.38526,-0.38526 -1.14428,-0.002 -1.14428,0.57736 0,0.60441 0.59977,0.65653 1.06764,0.0928 z m 3.1657,-15.24734 c 1.23692,-0.15382 3.08239,-0.33334 4.10104,-0.39893 1.01864,-0.0656 2.86411,-0.36909 4.10104,-0.67443 1.51189,-0.37323 3.0905,-0.55416 4.81668,-0.55208 l 2.56773,0.003 0.27654,-0.79331 c 0.1521,-0.43632 0.27655,-1.11444 0.27655,-1.506926 0,-0.882112 -0.71774,-2.369858 -1.23998,-2.570261 -0.21343,-0.0819 -0.49956,-0.442193 -0.63585,-0.800649 -0.22187,-0.583559 -0.36506,-0.63836 -1.36879,-0.52385 -0.61655,0.07034 -2.37116,0.437249 -3.89913,0.815355 -1.52797,0.378107 -3.08173,0.689609 -3.45281,0.692227 -0.37108,0.0026 -0.7878,0.117683 -0.92604,0.255699 -0.13825,0.138016 -0.9275,0.426951 -1.75389,0.642078 -0.8264,0.215126 -1.71937,0.50648 -1.98438,0.647453 -0.45247,0.240692 -2.93949,0.882087 -4.71517,1.216034 -2.56132,0.48169 -3.50321,0.7438 -4.54818,1.26568 -0.97462,0.48675 -1.1524,0.69231 -1.08667,1.25645 0.0627,0.53806 0.20716,0.6603 0.71422,0.60432 0.34958,-0.0386 0.89931,0.10262 1.22162,0.3138 0.97051,0.6359 3.05194,0.6658 7.53547,0.10824 z"
         id="path849" />
    </g>
  </g>
</svg>
