<?xml version="1.0" encoding="UTF-8" standalone="no"?>
<svg
   xmlns:dc="http://purl.org/dc/elements/1.1/"
   xmlns:cc="http://creativecommons.org/ns#"
   xmlns:rdf="http://www.w3.org/1999/02/22-rdf-syntax-ns#"
   xmlns:svg="http://www.w3.org/2000/svg"
   xmlns="http://www.w3.org/2000/svg"
   width="31.458239mm"
   height="52.331409mm"
   viewBox="0 0 31.458239 52.331409"
   version="1.1"
   id="svg8">
  <defs
     id="defs2" />
  <metadata
     id="metadata5">
    <rdf:RDF>
      <cc:Work
         rdf:about="">
        <dc:format>image/svg+xml</dc:format>
        <dc:type
           rdf:resource="http://purl.org/dc/dcmitype/StillImage" />
        <dc:title></dc:title>
      </cc:Work>
    </rdf:RDF>
  </metadata>
  <g
     id="layer1"
     transform="translate(-105.32936,-129.90675)">
    <g
       id="g847">
      <path
         style="fill:#ddbb88;stroke-width:0.264583"
         d="m 122.15636,182.05091 c -0.42457,-0.27272 -0.42552,-1.46173 -0.003,-4.15261 0.13993,-0.89181 0.32145,-2.49915 0.40338,-3.57187 0.0819,-1.07271 0.26055,-3.04702 0.39694,-4.38736 0.13638,-1.34033 0.24797,-3.26952 0.24797,-4.28709 v -1.85014 l -1.22426,-0.54154 c -1.96234,-0.86804 -1.91937,-0.92716 -1.86596,2.5673 l 0.0475,3.10886 -0.81747,0.0265 c -0.75674,0.0245 -1.1794,0.2861 -4.65624,2.88209 -0.39117,0.29207 -1.74422,1.36447 -3.00678,2.38311 -5.64375,4.55341 -5.0885,4.19928 -5.82626,3.71589 -0.36249,-0.23751 -0.58979,-0.54394 -0.50511,-0.68095 0.0847,-0.13702 0.21136,-1.29265 0.28152,-2.56807 0.0702,-1.27542 0.24092,-3.21192 0.37948,-4.30332 0.13855,-1.09141 0.31708,-2.75829 0.39673,-3.70417 0.17899,-2.12568 0.54805,-5.49598 1.0575,-9.65729 0.33755,-2.75721 0.71992,-9.01112 1.11216,-18.19011 0.0998,-2.33575 0.15861,-2.57968 0.62183,-2.57968 0.28138,0 0.52127,0.0893 0.53309,0.19843 0.13538,1.24977 0.1005,2.2555 -0.17205,4.96094 -0.51471,5.10936 -0.7612,13.36146 -0.3991,13.36146 1.23177,0 11.88364,-8.89759 11.87811,-9.92188 -0.009,-1.73666 0.35124,-12.38816 0.45617,-13.47385 0.14734,-1.5244 0.25607,-1.6884 0.86192,-1.29993 0.27525,0.17649 0.43292,0.58432 0.40554,1.04898 -0.0246,0.41812 -0.1223,3.32007 -0.21703,6.44876 -0.0947,3.1287 -0.22205,5.84358 -0.28293,6.03308 -0.0609,0.18949 0.032,0.80188 0.20651,1.36087 0.28466,0.91208 0.52184,1.11308 2.31209,1.95934 1.0972,0.51865 2.80889,1.24857 3.80378,1.62205 2.02794,0.76129 6.25113,3.01814 7.4315,3.97137 l 0.77371,0.62483 -0.30091,1.80538 c -0.59139,3.54813 -0.94833,8.23372 -1.00422,13.18246 -0.0312,2.76489 -0.0687,5.18382 -0.0834,5.37538 -0.0168,0.21958 -0.29552,0.31737 -0.75421,0.26459 l -0.72761,-0.0837 0.0862,-4.23334 c 0.0474,-2.32833 0.2555,-5.95974 0.46243,-8.06979 0.20693,-2.11005 0.3765,-4.29105 0.37682,-4.84666 l 5.3e-4,-1.0102 -0.85989,0.60457 c -0.47295,0.33251 -2.00193,1.7396 -3.39775,3.12687 -1.39581,1.38726 -3.33058,3.2504 -4.29948,4.14031 l -1.76157,1.61802 v 1.97141 c 0,1.08428 -0.1101,2.61836 -0.24466,3.40907 -0.13456,0.79071 -0.32638,2.74734 -0.42625,4.34807 -0.41822,6.70326 -0.50373,7.40027 -0.91659,7.47149 -0.21828,0.0377 -0.56945,-0.0424 -0.78039,-0.17787 z m -13.61667,-6.82314 c 0.7151,-0.5416 2.14284,-1.70246 3.17274,-2.57969 1.02991,-0.87723 2.96111,-2.42839 4.29156,-3.44704 2.30412,-1.76413 2.41937,-1.90056 2.42692,-2.87295 0.008,-0.98056 -0.0208,-1.01402 -0.71968,-0.84742 -0.40018,0.0954 -1.0502,0.40596 -1.44449,0.69014 -0.39429,0.28418 -0.83774,0.51669 -0.98543,0.51669 -0.1477,0 -1.25385,0.7967 -2.45811,1.77045 -1.20427,0.97375 -2.93418,2.08546 -3.84426,2.47048 -0.91007,0.38502 -1.69774,0.74918 -1.75038,0.80924 -0.19727,0.22512 -0.37317,4.47483 -0.18521,4.47483 0.10788,0 0.78123,-0.44313 1.49634,-0.98473 z m 0.17382,-5.60069 c 0.64155,-0.275 1.81228,-1.02546 2.60162,-1.66768 1.55844,-1.26798 4.8353,-3.47156 6.41066,-4.31096 0.60292,-0.32125 0.93318,-0.6639 0.84966,-0.88154 -0.0751,-0.1958 -0.13661,-0.45243 -0.13661,-0.57027 0,-0.42324 -1.33768,-0.54232 -2.05281,-0.18274 -0.39892,0.20058 -1.12178,0.44016 -1.60634,0.53239 -1.03764,0.1975 -2.04826,0.62417 -5.00596,2.11342 l -2.18281,1.09909 -0.0247,1.19196 c -0.0136,0.65558 -0.0551,1.63844 -0.0924,2.18414 -0.0373,0.54571 -0.036,0.99219 0.003,0.99219 0.0388,0 0.59537,-0.225 1.23693,-0.5 z m 1.20006,-6.6047 c 0.83259,-0.41509 2.31748,-1.0391 3.29975,-1.3867 0.98226,-0.34759 1.78593,-0.71993 1.78593,-0.82742 0,-0.10748 -0.44955,-0.42477 -0.99901,-0.70508 -0.54945,-0.28031 -1.71031,-1.04005 -2.57968,-1.68832 -2.76057,-2.05846 -2.68134,-2.05866 -2.9964,0.008 -0.44474,2.91675 -0.57521,5.35462 -0.28657,5.35462 0.14419,0 0.94338,-0.33961 1.77598,-0.7547 z m 18.29448,-3.1479 c 1.74899,-1.70987 3.97506,-3.85381 4.94684,-4.76431 1.69121,-1.58459 1.74755,-1.67679 1.31587,-2.15379 -0.74978,-0.82849 -4.3966,-2.85647 -6.50142,-3.61541 -1.08839,-0.39243 -2.73538,-1.11485 -3.66,-1.60537 -0.92462,-0.49052 -1.97719,-0.89185 -2.33906,-0.89185 -0.44801,0 -1.62799,0.82312 -3.6981,2.57969 -4.09909,3.47823 -5.27664,4.41994 -6.91095,5.52682 -0.76398,0.51743 -1.38906,0.97746 -1.38906,1.0223 0,0.0448 0.80367,0.67405 1.78594,1.39825 2.1417,1.57904 6.73082,3.82663 8.92968,4.37345 0.87313,0.21713 2.00422,0.58009 2.51355,0.80657 0.50932,0.22649 1.12869,0.41645 1.37638,0.42215 0.24769,0.006 1.88134,-1.38863 3.63033,-3.0985 z"
         id="path849" />
    </g>
  </g>
</svg>
