<?xml version="1.0" encoding="UTF-8" standalone="no"?>
<svg
   xmlns:dc="http://purl.org/dc/elements/1.1/"
   xmlns:cc="http://creativecommons.org/ns#"
   xmlns:rdf="http://www.w3.org/1999/02/22-rdf-syntax-ns#"
   xmlns:svg="http://www.w3.org/2000/svg"
   xmlns="http://www.w3.org/2000/svg"
   width="78.345337mm"
   height="20.899059mm"
   viewBox="0 0 78.345335 20.89906"
   version="1.1"
   id="svg8">
  <defs
     id="defs2" />
  <metadata
     id="metadata5">
    <rdf:RDF>
      <cc:Work
         rdf:about="">
        <dc:format>image/svg+xml</dc:format>
        <dc:type
           rdf:resource="http://purl.org/dc/dcmitype/StillImage" />
        <dc:title></dc:title>
      </cc:Work>
    </rdf:RDF>
  </metadata>
  <g
     id="layer1"
     transform="translate(-75.983255,-187.31137)">
    <g
       id="g847">
      <g
         id="g887">
        <g
           id="g927">
          <g
             id="g1657">
            <g
               id="g1697">
              <path
                 style="fill:#ddbb88;stroke-width:0.264583"
                 d="m 100.3557,208.05788 c -0.30142,-0.20855 -0.31297,-0.55052 -0.0654,-1.93561 0.16538,-0.92528 0.42307,-2.75388 0.57265,-4.06357 0.14957,-1.30969 0.34343,-2.78074 0.4308,-3.26901 0.15075,-0.84248 0.1299,-0.87227 -0.4087,-0.58402 -0.31215,0.16706 -1.72842,0.37447 -3.147261,0.46091 -3.288962,0.20037 -3.326586,0.16385 -2.774627,-2.6933 0.2249,-1.16417 0.421972,-3.00963 0.437938,-4.10104 l 0.02903,-1.98438 -3.571875,0.0913 c -2.425707,0.062 -3.826578,-0.0136 -4.365625,-0.23574 -0.96987,-0.3996 -5.440055,-0.78389 -8.929687,-0.76765 -2.478605,0.0115 -2.579688,-0.0106 -2.579688,-0.56526 0,-0.572 0.03069,-0.57571 3.373438,-0.40701 5.053797,0.25506 7.020392,0.43171 7.606771,0.6833 1.143946,0.49081 1.585243,0.51319 5.487871,0.27823 3.06808,-0.18471 4.111928,-0.16664 4.348747,0.0753 0.239177,0.24435 0.224507,0.96417 -0.06311,3.09648 -0.206098,1.52797 -0.452016,3.40321 -0.546483,4.16719 l -0.171759,1.38906 1.160908,0.003 c 0.638499,0.002 2.025764,-0.19888 3.082812,-0.44611 2.51994,-0.58939 2.59891,-0.50125 2.0874,2.32987 -0.21999,1.21764 -0.46212,3.23079 -0.53807,4.47366 -0.0759,1.24287 -0.21617,2.46326 -0.31161,2.71198 -0.17277,0.45024 0.40407,0.59261 2.13204,0.52622 0.29104,-0.0112 4.57729,-0.10054 9.525,-0.19857 4.94771,-0.098 9.34116,-0.19941 9.76322,-0.22528 0.89282,-0.0547 0.80154,0.33883 1.20758,-5.20641 0.16516,-2.25557 0.59803,-5.82744 0.96193,-7.9375 0.3639,-2.11005 0.71215,-4.18466 0.77388,-4.61025 0.0617,-0.42559 0.20456,-0.85334 0.3174,-0.95056 0.11284,-0.0972 1.75297,-0.0893 3.64474,0.0175 3.04343,0.17189 8.88626,-0.0482 11.1125,-0.41866 3.96996,-0.66055 11.03342,-0.58024 12.76615,0.14516 1.3705,0.57375 0.25598,1.57916 -1.15561,1.04248 -1.42054,-0.54009 -5.89501,-0.58464 -10.81679,-0.10769 -2.61937,0.25384 -6.96091,0.48942 -9.64786,0.52352 l -4.88537,0.062 -0.46701,2.08211 c -0.84856,3.78314 -1.23176,6.28826 -1.39104,9.09356 -0.35364,6.22872 -0.44313,6.87253 -1.01052,7.26995 -0.2991,0.2095 -0.65154,0.31432 -0.7832,0.23295 -0.2846,-0.17589 -8.86352,-0.14645 -17.00458,0.0584 -3.53212,0.0889 -5.96478,0.0468 -6.18693,-0.10687 z m 3.18664,-1.64897 c -0.5126,-0.55022 -0.93844,-2.25089 -0.67168,-2.68251 0.0795,-0.12871 0.35891,-0.16601 0.62082,-0.0829 0.57335,0.18197 0.7046,-0.23967 0.94629,-3.04003 0.1908,-2.21064 0.44154,-2.70276 1.0613,-2.08299 0.35139,0.35139 0.36786,0.72986 0.11891,2.73324 -0.15893,1.27896 -0.23585,2.37848 -0.17094,2.44339 0.0649,0.0649 0.36477,-0.0361 0.66635,-0.22441 0.41453,-0.25888 0.62287,-0.26789 0.85384,-0.0369 0.23098,0.23097 -0.0353,0.69742 -1.0914,1.91161 -0.76832,0.88334 -1.4935,1.60608 -1.61153,1.60608 -0.11803,0 -0.44291,-0.24506 -0.72196,-0.54458 z m 17.22478,-0.9945 c -0.25843,-0.16414 -0.24236,-0.67996 0.0761,-2.44335 0.52308,-2.89617 0.98377,-7.23538 1.05194,-9.9082 0.0297,-1.16416 0.14252,-2.44408 0.25074,-2.84427 0.24555,-0.90803 0.0718,-0.9169 -0.74326,-0.0379 -0.46744,0.50412 -0.79064,0.64168 -1.20133,0.51134 -0.89042,-0.28261 -0.66989,-0.78266 0.92376,-2.09464 1.67994,-1.38301 2.04601,-1.47173 2.5902,-0.62771 0.44605,0.69181 1.05198,3.79019 0.81591,4.17215 -0.22954,0.37141 -0.91503,0.32094 -0.96575,-0.0711 -0.0235,-0.1819 -0.12679,0.50271 -0.22947,1.52135 -0.10268,1.01865 -0.31184,2.62599 -0.4648,3.57188 -0.15296,0.94588 -0.41945,3.08223 -0.59219,4.74743 -0.17274,1.66521 -0.37378,3.18326 -0.44676,3.37344 -0.14911,0.38857 -0.57569,0.44048 -1.06513,0.12963 z m -21.536521,-9.28036 c -0.659888,-0.51906 -1.412615,-2.52148 -1.123625,-2.98907 0.07288,-0.11792 0.407561,-0.21441 0.743735,-0.21441 0.50076,0 0.640865,-0.17931 0.775223,-0.99218 0.0902,-0.54571 0.165309,-1.37914 0.166909,-1.85209 0.0024,-0.68698 0.110993,-0.85989 0.540379,-0.85989 0.75317,0 0.88063,0.53766 0.59629,2.51519 -0.22534,1.56714 -0.0998,2.13507 0.32145,1.45356 0.20136,-0.32581 1.10717,-0.3491 1.30223,-0.0335 0.0785,0.1271 -0.15541,0.57359 -0.51993,0.99218 -0.36452,0.4186 -0.9891,1.15742 -1.38795,1.64183 l -0.725193,0.88074 z"
                 id="path1699" />
            </g>
          </g>
        </g>
      </g>
    </g>
  </g>
</svg>
