<?xml version="1.0" encoding="UTF-8" standalone="no"?>
<svg
   xmlns:dc="http://purl.org/dc/elements/1.1/"
   xmlns:cc="http://creativecommons.org/ns#"
   xmlns:rdf="http://www.w3.org/1999/02/22-rdf-syntax-ns#"
   xmlns:svg="http://www.w3.org/2000/svg"
   xmlns="http://www.w3.org/2000/svg"
   width="60.024216mm"
   height="61.038788mm"
   viewBox="0 0 60.024216 61.038788"
   version="1.1"
   id="svg8">
  <defs
     id="defs2" />
  <metadata
     id="metadata5">
    <rdf:RDF>
      <cc:Work
         rdf:about="">
        <dc:format>image/svg+xml</dc:format>
        <dc:type
           rdf:resource="http://purl.org/dc/dcmitype/StillImage" />
        <dc:title></dc:title>
      </cc:Work>
    </rdf:RDF>
  </metadata>
  <g
     id="layer1"
     transform="translate(-80.074956,-106.8545)">
    <g
       id="g152"
       transform="translate(4.3811035e-7,24.870833)">
      <path
         style="fill:#bd6239;stroke-width:0.264583"
         d="m 80.434464,142.70827 c -0.4026,-0.29439 -0.43738,-0.55916 -0.250456,-1.90665 0.119388,-0.86064 0.234997,-1.80292 0.25691,-2.09396 0.02191,-0.29104 0.472493,-1.95791 1.00129,-3.70416 1.531755,-5.05833 3.18609,-13.03661 2.921664,-14.09017 -0.08297,-0.33059 -0.0084,-0.77275 0.165749,-0.98258 0.313921,-0.37825 0.364425,-1.40911 0.650759,-13.28299 l 0.12232,-5.0724 -0.943132,-0.71937 c -1.037301,-0.79118 -1.937686,-2.577009 -2.459684,-4.878539 -0.181527,-0.80036 -0.416302,-1.6338 -0.521723,-1.85208 -0.35406,-0.73311 0.275789,-4.903229 1.055227,-6.986462 0.93987,-2.512028 3.345241,-4.662499 5.201609,-4.650391 0.709789,0.0046 3.098088,1.383506 2.841218,1.640371 -0.0688,0.06881 0.35373,0.669107 0.93898,1.333987 1.62444,1.845463 1.76721,3.084968 0.79118,6.869167 -1.39832,5.421508 -2.21056,7.195178 -4.019689,8.777757 l -1.366298,1.19521 -0.199075,2.85549 c -0.284486,4.0806 -0.273633,5.10445 0.05411,5.10445 0.157659,0 1.197412,-0.36468 2.310563,-0.81041 1.113139,-0.44573 2.918919,-0.96771 4.012819,-1.15996 2.85624,-0.50198 6.35994,-2.26296 4.50246,-2.26296 -0.34962,0 -0.52917,-0.17639 -0.52917,-0.51986 0,-0.68258 0.90098,-1.17047 1.53494,-0.83119 0.39838,0.21321 0.84349,-0.14976 2.711975,-2.21154 1.22946,-1.35664 2.60272,-2.674369 3.05169,-2.928289 0.80109,-0.45307 0.83809,-0.44844 1.98437,0.24844 1.79419,1.090759 3.79267,2.548679 4.00431,2.921189 0.1932,0.34007 -0.0941,0.69116 -1.48504,1.8147 -0.82405,0.66565 -0.80994,0.72216 0.53637,2.14797 0.57632,0.61036 1.45548,2.58792 1.31419,2.95611 -0.0783,0.20417 -0.44384,0.37122 -0.81221,0.37122 -0.80093,0 -0.80652,0.10508 -0.1406,2.64583 0.28606,1.09141 0.52214,2.31909 0.52464,2.72819 0.004,0.72789 -0.02,0.74014 -1.14248,0.57182 l -1.14702,-0.17201 -0.43894,1.41256 c -0.24142,0.77692 -0.51352,1.79685 -0.60467,2.26653 -0.21915,1.12934 -0.77572,1.59721 -1.42077,1.19437 -1.39505,-0.87122 -5.44013,-2.18062 -6.736505,-2.18062 -1.02664,0 -1.50585,-0.13061 -1.84199,-0.50205 -0.43382,-0.47936 -0.40583,-0.56605 0.61931,-1.91823 0.59051,-0.7789 1.07417,-1.51447 1.0748,-1.6346 5.3e-4,-0.12013 -0.50488,-0.18857 -1.12334,-0.15209 -0.61847,0.0365 -1.7198,-0.1229 -2.4474,-0.35418 -0.7276,-0.23129 -2.69214,-0.48068 -4.36563,-0.5542 -1.673489,-0.0735 -3.234872,-0.20934 -3.469747,-0.3018 -0.591648,-0.23291 -0.763954,0.80515 -0.761948,4.59032 0.0011,2.09259 0.116821,3.28722 0.361987,3.73724 3.272438,6.00678 5.701378,10.94335 6.419178,13.04631 0.38787,1.13636 1.11875,2.7437 1.62419,3.57188 1.57859,2.58658 1.05058,4.69766 -0.66858,2.67311 -0.85018,-1.0012 -0.82516,-0.94401 -2.36289,-5.40067 -0.65274,-1.89177 -1.6862,-4.27302 -2.29657,-5.29167 -0.610379,-1.01864 -1.582382,-2.77482 -2.160014,-3.9026 -0.577632,-1.12779 -1.131734,-2.05052 -1.231339,-2.05052 -0.216752,0 -0.393157,0.5591 -0.6261,1.98437 -0.330474,2.02202 -1.485185,6.89062 -2.102213,8.86354 -0.644683,2.06135 -1.046622,3.94749 -1.327697,6.23037 -0.232071,1.88486 -0.640119,2.29826 -1.585885,1.6067 z M 105.4116,118.13631 c 0.12338,-0.32742 0.3047,-0.96502 0.40293,-1.41689 l 0.17861,-0.82158 -1.53396,-0.19696 c -0.84368,-0.10833 -1.90536,-0.23168 -2.35928,-0.2741 -0.45393,-0.0424 -1.04924,-0.1416 -1.32292,-0.22039 -0.68588,-0.19745 -1.955995,1.34133 -1.398475,1.69429 0.20444,0.12944 0.60984,0.23978 0.900885,0.2452 0.29104,0.005 1.06494,0.26154 1.71979,0.56915 0.65484,0.30762 1.60734,0.64849 2.11666,0.75752 0.50933,0.10902 0.95876,0.21191 0.99874,0.22864 0.04,0.0168 0.17364,-0.23746 0.29702,-0.56488 z m 2.60212,-3.9908 c 0.44843,0 0.42266,-0.57465 -0.0906,-2.01963 -0.23432,-0.65971 -0.46171,-1.33006 -0.50531,-1.48967 -0.088,-0.32208 -2.79931,-0.0432 -4.27322,0.43952 -0.70598,0.23122 -0.86758,0.44434 -1.01973,1.34487 -0.0994,0.58855 -0.0722,1.1787 0.0605,1.31143 0.31024,0.31024 3.97565,0.72623 4.83611,0.54886 0.3612,-0.0745 0.80769,-0.13538 0.99219,-0.13538 z m -8.806235,-1.40618 c 1.190535,-0.16318 1.242185,-0.20468 1.070185,-0.85989 -0.0994,-0.37865 -0.1677,-1.40282 -0.1518,-2.27595 0.0429,-2.35572 -0.0704,-2.41669 -2.448235,-1.31805 -1.1195,0.51724 -2.71849,1.06142 -3.55331,1.20929 -1.95837,0.34688 -3.00965,0.67012 -4.9405,1.51905 -1.410187,0.62001 -1.504745,0.7089 -0.926039,0.87052 0.35449,0.099 1.656549,0.20144 2.893479,0.22766 1.23693,0.0262 2.78474,0.20113 3.43958,0.38869 1.39738,0.40024 2.87904,0.47685 4.61664,0.23868 z m 3.074205,-3.84244 c -0.73008,-0.27008 -0.93962,-0.14072 -0.716,0.44202 0.13331,0.3474 0.26259,0.36535 0.75049,0.10424 l 0.58943,-0.31546 z m 4.54613,-0.22268 c 1.78042,-0.40439 1.93452,-0.82484 0.72651,-1.98218 l -0.79484,-0.76151 -1.58391,1.64401 -1.58391,1.644 0.8574,-0.0994 c 0.47157,-0.0547 1.54201,-0.25489 2.37875,-0.44494 z m -2.52755,-2.66985 c 2.01586,-1.51213 3.51974,-2.87924 3.51974,-3.19964 0,-0.34751 -0.8781,-1.11392 -1.69873,-1.48267 -0.71911,-0.32313 -0.82297,-0.28915 -1.71616,0.56155 -0.52291,0.49803 -1.22731,1.12905 -1.56534,1.40228 -0.33804,0.27323 -0.96743,1.01516 -1.39866,1.64874 -0.66243,0.97327 -0.73126,1.21951 -0.44372,1.5875 0.89218,1.14181 1.14285,1.10251 3.30287,-0.51776 z M 87.422972,100.0582 c 0.924684,-0.778069 2.524673,-3.917399 2.297833,-4.508539 -0.083,-0.21639 -0.0393,-0.32442 0.0972,-0.24007 0.25217,0.15585 1.14106,-2.515887 1.65974,-4.988731 0.46545,-2.219046 0.15332,-3.084651 -1.82056,-5.048842 -0.956179,-0.95149 -1.814845,-1.728023 -1.908146,-1.725629 -0.640383,0.01643 -2.385697,1.398535 -3.124739,2.474462 -0.948052,1.380214 -1.8183,3.91015 -1.568729,4.560521 0.09682,0.25232 0.04288,0.32895 -0.148371,0.210753 -0.501311,-0.309827 -0.07746,4.282096 0.596794,6.465536 0.63995,2.07235 1.682035,3.482289 2.573761,3.482289 0.294253,0 0.899605,-0.30679 1.345227,-0.68175 z m -2.275541,-3.596509 c -0.76508,-0.37832 -0.920612,-0.85194 -0.476397,-1.45071 0.309358,-0.41699 0.443533,-0.4393 0.913963,-0.15196 0.596798,0.36452 1.041555,0.21636 2.438316,-0.8123 0.699893,-0.51545 1.540452,-0.4705 1.540452,0.0824 0,0.46627 -1.911704,2.14771 -2.664589,2.34364 -0.989661,0.25754 -1.211422,0.25615 -1.751745,-0.011 z m -1.086998,-4.505904 c -0.332874,-0.332874 -0.431241,-1.332647 -0.158003,-1.605886 0.210367,-0.210366 1.498388,0.286249 1.734886,0.668911 0.510224,0.825559 -0.868857,1.645 -1.576883,0.936975 z m 3.611973,-0.719435 c -0.601971,-0.487447 -0.605294,-0.513669 -0.131461,-1.037248 0.404803,-0.447302 0.592524,-0.48868 1.122181,-0.247352 0.762539,0.347435 0.831329,1.140076 0.13146,1.514636 -0.38564,0.206387 -0.650193,0.152156 -1.12218,-0.230036 z m 34.445624,47.086538 c -0.3349,-0.21183 -0.32894,-0.3082 0.0447,-0.72355 0.23707,-0.26355 0.72598,-1.49121 1.08646,-2.72814 0.36048,-1.23692 1.21041,-3.79677 1.88872,-5.68854 1.71995,-4.79685 2.20093,-6.26875 2.93045,-8.96792 0.38508,-1.42477 0.85716,-2.55933 1.19643,-2.87541 0.50147,-0.46719 0.54003,-0.69267 0.36682,-2.14458 -0.10646,-0.89238 -0.17885,-1.74157 -0.16087,-1.88709 0.018,-0.14552 0.12479,-1.64371 0.23735,-3.32931 0.17525,-2.62442 0.14438,-3.12816 -0.21484,-3.50618 -0.38343,-0.40349 -0.53128,-0.40714 -1.71979,-0.0425 -1.19552,0.36677 -5.10888,0.4701 -11.32365,0.29899 -1.36451,-0.0376 -2.16705,-0.65101 -1.5972,-1.22086 0.31378,-0.31378 0.95942,-0.34281 6.0643,-0.27264 3.06283,0.0421 4.17368,-0.0563 6.416,-0.56849 l 2.71183,-0.61942 -0.026,-1.85208 c -0.0431,-3.067159 -0.31674,-4.763259 -0.76745,-4.756899 -0.7603,0.0107 -2.65271,-1.49538 -3.18165,-2.53218 -0.29282,-0.57398 -0.60266,-1.55612 -0.68851,-2.182523 -0.3045,-2.221523 1.21469,-6.421045 2.98061,-8.239349 1.13015,-1.163678 3.50314,-2.272688 5.24838,-2.452813 1.17574,-0.121346 1.56808,-0.037 2.57624,0.553818 1.54296,0.904237 1.90972,1.356593 2.31343,2.853371 0.39787,1.475114 0.16247,5.433041 -0.40373,6.788146 -0.53462,1.27952 -2.8004,3.29671 -4.84019,4.30912 -0.96559,0.47926 -1.79177,0.89341 -1.83596,0.92033 -0.12883,0.0785 -0.11814,0.83327 0.0609,4.303359 0.1168,2.26317 0.28281,3.38266 0.53973,3.63958 0.20407,0.20408 0.45181,0.62553 0.55053,0.93656 0.23777,0.74915 2.22774,3.81121 3.42838,5.2754 0.5265,0.64208 1.13714,1.38718 1.35698,1.65578 0.78837,0.96323 2.74274,3.91534 2.74274,4.14295 0,0.12774 -0.12013,0.30649 -0.26695,0.39723 -0.55377,0.34225 -1.2376,-0.18136 -2.10415,-1.61116 -0.4924,-0.81245 -1.51583,-2.23427 -2.2743,-3.15958 -0.75846,-0.92532 -1.93767,-2.52272 -2.62047,-3.54979 -0.68279,-1.02706 -1.29182,-1.86739 -1.35341,-1.86739 -0.0616,0 -0.11197,0.24515 -0.11197,0.54478 0,0.29963 0.11906,0.4712 0.26458,0.38126 0.14552,-0.0899 0.26458,-0.0445 0.26458,0.10106 0,0.14553 -0.10517,0.32959 -0.23373,0.40904 -0.12855,0.0795 -0.2125,2.3189 -0.18655,4.97655 0.0373,3.81669 0.13475,4.9989 0.46395,5.62585 0.22923,0.43656 0.74455,1.74625 1.14515,2.91042 1.26214,3.66787 3.27147,8.57641 4.55414,11.12523 1.04988,2.08623 1.18432,2.52092 0.88953,2.87612 -0.4517,0.54426 -0.90001,0.52984 -1.38581,-0.0446 -0.72165,-0.85329 -4.17238,-9.36663 -5.95748,-14.6978 -0.47871,-1.42967 -0.77571,-1.97933 -0.96643,-1.78862 -0.15143,0.15144 -0.3033,0.42537 -0.3375,0.60874 -0.12354,0.66257 -2.73324,8.16111 -3.60763,10.36594 -0.50599,1.27591 -1.01566,2.94216 -1.54428,5.04872 -0.48536,1.93419 -0.84642,2.51387 -1.56305,2.50949 -0.36466,-0.002 -0.83687,-0.11402 -1.04937,-0.24843 z m 10.20484,-43.173429 c 1.8223,-0.96807 3.49506,-2.374807 4.11188,-3.457953 0.60799,-1.067638 0.8882,-4.635124 0.49334,-6.281066 -0.27888,-1.162491 -0.42251,-1.349029 -1.24869,-1.621696 -1.59361,-0.525936 -3.36504,-0.184781 -5.05639,0.973794 -1.27569,0.873848 -1.65967,1.343133 -2.52907,3.090923 -0.92926,1.868124 -1.02814,2.268032 -1.05833,4.280264 -0.0317,2.115754 0.003,2.257614 0.7438,3.031674 1.06282,1.11062 2.43187,1.10582 4.54346,-0.0159 z m -3.50632,-0.4927 c -0.88034,-0.35526 -1.41737,-1.33391 -1.41737,-2.582941 0,-2.031088 1.48969,-1.771012 1.63944,0.286219 0.067,0.920052 0.18127,1.118182 0.68639,1.189822 0.33332,0.0473 1.00797,-0.15119 1.49923,-0.441041 0.97892,-0.57758 1.20202,-0.511098 1.20202,0.358181 0,1.22831 -1.93433,1.86586 -3.60971,1.18976 z m 3.13346,-3.759307 c -0.44555,-0.445549 -0.39581,-0.85253 0.16636,-1.361285 0.60407,-0.546679 0.95186,-0.551869 1.48162,-0.02211 0.59489,0.594892 0.52324,0.814774 -0.41863,1.284639 -0.99424,0.495992 -0.84417,0.483937 -1.22935,0.09875 z m -2.76126,-1.071563 c -0.23553,-0.181901 -0.46664,-0.628385 -0.51359,-0.992187 -0.0731,-0.566532 0.01,-0.651242 0.5761,-0.590269 0.88678,0.09544 1.38403,0.775452 1.03877,1.420568 -0.30995,0.579157 -0.52085,0.610159 -1.10128,0.161888 z"
         id="path1151" />
    </g>
  </g>
</svg>
