<?xml version="1.0" encoding="UTF-8" standalone="no"?>
<svg
   xmlns:dc="http://purl.org/dc/elements/1.1/"
   xmlns:cc="http://creativecommons.org/ns#"
   xmlns:rdf="http://www.w3.org/1999/02/22-rdf-syntax-ns#"
   xmlns:svg="http://www.w3.org/2000/svg"
   xmlns="http://www.w3.org/2000/svg"
   width="101.66596mm"
   height="87.290604mm"
   viewBox="0 0 101.66596 87.290605"
   version="1.1"
   id="svg8">
  <defs
     id="defs2" />
  <metadata
     id="metadata5">
    <rdf:RDF>
      <cc:Work
         rdf:about="">
        <dc:format>image/svg+xml</dc:format>
        <dc:type
           rdf:resource="http://purl.org/dc/dcmitype/StillImage" />
        <dc:title></dc:title>
      </cc:Work>
    </rdf:RDF>
  </metadata>
  <g
     id="layer1"
     transform="translate(-43.9907,-144.20524)">
    <g
       id="g114"
       transform="translate(25.571055,10.155612)">
      <path
         style="fill:#948679;stroke-width:0.264583"
         d="m 79.417365,220.96194 c -0.26534,-0.31971 -0.24322,-0.42581 0.11768,-0.5643 0.52129,-0.20004 1.07713,0.25439 0.82001,0.67041 -0.24416,0.39505 -0.55054,0.36038 -0.93769,-0.10611 z m -16.539059,-0.92917 c -0.17631,-0.28528 0.04782,-0.79631 0.346345,-0.7897 0.100552,0.002 0.361416,0.12129 0.579697,0.26458 0.352777,0.23159 0.352777,0.28948 0,0.52107 -0.506749,0.33266 -0.722368,0.3336 -0.926042,0.004 z m 24.260269,0.0593 c -0.3358,-0.0551 -0.56412,-0.23976 -0.50737,-0.41044 0.14324,-0.4308 1.51481,-0.45064 1.51481,-0.0219 0,0.44479 -0.25755,0.55532 -1.00744,0.43236 z M 56.050429,219.3344 c -0.275852,-0.27585 0.07354,-0.62456 0.625785,-0.62456 0.282453,0 0.513551,0.1786 0.513551,0.39688 0,0.39244 -0.812255,0.55476 -1.139336,0.22768 z m 11.992541,-3.92547 c -0.189902,-0.22882 -0.266459,-0.49486 -0.170121,-0.5912 0.236952,-0.23695 1.579208,0.25307 1.601922,0.58482 0.03043,0.44434 -1.064276,0.44922 -1.431801,0.006 z m 34.77318,-2.27839 c -0.0978,-0.1582 -0.0556,-0.40977 0.0936,-0.55903 0.33381,-0.33381 0.84667,-0.0519 0.84667,0.46541 0,0.44546 -0.68095,0.51325 -0.94029,0.0936 z m -60.821398,-0.47613 c -0.07975,-0.12904 0.02522,-0.37587 0.233241,-0.54852 0.435588,-0.3615 0.236108,-1.1605 -0.243761,-0.97636 -0.176318,0.0677 -0.480838,0.024 -0.676709,-0.0971 -0.605274,-0.37408 1.267979,-1.94075 2.388492,-1.99759 0.509323,-0.0258 1.311161,-0.13623 1.781863,-0.24534 0.664821,-0.15409 0.891995,-0.10409 1.017902,0.22402 0.216387,0.56389 -0.75487,1.72019 -2.446327,2.91241 -1.407985,0.9924 -1.804657,1.13304 -2.054701,0.72846 z m 63.209728,-4.53949 c -0.24795,-0.4012 0.42411,-1.1325 0.74546,-0.81116 0.29673,0.29673 0.0659,1.08733 -0.3175,1.08733 -0.1415,0 -0.33408,-0.12427 -0.42796,-0.27617 z m -24.874235,-1.3284 c -0.27694,-0.4481 0.66722,-1.10321 1.33348,-0.92524 0.29104,0.0777 0.73752,0.14297 0.99219,0.14496 0.25466,0.002 0.46302,0.12268 0.46302,0.2682 0,0.14552 -0.45244,0.26458 -1.00542,0.26458 -0.55298,0 -1.13485,0.12944 -1.29305,0.28764 -0.20713,0.20713 -0.34434,0.19589 -0.49022,-0.0401 z m -24.463397,-1.68709 c 0,-0.5341 0.299421,-0.65178 0.992188,-0.38995 0.85082,0.32156 0.735123,0.77121 -0.198438,0.77121 -0.514718,0 -0.79375,-0.13403 -0.79375,-0.38126 z m 9.141375,-1.1848 c -0.296815,-0.48026 0.115314,-0.82622 0.829879,-0.69664 1.191303,0.21602 1.208029,0.51554 0.04509,0.80742 -0.404651,0.10156 -0.772517,0.055 -0.874967,-0.11078 z m -26.339292,-2.12249 c 0,-0.40084 0.492596,-0.59205 1.060702,-0.41174 0.796115,0.25267 0.631256,0.6607 -0.266952,0.6607 -0.436562,0 -0.79375,-0.11203 -0.79375,-0.24896 z m 12.766146,-2.7276 c 0.06063,-0.1819 0.268994,-0.33073 0.463021,-0.33073 0.194027,0 0.402386,0.14883 0.463021,0.33073 0.06558,0.19674 -0.122002,0.33073 -0.463021,0.33073 -0.341019,0 -0.5286,-0.13399 -0.463021,-0.33073 z m 44.925038,-3.49125 c -0.2767,-0.3334 -0.26069,-0.43407 0.0905,-0.56882 0.57713,-0.22147 1.29024,0.0802 1.15435,0.48834 -0.16483,0.49504 -0.86329,0.5402 -1.24483,0.0805 z m -24.630409,-1.01508 c -0.765834,-0.6035 -1.310775,-1.62885 -1.310775,-2.46635 0,-0.82044 0.72112,-2.95458 1.853266,-5.48473 0.314712,-0.70331 0.532485,-1.3156 0.483947,-1.36063 -0.538737,-0.49976 -2.161929,-1.14739 -2.531647,-1.01008 -0.485841,0.18043 -1.387158,0.89659 -4.740278,3.7665 -1.878753,1.60802 -2.067113,1.70453 -3.326638,1.70453 -1.074473,0 -1.431454,-0.11896 -1.828554,-0.60936 -0.271385,-0.33515 -0.493429,-0.9268 -0.493429,-1.31478 0,-0.38797 1.04608,-2.7858 2.324624,-5.3285 1.278546,-2.54269 2.603018,-5.33746 2.943272,-6.21058 0.813092,-2.08646 2.613235,-5.7011 3.125526,-6.27598 0.364792,-0.40937 0.362262,-0.54647 -0.02516,-1.36291 -0.820859,-1.72983 -0.45248,-3.22228 1.019972,-4.1323 0.800526,-0.49475 1.232077,-0.57372 2.596046,-0.47506 1.476791,0.10682 1.683615,0.0577 2.126306,-0.5051 1.806778,-2.29695 7.909611,-1.92479 10.787861,0.65785 1.60541,1.44053 2.35364,3.2976 2.35364,5.84162 0,0.98893 0.0746,1.87269 0.16583,1.9639 0.0912,0.0912 0.52655,-0.0207 0.96742,-0.24868 1.12125,-0.57982 3.91786,-0.39254 4.70254,0.31491 0.50398,0.45438 0.55819,0.71701 0.44397,2.15067 -0.1042,1.30791 -0.42718,2.21919 -1.62205,4.57663 -2.41816,4.77093 -3.97724,6.8231 -5.71604,7.52382 -0.81467,0.3283 -1.08503,0.32041 -2.24798,-0.0656 -0.87808,-0.29146 -1.35343,-0.60695 -1.41575,-0.93964 -0.0781,-0.41713 0.0102,-0.46781 0.52818,-0.30314 1.6524,0.52525 2.29332,0.47103 3.27402,-0.27699 0.97825,-0.74614 2.4867,-2.80015 3.48093,-4.73984 0.29836,-0.58209 0.77748,-1.47506 1.06472,-1.98438 0.28724,-0.50932 0.77762,-1.66505 1.08975,-2.56829 0.73435,-2.12506 0.53645,-2.75792 -0.8969,-2.86813 -2.34281,-0.18014 -3.80207,0.94324 -4.31228,3.31975 -0.37988,1.76942 -2.49698,6.25302 -3.82628,8.10332 -0.53446,0.74392 -0.97175,1.42345 -0.97175,1.51004 0,0.67484 -2.8142,4.53644 -4.58512,6.29162 -2.74086,2.7165 -4.470806,3.60208 -5.481184,2.80588 z m 2.842676,-1.99761 c 2.27874,-1.89773 4.134023,-4.03668 5.251533,-6.05451 0.54683,-0.98736 1.20031,-2.09285 1.45219,-2.45665 0.25187,-0.36381 0.69173,-1.07818 0.97746,-1.5875 0.28574,-0.50933 0.88549,-1.58089 1.33278,-2.38125 0.4473,-0.80037 1.14999,-2.40771 1.56154,-3.57188 0.6845,-1.93628 0.74694,-2.42107 0.73256,-5.68854 -0.0127,-2.89485 -0.10747,-3.76277 -0.49981,-4.579 -0.83459,-1.73632 -2.36952,-2.5828 -5.62706,-3.10319 -2.34667,-0.37489 -4.206495,0.15459 -4.865,1.38502 -0.230344,0.4304 -0.07046,0.5788 1.255254,1.1651 1.806326,0.79884 5.310086,3.16994 5.665476,3.834 0.73898,1.38078 0.003,2.69885 -1.56579,2.80389 -1.2485,0.0836 -7.707496,-1.97773 -8.530329,-2.72238 -0.442699,-0.40064 -0.589778,-0.41258 -1.181473,-0.0959 -0.755669,0.40442 -2.494032,2.63815 -2.494032,3.20473 0,0.20138 -0.280982,0.78074 -0.624403,1.28747 -0.343421,0.50672 -0.899311,1.69522 -1.235311,2.6411 -0.335999,0.94589 -0.70745,1.84815 -0.825447,2.00503 -0.117996,0.15688 -1.177414,2.21312 -2.354265,4.56942 -2.318708,4.64255 -2.483308,5.41624 -1.178282,5.53839 0.813046,0.0761 1.061572,-0.10536 5.649767,-4.12504 2.010974,-1.7618 2.947247,-2.20646 4.006305,-1.90273 0.808355,0.23183 2.647053,1.83694 2.647053,2.31077 0,0.12098 -0.53217,1.40161 -1.1826,2.84583 -1.437296,3.19138 -1.729452,4.69437 -1.056952,5.43748 0.677963,0.74914 0.979384,0.66398 2.688836,-0.75965 z m 5.746783,-21.37176 c 0.23755,-0.0912 0.41852,-0.46716 0.41852,-0.86957 0,-0.54259 -0.31016,-0.94051 -1.32167,-1.69568 -1.38879,-1.03683 -4.427581,-2.5514 -6.218959,-3.09961 -0.582083,-0.17814 -1.15376,-0.41088 -1.270394,-0.51721 -0.335706,-0.30605 -1.36012,-0.0131 -2.135746,0.61083 -0.4616,0.3713 -0.769506,0.93414 -0.87622,1.60172 l -0.164534,1.02925 0.955349,-0.17922 c 0.804974,-0.15101 1.12997,-0.0527 2.064708,0.62439 0.610148,0.44199 1.277104,0.80361 1.48213,0.80361 0.205023,0 1.407549,0.346 2.672281,0.76888 3.270045,1.09339 3.709225,1.18559 4.394535,0.92261 z m -45.288254,19.56454 c -0.361491,-0.14587 -0.460888,-0.88311 -0.119063,-0.88311 0.273838,0 0.846667,0.57283 0.846667,0.84667 0,0.23141 -0.217424,0.2423 -0.727604,0.0364 z m 80.979879,-0.37626 c -0.35716,-0.35716 -0.15439,-1.21679 0.33095,-1.40303 0.49501,-0.18995 0.72679,0.26517 0.53144,1.04351 -0.17663,0.70375 -0.41767,0.80424 -0.86239,0.35952 z M 46.782821,189.4293 c -0.313793,-0.31379 -0.191116,-0.48167 0.61164,-0.837 0.801439,-0.35476 1.857804,-0.21601 1.857804,0.24402 0,0.50776 -2.060001,1.00242 -2.469444,0.59298 z m -28.206293,-2.84713 c -0.357373,-0.43061 -0.0865,-1.19629 0.632662,-1.78834 0.797753,-0.65677 2.635043,-1.66339 2.429758,-1.33123 -0.09711,0.15713 -0.0458,0.36651 0.114029,0.46529 0.186712,0.11539 0.02273,0.4676 -0.458705,0.98524 -0.412114,0.44311 -0.601835,0.72152 -0.4216,0.61869 0.218746,-0.12479 0.276378,-0.0532 0.17334,0.2153 -0.0849,0.22124 -0.291893,0.37625 -0.45999,0.34447 -0.168098,-0.0318 -0.265945,0.12082 -0.217438,0.3391 0.04851,0.21828 0.0065,0.31518 -0.09335,0.21533 -0.09985,-0.0998 -0.457737,-0.0765 -0.795303,0.0518 -0.426838,0.16229 -0.70197,0.12706 -0.903403,-0.11565 z m 84.915322,-3.9742 c 0,-0.86451 0.12106,-1.26743 0.41466,-1.38009 0.7602,-0.29172 1.01305,0.31948 0.58065,1.40358 -0.57792,1.44895 -0.99531,1.4391 -0.99531,-0.0235 z m -72.429689,-0.16835 c -0.327422,-0.12387 -0.595313,-0.34811 -0.595313,-0.49833 0,-0.44653 0.987589,-0.30993 1.168546,0.16164 0.216702,0.56472 0.143362,0.60779 -0.573233,0.33669 z m 6.945312,-2.81497 c -0.712893,-0.17523 -1.190625,-0.58914 -1.190625,-1.03157 0,-0.49094 0.698365,-0.46551 0.889431,0.0324 0.08376,0.21828 0.384419,0.39687 0.668126,0.39687 0.698688,0 1.35286,0.26957 1.35286,0.55748 0,0.24658 -0.812808,0.26776 -1.719792,0.0448 z m 81.192097,-3.3762 c -0.23717,-0.61805 0.37001,-1.19095 0.70316,-0.66347 0.1371,0.21707 0.214,0.50628 0.17089,0.64271 -0.14266,0.45146 -0.70366,0.46478 -0.87405,0.0208 z M 47.93156,174.5314 c -0.302186,-0.19104 -0.321852,-0.32232 -0.08393,-0.56024 0.393115,-0.39312 1.140052,-0.12274 1.140052,0.41268 0,0.45609 -0.465283,0.5211 -1.056122,0.14756 z m -13.726796,-2.21472 c -0.291242,-0.35135 -0.297923,-0.51664 -0.03375,-0.83495 0.446683,-0.53822 0.705379,-0.4988 0.870508,0.13266 0.07616,0.29124 0.03953,0.46837 -0.08141,0.39363 -0.120935,-0.0747 -0.258659,0.0627 -0.306053,0.30542 -0.08015,0.41051 -0.111518,0.41074 -0.449296,0.003 z m -10.221676,-3.35012 c -0.514532,-0.56855 -0.490934,-0.70938 0.13376,-0.79832 0.715607,-0.10188 0.999401,1.6e-4 1.159287,0.41681 0.09035,0.23546 0.046,0.34167 -0.103984,0.24897 -0.143854,-0.0889 -0.261553,0.024 -0.261553,0.25084 0,0.56268 -0.351852,0.5178 -0.92751,-0.1183 z m 25.828286,-0.0946 c -0.236558,-0.28503 -0.241715,-0.43436 -0.01974,-0.57155 0.410112,-0.25346 0.811017,0.19521 0.550736,0.61636 -0.16868,0.27293 -0.27473,0.26398 -0.530998,-0.0448 z m 54.574226,-3.5418 c -0.0814,-0.25467 -0.27765,-0.73332 -0.43614,-1.06368 -0.20814,-0.43387 -0.20773,-0.68109 0.002,-0.8903 0.33707,-0.33708 1.12841,0.97762 1.12841,1.87469 0,0.66225 -0.48955,0.7182 -0.69375,0.0793 z m -70.73013,-0.95211 c -0.492607,-0.49261 -0.29967,-0.70154 0.647836,-0.70154 0.612077,0 0.926042,0.1241 0.926042,0.36603 0,0.45662 -1.197492,0.7119 -1.573878,0.33551 z m 15.10232,-0.79203 c -0.32376,-0.39011 -0.142848,-0.70326 0.406281,-0.70326 0.194027,0 0.352777,0.23813 0.352777,0.52917 0,0.61048 -0.33342,0.68695 -0.759058,0.17409 z m 70.00601,-1.03399 c -0.15401,-0.98876 0.22348,-1.60138 0.61002,-0.98997 0.13723,0.21706 0.25134,0.72208 0.25357,1.12226 0.006,1.04137 -0.69755,0.93363 -0.86359,-0.13229 z m -3.86017,-3.72851 c -0.16208,-0.19529 -0.22455,-0.42521 -0.13882,-0.51094 0.25565,-0.25565 0.89788,0.10015 0.89788,0.49745 0,0.4676 -0.37663,0.47429 -0.75906,0.0135 z m -58.361621,-1.6534 c -0.598948,-0.59895 -0.143296,-1.06072 0.635429,-0.64396 0.575439,0.30797 0.622911,0.81731 0.09265,0.99406 -0.155913,0.052 -0.48355,-0.10557 -0.728075,-0.3501 z m -15.580021,-0.54917 c -0.427271,-0.42727 -0.131734,-0.88194 0.573262,-0.88194 0.921528,0 1.19099,0.23595 0.803156,0.70326 -0.311547,0.37539 -1.079958,0.47515 -1.376418,0.17868 z m -10.587569,-1.00576 c -0.08197,-0.21362 -0.05926,-0.44389 0.05047,-0.51171 0.329858,-0.20386 0.917339,0.28939 0.721699,0.60595 -0.252747,0.40895 -0.595112,0.36717 -0.77217,-0.0942 z m 64.687336,-2.68492 c -0.88054,-0.61676 -0.31082,-1.08732 0.5966,-0.49275 0.37936,0.24856 0.68974,0.5573 0.68974,0.68609 0,0.3677 -0.61794,0.27482 -1.28634,-0.19334 z m -30.47138,-1.83078 c -0.182748,-0.22019 -0.272809,-0.45981 -0.200142,-0.53248 0.186894,-0.18689 1.001615,0.15652 1.001615,0.42219 0,0.43691 -0.476041,0.50242 -0.801473,0.11029 z m -15.071918,-1.12681 c -0.509866,-0.41286 -0.543378,-0.52222 -0.200364,-0.65385 0.582708,-0.2236 1.478381,0.47331 1.101005,0.85668 -0.210367,0.21371 -0.453993,0.15885 -0.900641,-0.20283 z m -12.681993,-1.8741 c -0.883184,-0.24681 -1.026819,-0.82623 -0.204814,-0.82623 0.430131,0 0.699826,0.18042 0.791028,0.52917 0.07611,0.29104 0.119761,0.5173 0.097,0.50279 -0.02275,-0.0145 -0.330205,-0.10708 -0.683218,-0.20573 z m 17.905905,-0.58284 c -0.470919,-0.27428 -0.647039,-1.03714 -0.239445,-1.03714 0.122967,0 0.420624,0.21774 0.661458,0.48386 0.724403,0.80045 0.502298,1.09165 -0.422013,0.55328 z m 20.746,-1.10062 c -0.344686,-0.34468 -0.413959,-0.99485 -0.106,-0.99485 0.110517,0 0.346205,0.23261 0.523748,0.5169 0.365601,0.58542 0.05037,0.94608 -0.417748,0.47795 z m 36.348181,-0.61935 c -0.24607,-0.37556 -0.3772,-0.86579 -0.29139,-1.08941 0.12639,-0.32936 0.25584,-0.27968 0.68157,0.26154 0.54354,0.69101 0.70164,1.5107 0.29139,1.5107 -0.12879,0 -0.43549,-0.30727 -0.68157,-0.68283 z m -21.397475,-2.93314 c -0.26644,-0.26643 -0.21138,-0.88194 0.0789,-0.88194 0.1404,0 0.38272,0.23812 0.53848,0.52916 0.21907,0.40935 0.20121,0.52917 -0.0789,0.52917 -0.19915,0 -0.44146,-0.0794 -0.53847,-0.17639 z m 14.421945,-2.81525 c -0.39567,-0.42235 -0.51297,-0.71989 -0.3287,-0.83377 0.38454,-0.23766 1.13655,0.54466 1.02937,1.07087 -0.069,0.33863 -0.20419,0.29287 -0.70067,-0.2371 z m -52.389702,-2.08995 c -0.295392,-0.46654 -0.473118,-0.95174 -0.394944,-1.07823 0.211667,-0.34249 1.409224,0.88415 1.409224,1.44344 0,0.7306 -0.4151,0.58113 -1.01428,-0.36521 z m 11.454442,0.0369 c -0.243507,-0.394 0.03882,-0.60822 0.545404,-0.41382 0.233781,0.0897 0.350951,0.28301 0.260382,0.42956 -0.214466,0.34701 -0.586081,0.33975 -0.805786,-0.0157 z m 25.281185,-2.4928 c -0.26534,-0.31972 -0.24321,-0.42581 0.11768,-0.5643 0.5213,-0.20004 1.07713,0.25438 0.82001,0.6704 -0.24415,0.39506 -0.55054,0.36039 -0.93769,-0.1061 z m -18.008041,-1.07807 c -0.314301,-0.37871 -0.285702,-0.41997 0.235355,-0.33954 0.326224,0.0504 0.597347,0.20764 0.602496,0.34953 0.01617,0.44532 -0.464738,0.43959 -0.837851,-0.01 z"
         id="path116" />
    </g>
  </g>
</svg>
