<?xml version="1.0" encoding="UTF-8" standalone="no"?>
<svg
   xmlns:dc="http://purl.org/dc/elements/1.1/"
   xmlns:cc="http://creativecommons.org/ns#"
   xmlns:rdf="http://www.w3.org/1999/02/22-rdf-syntax-ns#"
   xmlns:svg="http://www.w3.org/2000/svg"
   xmlns="http://www.w3.org/2000/svg"
   width="75.552826mm"
   height="21.289562mm"
   viewBox="0 0 75.552826 21.289562"
   version="1.1"
   id="svg8">
  <defs
     id="defs2" />
  <metadata
     id="metadata5">
    <rdf:RDF>
      <cc:Work
         rdf:about="">
        <dc:format>image/svg+xml</dc:format>
        <dc:type
           rdf:resource="http://purl.org/dc/dcmitype/StillImage" />
        <dc:title></dc:title>
      </cc:Work>
    </rdf:RDF>
  </metadata>
  <g
     id="layer1"
     transform="translate(-22.060871,-44.312785)">
    <g
       id="g152"
       transform="translate(4.3811035e-7,24.870833)">
      <path
         style="fill:#ddbb88;fill-opacity:1;stroke-width:0.264583"
         d="m 90.342987,40.593853 c -1.067916,-0.417552 -0.732321,-1.479349 0.418156,-1.323014 0.662146,0.08998 3.215341,-2.08546 3.21864,-2.742428 7.94e-4,-0.134062 0.190394,-0.452779 0.4216,-0.708259 0.599827,-0.662801 0.912008,-2.242538 0.541801,-2.741686 -0.269293,-0.363086 -0.446532,-0.358593 -1.696064,0.04299 -1.370658,0.440506 -1.405385,0.438404 -1.9626,-0.118811 -0.654185,-0.654184 -0.429008,-1.122558 0.787032,-1.637058 0.804868,-0.340535 2.26654,-2.335915 2.733546,-3.73166 0.168555,-0.503761 0.409276,-1.029038 0.534937,-1.167283 0.452265,-0.49756 0.254413,-2.42128 -0.300694,-2.923646 -0.291041,-0.263389 -0.529166,-0.696293 -0.529166,-0.962008 0,-0.808637 -1.263386,-0.93611 -2.458845,-0.248092 -1.17616,0.676913 -2.303655,0.574551 -2.303655,-0.209142 0,-0.728564 0.786283,-1.295612 2.253231,-1.624974 2.397495,-0.538291 3.250372,-0.125836 4.927071,2.382758 0.667692,0.99897 0.769614,1.358288 0.633177,2.232205 -0.08944,0.57287 -0.324718,1.406307 -0.522849,1.852084 -1.435756,3.230346 -1.733735,3.938489 -1.672042,3.973579 1.040318,0.591728 1.545693,1.059936 1.667375,1.544756 0.427014,1.701356 -1.440376,5.362695 -3.640865,7.138543 -1.272177,1.026678 -2.173623,1.31373 -3.049786,0.97115 z M 57.695013,37.778638 c -1.21989,-0.137957 -2.039331,-0.945338 -1.55354,-1.53068 0.183422,-0.221011 0.598966,-0.401838 0.92343,-0.401838 1.857772,0 3.594872,-2.70169 4.747717,-7.384063 0.805736,-3.272555 0.89693,-5.59335 0.245388,-6.24489 -0.728366,-0.728368 -3.085679,-0.05784 -3.412077,0.97055 -0.248073,0.781607 -0.818076,1.08607 -1.425093,0.761203 -0.784442,-0.41982 -0.674431,-1.199684 0.322725,-2.287768 0.789207,-0.861175 1.02952,-0.96093 2.623066,-1.088844 2.275353,-0.182644 3.022497,0.02504 3.514775,0.977005 1.12186,2.169436 -0.402653,9.751392 -2.637814,13.118802 -0.511087,0.769985 -0.929248,1.471878 -0.929248,1.559763 0,0.08788 0.922734,0.08577 2.050521,-0.0047 2.456381,-0.197048 3.585482,0.126052 3.457929,0.989509 -0.08117,0.549452 -0.219868,0.573991 -3.524075,0.623473 -1.891771,0.02833 -3.873436,0.0024 -4.403704,-0.05752 z M 22.520241,36.938815 c -0.997421,-0.807663 -0.420428,-1.092383 2.221696,-1.096308 3.646312,-0.0054 3.517768,0.07985 3.715855,-2.464858 0.09255,-1.188956 0.34735,-3.173769 0.566218,-4.410696 0.457821,-2.587357 0.510701,-4.981355 0.12273,-5.556251 -0.221502,-0.328221 -0.468522,-0.179471 -1.427982,0.859896 -1.289488,1.396883 -1.686427,1.512915 -2.416362,0.706346 -0.49386,-0.545709 -0.485396,-0.562143 0.988067,-1.918229 2.612174,-2.404089 4.131291,-3.616763 4.530717,-3.616763 0.84988,0 1.060377,0.698081 0.737259,2.445003 -0.16847,0.910822 -0.4093,2.965727 -0.535179,4.566456 -0.125879,1.600729 -0.382991,4.190073 -0.57136,5.754097 -0.260014,2.158904 -0.268506,2.917662 -0.03526,3.150904 0.182032,0.182032 0.994203,0.284983 1.993099,0.252645 1.823081,-0.05902 3.016329,0.510564 2.714454,1.295713 -0.127262,0.330999 -1.107131,0.403846 -6.082777,0.452216 -5.376126,0.05226 -5.98629,0.01295 -6.52117,-0.420171 z"
         id="path1117" />
    </g>
  </g>
</svg>
