<?xml version="1.0" encoding="UTF-8" standalone="no"?>
<svg
   xmlns:dc="http://purl.org/dc/elements/1.1/"
   xmlns:cc="http://creativecommons.org/ns#"
   xmlns:rdf="http://www.w3.org/1999/02/22-rdf-syntax-ns#"
   xmlns:svg="http://www.w3.org/2000/svg"
   xmlns="http://www.w3.org/2000/svg"
   width="109.89885mm"
   height="85.233086mm"
   viewBox="0 0 109.89885 85.233086"
   version="1.1"
   id="svg8">
  <defs
     id="defs2" />
  <metadata
     id="metadata5">
    <rdf:RDF>
      <cc:Work
         rdf:about="">
        <dc:format>image/svg+xml</dc:format>
        <dc:type
           rdf:resource="http://purl.org/dc/dcmitype/StillImage" />
        <dc:title></dc:title>
      </cc:Work>
    </rdf:RDF>
  </metadata>
  <g
     id="layer1"
     transform="translate(-58.741477,-96.616349)">
    <g
       id="g865">
      <path
         style="fill:#dab;stroke-width:0.264583"
         d="m 126.40564,181.42264 c -0.54517,-0.29817 -1.16344,-0.54213 -1.37394,-0.54213 -0.51607,0 -2.2308,-0.99372 -3.11881,-1.80742 -0.39682,-0.36361 -0.86195,-1.0867 -1.03362,-1.60686 -0.17167,-0.52017 -0.64069,-1.4828 -1.04226,-2.13918 -0.40157,-0.65637 -1.11921,-2.01146 -1.59475,-3.01129 -0.87532,-1.84038 -3.18075,-4.66441 -3.80783,-4.66441 -0.18791,0 -0.41712,-0.30071 -0.50937,-0.66824 -0.27989,-1.1152 -3.22264,-3.56005 -4.28902,-3.56335 -0.3096,-0.001 -0.71113,-0.18034 -0.89229,-0.39862 -0.21699,-0.26146 -0.80803,-0.39688 -1.7322,-0.39688 -0.94179,0 -2.05429,-0.26086 -3.38512,-0.79375 -1.09026,-0.43656 -2.10665,-0.79375 -2.25865,-0.79375 -0.152,0 -0.94647,-0.54582 -1.765507,-1.21293 -1.387083,-1.12979 -1.540838,-1.19152 -2.243283,-0.90055 -0.816734,0.3383 -1.315241,0.18375 -1.315241,-0.40775 0,-0.20534 -0.357188,-0.63742 -0.79375,-0.96019 -0.436563,-0.32276 -0.79375,-0.6795 -0.79375,-0.79274 0,-0.38554 -2.038128,-3.36092 -2.87651,-4.1993 -0.459463,-0.45946 -1.220597,-1.65557 -1.691415,-2.65801 -0.544193,-1.15867 -1.014553,-1.82454 -1.291183,-1.82787 -0.239334,-0.003 -1.249201,0.24619 -2.244148,0.5535 -1.662367,0.51345 -1.991675,0.53306 -4.062764,0.24195 -1.603751,-0.22542 -2.594639,-0.23834 -3.435639,-0.0448 -1.221472,0.28109 -1.860841,0.067 -1.860841,-0.62323 0,-0.45985 2.582328,-0.64561 4.943507,-0.35562 1.965772,0.24144 2.751021,0.12914 5.303239,-0.75842 1.658856,-0.57687 2.128253,-1.00883 2.238137,-2.05961 0.07305,-0.69858 -0.01082,-0.80784 -0.710925,-0.92604 -1.119055,-0.18894 -2.513541,-1.001 -2.513541,-1.46372 0,-0.49876 0.547952,-0.4995 1.206201,-0.002 1.025601,0.77572 1.70521,0.49608 3.837646,-1.57909 1.121524,-1.0914 2.261166,-1.98504 2.532539,-1.98585 1.240869,-0.004 2.50136,-0.59391 3.186311,-1.49193 l 0.718613,-0.94215 -1.308886,-1.13588 c -1.140391,-0.98965 -1.428091,-1.11799 -2.234924,-0.99693 -0.509323,0.0764 -1.342213,0.39143 -1.850864,0.70001 -1.685856,1.02276 -2.78846,1.4123 -4.51277,1.59431 -1.473502,0.15554 -1.930935,0.0883 -3.354546,-0.49272 -0.906614,-0.37008 -1.933985,-0.67285 -2.28305,-0.67285 -0.723916,0 -3.359338,-1.51371 -4.443019,-2.55194 -0.61883,-0.59288 -0.889101,-0.67457 -1.819111,-0.54983 -0.600762,0.0806 -1.296721,0.33151 -1.546576,0.55763 -0.249854,0.22611 -1.22542,0.6493 -2.167924,0.94041 -1.889093,0.58348 -2.741131,1.27907 -4.904659,4.00411 -1.494087,1.88186 -2.326027,3.3743 -2.607256,4.67723 -0.228216,1.05732 0.107394,1.10811 1.984954,0.3004 1.274571,-0.5483 2.104821,-0.53419 2.104821,0.0358 0,0.15766 -0.357187,0.41117 -0.79375,0.56336 -0.436562,0.15218 -0.79375,0.36336 -0.79375,0.46928 0,0.30241 1.190191,1.34315 1.536028,1.34315 0.749784,0 5.472463,-2.73338 6.502698,-3.76361 1.629359,-1.62936 1.811406,-2.057 1.198098,-2.8144 -0.651369,-0.80441 -0.383405,-1.24907 0.431105,-0.71539 0.342702,0.22455 0.807927,0.33734 1.033833,0.25065 0.225905,-0.0867 0.602741,-0.0839 0.83741,0.006 0.355317,0.13634 0.369226,0.23295 0.08316,0.57764 -0.492877,0.59387 0.147576,0.92867 1.396706,0.73012 0.539274,-0.0857 1.65345,-0.0718 2.475947,0.031 1.188648,0.14851 1.69315,0.37072 2.459087,1.08312 1.106837,1.02947 0.715751,1.1993 -0.883814,0.38379 -1.449673,-0.73908 -2.665711,-0.91494 -3.857548,-0.55786 -0.793038,0.2376 -1.141518,0.23317 -1.546349,-0.0197 -0.467307,-0.29183 -0.685237,-0.15616 -2.059588,1.28221 -0.845341,0.88472 -2.043933,1.93744 -2.663539,2.33938 -0.909407,0.58993 -1.067117,0.80241 -0.818193,1.10235 0.213841,0.25766 0.223863,0.45605 0.0327,0.64722 -0.191166,0.19117 -0.404037,0.0924 -0.694453,-0.32223 -0.369585,-0.52766 -0.499961,-0.56092 -1.109736,-0.28309 -0.968388,0.44123 -0.720933,0.82451 1.016853,1.57501 l 1.504293,0.64965 1.391297,-0.70254 c 1.532465,-0.77382 2.85909,-0.99249 3.033834,-0.50008 0.124544,0.35096 -2.48486,1.76141 -3.774864,2.04041 -0.633234,0.13696 -1.266715,-0.0509 -2.910416,-0.86292 -1.155553,-0.57089 -2.527852,-1.17342 -3.049552,-1.33897 -0.5217,-0.16554 -1.271298,-0.63786 -1.665774,-1.04961 -0.519361,-0.54209 -0.896937,-0.71427 -1.368632,-0.6241 -0.358271,0.0685 -1.015543,-0.0263 -1.460604,-0.21066 -1.041264,-0.4313 -3.062337,-2.90914 -3.282747,-4.02465 -0.245736,-1.24368 -0.683602,-2.34045 -1.279428,-3.20471 -0.454739,-0.65961 -0.501102,-1.04472 -0.366316,-3.04271 0.111103,-1.64694 0.04867,-2.58389 -0.222939,-3.34585 -0.20749,-0.58208 -0.379048,-1.3682 -0.381239,-1.74691 -0.0048,-0.83498 2.495022,-6.22537 2.967273,-6.39828 0.268947,-0.0985 0.270007,-0.19303 0.0053,-0.47361 -0.1819,-0.19281 -0.330728,-0.59559 -0.330728,-0.89507 0,-0.85338 1.258491,-3.02816 2.812896,-4.86093 0.781241,-0.92114 1.420437,-1.84862 1.420437,-2.06106 0,-1.65196 3.692591,-5.39226 5.323479,-5.39226 0.600641,0 0.990074,-0.30052 1.912692,-1.47603 1.262149,-1.60811 3.410078,-3.28647 4.205959,-3.28647 0.590922,0 2.81934,-1.47639 3.020791,-2.00136 0.241221,-0.62861 3.25695,-1.96739 4.431742,-1.96739 0.595685,0 1.885709,-0.229533 2.866723,-0.510078 0.981012,-0.280544 2.834815,-0.571533 4.119557,-0.646641 1.284743,-0.07511 2.862967,-0.325124 3.507163,-0.555592 0.722088,-0.258333 2.490351,-0.474125 4.610852,-0.56269 1.89177,-0.07901 3.73724,-0.176135 4.10105,-0.21583 0.3638,-0.03969 1.28653,-0.09081 2.05052,-0.113585 1.01388,-0.03023 1.38906,-0.144389 1.38906,-0.422674 0,-0.674242 0.46701,-0.703635 2.1534,-0.135531 l 1.65106,0.5562 0.41287,-0.533774 c 0.37294,-0.482144 0.47686,-0.497753 1.07434,-0.161372 0.76431,0.430311 2.80203,0.515984 3.04189,0.127893 0.0895,-0.144794 0.54299,-0.260289 1.0078,-0.256655 0.4648,0.0036 1.49994,-0.04284 2.3003,-0.103263 1.29642,-0.09788 1.6181,-0.01 2.948,0.805797 l 1.49279,0.915667 1.10184,-0.532353 c 1.58141,-0.764049 4.58986,-0.591788 5.79905,0.332047 0.70026,0.535008 2.18812,0.898951 3.15682,0.77218 0.75837,-0.09924 1.18879,0.02209 1.90567,0.537192 1.87295,1.345772 3.26388,2.025982 4.14287,2.025982 1.3941,0 2.43488,0.59565 4.58838,2.62597 1.52258,1.43548 2.22248,1.9108 3.00751,2.04246 1.4556,0.24413 5.30665,2.89198 7.1145,4.89168 1.7052,1.88617 2.06358,2.25816 4.24531,4.40649 0.84426,0.83134 1.81282,2.10684 2.15235,2.83444 0.33953,0.72761 1.33731,2.09683 2.21728,3.04271 1.36903,1.47158 1.69522,2.02529 2.26007,3.83646 0.36306,1.16417 0.73988,2.71198 0.83737,3.43958 0.0975,0.72761 0.40089,1.76738 0.67422,2.31062 0.27334,0.54324 0.43555,1.14779 0.36047,1.34344 -0.0751,0.19565 0.0122,0.70368 0.19404,1.12896 0.20531,0.48026 0.33898,2.12658 0.3528,4.34511 0.0205,3.30283 0.0753,3.68148 0.72659,5.02708 0.61719,1.27514 0.67099,1.58617 0.43474,2.51354 -0.14829,0.58209 -0.37808,1.53459 -0.51067,2.11667 -0.13258,0.58208 -0.41253,1.53458 -0.6221,2.11667 -0.23152,0.64305 -0.32576,1.53183 -0.24017,2.26503 0.10638,0.91121 0.004,1.47587 -0.41994,2.30597 -0.61274,1.20108 -2.57798,3.23421 -3.12621,3.23421 -0.20152,0 -0.34358,0.31245 -0.34358,0.7557 0,0.44619 -0.35992,1.23184 -0.87878,1.91823 -0.48333,0.63939 -0.95584,1.37088 -1.05003,1.62554 -0.22109,0.5978 -1.31864,0.60111 -2.2258,0.007 l -0.69641,-0.4563 0.16349,1.00751 c 0.20513,1.26404 -0.23255,3.75279 -0.84551,4.80776 -0.25616,0.44088 -0.54779,1.1285 -0.64807,1.52802 -0.10027,0.39953 -0.57272,1.1699 -1.04987,1.71193 -0.47716,0.54204 -1.30107,1.58792 -1.83092,2.3242 -0.96236,1.33729 -3.24039,3.29931 -4.92942,4.24561 -0.49194,0.27562 -1.08894,0.62019 -1.32665,0.76571 -0.23772,0.14552 -0.90678,0.55448 -1.48681,0.90879 -0.58002,0.35432 -1.37871,0.9094 -1.77485,1.23351 -0.54325,0.44447 -1.22601,0.63414 -2.77812,0.77176 -1.13183,0.10036 -3.18896,0.36516 -4.57141,0.58846 -1.38245,0.22329 -3.70417,0.43875 -5.15938,0.4788 -1.45521,0.0401 -3.12208,0.14874 -3.70416,0.24153 -0.80068,0.12763 -1.29965,0.0367 -2.04957,-0.37343 z m 4.95998,-1.21921 c 1.45521,-0.0299 3.65787,-0.23511 4.89479,-0.45592 1.23693,-0.22081 3.20146,-0.4798 4.36563,-0.57554 1.29149,-0.1062 2.42611,-0.35943 2.91042,-0.64955 0.43656,-0.26152 1.76704,-1.07722 2.95662,-1.81267 1.18958,-0.73544 2.39128,-1.40967 2.67044,-1.49827 0.6036,-0.19157 3.99949,-3.47377 5.45878,-5.27602 0.56742,-0.70077 1.16751,-1.6502 1.33354,-2.10985 0.16602,-0.45965 0.54823,-1.31197 0.84935,-1.89406 0.77399,-1.49619 0.97434,-3.11398 0.52023,-4.20082 -0.31777,-0.76053 -0.60109,-0.96172 -1.92147,-1.36444 -0.85181,-0.2598 -1.861,-0.64866 -2.24265,-0.86413 -1.03486,-0.58426 -1.83963,-0.2266 -2.87797,1.27902 -1.24518,1.80555 -3.61374,4.2039 -5.16915,5.23416 -0.92181,0.61059 -1.57677,0.84226 -2.38116,0.84226 -0.66573,0 -1.36198,0.19269 -1.74057,0.48173 -0.70087,0.53508 -3.51543,1.23481 -3.9318,0.97748 -0.14634,-0.0904 -2.26149,-0.21205 -4.70034,-0.27024 -2.43885,-0.0582 -5.02958,-0.20947 -5.75719,-0.33617 -1.5107,-0.26307 -3.9369,-1.26227 -4.38969,-1.80784 -0.16792,-0.20234 -0.65931,-0.36788 -1.09198,-0.36788 -1.17784,0 -2.11298,-0.6822 -3.12961,-2.28311 -0.74204,-1.16852 -1.01314,-1.40678 -1.44288,-1.26809 -0.29104,0.0939 -1.36924,0.2552 -2.39598,0.35839 -1.02675,0.10318 -2.01111,0.27679 -2.18747,0.38579 -0.43169,0.26679 0.27448,1.14816 2.03476,2.53959 0.74693,0.59041 1.35806,1.23255 1.35806,1.42695 0,0.19442 0.4492,0.87626 0.99821,1.51521 2.02011,2.35102 3.16364,4.25484 5.70385,9.4961 0.50399,1.0399 4.88425,3.03529 5.99794,2.73231 0.3638,-0.099 1.85208,-0.20445 3.30729,-0.23439 z m 1.45521,-13.36364 c 2.63355,0.18388 4.8143,-0.0175 6.85965,-0.63361 1.22619,-0.36932 2.53588,-0.67546 2.91042,-0.68029 0.37453,-0.005 1.15722,-0.35912 1.73931,-0.78729 0.58208,-0.42818 1.48825,-1.0701 2.0137,-1.4265 0.52545,-0.3564 1.28403,-1.22251 1.68572,-1.92469 0.4017,-0.70218 1.15043,-1.6415 1.66386,-2.08738 0.91222,-0.7922 0.92267,-0.82335 0.45827,-1.36572 -0.42635,-0.49794 -0.67256,-0.54011 -2.3935,-0.40996 l -1.91827,0.14508 -1.35021,-1.26296 c -0.88897,-0.83152 -1.3502,-1.11819 -1.3502,-0.83918 0,0.50622 -0.78664,0.97234 -1.63625,0.96953 -0.33699,-0.001 -1.80333,0.28601 -3.25854,0.63805 -1.45521,0.35205 -3.34707,0.76688 -4.20414,0.92185 -0.85706,0.15497 -1.8691,0.49088 -2.24896,0.74646 -0.82069,0.55218 -1.23891,0.61904 -4.52711,0.72377 -1.38245,0.044 -2.8692,0.22195 -3.30389,0.39537 -0.43469,0.17342 -1.77573,0.38485 -2.98008,0.46984 -2.74033,0.19339 -3.20474,0.47302 -2.72181,1.63892 0.60015,1.44888 1.69028,2.40527 2.74163,2.40527 0.59609,0 1.2022,0.22745 1.68203,0.6312 0.96766,0.81424 2.57215,1.48046 3.62224,1.50406 0.45518,0.0102 1.04998,0.106 1.32178,0.21283 0.27181,0.10683 1.4029,0.1436 2.51354,0.0817 1.11065,-0.0619 2.31701,-0.0917 2.68081,-0.0663 z m -19.57916,-5.52204 c 1.0914,-0.13655 2.1332,-0.25563 2.3151,-0.26463 0.1819,-0.009 0.33073,-0.26837 0.33073,-0.57638 0,-0.42226 0.12514,-0.5273 0.5087,-0.427 0.27978,0.0732 0.87797,-0.0915 1.32931,-0.36602 0.45134,-0.27447 1.06453,-0.49904 1.36264,-0.49904 0.49787,0 0.47579,-0.0804 -0.27097,-0.98633 -0.44716,-0.54248 -0.81433,-1.16755 -0.81593,-1.38906 -0.004,-0.55444 -2.43102,-3.25102 -3.00134,-3.33473 -0.25462,-0.0374 -0.764,-0.26521 -1.13197,-0.50631 -0.36796,-0.2411 -0.83013,-0.37654 -1.02704,-0.30098 -0.1969,0.0756 -0.81236,-0.22465 -1.36768,-0.66712 -0.55533,-0.44248 -1.36687,-0.98826 -1.80343,-1.21284 -0.43656,-0.22458 -1.15004,-0.70584 -1.58551,-1.06947 -0.43547,-0.36363 -1.28836,-0.874 -1.89532,-1.13417 -0.8118,-0.34798 -1.39479,-0.90192 -2.20517,-2.09525 -0.87783,-1.29267 -1.17497,-1.56135 -1.46266,-1.32258 -0.29017,0.24082 -0.418,0.0881 -0.65128,-0.77827 -0.18319,-0.68031 -0.44359,-1.07789 -0.70597,-1.07789 -0.22865,0 -1.04047,-0.56555 -1.804045,-1.25677 -3.00001,-2.71575 -4.287721,-2.79551 -6.778373,-0.41983 -0.841508,0.80266 -1.471679,1.6114 -1.400382,1.7972 0.0713,0.18579 -0.129021,1.09787 -0.445148,2.02683 -0.316129,0.92896 -0.57712,2.11003 -0.579977,2.62458 -0.0065,1.16873 0.705562,2.59258 1.271267,2.54207 0.266928,-0.0238 0.749737,0.55484 1.292768,1.54946 0.822803,1.50704 1.726263,2.96321 2.676001,4.3131 0.346345,0.49227 0.502028,0.54785 0.812606,0.29009 0.297249,-0.2467 0.358738,-0.81183 0.271741,-2.49744 -0.117734,-2.28112 -0.193302,-2.51152 -1.170967,-3.57035 -1.60307,-1.73615 -2.154126,-2.45785 -2.030028,-2.65864 0.234428,-0.37931 0.916151,0.0559 1.32449,0.84552 0.215927,0.41756 0.670873,0.94153 1.010989,1.16438 0.340114,0.22285 0.830768,0.87615 1.090338,1.45178 0.259572,0.57562 0.663426,1.10439 0.897456,1.17502 0.234029,0.0706 1.898634,0.19394 3.699114,0.27399 3.09832,0.13776 3.32501,0.18615 4.23334,0.90367 0.81596,0.64455 1.29661,0.78714 3.20868,0.95188 1.23693,0.10657 2.40965,0.32406 2.60604,0.4833 0.1964,0.15924 0.69182,0.26403 1.10092,0.23286 1.47024,-0.11203 2.74469,0.84995 1.85473,1.39998 -0.26251,0.16224 -2.2974,-0.32972 -2.78357,-0.67296 -0.14552,-0.10274 -1.33614,-0.27103 -2.64583,-0.37399 -2.1303,-0.16746 -2.4649,-0.26707 -3.175,-0.94525 -0.67985,-0.64929 -1.05951,-0.77592 -2.64583,-0.88251 -1.01865,-0.0684 -2.73292,-0.21028 -3.80949,-0.31519 l -1.957403,-0.19074 0.180388,1.42742 c 0.117374,0.92879 0.362119,1.58086 0.700632,1.8667 0.286134,0.24161 0.520245,0.59577 0.520245,0.78703 0,0.61047 1.883328,2.04908 3.279698,2.50524 0.74278,0.24265 1.69914,0.61766 2.12524,0.83337 1.57393,0.79678 4.62366,0.91222 9.14715,0.34627 z m 47.74516,-1.77424 c 1.2008,-1.57263 1.23425,-2.6978 0.14442,-4.85675 -0.43657,-0.86482 -0.79375,-1.74873 -0.79375,-1.96423 0,-0.2155 -0.57029,-0.96304 -1.26731,-1.66119 -1.30233,-1.30445 -3.08202,-3.54527 -4.34115,-5.46596 -0.90458,-1.37985 -2.6208,-2.22073 -3.24944,-1.5921 -0.22138,0.22139 -0.40252,0.50028 -0.40252,0.61976 0,0.11947 -0.60431,0.67651 -1.34291,1.23787 -0.73859,0.56135 -2.00525,1.88385 -2.8148,2.93887 l -1.47189,1.91823 h -1.55083 c -1.54125,0 -1.55082,0.005 -1.55082,0.7813 0,1.19887 0.53052,2.13265 2.074,3.65047 1.49953,1.47462 2.13737,1.66195 3.919,1.15099 0.72164,-0.20697 0.99547,-0.12053 2.09535,0.66146 0.69587,0.49474 1.47535,0.89953 1.73219,0.89953 0.25684,0 0.52987,0.10176 0.60673,0.22612 0.16816,0.27209 3.08312,1.26216 4.41672,1.50016 0.52436,0.0936 1.29826,0.3975 1.7198,0.67539 0.42153,0.27789 0.85026,0.50605 0.95274,0.507 0.10247,0.001 0.60849,-0.55115 1.12447,-1.22692 z m -37.11188,-0.86445 c 1.26656,-0.3622 2.22223,-0.46444 3.36919,-0.36044 1.98984,0.18043 2.78322,-0.29602 4.51964,-2.7142 1.17339,-1.63408 1.18983,-1.68597 1.05833,-3.33929 l -0.13357,-1.67941 -1.95889,-0.036 c -2.58807,-0.0476 -3.27559,0.18324 -4.804,1.61289 -0.70633,0.66069 -1.40064,1.20126 -1.54293,1.20126 -0.68136,0 -1.60482,-0.58352 -2.88124,-1.8206 -0.76861,-0.74492 -1.55383,-1.35441 -1.74493,-1.35441 -0.1911,0 -0.54736,-0.22089 -0.79169,-0.49088 -0.59836,-0.66117 -3.9898,-0.95946 -5.94629,-0.523 -1.10307,0.24608 -1.46768,0.45733 -1.65933,0.9614 -0.31411,0.82617 0.11337,1.3754 1.0705,1.3754 0.39093,0 0.9419,0.17481 1.22438,0.38846 0.28247,0.21365 0.80558,0.39225 1.16245,0.39688 0.63936,0.008 2.39384,1.4459 2.39384,1.96149 0,0.35909 1.08464,1.48557 1.43519,1.49056 0.15653,0.002 0.45554,0.11221 0.66447,0.24442 0.30592,0.19357 0.3158,0.31755 0.0508,0.6369 -0.27315,0.32913 -0.1578,0.57842 0.67847,1.46634 1.1575,1.22898 1.42968,1.2703 3.83565,0.58225 z m 13.97296,-2.69832 c 0.65485,-0.14843 1.66688,-0.33509 2.24896,-0.41481 0.58209,-0.0797 1.1803,-0.24289 1.32935,-0.3626 0.28504,-0.22893 0.27771,-1.48866 -0.0234,-4.0223 -0.20193,-1.69897 -0.2978,-1.62023 1.86908,-1.53493 1.1481,0.0452 1.41326,-0.0466 2.00654,-0.69478 0.37598,-0.41077 0.92994,-1.18049 1.231,-1.7105 l 0.5474,-0.96364 -0.99743,-0.97397 c -0.94312,-0.92093 -1.12367,-0.98546 -3.31626,-1.18531 -1.27536,-0.11624 -2.54465,-0.1523 -2.82066,-0.0801 -0.276,0.0722 -1.24264,-0.0782 -2.14808,-0.3341 -1.2724,-0.35966 -2.84796,-0.48065 -6.93792,-0.53278 -2.91042,-0.0371 -5.50003,0.0427 -5.75469,0.17726 -0.53717,0.28391 -0.59566,1.38173 -0.20178,3.78709 0.30587,1.86789 1.19865,3.01103 2.02076,2.58743 0.27287,-0.14059 1.6354,-0.33224 3.02784,-0.42587 2.44826,-0.16462 2.55176,-0.14891 3.1395,0.47672 0.4016,0.42749 0.64914,1.07887 0.7297,1.92019 0.0671,0.70029 0.24463,1.59661 0.39459,1.99181 0.24133,0.636 0.163,0.84669 -0.68173,1.83357 -0.52492,0.61324 -0.9544,1.19156 -0.9544,1.28514 0,0.16692 2.94184,-0.2909 5.29167,-0.8235 z m 26.10508,-0.64785 c 1.01675,-0.77551 1.94076,-2.41543 1.94076,-3.44445 0,-0.43702 -0.47938,-1.31637 -1.26781,-2.32564 -0.6973,-0.8926 -1.6703,-2.2487 -2.16224,-3.01355 -0.86335,-1.34229 -2.25361,-2.40532 -3.7137,-2.83959 -0.3638,-0.10821 -1.25677,-0.64927 -1.98438,-1.20235 -0.7276,-0.55309 -1.64263,-1.1502 -2.03339,-1.32692 -0.64569,-0.292 -0.77159,-0.25179 -1.3807,0.44098 -0.88931,1.01144 -0.85912,1.21067 0.2761,1.82203 0.52967,0.28525 1.26964,0.99693 1.64436,1.58152 0.57723,0.90053 2.50293,3.41156 2.94565,3.84101 0.075,0.0728 0.5455,0.60854 1.04555,1.19062 0.50004,0.58209 1.15468,1.18016 1.45475,1.32905 0.33279,0.16512 0.57488,0.57793 0.62066,1.05833 0.0744,0.78086 1.31245,3.56575 1.58516,3.56575 0.0781,0 0.5412,-0.30456 1.02923,-0.67679 z m -39.04114,-3.98074 0.71893,-0.68878 -0.7706,-1.2151 c -0.42383,-0.66831 -0.7706,-1.44994 -0.7706,-1.73695 0,-0.28701 -0.13194,-1.27952 -0.29321,-2.20557 -0.26962,-1.5483 -0.36405,-1.71333 -1.17403,-2.05176 -0.48446,-0.20242 -1.10009,-0.31069 -1.36808,-0.24061 -0.26798,0.0701 -1.24168,-0.2469 -2.16377,-0.7044 -2.94687,-1.4621 -3.65634,-1.63547 -5.24117,-1.2808 -1.05445,0.23598 -1.56649,0.23914 -2.0634,0.0127 -0.94779,-0.43184 -0.81456,-0.84165 0.27362,-0.84165 1.25011,0 2.65564,-0.61555 3.03834,-1.33064 0.17122,-0.31993 0.26363,-0.99008 0.20536,-1.48922 -0.0924,-0.79178 -0.0366,-0.89762 0.43759,-0.82978 0.4846,0.0693 0.54354,0.26423 0.54354,1.79733 0,1.68927 0.0145,1.72424 0.81969,1.98476 0.45083,0.14585 0.98661,0.39896 1.19063,0.56247 0.7788,0.62416 2.09564,1.15716 2.85889,1.15716 0.43694,0 1.09173,0.13546 1.4551,0.30102 0.53118,0.24202 0.85138,0.21051 1.63384,-0.16079 0.53525,-0.25399 1.40442,-0.4587 1.93148,-0.45492 4.61195,0.0332 10.85629,0.27113 11.32053,0.43142 0.8434,0.29121 1.28151,-0.62764 0.87974,-1.84504 -0.33536,-1.01616 -3.23626,-3.43233 -3.84189,-3.19992 -0.19345,0.0742 -0.81605,-0.2014 -1.38357,-0.61251 -1.18808,-0.86064 -2.15355,-1.1216 -4.56131,-1.23291 -6.87658,-0.31788 -8.28529,-0.61635 -9.88112,-2.09354 -0.70797,-0.65534 -1.17086,-0.89328 -1.52135,-0.78204 -0.62891,0.19961 -0.70864,-0.69929 -0.10636,-1.19913 0.33137,-0.27502 0.56219,-0.15358 1.38906,0.73081 0.5454,0.58336 1.27764,1.20733 1.6272,1.38661 0.61899,0.31747 4.85139,0.76598 8.66416,0.91814 1.04027,0.0415 2.01712,0.15319 2.1708,0.24817 0.15368,0.095 0.85762,-0.24271 1.56431,-0.75042 0.73704,-0.52952 1.77244,-1.00107 2.42835,-1.10595 1.75054,-0.27993 4.73053,-2.02517 6.23266,-3.65019 1.50649,-1.62974 3.13903,-2.80381 3.8987,-2.80381 0.28466,0 0.86326,-0.2042 1.28577,-0.45379 0.72834,-0.43023 0.79226,-0.42939 1.23145,0.0162 0.44145,0.44785 0.43835,0.48841 -0.0659,0.86216 -0.29105,0.2157 -0.82683,0.45623 -1.19063,0.5345 -1.52343,0.32775 -2.3099,0.83055 -4.15095,2.65376 -1.8152,1.79762 -4.13893,3.22435 -6.37729,3.91555 -0.4315,0.13324 -0.56272,0.32478 -0.45502,0.66412 0.12097,0.38115 -0.0396,0.5127 -0.79968,0.6553 -1.09588,0.20559 -1.0985,0.68754 -0.005,0.9799 0.40971,0.10958 0.99727,0.41915 1.30567,0.68793 1.03145,0.89897 1.84577,1.17767 2.60147,0.89035 1.15676,-0.4398 3.91322,-2.60007 5.91958,-4.63924 1.03992,-1.05693 2.40208,-2.26768 3.027,-2.69056 0.77948,-0.52745 1.24677,-1.09083 1.48827,-1.79431 0.31677,-0.92272 0.29679,-1.14804 -0.19938,-2.24896 -1.08497,-2.40738 -0.55907,-8.39888 0.82269,-9.37274 0.24772,-0.17459 0.83622,-1.00204 1.30777,-1.83878 0.47156,-0.83674 0.9679,-1.58965 1.10298,-1.67313 0.13508,-0.0835 0.76941,0.0482 1.40962,0.29275 2.22391,0.84932 2.20988,-0.1754 -0.0343,-2.50769 -0.84651,-0.87973 -1.62724,-1.60008 -1.73497,-1.60077 -0.10773,-6.9e-4 -0.98765,-0.54335 -1.95539,-1.20589 -1.32983,-0.91044 -1.96045,-1.18505 -2.58226,-1.12448 -0.76347,0.0744 -0.81736,0.14601 -0.74817,0.99464 0.041,0.50298 0.24936,1.10767 0.46302,1.34375 0.47469,0.52454 0.51024,1.13225 0.0577,0.98693 -0.45231,-0.14525 -1.65614,-2.40135 -2.19432,-4.11236 -0.38445,-1.22229 -0.67034,-1.57977 -2.17328,-2.71752 -1.74519,-1.32114 -2.07302,-1.43802 -3.19267,-1.13819 -0.83283,0.22302 -0.61068,1.04149 0.7841,2.88886 0.58935,0.78059 1.02736,1.5518 0.97336,1.71381 -0.16983,0.50949 -2.34667,-2.33671 -2.98255,-3.89966 -0.48743,-1.19809 -0.88957,-1.69574 -2.02644,-2.50773 -1.55743,-1.11237 -2.3191,-1.254605 -2.94525,-0.54999 -0.6751,0.75968 -0.36596,2.30135 0.7146,3.56375 0.89992,1.05135 1.2293,2.05865 0.67318,2.05865 -0.14552,0 -0.26458,-0.15784 -0.26458,-0.35076 0,-0.19291 -0.30805,-0.6394 -0.68456,-0.99219 -0.99231,-0.92978 -1.46026,-2.16502 -1.66712,-4.40065 -0.0485,-0.524294 -3.2237,-1.92932 -4.36003,-1.92932 -0.57139,0 -1.41514,0.237388 -1.89262,0.532487 -0.69032,0.426639 -0.89598,0.761829 -1.0346,1.686243 -0.29204,1.94743 -2.32763,4.08662 -3.31062,3.47911 -0.4847,-0.29957 -0.3039,-0.87188 0.32532,-1.0298 0.75694,-0.18998 1.7864,-1.55526 2.04829,-2.71646 0.19373,-0.858959 0.16441,-0.897894 -1.16109,-1.541913 -0.74792,-0.363386 -1.55787,-0.805447 -1.79989,-0.982358 -0.34396,-0.251421 -0.92169,-0.252888 -2.64583,-0.0067 -1.21319,0.173215 -2.68204,0.374964 -3.26413,0.44833 -1.76914,0.222986 -1.82474,0.293368 -1.04224,1.319278 0.52396,0.686953 0.60494,0.928473 0.3113,0.928473 -0.21828,0 -0.71472,-0.41672 -1.1032,-0.926048 -0.49905,-0.654289 -0.9159,-0.926332 -1.42047,-0.927031 -0.39277,-5.55e-4 -1.11466,-0.245171 -1.60419,-0.543617 -0.48953,-0.298445 -1.14437,-0.506359 -1.45521,-0.462031 -0.49768,0.07097 -0.5552,0.225065 -0.48183,1.290711 0.0578,0.838747 -0.0396,1.312126 -0.31719,1.542526 -0.22029,0.18282 -0.53144,0.72907 -0.69144,1.21388 -0.16,0.48481 -0.46375,0.9478 -0.67499,1.02886 -0.58375,0.22401 -0.47673,-0.72848 0.14509,-1.29121 0.35535,-0.32159 0.52917,-0.81491 0.52917,-1.501892 0,-1.564795 -0.55601,-1.712468 -4.97844,-1.322251 -1.99129,0.175703 -4.156304,0.319083 -4.811148,0.318622 -0.654844,-4.5e-4 -1.905,0.213116 -2.778125,0.474614 -1.531088,0.458555 -1.584539,0.504505 -1.504167,1.293087 0.11365,1.11505 -0.286263,1.26987 -0.843494,0.32655 -0.253209,-0.42864 -0.602477,-0.79015 -0.776152,-0.80335 -1.609164,-0.12224 -3.591081,0.0967 -4.916393,0.54319 -0.880215,0.29653 -2.050631,0.53958 -2.600925,0.54013 -1.079233,0.001 -2.637494,0.7982 -2.900585,1.48381 -0.08937,0.23289 0.08707,0.93711 0.392092,1.56493 0.468217,0.96373 0.4973,1.18903 0.186764,1.44675 -0.296093,0.24574 -0.47506,0.0951 -0.917753,-0.77269 -0.576037,-1.12913 -1.052512,-1.33777 -1.58628,-0.69462 -0.174979,0.21084 -0.755105,0.51749 -1.289167,0.68144 -1.855617,0.56966 -2.755521,1.19384 -4.174348,2.89535 -0.784785,0.94115 -1.426883,1.84241 -1.426883,2.00281 0,0.27289 0.825081,1.10648 1.520714,1.53641 0.169442,0.10472 0.744576,0.008 1.278077,-0.21489 1.282286,-0.53577 3.152404,-0.5145 4.102392,0.0467 0.732155,0.4325 0.782968,0.42965 1.179359,-0.0661 0.22783,-0.28496 0.584776,-0.89711 0.793212,-1.36032 0.447334,-0.99411 1.324727,-1.67134 2.165327,-1.67134 0.803576,0 0.759454,0.27368 -0.176528,1.09499 -0.428511,0.37602 -1.150527,1.41456 -1.604481,2.30788 -0.453951,0.89332 -0.879623,1.62422 -0.945935,1.62422 -0.06631,0 -0.608762,-0.30819 -1.205442,-0.68485 -1.11475,-0.70371 -1.939253,-0.74651 -4.404663,-0.22864 -1.074383,0.22568 -3.162395,-0.76417 -3.514735,-1.6662 -0.127893,-0.32742 -0.326959,-0.59531 -0.442369,-0.59531 -0.378912,0 -2.832497,2.15881 -3.467903,3.05126 -0.80149,1.12573 -0.794838,1.74109 0.04081,3.77553 0.570334,1.38853 0.620331,1.6922 0.29891,1.81554 -0.465273,0.17854 -1.172994,-0.35657 -1.172994,-0.88692 0,-0.21003 -0.129241,-0.62336 -0.287203,-0.91851 -0.284851,-0.53225 -0.292629,-0.53157 -0.95008,0.0835 -1.059902,0.99164 -2.187787,2.81641 -2.443064,3.95257 l -0.235826,1.04958 0.965899,-0.0743 c 1.275886,-0.0982 1.302728,0.54113 0.03986,0.9493 -0.825091,0.26667 -1.078498,0.60216 -2.32455,3.07743 -1.169915,2.32402 -1.369191,2.92239 -1.21915,3.66076 0.230318,1.13341 0.828116,1.36657 1.43635,0.56022 0.419607,-0.55629 0.547191,-0.5893 1.173919,-0.30374 0.532998,0.24285 0.662678,0.44788 0.535908,0.8473 -0.118509,0.37339 0.117059,0.87387 0.808473,1.71765 0.536641,0.6549 1.114787,1.19072 1.28477,1.19072 0.169982,0 0.751717,0.22568 1.292744,0.50152 1.610284,0.82096 1.694019,0.82185 2.787858,0.0295 0.577905,-0.41864 1.541156,-0.89321 2.140558,-1.05461 0.880391,-0.23707 2.614119,-1.18794 3.158457,-1.73228 0.05991,-0.0599 -0.513702,-0.0352 -1.27469,0.0549 l -1.383615,0.16387 -1.658172,-1.77638 c -1.666504,-1.78532 -1.85827,-2.1879 -2.709039,-5.68725 -0.174463,-0.71759 -0.488812,-1.04702 -1.539217,-1.61306 -0.725988,-0.39122 -1.358475,-0.90816 -1.405525,-1.14876 -0.133209,-0.6812 0.29959,-0.5323 2.245362,0.77248 1.735779,1.16397 1.830497,1.19451 2.492267,0.80359 1.12573,-0.66498 2.695716,-0.80392 3.62924,-0.32118 0.919496,0.47549 2.579752,0.56654 2.833844,0.15541 0.0914,-0.14789 0.273868,-0.20235 0.405477,-0.12101 0.131608,0.0813 1.115671,-0.72039 2.186807,-1.78162 2.439347,-2.41679 3.315377,-3.10606 4.151923,-3.26675 0.363802,-0.0699 1.213221,-0.30361 1.887593,-0.51939 1.558409,-0.49865 2.895862,-0.5001 3.551941,-0.004 0.54532,0.41246 0.412219,0.48907 -0.722045,0.4156 -0.388559,-0.0252 -1.067255,0.14081 -1.508215,0.36884 -0.44096,0.22803 -1.135081,0.41635 -1.542489,0.4185 -0.407408,0.002 -0.990698,0.15097 -1.296196,0.33073 -1.309452,0.77048 -3.26634,2.37722 -3.397732,2.78978 -0.07838,0.24611 -0.674986,0.86418 -1.325792,1.37351 -0.650805,0.50932 -1.182071,1.0451 -1.18059,1.19062 0.0015,0.14552 0.205333,0.67676 0.453005,1.18053 1.071842,2.18014 5.10157,3.33336 7.533713,2.15598 0.649573,-0.31446 1.393825,-0.80686 1.653889,-1.09423 0.52509,-0.58021 2.182363,-0.71511 3.054062,-0.2486 0.850368,0.45511 0.578964,0.78445 -0.646457,0.78445 -0.697029,0 -1.286949,0.1551 -1.481494,0.38951 -0.177798,0.21423 -0.963626,0.68268 -1.746285,1.04099 -1.301215,0.59572 -1.59903,0.63293 -3.479442,0.43478 -2.722941,-0.28693 -4.300593,-1.16933 -5.531776,-3.09398 -0.826031,-1.29129 -0.993921,-1.41797 -1.890591,-1.42651 -0.541231,-0.005 -1.281713,-0.17953 -1.645515,-0.3875 -1.327094,-0.75864 -3.704167,-0.16001 -3.704167,0.93284 0,0.28794 -0.178109,0.52237 -0.396875,0.52237 -0.896158,0 -0.162383,2.07111 1.382652,3.9026 1.168522,1.38517 1.996187,1.74457 2.284903,0.99219 0.238423,-0.62132 1.132415,-0.46888 2.327559,0.39687 0.602657,0.43657 1.365821,0.79375 1.695921,0.79375 0.399152,0 0.789616,0.30652 1.165745,0.91511 0.6655,1.0768 3.085522,2.5453 4.624413,2.80616 0.588989,0.0998 1.633672,0.39962 2.321515,0.66617 1.697847,0.65796 3.938891,0.28306 6.179473,-1.03374 1.031063,-0.60596 2.011561,-0.96951 2.728952,-1.01184 0.615828,-0.0363 1.177761,-0.16003 1.248738,-0.27487 0.184428,-0.29841 -0.787723,-2.39532 -1.310621,-2.82699 -0.241933,-0.19972 -0.439875,-0.52714 -0.439875,-0.7276 0,-0.47936 0.972166,-0.47074 1.243623,0.011 0.333605,0.59207 0.933969,0.60473 1.013002,0.0214 0.741035,-5.46986 1.198497,-6.9916 2.625204,-8.73271 0.87679,-1.07 0.8895,-1.11886 0.457407,-1.75816 -0.401524,-0.59407 -1.734286,-1.84592 -3.063523,-2.87754 -0.350351,-0.27192 -1.445083,-0.42998 -3.61696,-0.52223 -3.558665,-0.15116 -3.877765,-0.31944 -5.256803,-2.77226 -0.781134,-1.38936 -1.36431,-4.63607 -0.832731,-4.63607 0.403051,0 0.720799,0.79989 0.783889,1.97334 0.05766,1.07245 0.714465,2.77206 1.435725,3.7152 0.350898,0.45885 0.820718,0.54935 3.535523,0.68103 1.721969,0.0835 3.428508,0.2933 3.79231,0.46617 1.046753,0.4974 3.433411,2.29812 3.8677,2.91816 0.217602,0.31066 0.545431,0.56485 0.728505,0.56485 0.39789,0 1.22463,-1.63979 1.22463,-2.42899 0,-0.30742 0.40107,-1.16659 0.89128,-1.90925 2.04585,-3.09946 2.53876,-4.89005 1.49929,-5.44635 -0.28591,-0.15302 -0.65968,-0.74498 -0.8306,-1.31546 -0.29514,-0.98509 -0.26317,-1.10896 0.63574,-2.46323 1.02689,-1.54708 1.69235,-2.21602 1.94909,-1.95928 0.0898,0.0898 -0.3298,0.80237 -0.93244,1.5835 -0.60263,0.78112 -1.0957,1.54894 -1.0957,1.70625 0,0.15731 0.41991,0.83613 0.93313,1.50848 0.89372,1.17085 0.92073,1.26945 0.63962,2.33537 -0.16143,0.61211 -0.80694,1.94635 -1.43448,2.965 -0.62754,1.01864 -1.44754,2.74505 -1.82222,3.83646 -0.56177,1.6364 -0.91126,2.19316 -1.993034,3.175 -0.721492,0.65484 -1.566272,1.70704 -1.877287,2.33822 -0.720278,1.46174 -1.32489,4.60715 -1.32489,6.89255 0,0.98134 -0.135576,1.91147 -0.303022,2.07892 -0.227643,0.22764 -0.220983,0.59604 0.02677,1.48091 0.269941,0.96413 0.564417,1.32992 1.622729,2.01568 1.463254,0.94816 2.339724,0.94948 4.606654,0.007 0.29104,-0.121 0.85659,-0.29107 1.25677,-0.37792 0.76303,-0.1656 0.87506,-0.50349 0.50384,-1.51967 -0.23414,-0.64095 0.0885,-2.33233 0.44484,-2.33233 0.11327,0 0.31829,0.31946 0.4556,0.70991 l 0.24967,0.70991 1.12147,-1.17293 c 1.298,-1.35755 1.47284,-0.96799 0.3538,0.78828 -0.42536,0.66758 -0.85594,1.6635 -0.95683,2.21315 -0.19592,1.0673 -0.73268,1.51418 -1.81871,1.51418 -0.37031,0 -1.41994,0.23114 -2.3325,0.51365 -0.91256,0.28251 -1.986623,0.58244 -2.386806,0.6665 -0.400182,0.0841 -0.727604,0.33034 -0.727604,0.54727 0,0.21693 -0.238125,0.59831 -0.529167,0.84751 -0.753655,0.6453 -0.657076,1.23077 0.33073,2.00493 0.472942,0.37065 1.19395,0.96989 1.602237,1.33162 0.6092,0.53974 0.88053,0.61808 1.51274,0.43676 2.08422,-0.59774 4.6677,-3.29187 6.34125,-6.61282 0.18334,-0.36381 0.5782,-0.93027 0.87748,-1.25881 0.53036,-0.58223 0.53228,-0.6222 0.0758,-1.57936 -0.46099,-0.96671 -0.45922,-0.98936 0.11357,-1.45318 0.32003,-0.25913 0.73968,-0.47115 0.93257,-0.47115 0.6237,0 4.32631,-1.52285 4.76203,-1.95857 0.23248,-0.23248 0.70481,-0.42268 1.04963,-0.42268 0.88417,0 1.02963,-0.37718 1.05933,-2.74699 0.0184,-1.4643 -0.0811,-2.17763 -0.33247,-2.38336 -0.19727,-0.16149 -0.56132,-0.48508 -0.80899,-0.71909 -0.34891,-0.32967 -1.1011,-0.43735 -3.34025,-0.47815 -1.58946,-0.029 -3.11533,-0.1733 -3.39082,-0.32074 -0.86646,-0.46372 -1.52446,-2.45275 -1.52446,-4.60825 0,-1.94163 0.006,-1.95851 1.12448,-3.09207 1.22384,-1.24049 3.20391,-2.84928 3.50684,-2.84928 0.16578,0 2.77702,-1.61333 2.77702,-1.71576 0,-0.7768 0.7252,-3.39356 1.20548,-4.34978 0.35563,-0.70804 0.65056,-1.38912 0.6554,-1.51351 0.0158,-0.40607 0.99297,-1.41678 1.36975,-1.41678 0.20224,0 0.49714,-0.12944 0.65533,-0.28764 0.1898,-0.18979 0.34366,-0.197 0.45232,-0.0212 0.13832,0.22381 -0.74051,1.12863 -1.375,1.41568 -0.40281,0.18224 -1.90628,4.10814 -1.90659,4.97856 -5.3e-4,1.38213 -0.79483,2.41331 -2.54556,3.3046 -1.75418,0.89304 -4.05177,2.70251 -4.84368,3.81464 -0.47724,0.67023 -0.50637,0.94806 -0.29601,2.82381 0.33009,2.94339 0.5581,3.09702 4.36716,2.94239 2.34721,-0.0953 3.01258,-0.0403 3.37842,0.27909 0.41183,0.35956 0.71661,0.27026 3.175,-0.93031 1.49569,-0.73042 2.93049,-1.39798 3.18845,-1.48346 0.77505,-0.25683 0.81985,-0.91472 0.12436,-1.82654 -0.68479,-0.89781 -1.09389,-1.14999 -3.17207,-1.9553 -1.1526,-0.44664 -1.49583,-0.82182 -1.1073,-1.21036 0.3039,-0.30389 3.44436,1.17245 4.17736,1.96379 0.91405,0.9868 1.21827,0.70315 1.22437,-1.1416 0.002,-0.67345 0.18265,-1.65189 0.40093,-2.17431 0.21828,-0.52242 0.39687,-1.3679 0.39687,-1.87884 0,-1.44698 1.05931,-4.36812 1.74757,-4.81908 0.77862,-0.51018 2.05661,-0.36841 2.17218,0.24096 0.0615,0.32403 -0.0821,0.46302 -0.47816,0.46302 -1.30783,0 -1.89389,0.73272 -2.43368,3.04271 -0.62137,2.65916 -1.299,7.07314 -1.11423,7.25792 0.25342,0.25341 1.54708,-1.32708 1.55415,-1.89874 0.006,-0.49319 0.15406,-0.59668 0.85309,-0.59668 0.46514,0 0.99496,-0.14883 1.1774,-0.33073 0.18242,-0.1819 0.58277,-0.33073 0.88966,-0.33073 0.30688,0 0.78908,-0.1748 1.07156,-0.38846 0.82395,-0.62321 2.05311,-0.49938 2.78257,0.28032 0.35279,0.37708 1.09596,0.90594 1.65149,1.17524 l 1.01004,0.48964 1.23891,-0.90132 c 2.5818,-1.87828 2.49382,-1.7749 2.19012,-2.57365 -0.23127,-0.60823 -0.4405,-0.73185 -1.27539,-0.75352 -0.5493,-0.0143 -1.76045,-0.22262 -2.69142,-0.46302 -1.31402,-0.33932 -1.74266,-0.57411 -1.91605,-1.04955 -0.20078,-0.55056 -0.16341,-0.59277 0.36978,-0.41767 0.32622,0.10713 0.81913,0.18045 1.09537,0.16292 0.27623,-0.0175 0.83587,0.14066 1.24363,0.35152 0.40776,0.21086 1.28462,0.38339 1.94857,0.38339 1.20637,0 1.20767,0.001 1.9107,1.48583 0.84532,1.78534 0.75622,2.00019 -1.33668,3.22313 -1.78057,1.04043 -2.51301,1.97245 -2.01841,2.5684 0.18055,0.21755 0.52955,0.39555 0.77555,0.39555 0.24599,0 0.78947,0.35719 1.20773,0.79375 0.89654,0.93579 1.16016,0.9697 2.05657,0.26459 0.37,-0.29105 0.89207,-0.53296 1.16016,-0.53758 0.26809,-0.005 0.72188,-0.18566 1.00842,-0.40229 0.28655,-0.21663 1.00093,-0.52115 1.5875,-0.6767 0.58658,-0.15556 1.32559,-0.52279 1.64224,-0.81606 0.63521,-0.58833 1.14406,-0.45045 1.14406,0.31 0,0.53349 -1.49281,1.59346 -2.24416,1.59346 -0.25405,0 -0.89484,0.21717 -1.42398,0.4826 -0.52913,0.26543 -1.31925,0.65731 -1.75581,0.87085 -0.78148,0.38225 -0.79383,0.42057 -0.79845,2.47806 l -0.005,2.0898 -1.45051,0.8655 c -0.79778,0.47603 -1.62911,0.87075 -1.84739,0.87716 -0.21828,0.006 -0.87312,0.30386 -1.45521,0.66099 -0.93238,0.57205 -1.26301,0.63127 -2.77812,0.49757 -1.64146,-0.14486 -1.81534,-0.10135 -3.81757,0.95508 -2.32619,1.22736 -3.75951,1.40018 -6.89806,0.83171 -1.64133,-0.29728 -4.26341,-0.14083 -4.51702,0.26952 -0.0794,0.12851 -0.41857,0.23366 -0.75366,0.23366 -0.33509,0 -1.42939,0.38206 -2.43178,0.84903 -1.0024,0.46696 -2.29465,0.97298 -2.87169,1.12448 -1.00572,0.26405 -1.06126,0.33569 -1.34165,1.73066 -0.18653,0.92806 -0.78889,2.25352 -1.66282,3.65898 -0.75369,1.21207 -1.37033,2.28702 -1.37033,2.38877 0,0.10175 -0.99372,1.13839 -2.20827,2.30363 l -2.20826,2.11863 1.21608,1.8426 c 0.90054,1.36451 1.50483,1.98133 2.32896,2.3773 0.61209,0.29409 1.44552,0.83717 1.85208,1.20686 0.61793,0.56188 1.93767,1.30114 2.32281,1.30114 0.0569,0 0.0811,-0.32742 0.0537,-0.7276 -0.0469,-0.68448 0.0521,-0.75344 1.66998,-1.16353 2.46548,-0.62493 5.92628,-0.38868 6.96561,0.47551 0.41135,0.34203 0.8709,0.62187 1.02124,0.62187 0.15033,0 0.9247,0.59532 1.72081,1.32292 0.79612,0.72761 1.63973,1.32292 1.8747,1.32292 0.23498,0 0.75074,-0.30995 1.14615,-0.68878 z m 41.80039,-3.93635 c 0.15069,-0.58488 0.38536,-1.42905 0.52149,-1.87595 0.39278,-1.28939 0.29261,-2.2275 -0.3478,-3.25728 -0.54327,-0.8736 -0.59539,-1.28104 -0.59627,-4.66143 -5.3e-4,-2.5243 -0.10897,-3.89379 -0.34004,-4.29948 -0.18649,-0.32743 -0.39875,-0.59532 -0.47168,-0.59532 -0.23678,0 -2.41936,2.23408 -2.69721,2.76085 -0.18833,0.35705 -0.17852,0.66764 0.0324,1.02676 0.23359,0.39764 0.22492,0.54288 -0.0381,0.63789 -0.18728,0.0677 -0.66494,0.39603 -1.06147,0.72969 -1.04501,0.87931 -2.6328,1.27977 -4.30819,1.08658 -3.01933,-0.34817 -3.28567,-0.3301 -3.28567,0.22291 0,0.34542 0.73035,1.00896 2.24896,2.04322 1.23692,0.84242 2.40248,1.53496 2.59012,1.53897 0.65385,0.014 2.90479,1.73782 3.79747,2.90821 0.4945,0.64833 1.19435,1.24945 1.55523,1.33581 0.48479,0.11602 0.65614,0.33232 0.65614,0.82829 0,0.3692 0.17232,0.87964 0.38295,1.13432 0.36409,0.44023 0.40031,0.43931 0.73528,-0.0188 0.19378,-0.26501 0.47562,-0.96037 0.6263,-1.54524 z m -18.66229,-3.17167 c 0.28247,-0.21365 0.84655,-0.39224 1.2535,-0.39687 0.54025,-0.006 0.86153,-0.22215 1.19062,-0.80049 0.2479,-0.43564 0.58823,-0.79283 0.75631,-0.79375 0.16807,-8e-4 0.6186,-0.5358 1.00118,-1.18861 0.60007,-1.02396 0.69673,-1.49449 0.7039,-3.42656 0.0129,-3.48481 -0.29197,-5.96984 -0.73248,-5.96984 -0.20528,0 -0.86968,-0.25327 -1.47646,-0.56283 l -1.10324,-0.56283 -0.37371,0.56283 c -0.20856,0.31411 -0.65453,0.56283 -1.00922,0.56283 -0.44834,0 -1.29879,0.67381 -2.88747,2.28772 -2.07093,2.10384 -3.18646,2.99954 -5.57218,4.47419 -1.23963,0.76623 -1.22054,0.70471 -0.63177,2.0357 0.29352,0.66357 0.46719,1.37973 0.38594,1.59148 -0.16264,0.42383 1.01245,0.71405 2.92325,0.72197 1.55937,0.006 2.86839,0.44323 3.5715,1.19166 0.70941,0.75514 1.26332,0.83085 2.00033,0.2734 z m -83.788706,-3.60786 c 0.344442,-0.88829 0.968914,-2.00534 1.387715,-2.48232 0.418802,-0.47699 0.761457,-0.95747 0.761457,-1.06774 0,-0.11027 0.176736,-0.33267 0.392746,-0.49424 0.685406,-0.51264 0.180765,-1.40531 -1.146846,-2.02866 -0.676651,-0.31771 -1.780947,-1.16063 -2.453992,-1.87315 -1.403995,-1.48634 -1.929454,-1.48716 -2.341514,-0.004 -0.398177,1.43354 -0.33841,4.32407 0.102421,4.95345 0.205507,0.2934 0.579124,1.16166 0.83026,1.92947 0.400291,1.22382 1.318532,2.66319 1.707856,2.67712 0.0735,0.003 0.415455,-0.72201 0.759897,-1.61029 z m 95.307996,-3.05386 c 1.31621,-0.63667 1.82659,-1.15481 1.82659,-1.85436 0,-0.34125 0.11906,-0.62046 0.26458,-0.62046 0.14552,0 0.26459,-0.17135 0.26459,-0.38078 0,-0.50519 2.01469,-2.8331 2.83693,-3.27799 0.53333,-0.28856 0.61645,-0.478 0.46441,-1.05833 -0.10186,-0.38877 -0.33865,-1.42386 -0.52621,-2.3002 -0.58479,-2.73237 -0.93931,-3.85179 -1.17395,-3.70678 -0.12441,0.0769 -0.30981,0.86019 -0.412,1.74067 -0.11863,1.0221 -0.29544,1.56382 -0.48905,1.4984 -0.20066,-0.0678 -0.30326,-0.98965 -0.30326,-2.72487 v -2.62241 l -1.00714,-1.29663 c -0.55394,-0.71315 -1.25145,-1.78472 -1.55005,-2.38125 -0.29859,-0.59654 -1.14197,-1.63997 -1.87418,-2.31874 -1.1439,-1.06041 -1.4493,-1.21497 -2.16967,-1.09807 -0.46111,0.0748 -1.29643,0.01 -1.85628,-0.145 -0.55984,-0.15458 -1.16871,-0.19623 -1.35306,-0.0926 -0.48374,0.27206 -2.86828,3.99618 -3.23774,5.05663 -0.52118,1.49594 -0.39662,4.79819 0.23482,6.22567 0.32443,0.73344 0.51341,1.6331 0.46302,2.20433 -0.0779,0.88355 0.004,1.01612 0.9732,1.56821 1.39142,0.79289 1.71979,0.7684 1.71979,-0.12822 0,-0.43211 0.4954,-1.49427 1.19063,-2.55277 0.65484,-0.99702 1.19062,-1.86727 1.19062,-1.9339 0,-0.0666 0.35719,-0.57212 0.79375,-1.12332 0.43656,-0.55121 0.79375,-1.10625 0.79375,-1.23343 0,-0.12718 0.31053,-0.68823 0.69008,-1.24677 0.62517,-0.92003 0.72889,-0.97673 1.10279,-0.60282 0.37391,0.3739 0.34633,0.50852 -0.2932,1.43136 -0.38826,0.56025 -0.70592,1.14066 -0.70592,1.28979 0,0.31618 -1.28375,2.30757 -2.70646,4.19833 -0.93271,1.23957 -0.9955,1.44125 -0.99657,3.20122 -5.3e-4,1.03307 0.0759,2.78924 0.16998,3.90261 0.15797,1.86882 0.2166,2.02429 0.76337,2.02429 0.32575,0 0.99288,0.17394 1.48253,0.38652 1.18113,0.51279 2.33019,0.50329 3.42931,-0.0284 z m -30.89815,-10.75268 c 1.95372,-0.99749 2.1615,-1.04708 3.76136,-0.89768 0.93138,0.087 1.75922,0.0516 1.83967,-0.0785 0.0804,-0.13016 0.79816,-0.48056 1.59491,-0.77867 0.79676,-0.2981 1.93989,-0.85211 2.54029,-1.23113 1.06336,-0.67127 1.08816,-0.72 0.95731,-1.88091 -0.18153,-1.61053 -1.55783,-3.03342 -3.5359,-3.6556 -1.39747,-0.43956 -2.21415,-0.98108 -2.21415,-1.46814 0,-0.13149 0.37314,-0.16444 0.82919,-0.0732 0.93201,0.1864 0.98944,-0.31437 0.0942,-0.82163 -0.27517,-0.15591 -1.09342,-0.68652 -1.81833,-1.17912 -1.24217,-0.84409 -1.37238,-0.87679 -2.26208,-0.56818 -1.95353,0.67762 -3.72218,1.62493 -3.72218,1.99365 0,0.76249 -2.20202,2.76336 -3.94678,3.58625 -5.12359,2.41646 -4.90568,2.16513 -4.91259,5.66628 l -0.004,2.10944 2.56908,0.0543 c 1.413,0.0299 2.76397,0.16336 3.00217,0.29666 0.84726,0.47415 3.10405,0.0106 5.22797,-1.07373 z"
         id="path867" />
    </g>
  </g>
</svg>
