<?xml version="1.0" encoding="UTF-8" standalone="no"?>
<svg
   xmlns:dc="http://purl.org/dc/elements/1.1/"
   xmlns:cc="http://creativecommons.org/ns#"
   xmlns:rdf="http://www.w3.org/1999/02/22-rdf-syntax-ns#"
   xmlns:svg="http://www.w3.org/2000/svg"
   xmlns="http://www.w3.org/2000/svg"
   width="31.203869mm"
   height="27.473352mm"
   viewBox="0 0 31.203868 27.473353"
   version="1.1"
   id="svg8">
  <defs
     id="defs2" />
  <metadata
     id="metadata5">
    <rdf:RDF>
      <cc:Work
         rdf:about="">
        <dc:format>image/svg+xml</dc:format>
        <dc:type
           rdf:resource="http://purl.org/dc/dcmitype/StillImage" />
        <dc:title></dc:title>
      </cc:Work>
    </rdf:RDF>
  </metadata>
  <g
     id="layer1"
     transform="translate(-34.833811,-118.58935)">
    <g
       id="g847">
      <g
         id="g887">
        <g
           id="g927">
          <g
             id="g1657">
            <path
               style="fill:#ddbb88;stroke-width:0.264583"
               d="m 50.141803,145.73189 c -0.230985,-0.17728 -1.23028,-1.39388 -2.220655,-2.70357 -0.990375,-1.30969 -2.237002,-2.79797 -2.770283,-3.30729 -0.533281,-0.50932 -1.6144,-1.75948 -2.402488,-2.77813 -0.788087,-1.01864 -1.617687,-2.03067 -1.843555,-2.24895 -0.762818,-0.7372 -2.785411,-3.29796 -3.779505,-4.78515 -0.543319,-0.81282 -1.284492,-1.63661 -1.64705,-1.83065 -0.737193,-0.39453 -0.865571,-0.99454 -0.262322,-1.22602 0.44117,-0.1693 0.548281,-0.88943 0.132291,-0.88943 -0.14552,0 -0.264583,-0.1786 -0.264583,-0.39688 0,-0.21828 0.233936,-0.39687 0.519858,-0.39687 0.285921,0 0.659198,-0.26789 0.829503,-0.59532 0.170306,-0.32742 0.859104,-1.13765 1.530663,-1.80052 0.67156,-0.66287 1.650609,-1.73443 2.175665,-2.38125 l 0.954647,-1.17604 1.823478,0.10391 c 4.345823,0.24766 9.265575,0.12667 13.231275,-0.32539 2.345225,-0.26734 4.533162,-0.44593 4.862079,-0.39688 0.411297,0.0614 0.732425,0.41966 1.028441,1.14753 0.645287,1.58669 3.170872,6.12302 3.613483,6.49035 0.212937,0.17673 0.386154,0.45557 0.384929,0.61965 -0.0013,0.16408 -0.728117,1.31036 -1.615318,2.54729 -0.887201,1.23693 -1.961219,2.9038 -2.386703,3.70417 -1.505945,2.83277 -2.42756,4.12493 -4.435766,6.21921 -1.117115,1.16499 -2.523852,2.78516 -3.126082,3.60036 -1.157202,1.56645 -2.951885,3.1507 -3.553227,3.13659 -0.19734,-0.005 -0.547789,-0.15345 -0.778775,-0.33072 z m 1.346724,-1.51332 c 0.272298,-0.14573 1.235784,-1.18753 2.141081,-2.31511 0.905297,-1.12758 2.349385,-2.77562 3.209086,-3.66231 1.589947,-1.63988 2.977959,-3.62433 3.86902,-5.53158 0.595355,-1.27431 2.855296,-4.80445 3.220048,-5.02988 0.565955,-0.34978 0.371097,-0.85841 -2.228868,-5.81804 -0.686573,-1.30968 -1.338429,-2.47285 -1.44857,-2.58481 -0.110141,-0.11196 -0.678172,-0.0349 -1.262293,0.17115 -2.294011,0.80937 -10.382574,1.23713 -15.047542,0.79578 l -1.594204,-0.15082 -2.12322,2.33956 c -1.167771,1.28676 -2.448451,2.90299 -2.845956,3.59162 l -0.722736,1.25205 1.488779,2.18753 c 1.241666,1.82443 3.691274,4.77092 5.407167,6.50395 0.218282,0.22046 0.646338,0.73659 0.951236,1.14696 0.304899,0.41036 1.376461,1.62168 2.38125,2.69181 1.004789,1.07013 2.300791,2.56026 2.880004,3.3114 1.183025,1.53417 1.061126,1.45642 1.725718,1.10074 z m -2.607532,-5.22922 c -0.876276,-0.29969 -1.33292,-0.67974 -1.909924,-1.58959 -0.417069,-0.65765 -0.695487,-1.29737 -0.618706,-1.4216 0.295023,-0.47736 0.889662,-0.18547 1.695871,0.83245 1.005426,1.26946 1.846332,1.37729 2.791048,0.35793 1.279118,-1.38019 1.402559,-3.98072 0.210666,-4.43809 -0.214181,-0.0822 -0.325501,-0.25286 -0.247377,-0.37927 0.07812,-0.1264 -0.437205,-0.6251 -1.145177,-1.10822 -1.558987,-1.06385 -2.138327,-1.97703 -2.138327,-3.37055 0,-2.21269 1.797395,-4.61588 4.114028,-5.50061 1.262219,-0.48205 2.964785,-0.38186 3.321584,0.19545 0.33768,0.54638 -0.0051,0.75472 -1.169394,0.71069 -1.851916,-0.07 -3.691056,1.25748 -4.532391,3.27157 -0.849746,2.03423 -0.399884,2.94613 2.124717,4.30692 2.275889,1.22674 2.654911,2.30011 1.813127,5.1347 -0.436207,1.46887 -1.727702,3.07821 -2.628963,3.27597 -0.291041,0.0639 -1.047393,-0.0611 -1.680782,-0.27775 z"
               id="path1659" />
          </g>
        </g>
      </g>
    </g>
  </g>
</svg>
