<?xml version="1.0" encoding="UTF-8" standalone="no"?>
<svg
   xmlns:dc="http://purl.org/dc/elements/1.1/"
   xmlns:cc="http://creativecommons.org/ns#"
   xmlns:rdf="http://www.w3.org/1999/02/22-rdf-syntax-ns#"
   xmlns:svg="http://www.w3.org/2000/svg"
   xmlns="http://www.w3.org/2000/svg"
   width="31.931904mm"
   height="26.281178mm"
   viewBox="0 0 31.931904 26.281178"
   version="1.1"
   id="svg8">
  <defs
     id="defs2" />
  <metadata
     id="metadata5">
    <rdf:RDF>
      <cc:Work
         rdf:about="">
        <dc:format>image/svg+xml</dc:format>
        <dc:type
           rdf:resource="http://purl.org/dc/dcmitype/StillImage" />
        <dc:title></dc:title>
      </cc:Work>
    </rdf:RDF>
  </metadata>
  <g
     id="layer1"
     transform="translate(-92.539096,-122.47714)">
    <g
       id="g847">
      <g
         id="g887">
        <g
           id="g927">
          <g
             id="g967">
            <path
               style="fill:#ddbb88;stroke-width:0.264583"
               d="m 106.63248,148.71455 c -2.86955,-0.69106 -4.63415,-1.72809 -11.170426,-6.5647 -0.904986,-0.66965 -1.890988,-1.21755 -2.191116,-1.21755 -1.016814,0 -1.017585,0.0336 0.272528,-11.85993 0.525365,-4.84333 0.645221,-5.44443 1.206292,-6.04983 0.504837,-0.54473 0.762359,-0.63455 1.358055,-0.47365 0.962511,0.25999 11.139897,0.35502 12.697907,0.11857 0.66411,-0.10079 1.69393,-0.074 2.28847,0.0596 0.99013,0.22247 1.64106,0.62266 4.2703,2.62537 0.49969,0.38062 1.29925,0.83964 1.7768,1.02005 2.71977,1.02749 3.69838,1.49894 5.42191,2.61205 l 1.9078,1.23211 -0.10046,1.33886 c -0.10907,1.45371 -0.3028,2.75879 -0.68497,4.61427 -0.13488,0.65484 -0.36788,3.15515 -0.51778,5.55625 -0.37057,5.93553 -0.36659,5.91914 -1.54109,6.35305 -0.53422,0.19737 -1.74521,0.39131 -2.69109,0.43098 -4.75362,0.19942 -11.8354,0.31711 -12.30313,0.20447 z m 10.58334,-1.42162 c 0.43656,-0.13212 1.29693,-0.24059 1.91193,-0.24105 1.31949,-0.001 1.98589,-0.31733 2.09938,-0.99662 0.15948,-0.9546 0.60755,-5.27698 0.73676,-7.10734 0.0719,-1.01864 0.25101,-2.62599 0.39799,-3.57187 0.14699,-0.94589 0.26965,-2.15791 0.27257,-2.69339 l 0.005,-0.97359 -6.01927,-0.007 c -3.3106,-0.004 -6.65387,-0.0224 -7.42949,-0.0415 -0.77563,-0.0191 -1.47552,0.0305 -1.55532,0.11031 -0.0798,0.0798 -0.1992,1.07239 -0.26533,2.20575 -0.0661,1.13336 -0.21133,2.7569 -0.32266,3.60786 -0.11133,0.85097 -0.11507,2.02487 -0.008,2.60868 0.11737,0.64188 0.0583,1.65137 -0.14957,2.55383 -0.18901,0.8208 -0.42656,2.17144 -0.52788,3.00142 -0.17545,1.43715 -0.15449,1.51582 0.44003,1.6512 1.61657,0.36812 9.09795,0.29132 10.41385,-0.10691 z m -7.73907,-3.09628 c -0.42102,-0.16989 -0.42948,-1.20768 -0.0132,-1.62394 0.46874,-0.46873 1.71372,-0.39265 1.90916,0.11666 0.37032,0.96505 -0.84508,1.93131 -1.89593,1.50728 z m 7.65969,-0.40685 c -0.74645,-0.74645 -0.0185,-1.99185 0.97919,-1.6752 0.29058,0.0922 0.60378,0.40543 0.69601,0.69601 0.31665,0.99767 -0.92875,1.72563 -1.6752,0.97919 z m 0.46877,-7.76131 c -0.27293,-0.32886 -0.27202,-0.52707 0.005,-1.0443 0.46128,-0.86191 1.00966,-1.02557 1.76908,-0.52798 l 0.63351,0.41509 -0.55651,0.78154 c -0.61113,0.85825 -1.32937,1.00402 -1.85088,0.37565 z m -8.43135,-0.48662 c -0.16585,-0.19983 -0.21888,-0.58679 -0.11784,-0.85989 0.49205,-1.33005 2.47125,-1.19579 2.47125,0.16764 0,0.86512 -1.77631,1.38762 -2.35341,0.69225 z m -4.37853,8.12159 c 0.0439,-1.42938 0.263,-3.43231 0.48698,-4.45096 0.22397,-1.01864 0.48557,-2.98387 0.58134,-4.36717 l 0.17412,-2.51508 -1.67752,-0.79221 c -1.94638,-0.91916 -6.872769,-4.5103 -8.081491,-5.89106 l -0.828724,-0.94668 -0.160953,0.77381 c -0.08852,0.4256 -0.284906,2.14303 -0.436403,3.81652 -0.151498,1.67349 -0.393338,3.78874 -0.537424,4.70055 -0.144086,0.91181 -0.27711,2.47747 -0.29561,3.47923 -0.03293,1.78351 -0.0134,1.83916 0.93899,2.67537 1.454941,1.27746 2.129465,1.78626 4.335777,3.2705 3.962138,2.66545 4.960238,3.25224 5.188998,3.05065 0.12769,-0.11254 0.26806,-1.3741 0.31192,-2.80347 z m -5.958746,-7.21169 c -0.765214,-1.42981 -0.08136,-2.39864 1.693086,-2.39864 0.78975,0 0.94344,0.0929 0.94344,0.57034 0,0.78182 -1.23607,2.34008 -1.856241,2.34008 -0.278516,0 -0.629644,-0.2303 -0.780285,-0.51178 z m 7.590406,-5.87085 c 0.49679,-0.49679 3.37198,-0.55226 4.94362,-0.0954 1.04073,0.30255 2.14753,0.38376 4.03643,0.29617 3.63941,-0.16877 6.1744,-0.46942 6.1744,-0.73228 0,-0.25717 -1.97613,-1.55256 -2.36845,-1.55256 -0.14426,0 -0.9503,-0.3033 -1.79119,-0.67399 -1.47141,-0.64865 -2.3182,-1.15052 -4.78879,-2.8382 l -1.14323,-0.78095 -7.38991,-0.0936 -7.389916,-0.0936 0.404559,0.61744 c 0.481536,0.73491 2.886917,2.80453 3.259537,2.80453 0.14367,0 0.3009,0.10667 0.34941,0.23704 0.1857,0.49912 4.53932,3.14084 5.26079,3.19218 0.08,0.006 0.27927,-0.12339 0.44274,-0.28685 z m 6.95522,-1.41915 c -0.19074,-0.22983 -0.25545,-0.67662 -0.15561,-1.07442 0.14556,-0.57997 0.29711,-0.66878 1.02173,-0.59874 0.67232,0.065 0.86997,0.21789 0.94209,0.72886 0.15044,1.0658 -1.14564,1.74265 -1.80821,0.9443 z m -10.69761,-2.07212 c -0.63936,-0.46751 -0.44134,-1.2631 0.43709,-1.75616 0.65591,-0.36815 0.75953,-0.36272 1.18427,0.062 0.51992,0.51992 0.32037,1.06798 -0.615,1.68904 -0.43906,0.29153 -0.61344,0.29241 -1.00636,0.005 z"
               id="path969" />
          </g>
        </g>
      </g>
    </g>
  </g>
</svg>
