<?xml version="1.0" encoding="UTF-8" standalone="no"?>
<svg
   xmlns:dc="http://purl.org/dc/elements/1.1/"
   xmlns:cc="http://creativecommons.org/ns#"
   xmlns:rdf="http://www.w3.org/1999/02/22-rdf-syntax-ns#"
   xmlns:svg="http://www.w3.org/2000/svg"
   xmlns="http://www.w3.org/2000/svg"
   width="80.340408mm"
   height="41.337002mm"
   viewBox="0 0 80.340408 41.337002"
   version="1.1"
   id="svg8">
  <defs
     id="defs2" />
  <metadata
     id="metadata5">
    <rdf:RDF>
      <cc:Work
         rdf:about="">
        <dc:format>image/svg+xml</dc:format>
        <dc:type
           rdf:resource="http://purl.org/dc/dcmitype/StillImage" />
        <dc:title></dc:title>
      </cc:Work>
    </rdf:RDF>
  </metadata>
  <g
     id="layer1"
     transform="translate(-39.366975,-60.910217)">
    <g
       id="g152"
       transform="translate(4.3811035e-7,24.870833)">
      <path
         style="fill:#dab;stroke-width:0.264583"
         d="M 98.283295,76.330966 C 97.957038,75.750465 97.48374,75.210017 97.231524,75.129967 96.979307,75.049915 96.437692,74.542605 96.027934,74.002606 95.618176,73.46261 94.426588,72.127825 93.37996,71.036418 91.629802,69.211381 90.853687,68.305551 88.846047,65.744752 88.10012,64.7933 87.977512,64.610084 84.989692,59.982042 c -0.965804,-1.496001 -1.912975,-2.780236 -2.104827,-2.853856 -0.203073,-0.07793 -2.110383,1.611327 -4.564795,4.042918 -2.318788,2.297226 -5.168477,4.868788 -6.332644,5.714581 -1.164167,0.845797 -2.993615,2.181588 -4.065437,2.968427 -1.071824,0.786839 -2.202918,1.50763 -2.513542,1.601756 -0.310626,0.09412 -0.921959,0.432014 -1.358521,0.750866 -0.436563,0.318849 -1.448594,0.91322 -2.248959,1.320821 -0.800364,0.407601 -1.701006,0.96634 -2.001427,1.241645 -0.801923,0.734874 -1.46726,0.618569 -2.779594,-0.485897 -0.644657,-0.542547 -1.231635,-1.054846 -1.304396,-1.138444 -0.07276,-0.0836 -0.578864,-0.42337 -1.124676,-0.755047 -0.545811,-0.331673 -1.151621,-0.830389 -1.346244,-1.108249 -0.194622,-0.277863 -0.879143,-0.880253 -1.521157,-1.338641 -1.502218,-1.072565 -6.294707,-5.964388 -7.864091,-8.027093 -2.06746,-2.717342 -3.303161,-4.006631 -3.441716,-3.590966 -0.136546,0.409636 -0.835916,0.33449 -1.005741,-0.108066 -0.08109,-0.211312 -0.04941,-0.538734 0.0704,-0.727604 0.119807,-0.18887 0.221458,-0.521993 0.225892,-0.740274 0.0044,-0.218281 0.303912,-0.704518 0.66551,-1.080525 0.361597,-0.376008 0.984235,-1.11299 1.38364,-1.637738 0.399404,-0.524748 1.590029,-1.609137 2.645833,-2.409754 1.055804,-0.800617 2.217299,-1.730851 2.581101,-2.067188 0.363802,-0.336337 1.603161,-1.385087 2.754132,-2.330554 1.15097,-0.945468 2.817845,-2.318029 3.704167,-3.050137 2.232794,-1.844302 6.086214,-4.895612 7.109786,-5.629845 0.46844,-0.336022 1.214562,-0.9611 1.658054,-1.389062 0.443489,-0.427962 1.050044,-0.778113 1.347896,-0.778113 0.554233,0 2.217952,1.335964 5.548276,4.455258 1.034928,0.969347 3.004666,2.732645 4.377198,3.918438 1.372531,1.185794 2.845779,2.674075 3.27388,3.307292 0.683898,1.011568 2.451227,3.131072 4.65786,5.586022 0.383281,0.426411 0.880301,0.734134 1.104493,0.683829 0.224192,-0.05031 1.585156,-1.222558 3.024365,-2.605006 3.027606,-2.908198 3.026844,-2.907564 5.934405,-4.932977 2.597399,-1.809353 10.722507,-8.312715 12.296457,-9.842126 1.43955,-1.398804 1.87673,-1.258042 3.00697,0.968151 0.95799,1.886909 6.51497,10.32081 7.52824,11.425702 0.68801,0.750211 3.05299,4.123495 3.05299,4.354616 0,0.0834 0.53578,0.887962 1.19062,1.787909 1.43646,1.974109 1.51189,2.769592 0.3333,3.514766 -0.46032,0.291042 -1.55205,1.422135 -2.42606,2.513542 -1.75745,2.194583 -6.41615,6.87855 -9.28432,9.334677 -1.01865,0.872307 -3.01063,2.700731 -4.42663,4.063166 -3.011478,2.897555 -3.542603,3.066592 -4.467085,1.421704 z m 1.918155,-1.391944 c 1.99487,-1.520486 8.21908,-6.81529 9.84979,-8.379015 2.04435,-1.960364 6.97538,-7.406174 7.56828,-8.358365 0.36108,-0.5799 0.30843,-0.781278 -0.75013,-2.868972 -0.62616,-1.234912 -1.52801,-2.701369 -2.00411,-3.258793 -0.86086,-1.007889 -3.9356,-5.564134 -5.70389,-8.452198 -0.50933,-0.83185 -1.17609,-1.820164 -1.4817,-2.196253 -0.30561,-0.376089 -0.88401,-1.279111 -1.28533,-2.006715 -0.40133,-0.727604 -0.78563,-1.415843 -0.85401,-1.529419 -0.0684,-0.113577 -0.50201,0.09915 -0.96363,0.472716 -6.247128,5.055633 -10.602011,8.42615 -12.991513,10.054954 -1.15393,0.786576 -3.383135,2.68685 -4.953789,4.222832 -2.694114,2.634642 -2.838762,2.829944 -2.55583,3.450909 0.164947,0.362019 0.399854,0.658216 0.522018,0.658216 0.12216,0 0.222112,0.134107 0.222112,0.298016 0,0.59574 3.965903,6.939298 5.685875,9.094692 2.564522,3.213751 8.339627,9.392708 8.778809,9.392708 0.0748,0 0.487468,-0.267891 0.917048,-0.595313 z M 59.417963,72.91351 c 0.729763,-0.277289 1.951432,-0.91698 2.714818,-1.421535 0.763389,-0.504555 1.983291,-1.238475 2.710895,-1.630931 0.727604,-0.392456 2.110224,-1.270815 3.072487,-1.951905 0.962266,-0.681091 2.508094,-1.767663 3.435173,-2.414606 2.108676,-1.471496 8.671383,-7.884533 9.341035,-9.128004 l 0.498743,-0.926105 -1.02997,-1.228185 c -1.599597,-1.907437 -3.246165,-4.082581 -4.188527,-5.533112 -0.760468,-1.170552 -1.831192,-2.255249 -4.136908,-4.190898 -0.374486,-0.314381 -1.846252,-1.641184 -3.270594,-2.948451 -3.35815,-3.082129 -4.331055,-3.749546 -4.888088,-3.35325 -0.231468,0.164676 -0.778039,0.496859 -1.214601,0.738184 -0.862965,0.477035 -3.198551,2.231787 -5.008473,3.762925 -1.525664,1.290663 -1.949119,1.629038 -3.193611,2.55195 -1.185414,0.8791 -3.801344,3.055539 -5.019799,4.176445 -0.440569,0.405297 -1.753534,1.475983 -2.917701,2.379301 -2.636517,2.045768 -4.630209,4.022469 -4.630209,4.590749 0,0.612717 0.935175,2.07643 2.565793,4.015915 0.771626,0.917787 1.402957,1.767565 1.402957,1.888397 0,0.198448 0.743822,1.020924 3.757898,4.155279 0.538875,0.560379 1.134188,1.138936 1.322917,1.285682 0.188729,0.146743 1.057519,0.877784 1.930644,1.624533 2.100473,1.796452 4.977736,4.02521 5.222682,4.045543 0.10758,0.0089 0.792679,-0.210635 1.522439,-0.487921 z"
         id="path154" />
    </g>
  </g>
</svg>
