<?xml version="1.0" encoding="UTF-8" standalone="no"?>
<svg
   xmlns:dc="http://purl.org/dc/elements/1.1/"
   xmlns:cc="http://creativecommons.org/ns#"
   xmlns:rdf="http://www.w3.org/1999/02/22-rdf-syntax-ns#"
   xmlns:svg="http://www.w3.org/2000/svg"
   xmlns="http://www.w3.org/2000/svg"
   width="47.242706mm"
   height="44.126091mm"
   viewBox="0 0 47.242706 44.126091"
   version="1.1"
   id="svg8">
  <defs
     id="defs2" />
  <metadata
     id="metadata5">
    <rdf:RDF>
      <cc:Work
         rdf:about="">
        <dc:format>image/svg+xml</dc:format>
        <dc:type
           rdf:resource="http://purl.org/dc/dcmitype/StillImage" />
        <dc:title></dc:title>
      </cc:Work>
    </rdf:RDF>
  </metadata>
  <g
     id="layer1"
     transform="translate(-79.419519,-51.371429)">
    <g
       id="g152"
       transform="translate(4.3811035e-7,24.870833)">
      <path
         style="fill:#dab;stroke-width:0.264583"
         d="m 81.319417,70.410423 c -1.2979,-0.310283 -1.43213,-0.493017 -1.43173,-1.948985 2.1e-4,-0.755396 -0.135,-2.623603 -0.30046,-4.151572 -0.22762,-2.101979 -0.22417,-3.808441 0.0142,-7.011458 0.17327,-2.328333 0.35255,-8.400521 0.3984,-13.49375 0.0866,-9.616667 0.36716,-13.008058 1.17117,-14.155208 0.80769,-1.152394 2.82459,-1.965517 5.33089,-2.149175 1.23693,-0.09064 3.73724,-0.360493 5.55625,-0.599674 1.81901,-0.239181 4.67651,-0.418496 6.35,-0.398479 1.673493,0.02002 4.471463,0.0214 6.217713,0.0031 2.19074,-0.023 3.88354,0.117557 5.46059,0.453389 1.78791,0.380734 2.68091,0.437842 4.10104,0.262269 0.9985,-0.123446 3.6407,-0.252589 5.87155,-0.286985 3.64262,-0.05616 4.09159,-0.01402 4.40425,0.413419 0.32311,0.441717 0.72805,2.277797 1.06208,4.815709 0.0766,0.582083 0.38967,2.365833 0.69568,3.963889 0.4418,2.30715 0.5191,3.396981 0.37537,5.291667 -0.22714,2.993967 -0.49171,13.066805 -0.53682,20.437816 -0.0189,3.08896 -0.0867,5.653506 -0.15072,5.698993 -0.064,0.04549 -0.71167,0.334314 -1.43927,0.641839 -1.29351,0.546704 -1.99594,0.632783 -11.64167,1.426631 -1.45521,0.119766 -5.38427,0.28788 -8.73125,0.373587 -3.34698,0.08571 -7.250943,0.269822 -8.675483,0.409143 -2.98,0.291447 -12.88747,0.294161 -14.10178,0.0039 z m 14.70747,-1.598912 c 1.09141,-0.137223 4.067973,-0.240935 6.614593,-0.230468 4.46295,0.01834 12.77031,-0.415716 13.21488,-0.690475 0.11876,-0.0734 1.62907,-0.256135 3.35625,-0.406093 1.72718,-0.149955 3.52124,-0.397047 3.9868,-0.549093 0.77411,-0.252812 0.8463,-0.371221 0.84438,-1.384837 -0.001,-0.609613 0.062,-2.715731 0.1404,-4.680262 0.0784,-1.964531 0.19737,-5.834062 0.26444,-8.598958 0.0671,-2.764896 0.26835,-6.838521 0.44731,-9.052499 l 0.32539,-4.025417 -0.84874,-4.308959 c -1.21463,-6.166549 -1.22718,-6.204751 -2.08656,-6.352194 -0.88673,-0.152133 -3.83901,-0.08552 -7.20914,0.162662 -1.50797,0.11105 -3.04279,0.07364 -3.83646,-0.09352 -4.20063,-0.884704 -4.64743,-0.911649 -11.509373,-0.694086 -5.7768,0.183158 -7.77664,0.346297 -9.92188,0.80939 -0.87312,0.188481 -2.23268,0.363197 -3.02124,0.388256 -1.77644,0.05645 -3.01814,0.555532 -3.60302,1.448171 -1.02352,1.562091 -1.557,9.745821 -1.09667,16.823404 0.44092,6.779305 0.43979,7.238402 -0.0197,7.9375 -0.75459,1.148181 -0.5774,12.556427 0.20723,13.342935 0.55533,0.556652 9.73261,0.659791 13.75108,0.154543 z m 1.19063,-3.035202 c -0.14552,-0.04361 -0.80037,-0.236384 -1.45521,-0.428397 -1.43238,-0.420003 -2.01386,-0.75719 -4.16151,-2.413183 -0.90638,-0.698881 -1.8053,-1.270696 -1.9976,-1.270696 -0.49284,0 -0.98464,-0.550447 -0.98464,-1.102061 0,-0.256884 -0.35309,-1.023818 -0.78463,-1.704297 -2.17496,-3.429548 -2.62055,-8.386035 -1.23434,-13.7301 0.86087,-3.318818 1.49398,-4.67276 3.16888,-6.77681 1.66182,-2.08761 5.16947,-5.106576 6.86531,-5.908836 1.49762,-0.708488 3.559353,-1.260735 4.684783,-1.254845 2.57954,0.0135 4.00988,0.177497 4.26877,0.489441 0.16167,0.194797 0.42819,0.353641 0.59227,0.352989 0.16408,-6.62e-4 1.18087,0.445832 2.25953,0.992187 4.64838,2.354477 10.34626,8.832425 11.14252,12.668002 0.21667,1.043668 0.47969,1.555475 0.96169,1.871293 0.52476,0.343836 0.62872,0.577402 0.49731,1.117311 -0.0914,0.375431 -0.15621,1.813695 -0.14407,3.196143 0.0206,2.346902 -0.0379,2.636329 -0.88338,4.365625 -1.03974,2.126745 -2.15572,3.273412 -4.89529,5.029877 -2.06743,1.325528 -7.90535,3.602368 -10.88893,4.246777 -1.48103,0.319879 -6.224203,0.495483 -7.011463,0.25958 z m 1.68057,-1.79986 c 0.29321,-0.474422 0.59114,-1.337625 0.66207,-1.918229 0.0709,-0.580604 0.38715,-1.650958 0.702713,-2.378562 0.82701,-1.906915 1.57749,-4.38346 1.58144,-5.218726 0.003,-0.54061 -0.20214,-0.827109 -0.81883,-1.146011 -1.02478,-0.529931 -1.883073,-0.333711 -2.349083,0.537043 -0.19689,0.367882 -1.94513,2.044446 -3.88499,3.725696 -1.93986,1.68125 -3.52702,3.175116 -3.52702,3.319703 0,0.812321 4.02653,3.376668 5.76067,3.668755 0.68793,0.115872 1.27085,0.224679 1.29536,0.241795 0.0245,0.01712 0.28446,-0.357042 0.57767,-0.831464 z m 5.354713,0.359336 c 1.85986,-0.477401 6.75241,-2.216047 7.03711,-2.500746 0.36106,-0.361056 -0.34022,-1.773452 -1.513,-3.047244 -0.71959,-0.781568 -1.97216,-2.418678 -2.78348,-3.63802 -0.81133,-1.219346 -1.52151,-2.216992 -1.57818,-2.216992 -0.0567,0 -0.40432,0.137271 -0.77255,0.305049 -0.46814,0.213299 -0.72178,0.591299 -0.84329,1.256771 -0.0956,0.523446 -0.58975,2.142347 -1.09816,3.597555 -0.76101,2.178262 -1.64562,5.695537 -1.64696,6.548438 -5.3e-4,0.332504 1.13855,0.223954 3.19851,-0.304811 z m 12.64419,-6.138344 c 0.63726,-0.614145 1.47026,-1.782043 1.85111,-2.595329 0.59616,-1.27307 0.68471,-1.78707 0.63675,-3.696153 -0.0306,-1.219594 -0.0986,-2.260375 -0.1511,-2.312842 -0.27368,-0.273679 -5.81336,-0.351279 -6.94663,-0.09731 -0.71139,0.159427 -2.34754,0.387135 -3.63589,0.506015 -2.64321,0.243901 -3.13816,0.505172 -2.36127,1.246455 0.28467,0.271635 0.72884,0.910598 0.98703,1.419921 0.88051,1.736929 3.01325,4.704056 3.9258,5.461675 0.50085,0.415819 1.16885,1.1964 1.48444,1.734629 l 0.57381,0.978596 1.23866,-0.764516 c 0.68126,-0.420484 1.76004,-1.267 2.39729,-1.881143 z M 93.248767,56.609354 c 5.00988,-4.586714 5.42396,-5.035484 5.42396,-5.878454 0,-0.62302 -0.086,-0.730676 -0.46303,-0.57957 -0.25466,0.102068 -2.42755,0.225298 -4.82864,0.273844 -5.32206,0.107603 -6.38078,0.41054 -6.20969,1.776822 0.0594,0.474694 0.17824,1.426607 0.264,2.115362 0.20251,1.626373 1.85784,4.966973 2.45826,4.961001 0.2446,-0.0024 1.75441,-1.203486 3.35514,-2.669005 z m 3.75175,-7.949065 c 1.04179,-0.267343 2.20137,-1.060246 2.20137,-1.505254 0,-0.508291 -2.88421,-3.170285 -3.60691,-3.329017 -0.43487,-0.09551 -1.40165,-0.708128 -2.1484,-1.361365 -0.74675,-0.653238 -1.80626,-1.375114 -2.35446,-1.604169 -0.95868,-0.400561 -1.01469,-0.394303 -1.46665,0.163854 -0.68427,0.845032 -2.5065,7.439776 -2.195,7.943794 0.15982,0.258598 8.39502,-0.0063 9.57005,-0.307843 z M 111.63731,48.1851 c 0.80036,-0.132424 2.74315,-0.249462 4.31731,-0.260085 2.84412,-0.01918 2.86091,-0.02305 2.67294,-0.614627 -0.10404,-0.327422 -0.33034,-1.190625 -0.50289,-1.91823 -0.3341,-1.408826 -1.35312,-3.174163 -2.75178,-4.767146 l -0.85635,-0.975326 -1.74053,1.680611 c -0.9573,0.924336 -2.23677,2.156861 -2.84328,2.738945 -1.32994,1.276381 -3.85167,4.226189 -3.85167,4.505505 0,0.219543 3.25317,-0.0086 5.55625,-0.389647 z m -3.50199,-4.750697 c 1.41677,-1.440569 3.21013,-3.171529 3.98523,-3.846578 l 1.40929,-1.227362 -1.27699,-1.200118 c -1.90187,-1.787375 -3.8145,-2.996989 -5.41042,-3.421754 -0.78256,-0.208281 -1.50048,-0.380107 -1.59538,-0.381834 -0.41758,-0.0076 -0.84856,1.987728 -1.17087,5.420818 -0.46458,4.948407 -0.46876,6.217708 -0.0205,6.217708 0.19573,0 0.57137,0.238125 0.83476,0.529167 0.26339,0.291042 0.52165,0.529167 0.57391,0.529167 0.0523,0 1.2542,-1.178648 2.67097,-2.619214 z m -6.5688,1.366502 c 0.15006,-0.543473 0.39986,-2.775894 0.55512,-4.960939 0.15525,-2.185044 0.38207,-4.627651 0.50403,-5.428016 0.12197,-0.800364 0.17656,-1.503677 0.12132,-1.562917 -0.0552,-0.05924 -0.35565,0.0062 -0.66756,0.145346 -0.36272,0.161849 -1.02475,0.15931 -1.83684,-0.007 -1.175033,-0.240702 -1.398593,-0.194694 -2.997573,0.616906 -1.84254,0.935227 -5.71839,4.359029 -5.71691,5.050144 4.7e-4,0.223286 0.34471,0.609087 0.76496,0.857336 0.42025,0.248248 1.11377,0.849625 1.54116,1.336392 0.42739,0.486766 1.46319,1.232059 2.30179,1.656205 0.8386,0.424147 2.07985,1.336548 2.75832,2.027557 1.552783,1.581468 2.289333,1.655623 2.672183,0.269032 z"
         id="path1083" />
    </g>
  </g>
</svg>
