<?xml version="1.0" encoding="UTF-8" standalone="no"?>
<svg
   xmlns:dc="http://purl.org/dc/elements/1.1/"
   xmlns:cc="http://creativecommons.org/ns#"
   xmlns:rdf="http://www.w3.org/1999/02/22-rdf-syntax-ns#"
   xmlns:svg="http://www.w3.org/2000/svg"
   xmlns="http://www.w3.org/2000/svg"
   width="121.15375mm"
   height="99.944542mm"
   viewBox="0 0 121.15374 99.944545"
   version="1.1"
   id="svg8">
  <defs
     id="defs2" />
  <metadata
     id="metadata5">
    <rdf:RDF>
      <cc:Work
         rdf:about="">
        <dc:format>image/svg+xml</dc:format>
        <dc:type
           rdf:resource="http://purl.org/dc/dcmitype/StillImage" />
        <dc:title></dc:title>
      </cc:Work>
    </rdf:RDF>
  </metadata>
  <g
     id="layer1"
     transform="translate(5.3455458,-113.46773)">
    <g
       id="g847">
      <g
         id="g887">
        <g
           id="g927">
          <g
             id="g1657">
            <g
               id="g1697">
              <g
                 id="g1751">
                <path
                   style="fill:#dab;stroke-width:0.264583"
                   d="m 51.799392,213.2808 c -1.382448,-0.11546 -3.954399,-0.14639 -5.715447,-0.0687 -3.654193,0.16113 -3.632325,0.17238 -3.732515,-1.91964 -0.221257,-4.61988 -0.123901,-8.40664 0.221705,-8.6236 0.199494,-0.12524 1.329619,-0.15455 2.511388,-0.0651 1.702684,0.12883 2.328953,0.0727 3.017214,-0.2707 0.98738,-0.49257 1.580988,-0.55591 1.580988,-0.1687 0,0.162 1.257605,0.26458 3.243646,0.26458 2.957103,0 3.272843,-0.0468 3.574119,-0.52917 0.43206,-0.69183 1.119735,-0.68245 1.119735,0.0153 0,0.52065 0.130109,0.54196 2.976563,0.48756 1.637109,-0.0313 4.325337,-0.0365 5.973839,-0.0116 2.802785,0.0424 3.028051,0.007 3.471561,-0.54038 0.460934,-0.56923 0.494274,-0.57262 1.184545,-0.12034 0.568772,0.37268 0.878647,0.41259 1.555523,0.20038 0.475578,-0.1491 1.539573,-0.18489 2.432762,-0.0818 1.56691,0.18079 1.588606,0.19473 1.672748,1.07444 0.04689,0.49019 -0.06313,1.24949 -0.244485,1.68732 -0.52655,1.2712 -0.394507,4.3988 0.246933,5.84888 0.961477,2.17358 0.41875,2.55475 -3.855951,2.70813 -1.913588,0.0687 -3.181601,0.006 -3.391765,-0.1689 -0.235119,-0.19513 -1.550802,-0.19114 -4.39302,0.0133 -5.785326,0.41617 -10.546236,0.51131 -13.450086,0.26878 z m 9.921875,-1.38057 c 1.455209,-0.1632 5.027084,-0.32148 7.9375,-0.35174 2.910417,-0.0303 5.382626,-0.0705 5.493798,-0.0894 0.11117,-0.0189 0.112639,-0.71899 0.0033,-1.55573 -0.237885,-1.81981 -0.211757,-4.36885 0.05695,-5.55625 0.152918,-0.67573 0.109225,-0.8599 -0.204002,-0.8599 -0.449736,0 -0.719796,0.54348 -0.719796,1.44854 0,0.65782 -0.549011,1.01002 -1.190625,0.76381 -0.258734,-0.0993 -0.396875,-0.51082 -0.396875,-1.18232 0,-0.56651 -0.0893,-1.0282 -0.198438,-1.02598 -0.544314,0.0111 -0.836181,0.53763 -1.131911,2.0419 -0.343422,1.74685 -0.725935,2.29106 -1.501212,2.13582 -0.507555,-0.10163 -0.528034,-0.38852 -0.191786,-2.68702 0.170522,-1.16563 0.142021,-1.27457 -0.310668,-1.18738 -0.27413,0.0528 -0.658305,0.42958 -0.853726,0.83731 -0.195421,0.40773 -0.525267,0.80655 -0.732988,0.88626 -0.535811,0.20561 -1.22514,-0.44828 -1.075561,-1.02026 0.09945,-0.38027 -0.02859,-0.48151 -0.608973,-0.48151 -0.681241,0 -0.747596,0.0958 -0.908888,1.31164 -0.175681,1.32435 -0.761987,2.23832 -1.31395,2.04826 -0.18115,-0.0624 -0.300019,-0.76673 -0.300019,-1.77774 v -1.67443 l -0.88891,-0.23353 c -0.996868,-0.26189 -1.158606,-0.17868 -1.286923,0.66215 -0.240655,1.5769 -1.660626,1.61778 -1.660626,0.0478 0,-0.9393 -0.01447,-0.95227 -0.859896,-0.77094 -1.250198,0.26814 -1.256771,0.27828 -1.256771,1.93933 0,1.67449 -0.456578,2.6022 -1.149776,2.3362 -0.369032,-0.14162 -0.407802,-0.45873 -0.264019,-2.15966 l 0.168526,-1.99367 H 55.43173 c -1.33331,0 -1.780255,0.23146 -1.780255,0.92195 0,0.33042 -0.178593,0.74897 -0.396875,0.93013 -0.624041,0.51791 -1.258379,-0.14752 -1.049073,-1.10049 0.164455,-0.74876 0.160005,-0.75159 -1.178861,-0.75159 h -1.343941 l -0.004,1.91823 c -0.0045,2.12595 -0.213519,2.68075 -0.953696,2.53131 -0.346469,-0.0699 -0.480113,-0.2987 -0.440306,-0.75363 0.08165,-0.93313 0.147367,-2.97539 0.108291,-3.36518 -0.01958,-0.19528 -0.412435,-0.33073 -0.959196,-0.33073 -0.790946,0 -0.926042,0.0891 -0.926042,0.61089 0,0.33598 -0.161377,0.83158 -0.358614,1.10132 -0.512328,0.70065 -1.228886,0.34221 -1.228886,-0.61472 0,-0.54855 -0.152694,-0.81112 -0.528902,-0.9095 -0.290899,-0.0761 -0.60546,-0.0144 -0.699027,0.13695 -0.251314,0.40663 -0.263149,7.16026 -0.01323,7.54641 0.155985,0.24101 1.412028,0.33783 4.630208,0.3569 2.428886,0.0144 5.070999,0.10857 5.871364,0.2093 1.679678,0.21138 3.803991,0.12993 7.540625,-0.28912 z m 43.979163,-24.70897 c -0.11344,-0.11662 -0.7456,-0.23025 -1.4048,-0.25251 -1.39615,-0.0471 -2.34341,-0.65696 -3.07701,-1.98088 -0.43427,-0.78373 -0.49308,-1.32264 -0.40326,-3.69566 0.12809,-3.3843 0.65573,-4.73927 2.36544,-6.07434 l 1.17172,-0.91498 0.44935,-3.71523 c 0.24715,-2.04338 0.44848,-5.50117 0.44742,-7.68399 -0.001,-2.18281 0.10293,-6.11187 0.23112,-8.73125 0.12818,-2.61937 0.20787,-5.05014 0.17709,-5.40171 -0.0313,-0.35704 -0.474,-0.99945 -1.0029,-1.45521 -1.53688,-1.32438 -2.31979,-3.20697 -2.31979,-5.57819 0,-1.10704 0.16381,-2.39374 0.36652,-2.87888 0.41709,-0.99822 1.71202,-1.89657 3.07306,-2.1319 1.45212,-0.25107 1.62653,0.009 1.2898,1.92026 -0.36106,2.04975 -0.11622,3.91771 0.561,4.28015 0.8206,0.43918 1.45343,0.30425 2.16841,-0.46233 1.15004,-1.23302 1.22973,-1.50289 1.64686,-5.57686 0.12227,-1.19414 0.46487,-1.46844 1.57418,-1.26033 1.13548,0.21302 1.9065,1.33359 2.43286,3.53583 0.70719,2.95878 0.39235,5.04285 -1.10262,7.29878 -0.46852,0.70699 -1.1975,1.49564 -1.61996,1.75255 -0.75418,0.45865 -0.7702,0.51693 -0.88276,3.21248 -0.21949,5.25626 -0.0125,22.00397 0.27725,22.42717 0.0755,0.1103 0.34026,0.27535 0.58834,0.36679 1.00455,0.37024 1.60602,2.26817 1.73932,5.48839 0.11293,2.728 0.0646,3.19052 -0.46121,4.41277 -0.71112,1.65304 -1.96001,2.56899 -3.84584,2.82056 -3.01117,0.40169 -4.24452,0.47906 -4.43959,0.27852 z m 3.34798,-1.54876 c 2.45238,-0.46922 2.94651,-0.72287 3.52293,-1.80844 0.34935,-0.65792 0.45085,-1.51518 0.44551,-3.76247 -0.008,-3.40996 -0.36323,-4.40188 -1.71472,-4.78948 l -0.8528,-0.24458 0.0129,-10.97672 c 0.007,-6.0372 0.0646,-12.20616 0.1278,-13.7088 l 0.11487,-2.73208 1.02279,-0.57521 c 1.27284,-0.71584 2.43397,-2.62789 2.66823,-4.39384 0.30374,-2.2897 -1.08854,-6.5509 -1.57909,-4.83298 -0.0706,0.24724 -0.19932,1.01669 -0.28605,1.7099 -0.40669,3.25061 -2.09958,5.12395 -4.24857,4.70142 -2.22819,-0.43809 -2.5663,-0.92513 -2.76116,-3.97742 l -0.14357,-2.24896 -0.8599,0.88788 c -0.8021,0.8282 -0.85989,1.01118 -0.85989,2.72252 0,2.30056 0.61136,3.59153 2.26513,4.78308 l 1.20322,0.86694 -0.175,3.43958 c -0.27432,5.39151 -0.37309,8.07873 -0.50084,13.62604 -0.0654,2.83766 -0.24297,6.09585 -0.39471,7.24043 -0.15174,1.14458 -0.20893,2.34786 -0.12709,2.67395 0.16755,0.66757 -0.19727,1.11922 -1.60865,1.9915 -1.22545,0.75737 -1.6612,1.65311 -2.00435,4.12027 -0.5102,3.66823 0.10342,5.11543 2.29797,5.41968 2.03245,0.28178 2.31536,0.27335 4.435,-0.13221 z m -1.81881,-0.59621 c -0.88224,-0.22431 -1.41684,-0.87314 -2.003,-2.431 -0.65134,-1.7311 -0.57851,-3.41243 0.18151,-4.19061 1.01419,-1.03841 2.41895,-1.92471 3.03709,-1.91618 0.9221,0.0127 2.6787,1.31251 3.21576,2.37946 0.25444,0.50548 0.4628,1.3073 0.46302,1.78183 5.3e-4,1.04215 -0.86695,2.97107 -1.66659,3.70592 -0.60185,0.5531 -2.30125,0.90615 -3.22779,0.67058 z m 2.62848,-2.2826 c 0.8702,-1.14089 1.00066,-3.08855 0.26158,-3.90523 -0.93304,-1.03099 -1.40827,-1.13459 -2.10802,-0.45955 -0.35026,0.33789 -0.8921,0.83694 -1.20409,1.109 -0.47169,0.41132 -0.54126,0.68421 -0.41301,1.61995 0.27196,1.98415 0.65014,2.5156 1.79011,2.5156 0.82463,0 1.1214,-0.15602 1.67343,-0.87977 z M 4.5063186,185.813 c -1.5615494,-0.11563 -1.8029595,-0.63957 -1.413696,-3.06818 0.1656855,-1.03372 0.3165816,-2.95104 0.3353247,-4.26073 0.018743,-1.30969 0.2452203,-3.63118 0.5032822,-5.15888 0.3055718,-1.80894 0.4847757,-4.39256 0.5138553,-7.40833 0.024559,-2.54689 0.080123,-5.04743 0.1234778,-5.55675 0.043355,-0.50932 0.2133301,-3.41249 0.3777237,-6.45149 0.1643936,-3.039 0.3560114,-5.61786 0.4258178,-5.73081 0.2420361,-0.39162 -0.2148769,-1.08867 -0.8791816,-1.34123 -0.8909035,-0.33872 -3.4394935,0.22818 -3.76565832,0.83763 -0.23652269,0.44194 -1.80442368,0.81845 -4.81857088,1.15709 l -1.2542391,0.14091 0.088947,-4.94192 c 0.062006,-3.44509 0.1819469,-4.97293 0.3959919,-5.04427 0.1688745,-0.0563 0.2315453,-0.22451 0.1392687,-0.37382 -0.1123641,-0.18181 0.3021677,-0.20575 1.2551225,-0.0725 1.2811512,0.17915 2.1587429,0.18746 4.19197456,0.0397 0.47166824,-0.0343 0.74838454,0.14966 0.99884264,0.66395 l 0.3464324,0.71137 1.3824075,-0.40545 c 0.7603244,-0.223 1.6610391,-0.66217 2.0015886,-0.97595 0.5709539,-0.52606 0.9006821,-0.5706 4.2333331,-0.57177 1.9877859,-7.9e-4 3.9869169,-0.0963 4.4425189,-0.21253 0.680169,-0.17347 1.12985,-0.0498 2.513541,0.69111 1.409703,0.75487 1.903971,1.22212 3.023627,2.85837 1.40839,2.0582 2.567596,4.5922 3.012919,6.5862 0.368644,1.65066 0.346832,1.85208 -0.20057,1.85208 -0.465707,0 -1.637258,-1.305 -1.637258,-1.82376 0,-0.44346 -3.383325,-3.55205 -4.408934,-4.05091 -0.537472,-0.26143 -1.483636,-0.47533 -2.102586,-0.47533 -0.947343,0 -1.21439,0.12503 -1.688153,0.79036 -0.540983,0.75975 -0.567068,1.13146 -0.6732,9.59349 -0.06073,4.84171 -0.30837,11.18331 -0.550321,14.09244 -0.273068,3.28329 -0.420637,7.53043 -0.389093,11.19841 0.03279,3.81295 -0.04774,6.02784 -0.227034,6.24387 -0.179028,0.21571 -1.0884694,0.34992 -2.5570101,0.37734 -1.2535387,0.0234 -2.3552222,0.072 -2.4481859,0.10801 -0.092964,0.036 -0.674501,0.028 -1.2923055,-0.0177 z m 3.862594,-1.0166 1.6263117,-0.16998 v -3.26961 c 0,-1.79828 -0.1079156,-3.2696 -0.239813,-3.2696 -0.1318975,0 -0.1972204,-0.20835 -0.1451637,-0.46302 0.052057,-0.25466 0.153252,-1.65364 0.22488,-3.10885 0.071628,-1.45521 0.3084674,-4.01505 0.5263144,-5.68854 0.502592,-3.86092 0.795015,-11.81489 0.51068,-13.89063 l -0.217455,-1.5875 -1.1556872,-0.15436 c -0.6356271,-0.0849 -1.6670582,-0.0373 -2.2920673,0.10569 -0.9877181,0.22602 -1.1547377,0.36736 -1.2767035,1.0804 -0.1705488,0.99706 -0.3766748,5.39004 -0.5847405,12.46202 -0.085628,2.91042 -0.3224245,6.24417 -0.5262153,7.40834 -0.2037908,1.16416 -0.3727225,3.13659 -0.3754038,4.38317 -0.00268,1.24659 -0.1307042,2.94719 -0.2844951,3.77912 -0.4067323,2.20022 -0.2246005,2.55333 1.3169707,2.55333 0.6964514,0 1.9981157,-0.0765 2.8925876,-0.16998 z m 2.5801614,-36.07793 c 0.04057,-5.21108 0.497472,-6.08542 3.180051,-6.08542 2.069523,0 3.183027,0.54009 5.45256,2.6447 0.912082,0.8458 1.689557,1.5081 1.727724,1.47178 0.03817,-0.0363 -0.199957,-0.77196 -0.529167,-1.63476 -1.044109,-2.73645 -3.165724,-5.37448 -4.907775,-6.10235 -0.69669,-0.2911 -1.200256,-0.30978 -2.387873,-0.0886 -1.116708,0.20799 -1.830866,0.19734 -2.768068,-0.0413 -1.5152237,-0.38575 -4.1680132,0.0504 -4.9955093,0.82134 -0.2821508,0.26286 -1.2992735,0.67196 -2.2602727,0.90911 -1.8353538,0.45292 -2.2848266,0.34718 -2.58828283,-0.60893 -0.1247701,-0.39312 -0.50907026,-0.47024 -2.50109127,-0.50196 l -2.3536691,-0.0375 -0.1511569,0.98888 c -0.083136,0.54388 -0.1795548,2.34743 -0.2142633,4.00788 -0.060587,2.89845 -0.039509,3.02954 0.5278292,3.28269 0.9763382,0.43566 3.28099451,-0.208 3.76205518,-1.05069 0.3770511,-0.66049 0.51914929,-0.6985 3.00472822,-0.80384 3.4745164,-0.14726 3.7314194,0.0527 3.4572925,2.69031 -0.2904656,2.79486 -0.3233819,3.4258 -0.1906442,3.65428 0.066597,0.11463 1.1530796,0.17416 2.4144061,0.13229 l 2.2933184,-0.0761 z m 47.33261,36.47156 c -0.753134,-0.41194 -1.190625,-1.02951 -1.190625,-1.68071 0,-0.38034 -0.342313,-0.75455 -1.058334,-1.15698 -1.092446,-0.61399 -1.195734,-0.88474 -1.07194,-2.80992 0.02807,-0.43656 0.08726,-1.56765 0.131519,-2.51354 0.04426,-0.94588 0.219048,-2.0671 0.388411,-2.49159 0.169365,-0.42449 0.214024,-0.84121 0.09924,-0.92604 -0.114779,-0.0848 -0.215072,-1.34487 -0.222869,-2.80008 -0.01556,-2.903 -0.379793,-4.37277 -1.261745,-5.09139 -1.029237,-0.83864 -2.52826,-4.0599 -2.812211,-6.0432 -0.792097,-5.53248 3.912814,-11.34596 10.273564,-12.69422 2.375879,-0.5036 5.794992,-0.48384 7.345128,0.0424 1.82472,0.61951 2.627307,1.32522 3.543935,3.11617 0.714168,1.39538 0.818687,1.87068 0.819435,3.72646 7.94e-4,2.25327 -0.495733,4.84541 -1.19812,6.25338 -0.233164,0.46738 -0.423932,0.98866 -0.423932,1.15839 0,0.62004 -1.938901,2.55118 -3.135899,3.12334 -1.565646,0.74837 -1.933234,1.49924 -2.813529,5.74717 -0.711843,3.43505 -0.84745,4.47386 -1.06267,8.14054 -0.143516,2.44503 -0.628089,3.90028 -1.377977,4.13828 -0.275484,0.0874 -0.792369,0.63919 -1.14863,1.22611 -0.922531,1.51983 -2.611181,2.19806 -3.822753,1.53539 z m 1.981491,-1.67538 c 0.284406,-0.34269 0.220369,-0.35641 -0.496771,-0.10641 -0.936646,0.32652 -1.049846,0.49981 -0.326491,0.49981 0.273222,0 0.643692,-0.17703 0.823262,-0.3934 z m 0.440568,-1.85556 c 0.522423,-0.21828 1.164207,-0.39688 1.426192,-0.39688 0.626268,0 0.973796,-1.16853 1.117071,-3.75608 l 0.112754,-2.0363 -0.739962,0.38265 c -0.949328,0.49092 -2.45568,0.48674 -4.097626,-0.0114 -0.714352,-0.2167 -1.318123,-0.3953 -1.341711,-0.39687 -0.141231,-0.009 -0.420459,2.46196 -0.409977,3.62862 0.02379,2.64761 1.48572,3.60887 3.933259,2.58622 z m 1.790166,-7.54941 c 1.138163,-1.04913 1.167431,-1.11942 1.735037,-4.16719 0.781021,-4.1937 1.465384,-5.66615 3.001158,-6.4572 1.76452,-0.90887 3.175045,-2.78688 3.904496,-5.19855 1.315059,-4.34776 0.585679,-8.55468 -1.711418,-9.87116 -0.954529,-0.54705 -1.426638,-0.62257 -3.865456,-0.61834 -4.798063,0.008 -8.224772,1.59592 -10.984011,5.08892 -1.690193,2.13968 -2.347383,4.35567 -2.006211,6.76477 0.276807,1.95463 1.335717,4.12774 2.814738,5.77646 0.599109,0.66785 0.963276,1.4311 1.17929,2.47163 0.303951,1.46412 0.40607,5.10818 0.150318,5.36393 -0.199813,0.19982 1.611437,1.34331 2.562995,1.61809 1.544413,0.44599 2.02274,0.33137 3.219064,-0.77136 z m 12.313579,-2.40514 c -1.40639,-0.985 -4.014208,-4.11205 -3.903782,-4.68105 0.153284,-0.78983 0.621197,-0.54233 1.533186,0.81098 0.509323,0.75578 1.692963,2.12168 2.630313,3.03532 1.817667,1.7717 1.685335,2.19702 -0.259717,0.83475 z m -31.298373,-4.64163 c -0.398193,-0.39819 -0.123034,-0.61736 0.775076,-0.61736 0.523306,0 1.592392,-0.18632 2.375746,-0.41405 1.51605,-0.44073 3.055554,-0.427 3.204652,0.0286 0.194202,0.59339 -5.816489,1.54182 -6.355474,1.00283 z m 35.349337,-5.82743 c -0.792049,-0.84295 -0.938147,-0.89685 -1.999536,-0.73768 -0.880991,0.13211 -1.226524,0.0735 -1.498325,-0.25396 -0.194299,-0.23411 -0.306541,-0.47122 -0.249422,-0.5269 0.116803,-0.11387 1.632079,-0.21814 2.577703,-0.17737 0.71329,0.0308 2.420937,1.61734 2.420937,2.24931 0,0.60461 -0.27936,0.48107 -1.251357,-0.5534 z m -32.874597,-4.78145 c -3.271879,-2.82814 -3.876283,-3.8332 -3.497318,-5.81564 0.199155,-1.0418 0.70421,-0.49956 0.883783,0.94886 0.20897,1.68553 0.626134,2.34751 2.113203,3.35342 1.60524,1.08583 3.130405,2.33821 3.136098,2.57519 0.01421,0.59054 -1.368597,0.0335 -2.635766,-1.06183 z m 5.104551,-8.06629 c -0.117176,-0.1819 -0.356327,-0.92605 -0.531447,-1.65365 -0.17512,-0.7276 -0.60253,-2.39448 -0.949804,-3.70417 -0.886968,-3.34505 -1.015648,-4.10104 -0.698063,-4.10104 0.33619,0 0.858988,1.22799 1.534623,3.60465 0.284453,1.00062 0.703733,2.32088 0.931727,2.93391 0.227994,0.61303 0.491403,1.59529 0.585351,2.18281 0.138565,0.86654 0.09245,1.06822 -0.244261,1.06822 -0.228293,0 -0.51095,-0.14883 -0.628126,-0.33073 z m 22.967636,0.12737 c 0.131278,-0.36267 3.967641,-3.10607 5.279178,-3.77517 1.07188,-0.54683 2.097506,-0.68372 2.097506,-0.27995 0,0.1317 -0.565547,0.56419 -1.256771,0.96111 -0.691224,0.39692 -1.554427,0.99288 -1.918229,1.32435 -1.20255,1.09569 -4.453324,2.46485 -4.201684,1.76966 z m -14.314199,-3.69925 c 0.01352,-1.26407 5.463307,-9.58792 6.278903,-9.59022 0.584126,-0.002 0.35731,0.6673 -0.769802,2.27032 -0.980191,1.39406 -2.991369,4.69448 -4.244975,6.96617 -0.487868,0.88408 -1.272143,1.10353 -1.264126,0.35373 z m 8.767495,-0.5645 c -0.418931,-0.26522 0.0086,-1.24635 1.396876,-3.20581 1.260594,-1.77923 2.795262,-4.47437 2.795262,-4.90897 0,-0.21048 0.178594,-0.3827 0.396875,-0.3827 0.864735,0 0.360516,1.52782 -1.653646,5.01067 -1.127787,1.95015 -2.169583,3.58313 -2.315104,3.62885 -0.145521,0.0457 -0.424641,-0.0182 -0.620263,-0.14204 z M 48.624392,118.43772 c -0.363802,-0.2157 -0.922322,-0.39639 -1.241155,-0.40154 -0.318834,-0.005 -0.657212,-0.1348 -0.751954,-0.28809 -0.09474,-0.1533 -0.726842,-0.54202 -1.404676,-0.86383 -1.270846,-0.60336 -1.631159,-1.37213 -0.835549,-1.78274 2.091926,-1.07963 3.22914,-1.31594 6.276235,-1.3042 15.009194,0.0578 22.748695,0.0111 23.997386,-0.14495 l 1.47783,-0.18464 0.411986,0.98602 c 0.266311,0.63737 0.384968,1.58754 0.335581,2.68723 l -0.0764,1.70122 -7.149331,-0.1971 c -9.475163,-0.26122 -17.423683,-0.26886 -19.05558,-0.0183 -0.987388,0.15159 -1.490681,0.10364 -1.984375,-0.18906 z m 1.914305,-2.11746 c 0.07832,-0.40971 -0.01564,-0.70175 -0.255378,-0.79375 -0.528598,-0.20284 -1.951773,-0.14895 -2.584072,0.0978 -0.469302,0.18318 -0.410236,0.2684 0.529167,0.76346 1.452126,0.76527 2.15501,0.74472 2.310283,-0.0675 z m 22.110828,-0.0473 c 0.06608,-0.46325 -0.09561,-0.59621 -0.911061,-0.74919 -1.168559,-0.21922 -19.076528,-0.21656 -19.431604,0.003 -0.490048,0.30286 -0.249346,1.13949 0.352428,1.22496 0.327422,0.0465 4.941094,0.0845 10.252604,0.0845 9.650289,0 9.65735,-3.9e-4 9.737633,-0.5632 z m 2.5039,-0.12105 c -0.177339,-0.67815 -0.606385,-0.92393 -0.86955,-0.49812 -0.299305,0.48429 -0.06445,0.93223 0.511513,0.97562 0.36467,0.0275 0.457661,-0.0965 0.358037,-0.4775 z"
                   id="path1753" />
              </g>
            </g>
          </g>
        </g>
      </g>
    </g>
  </g>
</svg>
