<?xml version="1.0" encoding="UTF-8" standalone="no"?>
<svg
   xmlns:dc="http://purl.org/dc/elements/1.1/"
   xmlns:cc="http://creativecommons.org/ns#"
   xmlns:rdf="http://www.w3.org/1999/02/22-rdf-syntax-ns#"
   xmlns:svg="http://www.w3.org/2000/svg"
   xmlns="http://www.w3.org/2000/svg"
   version="1.1"
   id="svg4754"
   viewBox="0 0 348.67391 476.32961"
   height="134.4308mm"
   width="98.403526mm">
  <defs
     id="defs4756" />
  <metadata
     id="metadata4759">
    <rdf:RDF>
      <cc:Work
         rdf:about="">
        <dc:format>image/svg+xml</dc:format>
        <dc:type
           rdf:resource="http://purl.org/dc/dcmitype/StillImage" />
        <dc:title></dc:title>
      </cc:Work>
    </rdf:RDF>
  </metadata>
  <g
     transform="translate(-80.837889,-88.439207)"
     id="layer1">
    <path
       id="path4773"
       d="m 249.85545,429.51837 c -0.1236,-0.15359 -1.32261,-0.39039 -2.66438,-0.5262 -1.34177,-0.13581 -2.5978,-0.56499 -2.79117,-0.95367 -0.19335,-0.38869 -0.56067,-0.63371 -0.81625,-0.54446 -0.98166,0.34268 -4.59948,-0.88535 -5.471,-1.85712 -0.82353,-0.91821 -4.11127,-1.76797 -9.06174,-2.34215 -0.98477,-0.11424 -2.48111,-0.56904 -3.32519,-1.01074 -1.60192,-0.83825 -2.02898,-0.9834 -3.36506,-1.14363 -0.44398,-0.0533 -2.16154,-1.80003 -3.81682,-3.88176 -1.65527,-2.08173 -3.10897,-3.66147 -3.23047,-3.51056 -0.12152,0.15092 -1.18797,-0.93422 -2.36997,-2.41142 -1.18199,-1.4772 -3.13852,-3.40081 -4.34782,-4.27465 -1.20929,-0.87384 -2.4818,-1.92999 -2.82778,-2.34697 -1.65462,-1.99417 -4.62802,-4.00831 -5.91737,-4.00831 -0.7882,0 -1.55842,-0.25188 -1.71157,-0.55975 -0.15317,-0.30787 -2.00839,-0.46284 -4.12273,-0.34439 -3.00443,0.16827 -3.84425,0.0245 -3.84425,-0.65837 0,-0.48052 -0.26764,-0.9845 -0.59476,-1.11996 -0.89159,-0.36922 -0.96612,-2.40196 -0.15916,-4.34059 0.73678,-1.77003 2.04191,-2.77428 2.82453,-2.17338 0.24398,0.18734 1.91619,0.004 3.716,-0.40847 2.82533,-0.64674 3.50299,-0.60617 4.96028,0.297 0.92834,0.57533 1.98836,1.04607 2.35562,1.04607 1.11152,0 4.26469,2.17416 4.27815,2.94985 0.007,0.39903 0.53512,0.88844 1.17379,1.08757 0.63866,0.19915 1.66496,0.94511 2.28066,1.65772 0.6157,0.71262 1.20757,1.29566 1.31525,1.29566 0.10777,0 1.29249,1.28694 2.63288,2.85986 1.3404,1.57294 2.6316,2.85988 2.86934,2.85988 0.23774,0 1.42218,0.81786 2.63206,1.81747 1.20989,0.99959 2.83874,2.00784 3.61963,2.2405 1.34929,0.40205 1.95988,0.91904 4.60356,3.89801 1.43881,1.62128 5.49223,3.35157 8.81203,3.76163 3.51959,0.43473 8.35209,1.48531 8.95241,1.94623 0.49663,0.38131 5.26044,1.52943 7.6735,1.84938 0.70339,0.0932 1.68176,0.38938 2.17415,0.65804 0.49238,0.26863 1.2981,0.27055 1.79047,0.004 0.49239,-0.2663 2.26069,-0.6103 3.92956,-0.76441 1.66888,-0.15414 3.51051,-0.64973 4.09253,-1.1013 0.58201,-0.4516 1.94818,-1.01535 3.03592,-1.25279 1.08772,-0.23744 2.58408,-1.13645 3.32519,-1.99777 0.74109,-0.86134 1.86543,-1.73112 2.49849,-1.93286 0.63306,-0.20174 1.15102,-0.63638 1.15102,-0.96586 0,-0.32948 0.84865,-1.03957 1.88587,-1.57795 2.18794,-1.13571 4.78539,-3.49068 7.08512,-6.4237 0.89071,-1.13599 1.88397,-2.06546 2.20725,-2.06546 0.32329,0 0.58779,-0.28054 0.58779,-0.62343 0,-0.34287 0.58157,-0.80474 1.2924,-1.02639 0.71084,-0.22163 1.52465,-0.94205 1.80848,-1.60093 0.28384,-0.65888 0.76873,-1.19793 1.07753,-1.19793 0.3088,0 0.93377,-0.50166 1.38881,-1.11478 2.01039,-2.70879 5.92295,-6.07365 9.36986,-8.05823 3.9316,-2.26363 12.22258,-4.31694 12.54712,-3.10739 0.0947,0.35297 1.34593,0.50351 2.8753,0.34595 2.53735,-0.26141 2.79384,-0.15164 4.07887,1.74557 1.79874,2.65567 1.81765,5.34752 0.0478,6.78823 -1.41068,1.1483 -3.71801,1.33147 -7.2476,0.57542 -2.36162,-0.50588 -8.80178,0.52849 -10.86837,1.74558 -0.70341,0.41424 -1.65123,1.25563 -2.10628,1.8697 -0.45504,0.61409 -1.0881,1.11653 -1.4068,1.11653 -0.3187,0 -0.57946,0.28598 -0.57946,0.63551 0,0.34954 -0.37218,0.63553 -0.82706,0.63553 -0.4549,0 -2.4163,2.00192 -4.35866,4.44869 -1.94237,2.44678 -3.75714,4.44868 -4.03282,4.44868 -0.27565,0 -0.50119,0.28356 -0.50119,0.63011 0,0.34656 -1.28613,1.5318 -2.85805,2.63391 -1.57192,1.10212 -2.97776,2.39149 -3.12412,2.86531 -0.14638,0.47362 -0.53435,0.8613 -0.86218,0.8613 -0.32784,0 -1.39668,0.80716 -2.37522,1.7937 -1.56604,1.57887 -5.8919,4.50454 -7.00479,4.73751 -0.22088,0.0462 -0.9075,0.71258 -1.52586,1.48077 -1.26136,1.56701 -5.9882,3.73688 -6.7935,3.11858 -0.28767,-0.22087 -0.52306,-0.0969 -0.52306,0.27528 0,0.45685 -1.45513,0.55063 -4.47621,0.28851 -5.31559,-0.46119 -4.92568,-0.44238 -5.24354,-0.25284 -0.50316,0.30002 -5.57658,0.4846 -5.79689,0.21089 z m 75.69718,-10.63912 c -1.88808,-3.0752 -2.11934,-4.87917 -0.84355,-6.58036 0.58724,-0.78306 1.38122,-1.42372 1.76448,-1.42372 0.38325,0 2.05904,-1.64442 3.72398,-3.65427 4.14124,-4.99916 6.26382,-7.14969 7.05672,-7.14969 0.36809,0 1.25683,-0.92946 1.97498,-2.06547 0.71814,-1.13599 1.65942,-2.56593 2.09173,-3.17762 0.43234,-0.6117 0.78604,-1.54116 0.78604,-2.06548 0,-0.52431 0.20079,-0.95329 0.44618,-0.95329 0.24541,0 0.60081,-1.20126 0.78979,-2.66946 0.18898,-1.4682 0.53197,-2.96963 0.7622,-3.33651 1.11099,-1.77047 1.71626,-9.42213 1.00793,-12.74208 -0.22372,-1.04862 -0.54298,-2.89585 -0.70946,-4.10494 -0.16646,-1.2091 -0.51911,-2.52235 -0.78365,-2.91837 -0.26454,-0.39597 -0.34439,-0.88965 -0.17745,-1.09704 0.16694,-0.20739 -0.0653,-1.03117 -0.51601,-1.83064 -0.45073,-0.79945 -0.81953,-2.06997 -0.81953,-2.82335 0,-0.7534 -0.38886,-2.47718 -0.86416,-3.83065 -0.47528,-1.35346 -0.88426,-2.60383 -0.90883,-2.77859 -0.0246,-0.17478 -0.64414,-1.89069 -1.37683,-3.81317 -0.73267,-1.92247 -1.50212,-4.18546 -1.70991,-5.02886 -0.20778,-0.84342 -0.73923,-2.55933 -1.18101,-3.81316 -0.44178,-1.25384 -0.83711,-2.4227 -0.87851,-2.59748 -0.34976,-1.47665 -1.14854,-3.21819 -2.37393,-5.17566 -0.79733,-1.2737 -1.44971,-2.59744 -1.44971,-2.94167 0,-0.3442 -0.63306,-0.96328 -1.40681,-1.3757 -1.29595,-0.69075 -3.74088,-5.56325 -3.71762,-7.40881 0.004,-0.38276 -0.45163,-1.21354 -1.01436,-1.84622 -0.56272,-0.63265 -1.02313,-1.6143 -1.02313,-2.18143 0,-0.56714 -0.31155,-1.59526 -0.69232,-2.28473 -0.38078,-0.68947 -1.31772,-3.2555 -2.08208,-5.70226 -1.4847,-4.7527 -2.38093,-7.37414 -3.91624,-11.45475 -0.5292,-1.40655 -1.11354,-3.55146 -1.29852,-4.76644 -0.185,-1.21501 -0.63086,-2.63809 -0.99084,-3.1624 -0.8001,-1.16537 -2.78541,-7.5562 -2.78576,-8.96758 -1.5e-4,-0.56292 -0.57349,-2.07288 -1.27411,-3.35545 -0.70059,-1.28258 -1.23895,-2.53793 -1.19628,-2.78968 0.0735,-0.4343 -0.16733,-1.28298 -1.84348,-6.49521 -0.69793,-2.17035 -1.33515,-4.44582 -1.42377,-5.08422 -0.0241,-0.17478 -0.34304,-0.60377 -0.70839,-0.9533 -0.36536,-0.34954 -0.7746,-1.77949 -0.90944,-3.17765 -0.35241,-3.65441 -1.5902,-10.19961 -2.7643,-14.61712 -0.55741,-2.09723 -1.02584,-4.76143 -1.04095,-5.92041 -0.0419,-3.21489 -0.59369,-5.69519 -1.3468,-6.05423 -0.71917,-0.34283 -1.35594,-5.50236 -0.67908,-5.50236 0.63183,0 0.47442,-4.38168 -0.33108,-9.21516 -1.48115,-8.88788 -1.88638,-11.50323 -2.31415,-14.93489 -0.23963,-1.92245 -0.67512,-4.63934 -0.96774,-6.03749 -1.34726,-6.43704 -1.60551,-8.11678 -2.39374,-15.57043 -0.46205,-4.36926 -1.05183,-8.21579 -1.31063,-8.54785 -0.2588,-0.33206 -0.47117,-1.90498 -0.47197,-3.4954 -0.003,-4.30285 -1.04452,-14.24474 -1.56404,-14.9175 -0.24904,-0.3225 -0.31488,-2.61352 -0.14629,-5.09112 0.20016,-2.94185 0.0278,-6.37658 -0.49681,-9.89985 -0.44183,-2.96728 -0.92395,-8.77953 -1.07141,-12.91607 -0.22333,-6.26519 -0.12916,-7.78436 0.56382,-9.09828 0.5821,-1.10369 0.9355,-3.80689 1.17699,-9.00271 0.20292,-4.36665 0.62638,-7.98397 1.02795,-8.781333 1.02147,-2.02813 3.1742,-3.425887 4.18937,-2.720106 1.14976,0.799356 1.60192,3.773809 0.91491,6.018639 -0.31066,1.01513 -0.68002,4.28216 -0.8208,7.26009 -0.14078,2.97792 -0.45033,7.13034 -0.68793,9.22757 -0.74132,6.54381 0.13292,26.29777 1.20125,27.14419 0.3684,0.29185 0.52571,2.54367 0.44395,6.35527 -0.0696,3.24678 0.1023,7.47617 0.382,9.39863 0.27972,1.92248 0.83847,6.93099 1.24162,11.13001 0.79006,8.22888 1.6898,13.47143 2.4064,14.02165 0.24675,0.18945 0.44865,1.56685 0.44865,3.06089 0,1.49404 0.15634,2.91069 0.34743,3.14808 0.19109,0.2374 0.43687,1.6236 0.54616,3.08047 0.1093,1.45684 0.52846,3.44098 0.93148,4.40918 0.40302,0.96818 0.73281,3.13299 0.73285,4.81066 1.1e-4,3.91249 1.20546,11.73098 2.59708,16.84596 0.82871,3.04602 1.01187,4.81251 0.76845,7.41194 -0.20947,2.23686 -0.11166,3.72415 0.28411,4.31647 0.33207,0.49703 0.6644,2.25014 0.73853,3.89578 0.30075,6.67419 1.34447,11.15302 3.40979,14.63209 1.10301,1.85797 1.87874,3.78838 1.72384,4.2898 -0.15488,0.50141 -0.0586,0.91166 0.21392,0.91166 0.27253,0 0.49552,0.62318 0.49552,1.38483 0,1.97299 2.16111,10.05466 2.68869,10.05466 0.24259,0 0.28523,0.31327 0.0947,0.69613 -0.19046,0.38287 -0.12082,1.31233 0.15469,2.06545 1.5273,4.17446 2.1775,6.26831 2.1775,7.01216 0,0.45828 0.44365,1.33201 0.98588,1.94162 0.54222,0.60961 1.14522,2.29836 1.34,3.75278 0.19479,1.45441 0.80157,4.13909 1.34843,5.96592 0.54685,1.82685 0.99616,3.54277 0.99848,3.81317 0.003,0.27039 0.3788,1.00583 0.8366,1.63428 0.45782,0.62848 0.8885,1.61753 0.95707,2.19792 0.12639,1.06943 1.4425,5.27608 2.28268,7.29589 0.25249,0.60695 0.45905,1.53641 0.45905,2.06546 0,0.52905 0.23743,0.96191 0.52763,0.96191 0.2902,0 0.6783,0.48781 0.86247,1.08405 0.34121,1.10465 0.85126,1.96007 3.3419,5.60473 0.77373,1.13225 1.4068,2.37839 1.4068,2.76916 0,0.39076 0.23021,0.71051 0.51157,0.71051 0.28137,0 0.51155,0.41911 0.51155,0.93137 0,0.51227 0.69063,1.80907 1.53471,2.88179 0.84408,1.07272 1.53469,2.49564 1.53469,3.16204 0,0.66642 0.23022,1.38838 0.51158,1.60441 0.28135,0.21603 0.51157,1.17483 0.51157,2.13068 0,0.95584 0.67125,3.29836 1.49171,5.2056 1.42335,3.30882 2.33091,5.59858 3.89336,9.82296 0.38785,1.04862 0.94298,3.05052 1.23362,4.4487 0.29065,1.39816 1.32289,4.52917 2.29388,6.9578 0.97098,2.42863 1.64238,4.66307 1.49197,4.96539 -0.15039,0.30234 0.12096,1.09119 0.60314,1.75303 0.96264,1.32146 2.29573,8.65821 2.48047,13.65145 0.1343,3.62805 -0.53712,9.78454 -1.17485,10.7738 -0.23602,0.36613 -0.58563,1.57539 -0.77688,2.68724 -0.19126,1.11186 -0.67572,2.35972 -1.07657,2.773 -0.40087,0.41331 -0.59916,1.01212 -0.44065,1.33072 0.15848,0.31861 0.0251,0.50069 -0.29639,0.40463 -0.3215,-0.096 -1.12736,1.59156 -1.79082,3.75025 -0.7521,2.44714 -2.08611,5.07919 -3.54314,6.99079 -1.28527,1.68626 -2.33681,3.49491 -2.33675,4.01922 1.6e-4,1.12599 -4.55495,6.35529 -5.53591,6.35529 -0.37235,0 -1.43153,0.71497 -2.35375,1.58881 -0.9222,0.87385 -1.92357,1.58882 -2.22528,1.58882 -0.3017,0 -0.62526,0.24065 -0.71905,0.53479 -0.0937,0.29413 -0.8988,0.71101 -1.78889,0.92642 -1.40668,0.3404 -1.78788,0.11556 -2.91422,-1.71899 z m -151.27506,0.004 c -0.16033,-0.20069 -1.31136,-0.52259 -2.55782,-0.71535 -1.24647,-0.19278 -3.18712,-0.87887 -4.31256,-1.52465 -1.12545,-0.6458 -2.79443,-1.56268 -3.70885,-2.03755 -0.91443,-0.47486 -1.6626,-1.04932 -1.6626,-1.27658 0,-0.22723 -0.63305,-1.25605 -1.40679,-2.28624 -0.77375,-1.0302 -1.75213,-2.70486 -2.17416,-3.72149 -0.42206,-1.01662 -1.01266,-2.17361 -1.31247,-2.57101 -0.29983,-0.39743 -0.83341,-2.32299 -1.18577,-4.27898 -0.35234,-1.95601 -0.83825,-3.70811 -1.07977,-3.89354 -0.24358,-0.187 -0.24488,-1.17865 -0.003,-2.22661 0.26633,-1.15361 0.24211,-2.03845 -0.0622,-2.27208 -0.27409,-0.21046 -0.43554,-0.85778 -0.35876,-1.43852 0.0768,-0.58072 -0.0172,-1.36586 -0.20899,-1.74477 -0.5044,-0.99675 -0.97841,-11.83541 -0.50161,-11.46934 0.22039,0.16921 0.42582,-0.17181 0.45648,-0.75784 0.16711,-3.19293 0.52271,-5.85455 0.83384,-6.24107 0.19402,-0.24104 0.3542,-0.89108 0.35593,-1.44453 10e-4,-0.55343 0.31149,-1.74028 0.68835,-2.63742 0.85394,-2.0329 1.43105,-4.69757 1.63952,-7.57022 0.0882,-1.21584 0.40556,-2.31212 0.70517,-2.43619 0.29974,-0.12422 0.54488,-1.20295 0.54488,-2.39721 0,-1.19426 0.1913,-2.17137 0.42513,-2.17137 0.23381,0 0.75177,-0.77778 1.15103,-1.7284 0.39923,-0.95061 1.07121,-2.21706 1.49323,-2.81432 1.5069,-2.13249 1.94857,-2.91202 2.77528,-4.89807 0.46083,-1.1071 1.29105,-2.36449 1.84491,-2.79421 1.08416,-0.84112 1.43001,-2.12441 0.3676,-1.36389 -0.3517,0.25177 -0.13542,-0.23182 0.48059,-1.07465 1.16086,-1.58826 1.18198,-1.65544 1.18198,-3.75676 0,-0.69908 0.28776,-1.27145 0.63946,-1.2719 0.84422,-10e-4 2.94152,-5.94252 2.94152,-8.33297 0,-1.03364 0.37649,-2.59317 0.83664,-3.46565 0.46016,-0.87246 0.69182,-1.7662 0.51482,-1.98609 -0.177,-0.21988 0.14098,-0.80251 0.70662,-1.2947 0.56563,-0.49221 0.89589,-1.16132 0.73389,-1.48694 -0.162,-0.32563 -0.0755,-0.59203 0.19249,-0.59203 0.83575,0 1.30068,-1.97116 1.84271,-7.81263 0.39377,-4.2434 1.2964,-6.80452 2.39821,-6.80452 0.59861,0 1.3608,-0.80061 1.87871,-1.97342 0.47929,-1.0854 1.49418,-2.76649 2.25529,-3.73577 0.76113,-0.96928 1.27353,-1.89938 1.13867,-2.06694 -0.13485,-0.16752 0.10569,-0.66634 0.53452,-1.1085 0.42883,-0.44215 0.77972,-1.17925 0.77972,-1.63802 0,-0.45875 0.26845,-1.63919 0.59658,-2.62316 0.32813,-0.98401 0.61941,-2.21805 0.64729,-2.74237 0.0279,-0.52432 0.17969,-1.23927 0.33736,-1.58881 0.15765,-0.34955 0.33413,-1.62525 0.39217,-2.83492 0.058,-1.20966 0.30131,-2.35361 0.54058,-2.54211 0.23928,-0.1885 0.57545,-1.60224 0.74701,-3.14165 0.17156,-1.53941 0.7353,-3.69036 1.25275,-4.77987 0.52453,-1.10448 0.85543,-2.7729 0.74787,-3.77079 -0.13638,-1.26475 -0.0142,-1.65246 0.41683,-1.32162 0.46029,0.3534 0.52377,-0.47617 0.25897,-3.38396 -0.27811,-3.05376 -0.13583,-4.61176 0.68615,-7.5174 0.57033,-2.0159 0.93289,-3.79459 0.80567,-3.95265 -0.12722,-0.15803 0.0402,-0.89322 0.37201,-1.63373 0.33183,-0.74049 0.63481,-1.48935 0.67328,-1.66413 0.46267,-2.10207 1.43263,-4.37983 1.75855,-4.12958 0.49993,0.38383 1.2405,-5.71978 0.80116,-6.60287 -0.17035,-0.34244 0.0548,-1.85705 0.50001,-3.36582 1.417,-4.80043 2.24163,-8.97528 1.90603,-9.64985 -0.66282,-1.33234 -0.99192,-35.40077 -0.43054,-44.57107 0.34031,-5.55936 1.61365,-13.96789 2.3098,-15.25266 0.56546,-1.04361 0.602,-10.42356 0.0456,-11.71505 -0.35673,-0.82807 -0.28918,-2.92304 0.21975,-6.8153 0.63544,-4.85988 1.30049,-14.90272 1.43478,-21.66676 0.0225,-1.136 0.17337,-2.0654 0.33517,-2.06535 0.16179,8e-5 0.25686,-4.79022 0.21128,-10.64507 -0.0514,-6.59184 0.16687,-12.148733 0.57304,-14.593848 0.36075,-2.171749 0.55859,-4.06956 0.43961,-4.217359 -0.11903,-0.147789 0.42338,-0.893805 1.20522,-1.657827 0.78181,-0.764001 1.49944,-1.098667 1.59469,-0.74368 0.0953,0.354975 0.46039,0.508498 0.81146,0.341128 0.35104,-0.167338 0.93899,0.393795 1.30655,1.246979 0.56065,1.30148 0.53905,1.995794 -0.13416,4.312041 -0.85152,2.929373 -1.44343,20.415066 -1.58863,46.929936 -0.0844,15.42804 -0.54057,22.35776 -1.84044,27.9632 -1.51183,6.51941 -2.13353,18.65099 -1.56838,30.60455 0.2701,5.71283 0.43818,11.53091 0.3735,12.92908 -0.0999,2.16009 0.46804,7.39327 1.56093,14.38299 0.14383,0.91983 0.008,1.86617 -0.29925,2.10297 -0.3084,0.23679 -0.56072,1.13249 -0.56072,1.99046 0,1.58205 -0.69362,3.4969 -1.99766,5.51473 -0.39531,0.6117 -0.56205,1.11218 -0.37054,1.11218 0.19152,0 0.003,0.83131 -0.42077,1.84735 -0.42294,1.01608 -1.26035,4.09043 -1.86094,6.83193 -0.60058,2.74151 -1.29877,5.30345 -1.55157,5.69323 -0.25279,0.38977 -0.56324,2.10568 -0.68991,3.81317 -0.70227,9.46628 -6.48552,33.58478 -9.65921,40.28283 -0.9109,1.92248 -1.9474,5.21133 -2.30332,7.30856 -0.57368,3.38049 -1.20655,5.5699 -2.70713,9.36541 -0.23996,0.60696 -0.4363,1.6794 -0.4363,2.38322 0,0.70383 -0.23021,1.27969 -0.51156,1.27969 -0.28136,0 -0.51157,0.97777 -0.51157,2.17283 0,1.19507 -0.32401,2.98249 -0.72004,3.97206 -0.73305,1.83181 -1.24453,3.35811 -2.35979,7.04229 -0.34388,1.13601 -0.82754,2.06547 -1.07477,2.06547 -0.24722,0 -0.4495,0.60877 -0.4495,1.35285 0,1.21191 -3.33441,7.96458 -4.88259,9.88788 -0.33441,0.41545 -1.86569,3.13251 -3.40287,6.03793 -2.74835,5.19463 -3.61592,7.42158 -4.2071,10.799 -0.16396,0.93678 -0.59371,2.08073 -0.955,2.5421 -0.36128,0.46136 -1.06647,2.69776 -1.56707,4.96977 -0.50062,2.27202 -1.11561,4.98889 -1.36666,6.03751 -0.79711,3.32946 -0.4777,14.26796 0.52889,18.11254 0.50333,1.92247 1.05728,4.28047 1.23099,5.24 0.38542,2.12916 4.86394,8.10607 6.0739,8.10607 0.48071,0 0.87403,0.28598 0.87403,0.63552 0,0.34953 0.40285,0.6373 0.89524,0.63945 0.49237,10e-4 1.58585,0.45552 2.42993,1.00747 1.00206,0.65526 2.84367,0.99976 5.30622,0.99261 2.07435,-0.005 4.20374,0.32439 4.73199,0.73422 1.74585,1.35451 1.00862,6.0668 -1.27675,8.16076 -1.13011,1.03548 -7.46524,2.26467 -8.02986,1.55801 z m 5.95166,-26.25229 c -0.27762,-0.90577 -0.21886,-0.97876 0.28637,-0.35577 0.34961,0.43109 0.50679,0.94391 0.3493,1.13956 -0.15752,0.19569 -0.44356,-0.15702 -0.63567,-0.78379 z"
       style="fill:#dab" />
    <g
       transform="matrix(0.9843775,0.17607085,-0.17607085,0.9843775,-500.59761,212.38205)"
       id="g4830">
      <path
         id="path4846"
         d="m 672.64288,229.52166 c -7.35972,-1.08515 -21.25371,-6.29268 -25.81532,-9.67569 -10.55544,-7.8282 -20.30386,-19.5307 -21.44657,-25.74557 -0.53095,-2.88767 0.87837,-10.77248 3.75779,-21.02391 0.77242,-2.75 1.68326,-6.35 2.02411,-8 0.34084,-1.65 2.65025,-6.73709 5.13201,-11.30465 3.7046,-6.81813 5.84984,-9.40245 11.9846,-14.43754 13.01218,-10.67973 28.32785,-18.9735 40.1377,-21.73546 5.35202,-1.25167 16.75019,-0.84406 24.72568,0.88423 37.67781,8.16477 45.87877,10.64339 61.2085,18.49942 l 10.20851,5.23155 6.29149,-6.41652 c 3.46033,-3.52908 7.8665,-7.48622 9.7915,-8.79365 1.925,-1.30742 7.325,-5.32652 12,-8.93132 12.1114,-9.33886 46.19211,-26.070773 74,-36.330264 3.025,-1.116049 6.4,-2.275024 7.5,-2.5755 3.5772,-0.977147 22.7255,-3.438992 23.87848,-3.06999 0.61684,0.197413 2.92152,0.590173 5.12152,0.8728 11.06734,1.421782 18.10189,5.348937 28.18612,15.735383 8.06942,8.311251 12.18753,13.594001 13.08648,16.787451 1.33999,4.76026 0.68318,24.28685 -0.99926,29.70719 -2.55553,8.23319 -7.3553,17.35995 -13.08277,24.87687 -5.0001,6.56229 -7.46188,8.80645 -20.25958,18.46861 -6.99988,5.28486 -19.87721,11.5938 -28.59589,14.00987 -12.72984,3.52762 -35.72121,2.21968 -42.8351,-2.43682 -4.85082,-3.17518 -22.61116,-13.44812 -24.76235,-14.32306 -2.98362,-1.2135 -20.31214,-11.23692 -21.23765,-12.2846 -0.275,-0.3113 -2.75,-2.09268 -5.5,-3.95862 -2.75,-1.86595 -5.45,-3.76383 -6,-4.21752 -2.91502,-2.40456 -13.01494,-7.77423 -13.94873,-7.41591 -0.59603,0.22872 -1.73471,1.70785 -2.53041,3.28695 -1.63175,3.23831 -9.26358,12.83747 -12.61836,15.8711 -1.21644,1.1 -3.85798,4.3982 -5.87007,7.32933 -10.52769,15.33624 -31.85027,34.50499 -44.25454,39.78432 -2.07784,0.88434 -5.12789,2.22338 -6.77789,2.97564 -5.99633,2.73382 -20.1407,7.27787 -25.93366,8.33149 -6.59294,1.19913 -8.57918,1.20205 -16.56634,0.0244 z m 18.53114,-6.28896 c 8.0811,-1.92614 24.78325,-8.54119 32.58572,-12.9059 5.91579,-3.30929 19.69668,-14.56151 24.41569,-19.9356 5.62282,-6.40338 11.34668,-13.68719 13.25476,-16.86713 1.17238,-1.95383 3.61234,-4.9461 5.42214,-6.64947 4.78869,-4.50709 14.08622,-18.08522 13.47478,-19.6786 -0.28786,-0.75017 -5.62208,-3.85149 -11.85381,-6.89184 -11.04265,-5.38749 -26.55771,-10.54873 -39.78562,-13.23506 -28.28934,-5.74503 -32.0143,-6.12844 -39.90354,-4.10731 -11.44634,2.93241 -26.9666,11.85524 -37.36319,21.48065 -6.45727,5.9783 -13.74322,17.8528 -13.76485,22.43371 -0.007,1.53981 -0.661,4.05233 -1.45274,5.58338 -2.37745,4.59749 -4.72367,16.31894 -4.02446,20.10573 1.28383,6.95287 13.54184,19.93303 23.78503,25.18625 5.47243,2.80654 18.79282,6.42712 24.62487,6.69324 2.539,0.11585 7.30235,-0.42957 10.58522,-1.21205 z m 209.4363,-31.57997 c 3.81816,-1.05807 8.02591,-2.52057 9.35055,-3.25 1.32464,-0.72943 5.11816,-2.76906 8.43005,-4.5325 3.31189,-1.76344 6.63594,-3.79491 7.38679,-4.51438 2.80238,-2.68528 9.68332,-7.77939 10.50907,-7.78009 0.47086,-4.1e-4 3.89798,-3.77151 7.61583,-8.38022 11.42021,-14.15673 15.71572,-26.18789 15.73272,-44.0653 0.007,-7.03418 -0.3081,-8.40768 -2.74245,-11.96635 -1.5125,-2.21106 -3.425,-4.71502 -4.25,-5.56435 -0.825,-0.84933 -2.40192,-2.66447 -3.50427,-4.033644 -3.34835,-4.158842 -11.10634,-9.91868 -17.21413,-12.78046 -5.35775,-2.510354 -6.66132,-2.698224 -17.7816,-2.562661 -15.37016,0.18737 -28.08851,3.733385 -48.5,13.522319 -4.675,2.242035 -10.29851,4.715506 -12.4967,5.496596 -6.04599,2.14835 -22.0135,10.88816 -31.0033,16.96965 -11.11405,7.51853 -17.65454,13.0176 -22.4378,18.86515 -2.24949,2.75 -5.04016,5.96877 -6.20149,7.15282 l -2.11151,2.15283 4.3754,2.75022 c 2.40647,1.51262 5.59468,3.58134 7.08491,4.59717 1.49023,1.01583 2.9477,1.84696 3.23883,1.84696 0.29113,0 3.12185,1.96476 6.29049,4.36613 7.61402,5.77033 15.10756,10.46191 24.26117,15.18954 4.125,2.13047 11.775,6.39705 17,9.4813 14.04476,8.29043 14.97826,8.55787 30.76266,8.8132 6.46343,0.10455 11.3606,-0.43154 16.20478,-1.77393 z"
         style="fill:#dab" />
      <path
         id="path4844"
         d="m 672.64288,229.52166 c -7.35972,-1.08515 -21.25371,-6.29268 -25.81532,-9.67569 -10.55544,-7.8282 -20.30386,-19.5307 -21.44657,-25.74557 -0.53095,-2.88767 0.87837,-10.77248 3.75779,-21.02391 0.77242,-2.75 1.68326,-6.35 2.02411,-8 0.34084,-1.65 2.65025,-6.73709 5.13201,-11.30465 3.7046,-6.81813 5.84984,-9.40245 11.9846,-14.43754 13.01218,-10.67973 28.32785,-18.9735 40.1377,-21.73546 5.35202,-1.25167 16.75019,-0.84406 24.72568,0.88423 37.67781,8.16477 45.87877,10.64339 61.2085,18.49942 l 10.20851,5.23155 6.29149,-6.41652 c 3.46033,-3.52908 7.8665,-7.48622 9.7915,-8.79365 1.925,-1.30742 7.325,-5.32652 12,-8.93132 12.1114,-9.33886 46.19211,-26.070773 74,-36.330264 3.025,-1.116049 6.4,-2.275024 7.5,-2.5755 3.5772,-0.977147 22.7255,-3.438992 23.87848,-3.06999 0.61684,0.197413 2.92152,0.590173 5.12152,0.8728 11.06734,1.421782 18.10189,5.348937 28.18612,15.735383 8.06942,8.311251 12.18753,13.594001 13.08648,16.787451 1.33999,4.76026 0.68318,24.28685 -0.99926,29.70719 -2.55553,8.23319 -7.3553,17.35995 -13.08277,24.87687 -5.0001,6.56229 -7.46188,8.80645 -20.25958,18.46861 -6.99988,5.28486 -19.87721,11.5938 -28.59589,14.00987 -12.72984,3.52762 -35.72121,2.21968 -42.8351,-2.43682 -4.85082,-3.17518 -22.61116,-13.44812 -24.76235,-14.32306 -2.98362,-1.2135 -20.31214,-11.23692 -21.23765,-12.2846 -0.275,-0.3113 -2.75,-2.09268 -5.5,-3.95862 -2.75,-1.86595 -5.45,-3.76383 -6,-4.21752 -2.91502,-2.40456 -13.01494,-7.77423 -13.94873,-7.41591 -0.59603,0.22872 -1.73471,1.70785 -2.53041,3.28695 -1.63175,3.23831 -9.26358,12.83747 -12.61836,15.8711 -1.21644,1.1 -3.85798,4.3982 -5.87007,7.32933 -10.52769,15.33624 -31.85027,34.50499 -44.25454,39.78432 -2.07784,0.88434 -5.12789,2.22338 -6.77789,2.97564 -5.99633,2.73382 -20.1407,7.27787 -25.93366,8.33149 -6.59294,1.19913 -8.57918,1.20205 -16.56634,0.0244 z m 18.53114,-6.28896 c 8.0811,-1.92614 24.78325,-8.54119 32.58572,-12.9059 5.91579,-3.30929 19.69668,-14.56151 24.41569,-19.9356 5.62282,-6.40338 11.34668,-13.68719 13.25476,-16.86713 1.17238,-1.95383 3.61234,-4.9461 5.42214,-6.64947 4.78869,-4.50709 14.08622,-18.08522 13.47478,-19.6786 -0.28786,-0.75017 -5.62208,-3.85149 -11.85381,-6.89184 -11.04265,-5.38749 -26.55771,-10.54873 -39.78562,-13.23506 -28.28934,-5.74503 -32.0143,-6.12844 -39.90354,-4.10731 -11.44634,2.93241 -26.9666,11.85524 -37.36319,21.48065 -6.45727,5.9783 -13.74322,17.8528 -13.76485,22.43371 -0.007,1.53981 -0.661,4.05233 -1.45274,5.58338 -2.37745,4.59749 -4.72367,16.31894 -4.02446,20.10573 1.28383,6.95287 13.54184,19.93303 23.78503,25.18625 5.47243,2.80654 18.79282,6.42712 24.62487,6.69324 2.539,0.11585 7.30235,-0.42957 10.58522,-1.21205 z m 209.4363,-31.57997 c 3.81816,-1.05807 8.02591,-2.52057 9.35055,-3.25 1.32464,-0.72943 5.11816,-2.76906 8.43005,-4.5325 3.31189,-1.76344 6.63594,-3.79491 7.38679,-4.51438 2.80238,-2.68528 9.68332,-7.77939 10.50907,-7.78009 0.47086,-4.1e-4 3.89798,-3.77151 7.61583,-8.38022 11.42021,-14.15673 15.71572,-26.18789 15.73272,-44.0653 0.007,-7.03418 -0.3081,-8.40768 -2.74245,-11.96635 -1.5125,-2.21106 -3.425,-4.71502 -4.25,-5.56435 -0.825,-0.84933 -2.40192,-2.66447 -3.50427,-4.033644 -3.34835,-4.158842 -11.10634,-9.91868 -17.21413,-12.78046 -5.35775,-2.510354 -6.66132,-2.698224 -17.7816,-2.562661 -15.37016,0.18737 -28.08851,3.733385 -48.5,13.522319 -4.675,2.242035 -10.29851,4.715506 -12.4967,5.496596 -6.04599,2.14835 -22.0135,10.88816 -31.0033,16.96965 -11.11405,7.51853 -17.65454,13.0176 -22.4378,18.86515 -2.24949,2.75 -5.04016,5.96877 -6.20149,7.15282 l -2.11151,2.15283 4.3754,2.75022 c 2.40647,1.51262 5.59468,3.58134 7.08491,4.59717 1.49023,1.01583 2.9477,1.84696 3.23883,1.84696 0.29113,0 3.12185,1.96476 6.29049,4.36613 7.61402,5.77033 15.10756,10.46191 24.26117,15.18954 4.125,2.13047 11.775,6.39705 17,9.4813 14.04476,8.29043 14.97826,8.55787 30.76266,8.8132 6.46343,0.10455 11.3606,-0.43154 16.20478,-1.77393 z"
         style="fill:#dab" />
      <path
         id="path4842"
         d="m 672.64288,229.52166 c -7.35972,-1.08515 -21.25371,-6.29268 -25.81532,-9.67569 -10.55544,-7.8282 -20.30386,-19.5307 -21.44657,-25.74557 -0.53095,-2.88767 0.87837,-10.77248 3.75779,-21.02391 0.77242,-2.75 1.68326,-6.35 2.02411,-8 0.34084,-1.65 2.65025,-6.73709 5.13201,-11.30465 3.7046,-6.81813 5.84984,-9.40245 11.9846,-14.43754 13.01218,-10.67973 28.32785,-18.9735 40.1377,-21.73546 5.35202,-1.25167 16.75019,-0.84406 24.72568,0.88423 37.67781,8.16477 45.87877,10.64339 61.2085,18.49942 l 10.20851,5.23155 6.29149,-6.41652 c 3.46033,-3.52908 7.8665,-7.48622 9.7915,-8.79365 1.925,-1.30742 7.325,-5.32652 12,-8.93132 12.1114,-9.33886 46.19211,-26.070773 74,-36.330264 3.025,-1.116049 6.4,-2.275024 7.5,-2.5755 3.5772,-0.977147 22.7255,-3.438992 23.87848,-3.06999 0.61684,0.197413 2.92152,0.590173 5.12152,0.8728 11.06734,1.421782 18.10189,5.348937 28.18612,15.735383 8.06942,8.311251 12.18753,13.594001 13.08648,16.787451 1.33999,4.76026 0.68318,24.28685 -0.99926,29.70719 -2.55553,8.23319 -7.3553,17.35995 -13.08277,24.87687 -5.0001,6.56229 -7.46188,8.80645 -20.25958,18.46861 -6.99988,5.28486 -19.87721,11.5938 -28.59589,14.00987 -12.72984,3.52762 -35.72121,2.21968 -42.8351,-2.43682 -4.85082,-3.17518 -22.61116,-13.44812 -24.76235,-14.32306 -2.98362,-1.2135 -20.31214,-11.23692 -21.23765,-12.2846 -0.275,-0.3113 -2.75,-2.09268 -5.5,-3.95862 -2.75,-1.86595 -5.45,-3.76383 -6,-4.21752 -2.91502,-2.40456 -13.01494,-7.77423 -13.94873,-7.41591 -0.59603,0.22872 -1.73471,1.70785 -2.53041,3.28695 -1.63175,3.23831 -9.26358,12.83747 -12.61836,15.8711 -1.21644,1.1 -3.85798,4.3982 -5.87007,7.32933 -10.52769,15.33624 -31.85027,34.50499 -44.25454,39.78432 -2.07784,0.88434 -5.12789,2.22338 -6.77789,2.97564 -5.99633,2.73382 -20.1407,7.27787 -25.93366,8.33149 -6.59294,1.19913 -8.57918,1.20205 -16.56634,0.0244 z m 18.53114,-6.28896 c 8.0811,-1.92614 24.78325,-8.54119 32.58572,-12.9059 5.91579,-3.30929 19.69668,-14.56151 24.41569,-19.9356 5.62282,-6.40338 11.34668,-13.68719 13.25476,-16.86713 1.17238,-1.95383 3.61234,-4.9461 5.42214,-6.64947 4.78869,-4.50709 14.08622,-18.08522 13.47478,-19.6786 -0.28786,-0.75017 -5.62208,-3.85149 -11.85381,-6.89184 -11.04265,-5.38749 -26.55771,-10.54873 -39.78562,-13.23506 -28.28934,-5.74503 -32.0143,-6.12844 -39.90354,-4.10731 -11.44634,2.93241 -26.9666,11.85524 -37.36319,21.48065 -6.45727,5.9783 -13.74322,17.8528 -13.76485,22.43371 -0.007,1.53981 -0.661,4.05233 -1.45274,5.58338 -2.37745,4.59749 -4.72367,16.31894 -4.02446,20.10573 1.28383,6.95287 13.54184,19.93303 23.78503,25.18625 5.47243,2.80654 18.79282,6.42712 24.62487,6.69324 2.539,0.11585 7.30235,-0.42957 10.58522,-1.21205 z m 209.4363,-31.57997 c 3.81816,-1.05807 8.02591,-2.52057 9.35055,-3.25 1.32464,-0.72943 5.11816,-2.76906 8.43005,-4.5325 3.31189,-1.76344 6.63594,-3.79491 7.38679,-4.51438 2.80238,-2.68528 9.68332,-7.77939 10.50907,-7.78009 0.47086,-4.1e-4 3.89798,-3.77151 7.61583,-8.38022 11.42021,-14.15673 15.71572,-26.18789 15.73272,-44.0653 0.007,-7.03418 -0.3081,-8.40768 -2.74245,-11.96635 -1.5125,-2.21106 -3.425,-4.71502 -4.25,-5.56435 -0.825,-0.84933 -2.40192,-2.66447 -3.50427,-4.033644 -3.34835,-4.158842 -11.10634,-9.91868 -17.21413,-12.78046 -5.35775,-2.510354 -6.66132,-2.698224 -17.7816,-2.562661 -15.37016,0.18737 -28.08851,3.733385 -48.5,13.522319 -4.675,2.242035 -10.29851,4.715506 -12.4967,5.496596 -6.04599,2.14835 -22.0135,10.88816 -31.0033,16.96965 -11.11405,7.51853 -17.65454,13.0176 -22.4378,18.86515 -2.24949,2.75 -5.04016,5.96877 -6.20149,7.15282 l -2.11151,2.15283 4.3754,2.75022 c 2.40647,1.51262 5.59468,3.58134 7.08491,4.59717 1.49023,1.01583 2.9477,1.84696 3.23883,1.84696 0.29113,0 3.12185,1.96476 6.29049,4.36613 7.61402,5.77033 15.10756,10.46191 24.26117,15.18954 4.125,2.13047 11.775,6.39705 17,9.4813 14.04476,8.29043 14.97826,8.55787 30.76266,8.8132 6.46343,0.10455 11.3606,-0.43154 16.20478,-1.77393 z"
         style="fill:#dab" />
      <path
         id="path4840"
         d="m 672.64288,229.52166 c -7.35972,-1.08515 -21.25371,-6.29268 -25.81532,-9.67569 -10.55544,-7.8282 -20.30386,-19.5307 -21.44657,-25.74557 -0.53095,-2.88767 0.87837,-10.77248 3.75779,-21.02391 0.77242,-2.75 1.68326,-6.35 2.02411,-8 0.34084,-1.65 2.65025,-6.73709 5.13201,-11.30465 3.7046,-6.81813 5.84984,-9.40245 11.9846,-14.43754 13.01218,-10.67973 28.32785,-18.9735 40.1377,-21.73546 5.35202,-1.25167 16.75019,-0.84406 24.72568,0.88423 37.67781,8.16477 45.87877,10.64339 61.2085,18.49942 l 10.20851,5.23155 6.29149,-6.41652 c 3.46033,-3.52908 7.8665,-7.48622 9.7915,-8.79365 1.925,-1.30742 7.325,-5.32652 12,-8.93132 12.1114,-9.33886 46.19211,-26.070773 74,-36.330264 3.025,-1.116049 6.4,-2.275024 7.5,-2.5755 3.5772,-0.977147 22.7255,-3.438992 23.87848,-3.06999 0.61684,0.197413 2.92152,0.590173 5.12152,0.8728 11.06734,1.421782 18.10189,5.348937 28.18612,15.735383 8.06942,8.311251 12.18753,13.594001 13.08648,16.787451 1.33999,4.76026 0.68318,24.28685 -0.99926,29.70719 -2.55553,8.23319 -7.3553,17.35995 -13.08277,24.87687 -5.0001,6.56229 -7.46188,8.80645 -20.25958,18.46861 -6.99988,5.28486 -19.87721,11.5938 -28.59589,14.00987 -12.72984,3.52762 -35.72121,2.21968 -42.8351,-2.43682 -4.85082,-3.17518 -22.61116,-13.44812 -24.76235,-14.32306 -2.98362,-1.2135 -20.31214,-11.23692 -21.23765,-12.2846 -0.275,-0.3113 -2.75,-2.09268 -5.5,-3.95862 -2.75,-1.86595 -5.45,-3.76383 -6,-4.21752 -2.91502,-2.40456 -13.01494,-7.77423 -13.94873,-7.41591 -0.59603,0.22872 -1.73471,1.70785 -2.53041,3.28695 -1.63175,3.23831 -9.26358,12.83747 -12.61836,15.8711 -1.21644,1.1 -3.85798,4.3982 -5.87007,7.32933 -10.52769,15.33624 -31.85027,34.50499 -44.25454,39.78432 -2.07784,0.88434 -5.12789,2.22338 -6.77789,2.97564 -5.99633,2.73382 -20.1407,7.27787 -25.93366,8.33149 -6.59294,1.19913 -8.57918,1.20205 -16.56634,0.0244 z m 18.53114,-6.28896 c 8.0811,-1.92614 24.78325,-8.54119 32.58572,-12.9059 5.91579,-3.30929 19.69668,-14.56151 24.41569,-19.9356 5.62282,-6.40338 11.34668,-13.68719 13.25476,-16.86713 1.17238,-1.95383 3.61234,-4.9461 5.42214,-6.64947 4.78869,-4.50709 14.08622,-18.08522 13.47478,-19.6786 -0.28786,-0.75017 -5.62208,-3.85149 -11.85381,-6.89184 -11.04265,-5.38749 -26.55771,-10.54873 -39.78562,-13.23506 -28.28934,-5.74503 -32.0143,-6.12844 -39.90354,-4.10731 -11.44634,2.93241 -26.9666,11.85524 -37.36319,21.48065 -6.45727,5.9783 -13.74322,17.8528 -13.76485,22.43371 -0.007,1.53981 -0.661,4.05233 -1.45274,5.58338 -2.37745,4.59749 -4.72367,16.31894 -4.02446,20.10573 1.28383,6.95287 13.54184,19.93303 23.78503,25.18625 5.47243,2.80654 18.79282,6.42712 24.62487,6.69324 2.539,0.11585 7.30235,-0.42957 10.58522,-1.21205 z m 209.4363,-31.57997 c 3.81816,-1.05807 8.02591,-2.52057 9.35055,-3.25 1.32464,-0.72943 5.11816,-2.76906 8.43005,-4.5325 3.31189,-1.76344 6.63594,-3.79491 7.38679,-4.51438 2.80238,-2.68528 9.68332,-7.77939 10.50907,-7.78009 0.47086,-4.1e-4 3.89798,-3.77151 7.61583,-8.38022 11.42021,-14.15673 15.71572,-26.18789 15.73272,-44.0653 0.007,-7.03418 -0.3081,-8.40768 -2.74245,-11.96635 -1.5125,-2.21106 -3.425,-4.71502 -4.25,-5.56435 -0.825,-0.84933 -2.40192,-2.66447 -3.50427,-4.033644 -3.34835,-4.158842 -11.10634,-9.91868 -17.21413,-12.78046 -5.35775,-2.510354 -6.66132,-2.698224 -17.7816,-2.562661 -15.37016,0.18737 -28.08851,3.733385 -48.5,13.522319 -4.675,2.242035 -10.29851,4.715506 -12.4967,5.496596 -6.04599,2.14835 -22.0135,10.88816 -31.0033,16.96965 -11.11405,7.51853 -17.65454,13.0176 -22.4378,18.86515 -2.24949,2.75 -5.04016,5.96877 -6.20149,7.15282 l -2.11151,2.15283 4.3754,2.75022 c 2.40647,1.51262 5.59468,3.58134 7.08491,4.59717 1.49023,1.01583 2.9477,1.84696 3.23883,1.84696 0.29113,0 3.12185,1.96476 6.29049,4.36613 7.61402,5.77033 15.10756,10.46191 24.26117,15.18954 4.125,2.13047 11.775,6.39705 17,9.4813 14.04476,8.29043 14.97826,8.55787 30.76266,8.8132 6.46343,0.10455 11.3606,-0.43154 16.20478,-1.77393 z"
         style="fill:#dab" />
      <path
         id="path4838"
         d="m 672.64288,229.52166 c -7.35972,-1.08515 -21.25371,-6.29268 -25.81532,-9.67569 -10.55544,-7.8282 -20.30386,-19.5307 -21.44657,-25.74557 -0.53095,-2.88767 0.87837,-10.77248 3.75779,-21.02391 0.77242,-2.75 1.68326,-6.35 2.02411,-8 0.34084,-1.65 2.65025,-6.73709 5.13201,-11.30465 3.7046,-6.81813 5.84984,-9.40245 11.9846,-14.43754 13.01218,-10.67973 28.32785,-18.9735 40.1377,-21.73546 5.35202,-1.25167 16.75019,-0.84406 24.72568,0.88423 37.67781,8.16477 45.87877,10.64339 61.2085,18.49942 l 10.20851,5.23155 6.29149,-6.41652 c 3.46033,-3.52908 7.8665,-7.48622 9.7915,-8.79365 1.925,-1.30742 7.325,-5.32652 12,-8.93132 12.1114,-9.33886 46.19211,-26.070773 74,-36.330264 3.025,-1.116049 6.4,-2.275024 7.5,-2.5755 3.5772,-0.977147 22.7255,-3.438992 23.87848,-3.06999 0.61684,0.197413 2.92152,0.590173 5.12152,0.8728 11.06734,1.421782 18.10189,5.348937 28.18612,15.735383 8.06942,8.311251 12.18753,13.594001 13.08648,16.787451 1.33999,4.76026 0.68318,24.28685 -0.99926,29.70719 -2.55553,8.23319 -7.3553,17.35995 -13.08277,24.87687 -5.0001,6.56229 -7.46188,8.80645 -20.25958,18.46861 -6.99988,5.28486 -19.87721,11.5938 -28.59589,14.00987 -12.72984,3.52762 -35.72121,2.21968 -42.8351,-2.43682 -4.85082,-3.17518 -22.61116,-13.44812 -24.76235,-14.32306 -2.98362,-1.2135 -20.31214,-11.23692 -21.23765,-12.2846 -0.275,-0.3113 -2.75,-2.09268 -5.5,-3.95862 -2.75,-1.86595 -5.45,-3.76383 -6,-4.21752 -2.91502,-2.40456 -13.01494,-7.77423 -13.94873,-7.41591 -0.59603,0.22872 -1.73471,1.70785 -2.53041,3.28695 -1.63175,3.23831 -9.26358,12.83747 -12.61836,15.8711 -1.21644,1.1 -3.85798,4.3982 -5.87007,7.32933 -10.52769,15.33624 -31.85027,34.50499 -44.25454,39.78432 -2.07784,0.88434 -5.12789,2.22338 -6.77789,2.97564 -5.99633,2.73382 -20.1407,7.27787 -25.93366,8.33149 -6.59294,1.19913 -8.57918,1.20205 -16.56634,0.0244 z m 18.53114,-6.28896 c 8.0811,-1.92614 24.78325,-8.54119 32.58572,-12.9059 5.91579,-3.30929 19.69668,-14.56151 24.41569,-19.9356 5.62282,-6.40338 11.34668,-13.68719 13.25476,-16.86713 1.17238,-1.95383 3.61234,-4.9461 5.42214,-6.64947 4.78869,-4.50709 14.08622,-18.08522 13.47478,-19.6786 -0.28786,-0.75017 -5.62208,-3.85149 -11.85381,-6.89184 -11.04265,-5.38749 -26.55771,-10.54873 -39.78562,-13.23506 -28.28934,-5.74503 -32.0143,-6.12844 -39.90354,-4.10731 -11.44634,2.93241 -26.9666,11.85524 -37.36319,21.48065 -6.45727,5.9783 -13.74322,17.8528 -13.76485,22.43371 -0.007,1.53981 -0.661,4.05233 -1.45274,5.58338 -2.37745,4.59749 -4.72367,16.31894 -4.02446,20.10573 1.28383,6.95287 13.54184,19.93303 23.78503,25.18625 5.47243,2.80654 18.79282,6.42712 24.62487,6.69324 2.539,0.11585 7.30235,-0.42957 10.58522,-1.21205 z m 209.4363,-31.57997 c 3.81816,-1.05807 8.02591,-2.52057 9.35055,-3.25 1.32464,-0.72943 5.11816,-2.76906 8.43005,-4.5325 3.31189,-1.76344 6.63594,-3.79491 7.38679,-4.51438 2.80238,-2.68528 9.68332,-7.77939 10.50907,-7.78009 0.47086,-4.1e-4 3.89798,-3.77151 7.61583,-8.38022 11.42021,-14.15673 15.71572,-26.18789 15.73272,-44.0653 0.007,-7.03418 -0.3081,-8.40768 -2.74245,-11.96635 -1.5125,-2.21106 -3.425,-4.71502 -4.25,-5.56435 -0.825,-0.84933 -2.40192,-2.66447 -3.50427,-4.033644 -3.34835,-4.158842 -11.10634,-9.91868 -17.21413,-12.78046 -5.35775,-2.510354 -6.66132,-2.698224 -17.7816,-2.562661 -15.37016,0.18737 -28.08851,3.733385 -48.5,13.522319 -4.675,2.242035 -10.29851,4.715506 -12.4967,5.496596 -6.04599,2.14835 -22.0135,10.88816 -31.0033,16.96965 -11.11405,7.51853 -17.65454,13.0176 -22.4378,18.86515 -2.24949,2.75 -5.04016,5.96877 -6.20149,7.15282 l -2.11151,2.15283 4.3754,2.75022 c 2.40647,1.51262 5.59468,3.58134 7.08491,4.59717 1.49023,1.01583 2.9477,1.84696 3.23883,1.84696 0.29113,0 3.12185,1.96476 6.29049,4.36613 7.61402,5.77033 15.10756,10.46191 24.26117,15.18954 4.125,2.13047 11.775,6.39705 17,9.4813 14.04476,8.29043 14.97826,8.55787 30.76266,8.8132 6.46343,0.10455 11.3606,-0.43154 16.20478,-1.77393 z"
         style="fill:#dab" />
      <path
         id="path4836"
         d="m 672.64288,229.52166 c -7.35972,-1.08515 -21.25371,-6.29268 -25.81532,-9.67569 -10.55544,-7.8282 -20.30386,-19.5307 -21.44657,-25.74557 -0.53095,-2.88767 0.87837,-10.77248 3.75779,-21.02391 0.77242,-2.75 1.68326,-6.35 2.02411,-8 0.34084,-1.65 2.65025,-6.73709 5.13201,-11.30465 3.7046,-6.81813 5.84984,-9.40245 11.9846,-14.43754 13.01218,-10.67973 28.32785,-18.9735 40.1377,-21.73546 5.35202,-1.25167 16.75019,-0.84406 24.72568,0.88423 37.67781,8.16477 45.87877,10.64339 61.2085,18.49942 l 10.20851,5.23155 6.29149,-6.41652 c 3.46033,-3.52908 7.8665,-7.48622 9.7915,-8.79365 1.925,-1.30742 7.325,-5.32652 12,-8.93132 12.1114,-9.33886 46.19211,-26.070773 74,-36.330264 3.025,-1.116049 6.4,-2.275024 7.5,-2.5755 3.5772,-0.977147 22.7255,-3.438992 23.87848,-3.06999 0.61684,0.197413 2.92152,0.590173 5.12152,0.8728 11.06734,1.421782 18.10189,5.348937 28.18612,15.735383 8.06942,8.311251 12.18753,13.594001 13.08648,16.787451 1.33999,4.76026 0.68318,24.28685 -0.99926,29.70719 -2.55553,8.23319 -7.3553,17.35995 -13.08277,24.87687 -5.0001,6.56229 -7.46188,8.80645 -20.25958,18.46861 -6.99988,5.28486 -19.87721,11.5938 -28.59589,14.00987 -12.72984,3.52762 -35.72121,2.21968 -42.8351,-2.43682 -4.85082,-3.17518 -22.61116,-13.44812 -24.76235,-14.32306 -2.98362,-1.2135 -20.31214,-11.23692 -21.23765,-12.2846 -0.275,-0.3113 -2.75,-2.09268 -5.5,-3.95862 -2.75,-1.86595 -5.45,-3.76383 -6,-4.21752 -2.91502,-2.40456 -13.01494,-7.77423 -13.94873,-7.41591 -0.59603,0.22872 -1.73471,1.70785 -2.53041,3.28695 -1.63175,3.23831 -9.26358,12.83747 -12.61836,15.8711 -1.21644,1.1 -3.85798,4.3982 -5.87007,7.32933 -10.52769,15.33624 -31.85027,34.50499 -44.25454,39.78432 -2.07784,0.88434 -5.12789,2.22338 -6.77789,2.97564 -5.99633,2.73382 -20.1407,7.27787 -25.93366,8.33149 -6.59294,1.19913 -8.57918,1.20205 -16.56634,0.0244 z m 18.53114,-6.28896 c 8.0811,-1.92614 24.78325,-8.54119 32.58572,-12.9059 5.91579,-3.30929 19.69668,-14.56151 24.41569,-19.9356 5.62282,-6.40338 11.34668,-13.68719 13.25476,-16.86713 1.17238,-1.95383 3.61234,-4.9461 5.42214,-6.64947 4.78869,-4.50709 14.08622,-18.08522 13.47478,-19.6786 -0.28786,-0.75017 -5.62208,-3.85149 -11.85381,-6.89184 -11.04265,-5.38749 -26.55771,-10.54873 -39.78562,-13.23506 -28.28934,-5.74503 -32.0143,-6.12844 -39.90354,-4.10731 -11.44634,2.93241 -26.9666,11.85524 -37.36319,21.48065 -6.45727,5.9783 -13.74322,17.8528 -13.76485,22.43371 -0.007,1.53981 -0.661,4.05233 -1.45274,5.58338 -2.37745,4.59749 -4.72367,16.31894 -4.02446,20.10573 1.28383,6.95287 13.54184,19.93303 23.78503,25.18625 5.47243,2.80654 18.79282,6.42712 24.62487,6.69324 2.539,0.11585 7.30235,-0.42957 10.58522,-1.21205 z m 209.4363,-31.57997 c 3.81816,-1.05807 8.02591,-2.52057 9.35055,-3.25 1.32464,-0.72943 5.11816,-2.76906 8.43005,-4.5325 3.31189,-1.76344 6.63594,-3.79491 7.38679,-4.51438 2.80238,-2.68528 9.68332,-7.77939 10.50907,-7.78009 0.47086,-4.1e-4 3.89798,-3.77151 7.61583,-8.38022 11.42021,-14.15673 15.71572,-26.18789 15.73272,-44.0653 0.007,-7.03418 -0.3081,-8.40768 -2.74245,-11.96635 -1.5125,-2.21106 -3.425,-4.71502 -4.25,-5.56435 -0.825,-0.84933 -2.40192,-2.66447 -3.50427,-4.033644 -3.34835,-4.158842 -11.10634,-9.91868 -17.21413,-12.78046 -5.35775,-2.510354 -6.66132,-2.698224 -17.7816,-2.562661 -15.37016,0.18737 -28.08851,3.733385 -48.5,13.522319 -4.675,2.242035 -10.29851,4.715506 -12.4967,5.496596 -6.04599,2.14835 -22.0135,10.88816 -31.0033,16.96965 -11.11405,7.51853 -17.65454,13.0176 -22.4378,18.86515 -2.24949,2.75 -5.04016,5.96877 -6.20149,7.15282 l -2.11151,2.15283 4.3754,2.75022 c 2.40647,1.51262 5.59468,3.58134 7.08491,4.59717 1.49023,1.01583 2.9477,1.84696 3.23883,1.84696 0.29113,0 3.12185,1.96476 6.29049,4.36613 7.61402,5.77033 15.10756,10.46191 24.26117,15.18954 4.125,2.13047 11.775,6.39705 17,9.4813 14.04476,8.29043 14.97826,8.55787 30.76266,8.8132 6.46343,0.10455 11.3606,-0.43154 16.20478,-1.77393 z"
         style="fill:#dab" />
      <path
         id="path4834"
         d="m 672.64288,229.52166 c -7.35972,-1.08515 -21.25371,-6.29268 -25.81532,-9.67569 -10.55544,-7.8282 -20.30386,-19.5307 -21.44657,-25.74557 -0.53095,-2.88767 0.87837,-10.77248 3.75779,-21.02391 0.77242,-2.75 1.68326,-6.35 2.02411,-8 0.34084,-1.65 2.65025,-6.73709 5.13201,-11.30465 3.7046,-6.81813 5.84984,-9.40245 11.9846,-14.43754 13.01218,-10.67973 28.32785,-18.9735 40.1377,-21.73546 5.35202,-1.25167 16.75019,-0.84406 24.72568,0.88423 37.67781,8.16477 45.87877,10.64339 61.2085,18.49942 l 10.20851,5.23155 6.29149,-6.41652 c 3.46033,-3.52908 7.8665,-7.48622 9.7915,-8.79365 1.925,-1.30742 7.325,-5.32652 12,-8.93132 12.1114,-9.33886 46.19211,-26.070773 74,-36.330264 3.025,-1.116049 6.4,-2.275024 7.5,-2.5755 3.5772,-0.977147 22.7255,-3.438992 23.87848,-3.06999 0.61684,0.197413 2.92152,0.590173 5.12152,0.8728 11.06734,1.421782 18.10189,5.348937 28.18612,15.735383 8.06942,8.311251 12.18753,13.594001 13.08648,16.787451 1.33999,4.76026 0.68318,24.28685 -0.99926,29.70719 -2.55553,8.23319 -7.3553,17.35995 -13.08277,24.87687 -5.0001,6.56229 -7.46188,8.80645 -20.25958,18.46861 -6.99988,5.28486 -19.87721,11.5938 -28.59589,14.00987 -12.72984,3.52762 -35.72121,2.21968 -42.8351,-2.43682 -4.85082,-3.17518 -22.61116,-13.44812 -24.76235,-14.32306 -2.98362,-1.2135 -20.31214,-11.23692 -21.23765,-12.2846 -0.275,-0.3113 -2.75,-2.09268 -5.5,-3.95862 -2.75,-1.86595 -5.45,-3.76383 -6,-4.21752 -2.91502,-2.40456 -13.01494,-7.77423 -13.94873,-7.41591 -0.59603,0.22872 -1.73471,1.70785 -2.53041,3.28695 -1.63175,3.23831 -9.26358,12.83747 -12.61836,15.8711 -1.21644,1.1 -3.85798,4.3982 -5.87007,7.32933 -10.52769,15.33624 -31.85027,34.50499 -44.25454,39.78432 -2.07784,0.88434 -5.12789,2.22338 -6.77789,2.97564 -5.99633,2.73382 -20.1407,7.27787 -25.93366,8.33149 -6.59294,1.19913 -8.57918,1.20205 -16.56634,0.0244 z m 18.53114,-6.28896 c 8.0811,-1.92614 24.78325,-8.54119 32.58572,-12.9059 5.91579,-3.30929 19.69668,-14.56151 24.41569,-19.9356 5.62282,-6.40338 11.34668,-13.68719 13.25476,-16.86713 1.17238,-1.95383 3.61234,-4.9461 5.42214,-6.64947 4.78869,-4.50709 14.08622,-18.08522 13.47478,-19.6786 -0.28786,-0.75017 -5.62208,-3.85149 -11.85381,-6.89184 -11.04265,-5.38749 -26.55771,-10.54873 -39.78562,-13.23506 -28.28934,-5.74503 -32.0143,-6.12844 -39.90354,-4.10731 -11.44634,2.93241 -26.9666,11.85524 -37.36319,21.48065 -6.45727,5.9783 -13.74322,17.8528 -13.76485,22.43371 -0.007,1.53981 -0.661,4.05233 -1.45274,5.58338 -2.37745,4.59749 -4.72367,16.31894 -4.02446,20.10573 1.28383,6.95287 13.54184,19.93303 23.78503,25.18625 5.47243,2.80654 18.79282,6.42712 24.62487,6.69324 2.539,0.11585 7.30235,-0.42957 10.58522,-1.21205 z m 209.4363,-31.57997 c 3.81816,-1.05807 8.02591,-2.52057 9.35055,-3.25 1.32464,-0.72943 5.11816,-2.76906 8.43005,-4.5325 3.31189,-1.76344 6.63594,-3.79491 7.38679,-4.51438 2.80238,-2.68528 9.68332,-7.77939 10.50907,-7.78009 0.47086,-4.1e-4 3.89798,-3.77151 7.61583,-8.38022 11.42021,-14.15673 15.71572,-26.18789 15.73272,-44.0653 0.007,-7.03418 -0.3081,-8.40768 -2.74245,-11.96635 -1.5125,-2.21106 -3.425,-4.71502 -4.25,-5.56435 -0.825,-0.84933 -2.40192,-2.66447 -3.50427,-4.033644 -3.34835,-4.158842 -11.10634,-9.91868 -17.21413,-12.78046 -5.35775,-2.510354 -6.66132,-2.698224 -17.7816,-2.562661 -15.37016,0.18737 -28.08851,3.733385 -48.5,13.522319 -4.675,2.242035 -10.29851,4.715506 -12.4967,5.496596 -6.04599,2.14835 -22.0135,10.88816 -31.0033,16.96965 -11.11405,7.51853 -17.65454,13.0176 -22.4378,18.86515 -2.24949,2.75 -5.04016,5.96877 -6.20149,7.15282 l -2.11151,2.15283 4.3754,2.75022 c 2.40647,1.51262 5.59468,3.58134 7.08491,4.59717 1.49023,1.01583 2.9477,1.84696 3.23883,1.84696 0.29113,0 3.12185,1.96476 6.29049,4.36613 7.61402,5.77033 15.10756,10.46191 24.26117,15.18954 4.125,2.13047 11.775,6.39705 17,9.4813 14.04476,8.29043 14.97826,8.55787 30.76266,8.8132 6.46343,0.10455 11.3606,-0.43154 16.20478,-1.77393 z"
         style="fill:#dab" />
      <path
         id="path4832"
         d="m 672.64288,229.52166 c -7.35972,-1.08515 -21.25371,-6.29268 -25.81532,-9.67569 -10.55544,-7.8282 -20.30386,-19.5307 -21.44657,-25.74557 -0.53095,-2.88767 0.87837,-10.77248 3.75779,-21.02391 0.77242,-2.75 1.68326,-6.35 2.02411,-8 0.34084,-1.65 2.65025,-6.73709 5.13201,-11.30465 3.7046,-6.81813 5.84984,-9.40245 11.9846,-14.43754 13.01218,-10.67973 28.32785,-18.9735 40.1377,-21.73546 5.35202,-1.25167 16.75019,-0.84406 24.72568,0.88423 37.67781,8.16477 45.87877,10.64339 61.2085,18.49942 l 10.20851,5.23155 6.29149,-6.41652 c 3.46033,-3.52908 7.8665,-7.48622 9.7915,-8.79365 1.925,-1.30742 7.325,-5.32652 12,-8.93132 12.1114,-9.33886 46.19211,-26.070773 74,-36.330264 3.025,-1.116049 6.4,-2.275024 7.5,-2.5755 3.5772,-0.977147 22.7255,-3.438992 23.87848,-3.06999 0.61684,0.197413 2.92152,0.590173 5.12152,0.8728 11.06734,1.421782 18.10189,5.348937 28.18612,15.735383 8.06942,8.311251 12.18753,13.594001 13.08648,16.787451 1.33999,4.76026 0.68318,24.28685 -0.99926,29.70719 -2.55553,8.23319 -7.3553,17.35995 -13.08277,24.87687 -5.0001,6.56229 -7.46188,8.80645 -20.25958,18.46861 -6.99988,5.28486 -19.87721,11.5938 -28.59589,14.00987 -12.72984,3.52762 -35.72121,2.21968 -42.8351,-2.43682 -4.85082,-3.17518 -22.61116,-13.44812 -24.76235,-14.32306 -2.98362,-1.2135 -20.31214,-11.23692 -21.23765,-12.2846 -0.275,-0.3113 -2.75,-2.09268 -5.5,-3.95862 -2.75,-1.86595 -5.45,-3.76383 -6,-4.21752 -2.91502,-2.40456 -13.01494,-7.77423 -13.94873,-7.41591 -0.59603,0.22872 -1.73471,1.70785 -2.53041,3.28695 -1.63175,3.23831 -9.26358,12.83747 -12.61836,15.8711 -1.21644,1.1 -3.85798,4.3982 -5.87007,7.32933 -10.52769,15.33624 -31.85027,34.50499 -44.25454,39.78432 -2.07784,0.88434 -5.12789,2.22338 -6.77789,2.97564 -5.99633,2.73382 -20.1407,7.27787 -25.93366,8.33149 -6.59294,1.19913 -8.57918,1.20205 -16.56634,0.0244 z m 18.53114,-6.28896 c 8.0811,-1.92614 24.78325,-8.54119 32.58572,-12.9059 5.91579,-3.30929 19.69668,-14.56151 24.41569,-19.9356 5.62282,-6.40338 11.34668,-13.68719 13.25476,-16.86713 1.17238,-1.95383 3.61234,-4.9461 5.42214,-6.64947 4.78869,-4.50709 14.08622,-18.08522 13.47478,-19.6786 -0.28786,-0.75017 -5.62208,-3.85149 -11.85381,-6.89184 -11.04265,-5.38749 -26.55771,-10.54873 -39.78562,-13.23506 -28.28934,-5.74503 -32.0143,-6.12844 -39.90354,-4.10731 -11.44634,2.93241 -26.9666,11.85524 -37.36319,21.48065 -6.45727,5.9783 -13.74322,17.8528 -13.76485,22.43371 -0.007,1.53981 -0.661,4.05233 -1.45274,5.58338 -2.37745,4.59749 -4.72367,16.31894 -4.02446,20.10573 1.28383,6.95287 13.54184,19.93303 23.78503,25.18625 5.47243,2.80654 18.79282,6.42712 24.62487,6.69324 2.539,0.11585 7.30235,-0.42957 10.58522,-1.21205 z m 209.4363,-31.57997 c 3.81816,-1.05807 8.02591,-2.52057 9.35055,-3.25 1.32464,-0.72943 5.11816,-2.76906 8.43005,-4.5325 3.31189,-1.76344 6.63594,-3.79491 7.38679,-4.51438 2.80238,-2.68528 9.68332,-7.77939 10.50907,-7.78009 0.47086,-4.1e-4 3.89798,-3.77151 7.61583,-8.38022 11.42021,-14.15673 15.71572,-26.18789 15.73272,-44.0653 0.007,-7.03418 -0.3081,-8.40768 -2.74245,-11.96635 -1.5125,-2.21106 -3.425,-4.71502 -4.25,-5.56435 -0.825,-0.84933 -2.40192,-2.66447 -3.50427,-4.033644 -3.34835,-4.158842 -11.10634,-9.91868 -17.21413,-12.78046 -5.35775,-2.510354 -6.66132,-2.698224 -17.7816,-2.562661 -15.37016,0.18737 -28.08851,3.733385 -48.5,13.522319 -4.675,2.242035 -10.29851,4.715506 -12.4967,5.496596 -6.04599,2.14835 -22.0135,10.88816 -31.0033,16.96965 -11.11405,7.51853 -17.65454,13.0176 -22.4378,18.86515 -2.24949,2.75 -5.04016,5.96877 -6.20149,7.15282 l -2.11151,2.15283 4.3754,2.75022 c 2.40647,1.51262 5.59468,3.58134 7.08491,4.59717 1.49023,1.01583 2.9477,1.84696 3.23883,1.84696 0.29113,0 3.12185,1.96476 6.29049,4.36613 7.61402,5.77033 15.10756,10.46191 24.26117,15.18954 4.125,2.13047 11.775,6.39705 17,9.4813 14.04476,8.29043 14.97826,8.55787 30.76266,8.8132 6.46343,0.10455 11.3606,-0.43154 16.20478,-1.77393 z"
         style="fill:#dab" />
    </g>
  </g>
</svg>
