<?xml version="1.0" encoding="UTF-8" standalone="no"?>
<svg
   xmlns:dc="http://purl.org/dc/elements/1.1/"
   xmlns:cc="http://creativecommons.org/ns#"
   xmlns:rdf="http://www.w3.org/1999/02/22-rdf-syntax-ns#"
   xmlns:svg="http://www.w3.org/2000/svg"
   xmlns="http://www.w3.org/2000/svg"
   version="1.1"
   id="svg4252"
   viewBox="0 0 632.30968 339.34632"
   height="95.771072mm"
   width="178.45184mm">
  <defs
     id="defs4254" />
  <metadata
     id="metadata4257">
    <rdf:RDF>
      <cc:Work
         rdf:about="">
        <dc:format>image/svg+xml</dc:format>
        <dc:type
           rdf:resource="http://purl.org/dc/dcmitype/StillImage" />
        <dc:title></dc:title>
      </cc:Work>
    </rdf:RDF>
  </metadata>
  <g
     transform="translate(-903.18922,-614.02278)"
     id="layer1">
    <path
       id="path4271"
       d="m 968.5,952.36218 c -0.33992,-0.55 -1.90695,-1 -3.48229,-1 -1.63484,0 -4.20738,-1.13016 -5.99342,-2.63302 l -3.12916,-2.63301 0.66084,2.63301 c 0.74293,2.96005 -0.90086,3.65117 -2.10021,0.88302 -0.41702,-0.9625 -1.06229,-9.85 -1.43393,-19.75 -0.58154,-15.49138 -0.69983,-16.43211 -0.84877,-6.75 -0.17277,11.23107 -1.43942,14.67757 -2.77595,7.55323 -0.38144,-2.03323 -0.29942,-13.62073 0.18226,-25.75 1.01944,-25.67053 1.07944,-32.84634 0.47288,-56.55323 -0.65751,-25.69782 0.414,-46.07628 2.94365,-55.98394 2.80487,-10.98559 3.96427,-17.38151 2.96439,-16.35324 -1.73358,1.7828 -13.15262,24.47818 -12.59606,25.03474 0.32378,0.32378 0.87243,-0.15071 1.21922,-1.05443 0.34679,-0.90372 1.23678,-1.64313 1.97776,-1.64313 0.92395,0 0.0758,2.74911 -2.69964,8.75 -2.22577,4.8125 -5.8268,13.33221 -8.00228,18.93269 -2.17548,5.60048 -4.39005,10.32756 -4.92126,10.50463 -0.5312,0.17707 -2.87444,3.23915 -5.20718,6.80463 -2.33275,3.56548 -5.09215,6.64653 -6.13201,6.84679 -1.28517,0.2475 -1.72016,-0.0802 -1.35827,-1.02326 0.4049,-1.05517 -0.26942,-1.29377 -2.8162,-0.99644 -2.22468,0.25972 -4.51518,-0.33008 -6.82443,-1.75727 -2.89184,-1.78726 -3.68144,-3.06685 -4.69945,-7.6158 -1.05026,-4.6931 -0.97997,-6.28059 0.49622,-11.20679 0.94589,-3.15655 2.1273,-7.63725 2.62535,-9.95711 0.49805,-2.31986 3.16451,-11.10639 5.92546,-19.52562 4.48165,-13.66633 7.94098,-28.18641 8.57834,-36.00645 0.12328,-1.5125 0.28039,-3.21005 0.34914,-3.77234 0.25927,-2.12051 8.77899,-10.31119 13.60457,-13.07916 2.76124,-1.58385 4.62783,-2.88395 4.14799,-2.88912 -0.47985,-0.005 -0.31225,-0.68438 0.37244,-1.50938 0.68469,-0.825 2.42729,-1.50747 3.87244,-1.5166 4.05616,-0.0256 15.00885,-4.36488 16.50493,-6.53895 0.73593,-1.06945 1.91073,-3.74445 2.61066,-5.94445 0.69994,-2.2 1.65484,-4.48511 2.12201,-5.07802 0.6762,-0.85822 2.78269,-12.36029 2.87015,-15.67198 0.0109,-0.4125 -0.84753,-0.75 -1.90761,-0.75 -1.06008,0 -2.87732,-1.2375 -4.03832,-2.75 -1.16099,-1.5125 -4.19852,-3.875 -6.75006,-5.25 -4.83224,-2.60404 -5.80795,-3.77984 -6.69929,-8.0731 -0.29382,-1.41521 -1.73941,-4.34021 -3.21243,-6.5 -1.47302,-2.1598 -3.06747,-5.7269 -3.54323,-7.9269 -0.47575,-2.2 -1.27839,-4.9 -1.78364,-6 -0.50525,-1.1 -1.34817,-4.6994 -1.87315,-7.99867 -0.82295,-5.17179 -0.70465,-6.34957 0.85818,-8.54436 0.99698,-1.40013 2.91686,-5.00073 4.26639,-8.00133 3.49045,-7.76081 8.47101,-14.25863 10.37049,-13.52973 0.93271,0.35791 3.36278,-0.93225 6.18445,-3.28343 2.55642,-2.13016 5.62651,-4.17817 6.82242,-4.55113 1.19592,-0.37298 3.85969,-1.82181 5.9195,-3.21963 2.05981,-1.39782 6.48133,-3.38306 9.82561,-4.41165 6.3261,-1.94568 9.51494,-1.79395 22.0805,1.05065 2.75,0.62255 6.8,1.26946 9,1.43758 5.3506,0.40888 16.2877,4.53237 20.5535,7.74903 1.8956,1.42941 4.3465,2.76043 5.4465,2.95785 2.3148,0.41543 8.2727,11.13547 8.9711,16.14169 0.2458,1.76172 0.8597,4.58128 1.3643,6.26568 0.5046,1.6844 0.6356,6.8594 0.291,11.5 -0.5291,7.12745 -0.8921,8.41689 -2.3376,8.30502 -1.1139,-0.0862 -2.1013,1.04923 -2.8284,3.25243 -1.4007,4.24423 -16.4311,20.66883 -22.9024,25.02687 -7.0059,4.71804 -17.0633,14.29385 -17.0262,16.21084 0.07,3.61845 2.6676,5.44594 6.9284,4.87445 4.1992,-0.56323 6.3382,0.77109 3.9179,2.44396 -0.888,0.61376 2.0476,0.72177 8.2542,0.3037 8.6519,-0.58278 9.8224,-0.45513 11.5,1.25406 1.0272,1.04658 3.7069,2.43072 5.9549,3.07586 2.248,0.64515 4.9052,2.07688 5.905,3.18162 2.1663,2.3937 1.0331,2.54388 -3.838,0.50864 -1.9745,-0.825 -4.8419,-1.50277 -6.3721,-1.50616 -1.5301,-0.003 -4.071,-0.67839 -5.6464,-1.5 -3.3856,-1.76574 -5.6357,-1.9237 -5.6357,-0.39565 0,1.70791 -11.9607,0.0212 -15.618,-2.20244 -1.7149,-1.04266 -3.8636,-1.89575 -4.7748,-1.89575 -2.0751,0 -3.6072,-3.89742 -3.6072,-9.17639 l 0,-4.04619 -3.75,0.78848 c -2.0625,0.43366 -5.1,0.84762 -6.75,0.91991 -1.65,0.0723 -3.75547,0.4784 -4.67882,0.90248 -1.0142,0.46581 -4.10143,-0.11227 -7.79837,-1.46024 -3.94115,-1.43702 -6.46384,-1.88702 -7.08671,-1.26415 -0.53193,0.53193 -1.71808,5.14632 -2.63587,10.25419 -1.88539,10.49293 -6.37961,19.50601 -9.81588,19.68564 -1.09139,0.057 -3.33435,0.63824 -4.98435,1.29155 -1.65,0.6533 -4.92719,1.91087 -7.28265,2.7946 -2.35547,0.88373 -4.51952,1.99003 -4.80902,2.45845 -0.2895,0.46842 -1.39981,0.85167 -2.46735,0.85167 -2.32647,0 -10.35406,7.69538 -8.62848,8.27141 0.77577,0.25896 0.24342,1.75926 -1.53538,4.32711 -3.36836,4.86252 -6.1065,12.6778 -8.25647,23.56593 -2.13862,10.83059 -3.00201,13.66879 -7.17949,23.60071 -1.91203,4.54584 -4.59801,12.80944 -5.96884,18.36356 -2.30282,9.33021 -2.3773,10.34101 -0.97904,13.28762 2.62142,5.52424 4.90463,6.91603 10.07394,6.14085 3.78563,-0.56769 4.81846,-1.21476 6.1763,-3.86944 0.89678,-1.75326 2.89896,-4.80239 4.4493,-6.77585 3.5371,-4.50246 14.30808,-29.27827 12.92831,-29.73819 -1.94254,-0.64751 -1.00528,-4.74302 2.83471,-12.38675 2.12071,-4.2214 3.49346,-8.03791 3.05054,-8.48112 -1.96099,-1.96233 9.40352,-17.30584 12.81796,-17.30584 1.73404,0 1.8836,-1.58805 -2.21322,23.5 -2.84081,17.39644 -4.68992,53.34657 -2.68002,52.10439 1.8392,-1.13669 2.17044,1.05438 1.02308,6.76749 -0.84049,4.18511 -0.83495,5.94637 0.0219,6.97887 1.15041,1.38615 0.94953,22.06236 -0.30506,31.39925 -1.78104,13.25487 -1.81842,12.46328 0.55299,11.71062 2.01419,-0.63927 2.12183,-0.4453 1.48431,2.67506 -1.51555,7.418 -2.76424,25.73635 -2.16382,31.74341 1.10092,11.0145 4.90065,15.12091 13.9916,15.12091 4.14613,0 4.74224,-0.32191 6.94406,-3.75 1.32472,-2.0625 2.71032,-5.55 3.07912,-7.75 0.36879,-2.2 1.54652,-7.57023 2.61716,-11.93384 1.13596,-4.62978 1.56057,-8.17244 1.01959,-8.50678 -0.54328,-0.33576 0.27545,-7.8145 1.97777,-18.06616 1.73736,-10.46264 2.9809,-21.91415 3.09412,-28.49322 0.10693,-6.21316 0.74821,-12.36176 1.47365,-14.12928 2.03581,-4.96022 6.24701,-9.37072 8.94727,-9.37072 2.48526,0 6.41106,3.13671 6.41106,5.12244 0,0.7988 0.4132,0.7795 1.4331,-0.0669 1.8889,-1.56767 4.1286,1.77678 6.4687,9.6598 1.0266,3.45797 2.2779,5.78468 3.111,5.78468 1.0157,0 1.8755,3.25559 3.1692,12 2.2839,15.43767 2.5631,16.5 4.337,16.5 1.0103,-2e-5 1.4811,1.05409 1.4811,3.31632 0,13.46533 9.4594,40.68366 14.1393,40.68366 1.0234,0 1.8607,0.675 1.8607,1.5 0,2.36011 2.7881,1.75292 4.592,-1 0.9009,-1.375 2.0363,-2.5 2.523,-2.5 1.8728,0 0.7641,4.20754 -1.7138,6.50392 l -2.5987,2.40842 2.7536,0.69108 c 3.0521,0.76604 5.9604,-0.56808 5.9131,-2.71241 -0.017,-0.76505 1.5502,-3.39442 3.4826,-5.84303 2.8303,-3.58661 3.6337,-5.62765 4.1333,-10.5 0.422,-4.11378 0.2041,-6.8475 -0.6809,-8.54798 -0.7157,-1.375 -1.583,-5.93658 -1.9275,-10.13684 -0.5601,-6.8317 -0.8244,-7.58501 -2.5062,-7.14523 -2.157,0.56408 -2.2704,0.17988 -3.8483,-13.04398 -0.6428,-5.38666 -1.8114,-10.06288 -2.9988,-12 -1.0702,-1.74567 -2.6925,-7.22395 -3.6052,-12.17395 -0.9127,-4.95 -2.0554,-9.74564 -2.5393,-10.65697 -0.4838,-0.91134 -1.3877,-5.63634 -2.0086,-10.5 -1.2039,-9.43062 -2.4971,-15.60012 -3.9496,-18.84303 -1.1031,-2.4623 -4.0207,-20.11242 -4.0207,-24.32224 0,-1.69099 -1.191,-6.81025 -2.6466,-11.37614 -1.9203,-6.02359 -2.6352,-10.35968 -2.6052,-15.80162 0.06,-10.84929 0.055,-10.82424 2.3616,-12.05881 1.8048,-0.96592 2.564,-0.68374 5.25,1.95179 1.7271,1.69453 5.4568,5.30389 8.2884,8.02082 3.0723,2.94795 5.6375,6.48148 6.3616,8.76303 0.6673,2.10274 2.2881,5.79235 3.6017,8.19912 1.3136,2.40678 2.3884,4.99428 2.3884,5.75 0,0.75573 0.7032,1.37405 1.5627,1.37405 0.9481,0 2.6778,2.45929 4.3977,6.25244 1.5593,3.43884 3.7704,7.09898 4.9137,8.13364 1.1433,1.03467 1.8308,2.28247 1.5277,2.7729 -0.3031,0.49042 1.055,2.49784 3.0181,4.46093 3.4177,3.41773 3.7818,3.54003 8.5747,2.88084 4.2015,-0.57786 5.0054,-0.43245 5.0054,0.90541 0,0.87661 -0.5625,1.60752 -1.25,1.62425 -0.6875,0.0167 -0.4453,0.4987 0.5382,1.07106 0.9835,0.57237 3.1727,0.73657 4.8649,0.3649 l 3.0768,-0.67577 -0.812,-5.1453 c -0.4466,-2.82992 -0.867,-8.5203 -0.9342,-12.6453 -0.1366,-8.38626 -1.298,-11.84816 -11.3787,-33.91585 -4.4387,-9.71671 -7.4349,-14.82781 -10.8667,-18.53666 -2.606,-2.81645 -5.9162,-6.4961 -7.356,-8.177 -1.4396,-1.6809 -4.7021,-4.55319 -7.25,-6.38286 -7.7264,-5.5487 -5.627,-6.97912 2.7572,-1.87857 6.1795,3.75939 9.7262,6.89492 9.0452,7.99683 -0.2771,0.44835 2.6617,4.14771 6.5308,8.22081 3.8689,4.0731 7.0346,7.93037 7.0346,8.57172 0,2.50609 6.2753,17.27001 7.548,17.75843 0.742,0.28473 2.1061,2.84092 3.0314,5.68042 0.9251,2.8395 2.2409,6.28773 2.9239,7.66273 2.2606,4.55124 3.4967,9.58279 3.4967,14.23303 0,2.52507 0.6748,8.11812 1.4998,12.429 0.8249,4.31088 1.4999,7.91403 1.5,8.00699 10e-5,0.093 -2.0008,0.59577 -4.4464,1.11737 -4.5129,0.96251 -11.8247,-0.25566 -16.476,-2.74497 -1.6839,-0.90118 -2.0774,-0.82098 -2.0774,0.4234 0,4.64429 -5.9921,-0.73459 -11.1008,-9.96482 -1.8265,-3.3 -4.7424,-8.025 -6.4797,-10.5 -1.7374,-2.475 -5.0662,-8.775 -7.3975,-14 -5.0941,-11.41704 -8.3106,-17.05873 -11.1764,-19.60309 -2.1354,-1.89578 -2.1358,-1.89542 -0.8493,0.60309 0.708,1.375 2.1726,3.76341 3.2546,5.30758 1.082,1.54416 1.6715,3.10325 1.3101,3.46463 -1.3939,1.39392 -4.1818,-1.60673 -7.0268,-7.56312 -1.6312,-3.415 -3.2625,-6.20909 -3.625,-6.20909 -0.8446,0 -1.9093,5.2978 -1.9093,9.5 0,5.79631 1.2136,9.74309 3.1517,10.24991 1.8955,0.49569 1.8816,0.39947 2.4103,16.75009 0.071,2.2 0.3701,4.675 0.6643,5.5 0.2943,0.825 1.705,7.8 3.135,15.5 4.4053,23.72165 8.7294,43.85601 10.0938,47 0.716,1.65 1.546,3.675 1.8444,4.5 0.2985,0.825 0.5781,-0.7275 0.6216,-3.45 0.1117,-7.00329 2.3064,-4.46043 2.7318,3.1651 0.1775,3.1817 0.9683,7.5849 1.7574,9.7849 2.3049,6.4264 4.5897,17.99929 4.5897,23.24741 0,2.66892 0.4979,5.35045 1.1064,5.95895 0.6085,0.6085 1.171,3.78719 1.25,7.06375 0.1038,4.30673 0.49,5.82697 1.3936,5.48666 0.6875,-0.25891 1.25,0.0453 1.25,0.67608 0,1.81327 -3.6876,8.56297 -5.5,10.06715 -0.9054,0.75141 -2.5073,3.05407 -3.5597,5.11702 -3.9973,7.8354 -10.4495,9.12806 -16.8226,3.37032 -2.3875,-2.15697 -4.4853,-3.28352 -5.4353,-2.91895 -1.969,0.75556 -3.9643,-3.00234 -6.5517,-12.33925 -1.069,-3.85775 -2.6029,-8.07498 -3.4087,-9.37162 -1.4982,-2.41096 -3.6293,-12.72584 -5.7557,-27.85752 -1.622,-11.54251 -8.5055,-31.9372 -11.5845,-34.32277 -1.2939,-1.00252 -3.2259,-3.7971 -4.2934,-6.21019 l -1.9407,-4.38742 -3.05393,1.52351 c -3.70647,1.84903 -5.2424,3.87737 -1.7212,2.273 1.37497,-0.62648 3.20364,-0.86902 4.06363,-0.53897 2.1638,0.8303 1.9699,3.66284 -0.2507,3.66284 -2.47515,0 -10.25033,13.71696 -8.42379,14.86138 0.66845,0.41882 0.39587,3.08776 -0.79197,7.7545 -2.26647,8.9044 -5.21142,28.51371 -5.11666,34.06991 0.0393,2.30218 -0.55841,8.07635 -1.32816,12.83148 -0.76976,4.75514 -1.17521,9.23035 -0.90101,9.94491 0.73764,1.92225 -3.45854,10.22013 -7.14476,14.12866 -3.13873,3.32803 -6.73932,4.41516 -7.9791,2.40916 z m -14.12734,-45.75 c 0.40264,-2.62867 0.26498,-4.25 -0.36084,-4.25 -0.5565,0 -1.01182,2.1 -1.01182,4.66667 0,5.55344 0.48055,5.40757 1.37266,-0.41667 z m 101.31044,-9.4375 c -0.3192,-0.79773 -0.5562,-0.56078 -0.6041,0.60417 -0.043,1.05416 0.1929,1.64479 0.5252,1.3125 0.3323,-0.33229 0.3678,-1.1948 0.079,-1.91667 z M 993,859.24415 c 0,-0.55 -0.45,-0.72189 -1,-0.38197 -0.55,0.33992 -1,1.06803 -1,1.61803 0,0.55 0.45,0.72189 1,0.38197 0.55,-0.33992 1,-1.06803 1,-1.61803 z m 7.6447,-153.9668 c 14.26,-4.33673 28.9939,-15.15428 35.3553,-25.95765 1.375,-2.33513 3.4,-5.2271 4.5,-6.42662 2.8735,-3.13345 5.5,-11.46586 5.5,-17.44836 0,-10.1098 -8.4547,-21.39489 -21,-28.03018 -5.3328,-2.82052 -8.0264,-3.55892 -15,-4.11187 -4.675,-0.37069 -9.2813,-1.0047 -10.2361,-1.4089 -1.31546,-0.55684 -2.01576,-0.044 -2.89033,2.11675 l -1.15422,2.85166 -0.65373,-2.5 c -1.08963,-4.16696 -6.97407,-4.77454 -15.42185,-1.59234 -9.10582,3.43008 -20.51517,10.64429 -25.65827,16.22389 -7.63338,8.28124 -11.91198,21.27212 -9.92549,30.13623 1.8324,8.17654 7.63658,17.70375 15.04076,24.68847 8.94692,8.44007 10.17984,9.18661 18.97518,11.48965 9.63037,2.5217 14.19627,2.51548 22.56875,-0.0307 z M 997,693.93648 c -1.375,-0.79836 -4.3,-1.75505 -6.5,-2.12599 -2.2,-0.37094 -4.53373,-1.10479 -5.18608,-1.63077 -0.77071,-0.62142 -1.99642,-0.51098 -3.5,0.31535 -2.74309,1.50754 -16.06672,1.50066 -20.01162,-0.0103 -4.07524,-1.56092 -6.23087,-5.6116 -6.23087,-11.70855 0,-3.74063 0.54117,-5.88095 1.85368,-7.33125 1.78724,-1.97488 1.79133,-2.3048 0.11428,-9.20481 -2.94779,-12.12834 -2.23837,-15.01069 5.81545,-23.62795 3.5025,-3.74753 5.39034,-4.02489 8.85355,-1.30072 l 2.47811,1.94928 3.08826,-4.38135 c 1.69855,-2.40975 4.33679,-5.19942 5.86277,-6.19928 3.92779,-2.57359 11.70602,-2.35396 17.36247,0.49026 9.6746,4.86464 11.6524,6.17926 15.9582,10.60717 3.439,3.53656 5.1799,4.58464 7.6152,4.58464 4.2408,0 8.43,3.39661 8.4146,6.82258 -0.01,1.47258 -1.0952,4.57164 -2.419,6.8868 -1.7903,3.13101 -2.4142,5.74222 -2.4355,10.19274 -0.037,7.80259 -3.1053,14.89541 -8.6561,20.01198 -5.9864,5.51807 -17.6595,8.45756 -22.4774,5.6602 z m 11,-1.48045 c 2.4907,-0.70417 2.4917,-0.70902 0.2539,-1.30568 -2.9725,-0.79258 -10.35995,0.23123 -9.67424,1.34073 0.62425,1.01005 5.79174,0.99082 9.42034,-0.035 z m -29,-3.0171 2.5,-0.72389 -2.27664,-0.75227 c -1.25215,-0.41375 -2.95473,-1.78717 -3.78351,-3.05205 -1.10062,-1.67976 -2.84582,-2.47739 -6.47336,-2.9586 -5.08379,-0.67439 -6.93667,-2.58994 -2.50521,-2.58994 2.3207,0 2.22075,-0.22639 -1.75,-3.96379 -3.78556,-3.56308 -4.33764,-3.79648 -5.46128,-2.30887 -2.0792,2.75272 -1.59253,11.6527 0.75327,13.77562 3.16043,2.86015 13.27504,4.23054 18.99673,2.57379 z m 23,-1.07675 c 0,-0.55 -0.4234,-1 -0.941,-1 -0.5175,0 -1.21908,0.45 -1.559,1 -0.33992,0.55 0.0835,1 0.941,1 0.8574,0 1.559,-0.45 1.559,-1 z m 14.415,-0.96769 c 4.4497,-1.69178 7.942,-11.33255 5.9682,-16.47605 -0.4647,-1.21091 -0.9445,-1.33528 -1.9458,-0.50432 -0.9653,0.80112 -1.0687,1.78766 -0.3778,3.60473 0.5231,1.37596 0.6112,3.08131 0.1958,3.78967 -1.3372,2.27996 -6.7646,8.09386 -9.2967,9.95873 l -2.4587,1.81078 2.7059,-0.61591 c 1.4882,-0.33875 3.8323,-1.04418 5.2091,-1.56763 z m -17.22462,-1.45311 c 1.59832,-1.11952 1.65382,-1.46361 0.40328,-2.50147 -1.14499,-0.95025 -2.14873,-0.8479 -4.77183,0.48662 -4.20988,2.1418 -4.15609,2.08579 -3.31287,3.45015 0.80734,1.3063 4.84415,0.55201 7.68142,-1.4353 z m -13.74343,-2.93456 c -0.67416,-2.68605 -2.25891,-3.1673 -5.8211,-1.76772 -1.69237,0.66493 -1.55719,1.00307 1.39366,3.48605 3.67007,3.08815 5.45948,2.39366 4.42744,-1.71833 z m 27.73685,-0.64132 c 2.6768,-2.7771 4.8162,-5.94077 4.8162,-7.12198 0,-2.02244 -0.1089,-2.04606 -2.25,-0.48805 -1.2375,0.90047 -3.15,2.10217 -4.25,2.67043 -1.6659,0.8606 -6.1038,6.41988 -7.3333,9.18628 -0.1834,0.4125 0.6869,0.75 1.9338,0.75 1.4112,0 4.0856,-1.88659 7.0833,-4.99668 z m -20.043,0.0186 4.3592,-1.97804 -5.15638,-0.022 c -4.66891,-0.0199 -5.10694,0.1671 -4.63337,1.97803 0.63279,2.41978 0.15053,2.41783 5.43055,0.022 z M 1004,681.86218 c 1.0401,-1.2532 0.8957,-1.5 -0.8776,-1.5 -1.2199,0 -2.1224,0.63782 -2.1224,1.5 0,0.825 0.3949,1.5 0.8776,1.5 0.4826,0 1.4377,-0.675 2.1224,-1.5 z m -7.59196,-5 c -1.93921,-2.95961 -3.11935,-3.09714 -6.43553,-0.75 l -2.47251,1.75 5,0.5929 c 2.75,0.32609 5.12287,0.66359 5.27305,0.75 0.15018,0.0864 -0.46407,-0.9679 -1.36501,-2.3429 z m -23.40804,-1 c 0,-1.375 -0.47174,-2.5 -1.04831,-2.5 -0.57656,0 -2.91109,-0.9 -5.18783,-2 -4.96039,-2.3966 -4.84833,-2.3837 -4.11538,-0.47367 0.57463,1.49746 8.12754,7.34145 9.60152,7.42908 0.4125,0.0245 0.75,-1.08041 0.75,-2.45541 z m 11.29966,0.85179 c 4.3572,-2.24401 9.87187,-6.51359 9.2353,-7.15017 -0.28572,-0.28571 -3.78547,0.52075 -7.77722,1.79214 -3.99176,1.27139 -7.82024,2.45378 -8.50774,2.62754 -0.6875,0.17376 -1.25,1.23005 -1.25,2.34731 0,2.5662 3.72679,2.73826 8.29966,0.38318 z m 20.50914,0.29614 c 2.3068,-1.28012 2.3071,-1.28325 0.354,-3.69525 -1.8814,-2.3234 -2.078,-2.3557 -5.23568,-0.86024 l -3.28088,1.5538 2.17688,2.17688 c 2.50728,2.50724 2.86498,2.55654 5.98568,0.82481 z m 13.9074,-7.93552 c 1.8721,-1.87214 1.1035,-3.28985 -2.2382,-4.12857 -1.8694,-0.46919 -3.5235,0.0854 -6.2594,2.09878 -2.0452,1.50506 -3.9033,2.86442 -4.1291,3.0208 -0.2258,0.15637 0.3721,1.1492 1.3288,2.20627 1.6908,1.86838 1.8514,1.87179 5.7583,0.12259 2.2105,-0.98966 4.7033,-2.48359 5.5396,-3.31987 z M 1026,668.66218 c 0,-2.74421 -0.2911,-3.40893 -1.1268,-2.57322 -0.6365,0.63651 -0.8457,2.24643 -0.4809,3.7 0.9197,3.66431 1.6077,3.18208 1.6077,-1.12678 z m -53.55684,0.45 c -0.92075,-2.99544 -0.82715,-2.94271 -3.86872,-2.17933 -3.15784,0.79257 -2.90342,2.60107 0.4997,3.55207 3.88169,1.08473 4.09739,0.99684 3.36902,-1.37274 z m 11.88863,1.18661 c 2.05906,-0.0602 2.04564,-0.11235 -0.26651,-1.0361 -2.72646,-1.08928 -5.06528,-0.5467 -5.06528,1.17509 0,0.62721 0.71028,0.86582 1.58179,0.53139 0.86998,-0.33385 2.55748,-0.63551 3.75,-0.67038 z m 15.82141,-1.18339 C 999.11812,668.0803 997,668.89455 997,670.32758 c 0,0.46605 0.92974,0.60423 2.06609,0.30707 1.34781,-0.35246 1.72571,-0.88065 1.08711,-1.51925 z M 977,668.86218 c 1.01957,-1.22851 0.95123,-1.5 -0.37756,-1.5 -0.89234,0 -1.62244,0.675 -1.62244,1.5 0,0.825 0.1699,1.5 0.37756,1.5 0.20765,0 0.93775,-0.675 1.62244,-1.5 z m 30.8628,-2.55763 c 1.8495,-1.12758 3.1306,-2.28229 2.8469,-2.56602 -0.5494,-0.54936 -8.7097,3.33324 -8.7097,4.14397 0,1.07712 2.6996,0.35054 5.8628,-1.57795 z M 992,666.36218 c 1.15087,-0.74375 0.80174,-0.96937 -1.5,-0.96937 -1.65,0 -3.675,0.43621 -4.5,0.96937 -1.15087,0.74375 -0.80174,0.96937 1.5,0.96937 1.65,0 3.675,-0.43621 4.5,-0.96937 z m -22.75,-1.64907 c 3.06534,-0.66984 3.68649,-3.32882 1.25,-5.35093 -2.05832,-1.70825 -1.86924,-4.92257 0.5,-8.5 1.09275,-1.65 1.98979,-4.26294 1.99341,-5.80654 l 0.007,-2.80653 -3.13958,1.80653 c -4.87787,2.80676 -9.80623,10.10745 -9.83563,14.57011 -0.0326,4.9438 1.85193,7.99898 4.47521,7.25528 1.1,-0.31185 3.2375,-0.83741 4.75,-1.16792 z m 15.25,-0.27552 c 1.52282,-0.59696 0.56845,-1.03349 -4,-1.82961 -6.64972,-1.15881 -7.36951,-0.99842 -5.52006,1.23003 1.33647,1.61034 6.16577,1.91449 9.52006,0.59958 z m 14.9159,-0.71685 c 0.52667,-1.37248 0.38034,-1.43434 -0.89301,-0.37756 -1.73524,1.44013 -1.91584,2.019 -0.62988,2.019 0.49116,0 1.17646,-0.73865 1.52289,-1.64144 z m 24.9504,-0.57752 c 0.7643,-1.21163 0.3411,-2.47588 -1.7437,-5.20921 -2.9185,-3.82637 -4.6226,-3.90482 -4.6226,-0.21281 0,1.23254 -0.4996,2.74061 -1.1103,3.35126 -0.8137,0.81371 -0.3462,1.52359 1.75,2.65759 3.2702,1.76905 4.3076,1.66275 5.7266,-0.58683 z m -29.7801,-2.54635 c 0.59741,-0.40408 1.60442,-2.2486 2.23781,-4.09894 1.1242,-3.28418 1.09146,-3.35275 -1.37584,-2.88109 -1.59236,0.3044 -2.39175,0.0692 -2.16069,-0.63576 0.20172,-0.61539 1.56955,-1.26129 3.03964,-1.43532 5.61928,-0.66523 2.30704,-2.00433 -6.07712,-2.45688 -4.8125,-0.25977 -9.7625,-0.80702 -11,-1.21613 -2.07548,-0.68614 -2.25,-0.44179 -2.25,3.15029 0,4.34297 2.1193,8.04099 5.357,9.34756 2.65335,1.07076 10.75893,1.22073 12.2292,0.22627 z m 17.6594,-1.48966 c 3.0975,-2.53273 2.6315,-4.23582 -1.4386,-5.25733 -2.3822,-0.5979 -2.8999,-0.22587 -4.7603,3.42072 l -2.0874,4.09158 2.7704,-0.005 c 1.5236,-0.003 4.0058,-1.01523 5.5159,-2.25 z m -35.91989,-1.49503 c -0.94621,-1.5125 -1.85659,-2.9375 -2.02305,-3.16667 C 974.1362,654.21635 974,655.19585 974,656.62219 c 0,1.62896 0.65077,2.7634 1.75,3.05066 0.9625,0.25153 1.87287,0.50953 2.02305,0.57333 0.15018,0.0638 -0.50112,-1.1215 -1.44734,-2.634 z m 54.66919,-6.42857 c 0.01,-2.5493 -2.8049,-4.82143 -5.9685,-4.82143 -2.2385,0 -3.0469,0.62006 -3.8638,2.96354 -0.9158,2.62688 -0.6997,3.32049 1.9021,6.10575 1.6144,1.72822 2.9493,3.65713 2.9665,4.28646 0.049,1.79065 4.9579,-6.64981 4.9637,-8.53432 z m -27.2164,3.34299 c 0.6555,-1.96644 -2.6418,-1.28833 -3.7433,0.76984 -0.56937,1.06384 -1.0352,2.24373 -1.0352,2.62197 0,1.02855 4.3294,-2.04448 4.7785,-3.39181 z m 12.7215,-1.16442 c -0.3399,-0.55 -1.154,-0.99311 -1.809,-0.98469 -0.7156,0.009 -0.5923,0.40223 0.309,0.98469 1.9211,1.24152 2.2673,1.24152 1.5,0 z m -51.19855,-8.66908 c 1.3902,-1.19299 3.49514,-2.68687 4.67765,-3.31974 1.72287,-0.92205 1.9142,-1.43482 0.96302,-2.58092 -0.65285,-0.78664 -1.72272,-1.43026 -2.37747,-1.43026 -2.72299,0 -10.55385,10.73844 -10.56091,14.48213 -0.003,1.55528 0.51028,1.23226 2.38318,-1.5 1.3128,-1.91517 3.52434,-4.45822 4.91453,-5.65121 z M 1019,648.79469 c 0,-1.1893 -0.3518,-1.22975 -1.9601,-0.22535 -1.3486,0.84223 -1.5975,1.44822 -0.7978,1.94249 1.4922,0.92221 2.7579,0.13414 2.7579,-1.71714 z m -0.01,-3.6767 c 0.022,-1.59209 -9.3451,-10.19003 -9.7566,-8.95565 -0.2323,0.69689 0.14,1.94463 0.8273,2.77274 0.6872,0.82811 1.2923,3.43143 1.3445,5.78517 l 0.095,4.27952 3.7398,-1.56879 c 2.0569,-0.86284 3.7444,-1.90369 3.75,-2.31299 z m -15.6447,1.70106 c -0.3257,-0.84872 -0.8067,-1.32866 -1.0688,-1.06653 -0.2621,0.26213 -0.18,0.95654 0.1825,1.54313 0.9861,1.59546 1.5624,1.28551 0.8863,-0.4766 z m 6.0882,-0.14371 c 0.356,-0.92776 -0.3252,-4.08282 -1.5137,-7.01124 -1.5958,-3.93165 -2.8102,-5.48733 -4.6427,-5.94725 -3.79326,-0.95206 -16.22006,0.49209 -18.60427,2.16206 -1.95455,1.36904 -1.55613,1.48327 5.17329,1.48327 l 7.29093,0 4.43155,4.6252 c 2.4374,2.54385 4.4316,5.01885 4.4316,5.5 0,1.57259 2.7696,0.91754 3.4333,-0.81204 z m -9.61001,-0.99124 c -0.65844,-3.41753 -12.57489,-4.18615 -18.04466,-1.16391 l -2.27863,1.25903 3,0.67317 c 1.65,0.37024 6.2955,0.7264 10.32332,0.79147 6.35321,0.10265 7.28048,-0.10398 7,-1.55976 z m -6.78096,-5.09187 c 2.68962,0.25844 4.65384,0.0874 4.36492,-0.38008 -0.72208,-1.16835 -12.68857,-1.07372 -15.84218,0.12528 -4.55622,1.73227 -2.72344,2.9573 2.01097,1.34413 2.80714,-0.95649 6.46642,-1.37758 9.46629,-1.08933 z m -12.66338,-3.7752 c 0.87778,-2.28746 6.46659,-4.28069 14.24019,-5.07871 l 6.88086,-0.70638 -4.30367,-1.4361 c -5.37129,-1.79236 -10.15833,-0.97796 -14.18944,2.41399 -3.32941,2.80152 -5.64865,6.35235 -4.14906,6.35235 0.5105,0 1.19501,-0.69532 1.52112,-1.54515 z m -39.77478,18.81598 c -1.01652,-1.01651 -1.85525,0.51389 -1.02122,1.86338 0.63003,1.01942 0.86558,1.02021 1.2043,0.004 0.2316,-0.69479 0.14921,-1.53513 -0.18308,-1.86742 z m 99.74323,-21.80782 c -0.3243,-0.84534 -1.9977,-2.2499 -3.7186,-3.12124 l -3.1288,-1.58426 2.9371,3.12124 c 3.1678,3.36646 4.8568,4.05075 3.9103,1.58426 z M 1007.75,619.67285 c -0.9625,-0.25152 -2.5375,-0.25152 -3.5,0 -0.9625,0.25153 -0.175,0.45733 1.75,0.45733 1.925,0 2.7125,-0.2058 1.75,-0.45733 z m -23.25,-1.31067 c 1.26064,-0.54171 1.44548,-0.85943 0.5,-0.85943 -0.825,0 -2.4,0.38674 -3.5,0.85943 -1.26064,0.54171 -1.44548,0.85943 -0.5,0.85943 0.825,0 2.4,-0.38674 3.5,-0.85943 z m 13.76903,-0.65594 c -0.67703,-0.27392 -2.02703,-0.29059 -3,-0.0371 -0.97297,0.25355 -0.41903,0.47767 1.23097,0.49804 1.65,0.0204 2.44606,-0.18706 1.76903,-0.46098 z"
       style="fill:#dab" />
    <path
       id="path4286"
       d="m 1361.2289,887.6163 c -1.6252,-0.8956 -1.7591,-1.71028 -2.8448,-17.30569 -0.3307,-4.75091 -0.998,-14.3391 -1.4827,-21.3071 -0.8985,-12.91677 -1.6037,-20.92773 -2.6109,-29.65719 -0.7292,-6.31848 -1.8377,-23.18593 -1.7308,-26.33242 0.045,-1.33866 -0.175,-3.41178 -0.4901,-4.60693 -0.3151,-1.19516 -0.7066,-3.85745 -0.8701,-5.91618 -0.1635,-2.05872 -0.4225,-5.03884 -0.5756,-6.62247 -0.9236,-9.55357 -1.0718,-13.7855 -1.0306,-29.44341 0.038,-14.37433 0.2096,-17.91503 1.0028,-20.64346 1.0047,-3.45612 0.9254,-3.40925 4.2983,-2.53978 0.5893,0.15194 0.923,-0.29485 1.0503,-1.40621 0.1276,-1.11353 0.4406,-1.53143 0.9893,-1.32085 0.4415,0.16942 0.9458,0.0766 1.1206,-0.2063 0.3975,-0.64322 5.4495,-3.04935 9.5639,-4.55504 6.1585,-2.25371 12.9812,-3.99299 17.2209,-4.39001 2.3755,-0.22245 4.7078,-0.46617 5.1829,-0.5416 0.475,-0.0754 2.4186,-0.33587 4.319,-0.57875 3.8842,-0.49642 7.1078,-1.29026 13.8207,-3.4034 2.5339,-0.79761 5.3844,-1.58265 6.3346,-1.74453 9.4943,-1.61753 17.5765,-3.22019 18.9382,-3.75539 3.0673,-1.20544 5.5362,-1.37026 5.5362,-0.36959 0,1.2112 0.7008,1.13179 2.4997,-0.28322 2.2751,-1.78958 10.5922,-5.52317 14.4884,-6.50386 1.9004,-0.47835 5.01,-1.04177 6.9105,-1.25208 1.9003,-0.21029 5.627,-0.747 8.2814,-1.19268 2.6545,-0.44568 6.6712,-0.81546 8.9259,-0.82173 2.2549,-0.006 5.9137,-0.27542 8.1308,-0.5981 2.2171,-0.32267 6.3633,-0.69929 9.2139,-0.83691 5.5677,-0.2688 8.4531,-0.60492 12.0932,-1.40871 1.2669,-0.27975 3.8583,-0.79746 5.7587,-1.15044 5.0963,-0.94666 8.5662,-1.85855 9.185,-2.41388 0.8309,-0.7457 2.399,-0.5876 3.1503,0.31765 0.5185,0.62477 0.4141,1.57398 -0.4592,4.17504 -1.7962,5.34947 -2.547,14.12461 -2.2032,25.75028 0.4254,14.39244 1.3792,24.74728 3.0304,32.89944 0.7699,3.80073 1.5216,7.94698 1.6704,9.21388 1.1145,9.48431 2.1877,17.01124 2.6684,18.7157 0.3126,1.10855 0.8195,7.19834 1.1265,13.53288 0.3068,6.33455 0.8444,13.59048 1.1946,16.1243 0.3501,2.53382 0.7095,11.7333 0.7986,20.4433 0.1575,15.41201 0.1226,15.98298 -1.3043,21.30711 -0.8064,3.00891 -2.0104,6.08255 -2.6756,6.83025 -1.2528,1.40834 -5.2725,3.44207 -9.2715,4.6909 -1.2669,0.39568 -2.9514,0.99377 -3.7432,1.32917 -0.7918,0.33538 -1.9579,0.66765 -2.5914,0.73831 -0.6334,0.0707 -4.0022,0.69012 -7.4862,1.3765 -3.4841,0.68637 -8.2187,1.47514 -10.5216,1.75277 -4.5021,0.54286 -10.8211,1.63005 -12.2252,2.10335 -0.4751,0.16015 -1.9003,0.37472 -3.1673,0.47682 -1.2669,0.1021 -3.9571,0.87101 -5.9781,1.70855 -2.1236,0.88003 -5.0405,1.5876 -6.9104,1.67628 -1.9368,0.0919 -4.218,0.66012 -5.6823,1.41561 -1.6187,0.83506 -2.9418,1.13779 -3.9103,0.89472 -0.9334,-0.23432 -1.8205,-0.0547 -2.4484,0.49519 -1.7815,1.56089 -4.3916,2.58801 -7.607,2.99353 -5.0101,0.63184 -15.4744,2.46714 -19.716,3.45797 -2.1337,0.49841 -5.7617,1.04521 -8.0622,1.21509 -2.3004,0.16987 -6.0883,0.80719 -8.4177,1.41622 -2.3294,0.60898 -6.186,1.26617 -8.5705,1.46035 -2.3844,0.19418 -5.37,0.71816 -6.6347,1.1644 -1.2647,0.44618 -3.1412,0.81128 -4.1701,0.81128 -1.029,0 -3.0047,0.41733 -4.3906,0.92738 -2.2909,0.84307 -8.3983,1.58905 -12.0217,1.46835 -0.7917,-0.0264 -3.5127,-0.13171 -6.0466,-0.23409 -3.0663,-0.12393 -4.9868,0.0612 -5.7428,0.5537 -1.4471,0.94257 -3.0863,0.91114 -4.9107,-0.0943 z m 18.3421,-4.30289 c 0.5449,-0.29156 2.6657,-0.59447 4.7131,-0.67319 2.0474,-0.0787 4.1114,-0.35001 4.5864,-0.60293 0.8423,-0.44842 9.7631,-1.87843 17.2761,-2.76934 4.2324,-0.50188 16.1798,-2.41687 25.6261,-4.1075 3.484,-0.62349 8.6668,-1.542 11.5173,-2.04104 7.4798,-1.30947 9.0489,-1.87049 10.5954,-3.78835 1.2034,-1.49242 1.366,-2.24324 1.2615,-5.82387 -0.066,-2.26079 -0.2237,-4.2142 -0.3505,-4.341 -0.3796,-0.3795 -10.5205,2.53716 -16.6892,4.80009 -9.8375,3.60872 -21.7584,7.16719 -33.1124,9.88424 -6.3411,1.51747 -7.1313,1.62297 -16.4122,2.19118 -7.0535,0.43179 -9.93,0.79286 -11.8053,1.48183 -0.7918,0.29086 -2.6044,0.65896 -4.0278,0.81796 -1.4235,0.159 -2.8773,0.68453 -3.2308,1.16791 -0.9029,1.23496 -2.2869,1.09294 -3.6544,-0.37489 -1.5321,-1.6445 -1.869,-1.19302 -1.0649,1.42706 0.6234,2.03126 0.7763,2.13411 3.2925,2.21393 1.4513,0.0461 3.4219,0.0323 4.3789,-0.03 0.9572,-0.0626 2.3824,0.14247 3.1673,0.45563 1.8488,0.73768 2.7181,0.76251 3.9329,0.11235 z m -14.04,-9.1601 c 0.6473,-3.83084 -0.5397,-28.55146 -1.9956,-41.56204 -1.9007,-16.98746 -3.1552,-30.7151 -5.499,-60.17816 -0.1513,-1.90036 -0.7733,-8.63802 -1.3826,-14.97256 -0.6093,-6.33454 -1.2881,-13.8219 -1.5086,-16.63857 -0.6697,-8.55682 -1.4946,-4.32092 -1.4796,7.59842 0.012,9.35115 0.7475,21.5129 1.5222,25.15911 0.1351,0.63639 0.3871,3.08899 0.5598,5.45022 0.1727,2.36124 0.5622,5.85963 0.8653,7.77422 0.3033,1.91458 0.9519,9.44128 1.4414,16.72601 0.4894,7.28473 1.1579,15.05894 1.4853,17.27603 0.3274,2.21709 0.7262,6.88162 0.8864,10.36562 0.1602,3.484 0.4352,6.72325 0.6113,7.19834 0.176,0.47509 0.5318,4.3622 0.7907,8.63802 0.9551,15.77578 1.7501,26.81251 2.0223,28.07355 0.4301,1.99209 1.2671,1.53981 1.6807,-0.90821 z m 9.8066,0.40824 c 6.3196,-0.9738 6.5642,-0.99971 12.957,-1.37304 3.3257,-0.19424 7.0936,-0.44337 8.3732,-0.55364 3.1522,-0.2717 11.8476,-2.02688 13.007,-2.62549 0.5152,-0.26612 1.9406,-0.66571 3.1672,-0.88806 1.2268,-0.22239 2.8784,-0.7223 3.6702,-1.11096 0.7918,-0.38871 3.3832,-1.167 5.7587,-1.72962 2.3754,-0.56256 4.5774,-1.17183 4.8932,-1.35386 0.6634,-0.38232 6.174,-2.34378 16.4139,-5.84241 3.9591,-1.35271 8.0149,-2.8138 9.0129,-3.24691 0.9981,-0.43306 2.0994,-0.78744 2.4475,-0.78744 0.348,0 0.6327,-0.29537 0.6327,-0.65632 0,-0.36102 0.4269,-0.96849 0.9486,-1.34995 0.8807,-0.64405 0.8807,-0.89237 0,-3.47732 -0.5217,-1.53106 -0.9496,-4.22762 -0.9509,-5.99236 0,-1.76481 -0.3734,-5.54095 -0.8271,-8.39149 -0.4535,-2.85055 -1.1169,-8.2925 -1.4742,-12.09322 -0.3573,-3.80073 -0.9913,-8.46525 -1.4091,-10.36562 -0.4178,-1.90036 -1.4559,-7.60145 -2.307,-12.66909 -0.8511,-5.06763 -2.199,-12.194 -2.9954,-15.83635 -0.7962,-3.64237 -1.697,-7.78862 -2.0017,-9.21388 -0.3048,-1.42528 -1.1963,-6.47852 -1.9812,-11.22943 -0.785,-4.7509 -1.834,-10.58157 -2.3311,-12.95702 -0.4973,-2.37546 -1.1227,-5.87385 -1.3899,-7.77421 -0.2672,-1.90037 -1.0449,-7.08317 -1.7283,-11.51736 -0.8503,-5.51884 -1.2703,-11.10471 -1.3311,-17.70693 -0.049,-5.30464 -0.1369,-9.64524 -0.1954,-9.64579 -0.059,-5.4e-4 -0.836,0.28581 -1.7276,0.63635 -0.8917,0.35052 -3.6784,0.87585 -6.1929,1.16736 -6.7224,0.77941 -15.5089,2.69244 -20.8913,4.54857 -2.6025,0.89747 -5.5826,1.77434 -6.6225,1.94861 -1.0399,0.17427 -3.4455,0.58319 -5.3459,0.90869 -1.9003,0.32552 -5.8018,0.84096 -8.6698,1.14545 -4.689,0.49782 -11.2814,2.08376 -14.3649,3.45581 -0.6334,0.28186 -1.7996,0.69343 -2.5914,0.9146 -0.7918,0.22117 -2.8649,1.05337 -4.6069,1.84935 -1.7421,0.79597 -3.4734,1.51275 -3.8475,1.59283 -0.3741,0.0801 -1.3629,0.62466 -2.1974,1.21015 l -1.5172,1.06454 0.3581,8.35008 c 0.1969,4.59255 0.7169,11.20063 1.1554,14.68463 1.6528,13.13143 3.5151,31.11987 4.3223,41.7504 0.3247,4.27582 0.8426,9.71777 1.151,12.09322 1.5935,12.2775 2.9464,24.03488 3.4559,30.03599 0.3135,3.6923 0.6902,7.06112 0.8371,7.48628 0.4161,1.20414 1.6259,20.15289 1.7774,27.83871 0.1657,8.41279 0.1606,8.35279 0.6955,8.33868 0.2375,-0.006 2.2458,-0.29093 4.4629,-0.63253 z m 3.8871,-19.31696 c -0.3958,-0.15975 -0.7198,-0.73965 -0.7198,-1.28863 0,-1.07428 3.5439,-2.30899 13.5329,-4.71491 3.0196,-0.72732 6.9407,-2.20436 9.3946,-3.53894 3.0763,-1.67307 5.0594,-2.34954 7.3554,-2.50899 1.7288,-0.12007 5.1568,-0.73239 7.6176,-1.36067 2.4608,-0.62833 6.2772,-1.28913 8.481,-1.46851 2.2037,-0.17939 5.415,-0.57633 7.1359,-0.88212 1.7211,-0.30579 3.2111,-0.556 3.3113,-0.556 0.1002,0 0.1822,0.38209 0.1822,0.84901 0,1.39906 -3.2772,2.66534 -9.1457,3.53386 -3.0464,0.45084 -7.0938,1.30584 -8.9942,1.8999 -1.9003,0.59412 -5.2691,1.263 -7.4862,1.48644 -2.2171,0.22343 -4.2995,0.62555 -4.6275,0.89357 -1.8617,1.52103 -8.2083,4.09021 -12.0795,4.88981 -2.459,0.50791 -5.7406,1.42394 -7.2923,2.03557 -2.7194,1.07186 -5.1576,1.33913 -6.6657,0.73061 z m -2.1041,-33.33762 c -1.9986,-1.46138 0.1381,-3.36485 8.0929,-7.20917 7.7504,-3.74567 9.0669,-3.94107 12.9663,-1.92461 1.846,0.95456 4.0636,1.04785 5.6711,0.23859 0.6292,-0.31673 1.5974,-0.78802 2.1517,-1.04728 0.5542,-0.25926 3.34,-0.53774 6.1906,-0.61889 2.8505,-0.0812 6.449,-0.38726 7.9967,-0.68033 4.3573,-0.8251 5.5362,-0.70203 5.5362,0.57806 0,1.52928 -5.1515,3.02261 -11.5174,3.33865 -2.8161,0.13982 -6.1965,0.71713 -7.9597,1.3594 -3.9877,1.4525 -7.5636,1.62722 -9.3534,0.45695 -2.9232,-1.91131 -3.7654,-1.84624 -7.9002,0.61024 -2.1643,1.28575 -4.3086,2.35668 -4.7654,2.37983 -0.4566,0.023 -1.6077,0.53263 -2.5578,1.13222 -0.9502,0.59954 -2.12,1.33445 -2.5997,1.6331 -0.5853,0.36452 -1.2269,0.28345 -1.9519,-0.24676 z m 5.4963,-26.58193 c -1.0477,-1.87215 4.9075,-8.54074 9.304,-10.41864 3.2316,-1.38029 6.8514,-0.54826 9.2774,2.13236 1.5084,1.66673 3.1434,1.52738 8.9079,-0.75943 5.4154,-2.14831 9.1025,-3.22876 11.9084,-3.48953 0.9943,-0.0924 2.8839,-0.34984 4.1992,-0.57207 2.1306,-0.35997 2.3916,-0.28058 2.3916,0.7278 0,1.6131 -0.9412,2.15483 -5.1828,2.98326 -4.7738,0.93235 -7.968,1.96778 -12.0244,3.89769 -2.044,0.97246 -4.53,1.6247 -6.7483,1.7705 -3.2972,0.21664 -3.6928,0.10107 -6.4639,-1.88977 -2.075,-1.4908 -3.2989,-2.01029 -4.1211,-1.74936 -1.7677,0.56106 -4.4512,3.00816 -6.3917,5.82864 -1.8757,2.72621 -4.0255,3.38034 -5.0563,1.53855 z m -13.2107,-23.8909 c -0.9896,-0.98959 -0.8595,-2.0678 0.5187,-4.29774 1.8293,-2.9598 5.1863,-4.44098 9.1242,-4.02572 1.7594,0.18553 4.7538,0.0558 6.6541,-0.28812 2.9994,-0.54293 3.9491,-0.47083 7.1984,0.5465 l 3.7432,1.17197 3.1672,-1.75652 c 1.742,-0.96607 3.2968,-1.91583 3.4552,-2.11057 0.1584,-0.19473 1.6568,-0.44327 3.3296,-0.55231 2.5935,-0.16905 3.3431,0.0316 5.0868,1.36155 l 2.045,1.55982 2.3268,-1.04919 c 4.0764,-1.83824 9.283,-0.75251 8.3278,1.73663 -0.2404,0.62658 -1.1137,0.91479 -2.8142,0.92886 -1.356,0.0112 -3.1132,0.39075 -3.9051,0.8434 -2.5265,1.44429 -5.8032,1.08551 -8.2108,-0.89909 -1.9333,-1.5936 -2.2712,-1.69038 -3.5182,-1.00777 -8.7756,4.80354 -9.4538,4.94482 -14.496,3.0192 -1.682,-0.64238 -3.15,-0.82521 -4.4156,-0.54996 -1.0428,0.22678 -3.8394,0.4551 -6.2149,0.50738 -3.132,0.0689 -4.7543,0.38844 -5.9027,1.16251 -0.8709,0.5871 -1.5836,1.24793 -1.5836,1.46851 0,0.55955 -2.253,2.9217 -2.7866,2.9217 -0.2411,0 -0.7492,-0.31097 -1.1293,-0.69104 z m 0.4607,-30.34286 c -1.9731,-0.5456 -2.2747,-2.75821 -0.4719,-3.46145 0.7346,-0.28655 2.2426,-1.47521 3.3512,-2.64146 4.0986,-4.31202 7.4051,-4.92925 9.2902,-1.73427 0.654,1.10855 1.2869,2.01555 1.4063,2.01555 0.1194,0 1.0657,-0.51732 2.1027,-1.14959 2.7068,-1.65036 5.7051,-1.49973 7.9628,0.40003 l 1.8467,1.55391 3.8944,-2.12978 c 2.142,-1.17138 4.203,-2.12978 4.5801,-2.12978 0.377,0 2.6271,-0.77743 5.0001,-1.72761 2.8758,-1.15149 5.3215,-1.7276 7.3345,-1.7276 2.5866,0 3.3451,-0.27565 5.2834,-1.92008 1.2447,-1.05604 3.1053,-2.2087 4.1347,-2.56144 1.6303,-0.55872 1.8715,-0.51488 1.8715,0.34027 0,1.3757 -4.5629,6.27571 -6.516,6.99742 -0.8916,0.32947 -2.7094,0.59904 -4.0396,0.59904 -1.3896,0 -3.3948,0.5305 -4.7134,1.24698 -1.2622,0.68584 -3.5495,1.45138 -5.0827,1.70118 -1.5332,0.24981 -4.0812,1.28423 -5.6622,2.29871 -3.3697,2.1623 -6.9113,2.41091 -10.0748,0.70722 -1.9381,-1.04371 -1.9956,-1.04048 -4.2153,0.23701 -3.3634,1.93574 -5.9805,1.55039 -8.167,-1.20254 -0.9575,-1.20554 -0.9769,-1.19716 -4.1406,1.795 -1.7483,1.6534 -3.2589,2.98036 -3.357,2.94878 -0.098,-0.0316 -0.8263,-0.23654 -1.6181,-0.4555 z m 94.4423,125.98502 c 1.4253,-0.33814 3.9929,-0.70676 5.7058,-0.81911 1.7129,-0.11241 3.2677,-0.42338 3.4552,-0.69104 0.1874,-0.26766 1.3774,-0.81911 2.6443,-1.2255 3.1927,-1.02407 18.7552,-3.89627 23.6105,-4.35753 5.6323,-0.53504 17.4776,-3.39066 20.6369,-4.9751 1.8486,-0.92704 3.6695,-1.68551 4.0467,-1.68551 1.3055,0 4.4242,-3.4214 5.583,-6.12498 1.5613,-3.64237 1.2146,-4.35563 -1.8905,-3.88849 -3.3501,0.50399 -12.382,2.61927 -21.7536,5.09482 -8.1542,2.15397 -23.5984,5.2834 -28.5055,5.77601 -1.5835,0.15899 -5.7065,0.54678 -9.162,0.86172 -7.8319,0.71385 -8.9388,1.33055 -9.083,5.06067 -0.1253,3.23592 0.023,5.90437 0.3836,6.89711 0.3148,0.86697 0.9507,0.87825 4.3286,0.077 z m 8.0622,-15.23509 c 4.496,-0.30452 10.7737,-1.22436 19.2915,-2.82665 7.2959,-1.37241 11.1663,-2.22653 12.8963,-2.84588 3.6855,-1.31937 5.9595,-1.93163 14.1695,-3.81466 4.4342,-1.01704 9.0124,-2.36964 10.1738,-3.0058 l 2.1117,-1.15663 0.3973,-5.29977 c 0.6124,-8.16776 -1.2512,-46.61022 -2.6387,-54.4321 -0.309,-1.742 -1.2155,-8.22051 -2.0146,-14.3967 -0.7991,-6.17617 -1.8318,-12.86758 -2.2949,-14.86978 -0.4633,-2.0022 -1.1025,-6.66673 -1.4206,-10.36562 -0.3181,-3.69888 -0.847,-8.72526 -1.1754,-11.16973 -1.0735,-7.99009 -0.4146,-28.51485 1.1277,-35.12943 0.7286,-3.12458 -0.098,-3.59275 -4.9677,-2.81383 -2.1481,0.34358 -7.1448,1.14155 -11.1039,1.77325 -3.9591,0.6317 -7.9758,1.10782 -8.9259,1.05802 -3.7594,-0.197 -22.0721,1.46975 -33.1125,3.01377 -7.4766,1.04562 -13.5517,2.89236 -18.8415,5.72749 -1.1883,0.63691 -2.3835,1.15802 -2.6561,1.15802 -0.2725,0 -1.2583,0.54317 -2.1906,1.20703 l -1.6951,1.20701 0.271,10.16637 c 0.2719,10.20412 1.2455,18.16187 4.0898,33.4301 0.8026,4.30822 1.8445,9.90624 2.3154,12.44006 0.4709,2.53382 0.8559,5.23135 0.8557,5.9945 -3e-4,0.76317 1.0211,5.81641 2.2696,11.22943 1.2485,5.41302 2.937,13.9881 3.7522,19.05574 0.8152,5.06763 1.857,10.76872 2.315,12.66909 0.458,1.90036 1.0993,5.78746 1.4253,8.63801 0.9539,8.34565 1.807,14.15437 2.6214,17.8519 1.4801,6.71996 1.9574,9.24866 2.3368,12.38115 0.2109,1.742 0.5159,3.38956 0.6779,3.66119 0.1619,0.2717 1.2336,0.3457 2.3816,0.16447 1.1479,-0.18116 4.549,-0.49622 7.558,-0.70002 z m -4.1488,-25.71739 c -1.7008,-0.56941 -2.7217,-2.63517 -1.6343,-3.30721 0.371,-0.22936 1.2702,-0.30314 1.9981,-0.16401 1.3772,0.26329 4.5016,-1.11246 8.1507,-3.5888 2.5969,-1.76227 4.9819,-1.83062 8.5654,-0.24544 l 2.7119,1.19965 4.4156,-1.49703 c 5.7288,-1.94217 12.5882,-2.77136 13.0465,-1.57707 0.4514,1.1761 0.3302,1.24135 -5.0078,2.69829 -2.6262,0.71672 -6.7003,1.87866 -9.0538,2.58202 l -4.2791,1.27888 -2.9304,-1.21461 c -1.6117,-0.66802 -3.1378,-1.21457 -3.3914,-1.21457 -0.2536,0 -2.3217,1.12358 -4.5958,2.49685 -4.8313,2.91741 -5.8938,3.25664 -7.9956,2.55305 z m 12.3221,-30.20103 c -1.0474,-0.51616 -2.6885,-2.07826 -3.647,-3.47139 l -1.7427,-2.5329 -2.5095,2.31326 c -3.7793,3.48354 -7.3154,3.98651 -7.6512,1.08827 -0.1546,-1.33445 0.098,-1.61841 1.8757,-2.10928 1.13,-0.31201 3.2619,-1.63011 4.7377,-2.92915 2.8794,-2.53455 5.0434,-3.39988 6.3854,-2.55335 0.4601,0.29025 1.3077,1.7685 1.8832,3.28504 1.2262,3.22993 2.1052,4.41898 3.2668,4.41898 0.4626,0 2.9338,-1.03656 5.4916,-2.30346 2.5632,-1.26962 5.4957,-2.30348 6.5336,-2.30348 1.9505,0 3.693,1.22603 3.693,2.59855 0,1.12438 -1.1369,1.67784 -1.8931,0.92168 -0.9852,-0.9852 -2.2534,-0.77213 -4.5031,0.75656 -5.8788,3.9948 -8.351,4.57977 -11.9204,2.82067 z m -21.3975,-31.54661 c -0.3827,-0.4612 -0.5348,-1.0992 -0.3379,-1.41775 0.5789,-0.93677 11.9544,-9.58586 13.9653,-10.6183 2.8477,-1.46201 5.8611,-1.22887 7.7713,0.60121 0.8883,0.85108 1.6152,2.02535 1.6152,2.60949 0,1.75273 1.5678,1.82162 5.2374,0.23015 1.9121,-0.82924 4.1044,-1.5077 4.8718,-1.5077 0.7673,0 3.3436,-0.53456 5.7251,-1.18789 5.2769,-1.44767 8.0641,-1.33565 8.0641,0.32409 0,0.79793 -0.4422,1.2055 -1.4396,1.32677 -0.7918,0.0963 -3.3832,0.78754 -5.7587,1.53616 -2.3755,0.74863 -5.2646,1.51891 -6.4205,1.71176 -1.1559,0.19284 -2.9207,0.75923 -3.9217,1.25863 -4.7905,2.38985 -8.266,1.49555 -10.3933,-2.67447 -0.644,-1.26228 -1.5594,-2.29505 -2.0343,-2.29505 -1.1601,0 -4.5399,2.17847 -8.6711,5.58892 -3.5921,2.96545 -6.8498,5.35256 -7.3046,5.35256 -0.1498,0 -0.5856,-0.37736 -0.9685,-0.83858 z m 1.1309,-30.70814 c -1.3482,-0.42548 -3.4552,-2.54056 -3.4552,-3.46855 0,-0.65764 0.5806,-0.77287 2.694,-0.53465 3.0764,0.34675 3.9402,-0.0327 7.8563,-3.45086 4.4063,-3.84622 8.0114,-4.28607 11.7703,-1.43612 1.5873,1.20349 2.2989,1.37342 4.607,1.10022 5.3707,-0.63577 6.4196,-0.93278 10.436,-2.95548 4.2973,-2.16408 7.1362,-2.5477 8.9099,-1.20402 1.6375,1.24043 0.8614,2.25638 -1.774,2.3225 -1.6514,0.0414 -3.4161,0.71278 -5.8942,2.24237 -2.2739,1.40354 -4.709,2.37159 -6.8185,2.71066 -8.0551,1.29475 -7.6499,1.32718 -11.0354,-0.88291 -2.1424,-1.39857 -3.5213,-1.93979 -4.319,-1.69526 -0.6446,0.19756 -2.8998,1.76418 -5.0117,3.48135 -3.822,3.10763 -6.3198,4.29009 -7.9655,3.77075 z m -6.1399,-16.24951 c -1.3176,-0.5313 -2.2402,-2.47566 -1.6375,-3.45084 0.4779,-0.77328 2.3591,-0.73787 3.6506,0.0688 0.8407,0.52501 1.4749,0.35894 3.3035,-0.86503 1.2446,-0.83313 3.17,-2.12158 4.2785,-2.86325 3.8935,-2.60494 6.3126,-2.36949 9.386,0.9136 2.0078,2.14482 3.7225,1.92984 8.1738,-1.02483 1.7009,-1.12896 4.082,-2.20776 5.2915,-2.39732 1.2094,-0.18957 4.9135,-1.49777 8.2311,-2.90713 6.6161,-2.81048 8.8125,-3.0982 11.5059,-1.5072 1.9507,1.15236 2.1494,2.92838 0.2918,2.60858 -3.3924,-0.584 -5.9886,-0.0487 -10.4903,2.16288 -2.6145,1.28447 -5.9833,2.63553 -7.4863,3.00236 -1.503,0.36682 -4.2874,1.57151 -6.1878,2.67708 -5.0628,2.94532 -7.327,3.04136 -11.1433,0.47267 -1.6946,-1.14065 -3.3652,-2.07391 -3.7123,-2.07391 -0.347,0 -1.6814,0.69275 -2.9654,1.53944 -1.2839,0.84669 -3.2553,2.1424 -4.3809,2.87934 -2.1252,1.39149 -3.9793,1.62361 -6.1089,0.76482 z m -99.3879,12.52434 c -0.2108,-1.21861 -0.2511,-1.20155 -0.678,0.28664 -0.2496,0.87029 -0.2508,2.03643 0,2.59141 0.3963,0.88605 0.4789,0.85112 0.678,-0.28665 0.1247,-0.71263 0.1258,-1.87877 0,-2.5914 z"
       style="fill:#dab" />
    <path
       id="path4299"
       d="m 1205.1322,776.03604 c -2.5037,-2.51236 -2.0263,-4.70808 1.3326,-6.12999 1.6163,-0.68418 6.5797,-3.35457 11.0297,-5.93422 4.4501,-2.5796 11.666,-6.5843 16.0354,-8.89926 9.3144,-4.93497 21.7005,-12.69569 22.2291,-13.92807 0.4534,-1.05687 -6.8516,-4.48124 -28.5374,-13.37747 -11.4315,-4.6896 -20.1989,-8.9142 -27.9538,-13.46961 -6.2142,-3.65039 -20.2321,-10.92388 -31.1508,-16.16332 -10.9188,-5.23945 -22.3639,-11.09091 -25.4336,-13.00327 -3.0697,-1.91235 -8.2902,-4.64885 -11.6011,-6.08111 -3.7049,-1.60273 -6.4875,-3.39476 -7.2361,-4.66027 -1.1403,-1.92748 -0.9782,-2.00297 2.59,-1.20593 3.2086,0.71672 53.6923,24.20373 61.8105,28.75668 18.4342,10.33855 25.9606,14.03967 44.3719,21.82015 11.8451,5.00561 22.0345,9.02679 22.643,8.93585 1.8928,-0.28292 -1.4525,-7.41973 -8.9275,-19.04513 -7.9992,-12.44097 -14.6813,-24.75047 -15.14,-27.89086 -0.6659,-4.55853 6.7119,-2.68138 8.6644,2.20453 1.5939,3.9886 11.0263,20.90976 14.6508,26.28288 3.2862,4.87153 4.0783,5.89358 12.3595,15.94637 1.1385,1.38215 3.5237,3.52692 5.3003,4.76618 4.3979,3.06768 3.5897,5.92654 -2.4875,8.79824 -2.4962,1.17951 -8.4103,4.32178 -13.1426,6.98282 -4.7322,2.66105 -13.7116,7.61316 -19.9541,11.0047 -16.3099,8.86114 -23.5837,13.1243 -23.9838,14.05707 -0.355,0.82748 -4.7134,2.60363 -5.3783,2.19179 -0.1992,-0.12341 -1.14,-1.00483 -2.0906,-1.95875 z"
       style="fill:#dab" />
  </g>
</svg>
