<?xml version="1.0" encoding="UTF-8" standalone="no"?>
<!-- Created with Inkscape (http://www.inkscape.org/) -->

<svg
   width="152.60791mm"
   height="135.01472mm"
   viewBox="0 0 152.60791 135.01472"
   version="1.1"
   id="svg1262"
   xmlns="http://www.w3.org/2000/svg"
   xmlns:svg="http://www.w3.org/2000/svg">
  <defs
     id="defs1259" />
  <g
     id="layer1"
     transform="translate(-188.03041,-11.802329)">
    <path
       style="fill:#dab;stroke-width:0.264583"
       d="m 282.81056,146.65864 c -0.088,-0.0879 -1.00986,-0.21198 -2.0487,-0.27561 -1.03884,-0.0636 -2.09726,-0.22727 -2.35205,-0.36363 -0.25479,-0.13636 -0.55256,-0.2299 -0.66171,-0.20787 -0.10916,0.022 -0.60881,-0.28737 -1.11035,-0.68755 -0.50153,-0.40018 -0.98802,-0.7276 -1.08109,-0.7276 -0.14906,0 -0.99449,-0.72484 -2.52534,-2.16513 -1.66107,-1.56279 -3.05621,-1.70264 -7.81197,-0.78306 -1.70536,0.32975 -4.14706,0.58663 -5.82083,0.6124 -3.1683,0.0488 -8.48886,-0.22759 -8.86572,-0.4605 -0.13137,-0.0812 -1.08474,-0.20079 -2.1186,-0.26578 -1.03386,-0.065 -1.95577,-0.16492 -2.04869,-0.22209 -0.0929,-0.0572 -1.12145,-0.13686 -2.28561,-0.17711 -1.16417,-0.0403 -2.26028,-0.18116 -2.43581,-0.31312 -0.17553,-0.13195 -0.43519,-0.1682 -0.57703,-0.0805 -0.14184,0.0877 -0.32298,0.0541 -0.40253,-0.0746 -0.0796,-0.12872 -0.77238,-0.31361 -1.53964,-0.41087 -0.76724,-0.0973 -1.93078,-0.34477 -2.58562,-0.55002 -0.65484,-0.20525 -1.54781,-0.43116 -1.98438,-0.50204 -0.9282,-0.15069 -1.83338,-0.43907 -3.83645,-1.22228 -0.80037,-0.31295 -2.34818,-0.90145 -3.43959,-1.30778 -3.15121,-1.1732 -3.90864,-1.52809 -5.2353,-2.45294 -0.68585,-0.47812 -1.30652,-0.93772 -1.37928,-1.02133 -0.0728,-0.0836 -0.63831,-0.43296 -1.25677,-0.77633 -0.61846,-0.34336 -1.12448,-0.72143 -1.12448,-0.84016 0,-0.11872 -0.0991,-0.21586 -0.22024,-0.21586 -0.26131,0 -4.67182,-4.33289 -4.90815,-4.82177 -0.0898,-0.18568 -0.58277,-0.87339 -1.09556,-1.52823 -0.51279,-0.65485 -1.00294,-1.39899 -1.08922,-1.65365 -0.0863,-0.25466 -0.25832,-0.46302 -0.3823,-0.46302 -0.12398,0 -0.15654,-0.17951 -0.0723,-0.39892 0.0842,-0.2194 -0.0197,-0.66589 -0.23088,-0.99218 -0.21117,-0.3263 -0.39978,-1.05425 -0.41912,-1.61766 -0.0445,-1.29595 -0.54637,-1.95263 -4.5649,-5.9728 -1.75338,-1.7541 -3.11052,-3.18927 -3.01587,-3.18927 0.0947,0 -0.4717,-0.52442 -1.25854,-1.16539 -1.46373,-1.19234 -3.98331,-4.67829 -5.05809,-6.99808 -0.52997,-1.14389 -1.20048,-2.1719 -2.08972,-3.203908 -0.4089,-0.474538 -0.84481,-1.211931 -1.33523,-2.258666 -1.4515,-3.098022 -1.97659,-4.08437 -2.62605,-4.932865 -0.40587,-0.530265 -0.73796,-1.140804 -0.73796,-1.356751 0,-0.215948 -0.18779,-0.842079 -0.41731,-1.391399 -0.46292,-1.107932 -0.93185,-4.679072 -0.64167,-4.886693 0.10169,-0.07276 0.26773,-0.662165 0.36896,-1.309791 0.10124,-0.647623 0.28778,-1.302467 0.41455,-1.455208 0.12676,-0.152739 0.22827,-0.372113 0.22558,-0.487495 -0.003,-0.115382 0.13776,-0.591632 0.31212,-1.058333 0.72241,-1.933636 1.15328,-2.832923 1.35733,-2.832923 0.11894,0 0.65156,-0.68461 1.18359,-1.521354 0.53202,-0.836745 1.57952,-2.23573 2.32776,-3.108855 4.34343,-5.068321 4.62619,-5.662612 5.47622,-11.509375 0.17984,-1.236927 0.42664,-2.362068 0.54846,-2.500312 0.12183,-0.138245 0.22329,-0.554964 0.22548,-0.926042 0.002,-0.371078 0.17556,-1.150938 0.38526,-1.733021 0.2097,-0.582083 0.38651,-1.553755 0.39289,-2.15927 0.006,-0.605512 0.23725,-1.736606 0.51303,-2.513542 0.27578,-0.776933 0.88173,-2.60323 1.34655,-4.058438 0.46483,-1.455208 0.94128,-2.883958 1.05878,-3.175 0.11751,-0.291042 0.47055,-1.184011 0.78454,-1.984375 1.22348,-3.118636 2.28779,-4.831676 4.31236,-6.940815 1.12779,-1.174898 2.05052,-2.236978 2.05052,-2.360181 0,-0.123203 0.16015,-0.224004 0.35587,-0.224004 0.19573,0 0.58026,-0.247955 0.85453,-0.551008 0.27426,-0.303057 0.85826,-0.71328 1.29777,-0.911609 0.43952,-0.198329 1.09678,-0.53172 1.46058,-0.740868 0.36381,-0.209148 0.95912,-0.506799 1.32292,-0.661445 0.3638,-0.154646 1.22047,-0.525804 1.90371,-0.824791 0.68324,-0.298987 1.38199,-0.543613 1.55277,-0.543613 0.17078,0 1.04052,-0.233124 1.93275,-0.518054 0.89222,-0.28493 2.20237,-0.671883 2.91143,-0.859896 0.73765,-0.195593 1.67152,-0.702127 2.18282,-1.183971 0.49148,-0.463169 0.8936,-0.780007 0.8936,-0.704082 0,0.118107 0.55764,-0.292185 2.03936,-1.500484 0.17576,-0.143328 0.42289,-0.260596 0.54919,-0.260596 0.1263,0 0.50882,-0.297188 0.85006,-0.660416 0.34123,-0.363228 0.67531,-0.605531 0.74239,-0.538448 0.0671,0.06708 0.73138,-0.385265 1.47621,-1.005213 1.29874,-1.080974 2.72338,-2.097905 4.49594,-3.209274 0.45488,-0.285208 0.86312,-0.601734 0.90719,-0.703395 0.0441,-0.101659 0.75844,-0.513657 1.5875,-0.915549 0.82905,-0.401894 1.5669,-0.79974 1.63966,-0.884105 0.21503,-0.249319 1.94796,-0.598289 4.63021,-0.93241 0.58209,-0.07251 1.83224,-0.252151 2.77813,-0.399209 0.94588,-0.147055 2.61276,-0.24503 3.70416,-0.217723 4.00405,0.100187 5.88956,-0.09933 7.06863,-0.747985 0.61352,-0.337526 1.38743,-0.651076 1.71979,-0.696783 0.33236,-0.0457 0.7575,-0.179115 0.94476,-0.29647 0.4937,-0.309399 10.20026,-0.260827 12.22724,0.06119 0.94589,0.150265 3.02948,0.523552 4.63021,0.829527 1.60073,0.305972 3.50573,0.60448 4.23333,0.66335 2.83339,0.229248 3.87986,0.401019 4.57224,0.750504 0.39568,0.199729 0.85735,0.313661 1.02591,0.253185 0.16857,-0.06048 0.38395,0.0154 0.47864,0.168593 0.0947,0.153204 0.4985,0.27855 0.89737,0.27855 0.39887,0 0.84778,0.122569 0.99759,0.27237 0.1498,0.149805 1.15588,0.379368 2.23573,0.510141 2.41234,0.29214 5.24375,1.110856 6.47643,1.872692 1.03105,0.637222 1.41412,1.274818 2.10066,3.49636 0.25859,0.836745 0.57293,1.521354 0.69853,1.521354 0.1256,0 0.22836,0.198985 0.22836,0.442188 0,0.243202 0.16049,0.630155 0.35664,0.859896 0.19616,0.22974 0.51457,1.002141 0.7076,1.71645 0.19302,0.714308 0.7587,1.904933 1.25706,2.645833 0.89421,1.329402 3.12224,3.860633 3.3982,3.860633 0.0781,0 0.49838,0.356338 0.9339,0.791864 0.70069,0.700691 2.8849,2.302782 4.15084,3.044595 0.24834,0.145521 0.8641,0.562239 1.36836,0.926041 0.50425,0.363802 1.18181,0.800849 1.50568,0.971214 0.32387,0.170368 0.92086,0.48437 1.32664,0.697783 0.729,0.383405 2.20116,1.043181 2.45758,1.101408 0.0728,0.01654 0.66807,0.273047 1.32292,0.570058 0.65484,0.297008 1.27033,0.530109 1.36774,0.518004 0.0974,-0.01212 0.48437,0.266636 0.8599,0.619424 0.37553,0.35279 0.68277,0.546571 0.68277,0.430625 0,-0.115946 0.19129,-0.05205 0.4251,0.141986 0.44727,0.371208 1.28894,0.887545 1.95615,1.200042 1.36899,0.641186 4.6665,2.642333 4.85001,2.943304 0.12088,0.198268 0.47807,0.478062 0.79375,0.621766 1.1721,0.533561 1.79921,0.980133 2.97179,2.116219 1.20945,1.171808 2.49695,3.053072 2.49695,3.648464 0,0.176147 0.23414,0.804868 0.5203,1.397159 0.28616,0.592288 0.54802,1.546677 0.5819,2.120858 0.0339,0.574183 0.14575,1.095981 0.24861,1.159549 0.22617,0.13978 -0.004,1.177589 -0.36309,1.636409 -0.14231,0.181901 -0.17052,0.330729 -0.0627,0.330729 0.10785,0 -0.11569,0.408776 -0.49677,0.908388 -0.38107,0.499613 -0.69286,0.994392 -0.69286,1.099506 0,0.105113 -0.29766,0.581363 -0.66146,1.058333 -0.3638,0.47697 -0.66146,0.979644 -0.66146,1.117055 0,0.137414 -0.16564,0.387313 -0.36809,0.555331 -0.20245,0.168021 -0.42854,0.629084 -0.50241,1.024586 -0.0739,0.395502 -0.19919,0.987692 -0.27847,1.315979 -0.16943,0.701477 0.45141,3.261522 0.99584,4.106403 0.97515,1.5133 1.70738,5.95245 1.73365,10.510253 0.0133,2.311548 0.0369,2.708711 0.37625,6.35 0.23287,2.498574 -0.15033,6.454314 -0.85865,8.863541 -0.29948,1.018646 -0.68669,2.387865 -0.86047,3.042709 -0.17378,0.654844 -0.45908,1.547812 -0.63399,1.984372 -0.17492,0.43656 -0.46667,1.21047 -0.64835,1.71979 -1.16682,3.27118 -4.26147,7.9375 -5.26405,7.9375 -0.16821,0 -0.5142,0.18362 -0.76886,0.40804 -0.94905,0.83635 -3.23281,2.50242 -3.4318,2.5036 -0.11342,8e-4 -0.56341,0.3294 -0.99997,0.73049 -0.43656,0.4011 -1.46709,1.29835 -2.29006,1.99389 -1.46235,1.23593 -2.18227,2.31063 -2.43205,3.63056 -0.15754,0.83247 -0.47669,1.65098 -1.483,3.80335 -0.44349,0.94857 -0.80635,1.86144 -0.80635,2.02861 0,0.78564 -2.56133,5.78937 -4.15519,8.11744 -1.15225,1.68303 -3.91523,4.56527 -4.37638,4.56527 -0.12924,0 -0.614,0.28591 -1.07723,0.63535 -1.9527,1.47301 -5.99556,3.64027 -7.05995,3.78463 -0.3638,0.0493 -0.89958,0.196 -1.19063,0.32591 -0.60174,0.2686 -2.91634,0.83967 -7.14375,1.76255 -1.60072,0.34945 -3.08901,0.68579 -3.30729,0.74742 -2.66421,0.75222 -7.53739,1.25814 -7.96829,0.82724 z m 3.7211,-2.8246 c 1.20579,0.0319 1.75324,-0.0656 5.7024,-1.01578 1.16417,-0.28009 2.77151,-0.58906 3.57188,-0.6866 0.80036,-0.0975 1.69333,-0.3242 1.98437,-0.5037 0.29104,-0.17949 0.97565,-0.4727 1.52136,-0.65157 0.5457,-0.17887 0.99218,-0.41443 0.99218,-0.52346 0,-0.10903 0.36189,-0.14513 0.80419,-0.0802 0.49703,0.073 0.97705,-0.0377 1.25677,-0.28979 0.24892,-0.22431 0.80977,-0.49334 1.24634,-0.59786 0.8299,-0.1987 2.12609,-0.7952 2.62099,-1.20618 1.02529,-0.85144 2.81075,-2.0846 3.01824,-2.0846 0.38284,0 2.43056,-1.95557 2.43056,-2.32118 0,-0.17888 0.46289,-0.77447 1.02866,-1.32352 0.92272,-0.89547 3.73384,-6.16616 3.73384,-7.00073 0,-0.15465 0.34687,-1.00761 0.77081,-1.89547 1.17637,-2.46364 1.60421,-3.64641 1.66793,-4.61098 0.032,-0.48401 0.15118,-0.93752 0.2649,-1.00781 0.11373,-0.0703 0.20677,-0.34216 0.20677,-0.60416 0,-0.42828 1.18933,-1.70193 4.00883,-4.29307 1.13971,-1.0474 1.54884,-1.33238 3.13492,-2.18359 0.65485,-0.35144 1.78435,-1.18685 2.51,-1.85648 0.72565,-0.66963 1.49956,-1.27703 1.71979,-1.34979 0.6392,-0.21117 2.25683,-2.60165 2.8946,-4.27757 0.32217,-0.84655 0.74212,-1.89638 0.93324,-2.33294 0.43207,-0.98693 1.73984,-5.433449 1.7353,-5.900119 -0.002,-0.189126 0.17681,-0.692242 0.39699,-1.118034 0.54623,-1.056285 0.55128,-7.933491 0.009,-12.296431 -0.12239,-0.984771 -0.16055,-3.003 -0.08,-4.233333 0.058,-0.886881 -0.6383,-4.101042 -0.88848,-4.101042 -0.12904,0 -0.23462,-0.175495 -0.23462,-0.389988 0,-0.214492 -0.36829,-1.31582 -0.81843,-2.447396 -0.65433,-1.644906 -0.81711,-2.441405 -0.81189,-3.972647 0.007,-2.036077 0.31286,-2.822821 2.37502,-6.108121 0.48636,-0.774829 0.82293,-1.568648 0.74795,-1.764043 -0.075,-0.195395 0.0348,-0.42091 0.24384,-0.501147 0.52019,-0.199615 0.51942,-2.627969 -0.001,-3.059856 -0.20964,-0.17398 -0.32058,-0.474171 -0.24655,-0.667092 0.074,-0.192923 0.007,-0.429368 -0.14802,-0.525438 -0.15536,-0.09607 -0.28254,-0.381805 -0.28254,-0.634971 0,-1.049581 -5.77584,-5.858468 -7.03646,-5.858468 -0.20453,0 -0.37187,-0.110305 -0.37187,-0.245123 0,-0.134819 -0.68461,-0.573778 -1.52136,-0.975469 -0.83674,-0.401688 -1.9976,-1.044712 -2.57969,-1.428943 -0.91667,-0.605092 -8.54697,-4.453602 -9.65729,-4.870865 -0.66019,-0.248106 -1.42786,-0.788533 -1.78034,-1.253337 -0.18325,-0.241647 -0.95897,-0.82405 -1.72382,-1.294225 -3.70539,-2.277822 -6.38729,-4.947817 -7.93907,-7.903819 -0.69122,-1.316723 -1.25677,-2.525686 -1.25677,-2.686585 0,-0.160901 -0.22318,-0.576281 -0.49597,-0.92307 -0.27278,-0.346789 -0.81414,-1.629746 -1.20302,-2.851015 -0.61375,-1.927492 -0.81887,-2.275247 -1.55455,-2.635488 -1.47473,-0.722141 -1.61506,-0.763797 -5.05707,-1.501222 -1.44215,-0.308967 -2.84113,-0.678993 -3.10886,-0.822275 -0.26773,-0.143285 -0.48678,-0.182216 -0.48678,-0.08652 0,0.0957 -0.1604,0.04087 -0.35645,-0.121832 -0.35861,-0.297617 -3.77934,-1.006624 -5.99355,-1.242267 -1.05459,-0.112233 -2.3172,-0.295463 -5.55625,-0.80631 -0.50932,-0.08033 -1.67652,-0.251274 -2.59377,-0.37988 -0.91726,-0.128606 -2.08505,-0.349057 -2.59511,-0.48989 -0.98646,-0.272375 -7.33416,-0.356126 -8.27832,-0.109222 -0.30882,0.08076 -0.63262,0.430202 -0.71955,0.776538 -0.17085,0.680715 -1.5287,1.235422 -2.18582,0.892945 -0.2009,-0.104706 -0.91528,-0.01995 -1.5875,0.188373 -1.13473,0.351639 -3.01265,0.488955 -8.36597,0.611733 -4.3236,0.09916 -10.51831,1.554467 -10.90488,2.561852 -0.0726,0.189108 -0.28782,0.343831 -0.47834,0.343831 -0.46389,0 -4.35949,2.617827 -4.35949,2.929557 0,0.134993 -0.0939,0.215678 -0.2086,0.179297 -0.26802,-0.08498 -5.61223,3.808222 -5.61223,4.088448 0,0.116067 -0.13169,0.211032 -0.29266,0.211032 -0.16095,0 -0.7265,0.335364 -1.25677,0.745254 -1.24447,0.96197 -3.74806,2.124737 -5.59432,2.598227 -2.67571,0.68621 -5.02062,1.45909 -5.17251,1.704859 -0.0827,0.133828 -0.33815,0.243326 -0.56765,0.243326 -0.57746,0 -4.11889,2.521723 -5.60283,3.989563 -2.627,2.598507 -3.65804,4.187195 -4.83028,7.442827 -0.43443,1.206508 -0.83358,2.372246 -0.887,2.590527 -0.0975,0.398561 -0.83657,2.583384 -1.20821,3.571875 -0.59197,1.57453 -0.8,2.295507 -1.1833,4.101042 -0.2317,1.091406 -0.70446,3.234531 -1.05059,4.7625 -0.34613,1.527969 -0.69328,3.616603 -0.77145,4.641408 -0.13826,1.812491 -0.55857,3.373345 -1.30092,4.83099 -0.20001,0.392732 -0.567,1.130779 -0.81554,1.640102 -0.24853,0.509323 -1.22803,1.75948 -2.17666,2.778125 -1.57886,1.695392 -4.30171,5.391047 -5.02528,6.820676 -0.86408,1.707279 -1.18282,2.624619 -1.55785,4.483597 -0.37872,1.87724 -0.37641,2.168422 0.0283,3.571875 0.24238,0.840412 0.64958,1.944738 0.90489,2.454061 0.25531,0.509323 0.89792,1.857394 1.42803,2.99571 0.87043,1.869097 3.45177,6.110754 4.53709,7.455333 0.23492,0.29104 0.69592,1.12448 1.02443,1.85208 0.56676,1.25527 3.49797,4.56752 3.92051,4.43014 0.10914,-0.0355 0.19844,0.0944 0.19844,0.28863 0,0.19423 0.32742,0.65187 0.7276,1.01699 0.40018,0.36512 0.97855,0.95035 1.28526,1.30051 0.74558,0.8512 1.63747,1.56269 1.95891,1.56269 0.14386,0 0.26156,0.15034 0.26156,0.33408 0,0.18374 0.31916,0.57069 0.70926,0.85989 0.39009,0.2892 1.0747,0.93285 1.52135,1.43032 0.44665,0.49747 1.03034,1.09278 1.29707,1.32292 0.6833,0.58953 1.76399,2.78561 1.76399,3.58462 0,0.36864 0.11532,0.67026 0.25628,0.67026 0.14095,0 0.18774,0.17859 0.10398,0.39687 -0.0845,0.22015 -0.007,0.39688 0.17299,0.39688 0.24639,0 0.25188,0.0885 0.0226,0.36469 -0.38562,0.46463 -0.10951,1.13577 1.42827,3.47176 0.82397,1.25166 4.64197,4.98743 5.95335,5.82512 0.65484,0.4183 1.42875,0.96635 1.71979,1.21789 0.29104,0.25153 1.42214,0.89232 2.51354,1.42396 1.09141,0.53165 2.17513,1.06651 2.40827,1.18858 0.71186,0.37271 5.26806,1.85383 5.70274,1.85383 0.22439,0 0.78316,0.1722 1.24171,0.38266 0.88442,0.40592 3.56422,1.18506 4.6702,1.35782 0.3638,0.0568 1.19724,0.22407 1.85208,0.37165 2.01548,0.45419 3.52018,0.61358 3.36099,0.35601 -0.0821,-0.13289 0.0806,-0.25894 0.36151,-0.28011 0.28096,-0.0212 0.51084,0.0732 0.51084,0.20966 0,0.13648 0.0893,0.22482 0.19843,0.19631 0.10914,-0.0285 0.91282,0.0471 1.78594,0.16807 0.87313,0.12095 2.36141,0.25541 3.30729,0.29879 0.94589,0.0434 2.2862,0.19066 2.97846,0.32728 0.69227,0.13663 1.64477,0.16597 2.11667,0.0652 0.4719,-0.10076 1.2701,-0.073 1.77378,0.0617 0.58525,0.1565 1.58795,0.14257 2.77813,-0.0386 3.03623,-0.46213 4.20778,-0.60331 4.85876,-0.5855 0.33835,0.009 0.82366,-0.0947 1.07847,-0.23111 0.25481,-0.13637 1.04954,-0.31711 1.76607,-0.40164 0.71653,-0.0845 1.51686,-0.22033 1.77851,-0.30176 0.26164,-0.0814 0.64708,-0.006 0.85652,0.16798 0.20945,0.17382 0.56729,0.24448 0.7952,0.15702 0.23288,-0.0894 0.66185,0.0715 0.97931,0.36728 0.31069,0.28946 0.69576,0.52629 0.85569,0.52629 0.15993,0 0.87714,0.59531 1.59381,1.32292 0.71666,0.7276 1.4418,1.32291 1.61143,1.32291 0.16962,0 0.47175,0.23712 0.6714,0.52693 0.19965,0.28981 0.63251,0.56527 0.9619,0.61213 0.3294,0.0469 0.74017,0.22646 0.91282,0.39912 0.17265,0.17265 0.9747,0.32577 1.78234,0.34028 0.80764,0.0145 1.7661,0.12288 2.1299,0.24083 0.3638,0.11795 1.01241,0.15099 1.44135,0.0734 0.42893,-0.0776 1.3219,-0.12671 1.98437,-0.1092 z"
       id="path1297" />
  </g>
</svg>
