<?xml version="1.0" encoding="UTF-8" standalone="no"?>
<svg
   xmlns:dc="http://purl.org/dc/elements/1.1/"
   xmlns:cc="http://creativecommons.org/ns#"
   xmlns:rdf="http://www.w3.org/1999/02/22-rdf-syntax-ns#"
   xmlns:svg="http://www.w3.org/2000/svg"
   xmlns="http://www.w3.org/2000/svg"
   version="1.1"
   id="svg4204"
   viewBox="0 0 58.570598 129.53546"
   height="36.557785mm"
   width="16.529924mm">
  <defs
     id="defs4206" />
  <metadata
     id="metadata4209">
    <rdf:RDF>
      <cc:Work
         rdf:about="">
        <dc:format>image/svg+xml</dc:format>
        <dc:type
           rdf:resource="http://purl.org/dc/dcmitype/StillImage" />
        <dc:title></dc:title>
      </cc:Work>
    </rdf:RDF>
  </metadata>
  <g
     transform="translate(-212.91538,-786.2442)"
     id="layer1">
    <path
       id="path4229"
       d="m 232.55119,915.39526 c -0.1022,-0.20994 -0.57333,-0.38172 -1.04696,-0.38172 -0.49152,0 -1.26496,-0.4314 -1.80193,-1.00508 l -0.94079,-1.00507 0.19868,1.00507 c 0.22336,1.12992 -0.27084,1.39373 -0.63143,0.33707 -0.12538,-0.36741 -0.31938,-3.75995 -0.43111,-7.53898 -0.17484,-5.91337 -0.21041,-6.27247 -0.25519,-2.57661 -0.0519,4.28713 -0.43276,5.60273 -0.83459,2.88322 -0.11468,-0.77612 -0.09,-5.19931 0.0548,-9.8293 0.30649,-9.79897 0.32453,-12.53812 0.14217,-21.58752 -0.19768,-9.80939 0.12447,-17.58826 0.88501,-21.37022 0.84329,-4.19342 1.19187,-6.63487 0.89125,-6.24236 -0.5212,0.68053 -3.95436,9.34382 -3.78703,9.55627 0.0974,0.12359 0.2623,-0.0575 0.36656,-0.4025 0.10427,-0.34497 0.37184,-0.62721 0.59462,-0.62721 0.27779,0 0.0228,1.04939 -0.81165,3.34005 -0.66918,1.83703 -1.75184,5.08918 -2.4059,7.22699 -0.65406,2.13782 -1.31988,3.94224 -1.47959,4.00984 -0.1597,0.0676 -0.8642,1.23645 -1.56555,2.59746 -0.70134,1.36102 -1.53096,2.53712 -1.8436,2.61356 -0.38638,0.0945 -0.51716,-0.0306 -0.40836,-0.3906 0.12173,-0.40278 -0.081,-0.49386 -0.8467,-0.38036 -0.66885,0.0991 -1.3575,-0.126 -2.05177,-0.67078 -0.86944,-0.68224 -1.10683,-1.17068 -1.4129,-2.90711 -0.31577,-1.79145 -0.29463,-2.39743 0.14919,-4.27786 0.28438,-1.20492 0.63957,-2.9153 0.78931,-3.80083 0.14974,-0.88554 0.95142,-4.23954 1.7815,-7.45333 1.34742,-5.21672 2.38747,-10.75933 2.5791,-13.7444 0.0371,-0.57735 0.0843,-1.22534 0.10497,-1.43998 0.078,-0.80944 2.63941,-3.93599 4.09023,-4.99258 0.83018,-0.60459 1.39137,-1.10086 1.2471,-1.10284 -0.14426,-0.002 -0.0939,-0.26124 0.11198,-0.57616 0.20585,-0.31492 0.72977,-0.57543 1.16426,-0.57892 1.21949,-0.01 4.51243,-1.66616 4.96223,-2.49605 0.22126,-0.40823 0.57447,-1.42933 0.7849,-2.26912 0.21044,-0.83978 0.49753,-1.71205 0.63799,-1.93838 0.2033,-0.3276 0.83662,-4.71817 0.86292,-5.98231 0.003,-0.15746 -0.25482,-0.28629 -0.57353,-0.28629 -0.31872,0 -0.86507,-0.47238 -1.21413,-1.04974 -0.34905,-0.57735 -1.26229,-1.47916 -2.02942,-2.00403 -1.45282,-0.99401 -1.74617,-1.44284 -2.01415,-3.08167 -0.0883,-0.54021 -0.52296,-1.65674 -0.96582,-2.48118 -0.44287,-0.82444 -0.92224,-2.18607 -1.06528,-3.02586 -0.14304,-0.83978 -0.38435,-1.87043 -0.53626,-2.29032 -0.1519,-0.41989 -0.40533,-1.79386 -0.56316,-3.05325 -0.24742,-1.97418 -0.21186,-2.42376 0.25801,-3.26156 0.29974,-0.53446 0.87696,-1.90888 1.2827,-3.05427 1.04941,-2.96246 2.54682,-5.44281 3.11791,-5.16458 0.28042,0.13663 1.01102,-0.35586 1.85936,-1.25335 0.76859,-0.81312 1.69162,-1.59489 2.05118,-1.73726 0.35955,-0.14237 1.16042,-0.69542 1.7797,-1.229 0.61929,-0.53358 1.94863,-1.29138 2.95409,-1.68401 1.90195,-0.74271 2.86068,-0.68479 6.63854,0.40105 0.82679,0.23764 2.04443,0.48458 2.70587,0.54875 1.60867,0.15608 4.89693,1.7301 6.17944,2.95797 0.56991,0.54563 1.30679,1.05371 1.63751,1.12907 0.69595,0.15858 2.4872,4.25064 2.69718,6.16161 0.0739,0.67249 0.25847,1.74877 0.41018,2.39174 0.1517,0.64297 0.19108,2.61837 0.0875,4.38978 -0.1591,2.7207 -0.26822,3.2129 -0.70283,3.1702 -0.33488,-0.0329 -0.63174,0.40051 -0.85035,1.24152 -0.42113,1.62011 -4.94003,7.88971 -6.88564,9.55327 -2.10633,1.80097 -5.13012,5.45625 -5.11896,6.188 0.0211,1.38124 0.80203,2.07883 2.08304,1.86068 1.26249,-0.21499 1.9056,0.29434 1.17792,0.93291 -0.26697,0.23429 0.6156,0.27552 2.48164,0.11593 2.6012,-0.22246 2.95314,-0.17373 3.4575,0.4787 0.30884,0.3995 1.11449,0.92786 1.79035,1.17412 0.67585,0.24627 1.47475,0.79279 1.77534,1.21449 0.65129,0.91372 0.3106,0.97105 -1.15388,0.19416 -0.59364,-0.31492 -1.45575,-0.57364 -1.91579,-0.57494 -0.46005,-0.001 -1.22398,-0.25895 -1.69761,-0.57258 -1.0179,-0.67402 -1.69438,-0.73431 -1.69438,-0.15102 0,0.65194 -3.596,0.008 -4.69559,-0.84072 -0.5156,-0.398 -1.16159,-0.72365 -1.43554,-0.72365 -0.6239,0 -1.08452,-1.48772 -1.08452,-3.50281 l 0,-1.54452 -1.12744,0.30098 c -0.6201,0.16554 -1.53333,0.32356 -2.0294,0.35115 -0.49608,0.0276 -1.12909,0.18262 -1.4067,0.3445 -0.30492,0.17781 -1.2331,-0.0429 -2.34459,-0.55741 -1.18492,-0.54854 -1.94337,-0.72031 -2.13063,-0.48255 -0.15993,0.20305 -0.51655,1.96446 -0.79248,3.91424 -0.56685,4.00536 -1.91804,7.44584 -2.95117,7.51441 -0.32812,0.0217 -1.00247,0.24363 -1.49855,0.49301 -0.49607,0.24938 -1.48137,0.72942 -2.18954,1.06675 -0.70818,0.33734 -1.3588,0.75964 -1.44584,0.93844 -0.087,0.17881 -0.42086,0.3251 -0.74181,0.3251 -0.69946,0 -3.11297,2.93749 -2.59417,3.15737 0.23323,0.0988 0.0732,0.67155 -0.46162,1.65175 -1.0127,1.85612 -1.83593,4.83937 -2.48232,8.99559 -0.64298,4.13426 -0.90256,5.21766 -2.15853,9.00888 -0.57485,1.73524 -1.3824,4.88962 -1.79454,7.00974 -0.69235,3.56153 -0.71474,3.94738 -0.29435,5.07216 0.78814,2.10871 1.47459,2.63999 3.02875,2.34409 1.13816,-0.2167 1.44868,-0.4637 1.85692,-1.47705 0.26961,-0.66925 0.87157,-1.83317 1.33768,-2.58648 1.06344,-1.71868 4.30176,-11.17611 3.88693,-11.35167 -0.58403,-0.24717 -0.30224,-1.81051 0.85226,-4.72828 0.63759,-1.61139 1.05031,-3.06823 0.91715,-3.23742 -0.58958,-0.74906 2.82718,-6.60599 3.85374,-6.60599 0.52134,0 0.56631,-0.60619 -0.66541,8.97043 -0.85409,6.64058 -1.41003,20.36348 -0.80575,19.88931 0.55296,-0.4339 0.65254,0.40248 0.30759,2.58329 -0.2527,1.59754 -0.25103,2.26985 0.007,2.66398 0.34587,0.52912 0.28547,8.42165 -0.0917,11.98573 -0.53547,5.05966 -0.54671,4.75749 0.16626,4.47019 0.60557,-0.24403 0.63793,-0.16998 0.44626,1.02112 -0.45565,2.8316 -0.83108,9.82409 -0.65056,12.11711 0.331,4.20446 1.47339,5.77196 4.2066,5.77196 1.24654,0 1.42576,-0.12288 2.08775,-1.43145 0.39828,-0.7873 0.81486,-2.11855 0.92574,-2.95833 0.11088,-0.83979 0.46496,-2.88972 0.78685,-4.5554 0.34153,-1.76728 0.46919,-3.11958 0.30654,-3.24721 -0.16333,-0.12816 0.0828,-2.98295 0.59462,-6.89622 0.52235,-3.9938 0.89622,-8.36508 0.93026,-10.87644 0.0321,-2.37169 0.22495,-4.71874 0.44305,-5.39344 0.61207,-1.89342 1.87818,-3.57699 2.69002,-3.57699 0.74721,0 1.92751,1.19734 1.92751,1.95534 0,0.30491 0.12423,0.29755 0.43086,-0.0255 0.56791,-0.59841 1.24126,0.67823 1.94483,3.68734 0.30863,1.31998 0.68484,2.20813 0.93534,2.20813 0.30536,0 0.56385,1.24273 0.9528,4.58065 0.68666,5.89287 0.77062,6.29838 1.30395,6.29838 0.30373,0 0.44525,0.40237 0.44525,1.26591 0,5.13999 2.84403,15.52979 4.25102,15.52979 0.30768,0 0.55941,0.25766 0.55941,0.57258 0,0.9009 0.83827,0.66912 1.38058,-0.38172 0.27087,-0.52487 0.61222,-0.9543 0.75856,-0.9543 0.56305,0 0.22973,1.6061 -0.51524,2.48267 l -0.78131,0.91935 0.82785,0.2638 c 0.91763,0.29241 1.79206,-0.21685 1.77783,-1.03539 -0.005,-0.29203 0.46608,-1.29571 1.04701,-2.2304 0.85093,-1.36908 1.0925,-2.14819 1.24273,-4.00806 0.12684,-1.57032 0.0614,-2.61383 -0.20473,-3.26294 -0.21516,-0.52487 -0.47593,-2.26612 -0.57949,-3.86944 -0.16843,-2.6078 -0.24787,-2.89535 -0.75349,-2.72748 -0.64852,0.21532 -0.6826,0.0687 -1.15701,-4.97916 -0.19325,-2.05619 -0.54459,-3.8412 -0.90161,-4.58064 -0.32173,-0.66636 -0.80948,-2.75753 -1.08389,-4.64705 -0.27441,-1.88951 -0.61796,-3.72011 -0.76344,-4.06798 -0.14548,-0.34788 -0.41724,-2.15151 -0.60391,-4.00806 -0.36195,-3.59986 -0.75075,-5.95489 -1.18748,-7.19277 -0.33161,-0.93991 -1.20882,-7.67732 -1.20882,-9.2843 0,-0.64548 -0.35806,-2.59961 -0.79568,-4.3425 -0.57734,-2.29933 -0.79227,-3.95451 -0.78327,-6.03181 0.018,-4.14139 0.0165,-4.13183 0.71003,-4.60309 0.54263,-0.36871 0.77083,-0.261 1.57842,0.74504 0.51925,0.64684 1.64061,2.0246 2.49193,3.06171 0.9237,1.12529 1.69493,2.47411 1.91262,3.34503 0.20063,0.80266 0.68792,2.21106 1.08286,3.12977 0.39494,0.91872 0.71808,1.90642 0.71808,2.19489 0,0.28848 0.21142,0.5245 0.46983,0.5245 0.28503,0 0.80509,0.93877 1.32218,2.38669 0.46879,1.31267 1.13358,2.70982 1.47731,3.10477 0.34374,0.39496 0.55041,0.87127 0.45929,1.05848 -0.0911,0.1872 0.31721,0.95347 0.90741,1.70283 1.02755,1.30461 1.13699,1.3513 2.57799,1.09967 1.2632,-0.22058 1.50489,-0.16507 1.50489,0.34561 0,0.33462 -0.16912,0.61363 -0.37581,0.62001 -0.2067,0.006 -0.13389,0.19037 0.16181,0.40885 0.29569,0.21848 0.95388,0.28116 1.46265,0.13929 l 0.92503,-0.25796 -0.24412,-1.96406 c -0.13426,-1.08024 -0.26066,-3.25237 -0.28087,-4.82697 -0.0411,-3.20121 -0.39029,-4.52269 -3.42107,-12.94637 -1.33449,-3.70907 -2.23532,-5.66008 -3.26708,-7.07583 -0.78351,-1.07509 -1.77871,-2.47969 -2.21157,-3.12132 -0.43285,-0.64164 -1.41373,-1.73805 -2.17972,-2.43647 -2.32297,-2.11805 -1.69179,-2.66407 0.82892,-0.71709 1.85791,1.43504 2.92419,2.63193 2.71944,3.05255 -0.0833,0.17115 0.80027,1.58327 1.96351,3.13805 1.16323,1.55479 2.11497,3.02719 2.11497,3.272 0,0.95663 1.88669,6.59232 2.26936,6.77876 0.22309,0.10869 0.6332,1.08444 0.91136,2.16833 0.27816,1.0839 0.67374,2.40016 0.87907,2.92502 0.67965,1.7373 1.05129,3.65795 1.05129,5.43304 0,0.96387 0.20292,3.09885 0.45093,4.7444 0.24801,1.64556 0.45095,3.02095 0.45098,3.05644 2e-5,0.0355 -0.60154,0.22741 -1.33682,0.42652 -1.35682,0.36741 -3.55512,-0.0976 -4.95355,-1.04781 -0.50626,-0.344 -0.62458,-0.31339 -0.62458,0.16162 0,1.77282 -1.80152,-0.28041 -3.33747,-3.80378 -0.54914,-1.25967 -1.4258,-3.0633 -1.94813,-4.00806 -0.52234,-0.94476 -1.52318,-3.3496 -2.22409,-5.34409 -1.53153,-4.35811 -2.49858,-6.51166 -3.3602,-7.4829 -0.64199,-0.72366 -0.64214,-0.72352 -0.25534,0.23021 0.21286,0.52487 0.65319,1.43657 0.9785,2.02602 0.32531,0.58943 0.50258,1.18457 0.39393,1.32252 -0.41909,0.53208 -1.25727,-0.61333 -2.11264,-2.887 -0.49042,-1.30358 -0.98085,-2.37014 -1.08987,-2.37014 -0.25391,0 -0.57402,2.02228 -0.57402,3.62635 0,2.21257 0.36486,3.71913 0.94756,3.9126 0.56988,0.18921 0.56572,0.15248 0.72466,6.39385 0.0214,0.83978 0.11127,1.78454 0.19974,2.09946 0.0885,0.31492 0.5126,2.97742 0.94253,5.91667 1.32448,9.05504 2.62453,16.74073 3.03472,17.94086 0.21528,0.62984 0.46482,1.40282 0.55454,1.71774 0.0897,0.31492 0.1738,-0.2777 0.18686,-1.31694 0.0336,-2.6733 0.69344,-1.70263 0.82133,1.20819 0.0534,1.21452 0.29112,2.89531 0.52835,3.73509 0.69298,2.45309 1.37992,6.8707 1.37992,8.87401 0,1.01879 0.14968,2.04238 0.33263,2.27466 0.18295,0.23227 0.35206,1.44565 0.37581,2.69638 0.0312,1.64396 0.14732,2.22427 0.419,2.09437 0.2067,-0.0988 0.37582,0.0173 0.37582,0.25807 0,0.69216 -1.10868,3.26866 -1.65359,3.84284 -0.27221,0.28682 -0.75381,1.1658 -1.07023,1.95327 -1.2018,2.99093 -3.14166,3.48436 -5.05775,1.28652 -0.71781,-0.82336 -1.34849,-1.25339 -1.63413,-1.11423 -0.59198,0.28842 -1.19187,-1.14605 -1.96977,-4.71014 -0.32141,-1.47258 -0.78258,-3.08238 -1.02483,-3.57734 -0.45043,-0.92031 -1.09118,-4.85771 -1.73046,-10.63378 -0.48765,-4.40602 -2.5572,-12.19108 -3.48291,-13.10171 -0.38902,-0.38268 -0.96988,-1.44943 -1.2908,-2.37055 l -0.5835,-1.67477 -0.91818,0.58156 c -1.11435,0.70581 -1.57613,1.48007 -0.51748,0.86765 0.41339,-0.23914 0.96318,-0.33173 1.22176,-0.20574 0.65053,0.31694 0.59224,1.39818 -0.0754,1.39818 -0.74418,0 -3.08181,5.23604 -2.53265,5.67289 0.20097,0.15988 0.11902,1.17866 -0.23811,2.96005 -0.68142,3.399 -1.56682,10.88427 -1.53833,13.00518 0.0118,0.87879 -0.16789,3.08291 -0.39932,4.89804 -0.23143,1.81514 -0.35333,3.52342 -0.27089,3.79618 0.22178,0.73376 -1.03981,3.90123 -2.14808,5.3932 -0.94367,1.27037 -2.02619,1.68535 -2.39893,0.91962 z m -4.24741,-17.46371 c 0.12105,-1.00341 0.0797,-1.62231 -0.10849,-1.62231 -0.16731,0 -0.30421,0.80161 -0.30421,1.78136 0,2.11987 0.14448,2.06418 0.4127,-0.15905 z m 30.45917,-3.60248 c -0.096,-0.30451 -0.16722,-0.21407 -0.18164,0.23062 -0.013,0.40239 0.058,0.62785 0.1579,0.50101 0.0999,-0.12684 0.11059,-0.45608 0.0237,-0.73163 z m -18.84579,-14.47886 c 0,-0.20995 -0.1353,-0.27556 -0.30066,-0.14581 -0.16535,0.12976 -0.30065,0.40769 -0.30065,0.61764 0,0.20994 0.1353,0.27556 0.30065,0.1458 0.16536,-0.12975 0.30066,-0.40769 0.30066,-0.61763 z m 2.29838,-58.77228 c 4.2873,-1.65541 8.71708,-5.78469 10.62964,-9.90856 0.4134,-0.89137 1.02222,-1.99529 1.35294,-2.45317 0.86392,-1.19611 1.65358,-4.37676 1.65358,-6.6604 0,-3.85912 -2.54192,-8.16686 -6.31369,-10.69969 -1.6033,-1.07665 -2.41314,-1.35851 -4.50977,-1.56959 -1.40555,-0.1415 -2.79043,-0.38351 -3.0775,-0.5378 -0.3955,-0.21256 -0.60605,-0.0168 -0.86899,0.80801 l -0.34702,1.08853 -0.19654,-0.9543 c -0.3276,-1.59061 -2.09677,-1.82254 -4.63661,-0.60783 -2.73768,1.30933 -6.16792,4.06315 -7.7142,6.19299 -2.29499,3.16112 -3.58136,8.12001 -2.98412,11.50362 0.55092,3.12115 2.29595,6.75788 4.52203,9.42409 2.68991,3.22175 3.06059,3.50672 5.70492,4.38583 2.89539,0.96259 4.26814,0.96021 6.78533,-0.0117 z m -18.05129,-18.95025 c -0.30561,-0.38803 -0.55778,0.19616 -0.30703,0.71129 0.18942,0.38913 0.26024,0.38943 0.36208,0.002 0.0696,-0.26521 0.0449,-0.58598 -0.055,-0.71283 z m 29.988,-8.32449 c -0.0975,-0.32269 -0.60063,-0.85884 -1.11801,-1.19145 l -0.94069,-0.60474 0.88305,1.19144 c 0.95241,1.28505 1.46021,1.54625 1.17565,0.60475 z m -9.80048,-5.40224 c -0.28938,-0.096 -0.7629,-0.096 -1.05228,0 -0.28938,0.096 -0.0526,0.17457 0.52614,0.17457 0.57875,0 0.81552,-0.0786 0.52614,-0.17457 z m -6.99015,-0.50031 c 0.37901,-0.20679 0.43458,-0.32806 0.15032,-0.32806 -0.24804,0 -0.72156,0.14762 -1.05228,0.32806 -0.37901,0.20678 -0.43459,0.32806 -0.15033,0.32806 0.24804,0 0.72157,-0.14763 1.05229,-0.32806 z m 4.13968,-0.25039 c -0.20355,-0.10456 -0.60943,-0.11092 -0.90196,-0.0141 -0.29252,0.0968 -0.12598,0.18233 0.3701,0.19011 0.49607,0.008 0.73541,-0.0714 0.53186,-0.17596 z m -2.82693,67.11964 c -2.53403,-3.65221 -3.88745,-5.66166 -4.28764,-6.36596 -0.23839,-0.41956 -0.5285,-0.64216 -0.64468,-0.49465 -0.27062,0.34358 1.41174,3.7468 1.7291,3.49777 0.1309,-0.10272 0.3697,0.25301 0.53065,0.79051 0.16096,0.5375 0.46512,0.98678 0.67591,0.99839 0.46031,0.0254 1.87909,2.21501 1.63556,2.52421 -0.19135,0.24294 -3.50719,-3.24042 -3.50719,-3.68437 0,-0.15557 -0.39314,-0.91095 -0.87364,-1.67862 -0.87134,-1.39208 -2.26195,-6.18281 -2.62008,-9.02634 -0.26414,-2.09729 0.46975,-3.90066 1.99932,-4.91289 1.70367,-1.12745 3.60612,-1.06651 4.74674,0.15205 1.07209,1.14536 1.53384,1.18026 3.00521,0.22722 0.61739,-0.3999 1.74471,-0.84555 2.50517,-0.99033 1.31332,-0.25005 1.43919,-0.19145 2.51068,1.16896 1.11711,1.41833 1.12668,1.45659 0.98753,3.94866 -0.11284,2.02078 -0.0791,2.30969 0.171,1.46673 0.17134,-0.57735 0.43517,-1.04973 0.5863,-1.04973 0.15113,0 0.1811,0.3006 0.0666,0.66801 -0.1145,0.36741 -0.46341,1.92196 -0.77534,3.45456 -0.31194,1.5326 -0.64564,2.94777 -0.74156,3.14482 -0.0959,0.19705 0.029,0.25916 0.27765,0.13803 0.24863,-0.12113 0.60439,-0.80626 0.79056,-1.52251 0.32885,-1.26506 0.89433,-1.78812 0.89206,-0.82512 -0.001,0.49968 -1.12189,3.01051 -1.49083,3.34006 -0.11753,0.10497 -0.60025,1.03574 -1.07272,2.06838 -0.47247,1.03263 -0.91567,1.6618 -0.98488,1.39815 -0.0809,-0.30812 -0.48806,-0.0336 -1.13984,0.76844 -0.55769,0.68628 -1.11356,1.12136 -1.23527,0.96684 -0.1217,-0.15453 -0.0899,-0.40045 0.0707,-0.54649 0.44962,-0.40894 2.54684,-3.79349 2.54684,-4.11015 0,-0.15436 0.34643,-1.2104 0.76984,-2.34676 0.42342,-1.13636 0.72538,-2.35536 0.67103,-2.70887 -0.0543,-0.35352 -0.54626,0.86026 -1.09315,2.69729 -0.54689,1.83703 -1.15791,3.34005 -1.35784,3.34005 -0.19992,0 -0.61048,0.53086 -0.91236,1.17968 -0.89705,1.92807 -2.31111,3.78269 -2.88411,3.78269 -0.29435,0 -0.99062,-0.65642 -1.54728,-1.45871 z m 2.18627,0.0272 c 0.23946,-0.3674 0.61905,-1.13452 0.84354,-1.70471 0.22449,-0.57019 0.52143,-0.94783 0.65986,-0.8392 0.13843,0.10862 0.66085,-0.93674 1.16094,-2.32302 0.50008,-1.38628 1.02693,-2.42818 1.17075,-2.31532 0.30595,0.24008 1.23446,-4.17862 1.23446,-5.87469 0,-0.63918 0.1353,-1.16214 0.30065,-1.16214 0.49326,0 0.34041,-1.24856 -0.32165,-2.62734 -0.61583,-1.28251 -0.6323,-1.28991 -2.41484,-1.0847 -0.98713,0.11365 -2.12342,0.48003 -2.52508,0.81417 -1.04272,0.86744 -2.07313,0.75226 -3.10185,-0.34676 -1.11588,-1.19214 -2.79595,-1.27476 -3.88126,-0.19086 -0.42044,0.4199 -0.93465,0.76344 -1.1427,0.76344 -0.43847,0 -0.74624,0.85068 -0.73633,2.03526 0.0138,1.65376 2.26972,7.12597 4.05752,9.84252 0.98905,1.50285 1.94173,3.04144 2.11708,3.4191 0.33171,0.71444 1.65309,2.22745 1.96464,2.24956 0.0984,0.007 0.37482,-0.2879 0.61427,-0.65531 z m -7.64985,-8.875 c -0.18725,-0.62984 -0.44956,-1.14516 -0.58291,-1.14516 -0.13335,0 -0.0326,0.51532 0.22396,1.14516 0.25653,0.62984 0.51884,1.14516 0.58291,1.14516 0.0641,0 -0.0367,-0.51532 -0.22396,-1.14516 z m 0.83989,7.69487 c -0.96632,-1.2999 -2.92285,-6.83111 -2.52637,-7.14222 0.15372,-0.12062 0.35618,0.0922 0.4499,0.47289 0.47696,1.93752 1.87844,5.39173 2.63752,6.50067 1.04967,1.53346 0.56242,1.67993 -0.56105,0.16866 z"
       style="fill:#dab" />
  </g>
</svg>
