<?xml version="1.0" encoding="UTF-8" standalone="no"?>
<svg
   version="1.1"
   id="svg4204"
   viewBox="0 0 68.310577 129.53546"
   height="36.557785mm"
   width="19.278763mm"
   sodipodi:docname="folelser.svg"
   inkscape:version="1.1.2 (b8e25be8, 2022-02-05)"
   xmlns:inkscape="http://www.inkscape.org/namespaces/inkscape"
   xmlns:sodipodi="http://sodipodi.sourceforge.net/DTD/sodipodi-0.dtd"
   xmlns="http://www.w3.org/2000/svg"
   xmlns:svg="http://www.w3.org/2000/svg"
   xmlns:rdf="http://www.w3.org/1999/02/22-rdf-syntax-ns#"
   xmlns:cc="http://creativecommons.org/ns#"
   xmlns:dc="http://purl.org/dc/elements/1.1/">
  <sodipodi:namedview
     id="namedview75"
     pagecolor="#ffffff"
     bordercolor="#666666"
     borderopacity="1.0"
     inkscape:pageshadow="2"
     inkscape:pageopacity="0.0"
     inkscape:pagecheckerboard="0"
     inkscape:document-units="mm"
     showgrid="false"
     fit-margin-top="0"
     fit-margin-left="0"
     fit-margin-right="0"
     fit-margin-bottom="0"
     inkscape:zoom="5.3267268"
     inkscape:cx="36.513981"
     inkscape:cy="69.085578"
     inkscape:window-width="1728"
     inkscape:window-height="962"
     inkscape:window-x="0"
     inkscape:window-y="841"
     inkscape:window-maximized="1"
     inkscape:current-layer="layer1" />
  <defs
     id="defs4206" />
  <metadata
     id="metadata4209">
    <rdf:RDF>
      <cc:Work
         rdf:about="">
        <dc:format>image/svg+xml</dc:format>
        <dc:type
           rdf:resource="http://purl.org/dc/dcmitype/StillImage" />
      </cc:Work>
    </rdf:RDF>
  </metadata>
  <g
     transform="translate(-208.04531,-786.2442)"
     id="layer1">
    <path
       id="path4229"
       d="m 230.94651,915.39526 c -0.1192,-0.20994 -0.66868,-0.38172 -1.22107,-0.38172 -0.57326,0 -1.47532,-0.4314 -2.10159,-1.00508 l -1.09724,-1.00507 0.23172,1.00507 c 0.26051,1.12992 -0.31588,1.39373 -0.73643,0.33707 -0.14623,-0.36741 -0.37249,-3.75995 -0.50281,-7.53898 -0.20391,-5.91337 -0.2454,-6.27247 -0.29762,-2.57661 -0.0605,4.28713 -0.50473,5.60273 -0.97338,2.88322 -0.13375,-0.77612 -0.10497,-5.19931 0.0639,-9.8293 0.35746,-9.79897 0.3785,-12.53812 0.16581,-21.58752 -0.23055,-9.80939 0.14517,-17.58826 1.03219,-21.37022 0.98352,-4.19342 1.39007,-6.63487 1.03946,-6.24236 -0.60787,0.68053 -4.61196,9.34382 -4.4168,9.55627 0.11359,0.12359 0.30592,-0.0575 0.42752,-0.4025 0.1216,-0.34497 0.43367,-0.62721 0.6935,-0.62721 0.32398,0 0.0266,1.04939 -0.94663,3.34005 -0.78046,1.83703 -2.04316,5.08918 -2.80599,7.22699 -0.76283,2.13782 -1.53937,3.94224 -1.72564,4.00984 -0.18626,0.0676 -1.00792,1.23645 -1.8259,2.59746 -0.81797,1.36102 -1.78555,2.53712 -2.15019,2.61356 -0.45063,0.0945 -0.60316,-0.0306 -0.47626,-0.3906 0.14197,-0.40278 -0.0945,-0.49386 -0.98751,-0.38036 -0.78008,0.0991 -1.58325,-0.126 -2.39297,-0.67078 -1.01403,-0.68224 -1.29089,-1.17068 -1.64786,-2.90711 -0.36829,-1.79145 -0.34363,-2.39743 0.174,-4.27786 0.33167,-1.20492 0.74593,-2.9153 0.92057,-3.80083 0.17464,-0.88554 1.10964,-4.23954 2.07776,-7.45333 1.57149,-5.21672 2.78449,-10.75933 3.00799,-13.7444 0.0433,-0.57735 0.0983,-1.22534 0.12243,-1.43998 0.091,-0.80944 3.07834,-3.93599 4.77042,-4.99258 0.96824,-0.60459 1.62275,-1.10086 1.45449,-1.10284 -0.16825,-0.002 -0.10951,-0.26124 0.1306,-0.57616 0.24009,-0.31492 0.85113,-0.57543 1.35788,-0.57892 1.42229,-0.01 5.26283,-1.66616 5.78743,-2.49605 0.25806,-0.40823 0.67001,-1.42933 0.91543,-2.26912 0.24544,-0.83978 0.58027,-1.71205 0.74409,-1.93838 0.2371,-0.3276 0.97574,-4.71817 1.00642,-5.98231 0.004,-0.15746 -0.2972,-0.28629 -0.66891,-0.28629 -0.37172,0 -1.00893,-0.47238 -1.41604,-1.04974 -0.40709,-0.57735 -1.4722,-1.47916 -2.3669,-2.00403 -1.69442,-0.99401 -2.03656,-1.44284 -2.3491,-3.08167 -0.10298,-0.54021 -0.60993,-1.65674 -1.12643,-2.48118 -0.51652,-0.82444 -1.07561,-2.18607 -1.24244,-3.02586 -0.16682,-0.83978 -0.44826,-1.87043 -0.62544,-2.29032 -0.17716,-0.41989 -0.47273,-1.79386 -0.65681,-3.05325 -0.28856,-1.97418 -0.24709,-2.42376 0.30092,-3.26156 0.34958,-0.53446 1.02279,-1.90888 1.49601,-3.05427 1.22392,-2.96246 2.97035,-5.44281 3.63641,-5.16458 0.32705,0.13663 1.17915,-0.35586 2.16856,-1.25335 0.89641,-0.81312 1.97294,-1.59489 2.39229,-1.73726 0.41934,-0.14237 1.35339,-0.69542 2.07566,-1.229 0.72228,-0.53358 2.27268,-1.29138 3.44535,-1.68401 2.21824,-0.74271 3.3364,-0.68479 7.74251,0.40105 0.96428,0.23764 2.38441,0.48458 3.15585,0.54875 1.87618,0.15608 5.71127,1.7301 7.20706,2.95797 0.66469,0.54563 1.52411,1.05371 1.90982,1.12907 0.81169,0.15858 2.90082,4.25064 3.14572,6.16161 0.0862,0.67249 0.30145,1.74877 0.47839,2.39174 0.17693,0.64297 0.22286,2.61837 0.10205,4.38978 -0.18556,2.7207 -0.31282,3.2129 -0.81971,3.1702 -0.39057,-0.0329 -0.73679,0.40051 -0.99176,1.24152 -0.49116,1.62011 -5.76154,7.88971 -8.0307,9.55327 -2.45661,1.80097 -5.98325,5.45625 -5.97023,6.188 0.0246,1.38124 0.9354,2.07883 2.42944,1.86068 1.47244,-0.21499 2.2225,0.29434 1.37381,0.93291 -0.31137,0.23429 0.71797,0.27552 2.89433,0.11593 3.03377,-0.22246 3.44424,-0.17373 4.03247,0.4787 0.3602,0.3995 1.29983,0.92786 2.08808,1.17412 0.78824,0.24627 1.72,0.79279 2.07057,1.21449 0.7596,0.91372 0.36226,0.97105 -1.34576,0.19416 -0.69236,-0.31492 -1.69784,-0.57364 -2.23438,-0.57494 -0.53656,-0.001 -1.42753,-0.25895 -1.97992,-0.57258 -1.18717,-0.67402 -1.97615,-0.73431 -1.97615,-0.15102 0,0.65194 -4.19401,0.008 -5.47646,-0.84072 -0.60134,-0.398 -1.35475,-0.72365 -1.67426,-0.72365 -0.72765,0 -1.26487,-1.48772 -1.26487,-3.50281 v -1.54452 l -1.31493,0.30098 c -0.72323,0.16554 -1.78832,0.32356 -2.36689,0.35115 -0.57858,0.0276 -1.31685,0.18262 -1.64063,0.3445 -0.35563,0.17781 -1.43816,-0.0429 -2.73449,-0.55741 -1.38197,-0.54854 -2.26655,-0.72031 -2.48495,-0.48255 -0.18652,0.20305 -0.60245,1.96446 -0.92426,3.91424 -0.66112,4.00536 -2.23701,7.44584 -3.44194,7.51441 -0.38269,0.0217 -1.16918,0.24363 -1.74776,0.49301 -0.57856,0.24938 -1.72772,0.72942 -2.55365,1.06675 -0.82595,0.33734 -1.58477,0.75964 -1.68628,0.93844 -0.10147,0.17881 -0.49085,0.3251 -0.86517,0.3251 -0.81578,0 -3.63065,2.93749 -3.02558,3.15737 0.27202,0.0988 0.0854,0.67155 -0.53838,1.65175 -1.18111,1.85612 -2.14124,4.83937 -2.89513,8.99559 -0.7499,4.13426 -1.05265,5.21766 -2.51748,9.00888 -0.67045,1.73524 -1.61229,4.88962 -2.09297,7.00974 -0.80749,3.56153 -0.8336,3.94738 -0.3433,5.07216 0.9192,2.10871 1.71981,2.63999 3.53242,2.34409 1.32743,-0.2167 1.68959,-0.4637 2.16572,-1.47705 0.31445,-0.66925 1.01651,-1.83317 1.56013,-2.58648 1.24029,-1.71868 5.01714,-11.17611 4.53332,-11.35167 -0.68115,-0.24717 -0.3525,-1.81051 0.99399,-4.72828 0.74362,-1.61139 1.22497,-3.06823 1.06967,-3.23742 -0.68763,-0.74906 3.29733,-6.60599 4.49461,-6.60599 0.60803,0 0.66048,-0.60619 -0.77607,8.97043 -0.99612,6.64058 -1.64451,20.36348 -0.93974,19.88931 0.64491,-0.4339 0.76105,0.40248 0.35874,2.58329 -0.29473,1.59754 -0.29278,2.26985 0.008,2.66398 0.40339,0.52912 0.33294,8.42165 -0.10695,11.98573 -0.62452,5.05966 -0.63762,4.75749 0.19391,4.47019 0.70627,-0.24403 0.74402,-0.16998 0.52047,1.02112 -0.53142,2.8316 -0.96928,9.82409 -0.75874,12.11711 0.38604,4.20446 1.71841,5.77196 4.90614,5.77196 1.45384,0 1.66286,-0.12288 2.43494,-1.43145 0.46451,-0.7873 0.95037,-2.11855 1.07969,-2.95833 0.12932,-0.83979 0.54228,-2.88972 0.9177,-4.5554 0.39832,-1.76728 0.54721,-3.11958 0.35751,-3.24721 -0.19049,-0.12816 0.0966,-2.98295 0.69351,-6.89622 0.60921,-3.9938 1.04526,-8.36508 1.08496,-10.87644 0.0374,-2.37169 0.26236,-4.71874 0.51673,-5.39344 0.71385,-1.89342 2.19051,-3.57699 3.13736,-3.57699 0.87147,0 2.24805,1.19734 2.24805,1.95534 0,0.30491 0.14489,0.29755 0.50251,-0.0255 0.66235,-0.59841 1.44768,0.67823 2.26825,3.68734 0.35995,1.31998 0.79873,2.20813 1.09088,2.20813 0.35614,0 0.65762,1.24273 1.11125,4.58065 0.80085,5.89287 0.89877,6.29838 1.5208,6.29838 0.35423,0 0.51929,0.40237 0.51929,1.26591 0,5.13999 3.31698,15.52979 4.95795,15.52979 0.35885,0 0.65244,0.25766 0.65244,0.57258 0,0.9009 0.97767,0.66912 1.61017,-0.38172 0.31591,-0.52487 0.71403,-0.9543 0.8847,-0.9543 0.65669,0 0.26794,1.6061 -0.60092,2.48267 l -0.91124,0.91935 0.96552,0.2638 c 1.07023,0.29241 2.09008,-0.21685 2.07348,-1.03539 -0.006,-0.29203 0.54359,-1.29571 1.22112,-2.2304 0.99244,-1.36908 1.27418,-2.14819 1.4494,-4.00806 0.14793,-1.57032 0.0716,-2.61383 -0.23878,-3.26294 -0.25094,-0.52487 -0.55508,-2.26612 -0.67586,-3.86944 -0.19644,-2.6078 -0.28909,-2.89535 -0.87879,-2.72748 -0.75637,0.21532 -0.79612,0.0687 -1.34942,-4.97916 -0.22539,-2.05619 -0.63515,-3.8412 -1.05154,-4.58064 -0.37524,-0.66636 -0.9441,-2.75753 -1.26414,-4.64705 -0.32005,-1.88951 -0.72073,-3.72011 -0.8904,-4.06798 -0.16967,-0.34788 -0.48663,-2.15151 -0.70434,-4.00806 -0.42214,-3.59986 -0.8756,-5.95489 -1.38495,-7.19277 -0.38676,-0.93991 -1.40985,-7.67732 -1.40985,-9.2843 0,-0.64548 -0.4176,-2.59961 -0.928,-4.3425 -0.67335,-2.29933 -0.92402,-3.95451 -0.91352,-6.03181 0.021,-4.14139 0.0192,-4.13183 0.8281,-4.60309 0.63287,-0.36871 0.89902,-0.261 1.84091,0.74504 0.6056,0.64684 1.91344,2.0246 2.90633,3.06171 1.07731,1.12529 1.9768,2.47411 2.23069,3.34503 0.23399,0.80266 0.80232,2.21106 1.26293,3.12977 0.46062,0.91872 0.8375,1.90642 0.8375,2.19489 0,0.28848 0.24658,0.5245 0.54796,0.5245 0.33243,0 0.93897,0.93877 1.54205,2.38669 0.54675,1.31267 1.3221,2.70982 1.72299,3.10477 0.4009,0.39496 0.64194,0.87127 0.53567,1.05848 -0.10625,0.1872 0.36996,0.95347 1.05831,1.70283 1.19842,1.30461 1.32606,1.3513 3.0067,1.09967 1.47326,-0.22058 1.75515,-0.16507 1.75515,0.34561 0,0.33462 -0.19725,0.61363 -0.43831,0.62001 -0.24107,0.006 -0.15615,0.19037 0.18872,0.40885 0.34486,0.21848 1.11251,0.28116 1.70588,0.13929 l 1.07886,-0.25796 -0.28471,-1.96406 c -0.15659,-1.08024 -0.30401,-3.25237 -0.32758,-4.82697 -0.0479,-3.20121 -0.45519,-4.52269 -3.98998,-12.94637 -1.55642,-3.70907 -2.60705,-5.66008 -3.81039,-7.07583 -0.91381,-1.07509 -2.07451,-2.47969 -2.57935,-3.12132 -0.50483,-0.64164 -1.64883,-1.73805 -2.5422,-2.43647 -2.70927,-2.11805 -1.97313,-2.66407 0.96677,-0.71709 2.16687,1.43504 3.41047,2.63193 3.17167,3.05255 -0.0971,0.17115 0.93335,1.58327 2.29004,3.13805 1.35667,1.55479 2.46668,3.02719 2.46668,3.272 0,0.95663 2.20044,6.59232 2.64675,6.77876 0.26019,0.10869 0.7385,1.08444 1.06292,2.16833 0.32441,1.0839 0.78578,2.40016 1.02525,2.92502 0.79268,1.7373 1.22612,3.65795 1.22612,5.43304 0,0.96387 0.23667,3.09885 0.52592,4.7444 0.28925,1.64556 0.52594,3.02095 0.52598,3.05644 2e-5,0.0355 -0.70158,0.22741 -1.55913,0.42652 -1.58246,0.36741 -4.14633,-0.0976 -5.77732,-1.04781 -0.59045,-0.344 -0.72844,-0.31339 -0.72844,0.16162 0,1.77282 -2.10111,-0.28041 -3.89248,-3.80378 -0.64046,-1.25967 -1.66291,-3.0633 -2.2721,-4.00806 -0.60921,-0.94476 -1.77648,-3.3496 -2.59395,-5.34409 -1.78622,-4.35811 -2.91409,-6.51166 -3.91899,-7.4829 -0.74876,-0.72366 -0.74893,-0.72352 -0.29781,0.23021 0.24826,0.52487 0.76182,1.43657 1.14122,2.02602 0.37941,0.58943 0.58616,1.18457 0.45944,1.32252 -0.48878,0.53208 -1.46635,-0.61333 -2.46396,-2.887 -0.57198,-1.30358 -1.14396,-2.37014 -1.27111,-2.37014 -0.29614,0 -0.66948,2.02228 -0.66948,3.62635 0,2.21257 0.42553,3.71913 1.10513,3.9126 0.66465,0.18921 0.6598,0.15248 0.84517,6.39385 0.025,0.83978 0.12978,1.78454 0.23296,2.09946 0.10322,0.31492 0.59784,2.97742 1.09927,5.91667 1.54474,9.05504 3.06098,16.74073 3.53939,17.94086 0.25108,0.62984 0.54211,1.40282 0.64675,1.71774 0.10462,0.31492 0.20271,-0.2777 0.21794,-1.31694 0.0392,-2.6733 0.80876,-1.70263 0.95791,1.20819 0.0623,1.21452 0.33954,2.89531 0.61622,3.73509 0.80822,2.45309 1.60939,6.8707 1.60939,8.87401 0,1.01879 0.17457,2.04238 0.38795,2.27466 0.21337,0.23227 0.41061,1.44565 0.4383,2.69638 0.0364,1.64396 0.17182,2.22427 0.48868,2.09437 0.24108,-0.0988 0.43832,0.0173 0.43832,0.25807 0,0.69216 -1.29305,3.26866 -1.92858,3.84284 -0.31747,0.28682 -0.87916,1.1658 -1.2482,1.95327 -1.40166,2.99093 -3.66411,3.48436 -5.89884,1.28652 -0.83718,-0.82336 -1.57274,-1.25339 -1.90588,-1.11423 -0.69043,0.28842 -1.39008,-1.14605 -2.29734,-4.71014 -0.37486,-1.47258 -0.91272,-3.08238 -1.19526,-3.57734 -0.52533,-0.92031 -1.27264,-4.85771 -2.01823,-10.63378 -0.56874,-4.40602 -2.98245,-12.19108 -4.06211,-13.10171 -0.45371,-0.38268 -1.13117,-1.44943 -1.50545,-2.37055 l -0.68054,-1.67477 -1.07087,0.58156 c -1.29966,0.70581 -1.83824,1.48007 -0.60353,0.86765 0.48213,-0.23914 1.12335,-0.33173 1.42493,-0.20574 0.75871,0.31694 0.69073,1.39818 -0.0879,1.39818 -0.86793,0 -3.5943,5.23604 -2.95382,5.67289 0.23439,0.15988 0.13881,1.17866 -0.27771,2.96005 -0.79474,3.399 -1.82738,10.88427 -1.79415,13.00518 0.0138,0.87879 -0.19581,3.08291 -0.46572,4.89804 -0.26992,1.81514 -0.41209,3.52342 -0.31594,3.79618 0.25866,0.73376 -1.21273,3.90123 -2.5053,5.3932 -1.1006,1.27037 -2.36314,1.68535 -2.79787,0.91962 z m -4.95375,-17.46371 c 0.14118,-1.00341 0.093,-1.62231 -0.12653,-1.62231 -0.19513,0 -0.3548,0.80161 -0.3548,1.78136 0,2.11987 0.16851,2.06418 0.48133,-0.15905 z m 35.52445,-3.60248 c -0.11196,-0.30451 -0.19503,-0.21407 -0.21185,0.23062 -0.0152,0.40239 0.0677,0.62785 0.18416,0.50101 0.11652,-0.12684 0.12898,-0.45608 0.0276,-0.73163 z m -21.97979,-14.47886 c 0,-0.20995 -0.1578,-0.27556 -0.35066,-0.14581 -0.19285,0.12976 -0.35065,0.40769 -0.35065,0.61764 0,0.20994 0.1578,0.27556 0.35065,0.1458 0.19286,-0.12975 0.35066,-0.40769 0.35066,-0.61763 z m 2.68059,-58.77228 c 5.00027,-1.65541 10.16671,-5.78469 12.39732,-9.90856 0.48215,-0.89137 1.19221,-1.99529 1.57793,-2.45317 1.00759,-1.19611 1.92857,-4.37676 1.92857,-6.6604 0,-3.85912 -2.96464,-8.16686 -7.36364,-10.69969 -1.86993,-1.07665 -2.81444,-1.35851 -5.25973,-1.56959 -1.63929,-0.1415 -3.25448,-0.38351 -3.58928,-0.5378 -0.46128,-0.21256 -0.70684,-0.0168 -1.01351,0.80801 l -0.40472,1.08853 -0.22923,-0.9543 c -0.38208,-1.59061 -2.44545,-1.82254 -5.40766,-0.60783 -3.19295,1.30933 -7.19363,4.06315 -8.99705,6.19299 -2.67664,3.16112 -4.17693,8.12001 -3.48038,11.50362 0.64254,3.12115 2.67777,6.75788 5.27404,9.42409 3.13723,3.22175 3.56955,3.50672 6.65363,4.38583 3.37688,0.96259 4.97792,0.96021 7.91371,-0.0117 z m -21.05317,-18.95025 c -0.35643,-0.38803 -0.65054,0.19616 -0.35809,0.71129 0.22092,0.38913 0.30352,0.38943 0.4223,0.002 0.0812,-0.26521 0.0524,-0.58598 -0.0642,-0.71283 z m 34.97492,-8.32449 c -0.11371,-0.32269 -0.70051,-0.85884 -1.30393,-1.19145 l -1.09712,-0.60474 1.0299,1.19144 c 1.11079,1.28505 1.70304,1.54625 1.37115,0.60475 z m -11.43027,-5.40224 c -0.3375,-0.096 -0.88977,-0.096 -1.22727,0 -0.3375,0.096 -0.0614,0.17457 0.61363,0.17457 0.675,0 0.95114,-0.0786 0.61364,-0.17457 z m -8.15259,-0.50031 c 0.44204,-0.20679 0.50685,-0.32806 0.17532,-0.32806 -0.28929,0 -0.84156,0.14762 -1.22728,0.32806 -0.44203,0.20678 -0.50686,0.32806 -0.17533,0.32806 0.28929,0 0.84157,-0.14763 1.22729,-0.32806 z m 4.82809,-0.25039 c -0.2374,-0.10456 -0.71077,-0.11092 -1.05195,-0.0141 -0.34116,0.0968 -0.14693,0.18233 0.43165,0.19011 0.57856,0.008 0.8577,-0.0714 0.6203,-0.17596 z m -3.29704,67.11964 c -2.95543,-3.65221 -4.53392,-5.66166 -5.00066,-6.36596 -0.27803,-0.41956 -0.61639,-0.64216 -0.75189,-0.49465 -0.31562,0.34358 1.64651,3.7468 2.01665,3.49777 0.15267,-0.10272 0.43118,0.25301 0.61889,0.79051 0.18773,0.5375 0.54247,0.98678 0.78831,0.99839 0.53686,0.0254 2.19158,2.21501 1.90755,2.52421 -0.22317,0.24294 -4.09042,-3.24042 -4.09042,-3.68437 0,-0.15557 -0.45852,-0.91095 -1.01893,-1.67862 -1.01624,-1.39208 -2.6381,-6.18281 -3.05579,-9.02634 -0.30806,-2.09729 0.54787,-3.90066 2.3318,-4.91289 1.98699,-1.12745 4.20581,-1.06651 5.53611,0.15205 1.25038,1.14536 1.78892,1.18026 3.50497,0.22722 0.72006,-0.3999 2.03485,-0.84555 2.92177,-0.99033 1.53173,-0.25005 1.67853,-0.19145 2.9282,1.16896 1.30289,1.41833 1.31405,1.45659 1.15176,3.94866 -0.13161,2.02078 -0.0923,2.30969 0.19943,1.46673 0.19984,-0.57735 0.50754,-1.04973 0.6838,-1.04973 0.17627,0 0.21122,0.3006 0.0777,0.66801 -0.13354,0.36741 -0.54047,1.92196 -0.90428,3.45456 -0.36381,1.5326 -0.75301,2.94777 -0.86488,3.14482 -0.11184,0.19705 0.0338,0.25916 0.32383,0.13803 0.28997,-0.12113 0.70489,-0.80626 0.92202,-1.52251 0.38354,-1.26506 1.04306,-1.78812 1.04041,-0.82512 -0.001,0.49968 -1.30846,3.01051 -1.73875,3.34006 -0.13708,0.10497 -0.70007,1.03574 -1.25111,2.06838 -0.55104,1.03263 -1.06794,1.6618 -1.14866,1.39815 -0.0944,-0.30812 -0.56923,-0.0336 -1.3294,0.76844 -0.65043,0.68628 -1.29874,1.12136 -1.44069,0.96684 -0.14194,-0.15453 -0.10485,-0.40045 0.0825,-0.54649 0.52439,-0.40894 2.97037,-3.79349 2.97037,-4.11015 0,-0.15436 0.40404,-1.2104 0.89786,-2.34676 0.49384,-1.13636 0.84601,-2.35536 0.78262,-2.70887 -0.0633,-0.35352 -0.6371,0.86026 -1.27493,2.69729 -0.63784,1.83703 -1.35047,3.34005 -1.58365,3.34005 -0.23316,0 -0.712,0.53086 -1.06408,1.17968 -1.04623,1.92807 -2.69544,3.78269 -3.36373,3.78269 -0.3433,0 -1.15536,-0.65642 -1.80459,-1.45871 z m 2.54984,0.0272 c 0.27929,-0.3674 0.722,-1.13452 0.98382,-1.70471 0.26183,-0.57019 0.60815,-0.94783 0.7696,-0.8392 0.16145,0.10862 0.77074,-0.93674 1.354,-2.32302 0.58324,-1.38628 1.1977,-2.42818 1.36544,-2.31532 0.35683,0.24008 1.43975,-4.17862 1.43975,-5.87469 0,-0.63918 0.1578,-1.16214 0.35064,-1.16214 0.57529,0 0.39702,-1.24856 -0.37514,-2.62734 -0.71824,-1.28251 -0.73744,-1.28991 -2.81642,-1.0847 -1.15128,0.11365 -2.47654,0.48003 -2.94499,0.81417 -1.21612,0.86744 -2.41789,0.75226 -3.61768,-0.34676 -1.30145,-1.19214 -3.26091,-1.27476 -4.5267,-0.19086 -0.49036,0.4199 -1.09008,0.76344 -1.33273,0.76344 -0.51139,0 -0.87034,0.85068 -0.85878,2.03526 0.0161,1.65376 2.64717,7.12597 4.73227,9.84252 1.15353,1.50285 2.26464,3.04144 2.46915,3.4191 0.38687,0.71444 1.92799,2.22745 2.29135,2.24956 0.11477,0.007 0.43715,-0.2879 0.71642,-0.65531 z m -8.92199,-8.875 c -0.21839,-0.62984 -0.52433,-1.14516 -0.67985,-1.14516 -0.15553,0 -0.038,0.51532 0.2612,1.14516 0.29919,0.62984 0.60512,1.14516 0.67985,1.14516 0.0748,0 -0.0428,-0.51532 -0.2612,-1.14516 z m 0.97956,7.69487 c -1.12702,-1.2999 -3.40892,-6.83111 -2.9465,-7.14222 0.17928,-0.12062 0.41541,0.0922 0.52472,0.47289 0.55627,1.93752 2.19082,5.39173 3.07613,6.50067 1.22423,1.53346 0.65595,1.67993 -0.65435,0.16866 z"
       style="fill:#ddaabb;stroke-width:1.07995" />
  </g>
</svg>
