<?xml version="1.0" encoding="UTF-8" standalone="no"?>
<!-- Created with Inkscape (http://www.inkscape.org/) -->

<svg
   width="142.06999mm"
   height="120.54298mm"
   viewBox="0 0 142.06999 120.54298"
   version="1.1"
   id="svg1521"
   xmlns="http://www.w3.org/2000/svg"
   xmlns:svg="http://www.w3.org/2000/svg">
  <defs
     id="defs1518" />
  <g
     id="layer1"
     transform="translate(-167.80836,-18.280097)">
    <path
       style="fill:#dab;stroke-width:0.264583"
       d="m 245.86257,138.22634 c -0.60785,-0.30675 -1.25342,-0.82631 -1.4346,-1.15458 -0.29365,-0.53207 -1.14931,-1.13376 -3.46879,-2.43924 -0.39429,-0.22192 -1.4237,-1.03925 -2.28756,-1.81628 -0.86387,-0.77704 -1.91048,-1.59721 -2.32581,-1.8226 -0.68628,-0.37244 -4.07252,-1.42978 -6.04681,-1.88809 -1.42541,-0.3309 -5.73367,-3.09886 -7.67292,-4.92969 -0.7276,-0.68692 -2.21588,-1.85412 -3.30729,-2.59377 -1.0914,-0.73965 -2.84567,-2.09483 -3.89836,-3.0115 -1.05269,-0.91667 -3.25535,-2.56835 -4.89479,-3.67039 -6.37639,-4.28625 -9.74445,-6.93927 -14.84406,-11.69267 -0.50686,-0.47246 -1.79296,-1.51918 -2.85799,-2.32605 -1.06503,-0.80687 -2.89141,-2.384181 -4.05863,-3.505136 -1.16721,-1.120958 -2.61583,-2.396024 -3.21915,-2.833481 -0.60333,-0.437454 -2.49278,-2.104996 -4.19879,-3.705646 -1.70601,-1.60065 -3.36463,-3.088865 -3.68581,-3.307146 -0.32119,-0.218281 -1.11065,-0.832858 -1.75435,-1.365726 -1.33627,-1.1062 -2.98747,-2.29466 -5.71611,-4.114216 -2.39214,-1.595167 -2.74493,-2.162521 -2.09504,-3.369286 0.26152,-0.485614 0.45727,-1.163743 0.435,-1.506956 -0.10291,-1.586333 -0.0333,-5.213522 0.11616,-6.047983 0.0912,-0.509323 0.21694,-1.976295 0.27944,-3.259937 0.0625,-1.283642 0.19257,-2.461599 0.28904,-2.617687 0.0965,-0.156085 0.23128,-0.772708 0.2996,-1.370272 0.0683,-0.597564 0.32441,-1.384136 0.56911,-1.747938 0.2447,-0.363802 0.58317,-0.984043 0.75217,-1.378312 0.16899,-0.394272 0.78826,-1.035172 1.37616,-1.424223 0.5879,-0.389051 1.0689,-0.865997 1.0689,-1.059876 0,-0.478166 1.5855,-2.255475 1.86046,-2.085539 0.1208,0.07466 0.28434,0.03108 0.3634,-0.09686 0.0791,-0.127934 0.71238,-0.386304 1.40735,-0.574161 2.00846,-0.542899 2.17823,-0.676505 1.92433,-1.514483 -0.49624,-1.637845 -0.71053,-2.998809 -0.49332,-3.133053 0.1262,-0.078 0.23313,-0.878925 0.23762,-1.779842 0.0152,-3.053805 0.46736,-5.468959 1.30004,-6.944373 0.44079,-0.781053 0.86102,-2.006674 0.96114,-2.803245 0.17414,-1.385482 1.054,-3.399787 1.48505,-3.399787 0.11956,0 0.73096,-0.506016 1.35867,-1.124479 1.62507,-1.601134 2.29212,-2.097064 2.6467,-1.967744 0.17051,0.06218 0.71152,-0.05006 1.20223,-0.249438 0.49071,-0.19938 1.06421,-0.362506 1.27442,-0.362506 0.21022,0 0.791,-0.311788 1.29061,-0.692862 0.49961,-0.381074 0.90839,-0.620868 0.90839,-0.532878 0,0.248039 2.95624,-0.905249 3.75578,-1.465202 0.65302,-0.457343 1.19696,-0.57985 3.91713,-0.882237 1.27545,-0.141783 3.93601,-0.645078 4.89479,-0.925944 1.05758,-0.309801 3.41092,-0.745935 4.95046,-0.917446 0.68545,-0.07636 1.79787,-0.326106 2.47203,-0.55499 0.67415,-0.228883 1.38169,-0.356309 1.57229,-0.283167 0.1906,0.07314 0.88302,-0.02847 1.5387,-0.225798 0.65568,-0.197332 1.26255,-0.288378 1.34861,-0.202325 0.0861,0.08605 0.15646,0.01053 0.15646,-0.167835 0,-0.178364 0.10557,-0.259049 0.2346,-0.179303 0.12903,0.07975 0.37677,-0.0263 0.55053,-0.235672 0.17376,-0.209368 1.22905,-0.570532 2.34508,-0.802588 1.11604,-0.232052 2.38635,-0.59178 2.82291,-0.79939 0.79199,-0.37664 3.72649,-1.223632 6.48229,-1.871004 0.80037,-0.188016 1.99099,-0.540406 2.64584,-0.78309 0.65484,-0.242684 1.73513,-0.469413 2.40064,-0.503844 0.66552,-0.03443 1.91567,-0.398671 2.77813,-0.809426 0.86246,-0.410755 2.04435,-0.769504 2.62643,-0.797216 0.58209,-0.02772 1.44539,-0.136441 1.91845,-0.241615 0.66183,-0.14714 0.89709,-0.09487 1.0205,0.226719 0.0882,0.22987 0.32623,0.417946 0.52895,0.417946 0.20271,0 0.36856,0.116795 0.36856,0.259543 0,0.142748 0.32743,0.337333 0.72761,0.432411 0.87837,0.208688 1.65364,0.841158 1.65364,1.349042 0,0.204317 0.11991,0.297378 0.26645,0.206806 0.14655,-0.09057 0.33789,0.02146 0.42519,0.248971 0.0873,0.227504 0.2975,0.413644 0.46712,0.413644 0.16961,0 1.00354,0.646951 1.85317,1.437669 2.3253,2.164059 3.05331,2.795664 3.22239,2.795664 0.0844,0 0.30898,0.148828 0.49904,0.330729 0.19005,0.181902 0.61801,0.509323 0.95102,0.727605 0.33301,0.218281 1.18253,0.992187 1.88783,1.719791 0.70531,0.727605 1.77531,1.828933 2.37779,2.447396 0.60247,0.618464 1.2478,1.124479 1.43404,1.124479 0.18625,0 0.41421,0.238125 0.50659,0.529167 0.0924,0.291042 0.34107,0.529167 0.55267,0.529167 0.21159,0 0.5074,0.269256 0.65734,0.59835 0.27241,0.597881 1.59844,1.518316 2.18737,1.518316 0.17148,0 0.46672,0.24809 0.65609,0.551307 0.19531,0.312743 0.50908,0.488075 0.7251,0.405181 0.20944,-0.08037 0.3808,-0.03853 0.3808,0.09299 0,0.131517 0.47371,0.574265 1.05269,0.983885 0.57897,0.40962 1.05522,0.893591 1.05833,1.075492 0.003,0.181901 0.18424,0.330729 0.40252,0.330729 0.21829,0 0.39688,0.182972 0.39688,0.406604 0,0.223633 0.71438,1.141203 1.5875,2.039046 0.87312,0.897842 1.5875,1.725186 1.5875,1.838544 0,0.113358 0.69663,0.557766 1.54807,0.987571 0.85144,0.429805 1.89324,1.061902 2.31511,1.404659 0.42186,0.342758 1.25813,0.837608 1.85836,1.099664 0.67793,0.295979 1.40251,0.917933 1.91278,1.641859 0.53124,0.753668 1.01992,1.165386 1.38326,1.165386 0.3418,0 1.23163,0.679781 2.27226,1.735889 0.94074,0.954741 1.85124,1.688383 2.02332,1.630315 0.33549,-0.113202 2.60948,1.308622 3.49719,2.186625 0.29616,0.292923 0.66797,0.532588 0.82626,0.532588 0.61079,0 2.89409,1.148538 3.39777,1.70914 0.29104,0.323932 0.79582,0.730268 1.12174,0.902967 0.32591,0.172699 0.76224,0.642099 0.96961,1.043115 0.20737,0.401013 0.71462,0.903308 1.12722,1.116213 0.4126,0.212903 0.80971,0.451856 0.88247,0.531003 0.29305,0.318786 1.9768,1.001713 2.1721,0.881007 0.11503,-0.07109 0.20915,0.05636 0.20915,0.283231 0,0.22687 0.17437,0.412491 0.38748,0.412491 0.21312,0 0.89773,0.28335 1.52136,0.629666 0.62362,0.346316 1.62901,0.712131 2.23419,0.812924 0.8852,0.147431 1.16305,0.334696 1.42116,0.957834 0.17646,0.426017 0.42405,0.774576 0.5502,0.774576 0.12614,0 0.30593,0.478888 0.39952,1.064197 0.0936,0.585308 0.2736,1.128117 0.40001,1.20624 0.1264,0.07812 0.22983,0.546659 0.22983,1.041191 0,0.710465 -0.19433,1.054198 -0.92604,1.63803 -0.50931,0.406387 -0.92603,0.95507 -0.92604,1.219298 0,0.264229 -0.11507,0.695421 -0.25571,0.958202 -0.40985,0.765808 -0.38094,7.435035 0.0357,8.227092 0.69343,1.318379 1.50192,2.11327 2.31476,2.27584 0.93652,0.187304 2.13862,1.457688 2.13862,2.2601 0,0.294251 -0.33555,0.850662 -0.74567,1.236469 l -0.74566,0.701466 0.67952,0.602205 c 0.37373,0.331214 1.16117,0.986057 1.74986,1.455209 0.58868,0.469151 1.11779,0.972066 1.17579,1.117587 0.058,0.14552 0.30692,0.480832 0.55316,0.745135 0.36733,0.394282 0.39841,0.641186 0.1731,1.375296 -0.22529,0.734052 -0.42182,0.909093 -1.09433,0.974654 -0.77368,0.07543 -0.81973,0.142298 -0.81973,1.190331 0,0.610727 -0.14883,1.259618 -0.33073,1.441979 -0.1819,0.182359 -0.33073,0.480428 -0.33073,0.662374 0,0.181946 -0.18607,0.434941 -0.41349,0.562211 -0.22741,0.127267 -0.4415,0.401074 -0.47574,0.608459 -0.0342,0.207383 -0.22544,0.674645 -0.42489,1.038358 -0.36403,0.663864 -0.80547,2.546544 -1.38497,5.906754 -0.33385,1.93584 -0.19042,2.28219 0.94896,2.29144 0.75547,0.006 1.73106,1.19153 1.57366,1.91207 -0.39221,1.79543 -1.70265,3.1471 -3.17959,3.27963 -0.51709,0.0464 -1.21947,0.26738 -1.56086,0.49107 -0.34139,0.22368 -0.84697,0.4067 -1.12351,0.4067 -0.27653,0 -0.80034,0.23405 -1.164,0.52011 -0.36366,0.28606 -1.24292,0.71482 -1.95391,0.95279 -0.71099,0.23798 -1.53083,0.70022 -1.82187,1.02719 -0.29104,0.32698 -1.30307,0.92909 -2.24896,1.33803 -0.94588,0.40894 -2.37463,1.09721 -3.175,1.52947 -1.41362,0.76349 -4.83622,2.09189 -8.06979,3.1321 -2.0597,0.66259 -5.73904,2.43292 -6.19283,2.97972 -0.19484,0.23476 -0.46555,0.42684 -0.60158,0.42684 -0.13603,0 -1.34185,0.52118 -2.67958,1.15819 -1.33774,0.637 -3.50382,1.66335 -4.81351,2.28079 -1.30969,0.61744 -4.52437,2.16594 -7.14375,3.44112 -2.61937,1.27518 -5.45457,2.51651 -6.30043,2.7585 -1.34496,0.38478 -2.67097,0.98405 -6.84981,3.09566 -0.53867,0.2722 -1.01492,0.478 -1.05833,0.45732 -0.0434,-0.0207 -0.57626,-0.28856 -1.18411,-0.59531 z m 3.1638,-3.83185 c 0.17745,-0.23652 0.55717,-0.47104 0.84382,-0.52114 0.28666,-0.0501 1.47728,-0.5411 2.64584,-1.09109 2.93005,-1.37905 4.75912,-2.18807 6.62256,-2.92924 0.87312,-0.34728 2.30187,-1.02041 3.17499,-1.49585 2.10123,-1.14417 4.4572,-2.29781 6.08542,-2.97984 0.72761,-0.30478 1.50151,-0.67053 1.71979,-0.81279 0.21828,-0.14226 0.69453,-0.38536 1.05834,-0.54022 0.3638,-0.15487 0.89958,-0.4996 1.19062,-0.76607 0.29104,-0.26647 1.60073,-0.97905 2.91042,-1.58351 1.30969,-0.60446 2.97656,-1.3833 3.70417,-1.73074 l 1.32291,-0.63173 -1.10886,-0.0161 c -0.60988,-0.009 -1.17295,0.0876 -1.25127,0.21431 -0.12125,0.1962 -1.22228,0.55278 -2.13779,0.69235 -0.14552,0.0222 -0.90964,0.13522 -1.69805,0.25118 -1.16491,0.17135 -1.66061,0.42022 -2.64583,1.32838 -0.6668,0.61464 -1.56955,1.30965 -2.00611,1.54448 -1.69745,0.91306 -5.34582,2.50852 -6.41615,2.80584 -0.61846,0.17179 -1.12448,0.4229 -1.12448,0.55801 0,0.13512 -0.16696,0.18159 -0.37103,0.10329 -0.20406,-0.0783 -0.9119,0.10402 -1.57298,0.40517 -0.66108,0.30116 -1.26924,0.54756 -1.35148,0.54756 -0.0822,0 -0.74239,0.41672 -1.46701,0.92604 -0.72462,0.50932 -1.45441,0.92604 -1.62176,0.92604 -0.16735,0 -1.19061,0.53274 -2.27391,1.18386 -2.64284,1.58847 -6.41623,2.52116 -5.73401,1.4173 0.10274,-0.16624 -0.0505,-0.15547 -0.39256,0.0276 -0.68422,0.36618 -0.68444,0.27822 0.004,1.69559 0.59803,1.23092 1.20652,1.38265 1.89022,0.47133 z m -0.51263,-3.84762 c 0.52721,-0.49721 1.33448,-0.98659 1.79394,-1.08751 1.0632,-0.23352 7.1545,-3.37295 8.16945,-4.21049 0.93214,-0.76923 3.01466,-1.71718 4.68513,-2.13266 0.98844,-0.24585 1.97575,-0.60169 2.19403,-0.79077 0.35976,-0.31162 1.51938,-0.9604 5.42396,-3.03457 0.72761,-0.38652 1.63528,-0.90808 2.01706,-1.15903 0.38177,-0.25095 1.33427,-0.52076 2.11666,-0.59958 1.28495,-0.12944 2.21007,-0.40079 4.20066,-1.23208 0.3638,-0.15193 0.85915,-0.29683 1.10077,-0.322 0.24162,-0.0252 0.7774,-0.27378 1.19062,-0.55247 1.20811,-0.81477 6.23911,-3.28939 6.68748,-3.28939 0.49213,0 6.46137,-2.92479 6.58745,-3.22769 0.0485,-0.11654 0.19565,-0.21189 0.327,-0.21189 0.13134,0 1.35249,-0.4301 2.71367,-0.95577 2.6868,-1.03762 2.79545,-1.16177 3.21562,-3.67444 0.25591,-1.53035 1.42142,-5.687376 1.85293,-6.6088 0.20296,-0.43338 0.34375,-0.813229 0.31287,-0.844108 -0.0994,-0.09944 -3.15152,0.960339 -3.45475,1.199605 -0.16117,0.127166 -0.73952,0.375028 -1.28523,0.550799 -0.5457,0.17577 -0.99218,0.430958 -0.99218,0.567086 0,0.410975 -3.70269,1.949578 -5.32674,2.213448 -0.52861,0.0859 -1.81168,0.57011 -2.85126,1.07605 -1.03959,0.50593 -2.01402,0.91988 -2.1654,0.91988 -0.29223,0 -1.88997,1.14419 -2.6786,1.91823 -0.25946,0.25466 -0.70459,0.46302 -0.98917,0.46302 -0.28458,0 -0.95604,0.29765 -1.49213,0.66146 -0.53609,0.3638 -1.1892,0.66145 -1.45134,0.66145 -0.26215,0 -0.55325,0.12397 -0.64689,0.27548 -0.18229,0.29496 -3.31747,1.84119 -3.73326,1.84119 -0.13703,0 -0.71623,0.23813 -1.28709,0.52917 -1.30739,0.66654 -1.12018,0.66322 1.26012,-0.0224 1.05319,-0.30335 2.27391,-0.6417 2.71273,-0.75189 0.43881,-0.11019 1.21272,-0.38735 1.71979,-0.61592 0.50707,-0.22857 1.93398,-0.85823 3.1709,-1.39925 3.97916,-1.74044 6.66466,-3.10352 9.73872,-4.94309 0.91791,-0.54929 1.76445,-0.99871 1.8812,-0.99871 0.11675,0 1.35354,-0.59531 2.74842,-1.322919 2.73996,-1.429232 3.88791,-1.668201 3.88791,-0.80935 0,0.793025 -2.89597,3.169399 -4.90884,4.028089 -0.97773,0.4171 -2.18236,1.11367 -2.67696,1.54794 -0.4946,0.43426 -1.07592,0.78957 -1.29181,0.78957 -0.38135,0 -3.02757,1.27212 -3.29322,1.58315 -0.60844,0.71236 -1.80162,1.32727 -2.57549,1.32727 -0.59156,0 -1.46811,0.34039 -2.47173,0.95986 -2.11191,1.30355 -5.71868,2.73442 -6.90628,2.73985 -0.53531,0.002 -1.13062,0.15467 -1.32291,0.33827 -0.54563,0.52095 -1.75752,0.9891 -2.56047,0.9891 -0.4019,0 -0.96185,0.18042 -1.24432,0.40093 -0.48464,0.37834 -0.46884,0.39172 0.28016,0.23748 0.43656,-0.0899 1.58049,-0.38939 2.54206,-0.66552 0.96158,-0.27613 1.99635,-0.50206 2.2995,-0.50206 0.30314,0 0.61713,-0.10673 0.69776,-0.23719 0.0806,-0.13046 0.89133,-0.36839 1.80155,-0.52874 2.16208,-0.38088 3.63934,-0.80014 3.63934,-1.03289 0,-0.10255 0.56554,-0.47662 1.25677,-0.83127 0.69122,-0.35464 1.43536,-0.78767 1.65364,-0.96229 0.21828,-0.17461 0.8136,-0.404 1.32292,-0.50976 0.50932,-0.10576 1.2237,-0.34514 1.5875,-0.53196 0.3638,-0.18682 1.93097,-0.952 3.4826,-1.70041 1.55163,-0.74841 2.98038,-1.55416 3.175,-1.79056 0.60892,-0.73964 2.39566,-1.92909 2.89779,-1.92909 0.26409,0 0.60913,0.24099 0.76677,0.53554 0.24163,0.45149 0.16356,0.63909 -0.49745,1.19529 -0.43123,0.36286 -1.09107,1.18362 -1.4663,1.82391 -0.56845,0.96997 -0.91421,1.24108 -2.07293,1.62535 -1.39829,0.46372 -2.67814,1.10471 -3.90423,1.95536 -0.3638,0.25241 -1.05843,0.53515 -1.54362,0.62832 -0.48519,0.0932 -1.22406,0.41286 -1.64194,0.71042 -0.41789,0.29756 -1.15201,0.66423 -1.63138,0.81482 -0.47938,0.1506 -1.8241,0.74723 -2.98827,1.32585 -1.25632,0.62442 -2.76193,1.14456 -3.70417,1.27967 -0.87312,0.1252 -1.94468,0.37853 -2.38124,0.56295 -0.43657,0.18443 -1.20871,0.37816 -1.71587,0.43051 -0.50716,0.0524 -1.03699,0.21007 -1.1774,0.35048 -0.1404,0.1404 -0.51458,0.25528 -0.83151,0.25528 -0.31692,0 -1.00366,0.17859 -1.52608,0.39687 -0.52242,0.21828 -1.22157,0.40464 -1.55367,0.41412 -0.33209,0.009 -1.37771,0.42123 -2.3236,0.915 -2.36472,1.23442 -3.118,1.58823 -4.49792,2.11267 -0.65484,0.24887 -1.48828,0.57982 -1.85208,0.73543 -0.3638,0.15562 -0.72099,0.29212 -0.79375,0.30335 -0.4427,0.0683 -3.17808,1.78963 -3.35972,2.1142 -0.31392,0.56095 -3.1436,2.04411 -7.56127,3.96319 -0.84055,0.36514 -2.05857,1.04473 -2.70671,1.51019 -1.02268,0.73443 -1.15488,0.93702 -1.00024,1.53282 0.098,0.37759 0.18068,0.89489 0.18372,1.14955 0.003,0.25467 0.0229,0.46302 0.0441,0.46302 0.0212,0 0.46993,-0.40681 0.99713,-0.90403 z m -5.77086,-0.6 c -0.20313,-2.1669 -0.15887,-5.99923 0.0819,-7.09492 0.31121,-1.41603 0.83719,-2.48981 1.58745,-3.24074 0.56238,-0.56288 0.58436,-0.67382 0.23841,-1.2032 -0.2096,-0.32073 -1.20275,-1.21945 -2.207,-1.99716 -1.00426,-0.77771 -2.33958,-1.87904 -2.96739,-2.4474 -0.6278,-0.56836 -1.23852,-1.03338 -1.35716,-1.03338 -0.26355,0 -2.39616,-2.04425 -2.39616,-2.29689 0,-0.42136 -4.03075,-3.9758 -5.19631,-4.58228 -0.69918,-0.3638 -1.69127,-1.03873 -2.20465,-1.49984 -1.39267,-1.25088 -2.31035,-1.93974 -2.58408,-1.93974 -0.13436,0 -0.3928,-0.2775 -0.57432,-0.61666 -0.18151,-0.33916 -0.64811,-0.80763 -1.03689,-1.04103 -0.38878,-0.2334 -1.12359,-0.82107 -1.63292,-1.305939 -0.50932,-0.484865 -1.24988,-1.046638 -1.64569,-1.248386 -0.39582,-0.201747 -1.01783,-0.795091 -1.38226,-1.318543 -0.36443,-0.523454 -1.05262,-1.270212 -1.5293,-1.659461 -1.98777,-1.623169 -4.7258,-3.657897 -4.92224,-3.657897 -0.1161,0 -0.5533,-0.357187 -0.97155,-0.79375 -0.41825,-0.436562 -0.91678,-0.79375 -1.10783,-0.79375 -0.19106,0 -0.34738,-0.117374 -0.34738,-0.260829 0,-0.143457 -0.50601,-0.579405 -1.12448,-0.968774 -0.61846,-0.389369 -1.7483,-1.105821 -2.51076,-1.592112 -0.76246,-0.486294 -1.68662,-1.359929 -2.05369,-1.941412 -0.3928,-0.622234 -1.5023,-1.628873 -2.69652,-2.446536 -2.39756,-1.641565 -6.72245,-5.03442 -8.91896,-6.996877 -0.85893,-0.767414 -3.41877,-2.644064 -5.68854,-4.170336 -2.26976,-1.526271 -5.22514,-3.785767 -6.56751,-5.021104 -1.34237,-1.235335 -2.77112,-2.419636 -3.175,-2.631782 -0.40388,-0.212145 -1.23024,-0.866327 -1.83636,-1.453734 l -1.10204,-1.068015 -0.6839,0.896644 c -0.37615,0.493154 -0.68464,1.112946 -0.68553,1.377318 -8e-4,0.264372 -0.18503,0.832384 -0.40919,1.26225 -0.30877,0.592135 -0.40581,1.635689 -0.40038,4.305356 0.005,2.523665 -0.11083,3.87137 -0.40861,4.748469 -0.29553,0.87044 -0.35757,1.576665 -0.21449,2.44152 0.11072,0.669255 0.17365,1.375235 0.13986,1.568839 -0.0338,0.193606 0.12304,0.633584 0.34854,0.977728 0.56236,0.858276 6.46527,5.417137 7.01423,5.417137 0.12581,0 0.63488,0.386953 1.13127,0.859896 2.42935,2.314612 6.49946,5.944955 7.0879,6.322055 0.3638,0.233143 1.26227,1.004535 1.9966,1.714203 1.15666,1.117804 2.91519,2.697412 4.52927,4.06843 0.25698,0.218281 1.21586,0.950671 2.13085,1.627536 1.56916,1.160796 5.93076,4.912666 8.95021,7.699026 0.74905,0.69122 1.45119,1.25677 1.56032,1.25677 0.10913,0 0.73947,0.47625 1.40075,1.05833 0.66128,0.58209 1.31491,1.05834 1.45252,1.05834 0.19977,0 3.92768,2.66613 5.10614,3.65182 0.14931,0.12489 0.62556,0.44731 1.05834,0.7165 0.43278,0.26919 0.90593,0.61762 1.05145,0.77427 0.22924,0.24678 1.56253,1.25909 6.02001,4.57076 0.5461,0.40573 1.43907,1.13727 1.98437,1.62564 2.58225,2.31267 6.22392,4.40697 8.39979,4.83066 2.05888,0.40091 2.65162,0.54129 3.175,0.75194 2.09456,0.84301 2.77813,1.17691 2.77813,1.35701 0,0.11361 0.22118,0.27677 0.49151,0.36257 0.27033,0.0858 1.00451,0.6296 1.63152,1.20845 0.62701,0.57886 1.17801,1.05246 1.22446,1.05246 0.0464,0 0.0322,-0.55775 -0.0317,-1.23945 z m 5.94466,-4.68444 c 0.65485,-0.37191 1.84547,-0.9844 2.64584,-1.36108 0.80036,-0.37668 1.65467,-0.79211 1.89846,-0.92318 0.24379,-0.13107 1.37488,-0.73134 2.51354,-1.33394 1.13866,-0.6026 2.30841,-1.30859 2.59945,-1.56888 0.29105,-0.26028 1.28536,-0.85115 2.20959,-1.31304 0.92423,-0.46189 1.62038,-0.89984 1.547,-0.97323 -0.0734,-0.0734 -0.62621,0.11797 -1.22849,0.42523 -0.60228,0.30726 -1.77468,0.68276 -2.60532,0.83444 -0.83065,0.15168 -1.76271,0.51013 -2.07124,0.79657 -0.30854,0.28644 -0.84432,0.54057 -1.19063,0.56474 -0.34631,0.0242 -0.86046,0.25606 -1.14257,0.51531 -0.2821,0.25925 -0.6623,0.47137 -0.84489,0.47137 -0.18259,0 -0.48756,0.21297 -0.67771,0.47328 -0.19015,0.2603 -1.2387,0.91206 -2.33011,1.44836 -2.28561,1.1231 -3.43958,2.09355 -3.43958,2.89257 0,0.51487 0.0369,0.52632 0.46302,0.14358 0.25466,-0.22874 0.9988,-0.72018 1.65364,-1.0921 z m 0.46233,-4.11291 c 0.90474,-0.6453 1.61397,-1.20426 1.57608,-1.24215 -0.0379,-0.0379 -0.5418,0.0366 -1.11979,0.1655 -0.97249,0.2169 -2.50612,1.56064 -2.50612,2.19582 0,0.31539 0.16418,0.22576 2.04983,-1.11917 z m 33.92479,-2.6632 c 0.25071,0 1.63516,-0.59519 3.07655,-1.32265 1.44139,-0.72746 2.85883,-1.32465 3.14987,-1.3271 0.52437,-0.004 4.18955,-1.94825 6.4823,-3.43791 0.65484,-0.42547 1.62903,-1.01404 2.16486,-1.30793 0.53583,-0.29389 1.0596,-0.67248 1.16394,-0.8413 0.31673,-0.51248 -1.24305,-0.001 -2.18667,0.71687 -0.46323,0.35247 -0.98161,0.64085 -1.15193,0.64085 -0.29171,0 -3.3037,1.44703 -4.7527,2.28331 -1.3301,0.76766 -3.51877,1.68544 -4.01933,1.68544 -0.28264,0 -0.89291,0.28314 -1.35614,0.62919 -0.46323,0.34606 -1.76498,1.13073 -2.89276,1.74371 -2.18978,1.19021 -2.65773,1.59208 -1.09217,0.93795 0.52709,-0.22024 1.16348,-0.40043 1.41418,-0.40043 z m -30.41837,-3.20179 c 1.37051,-1.44622 2.84317,-2.10371 6.41972,-2.86618 0.54766,-0.11675 1.50016,-0.45779 2.11666,-0.75785 0.61651,-0.30006 2.07342,-0.80362 3.23758,-1.11903 1.16417,-0.3154 2.58552,-0.79996 3.15855,-1.0768 0.57304,-0.27684 1.19812,-0.50335 1.38907,-0.50335 0.19094,0 0.34717,-0.11906 0.34717,-0.26458 0,-0.14552 0.16411,-0.26459 0.36468,-0.26459 0.20057,0 1.3333,-0.53578 2.51717,-1.19062 1.18387,-0.65484 2.26588,-1.19063 2.40447,-1.19063 0.43377,0 2.12202,-0.88097 2.12202,-1.10733 0,-0.11857 0.13128,-0.21558 0.29174,-0.21558 0.4803,0 4.81638,-2.10266 5.39215,-2.61477 0.2936,-0.26114 1.01007,-0.71385 1.59215,-1.00603 0.58208,-0.29218 1.53458,-0.78133 2.11667,-1.08698 1.2572,-0.660174 2.54511,-1.198696 3.89891,-1.630282 0.54368,-0.17332 1.05672,-0.425505 1.1401,-0.560411 0.0834,-0.134903 0.37929,-0.245279 0.6576,-0.245279 0.62409,0 3.39163,-1.204818 3.97013,-1.728349 0.23337,-0.211198 1.07086,-0.60666 1.86108,-0.8788 0.79021,-0.272143 1.91125,-0.749364 2.49117,-1.060495 0.57993,-0.311129 1.15478,-0.56569 1.27745,-0.56569 0.12266,0 1.10977,-0.426508 2.19357,-0.947796 l 1.97055,-0.947795 -0.86674,-0.63404 c -1.7801,-1.302184 -1.92877,-1.326131 -3.45105,-0.555924 -0.76562,0.387369 -1.50939,0.704533 -1.65282,0.704811 -0.14344,2.64e-4 -1.27282,0.609557 -2.50975,1.353954 -2.23068,1.342454 -3.66992,1.853626 -6.2177,2.208327 -0.74268,0.103396 -1.8553,0.522936 -2.53671,0.956529 -0.66758,0.424792 -1.55118,0.772351 -1.96354,0.772351 -0.41237,0 -0.95043,0.18161 -1.1957,0.403577 -0.59584,0.539226 -2.99081,1.355574 -4.60045,1.568106 -0.71531,0.09445 -2.32265,0.513162 -3.57188,0.930479 -1.24922,0.417316 -2.68803,0.842027 -3.19735,0.943787 -0.50932,0.10177 -1.0451,0.2585 -1.19062,0.3483 -0.14553,0.0898 -0.32412,0.17012 -0.39688,0.17849 -0.0728,0.008 -0.7276,0.28573 -1.45521,0.61638 -0.7276,0.33064 -1.99666,0.82924 -2.82013,1.10799 -0.82346,0.27876 -1.89503,0.73428 -2.38125,1.01226 -0.48622,0.27799 -1.30612,0.63876 -1.82201,0.8017 -0.51589,0.16295 -2.1084,0.8904 -3.53892,1.61656 -1.43053,0.72616 -2.80138,1.32029 -3.04635,1.32029 -0.24498,0 -0.67652,0.17481 -0.959,0.38846 -0.28247,0.21365 -0.66371,0.39224 -0.8472,0.39687 -0.18349,0.005 -0.86815,0.25968 -1.52147,0.56678 -0.65332,0.3071 -1.99148,0.76412 -2.97368,1.0156 -1.74365,0.44644 -1.78432,0.4764 -1.7221,1.26844 0.0502,0.63949 -0.13373,0.98457 -0.8691,1.63023 -1.4477,1.2711 -2.12551,1.12546 -4.19201,-0.90076 -0.9647,-0.94588 -1.9083,-1.71979 -2.09691,-1.71979 -0.1886,0 -0.78014,-0.40048 -1.31452,-0.88995 -0.53438,-0.48947 -1.36524,-1.1902 -1.84636,-1.55716 -0.48112,-0.36697 -2.01289,-1.7822 -3.40394,-3.14495 -3.95778,-3.87728 -6.18496,-5.676628 -8.826,-7.130606 -1.26901,-0.698632 -2.37094,-1.572752 -5.38914,-4.274995 -1.25853,-1.126789 -2.4073,-2.056302 -2.55282,-2.065588 -0.14553,-0.0093 -0.69586,-0.58374 -1.22296,-1.276565 -0.52711,-0.692822 -1.59867,-1.687949 -2.38125,-2.21139 -0.78258,-0.523441 -1.87886,-1.373547 -2.43617,-1.889122 -0.55731,-0.515575 -1.23008,-1.006216 -1.49505,-1.090314 -0.26497,-0.0841 -0.55538,-0.446222 -0.64535,-0.80472 -0.09,-0.358497 -0.60783,-0.938953 -1.15079,-1.289904 -0.54295,-0.350949 -1.3361,-1.01794 -1.76254,-1.482201 -0.42645,-0.464262 -1.55754,-1.470824 -2.51354,-2.236809 -0.95601,-0.765982 -1.96796,-1.650143 -2.24879,-1.964801 -0.28083,-0.314661 -1.53098,-1.246492 -2.77812,-2.070738 -1.24714,-0.824243 -2.32706,-1.565307 -2.39982,-1.646806 -0.0728,-0.0815 -0.48252,-0.326586 -0.91057,-0.544635 -0.97124,-0.494752 -4.64568,-3.969144 -4.64568,-4.39276 0,-0.304792 -1.93088,-2.311863 -5.82535,-6.055202 -1.05825,-1.017182 -2.22035,-2.297104 -2.58244,-2.844271 -0.71385,-1.078698 -1.21484,-1.227947 -1.9348,-0.576394 -0.25431,0.230147 -1.30548,0.548949 -2.33594,0.708448 -1.62999,0.252299 -1.87355,0.361725 -1.87355,0.841727 0,0.303448 0.21929,0.669256 0.48731,0.812903 1.35122,0.724183 4.25271,2.793868 4.69672,3.35025 0.27748,0.347699 0.94485,0.902139 1.48304,1.232087 0.53818,0.329949 1.05277,0.833848 1.14352,1.119778 0.0907,0.28593 0.27026,0.454819 0.39891,0.375309 0.12866,-0.07951 0.43143,0.156885 0.67284,0.525322 0.24142,0.36844 0.60383,0.669891 0.80538,0.669891 0.20154,0 0.36644,0.119062 0.36644,0.264583 0,0.145521 0.20836,0.26615 0.46302,0.268063 0.25467,0.0019 1.27444,0.693383 2.26617,1.536599 0.99173,0.843219 2.24189,1.75849 2.77813,2.033937 0.53623,0.27545 1.18333,0.673994 1.438,0.885658 0.25466,0.211662 0.46302,0.308415 0.46302,0.215003 0,-0.09341 0.56039,0.423918 1.24532,1.149618 0.68493,0.725701 1.36954,1.320461 1.52135,1.321689 0.15182,0.0013 1.07052,0.745371 2.04155,1.653646 1.98276,1.854615 4.35463,3.635787 4.84154,3.635787 0.17731,0 0.5492,0.250794 0.82642,0.557321 0.27721,0.306525 0.98027,0.796864 1.56236,1.089642 0.98151,0.493681 3.04271,2.451243 3.04271,2.889726 0,0.105736 0.80367,0.732959 1.78593,1.393833 0.98227,0.660874 2.09539,1.531655 2.47359,1.935067 0.37822,0.403416 1.03306,0.912051 1.45521,1.1303 0.42216,0.21825 0.88662,0.522677 1.03214,0.6765 0.3139,0.331814 2.05301,1.671889 2.89939,2.234129 0.57374,0.381129 2.57383,2.119722 4.24436,3.68945 0.97039,0.911834 2.69492,2.344328 3.6804,3.057158 0.40237,0.291041 1.22716,0.990157 1.83288,1.553587 1.2806,1.19119 3.19119,2.54745 3.58863,2.54745 0.2267,0 3.71539,3.1795 4.65643,4.24374 1.25842,1.42317 4.16722,4.11874 6.35,5.88451 1.4552,1.1772 3.16097,2.58789 3.7906,3.13488 l 1.14477,0.99451 1.36877,-0.83277 c 0.75282,-0.45803 1.78549,-1.27253 2.29481,-1.80999 z m 2.83822,2.14346 c 0.37,-0.29104 0.9473,-0.52917 1.28289,-0.52917 0.33559,0 0.67597,-0.10649 0.75641,-0.23663 0.0804,-0.13015 0.59348,-0.29666 1.1401,-0.37001 1.5284,-0.20512 5.36865,-1.26403 6.55009,-1.80612 1.38205,-0.63414 3.25123,-1.80176 2.90125,-1.81231 -0.40919,-0.0123 -3.24667,1.00317 -4.75333,1.70118 -1.13471,0.5257 -2.04266,0.76631 -4.10104,1.0868 -0.83035,0.12929 -4.10502,1.46642 -4.18924,1.71057 -0.0485,0.14063 -0.25687,0.25569 -0.46302,0.25569 -0.20615,0 -0.37483,0.11906 -0.37483,0.26458 0,0.41965 0.52097,0.30944 1.25072,-0.26458 z m -6.22479,-10.74915 c 0.39295,-0.19984 0.97215,-0.36335 1.28711,-0.36335 0.31495,0 1.12454,-0.28826 1.79907,-0.64058 0.67454,-0.35232 2.23847,-1.01276 3.47539,-1.46764 2.23487,-0.82187 4.53232,-1.91463 5.29167,-2.51692 0.21828,-0.17314 0.81359,-0.46774 1.32292,-0.65467 0.50932,-0.18692 1.52135,-0.60947 2.24895,-0.93899 0.72761,-0.329523 2.21589,-0.921325 3.3073,-1.315118 1.0914,-0.393789 2.75828,-1.014904 3.70416,-1.380254 0.94589,-0.365347 1.91931,-0.703239 2.16316,-0.750866 0.24386,-0.04762 0.72961,-0.274146 1.07946,-0.503375 0.34984,-0.229228 0.70008,-0.352785 0.77829,-0.274569 0.0782,0.07821 0.66402,0.02606 1.3018,-0.115914 0.63777,-0.141968 1.49733,-0.318593 1.91013,-0.392502 0.41279,-0.07391 0.88904,-0.247308 1.05833,-0.385331 0.16928,-0.138022 0.9454,-0.438991 1.72469,-0.668824 0.77929,-0.229831 2.17859,-0.777761 3.10956,-1.217621 0.93096,-0.439859 1.80737,-0.799745 1.94756,-0.799745 0.1402,0 0.70543,-0.195096 1.25607,-0.433549 1.44893,-0.627454 1.91287,-0.783759 3.32052,-1.118714 0.69357,-0.165036 1.88419,-0.703104 2.64583,-1.195705 0.76165,-0.492601 2.60079,-1.568334 4.08698,-2.390516 1.48619,-0.822182 2.7681,-1.601568 2.84869,-1.731968 0.0806,-0.130399 -0.0657,-0.394067 -0.32499,-0.585925 -0.25933,-0.191857 -0.60958,-0.662246 -0.77832,-1.04531 l -0.3068,-0.696476 -1.80579,0.886862 c -0.99318,0.487773 -2.05871,0.890484 -2.36784,0.894913 -0.55065,0.0079 -2.35807,0.565148 -3.4067,1.050341 -1.55544,0.719688 -2.48628,1.045249 -3.43959,1.202989 -0.58208,0.09632 -1.29645,0.325787 -1.58749,0.509937 -0.29105,0.18415 -0.92563,0.41239 -1.41019,0.507203 -0.48456,0.09481 -1.25847,0.339027 -1.71979,0.542698 -0.46133,0.203671 -1.37456,0.571923 -2.0294,0.818335 -0.65484,0.246411 -1.36922,0.604795 -1.5875,0.796406 -0.21828,0.191611 -0.81359,0.475475 -1.32292,0.630804 -2.13012,0.649634 -4.5667,1.585217 -4.83986,1.858375 -0.16118,0.161176 -0.41024,0.29305 -0.55348,0.29305 -0.46449,0 -2.65837,1.121323 -3.33791,1.706057 -0.3638,0.313047 -1.3163,0.789263 -2.11666,1.058254 -0.80037,0.268991 -1.57427,0.568338 -1.71979,0.665215 -0.14553,0.09688 -0.74084,0.209397 -1.32292,0.250045 -1.30804,0.09135 -1.38632,0.163563 -0.83623,0.771411 0.55779,0.616347 0.56298,1.467043 0.0117,1.924526 -0.54427,0.451708 -2.25028,1.044241 -2.52238,0.876071 -0.11377,-0.0703 -0.71696,0.13271 -1.34041,0.45116 -1.66353,0.84969 -3.91169,0.59387 -3.91169,-0.44512 0,-0.32429 -0.25348,-0.364853 -1.38906,-0.22227 -0.76399,0.0959 -1.80578,0.38299 -2.31511,0.63792 -0.50932,0.25494 -2.01183,0.81944 -3.33891,1.25445 -2.16371,0.70925 -2.51148,0.75702 -3.36789,0.4626 l -0.95503,-0.32832 0.52579,0.7384 c 0.28918,0.40612 0.60153,1.13538 0.69411,1.62056 0.0926,0.48519 0.39486,1.33489 0.67175,1.88823 0.53996,1.07907 0.7661,1.10595 2.38361,0.28333 z m -6.58468,-1.62012 c -0.0908,-0.25466 -0.24966,-0.58209 -0.35306,-0.72761 -0.10341,-0.14552 -0.25164,-0.56224 -0.32942,-0.92604 -0.0778,-0.3638 -0.35004,-1.37583 -0.60504,-2.24896 -0.36008,-1.23294 -0.46939,-2.651173 -0.48941,-6.349997 -0.0281,-5.186143 0.25951,-6.642463 1.59643,-8.08427 0.34471,-0.371764 0.62675,-0.815192 0.62675,-0.985393 0,-0.170201 -0.74414,-1.157563 -1.65364,-2.194137 -0.90951,-1.036574 -1.85999,-2.200489 -2.11218,-2.586482 -0.25219,-0.38599 -0.98713,-1.297115 -1.6332,-2.024719 -0.64607,-0.727604 -1.67429,-1.97776 -2.28492,-2.778125 -1.22557,-1.606357 -5.01347,-5.416883 -6.8693,-6.910329 -0.6542,-0.52646 -2.43962,-1.701559 -3.96759,-2.611329 -1.52797,-0.90977 -3.15987,-2.015384 -3.62645,-2.456921 -0.46658,-0.441537 -1.26498,-1.052378 -1.77423,-1.357421 -0.50924,-0.305044 -1.60922,-1.022877 -2.44439,-1.595184 -0.83516,-0.572307 -2.04571,-1.320892 -2.69011,-1.66352 -0.6444,-0.34263 -1.66299,-1.031235 -2.26354,-1.530233 -3.92473,-3.261077 -4.92478,-4.078897 -5.9867,-4.895779 -0.65484,-0.503743 -1.30968,-1.04289 -1.4552,-1.198105 -0.71151,-0.75891 -2.72994,-2.199513 -2.87645,-2.053 -0.0914,0.09145 -0.16626,0.04318 -0.16626,-0.107257 0,-0.150436 -0.44649,-0.579726 -0.99219,-0.953976 -0.5457,-0.374251 -2.2915,-1.572734 -3.87956,-2.663296 -1.58805,-1.090565 -4.36979,-3.389791 -6.18165,-5.109393 -1.81186,-1.719601 -3.47677,-3.231517 -3.69981,-3.359814 -0.77784,-0.447429 -1.70979,1.429928 -2.0531,4.135869 -0.0877,0.691224 -0.26565,1.256771 -0.39544,1.256771 -0.39568,0 -1.35749,2.405486 -1.74554,4.365625 -0.66413,3.354583 -0.4069,5.176155 0.80919,5.730243 0.36187,0.16488 1.19339,0.967089 1.84781,1.782686 1.3852,1.726353 3.95453,4.414472 5.84299,6.113113 1.48801,1.338448 4.09061,4.119634 5.28792,5.650767 0.87315,1.116584 2.0734,2.035524 4.52432,3.463912 0.88764,0.517319 2.19733,1.473488 2.91042,2.124826 0.71308,0.651336 1.36639,1.186871 1.4518,1.19008 0.0854,0.0032 0.76645,0.601144 1.51344,1.328749 0.74698,0.727604 1.45101,1.323649 1.5645,1.324543 0.1135,7.94e-4 0.84576,0.590807 1.62724,1.310918 0.78149,0.720111 2.11723,1.914954 2.96832,2.655208 0.85109,0.740254 2.22411,2.055341 3.05116,2.922415 0.82705,0.867074 1.67994,1.576499 1.89532,1.576499 0.21538,0 1.38508,0.972095 2.59933,2.160209 1.21426,1.188117 2.49863,2.351035 2.85417,2.584262 0.35553,0.233228 0.92388,0.720974 1.26299,1.083885 0.33912,0.362907 1.47978,1.299956 2.5348,2.082326 1.05503,0.78237 1.91823,1.525185 1.91823,1.650698 0,0.125511 0.18362,0.228204 0.40805,0.228204 0.22442,0 0.55184,0.117268 0.7276,0.260596 1.53015,1.247798 2.02653,1.591487 2.29854,1.591487 0.41781,0 3.01829,2.334712 6.85183,6.151559 2.98338,2.97041 3.91921,3.66686 3.55523,2.64584 z m 3.88584,-5.03452 c 0.3638,0.002 1.42526,-0.249273 2.3588,-0.557193 0.93354,-0.307919 1.86199,-0.559853 2.06323,-0.559853 0.20124,0 1.01732,-0.416718 1.81352,-0.926041 0.7962,-0.509323 1.62392,-0.926042 1.83938,-0.926042 0.44511,0 0.525,-0.415573 0.12715,-0.661458 -0.14552,-0.08994 -0.26458,-0.353616 -0.26458,-0.585955 0,-0.232336 -0.29766,-0.812678 -0.66146,-1.289648 -0.3638,-0.476969 -0.66146,-0.994222 -0.66146,-1.149453 0,-0.459615 -1.13408,-0.322945 -2.25916,0.272256 -0.57647,0.304972 -2.00008,0.727099 -3.16358,0.938057 -1.1635,0.21096 -2.22911,0.497221 -2.36802,0.636132 -0.13892,0.138912 -0.48226,0.252569 -0.763,0.252569 -0.46503,0 -0.4951,0.135477 -0.33809,1.523235 0.20787,1.837362 0.39572,2.980846 0.57064,3.473714 0.10838,0.30539 0.2067,0.29901 0.58766,-0.0381 0.25163,-0.22268 0.75516,-0.40367 1.11897,-0.40221 z m 14.0706,-2.270206 c 0.099,-0.150444 0.0692,-0.480483 -0.0661,-0.733419 -0.13537,-0.252934 -0.24612,-0.710023 -0.24612,-1.015752 0,-0.506351 -0.66324,-1.801886 -1.08776,-2.124752 -0.0957,-0.07276 -0.2185,-0.370417 -0.27296,-0.661458 -0.1238,-0.661641 -1.32629,-0.852573 -1.79706,-0.285338 -0.27097,0.326499 -0.26435,0.47288 0.0349,0.772126 0.35576,0.355753 0.82124,1.651008 1.12583,3.13273 0.20403,0.992489 0.80919,1.523143 1.52939,1.341075 0.32998,-0.08342 0.68095,-0.274767 0.77994,-0.425212 z m 4.9794,-3.591488 c 0.80036,-0.326245 1.81239,-0.816772 2.24895,-1.090063 0.43657,-0.27329 1.32954,-0.75416 1.98438,-1.068596 0.65484,-0.314434 1.50666,-0.794824 1.89293,-1.06753 0.38626,-0.272706 0.94478,-0.495829 1.24115,-0.495829 0.29637,0 0.61244,-0.119063 0.70238,-0.264584 0.0899,-0.145521 0.37815,-0.264583 0.64048,-0.264583 0.44422,0 1.77661,-0.55622 5.70952,-2.383504 0.87312,-0.405668 2.12328,-0.880835 2.77812,-1.055931 0.65485,-0.175094 1.30969,-0.392139 1.45521,-0.482325 0.14552,-0.09019 0.45162,-0.193183 0.68022,-0.228883 0.22861,-0.0357 0.76439,-0.246769 1.19063,-0.469046 0.42624,-0.222274 1.03585,-0.404868 1.35468,-0.405765 0.31884,-7.94e-4 0.65328,-0.120692 0.74322,-0.266213 0.0899,-0.145521 0.36486,-0.266337 0.61093,-0.268483 0.24607,-0.0021 0.74506,-0.173215 1.10886,-0.380154 1.71517,-0.975624 2.88519,-1.433184 4.10104,-1.603803 1.94393,-0.272783 4.28904,-1.371658 4.42062,-2.071421 0.18716,-0.995267 -0.0932,-2.819889 -0.43331,-2.819889 -0.65489,0 -4.26964,1.351404 -5.17209,1.933625 -0.51254,0.330666 -1.58673,0.76013 -2.38709,0.954366 -0.80036,0.194235 -1.6338,0.497985 -1.85208,0.674999 -0.21828,0.177017 -1.05172,0.512379 -1.85209,0.745252 -1.65648,0.48197 -4.75533,1.611691 -5.99311,2.184855 -0.45855,0.212339 -1.16822,0.38607 -1.57704,0.38607 -0.40881,0 -1.46238,0.34495 -2.34126,0.766556 -1.59308,0.764212 -2.73871,1.20034 -4.2438,1.615559 -1.3765,0.379746 -5.24288,1.782146 -6.48229,2.351238 -0.65484,0.300681 -1.47422,0.549307 -1.82085,0.552503 -0.34663,0.0032 -1.03444,0.255625 -1.52847,0.560954 -0.82259,0.508389 -0.88495,0.636521 -0.74048,1.521354 0.0868,0.531416 0.40703,1.663883 0.71169,2.51659 0.52941,1.48177 0.57251,1.52749 0.97383,1.033116 0.23095,-0.284496 1.07475,-0.784193 1.87512,-1.110435 z m -19.51205,-1.779127 c 0.14051,-0.08684 0.6889,-0.180573 1.21865,-0.208304 0.52975,-0.02773 1.37991,-0.234032 1.88923,-0.458446 1.93019,-0.850469 2.42644,-1.011558 3.11619,-1.011558 0.39052,0 1.30765,-0.227518 2.03807,-0.505592 1.4081,-0.536075 4.93867,-1.354802 5.82595,-1.351016 0.29104,0.0013 1.06115,-0.350663 1.71135,-0.78201 0.65021,-0.431348 1.51341,-0.857018 1.91823,-0.945933 0.40482,-0.08891 0.73604,-0.278289 0.73604,-0.420836 0,-0.142547 0.11661,-0.187113 0.25912,-0.09903 0.14251,0.08808 0.46993,0.0475 0.7276,-0.09017 0.25767,-0.137674 0.88521,-0.318659 1.39453,-0.402188 0.50933,-0.08353 1.58089,-0.402593 2.38125,-0.709031 0.80037,-0.306437 2.22912,-0.798562 3.175,-1.09361 0.94589,-0.295047 2.63791,-0.940408 3.76005,-1.434139 1.12214,-0.493729 2.26332,-0.897689 2.53595,-0.897689 0.27264,0 1.35197,-0.416719 2.39852,-0.926042 1.04654,-0.509323 2.02034,-0.926042 2.16398,-0.926042 0.14365,0 0.46793,-0.108759 0.72061,-0.241689 0.25269,-0.132929 1.29053,-0.4983 2.30632,-0.811934 1.01578,-0.313632 1.96828,-0.664748 2.11666,-0.780251 0.14838,-0.115507 0.9682,-0.425617 1.8218,-0.689139 0.85361,-0.26352 1.96023,-0.756148 2.45915,-1.094725 0.49892,-0.338576 1.06586,-0.615595 1.25986,-0.615595 0.194,0 0.49054,-0.166055 0.65898,-0.369009 0.16844,-0.202957 0.68903,-0.435433 1.15687,-0.516612 2.37259,-0.411692 2.57019,-0.492533 2.59739,-1.062639 0.14996,-3.143572 0.17242,-3.08117 -0.90203,-2.506138 -0.31664,0.169455 -0.98781,0.353515 -1.49149,0.409022 -0.50369,0.0555 -1.04047,0.204308 -1.19285,0.330676 -0.15238,0.126365 -1.17003,0.429244 -2.26143,0.673063 -1.90117,0.42472 -2.64031,0.709417 -4.74042,1.825892 -0.52147,0.277225 -1.36484,0.598541 -1.87417,0.714034 -1.74991,0.396812 -3.83753,1.028322 -4.63021,1.400651 -0.43656,0.205058 -1.44859,0.518745 -2.24895,0.69708 -1.62912,0.362992 -2.19758,0.700399 -1.93068,1.145939 0.11385,0.19004 0.0318,0.180665 -0.22302,-0.02545 -0.54449,-0.440542 -3.196,0.124952 -5.51922,1.1771 -2.64908,1.199718 -3.70732,1.60842 -5.35781,2.069213 -0.83675,0.233609 -1.52136,0.542383 -1.52136,0.686168 0,0.143783 -0.11695,0.18914 -0.2599,0.100796 -0.14294,-0.08835 -0.70636,0.142753 -1.25204,0.513551 -0.54568,0.370797 -1.16324,0.674179 -1.37235,0.674179 -0.20912,0 -1.01311,0.357188 -1.78666,0.79375 -0.77354,0.436563 -1.74308,0.79375 -2.15451,0.79375 -0.41143,0 -1.27644,0.262247 -1.92224,0.582772 -0.64579,0.320521 -1.26347,0.603295 -1.37261,0.628385 -0.10914,0.02508 -0.2282,0.07258 -0.26458,0.105529 -0.0364,0.03295 -0.50977,0.100425 -1.05198,0.149937 -0.54221,0.04951 -1.37565,0.273566 -1.85208,0.497901 -1.54875,0.729244 -3.22648,1.113575 -4.07911,0.934437 -0.68501,-0.143923 -0.94847,-0.05091 -1.49451,0.52761 -0.693,0.734238 -1.24177,2.28323 -1.24428,3.512193 -0.001,0.670423 0.0477,0.702379 0.6981,0.455076 0.38477,-0.146288 0.81454,-0.337026 0.95504,-0.423865 z m 4.75214,-7.865492 c 0.62362,-0.347014 1.90777,-0.84188 2.85366,-1.099706 0.94588,-0.257823 1.83885,-0.552796 1.98437,-0.655497 0.14552,-0.102703 0.59201,-0.264949 0.99219,-0.360545 0.40018,-0.0956 0.7276,-0.297638 0.7276,-0.448974 0,-0.151337 0.11548,-0.203788 0.25662,-0.11656 0.14114,0.08723 0.8248,-0.143867 1.51925,-0.513551 0.69445,-0.369684 1.35417,-0.67215 1.46606,-0.67215 0.11188,0 0.70814,-0.224031 1.32502,-0.497848 1.97839,-0.878152 4.29424,-1.589754 7.06012,-2.16939 0.64681,-0.135549 1.24212,-0.335016 1.32291,-0.443254 0.25173,-0.337243 2.12279,-1.122841 2.67428,-1.122841 1.01644,0 4.36948,-1.04134 5.92156,-1.839042 0.86338,-0.443736 1.77909,-0.806792 2.03491,-0.806792 0.25582,0 0.52825,-0.102129 0.60539,-0.226951 0.0771,-0.124826 1.00691,-0.429586 2.06614,-0.677244 2.40297,-0.561843 4.19542,-1.296995 5.54371,-2.273684 1.05079,-0.76119 1.61275,-0.950917 3.49452,-1.179808 0.56481,-0.0687 1.32315,-0.318998 1.68518,-0.55621 0.42407,-0.27786 0.93526,-0.375896 1.43691,-0.275566 0.4291,0.08582 1.1694,-0.0075 1.64905,-0.207942 0.47872,-0.200019 1.357,-0.445883 1.95175,-0.546364 1.48586,-0.251034 1.20022,-0.807339 -0.69853,-1.360451 -2.37617,-0.692187 -2.9111,-0.924568 -3.85495,-1.674643 -0.48837,-0.388104 -1.42966,-0.993024 -2.09176,-1.344269 -0.6621,-0.351242 -1.32777,-0.910666 -1.47926,-1.243163 -0.1515,-0.332496 -0.43324,-0.604538 -0.62609,-0.604538 -0.19286,0 -0.76096,-0.426876 -1.26245,-0.948616 -0.98765,-1.027534 -2.25263,-1.799133 -2.5988,-1.585191 -0.11894,0.07351 -0.56192,-0.197905 -0.98441,-0.603144 -0.99396,-0.95337 -2.9139,-2.229593 -4.02223,-2.673662 -0.48005,-0.192339 -1.19443,-0.696169 -1.5875,-1.119627 -0.39308,-0.423455 -1.39944,-1.231074 -2.23636,-1.794711 -0.83692,-0.563636 -1.82977,-1.390946 -2.20633,-1.838462 -0.37657,-0.447519 -0.81064,-0.813671 -0.96462,-0.813671 -0.15398,0 -0.80638,-0.431361 -1.44978,-0.958577 -0.6434,-0.527217 -1.68325,-1.211826 -2.31078,-1.521355 -1.17943,-0.581747 -7.27815,-6.163797 -7.28542,-6.668219 -0.006,-0.448567 -1.05801,-1.299882 -2.78223,-2.252462 -1.5775,-0.871521 -3.43348,-2.360141 -6.04439,-4.848005 -0.75017,-0.714815 -2.46527,-2.243421 -3.81134,-3.396904 -1.34607,-1.153485 -2.4474,-2.205746 -2.4474,-2.338361 0,-0.132614 -0.13339,-0.241117 -0.29644,-0.241117 -0.16304,0 -1.68108,-1.279922 -3.37343,-2.844271 -1.69235,-1.564349 -3.47498,-3.123875 -3.9614,-3.465616 l -0.88439,-0.621345 -0.71061,0.680813 c -0.39084,0.374446 -1.12396,0.823399 -1.62915,0.997669 -0.50519,0.174274 -1.21973,0.537464 -1.58785,0.807091 -0.36812,0.269629 -1.85641,0.728736 -3.30729,1.020241 -2.69305,0.541076 -4.3574,1.035905 -4.35824,1.295757 -2.7e-4,0.07991 -0.64478,0.160415 -1.43227,0.178906 -1.04666,0.02458 -1.95393,0.284639 -3.37296,0.966838 -2.28889,1.100384 -4.28236,1.831962 -4.76863,1.750028 -0.45221,-0.0762 -1.85086,0.299249 -2.23466,0.599861 -0.16479,0.129072 -0.64104,0.218472 -1.05833,0.198668 -1.85826,-0.08819 -5.99888,0.599278 -6.59643,1.0952 -0.16671,0.138353 -1.30267,0.383985 -2.52436,0.545846 -1.2217,0.161862 -2.37137,0.415401 -2.55482,0.563422 -0.3077,0.248267 -1.13493,0.353055 -4.68584,0.593569 -0.72337,0.049 -1.35416,0.205891 -1.40174,0.348658 -0.0476,0.142764 -0.32654,0.196807 -0.61989,0.120097 -0.59992,-0.156885 -4.17507,1.157184 -4.63317,1.702953 -0.16341,0.194686 -0.48122,0.283327 -0.70623,0.19698 -0.22501,-0.08634 -0.71056,0.04052 -1.079,0.281929 -0.43524,0.285184 -0.88067,0.372018 -1.27169,0.247912 -0.53665,-0.170325 -0.50653,-0.08248 0.27809,0.811163 0.48396,0.551195 1.25232,1.311888 1.70747,1.690425 0.45515,0.378537 1.48503,1.32497 2.28863,2.103186 1.48491,1.438005 4.01974,3.479853 4.32003,3.479853 0.0908,0 0.67526,0.36168 1.29888,0.803733 0.62362,0.442053 1.60681,1.126662 2.18487,1.521354 0.57806,0.394692 1.26267,0.925981 1.52135,1.180643 0.25869,0.254661 0.6084,0.46302 0.77714,0.46302 0.16875,0 0.99485,0.625079 1.83578,1.389063 0.84093,0.763984 2.13219,1.865312 2.86946,2.447396 0.73727,0.582083 1.73577,1.415521 2.2189,1.852083 0.48312,0.436563 1.39055,1.204246 2.01652,1.705965 0.62597,0.501716 1.28433,1.058415 1.46302,1.237107 0.17869,0.178691 0.7292,0.510646 1.22335,0.737671 0.49415,0.227029 1.43424,0.823286 2.08908,1.325015 0.65485,0.50173 1.27396,0.920139 1.3758,0.929802 0.29295,0.02779 2.57049,1.578268 4.39813,2.994115 0.92009,0.712774 2.40837,1.724723 3.3073,2.248773 1.51537,0.883428 3.89395,2.537621 4.90749,3.41294 0.23709,0.204755 1.22205,1.053584 2.18879,1.886283 1.48256,1.276996 3.53732,3.509949 7.23643,7.863996 2.01232,2.368611 4.93203,6.024597 5.22331,6.540498 0.18404,0.325974 0.51322,0.740103 0.7315,0.920284 0.66213,0.546545 2.51789,0.405172 3.76093,-0.286507 z"
       id="path1575" />
  </g>
</svg>
