<?xml version="1.0" encoding="UTF-8" standalone="no"?>
<svg
   xmlns:dc="http://purl.org/dc/elements/1.1/"
   xmlns:cc="http://creativecommons.org/ns#"
   xmlns:rdf="http://www.w3.org/1999/02/22-rdf-syntax-ns#"
   xmlns:svg="http://www.w3.org/2000/svg"
   xmlns="http://www.w3.org/2000/svg"
   version="1.1"
   id="svg4183"
   viewBox="0 0 438.41548 402.25394"
   height="113.525mm"
   width="123.73059mm">
  <defs
     id="defs4185" />
  <metadata
     id="metadata4188">
    <rdf:RDF>
      <cc:Work
         rdf:about="">
        <dc:format>image/svg+xml</dc:format>
        <dc:type
           rdf:resource="http://purl.org/dc/dcmitype/StillImage" />
        <dc:title></dc:title>
      </cc:Work>
    </rdf:RDF>
  </metadata>
  <g
     transform="translate(-63.091332,-547.89183)"
     id="layer1">
    <path
       id="path4202"
       d="m 338.42857,949.2379 c 13.2,-0.38513 26.42392,-1.20579 29.38649,-1.82368 2.96257,-0.6179 7.23757,-1.06445 9.5,-0.99233 3.85955,0.12302 3.77395,0.17793 -1.38649,0.88945 -18.76767,2.58767 -24.37353,2.96204 -41.97377,2.80311 l -19.52623,-0.17631 24,-0.70024 z m -53,-1.03762 c -11.23549,-1.33384 -51.06825,-10.17639 -48.26935,-10.71541 0.90471,-0.17423 9.21042,1.4916 18.45713,3.70184 18.40662,4.39974 27.39419,5.75772 46.31222,6.99756 l 12.5,0.81922 -11,0.0139 c -6.05,0.008 -14.15,-0.36005 -18,-0.81711 z m 101,-3.00367 c 14.72278,-2.53336 31.58376,-10.96738 40.12811,-20.07245 3.99493,-4.2571 16.87606,-21.49 18.54241,-24.80679 0.69815,-1.38963 2.81449,-5.0016 4.70298,-8.0266 4.5569,-7.29927 25.14975,-47.63929 31.39463,-61.5 9.4847,-21.05156 14.72685,-39.6783 14.73589,-52.36047 0.002,-3.10174 0.76714,-9.91453 1.69984,-15.13953 2.40535,-13.47483 2.37795,-48.50828 -0.0493,-63 -0.96726,-5.775 -2.37571,-16.125 -3.12989,-23 -0.75418,-6.875 -1.87131,-14.75 -2.48249,-17.5 -2.02199,-9.09777 -7.34135,-22.91801 -10.95279,-28.45648 -4.48879,-6.88396 -27.12901,-30.78355 -37.28445,-39.35842 -8.40308,-7.09525 -23.98163,-15.23059 -40.80494,-21.30893 -5.225,-1.88782 -11.3,-4.26456 -13.5,-5.28165 -7.68957,-3.555 -35.113,-11.09527 -48.5,-13.33544 -12.2545,-2.05066 -16.54456,-2.24788 -46.5,-2.1377 -34.64381,0.12742 -32.78571,-0.0563 -53,5.24095 -8.13975,2.13307 -37.81248,13.81961 -48,18.9047 -19.29607,9.63162 -41.64713,24.95545 -56.0465,38.42535 -15.98279,14.95112 -29.49165,35.92173 -51.732577,80.30762 -12.08351,24.11488 -16.388154,35.93344 -19.291281,52.96494 -1.335281,7.83357 -1.429485,10.99308 -0.527586,17.69471 1.325524,9.84941 1.38475,20.33491 0.09794,17.34035 -1.473813,-3.42975 -1.153421,7.91743 0.417728,14.79448 0.77975,3.41304 1.889568,9.63383 2.466261,13.82398 1.127534,8.19248 5.14477,23.07648 7.44983,27.6019 0.778708,1.5288 2.187447,5.47964 3.130531,8.77964 0.943084,3.3 4.683583,11.53811 8.312221,18.30692 5.909597,11.02367 7.597891,13.26548 16.191533,21.5 14.43189,13.82879 28.73571,22.68168 50.0319,30.96565 13.9811,5.43848 32.02642,10.20887 63.5,16.78661 9.9,2.06903 17.25169,3.80213 16.3371,3.85134 -5.76015,0.30994 -58.9741,-11.69586 -71.3371,-16.09463 -19.73773,-7.02271 -37.19138,-15.81686 -47.76912,-24.06882 -2.87698,-2.24441 -9.19246,-7.94317 -14.03438,-12.66391 -9.833788,-9.58766 -16.100481,-19.94017 -22.144921,-36.58316 -1.797753,-4.95 -4.46178,-12.15 -5.920062,-16 -2.487475,-6.56717 -3.86167,-12.97512 -8.22073,-38.33376 -1.516154,-8.82016 -1.595068,-11.21139 -0.538767,-16.32549 0.80622,-3.90333 1.003333,-9.18947 0.56553,-15.16624 -1.46333,-19.97698 4.216847,-38.85571 22.643873,-75.25955 20.327147,-40.15765 30.919647,-56.466 47.389367,-72.96128 19.22268,-19.2525 50.60308,-39.74241 74.02921,-48.33755 4.4,-1.61438 11.10527,-4.33752 14.9006,-6.05143 3.79533,-1.7139 13.69533,-4.96357 22,-7.22148 l 15.0994,-4.10529 34,-0.11897 c 27.94215,-0.0978 35.51446,0.17653 42.5,1.53949 4.675,0.91215 10.525,1.94671 13,2.29903 6.18201,0.88 33.63019,9.04678 40.25954,11.9786 2.97936,1.31761 8.97729,3.60165 13.32874,5.07565 11.56627,3.91793 31.88815,14.13913 38.32429,19.2758 8.88918,7.09443 31.72612,30.07499 37.27146,37.50585 8.45469,11.32946 15.08152,30.94407 16.3263,48.32386 0.34991,4.88552 1.25349,12.48276 2.00794,16.88276 4.50049,26.2469 5.2046,45.73494 2.3846,66 -0.53575,3.85 -1.62635,13.75 -2.42356,22 -1.55979,16.14162 -3.53124,24.5577 -9.0773,38.75076 -9.73059,24.90183 -33.9739,71.98605 -46.72608,90.74924 -9.4217,13.86281 -19.53757,23.85115 -30.68816,30.30125 -5.07774,2.93723 -21.91053,7.75384 -26.48777,7.57932 -2.11306,-0.0806 -1.52176,-0.36874 2,-0.97473 z M 307.706,918.73486 c -0.30575,-0.30575 -0.10518,-2.02453 0.44572,-3.81953 0.82492,-2.68784 0.61665,-4.01825 -1.18052,-7.54099 -2.70667,-5.30551 -1.9037,-6.6573 1.01551,-1.7096 1.17668,1.99432 2.31392,3.62603 2.52722,3.62603 0.21329,0 1.11907,-1.6875 2.01284,-3.75 0.89377,-2.0625 1.81203,-3.26334 2.04058,-2.66853 0.22854,0.59481 -0.99731,4.41981 -2.72411,8.5 -3.5554,8.40088 -3.3912,8.10867 -4.13724,7.36262 z m 48.7626,-0.37932 c -0.3179,-0.51437 0.89304,-1.07687 2.69099,-1.25 2.78704,-0.26836 3.31838,-0.74865 3.60403,-3.2578 0.28258,-2.48218 0.10669,-2.75351 -1.12325,-1.73275 -3.3508,2.78092 -7.05703,-2.44211 -4.76797,-6.71927 1.33851,-2.50102 5.56019,-3.76147 7.42231,-2.21605 1.69301,1.40508 1.02826,10.63725 -0.99804,13.8611 -1.43231,2.2788 -5.7218,3.10476 -6.82807,1.31477 z m 6.42479,-8.99903 c 1.73529,-3.24243 1.28003,-5.24127 -1.11269,-4.88529 -2.6262,0.39071 -4.39098,2.97294 -3.54266,5.18363 0.85405,2.22562 3.39159,2.063 4.65535,-0.29834 z m -147.88467,3.00496 c -1.04382,-0.66068 -1.35426,-2.7076 -1.17222,-7.72913 0.1362,-3.75676 0.39402,-6.97685 0.57294,-7.15578 0.56952,-0.56952 8.1005,3.60487 9.46103,5.2442 4.42409,5.3307 -2.96714,13.37163 -8.86175,9.64071 z m 7.34842,-2.64213 c 1.84113,-1.84113 1.94246,-2.86678 0.54179,-5.48396 -0.8189,-1.53012 -5.77184,-4.94532 -7.1707,-4.94442 -0.29015,1.9e-4 -0.24417,9.73496 0.0531,11.24981 0.26803,1.36566 4.9769,0.77744 6.57577,-0.82143 z m 7.32143,2.49133 c -3.95234,-2.30203 -0.9504,-10.37751 3.61443,-9.72312 3.59664,0.5156 3.17428,3.57868 -0.75159,5.4508 -1.93995,0.9251 -3.2949,2.05784 -3.01099,2.51721 0.77046,1.24664 4.82536,1.008 6.19815,-0.36479 0.93333,-0.93333 1.2,-0.846 1.2,0.39301 0,2.62237 -4.05448,3.58811 -7.25,1.72689 z m 3.80887,-6.3881 c 1.90305,-1.43939 1.8994,-1.46882 -0.18643,-1.5 -1.17015,-0.0175 -2.68775,0.6432 -3.37244,1.4682 -1.69921,2.04743 0.8637,2.07033 3.55887,0.0318 z m 8.44113,3.02722 c 0,-3.3858 -0.38601,-4.55902 -1.5,-4.55902 -0.825,0 -1.5,-0.45 -1.5,-1 0,-0.55 0.675,-1 1.5,-1 0.825,0 1.51431,-0.7875 1.5318,-1.75 0.0303,-1.66667 0.0951,-1.66667 1.36025,0 0.73064,0.9625 1.84133,1.75 2.46819,1.75 0.62687,0 1.13976,0.45 1.13976,1 0,0.55 -0.675,1 -1.5,1 -1.07959,0 -1.5,1.10455 -1.5,3.94098 0,2.16754 -0.45,4.2191 -1,4.55902 -0.61081,0.3775 -1,-1.15628 -1,-3.94098 z m 14.61396,2.91209 c -3.47297,-3.47297 -0.2008,-10.38085 4.35316,-9.18996 1.69234,0.44256 2.03288,0.0546 2.03288,-2.31575 0,-1.56605 0.454,-3.12795 1.00889,-3.4709 0.65892,-0.40723 0.87324,2.24322 0.61785,7.6405 l -0.39106,8.26402 -3.00387,0.34303 c -1.82205,0.20806 -3.63888,-0.29197 -4.61785,-1.27094 z m 5.88604,-3.97111 c 0,-2.52893 -0.39041,-3 -2.4863,-3 -1.60345,0 -2.60998,0.64215 -2.83458,1.80841 -0.58425,3.03378 0.65315,4.85441 3.06641,4.51173 1.76716,-0.25094 2.25447,-0.9686 2.25447,-3.32014 z m 5.51851,3.53459 c -1.3061,-2.44047 -1.31758,-7.73172 -0.0185,-8.53459 0.61081,-0.3775 1,1.15628 1,3.94098 0,4.19629 0.19891,4.55902 2.5,4.55902 2.2963,0 2.5,-0.36667 2.5,-4.5 0,-2.475 0.45,-4.5 1,-4.5 0.55,0 1,2.40209 1,5.33797 l 0,5.33797 -3.48149,0.13088 c -2.48813,0.0935 -3.77209,-0.41212 -4.5,-1.77223 z m 16.43756,-4.60023 c -0.43362,-4.0491 -0.29843,-7.40288 0.35272,-8.75 0.94593,-1.95695 1.0629,-1.79198 1.12353,1.58469 0.0619,3.44762 0.26863,3.71862 2.42392,3.17767 4.76615,-1.19622 7.61834,5.45634 3.81502,8.89829 -1.00581,0.91025 -2.99499,1.65499 -4.42041,1.65499 -2.45434,0 -2.62892,-0.3479 -3.29478,-6.56564 z m 7.04393,1.06564 c 0,-2.53333 -0.38889,-3 -2.5,-3 -2.10116,0 -2.55086,0.53014 -2.81881,3.32306 -0.29889,3.1155 -0.14274,3.30289 2.5,3 2.39355,-0.27432 2.81881,-0.77565 2.81881,-3.32306 z m 5.67535,0 c -0.0796,-3.3 0.19776,-5.46125 0.61636,-4.80279 0.50194,0.78959 1.26281,0.87992 2.23468,0.26532 2.64615,-1.67341 3.97757,-1.05648 3.85761,1.78747 -0.0714,1.6919 -0.29196,2.07666 -0.57333,1 -1.07997,-4.13264 -4.91028,-1.20672 -5.56893,4.25401 -0.27792,2.30422 -0.471,1.4506 -0.56639,-2.50401 z m 20.57465,4.92808 c -1.11268,-1.12961 -0.90916,-9.21168 0.25,-9.92808 0.55,-0.33992 1,-0.12564 1,0.47617 0,0.78805 0.56536,0.79162 2.02067,0.0128 2.53964,-1.35917 3.98857,-0.50759 3.94753,2.32008 -0.0308,2.11951 -0.0787,2.12906 -1.46875,0.2926 -1.97883,-2.6143 -4.28661,-0.61352 -4.69362,4.06924 -0.16821,1.93525 -0.64333,3.176 -1.05583,2.75722 z m 16.89418,-1.26876 c -2.0715,-2.28899 -2.0772,-4.09609 -0.0222,-7.03007 1.14767,-1.63853 2.31744,-2.18281 4,-1.86117 2.0464,0.39119 2.37798,0.0638 2.37798,-2.34773 0,-1.54128 0.45,-3.08043 1,-3.42035 0.63608,-0.39312 0.99927,2.40581 0.998,7.69098 l -0.002,8.30902 -3.35381,0.23806 c -2.20412,0.15646 -3.91744,-0.38474 -4.998,-1.57874 z m 5.85582,-3.65932 c 0,-2.52893 -0.39041,-3 -2.4863,-3 -1.60345,0 -2.60998,0.64215 -2.83458,1.80841 -0.58425,3.03378 0.65315,4.85441 3.06641,4.51173 1.76716,-0.25094 2.25447,-0.9686 2.25447,-3.32014 z m 5.99648,3.13498 c -2.03806,-3.11048 -0.53827,-7.3354 2.91132,-8.20119 5.42936,-1.36269 6.32392,2.77277 1.13503,5.24718 -1.90145,0.90673 -3.22489,2.02445 -2.94098,2.48382 0.77046,1.24664 4.82536,1.008 6.19815,-0.36479 0.66667,-0.66667 1.2,-0.75556 1.2,-0.2 0,3.74515 -6.23084,4.50352 -8.50352,1.03498 z m 5.95352,-5.74737 c 0.57031,-0.53285 -0.0864,-0.88761 -1.64301,-0.88761 -1.43055,0 -2.86231,0.70177 -3.19371,1.56539 -0.47456,1.23668 -0.12955,1.42307 1.64301,0.88761 1.23404,-0.37279 2.67121,-1.07721 3.19371,-1.56539 z m 23.3,7.03229 c -3.36447,-1.95963 -1.28878,-9.95474 2.57143,-9.90459 3.70042,0.0481 5.57015,4.97502 3.23845,8.53365 -1.73434,2.64694 -3.0757,2.96346 -5.80988,1.37094 z m 4.75,-4.4199 c 0,-2.33333 -0.44444,-3 -2,-3 -1.5355,0 -2.07414,0.77307 -2.31922,3.32862 -0.2859,2.9811 -0.0771,3.29431 2,3 1.83722,-0.26032 2.31922,-0.95211 2.31922,-3.32862 z m 4.5,0 c 0,-3.025 0.45,-5.5 1,-5.5 0.55,0 1,0.47656 1,1.05902 0,0.59169 0.55075,0.71863 1.24806,0.28767 1.58936,-0.98228 8.63014,-1.36953 9.12413,-0.50184 1.08766,1.91049 1.6471,10.15515 0.68908,10.15515 -0.5837,0 -1.06816,-1.4625 -1.07658,-3.25 -0.008,-1.7875 -0.40811,-3.87015 -0.8882,-4.62812 -1.46262,-2.30919 -3.09649,-0.23175 -3.09649,3.93714 0,2.16754 -0.45,3.94098 -1,3.94098 -0.55,0 -1,-2.025 -1,-4.5 0,-2.475 -0.36,-4.5 -0.8,-4.5 -1.75548,0 -3.2,2.57305 -3.2,5.7 0,1.815 -0.45,3.3 -1,3.3 -0.55,0 -1,-2.475 -1,-5.5 z m -87.5,-31.16024 c -17.70631,-1.43438 -43.54237,-5.09105 -48.28587,-6.83407 -4.97112,-1.82665 -2.36007,-1.85545 4.64153,-0.0512 20.51918,5.28766 80.6415,7.5928 107.64434,4.12718 15.20188,-1.95105 26.39333,-4.77198 32,-8.06596 9.78718,-5.75008 21.32096,-20.84954 26.23449,-34.34491 1.33583,-3.66895 4.86131,-16.34582 7.83441,-28.17082 7.28078,-28.95811 8.33026,-42.20848 6.06209,-76.53741 -1.20961,-18.30763 -2.18561,-26.41218 -4.09448,-34 -4.46797,-17.76034 -13.9485,-33.73887 -25.93971,-43.71891 -10.17376,-8.46742 -19.81065,-11.69835 -47.0968,-15.79 -22.43376,-3.36401 -29.58875,-3.94398 -51.40307,-4.1666 -20.11667,-0.20529 -20.79039,-0.14561 -28.89367,2.55963 -31.27334,10.44046 -62.12873,31.04091 -94.74736,63.2576 -15.71844,15.52477 -26.04514,31.60302 -36.22166,56.39569 -2.37044,5.775 -4.13027,9.2625 -3.91073,7.75 0.21953,-1.5125 0.21773,-2.75 -0.004,-2.75 -0.98002,0 -6.23729,13.28394 -6.80111,17.18489 -0.68552,4.74292 2.18457,20.46384 5.09482,27.90692 4.8683,12.45083 14.80472,25.63439 25.96743,34.45338 5.82949,4.60554 21.47628,12.42489 33.8058,16.89418 6.79404,2.46275 15.67398,5.77652 19.73319,7.36393 4.0592,1.5874 11.63974,3.9654 16.84564,5.28444 5.20589,1.31904 8.80589,2.522 8,2.67326 -2.24495,0.42134 -22.64687,-5.88548 -40.46527,-12.50897 -25.25282,-9.38702 -35.42293,-15.10488 -47.25,-26.56498 -3.9875,-3.86378 -7.25,-7.3944 -7.25,-7.84582 0,-0.45143 -1.93741,-3.86288 -4.30537,-7.581 -5.36159,-8.4187 -8.02871,-15.30125 -10.25082,-26.45232 -2.49941,-12.54273 -1.7146,-18.40943 4.0016,-29.91323 2.56288,-5.15776 5.48093,-10.28155 6.48457,-11.38621 1.00364,-1.10466 3.82521,-6.05847 6.27017,-11.00847 7.22556,-14.62868 15.67695,-27.39196 23.74087,-35.85343 36.16922,-37.95238 80.87508,-66.63373 111.8311,-71.74601 8.43873,-1.39363 47.39716,0.23693 60.72788,2.54169 4.4,0.76072 12.95,2.12615 19,3.03429 21.70654,3.25826 32.6482,8.28924 44.0303,20.24514 9.81407,10.30882 16.98806,24.3453 21.3926,41.85634 2.7038,10.74943 4.4716,41.37858 3.80478,65.92198 -0.4992,18.37376 -0.66952,19.62624 -5.1675,38 -8.13637,33.23622 -9.95882,38.23184 -18.65232,51.1289 -11.56424,17.15587 -23.3587,22.75071 -54.40786,25.809 -14.23848,1.40247 -47.62554,1.9043 -60,0.90186 z m 30.25,-26.91086 c -1.12572,-1.14409 -0.90314,-16.21622 0.25,-16.9289 0.55,-0.33992 1,-0.11115 1,0.50837 0,0.68013 0.8114,0.86888 2.04799,0.4764 2.75971,-0.8759 4.95201,1.14562 4.95201,4.56625 0,3.22473 -2.29337,5.94898 -5.00807,5.94898 -1.3511,0 -1.95158,0.85323 -2.17857,3.09557 -0.17235,1.70256 -0.65086,2.75256 -1.06336,2.33333 z m 6.06922,-11.25752 c 0.2859,-2.9811 0.0771,-3.29431 -2,-3 -1.814,0.25703 -2.38876,1.05372 -2.63844,3.65724 -0.2859,2.9811 -0.0771,3.29431 2,3 1.814,-0.25703 2.38876,-1.05372 2.63844,-3.65724 z m -44.73765,-1.4804 c -0.0522,-5.63746 0.27847,-8.5865 0.91843,-8.19098 0.55,0.33992 1,2.70067 1,5.24611 l 0,4.62807 3,-2.87418 c 3.11799,-2.98722 4.21213,-2.49687 1.3891,0.62254 -1.48833,1.64458 -1.44921,1.98558 0.514,4.48141 1.1687,1.48575 1.87369,2.95259 1.56665,3.25963 -0.30704,0.30704 -1.61768,-0.77039 -2.91254,-2.39429 l -2.35428,-2.95255 -1.51989,3.49163 c -1.51381,3.47766 -1.52022,3.45638 -1.60147,-5.31739 z m 85.91843,-0.13196 c 0,-5.03935 0.41122,-8.55902 1,-8.55902 0.55,0 1,2.33419 1,5.18709 l 0,5.18709 3,-2.87418 c 1.65,-1.5808 3,-2.39509 3,-1.80954 0,0.58556 -0.67675,1.6263 -1.50389,2.31277 -1.3256,1.10015 -1.25666,1.64814 0.58156,4.62244 2.39862,3.88106 0.99767,4.66445 -1.50659,0.84246 -1.79805,-2.74416 -3.57108,-2.48009 -3.57108,0.53187 0,1.03508 -0.45,2.16008 -1,2.5 -0.63692,0.39364 -1,-2.48962 -1,-7.94098 z m -155.91985,6.51168 c -1.04382,-0.66068 -1.35426,-2.7076 -1.17222,-7.72913 0.1362,-3.75676 0.39402,-6.97685 0.57294,-7.15578 0.56952,-0.56952 8.1005,3.60487 9.46103,5.2442 4.42409,5.3307 -2.96714,13.37163 -8.86175,9.64071 z m 7.34842,-2.64213 c 1.84113,-1.84113 1.94246,-2.86678 0.54179,-5.48396 -0.8189,-1.53012 -5.77184,-4.94532 -7.1707,-4.94442 -0.29015,1.9e-4 -0.24417,9.73496 0.0531,11.24981 0.26803,1.36566 4.9769,0.77744 6.57577,-0.82143 z m 7.32143,2.49133 c -3.95234,-2.30203 -0.9504,-10.37751 3.61443,-9.72312 3.59664,0.5156 3.17428,3.57868 -0.75159,5.4508 -1.93995,0.9251 -3.2949,2.05784 -3.01099,2.51721 0.77046,1.24664 4.82536,1.008 6.19815,-0.36479 0.93333,-0.93333 1.2,-0.846 1.2,0.39301 0,2.62237 -4.05448,3.58811 -7.25,1.72689 z m 3.80887,-6.3881 c 1.90305,-1.43939 1.8994,-1.46882 -0.18643,-1.5 -1.17015,-0.0175 -2.68775,0.6432 -3.37244,1.4682 -1.69921,2.04743 0.8637,2.07033 3.55887,0.0318 z m 8.44113,3.02722 c 0,-3.3858 -0.38601,-4.55902 -1.5,-4.55902 -0.825,0 -1.5,-0.45 -1.5,-1 0,-0.55 0.675,-1 1.5,-1 0.825,0 1.51431,-0.7875 1.5318,-1.75 0.0303,-1.66667 0.0951,-1.66667 1.36025,0 0.73064,0.9625 1.84133,1.75 2.46819,1.75 0.62687,0 1.13976,0.45 1.13976,1 0,0.55 -0.675,1 -1.5,1 -1.07959,0 -1.5,1.10455 -1.5,3.94098 0,2.16754 -0.45,4.2191 -1,4.55902 -0.61081,0.3775 -1,-1.15628 -1,-3.94098 z m 14.61396,2.91209 c -3.47297,-3.47297 -0.2008,-10.38085 4.35316,-9.18996 1.69234,0.44256 2.03288,0.0546 2.03288,-2.31575 0,-1.56605 0.454,-3.12795 1.00889,-3.4709 0.65892,-0.40723 0.87324,2.24322 0.61785,7.6405 l -0.39106,8.26402 -3.00387,0.34303 c -1.82205,0.20806 -3.63888,-0.29197 -4.61785,-1.27094 z m 5.88604,-3.97111 c 0,-2.52893 -0.39041,-3 -2.4863,-3 -1.60345,0 -2.60998,0.64215 -2.83458,1.80841 -0.58425,3.03378 0.65315,4.85441 3.06641,4.51173 1.76716,-0.25094 2.25447,-0.9686 2.25447,-3.32014 z m 5.51851,3.53459 c -1.3061,-2.44047 -1.31758,-7.73172 -0.0185,-8.53459 0.61081,-0.3775 1,1.15628 1,3.94098 0,4.19629 0.19891,4.55902 2.5,4.55902 2.2963,0 2.5,-0.36667 2.5,-4.5 0,-2.475 0.45,-4.5 1,-4.5 0.55,0 1,2.40209 1,5.33797 l 0,5.33797 -3.48149,0.13088 c -2.48813,0.0935 -3.77209,-0.41212 -4.5,-1.77223 z m 28.102,0.68592 c -2.90713,-2.90713 0.0645,-9.72051 4.23962,-9.72051 1.89419,0 2.22758,0.71664 3.02388,6.5 0.5446,3.95531 0.51336,4.00191 -2.79611,4.17051 -1.84078,0.0938 -3.8511,-0.33371 -4.46739,-0.95 z m 5.12949,-1.97051 c -0.1375,-0.4125 -0.25,-1.875 -0.25,-3.25 0,-3.07999 -2.48067,-3.3389 -4.04182,-0.42186 -1.53842,2.87456 -0.45013,5.13072 2.28735,4.742 1.23996,-0.17608 2.14197,-0.65764 2.00447,-1.07014 z m 4.75,-2.25 c 0,-3.025 0.45,-5.5 1,-5.5 0.55,0 1,0.45381 1,1.00847 0,0.60203 0.796,0.51137 1.97504,-0.22496 1.27409,-0.79568 2.29396,-0.88741 2.87366,-0.25847 1.29144,1.40116 2.13021,9.36996 1.05612,10.03379 -0.49765,0.30756 -0.97145,-0.47985 -1.05288,-1.74981 -0.0814,-1.26996 -0.19393,-3.05586 -0.25,-3.96866 -0.30694,-4.99716 -4.60194,-1.86988 -4.60194,3.35077 0,1.54488 -0.45,2.80887 -1,2.80887 -0.55,0 -1,-2.475 -1,-5.5 z m 29.12051,4.22051 c -2.90713,-2.90713 0.0645,-9.72051 4.23962,-9.72051 1.89419,0 2.22758,0.71664 3.02388,6.5 0.5446,3.95531 0.51336,4.00191 -2.79611,4.17051 -1.84078,0.0938 -3.8511,-0.33371 -4.46739,-0.95 z m 5.12949,-1.97051 c -0.1375,-0.4125 -0.25,-1.875 -0.25,-3.25 0,-3.07999 -2.48067,-3.3389 -4.04182,-0.42186 -1.53842,2.87456 -0.45013,5.13072 2.28735,4.742 1.23996,-0.17608 2.14197,-0.65764 2.00447,-1.07014 z m 6.38251,-0.0871 c -2.29019,-5.4812 -2.81923,-7.6629 -1.85819,-7.6629 0.50001,0 1.49052,1.9125 2.20114,4.25 l 1.29204,4.25 1.9837,-4.5 c 1.09104,-2.475 2.16995,-4.0077 2.39758,-3.406 0.43724,1.15573 -3.20725,10.406 -4.09982,10.406 -0.28717,0 -1.14957,-1.5017 -1.91645,-3.3371 z m 9.03416,2.67043 c -1.05117,-1.05116 -0.77672,-9.14728 0.33333,-9.83333 0.62086,-0.38371 1,1.48962 1,4.94098 0,5.61984 -0.12975,6.09594 -1.33333,4.89235 z m 5.33333,-4.89676 c 0,-4.77748 0.2245,-5.49514 1.41097,-4.51046 0.96456,0.80051 1.61601,0.83925 2.05902,0.12245 0.98957,-1.60116 3.23898,-1.24937 3.9558,0.61866 0.35188,0.91697 0.17502,2.13197 -0.39301,2.7 -0.71037,0.71037 -1.03278,0.46869 -1.03278,-0.77421 0,-1.23689 -0.49904,-1.61549 -1.58179,-1.2 -0.86998,0.33385 -1.76998,0.60699 -2,0.60699 -0.23001,0 -0.41821,1.54844 -0.41821,3.44098 0,1.89254 -0.45,3.7191 -1,4.05902 -0.62185,0.38432 -1,-1.53043 -1,-5.06343 z m 21.49648,3.19841 c -2.03806,-3.11048 -0.53827,-7.3354 2.91132,-8.20119 5.42936,-1.36269 6.32392,2.77277 1.13503,5.24718 -1.90145,0.90673 -3.22489,2.02445 -2.94098,2.48382 0.77046,1.24664 4.82536,1.008 6.19815,-0.36479 0.66667,-0.66667 1.2,-0.75556 1.2,-0.2 0,3.74515 -6.23084,4.50352 -8.50352,1.03498 z m 5.95352,-5.74737 c 0.57031,-0.53285 -0.0864,-0.88761 -1.64301,-0.88761 -1.43055,0 -2.86231,0.70177 -3.19371,1.56539 -0.47456,1.23668 -0.12955,1.42307 1.64301,0.88761 1.23404,-0.37279 2.67121,-1.07721 3.19371,-1.56539 z m -51.29839,-4.77275 c -1.76148,-1.1163 -1.13357,-4.10544 1.15696,-5.50768 2.48193,-1.5194 5.10036,1.76021 3.6175,4.53096 -1.07586,2.01027 -2.63898,2.33004 -4.77446,0.97672 z m 3.84839,-2.61486 c 0,-0.83333 -0.88889,-1.5 -2,-1.5 -1.11111,0 -2,0.66667 -2,1.5 0,0.83333 0.88889,1.5 2,1.5 1.11111,0 2,-0.66667 2,-1.5 z m -39.5,-15.19959 c -14.33479,-1.30227 -43.97362,-9.59686 -56.88976,-15.92092 -11.81465,-5.78475 -20.69766,-12.33169 -24.9376,-18.37949 -3.62894,-5.17627 -3.82679,-5.83697 -3.36138,-11.22484 0.28556,-3.30582 1.38065,-7.15863 2.59163,-9.11803 1.15341,-1.86626 2.10292,-4.24008 2.11001,-5.27516 0.0238,-3.46418 3.97189,-14.56055 7.71549,-21.68464 11.20597,-21.32501 38.32424,-37.4271 70.27161,-41.72538 10.18453,-1.37025 18.53164,-0.62059 29.96277,2.69097 11.42297,3.3092 20.19883,8.10407 28.43086,15.53377 8.2055,7.40577 11.74605,14.35855 14.66621,28.80087 3.23641,16.00648 2.77416,21.28727 -3.55624,40.6266 -6.59105,20.13563 -10.11771,26.13313 -17.59483,29.92207 -10.52423,5.33303 -29.5958,7.55412 -49.40877,5.75418 z m 29.74107,-1.76919 c 23.29107,-3.10025 27.45884,-7.54701 37.44334,-39.94971 2.60855,-8.46552 3.41186,-12.85202 3.4029,-18.58151 -0.0206,-13.1786 -4.24272,-29.75582 -9.33736,-36.66121 -9.07904,-12.30594 -29.37809,-22.42443 -49.89204,-24.86972 -6.54389,-0.78005 -23.71974,1.62774 -33.7996,4.73817 -14.46983,4.46509 -30.08736,13.93057 -39.7078,24.06613 -10.44706,11.00645 -13.84417,18.98798 -19.24944,45.22663 l -1.03002,5 0.42032,-4.5 c 0.29618,-3.17092 0.15877,-3.9093 -0.46524,-2.5 -3.08839,6.975 0.93876,16.52161 9.67165,22.92723 8.15605,5.98251 23.25331,13.10594 36.88478,17.40358 17.88774,5.63953 25.18351,7.22161 37.41744,8.1139 15.70727,1.14563 16.62941,1.13213 28.24107,-0.41349 z m -54.49107,-39.61132 c -2.3026,-1.34114 -2.25678,-6.1513 0.0787,-8.26491 2.26362,-2.04855 4.54409,-2.11561 6.1498,-0.18085 1.01482,1.22278 0.60966,1.83628 -2.37607,3.5979 -1.97972,1.16807 -3.34861,2.5297 -3.04197,3.02586 0.80442,1.30158 4.83233,1.10927 6.2395,-0.2979 0.89306,-0.89306 1.2,-0.90206 1.2,-0.0352 0,1.3002 -3.15676,3.25163 -5.18426,3.20477 -0.72366,-0.0167 -2.10324,-0.48908 -3.06574,-1.04969 z m 3.80887,-6.4493 c 1.87978,-1.48106 1.8646,-1.52057 -0.48054,-1.25 -1.33192,0.15367 -2.60692,0.8419 -2.83334,1.5294 -0.56018,1.701 0.96337,1.57255 3.31388,-0.2794 z m 6.22588,6.40254 c -0.34511,-0.89477 -0.3937,-3.36977 -0.10797,-5.5 0.45582,-3.39845 0.84451,-3.87126 3.17136,-3.85783 4.13128,0.0239 5.15186,1.2328 5.15186,6.10272 0,2.74536 -0.38992,4.25902 -1,3.88197 -0.55,-0.33992 -1,-2.39148 -1,-4.55902 0,-2.16754 -0.3949,-3.94098 -0.87756,-3.94098 -1.49607,0 -3.34699,2.86349 -4.04389,6.25616 -0.47393,2.30721 -0.84751,2.7741 -1.2938,1.61698 z m 11.85943,-0.71382 c -2.0715,-2.28899 -2.0772,-4.09609 -0.0222,-7.03007 1.14767,-1.63853 2.31744,-2.18281 4,-1.86117 2.0464,0.39119 2.37798,0.0638 2.37798,-2.34773 0,-1.54128 0.45,-3.08043 1,-3.42035 0.63608,-0.39312 0.99927,2.40581 0.998,7.69098 l -0.002,8.30902 -3.35381,0.23806 c -2.20412,0.15646 -3.91744,-0.38474 -4.998,-1.57874 z m 5.85582,-3.65932 c 0,-2.52893 -0.39041,-3 -2.4863,-3 -1.60345,0 -2.60998,0.64215 -2.83458,1.80841 -0.58425,3.03378 0.65315,4.85441 3.06641,4.51173 1.76716,-0.25094 2.25447,-0.9686 2.25447,-3.32014 z m 5.67535,0 c -0.0796,-3.3 0.19776,-5.46125 0.61636,-4.80279 0.50194,0.78959 1.26281,0.87992 2.23468,0.26532 2.64615,-1.67341 3.97757,-1.05648 3.85761,1.78747 -0.0714,1.6919 -0.29196,2.07666 -0.57333,1 -1.07997,-4.13264 -4.91028,-1.20672 -5.56893,4.25401 -0.27792,2.30422 -0.471,1.4506 -0.56639,-2.50401 z M 324.5,771.71934 c -2.07751,-2.07751 -1.98646,-4.69446 0.25985,-7.46854 1.4176,-1.75066 2.43415,-2.11023 4.5,-1.59173 3.65086,0.9163 3.34768,2.95112 -0.77011,5.16869 -1.89136,1.01857 -3.2148,2.21443 -2.94099,2.65747 0.75545,1.22233 4.82264,0.96272 6.17982,-0.39446 0.89306,-0.89306 1.2,-0.90206 1.2,-0.0352 0,1.33474 -3.15028,3.23518 -5.36283,3.23518 -0.82187,0 -2.20146,-0.70714 -3.06574,-1.57143 z m 3.98744,-5.95797 c 1.87978,-1.48106 1.8646,-1.52057 -0.48054,-1.25 -1.33192,0.15367 -2.60692,0.8419 -2.83334,1.5294 -0.56018,1.701 0.96337,1.57255 3.31388,-0.2794 z m -1.55887,-24.91158 c 0,-5.03935 0.41122,-8.55902 1,-8.55902 0.55,0 1,2.33419 1,5.18709 l 0,5.18709 3,-2.87418 c 1.65,-1.5808 3,-2.39509 3,-1.80954 0,0.58556 -0.67675,1.6263 -1.50389,2.31277 -1.3256,1.10015 -1.25666,1.64814 0.58156,4.62244 2.39862,3.88106 0.99767,4.66445 -1.50659,0.84246 -1.79805,-2.74416 -3.57108,-2.48009 -3.57108,0.53187 0,1.03508 -0.45,2.16008 -1,2.5 -0.63692,0.39364 -1,-2.48962 -1,-7.94098 z m -69.91985,6.51168 c -1.04382,-0.66068 -1.35426,-2.7076 -1.17222,-7.72913 0.1362,-3.75676 0.39402,-6.97685 0.57294,-7.15578 0.56952,-0.56952 8.1005,3.60487 9.46103,5.2442 4.42409,5.3307 -2.96714,13.37163 -8.86175,9.64071 z m 7.34842,-2.64213 c 1.84113,-1.84113 1.94246,-2.86678 0.54179,-5.48396 -0.8189,-1.53012 -5.77184,-4.94532 -7.1707,-4.94442 -0.29015,1.9e-4 -0.24417,9.73496 0.0531,11.24981 0.26803,1.36566 4.9769,0.77744 6.57577,-0.82143 z m 7.32143,2.49133 c -3.95234,-2.30203 -0.9504,-10.37751 3.61443,-9.72312 3.59664,0.5156 3.17428,3.57868 -0.75159,5.4508 -1.93995,0.9251 -3.2949,2.05784 -3.01099,2.51721 0.77046,1.24664 4.82536,1.008 6.19815,-0.36479 0.93333,-0.93333 1.2,-0.846 1.2,0.39301 0,2.62237 -4.05448,3.58811 -7.25,1.72689 z m 3.80887,-6.3881 c 1.90305,-1.43939 1.8994,-1.46882 -0.18643,-1.5 -1.17015,-0.0175 -2.68775,0.6432 -3.37244,1.4682 -1.69921,2.04743 0.8637,2.07033 3.55887,0.0318 z m 8.44113,3.02722 c 0,-3.3858 -0.38601,-4.55902 -1.5,-4.55902 -0.825,0 -1.5,-0.45 -1.5,-1 0,-0.55 0.675,-1 1.5,-1 0.825,0 1.51431,-0.7875 1.5318,-1.75 0.0303,-1.66667 0.0951,-1.66667 1.36025,0 0.73064,0.9625 1.84133,1.75 2.46819,1.75 0.62687,0 1.13976,0.45 1.13976,1 0,0.55 -0.675,1 -1.5,1 -1.07959,0 -1.5,1.10455 -1.5,3.94098 0,2.16754 -0.45,4.2191 -1,4.55902 -0.61081,0.3775 -1,-1.15628 -1,-3.94098 z m 14.61396,2.91209 c -3.47297,-3.47297 -0.2008,-10.38085 4.35316,-9.18996 1.69234,0.44256 2.03288,0.0546 2.03288,-2.31575 0,-1.56605 0.454,-3.12795 1.00889,-3.4709 0.65892,-0.40723 0.87324,2.24322 0.61785,7.6405 l -0.39106,8.26402 -3.00387,0.34303 c -1.82205,0.20806 -3.63888,-0.29197 -4.61785,-1.27094 z m 5.88604,-3.97111 c 0,-2.52893 -0.39041,-3 -2.4863,-3 -1.60345,0 -2.60998,0.64215 -2.83458,1.80841 -0.58425,3.03378 0.65315,4.85441 3.06641,4.51173 1.76716,-0.25094 2.25447,-0.9686 2.25447,-3.32014 z m 5.51851,3.53459 c -1.3061,-2.44047 -1.31758,-7.73172 -0.0185,-8.53459 0.61081,-0.3775 1,1.15628 1,3.94098 0,4.19629 0.19891,4.55902 2.5,4.55902 2.2963,0 2.5,-0.36667 2.5,-4.5 0,-2.475 0.45,-4.5 1,-4.5 0.55,0 1,2.40209 1,5.33797 l 0,5.33797 -3.48149,0.13088 c -2.48813,0.0935 -3.77209,-0.41212 -4.5,-1.77223 z m 28.102,0.68592 c -2.90713,-2.90713 0.0645,-9.72051 4.23962,-9.72051 1.89419,0 2.22758,0.71664 3.02388,6.5 0.5446,3.95531 0.51336,4.00191 -2.79611,4.17051 -1.84078,0.0938 -3.8511,-0.33371 -4.46739,-0.95 z m 5.12949,-1.97051 c -0.1375,-0.4125 -0.25,-1.875 -0.25,-3.25 0,-3.07999 -2.48067,-3.3389 -4.04182,-0.42186 -1.53842,2.87456 -0.45013,5.13072 2.28735,4.742 1.23996,-0.17608 2.14197,-0.65764 2.00447,-1.07014 z m 5.33684,2.10516 c -0.39606,-0.90466 -0.57762,-3.32731 -0.40347,-5.38367 0.29062,-3.43171 0.58573,-3.75954 3.59258,-3.99093 2.32115,-0.17863 3.55984,0.27835 4.25,1.56793 1.29644,2.42242 1.27546,9.25583 -0.026,8.45151 -0.55,-0.33992 -1,-2.39148 -1,-4.55902 5e-5,-2.76469 -0.43005,-3.94098 -1.44093,-3.94098 -1.84414,0 -2.7817,1.55459 -3.59808,5.96603 -0.47902,2.5885 -0.84664,3.09391 -1.3741,1.88913 z"
       style="fill:#dab" />
  </g>
</svg>
