<?xml version="1.0" encoding="UTF-8" standalone="no"?>
<!-- Created with Inkscape (http://www.inkscape.org/) -->

<svg
   width="189.0032mm"
   height="192.69804mm"
   viewBox="0 0 189.0032 192.69804"
   version="1.1"
   id="svg1805"
   xmlns="http://www.w3.org/2000/svg"
   xmlns:svg="http://www.w3.org/2000/svg">
  <defs
     id="defs1802" />
  <g
     id="layer1"
     transform="translate(-94.307127,-10.883147)">
    <path
       style="fill:#dab;stroke-width:0.264583"
       d="m 186.9553,202.98376 c -0.56079,-0.38279 -1.24529,-1.32731 -1.91745,-2.64583 -0.62411,-1.22424 -1.21036,-2.05052 -1.45488,-2.05052 -0.22524,0 -0.33868,-0.11463 -0.25209,-0.25474 0.0866,-0.14011 -0.12206,-0.70565 -0.46366,-1.25677 -0.3416,-0.55112 -0.77542,-1.38504 -0.96404,-1.85315 -0.18862,-0.46812 -0.49697,-0.97896 -0.68523,-1.1352 -0.18826,-0.15624 -0.67474,-0.96386 -1.08107,-1.79471 -0.40633,-0.83085 -0.99702,-1.86818 -1.31265,-2.30517 -0.31563,-0.437 -0.82247,-1.34026 -1.12633,-2.00726 -0.30385,-0.66699 -0.73694,-1.36583 -0.96243,-1.55296 -0.22548,-0.18714 -0.40997,-0.44956 -0.40997,-0.58315 0,-0.13359 -0.21629,-0.5655 -0.48065,-0.95979 -3.56049,-5.31041 -5.0756,-7.79103 -5.0756,-8.31005 0,-0.21282 -0.29716,-0.97268 -0.66035,-1.68856 -0.81528,-1.60699 -0.82755,-2.05329 -0.0673,-2.44473 0.88667,-0.45651 4.07539,-0.74336 5.93082,-0.53353 2.37966,0.26911 5.69994,0.46272 10.90745,0.63601 4.48724,0.14933 4.65733,0.13528 6.86255,-0.56691 1.75882,-0.56004 2.41414,-0.66233 2.94926,-0.46035 0.37839,0.14283 2.23133,0.28437 4.11765,0.31452 3.1057,0.0497 3.4734,0.10659 3.89268,0.60269 0.25467,0.30132 0.46302,0.718 0.46302,0.92595 0,0.47634 -0.81631,2.08571 -1.81408,3.57647 -0.42192,0.6304 -1.11877,1.80991 -1.54855,2.62113 -0.42978,0.81122 -1.14006,2.00185 -1.5784,2.64583 -0.77354,1.13646 -2.73188,4.97756 -2.73188,5.35834 0,0.35119 -2.14348,4.66143 -2.39562,4.81726 -0.13762,0.0851 -0.25022,0.32188 -0.25022,0.52629 0,0.68569 -2.88817,6.43411 -3.54415,7.05406 -0.35667,0.33707 -0.95506,1.19567 -1.32975,1.908 -1.19651,2.27472 -1.53054,2.43158 -3.01713,1.41683 z m 1.41426,-4.18457 c 0.0954,-0.3006 0.53834,-0.96211 0.98429,-1.47002 0.67552,-0.76937 3.37582,-5.867 3.37582,-6.37287 0,-0.0851 0.40101,-0.76238 0.89114,-1.50504 0.49013,-0.74267 0.9818,-1.64796 1.0926,-2.01177 0.36031,-1.183 2.308,-5.12551 3.21595,-6.50968 0.48715,-0.74266 0.88572,-1.43225 0.88572,-1.53241 0,-0.10017 0.22058,-0.41887 0.49017,-0.70825 0.26959,-0.28937 0.79953,-1.15793 1.17764,-1.93013 0.37811,-0.77221 0.87191,-1.55708 1.09734,-1.74417 0.943,-0.78262 0.44207,-0.93633 -3.22683,-0.99016 -2.81455,-0.0413 -3.81581,0.0377 -4.43148,0.34971 -0.6118,0.31002 -1.68086,0.39721 -4.63184,0.37778 -2.11005,-0.0139 -4.3127,-0.0804 -4.89479,-0.14776 -4.27836,-0.49521 -11.77396,-0.78159 -11.77396,-0.44984 0,0.15901 0.11907,0.36268 0.26459,0.45262 0.14552,0.0899 0.26461,0.36486 0.26464,0.61093 8e-5,0.55288 1.12748,2.65445 2.44944,4.56595 2.1842,3.15826 3.32257,4.93258 3.89306,6.06791 0.32904,0.65485 0.74854,1.36922 0.93222,1.5875 0.18368,0.21828 0.79489,1.26733 1.35824,2.33122 0.56335,1.06389 1.14334,2.13714 1.28886,2.38499 0.76167,1.29729 1.57815,2.57515 1.72012,2.69213 0.0883,0.0728 0.4356,0.66807 0.77177,1.32291 0.69854,1.36074 2.07412,3.175 2.4073,3.175 0.12349,0 0.30258,-0.24595 0.39799,-0.54655 z m -11.51489,-33.34961 c -4.64539,-0.17217 -6.73631,-0.38082 -8.15394,-0.81369 -0.48284,-0.14743 -1.29234,-0.26806 -1.79889,-0.26806 -0.70752,0 -1.13266,-0.21793 -1.83409,-0.94017 -0.50219,-0.5171 -0.91308,-1.08777 -0.91308,-1.26815 0,-0.18039 -0.1662,-0.39176 -0.36934,-0.46971 -0.37013,-0.14204 -1.77322,-2.85874 -2.75734,-5.33885 -0.55176,-1.39049 -1.75651,-3.95604 -2.17428,-4.63021 -0.13527,-0.21828 -0.49899,-0.93265 -0.80827,-1.5875 -2.76703,-5.85873 -7.26301,-15.18589 -7.79946,-16.1804 -0.77956,-1.44523 -0.87134,-1.42324 5.5121,-1.32101 3.67792,0.0589 6.78398,-0.0261 8.26823,-0.22634 1.30752,-0.17637 2.9131,-0.34995 3.56794,-0.38572 0.65485,-0.0358 3.09563,-0.17184 5.42396,-0.30235 5.13639,-0.28792 17.09645,-0.30992 20.37292,-0.0375 2.55363,0.21234 8.42417,0.41316 18.38854,0.62904 10.57304,0.22906 13.36005,0.29777 13.39948,0.33035 0.20084,0.16595 -0.59022,2.41139 -1.00516,2.85316 -0.5665,0.60314 -2.80205,4.91126 -8.55838,16.49284 -3.69864,7.44156 -4.75627,9.74459 -5.00877,10.90674 -0.39163,1.8025 -2.23671,2.30585 -9.01363,2.45896 -9.44081,0.2133 -20.45809,0.25718 -24.73854,0.0985 z m 15.74271,-2.35257 c 6.56382,0.11084 12.34418,-0.11194 13.92099,-0.53653 1.06127,-0.28577 1.22055,-0.45703 1.36493,-1.4676 0.0432,-0.30235 0.43154,-0.97814 0.86298,-1.50176 0.43143,-0.52361 1.54035,-2.41935 2.46426,-4.21276 0.9239,-1.79341 2.02402,-3.80507 2.44472,-4.47037 0.4207,-0.66529 0.90589,-1.61779 1.0782,-2.11666 0.17232,-0.49888 0.97719,-2.13656 1.78861,-3.63929 0.81142,-1.50274 1.67646,-3.11008 1.92231,-3.57188 0.24586,-0.46179 0.98105,-2.08978 1.63377,-3.61775 l 1.18676,-2.77813 -0.84002,-0.2145 c -0.46201,-0.11798 -5.30486,-0.25986 -10.76189,-0.31529 -5.45703,-0.0554 -12.00547,-0.27395 -14.55208,-0.48559 -6.75234,-0.56119 -22.7838,-0.28249 -27.91354,0.48527 -3.08471,0.46167 -7.73347,0.55541 -12.26936,0.24739 -2.04441,-0.13883 -2.44254,-0.10556 -2.2677,0.18946 0.55033,0.92866 1.6135,2.26301 2.20103,2.76247 0.4286,0.36435 0.54829,0.61537 0.35141,0.73705 -0.33336,0.20603 0.11269,1.48854 0.51771,1.48854 0.12216,0 0.22637,0.20836 0.23156,0.46302 0.0152,0.74324 1.85045,4.21219 3.77095,7.12764 0.97672,1.48273 1.77585,2.7556 1.77585,2.82861 0,0.21411 2.06128,4.4449 2.65809,5.45573 0.30071,0.50932 0.72224,1.22369 0.93675,1.5875 0.2145,0.3638 0.6232,1.01864 0.90821,1.4552 0.28502,0.43657 0.59715,0.97235 0.69363,1.19063 1.02181,2.31174 4.08191,2.90303 14.86028,2.8714 3.68251,-0.0108 6.77455,0.0594 6.87119,0.15605 0.0966,0.0966 0.47695,0.0996 0.84514,0.007 0.36818,-0.093 1.86005,-0.14902 3.31526,-0.12444 z m -5.05018,-9.79113 c -1.09493,-0.2383 -1.37101,-0.43338 -1.799,-1.27119 -0.96941,-1.89762 -0.68959,-4.10697 0.68248,-5.38868 1.02874,-0.96099 2.92308,-1.06954 3.45248,-0.19783 0.18313,0.30156 0.71568,0.71043 1.18345,0.90861 1.60526,0.68012 1.40772,2.21353 -0.55663,4.32082 -1.34748,1.44553 -2.04389,1.82826 -2.96278,1.62827 z m 1.74288,-4.49973 c 0,-0.43145 -1.25398,-0.2925 -1.4269,0.15811 -0.0883,0.23018 -0.15711,0.7362 -0.15284,1.12448 l 0.008,0.70596 0.78599,-0.86407 c 0.4323,-0.47524 0.786,-0.98125 0.786,-1.12448 z m 4.31678,4.23566 c -0.99936,-0.40265 -1.22961,-1.18412 -0.76361,-2.59162 0.22635,-0.68364 0.54302,-1.95736 0.7037,-2.83049 0.16069,-0.87312 0.42949,-1.67497 0.59733,-1.78189 0.9394,-0.59836 2.15984,0.12661 2.33158,1.38502 0.0727,0.5328 0.29612,0.70507 1.1486,0.88568 1.48873,0.31541 1.83933,0.53719 1.94138,1.22808 0.12115,0.82019 -0.34683,1.0524 -2.13051,1.05719 -1.64346,0.004 -2.05983,0.34745 -2.05983,1.69713 0,0.39117 -0.21278,0.78342 -0.51177,0.94344 -0.58474,0.31294 -0.49994,0.31244 -1.25687,0.007 z m 7.64609,-1.17017 c -0.31646,-0.69456 -0.24446,-1.38371 0.36521,-3.49548 0.32714,-1.13314 0.51195,-1.38299 1.1071,-1.49677 1.20084,-0.22955 1.7343,0.23866 1.55148,1.3617 -0.34873,2.14213 -0.71282,3.5742 -0.99523,3.91448 -0.50559,0.6092 -1.69764,0.44235 -2.02856,-0.28393 z m -28.30645,-0.0634 c -0.79604,-0.32028 -1.15692,-1.70015 -1.14133,-4.36395 0.008,-1.45309 0.0836,-2.75221 0.16684,-2.88693 0.24976,-0.40412 1.90299,-0.27641 2.36185,0.18246 0.33074,0.33074 0.38722,0.70474 0.24971,1.65364 l -0.17769,1.22624 0.58214,-0.7276 c 0.69988,-0.87477 2.07072,-0.9962 2.75168,-0.24375 0.24084,0.26612 0.43789,0.55081 0.43789,0.63265 0,0.0818 -0.47625,0.72512 -1.05834,1.42952 -0.58208,0.7044 -1.05833,1.40947 -1.05833,1.56681 0,0.15734 -0.33394,0.60601 -0.74208,0.99704 -0.69288,0.66382 -1.56281,0.85959 -2.37234,0.53387 z m -8.2299,-1.03198 c -0.38712,-0.49214 -0.47499,-0.83921 -0.31819,-1.25677 0.11914,-0.31728 0.30143,-2.12429 0.40509,-4.01558 0.17581,-3.2078 0.43225,-4.28261 0.94605,-3.96506 0.1166,0.0721 0.25351,0.007 0.30423,-0.14564 0.0605,-0.18157 0.59116,-0.13074 1.54395,0.14791 0.79845,0.2335 1.74939,0.50896 2.11319,0.61211 1.05578,0.29935 0.78579,0.90372 -0.59531,1.33262 -0.89745,0.27871 -1.25677,0.52831 -1.25677,0.87301 0,0.33851 0.1976,0.48272 0.66145,0.48272 0.63742,0 1.7198,0.8122 1.7198,1.29052 0,0.39586 -0.75772,0.88561 -1.65369,1.06885 -1.24643,0.25492 -1.22556,0.91516 0.0516,1.63298 0.82703,0.46482 1.0729,0.76161 1.0729,1.29512 0,1.08774 -0.45944,1.32711 -2.54726,1.32711 -1.73843,0 -1.96087,-0.0618 -2.44706,-0.6799 z m 15.76869,0.34917 c -0.49928,-0.37592 -0.632,-1.65862 -0.34219,-3.30729 0.1913,-1.08828 0.17524,-1.12448 -0.49908,-1.12448 -0.38697,0 -0.98547,-0.28874 -1.34617,-0.64943 -1.26142,-1.26143 -0.58736,-2.06478 1.41812,-1.69011 0.89795,0.16775 1.2656,0.14009 1.40475,-0.10568 0.10367,-0.1831 0.54594,-0.82479 0.98283,-1.42598 0.97364,-1.33978 2.4343,-1.70041 3.38808,-0.8365 0.714,0.64672 0.48781,1.7803 -0.44882,2.24929 -1.1193,0.56045 -1.32991,1.07363 -0.85197,2.07589 0.33865,0.71016 0.35768,0.96453 0.0958,1.28013 -0.17978,0.21662 -0.49576,0.32905 -0.70217,0.24983 -0.45579,-0.1749 -0.59802,0.18167 -0.74305,1.86279 -0.0612,0.70975 -0.27243,1.39253 -0.46933,1.51731 -0.51916,0.32898 -1.3807,0.28525 -1.88676,-0.0958 z m 23.42651,-7.40833 c -0.14287,-0.1819 -0.32959,-0.70032 -0.41494,-1.15204 -0.26781,-1.41731 0.86234,-1.92653 1.84726,-0.83234 1.16672,1.29616 1.03149,2.31511 -0.30724,2.31511 -0.47593,0 -0.98222,-0.14883 -1.12508,-0.33073 z m 12.54822,-13.59795 c -0.14748,-0.14748 -4.65545,-0.62462 -7.15822,-0.75765 -1.58112,-0.084 -3.8433,-0.34952 -5.02709,-0.58996 -1.26095,-0.25612 -3.30288,-0.42813 -4.93046,-0.41534 -8.41122,0.0661 -22.64509,0.31044 -26.32604,0.45194 -2.32833,0.0895 -6.85271,0.26143 -10.05417,0.38207 -6.21628,0.23425 -9.60887,0.0544 -11.48054,-0.60867 -0.83555,-0.296 -1.25742,-0.3322 -1.50235,-0.12894 -0.69852,0.57972 -1.82067,-0.39552 -2.81491,-2.44638 -1.81303,-3.73981 -2.32615,-4.8543 -2.32615,-5.05234 0,-0.10995 -0.30847,-0.68854 -0.68548,-1.28577 -1.25386,-1.98624 -3.19128,-5.88396 -4.18957,-8.42862 -1.27615,-3.25293 -2.49037,-5.69997 -3.10375,-6.25508 -0.27577,-0.24957 -0.48787,-0.80086 -0.48787,-1.26806 v -0.82654 l 2.44739,-0.3828 c 1.34607,-0.21054 3.57849,-0.41537 4.96094,-0.45518 1.38245,-0.0398 3.57283,-0.14493 4.86752,-0.2336 1.70775,-0.11697 2.79728,-0.0489 3.96875,0.24798 0.88813,0.22506 2.23482,0.47955 2.99265,0.56554 1.79112,0.20322 20.33229,0.2055 26.13879,0.003 5.02357,-0.17502 10.3747,-0.29091 23.41562,-0.50712 9.60436,-0.15924 11.13669,-0.23691 16.13959,-0.81809 1.81901,-0.21131 4.14073,-0.38576 5.15937,-0.38767 1.01865,-0.002 2.92365,-0.17493 4.23334,-0.3845 1.30968,-0.20956 3.09562,-0.35021 3.96875,-0.31254 0.87312,0.0377 1.72281,-0.0319 1.88819,-0.15454 0.44336,-0.328848 4.0864,0.33373 4.25532,0.77395 0.0775,0.20193 -0.48023,1.58163 -1.23939,3.06599 -2.112,4.12958 -7.93176,15.75535 -9.92902,19.8346 -0.98076,2.0031 -1.93517,3.7295 -2.12093,3.83645 -0.18575,0.10696 -0.57009,0.61118 -0.85409,1.1205 -0.5136,0.92112 -0.52677,0.92627 -2.47592,0.96722 -1.07777,0.0226 -3.24651,0.14463 -4.81941,0.27107 -1.57291,0.12644 -2.8828,0.20694 -2.91086,0.17888 z m 4.31548,-2.85794 c 3.40645,-0.13296 3.59901,-0.17039 4.15768,-0.80822 1.20415,-1.37478 2.83772,-4.41501 6.68173,-12.43537 1.04619,-2.18282 2.00284,-4.14735 2.12589,-4.36563 1.04095,-1.84647 3.46108,-6.94514 3.34953,-7.0567 -0.0775,-0.0775 -0.41651,-0.14115 -0.75338,-0.14147 -1.30958,-10e-4 -7.57304,0.29361 -9.07916,0.42741 -0.87312,0.0776 -2.44122,0.20568 -3.48467,0.28472 -1.04344,0.079 -2.80175,0.25838 -3.90736,0.39856 -1.10561,0.14018 -3.70469,0.31401 -5.77575,0.38629 -3.95906,0.13818 -18.46883,0.5056 -19.37597,0.49064 -2.32157,-0.0383 -45.32771,0.10268 -49.60937,0.1626 -3.34574,0.0468 -5.02709,0.28327 -5.02709,0.70695 0,0.34376 0.63962,1.8422 2.02238,4.73788 0.34746,0.7276 0.62987,1.41212 0.6276,1.52114 -0.0157,0.75134 3.27026,6.54865 3.7118,6.54865 0.11333,0 0.52907,0.8632 0.92388,1.91823 0.39481,1.05502 1.02654,2.51354 1.40385,3.24114 0.37732,0.72761 0.86352,1.70987 1.08047,2.18282 0.24094,0.52525 0.60467,0.87598 0.93463,0.90123 0.2971,0.0227 0.83784,0.06 1.20164,0.0827 0.36381,0.0228 1.27096,0.1909 2.01591,0.37363 1.74105,0.42708 12.14794,0.17619 16.76951,-0.40427 0.65485,-0.0823 6.01266,-0.20298 11.90625,-0.26829 5.8936,-0.0653 11.48953,-0.16612 12.43542,-0.22401 3.14423,-0.19243 6.20953,-0.13365 7.14529,0.13702 1.50041,0.434 6.73327,1.05407 9.07399,1.07523 1.19309,0.0108 2.70504,0.11024 3.35988,0.221 0.65485,0.11076 1.48829,0.16632 1.85209,0.12345 0.3638,-0.0429 2.2688,-0.14067 4.23333,-0.21734 z m -68.58437,-6.69516 c -0.22213,-0.25466 -0.52917,-0.70614 -0.68231,-1.00328 -0.34542,-0.67025 -0.10649,-8.57219 0.27359,-9.04832 0.30395,-0.38076 1.46669,-0.18112 2.03192,0.34887 0.58828,0.55161 0.74277,7.87111 0.19386,9.18485 -0.4544,1.08752 -1.14779,1.28514 -1.81706,0.51788 z m 24.00208,-0.39196 c -2.27276,-0.81329 -3.69158,-2.60332 -3.32981,-4.20098 0.50397,-2.22563 1.56077,-3.3276 3.53795,-3.68915 1.78746,-0.32686 3.62832,0.78193 3.62832,2.18543 0,0.87469 -1.55655,3.05497 -2.31733,3.24591 -0.62946,0.15799 -0.66107,0.21199 -0.25653,0.43838 0.25376,0.14201 0.58227,0.18349 0.73003,0.0922 0.14776,-0.0913 0.79151,-0.22353 1.43055,-0.2938 1.00071,-0.11004 1.18587,-0.0523 1.33459,0.41629 0.27334,0.86121 -0.0812,1.53449 -0.9716,1.84487 -1.01849,0.35505 -2.73421,0.33732 -3.78617,-0.0391 z m 0.66146,-5.29113 c 0,-0.15487 -0.16812,-0.12915 -0.39688,0.0607 -0.21828,0.18116 -0.39687,0.37059 -0.39687,0.42097 0,0.0504 0.17859,0.0231 0.39687,-0.0607 0.21828,-0.0838 0.39688,-0.27319 0.39688,-0.42096 z m -20.61301,4.32842 c -0.48074,-0.67513 -0.51692,-0.96318 -0.32311,-2.57297 0.12002,-0.997 0.16754,-2.00656 0.10559,-2.24346 -0.27028,-1.03353 1.39891,-1.67301 2.44926,-0.93834 0.28704,0.20077 1.03788,0.35135 1.66853,0.33463 0.99168,-0.0263 1.24197,0.0862 1.85208,0.83238 0.64712,0.79144 0.69829,1.02537 0.6188,2.82905 -0.0747,1.69462 -0.16004,1.98955 -0.61782,2.13485 -0.72073,0.22875 -1.75394,-0.77362 -1.96676,-1.90805 -0.0912,-0.48605 -0.22871,-0.88373 -0.30561,-0.88373 -0.36255,0 -0.84364,1.0141 -0.8512,1.79424 -0.008,0.87463 -0.0874,0.94483 -1.37915,1.22681 -0.573,0.12509 -0.81328,0.009 -1.25061,-0.60541 z m 39.63788,0.29116 c -0.87964,-0.113 -5.26654,-4.34233 -5.26654,-5.07738 0,-0.28667 0.24754,-0.65369 0.55008,-0.81561 0.30254,-0.16191 0.67026,-0.63915 0.81715,-1.06052 0.58661,-1.68275 3.60013,-2.45392 5.07027,-1.2975 0.95949,0.75474 1.3388,2.23968 0.83172,3.25614 -0.51619,1.03472 -0.49628,1.14321 0.20526,1.11846 0.83915,-0.0296 0.89797,1.0041 0.1407,2.47272 -0.62836,1.21859 -1.1876,1.55283 -2.34864,1.40369 z m 0.422,-2.7068 c 0.0899,-0.14552 0.0374,-0.26458 -0.11667,-0.26458 -0.15411,0 -0.2802,0.11906 -0.2802,0.26458 0,0.14552 0.0525,0.26459 0.11667,0.26459 0.0642,0 0.19027,-0.11907 0.2802,-0.26459 z m -1.19467,-3.25676 c 0.002,-0.11773 -0.11501,-0.14047 -0.26054,-0.0505 -0.14552,0.0899 -0.26276,0.36486 -0.26053,0.61093 0.003,0.38557 0.0395,0.39255 0.26053,0.0505 0.14107,-0.21828 0.25831,-0.4932 0.26054,-0.61093 z m -28.59797,4.50606 c -0.60691,-0.40693 -1.07096,-1.04725 -1.42819,-1.97066 -0.39492,-1.02085 -0.69697,-1.40944 -1.19063,-1.53179 -2.63838,-0.65389 -2.31207,-2.7654 0.36035,-2.33173 0.89541,0.1453 0.93285,0.11761 1.10881,-0.82035 0.10016,-0.5339 0.35486,-1.14348 0.566,-1.35463 0.9375,-0.9375 2.78492,-0.0106 2.53933,1.2741 -0.1087,0.56864 0.0421,0.74538 1.07639,1.26195 0.66153,0.33039 1.27011,0.77615 1.35239,0.99059 0.2781,0.72471 -0.40574,1.15617 -1.69211,1.06759 -1.04329,-0.0718 -1.2198,-0.0104 -1.28039,0.44584 -0.0476,0.35843 0.22984,0.72204 0.85989,1.12691 0.96792,0.622 1.11933,1.068 0.65629,1.93319 -0.37982,0.70969 -1.79975,0.66556 -2.92813,-0.091 z m 40.6267,0.21369 c -0.77102,-0.32858 -1.92567,-1.41024 -1.74468,-1.63441 0.19758,-0.24471 -0.57797,-1.69566 -0.85738,-1.60404 -0.16197,0.0531 -0.33313,0.56211 -0.38036,1.1311 -0.10213,1.23057 -0.43957,1.7057 -1.2033,1.69428 -1.2226,-0.0183 -1.62359,-0.66899 -1.59145,-2.58255 0.0448,-2.66424 0.31071,-6.36421 0.47679,-6.63292 0.31103,-0.50327 1.22634,-0.49923 1.87151,0.008 0.54621,0.42965 0.6646,0.75093 0.6646,1.80341 v 1.28064 l 0.83505,-0.13161 c 0.45927,-0.0724 1.00356,-0.30012 1.20952,-0.50608 0.5575,-0.5575 1.59422,-0.46186 1.93703,0.17869 0.38209,0.71394 -0.1064,1.98621 -0.83584,2.17697 -0.50974,0.1333 -0.50966,0.14896 0.008,1.51009 0.28744,0.75647 0.7183,1.59163 0.95748,1.85591 0.46795,0.51709 0.33904,1.43709 -0.23208,1.65625 -0.18398,0.0706 -0.68546,-0.0212 -1.11441,-0.20399 z m -21.30842,-0.77876 c -1.60764,-1.09241 -2.47891,-4.68188 -1.72059,-7.0885 0.6276,-1.99181 0.92132,-2.49348 1.65581,-2.82814 0.69325,-0.31586 1.31969,-0.1142 1.93015,0.62136 0.28887,0.34806 0.22246,0.58838 -0.41863,1.51511 -0.646,0.93381 -0.75848,1.34708 -0.7391,2.71558 0.031,2.18642 0.51888,3.15195 1.67873,3.32203 0.69551,0.10199 0.95818,0.301 1.14666,0.86879 0.34179,1.02963 -0.13589,1.51246 -1.49631,1.51246 -0.72354,0 -1.41669,-0.21736 -2.03672,-0.63869 z m 28.15527,-0.27054 c -1.11458,-0.49278 -1.81812,-1.57131 -1.91796,-2.94022 -0.0111,-0.15267 -0.41989,-0.4221 -0.90836,-0.59873 -0.48847,-0.17663 -1.11197,-0.56849 -1.38555,-0.8708 -0.4871,-0.53823 -0.48683,-0.55739 0.0126,-0.92263 0.28055,-0.20513 1.06646,-0.37297 1.74648,-0.37297 1.21236,0 1.24482,-0.022 1.66923,-1.13333 0.23805,-0.62333 0.43282,-1.32312 0.43282,-1.5551 0,-0.5633 0.53679,-0.97758 1.52201,-1.17462 0.67354,-0.13471 0.88532,-0.0473 1.25608,0.51858 0.42665,0.65115 0.41716,0.74113 -0.21926,2.07868 -0.61982,1.30268 -0.63303,1.41011 -0.19361,1.57437 1.09421,0.40906 0.94889,1.99046 -0.19505,2.12246 -0.51794,0.0598 -0.73916,0.25336 -0.80275,0.70251 -0.0745,0.52617 -0.002,0.59294 0.47572,0.44116 0.70728,-0.22448 1.33186,0.27049 1.33186,1.05549 0,1.12973 -1.45129,1.6822 -2.8243,1.07515 z M 134.35071,98.805337 c -0.73645,-0.296158 -1.827,-1.768909 -2.05808,-2.779387 -0.29753,-1.301009 -2.93816,-6.486999 -4.23637,-8.319897 -0.66431,-0.937924 -1.20784,-1.872419 -1.20784,-2.076659 0,-0.20424 -0.35822,-0.705975 -0.79605,-1.114968 -0.56973,-0.532204 -0.87125,-1.140131 -1.06054,-2.138277 -0.14547,-0.767065 -0.43082,-1.581531 -0.63411,-1.80993 -0.52034,-0.584605 -1.72658,-3.65039 -1.51828,-3.858864 0.0949,-0.09496 0.17252,-0.609153 0.17252,-1.142653 V 74.5947 l 1.35332,0.06381 c 0.74432,0.0351 2.47073,-0.10278 3.83646,-0.306399 1.43748,-0.214315 2.60149,-0.272756 2.7642,-0.138781 0.2781,0.228989 2.653,0.340177 7.52415,0.352268 3.08417,0.0076 10.58262,-0.33611 10.84311,-0.497101 0.10452,-0.0646 3.09515,-0.182727 6.64585,-0.262509 3.55071,-0.07979 7.70598,-0.258808 9.23395,-0.39783 1.52797,-0.139021 5.27844,-0.436182 8.33438,-0.660358 3.05593,-0.224174 6.33015,-0.465167 7.27604,-0.535535 0.94588,-0.07037 3.68432,-0.240189 6.08541,-0.377376 4.35215,-0.24866 6.46089,-0.442888 13.22917,-1.218488 8.07318,-0.925131 10.71532,-1.111245 16.13959,-1.136869 3.12869,-0.01479 7.29588,-0.104249 9.26041,-0.198819 2.13628,-0.102836 4.36943,-0.05729 5.55625,0.113324 1.09141,0.156895 3.59172,0.355462 5.55625,0.441259 1.96453,0.0858 4.70297,0.331567 6.08542,0.546158 1.38245,0.214593 2.87073,0.443952 3.30729,0.50969 0.43656,0.06574 1.73286,0.138838 2.88065,0.162441 2.41913,0.04976 4.2445,0.528987 5.10926,1.34139 0.73183,0.68752 0.78876,1.644193 0.12607,2.118572 -0.26563,0.190151 -1.37558,2.131669 -2.46653,4.314481 -1.09096,2.182813 -2.11828,4.206875 -2.28292,4.497917 -0.57732,1.020503 -3.76341,7.743822 -3.76341,7.941572 0,0.109908 -0.27973,0.459084 -0.62164,0.775951 -0.35015,0.324512 -0.61014,0.85774 -0.59531,1.220965 0.0197,0.483264 -0.20571,0.763487 -0.89971,1.118333 -0.77845,0.398026 -1.34774,0.449231 -3.57188,0.321278 -7.39864,-0.425632 -7.87914,-0.419245 -10.84791,0.144193 -1.60073,0.3038 -3.32714,0.604568 -3.83646,0.668372 -0.50932,0.0638 -1.73512,0.236188 -2.72398,0.383077 -1.65009,0.24511 -7.29029,0.547097 -17.11977,0.916625 -2.11005,0.07932 -4.19365,0.19948 -4.63021,0.26701 -0.43656,0.06753 -1.98438,0.186946 -3.43958,0.265371 -1.45521,0.07842 -4.31271,0.283896 -6.35,0.456608 -5.96483,0.505666 -14.4814,0.404939 -18.91771,-0.223742 -4.13373,-0.585804 -7.16397,-0.705988 -9.6758,-0.383757 -1.29951,0.166708 -3.43431,0.356317 -4.74399,0.421351 -1.30969,0.06504 -3.57188,0.315106 -5.02709,0.555707 -1.45521,0.240602 -3.65786,0.470691 -4.89479,0.51131 -8.41846,0.276445 -12.90936,0.316381 -13.39979,0.119163 z m 8.24042,-2.28033 c 3.20145,-0.03798 6.17802,-0.120592 6.61458,-0.183589 0.43656,-0.063 1.65418,-0.257789 2.70582,-0.432866 1.05164,-0.175078 2.00414,-0.261625 2.11667,-0.192331 0.11252,0.0693 1.21662,-0.04431 2.45355,-0.252458 3.80889,-0.64095 9.69055,-0.751287 14.02292,-0.263062 3.36913,0.379675 8.35572,0.764152 10.31875,0.795595 1.14603,0.01836 10.61372,-0.403456 11.08266,-0.493766 0.24625,-0.04742 1.81222,-0.164928 3.47993,-0.261117 4.29932,-0.247981 5.89663,-0.345152 8.45616,-0.514416 1.23693,-0.0818 3.79677,-0.216781 5.68854,-0.299958 1.89177,-0.08318 3.79677,-0.202867 4.23333,-0.265981 0.43657,-0.06311 1.98438,-0.161491 3.43959,-0.21862 1.4552,-0.05713 3.59833,-0.239048 4.7625,-0.40427 1.16416,-0.165219 3.06916,-0.423844 4.23333,-0.57472 1.16417,-0.150878 2.9454,-0.401725 3.95829,-0.557437 2.33181,-0.358474 2.83396,-0.366117 7.81567,-0.11897 l 4.10104,0.203457 0.51301,-1.010399 c 0.28216,-0.55572 0.89314,-1.665243 1.35774,-2.465607 0.4646,-0.800365 1.9134,-3.538802 3.21957,-6.085417 1.30616,-2.546615 2.55838,-4.987396 2.7827,-5.423959 1.25014,-2.432902 1.51969,-3.005529 1.51969,-3.22843 0,-0.135281 -1.51886,-0.388223 -3.37525,-0.562091 -1.85638,-0.173868 -3.67208,-0.376193 -4.03489,-0.449606 -1.86015,-0.376415 -4.66715,-0.686499 -7.27424,-0.803574 -1.60073,-0.07189 -3.60228,-0.252934 -4.44789,-0.402336 -1.84101,-0.325263 -21.81015,-0.07768 -23.95931,0.29706 -0.78083,0.136152 -1.51343,0.189619 -1.62798,0.118817 -0.25051,-0.154821 -5.14883,0.309742 -7.00648,0.664506 -2.06722,0.394785 -9.94161,1.023374 -19.97605,1.594628 -2.54661,0.144976 -5.10645,0.312735 -5.68854,0.372798 -0.58208,0.06006 -3.14192,0.241795 -5.68854,0.403852 -2.54661,0.16206 -5.10646,0.344742 -5.68854,0.405966 -0.58208,0.06122 -3.43958,0.179591 -6.35,0.263046 -2.91042,0.08345 -5.82745,0.225515 -6.48229,0.315693 -0.65485,0.09018 -1.42875,0.197525 -1.71979,0.238554 -2.52607,0.356097 -6.82867,0.384731 -11.2448,0.07484 -5.37597,-0.377253 -10.19375,-0.442955 -10.49359,-0.143108 -0.51427,0.514263 2.65618,7.934826 3.85288,9.017818 0.30541,0.2764 0.5553,0.699082 0.5553,0.9393 0,0.240215 0.29765,0.840206 0.66146,1.333312 0.3638,0.493107 0.66145,1.013373 0.66145,1.156147 0,0.244166 1.45578,3.426304 2.27374,4.970093 0.20465,0.386254 0.3721,0.837559 0.3721,1.0029 0,0.634521 1.16209,1.883955 1.57641,1.694902 0.22438,-0.102377 3.02734,-0.217214 6.2288,-0.255193 z m 6.16169,-5.564031 c -0.94647,-0.392732 -1.46653,-1.144842 -1.148,-1.660232 0.0842,-0.136204 0.59459,-0.393366 1.13424,-0.571471 2.0774,-0.685601 2.0657,-1.380929 -0.0615,-3.655102 -0.80035,-0.855647 -1.19161,-1.507228 -1.19161,-1.98446 0,-1.523677 4.4852,-4.817059 6.27868,-4.610293 0.49143,0.05666 0.84409,0.325522 1.08256,0.825355 0.44775,0.93844 0.11591,1.397465 -1.28248,1.77401 -1.02902,0.277085 -2.63918,1.809289 -2.63918,2.511401 0,0.20796 0.47729,0.828895 1.06063,1.379855 0.85402,0.806601 1.09283,1.245582 1.2259,2.253448 0.14482,1.096854 0.0753,1.369674 -0.56211,2.205337 -0.71353,0.935477 -2.12788,1.977271 -2.65046,1.952294 -0.14552,-0.007 -0.70651,-0.196019 -1.24664,-0.420142 z m 8.69709,-0.564134 c -0.26788,-0.05912 -0.72443,-0.344871 -1.01456,-0.635003 -0.46719,-0.467193 -0.51308,-0.783921 -0.40129,-2.769748 0.0694,-1.233229 0.17502,-2.291038 0.23467,-2.350688 0.26328,-0.263279 1.72315,-0.191858 2.28421,0.111752 0.58724,0.317775 0.60822,0.428024 0.44977,2.363475 -0.26856,3.280468 -0.38993,3.536847 -1.5528,3.280212 z m 9.25398,-1.93072 c -0.43283,-0.340466 -0.70196,-0.816949 -0.70985,-1.256771 -0.0125,-0.696259 -0.0204,-0.692941 -0.46302,0.193593 -0.24767,0.496096 -0.64024,1.019643 -0.87238,1.163439 -0.62028,0.384225 -1.75741,0.0064 -2.25187,-0.748279 -0.37544,-0.572998 -0.38518,-0.770628 -0.0747,-1.517153 0.19631,-0.472085 0.35929,-1.747536 0.36218,-2.834338 0.005,-1.83882 0.051,-1.998848 0.66422,-2.305098 0.79871,-0.398878 1.5316,-0.02066 2.06744,1.066962 0.23684,0.48074 0.55414,0.700598 1.01108,0.700598 1.23844,0 2.21959,1.671563 2.41579,4.115729 0.12347,1.538245 0.0966,1.635186 -0.49784,1.794282 -0.88067,0.235707 -0.87583,0.236802 -1.65102,-0.372964 z m 5.28309,-0.217088 -0.73335,-0.765459 0.31343,-2.067758 c 0.17239,-1.137269 0.31278,-2.489454 0.31197,-3.004855 -0.002,-1.20378 0.33971,-1.598554 1.38324,-1.598554 0.92713,0 1.47573,0.399743 1.47573,1.075304 0,0.275735 0.42951,0.604335 1.14915,0.879168 1.26839,0.484402 1.60251,0.976953 1.99459,2.94032 0.21218,1.06253 0.18583,1.443379 -0.1339,1.93493 -0.78504,1.206912 -2.73885,0.147563 -2.74351,-1.487525 -0.001,-0.339585 -0.11926,-0.5383 -0.26633,-0.447405 -0.14552,0.08994 -0.26458,0.606253 -0.26458,1.147368 0,1.132846 -0.61267,2.159924 -1.28842,2.159924 -0.25557,0 -0.79467,-0.344456 -1.19802,-0.765458 z m 13.06977,0.50012 c -2.10024,-0.350038 -3.96431,-1.833298 -3.96776,-3.157193 -5.3e-4,-0.208902 -0.25418,-0.649328 -0.56363,-0.978726 -0.65231,-0.694349 -0.5142,-1.340837 0.313,-1.465202 0.42186,-0.06342 0.71306,-0.453993 1.08573,-1.456208 0.60736,-1.633392 1.595,-2.324603 3.47857,-2.434524 1.16373,-0.06791 1.34944,0.0079 2.18281,0.891572 0.50098,0.531188 0.91086,1.080339 0.91086,1.220338 0,0.44836 -1.27096,2.780442 -1.96453,3.604704 -0.36902,0.438547 -1.03835,0.870839 -1.4874,0.960652 -0.47101,0.0942 -0.74434,0.279993 -0.64601,0.439102 0.0965,0.156113 0.53829,0.206804 1.01803,0.116803 1.00789,-0.189081 1.8518,0.541015 1.71211,1.481215 -0.10588,0.712716 -0.82995,0.984435 -2.07178,0.777467 z m 0,-6.380475 c 0,-0.14552 -0.11906,-0.191 -0.26458,-0.101062 -0.14552,0.08994 -0.26459,0.282582 -0.26459,0.428103 0,0.145521 0.11907,0.191 0.26459,0.101063 0.14552,-0.08994 0.26458,-0.282583 0.26458,-0.428104 z m 9.78958,4.404316 c -0.3638,-0.209889 -0.91311,-0.496668 -1.22068,-0.637292 -0.66838,-0.30558 -0.89598,-0.82319 -0.89598,-2.037643 0,-0.753931 -0.0963,-0.904402 -0.57894,-0.904402 -0.78886,0 -2.32745,-1.085974 -2.32967,-1.644338 -0.003,-0.667305 0.93892,-1.057166 2.31179,-0.957199 1.16915,0.08514 1.2193,0.05792 1.54394,-0.838046 0.18454,-0.509323 0.3446,-1.348714 0.35567,-1.865313 0.0251,-1.172533 0.41356,-1.574271 1.52215,-1.574271 0.62611,0 0.98403,0.178578 1.28813,0.642689 0.38864,0.593138 0.38122,0.775642 -0.0962,2.367111 -0.28454,0.948433 -0.45564,1.786128 -0.38022,1.861545 0.0754,0.07542 0.38138,0.0064 0.67992,-0.153374 0.44948,-0.240556 0.62665,-0.186936 1.03058,0.311896 0.42814,0.528733 0.44256,0.670536 0.11794,1.159701 -0.20341,0.30652 -0.80901,0.680762 -1.34577,0.831649 -1.1552,0.324736 -1.36498,0.773123 -0.37908,0.810278 1.13576,0.0428 1.55146,0.314114 1.55146,1.01259 0,0.497168 -0.28134,0.823484 -1.14773,1.331222 -1.34286,0.786966 -1.19088,0.765736 -2.02728,0.283197 z m -37.20351,-3.934519 c -0.81984,-0.705199 -0.73402,-1.37595 0.22213,-1.735989 0.69854,-0.263033 1.90073,0.245578 2.15661,0.9124 0.2192,0.571216 0.22382,0.552349 -0.25142,1.02758 -0.58485,0.584859 -1.28869,0.517369 -2.12732,-0.203991 z M 119.49443,71.749767 c -0.15126,-0.182263 -0.531,-0.985935 -0.84386,-1.785937 -0.31286,-0.8 -1.01193,-2.287985 -1.55349,-3.30663 -0.54155,-1.018646 -1.38903,-2.804584 -1.88327,-3.96875 -0.49425,-1.164167 -1.10036,-2.414323 -1.34691,-2.778126 -0.24656,-0.363802 -0.53744,-1.316302 -0.64639,-2.116666 -0.10896,-0.800365 -0.49124,-2.407709 -0.84951,-3.571875 -1.19979,-3.898607 -1.39852,-4.758635 -1.25617,-5.436201 0.11866,-0.564806 0.28626,-0.671626 1.03693,-0.660879 0.49246,0.0071 0.98442,0.101857 1.09324,0.210677 0.3597,0.359693 2.62535,0.205793 4.6239,-0.314092 2.6293,-0.683961 6.83595,-1.10322 14.93264,-1.488268 1.74625,-0.08304 3.71078,-0.269571 4.36563,-0.414502 0.65484,-0.144928 6.96515,-0.317513 14.02291,-0.383521 7.05777,-0.06601 14.20152,-0.230328 15.875,-0.365159 1.67349,-0.134832 4.47146,-0.255419 6.21771,-0.267973 1.74625,-0.01257 4.48469,-0.133604 6.08542,-0.268997 1.60073,-0.135395 4.33917,-0.365524 6.08542,-0.511405 3.64316,-0.304342 8.47388,-0.514958 15.47812,-0.674838 2.69214,-0.06145 6.08542,-0.229563 7.54063,-0.373584 1.45521,-0.144021 4.66915,-0.33999 7.14209,-0.435486 2.47294,-0.0955 4.57156,-0.220167 4.66359,-0.277047 0.70554,-0.436047 30.87795,-0.887424 33.57036,-0.502211 0.50932,0.07287 2.29526,0.190976 3.96875,0.262458 10.21078,0.436145 10.40194,0.461648 10.70889,1.428785 0.18484,0.582369 -0.67183,2.567998 -1.76708,4.095795 -0.40685,0.567536 -0.73973,1.134189 -0.73973,1.259229 0,0.55577 -3.60295,7.512534 -5.29564,10.225116 -1.59584,2.557352 -1.84391,3.113829 -1.71029,3.836459 0.37294,2.016879 -0.89969,2.339197 -7.6447,1.936165 -1.43664,-0.08584 -2.74633,-0.06876 -2.91041,0.03795 -0.16408,0.106717 -1.1913,0.201965 -2.28271,0.211659 -2.81785,0.02503 -9.43193,0.367043 -12.7,0.656707 -3.49168,0.30948 -5.42687,0.421941 -13.49375,0.784164 -5.61003,0.251902 -9.66423,0.533302 -13.22917,0.918226 -2.41321,0.260567 -5.28932,0.42269 -9.65729,0.544372 -2.61937,0.07297 -5.715,0.304795 -6.87916,0.515162 -1.16417,0.210368 -4.61698,0.454933 -7.67292,0.543475 -7.73499,0.224113 -9.3063,0.298405 -13.22917,0.625489 -1.89177,0.157731 -4.27302,0.34957 -5.29166,0.426304 -3.07638,0.231749 -12.9185,0.447535 -18.12396,0.397367 -3.74467,-0.03609 -5.26619,0.05127 -6.47539,0.371772 -2.20399,0.584179 -14.70547,0.90384 -17.07976,0.436726 -1.46679,-0.288573 -1.69522,-0.277669 -1.9014,0.09076 -0.28244,0.504695 -0.57842,0.531979 -0.94744,0.08734 z m 15.1592,-2.429335 c 0.58208,-0.06864 1.9513,-0.266248 3.0427,-0.43914 1.09141,-0.172889 4.72282,-0.348173 8.0698,-0.389519 14.7608,-0.182346 21.27119,-0.431716 27.38437,-1.048914 0.50932,-0.05142 4.1004,-0.224266 7.98016,-0.384099 3.87977,-0.159834 7.33258,-0.348173 7.67292,-0.418531 1.69961,-0.351364 4.75025,-0.638029 7.04957,-0.662437 2.92933,-0.0311 14.29341,-0.717286 14.55962,-0.879144 0.0969,-0.05895 1.96221,-0.184743 4.14502,-0.279549 2.18282,-0.0948 4.68313,-0.222451 5.55625,-0.283657 0.87313,-0.0612 3.4925,-0.182583 5.82084,-0.269732 2.32833,-0.08715 4.65095,-0.250182 5.16136,-0.362296 0.51042,-0.112115 1.82011,-0.232977 2.91042,-0.268579 1.09031,-0.03561 2.33957,-0.113766 2.77613,-0.173688 0.43657,-0.05993 1.68672,-0.160409 2.77813,-0.223295 1.0914,-0.06289 3.59172,-0.247735 5.55625,-0.410774 3.90637,-0.324194 8.22077,-0.396177 9.26041,-0.154503 0.94939,0.220691 1.81878,-0.335908 2.44137,-1.563021 0.29774,-0.586817 1.39723,-2.495688 2.44333,-4.241938 2.42275,-4.044296 4.02703,-7.162374 5.25701,-10.217558 l 0.38534,-0.95714 -3.87446,-0.144772 c -2.13095,-0.07962 -4.29118,-0.278117 -4.8005,-0.441093 -1.65995,-0.531164 -13.96778,-0.782002 -21.29896,-0.434083 -1.74625,0.08287 -5.67531,0.219279 -8.73125,0.303123 -3.05594,0.08385 -6.0325,0.204581 -6.61458,0.2683 -1.04428,0.114311 -2.92764,0.213604 -9.91094,0.522505 -1.95851,0.08663 -3.68212,0.232415 -3.83024,0.323961 -0.14813,0.09155 -2.41524,0.201253 -5.03803,0.243795 -7.9985,0.129738 -13.35863,0.296495 -14.65106,0.4558 -3.55905,0.438687 -9.0896,0.731589 -13.93015,0.737749 -2.32833,0.003 -4.34363,0.07172 -4.47843,0.152791 -0.37656,0.226462 -3.69485,0.308737 -17.48199,0.433464 -6.985,0.06319 -13.41437,0.227476 -14.2875,0.365075 -0.87312,0.137602 -2.77812,0.26779 -4.23333,0.289311 -4.61202,0.0682 -11.58088,0.576636 -13.31173,0.971196 -0.91854,0.209386 -2.25799,0.380701 -2.97656,0.380701 -1.12319,0 -1.3065,0.07308 -1.3065,0.520888 0,1.000593 2.20423,8.824984 2.83472,10.062445 0.18536,0.363803 0.33775,0.790417 0.33865,0.948034 0.005,0.895065 3.10808,7.016586 3.76188,7.42138 0.18743,0.116047 0.81704,0.284248 1.39912,0.373783 1.14019,0.175376 10.4288,0.07858 12.17084,-0.126839 z m 21.5479,-2.864541 -0.88764,-0.59818 0.0276,-6.210589 c 0.0314,-7.064502 0.006,-6.983322 1.98888,-6.393376 0.62467,0.185865 1.43342,0.405958 1.79722,0.489096 0.86622,0.197951 1.5875,0.841909 1.5875,1.417307 0,0.546044 -1.02918,0.865227 -2.00232,0.620987 -0.65117,-0.163435 -0.67591,-0.127907 -0.59531,0.854853 l 0.0841,1.025377 h 1.55511 c 1.14204,0 1.6276,0.113435 1.82804,0.427059 0.48265,0.755176 -0.003,1.270391 -1.62373,1.720858 l -1.56742,0.435782 -0.13184,1.486275 c -0.15565,1.754561 0.056,2.096008 1.02531,1.654347 0.58866,-0.268213 0.78229,-0.248467 1.19105,0.121447 1.143,1.034402 0.70155,2.229125 -0.97956,2.651056 -0.40289,0.101119 -1.03811,0.343326 -1.41161,0.538237 -0.87544,0.45685 -0.84469,0.460774 -1.88536,-0.240536 z m 8.4823,-1.783066 c -0.46723,-0.467239 -0.52916,-0.881944 -0.52916,-3.543568 0,-2.504665 0.0708,-3.041557 0.41851,-3.175 0.75377,-0.289248 1.89132,-0.168576 2.22732,0.236276 0.18116,0.218281 0.61421,0.396875 0.96233,0.396875 0.35199,0 1.07162,0.402275 1.62125,0.90628 0.93644,0.858721 0.98781,0.990613 0.97902,2.513367 -0.0122,2.106676 -0.48739,2.684743 -1.64498,2.00094 -0.57335,-0.33869 -0.78662,-0.670192 -0.80306,-1.248256 -0.049,-1.722993 -0.83922,-1.035733 -0.84592,0.73569 -0.002,0.589359 -0.14693,1.214437 -0.32155,1.389062 -0.48186,0.481854 -1.47176,0.380326 -2.06376,-0.211666 z m 26.78843,-0.18681 c -0.64247,-0.123703 -1.91759,-1.605571 -1.91759,-2.228514 0,-0.20955 0.36647,-0.597479 0.81437,-0.862062 0.81138,-0.479296 0.8125,-0.483151 0.30395,-1.049235 -0.83432,-0.928695 -0.8947,-1.1767 -0.48119,-1.976334 0.64716,-1.251482 2.11208,-2.331339 4.03448,-2.973996 2.588,-0.865166 2.89642,-0.839875 3.33372,0.273375 0.2247,0.57204 0.29157,1.216266 0.17246,1.661626 -0.22272,0.832792 -0.24737,0.817552 0.72452,0.448043 0.88906,-0.338021 1.9456,0.117409 1.9456,0.838663 0,0.528304 -2.74112,2.880243 -3.35684,2.880243 -0.55333,0 -1.88692,0.95013 -3.02874,2.157865 -0.9252,0.978618 -1.24041,1.081466 -2.54474,0.830326 z m -15.94051,-1.554337 c -2.17636,-1.236474 -3.54173,-3.013326 -3.54153,-4.608854 2e-4,-1.580893 2.02323,-3.111145 4.4432,-3.360909 1.58575,-0.163663 1.74877,-0.02588 2.23163,1.886093 0.32256,1.277228 0.31192,1.327526 -0.53156,2.513542 -0.47339,0.665628 -0.95478,1.24992 -1.06976,1.298426 -0.11499,0.04851 -0.20906,0.194784 -0.20906,0.325057 0,0.130275 0.29717,0.101462 0.66038,-0.06403 0.54566,-0.248618 0.7525,-0.217527 1.19063,0.17897 0.63696,0.57644 0.67139,1.136914 0.11836,1.926476 -0.55756,0.796023 -1.78664,0.760643 -3.29229,-0.09477 z m 0.20318,-4.873437 c 0.3928,-0.628965 0.009,-0.7038 -0.58115,-0.113392 -0.50289,0.502888 -0.52083,0.642559 -0.0825,0.642559 0.18328,0 0.48194,-0.238125 0.6637,-0.529167 z m 5.35307,4.418066 c -0.65547,-0.333587 -0.66089,-0.365123 -0.59836,-3.48433 0.0666,-3.322802 0.16001,-3.567809 1.36294,-3.575519 0.77529,-0.005 1.33245,0.679043 1.34367,1.649596 0.008,0.662635 0.097,0.727736 1.00061,0.72908 0.5457,7.94e-4 1.44595,0.127482 2.00056,0.281488 0.80661,0.223985 0.9919,0.390956 0.92604,0.834472 -0.0472,0.317569 -0.30842,0.585724 -0.6115,0.627642 -2.53179,0.350147 -2.81014,0.439073 -3.19028,1.019228 -0.22116,0.337542 -0.37391,0.716862 -0.33944,0.842933 0.0345,0.126071 -0.0285,0.49711 -0.13986,0.824532 -0.22766,0.669142 -0.77791,0.747829 -1.75438,0.250878 z m 20.25563,-2.889438 c -0.59723,-0.85266 -0.55787,-3.670959 0.0619,-4.436407 0.45663,-0.563911 0.51013,-0.569984 1.47389,-0.167298 l 1.00006,0.417853 -0.18472,2.188507 c -0.1016,1.203679 -0.23609,2.277806 -0.29888,2.386946 -0.25756,0.447707 -1.65112,0.183158 -2.0523,-0.389601 z m 0.97334,-7.877371 c -0.40023,-0.372872 -0.59147,-0.858383 -0.59147,-1.501609 v -0.950573 l 1.08019,0.144883 c 0.5941,0.07969 1.14934,0.214042 1.23387,0.298571 0.0845,0.08453 0.16399,0.660086 0.17658,1.279017 0.0206,1.012325 -0.0439,1.133132 -0.6424,1.203037 -0.39496,0.04613 -0.90565,-0.146206 -1.25677,-0.473326 z m -95.96426,-7.978556 c -0.34796,-0.273703 -0.77477,-0.942266 -0.94848,-1.485693 -0.1737,-0.543428 -0.52148,-1.345237 -0.77283,-1.7818 -0.25135,-0.436562 -0.72509,-1.473681 -1.05275,-2.304709 -0.32767,-0.831027 -0.76242,-1.649277 -0.96612,-1.818335 -0.2037,-0.169056 -0.37036,-0.533893 -0.37036,-0.81075 0,-0.276855 -0.41672,-1.330867 -0.92604,-2.342248 -0.50933,-1.01138 -0.92604,-1.979144 -0.92604,-2.150583 0,-0.402231 -1.342435,-3.094162 -2.556001,-5.125459 -0.964325,-1.614109 -2.0347,-3.994224 -3.106562,-6.907834 -0.729159,-1.982055 -0.557336,-2.59407 0.890981,-3.173571 0.587076,-0.234903 1.06741,-0.550413 1.06741,-0.701138 0,-0.184206 0.672207,-0.202488 2.050521,-0.05577 1.127787,0.120052 9.253801,0.250407 18.057811,0.289676 15.75045,0.07026 17.57514,0.0063 24.37081,-0.85408 1.87736,-0.237689 25.22275,-0.12023 26.61326,0.1339 0.69913,0.12777 3.26889,0.246129 5.71058,0.263014 2.4417,0.01688 4.52529,0.05152 4.63021,0.07696 0.10492,0.02545 1.91717,-0.05143 4.02722,-0.170825 6.83349,-0.386668 7.68985,-0.414679 16.13959,-0.527923 4.5839,-0.06144 10.12031,-0.230524 12.30312,-0.375751 2.18282,-0.145227 4.97328,-0.278821 6.20103,-0.296876 1.22775,-0.01804 2.31186,-0.08201 2.40913,-0.142126 0.0973,-0.06011 2.72415,-0.230883 5.83751,-0.379486 3.11337,-0.148604 6.61317,-0.391288 7.77733,-0.539298 1.16417,-0.148011 3.24776,-0.339937 4.63021,-0.4265 1.38245,-0.08657 3.1055,-0.250611 3.829,-0.364543 0.72351,-0.113935 1.52077,-0.131205 1.77171,-0.03838 0.25093,0.09283 1.38538,0.09731 2.52099,0.01 2.77859,-0.21372 26.33865,-0.129509 26.70263,0.09544 0.15845,0.09793 1.76807,-0.106223 3.57694,-0.453671 3.00961,-0.578085 3.44358,-0.602644 5.11131,-0.289242 2.09665,0.394004 2.63803,0.870061 2.22496,1.956506 -0.14632,0.384858 -0.41513,0.878552 -0.59736,1.0971 -0.18223,0.218549 -0.66829,1.166969 -1.08015,2.107602 -0.41186,0.940634 -1.08792,2.285328 -1.50235,2.988207 -0.41443,0.702879 -0.75351,1.384665 -0.75351,1.515081 0,0.31206 -1.23345,2.616372 -2.5515,4.766678 -0.57979,0.945886 -1.20983,2.106745 -1.4001,2.579688 -0.19026,0.472942 -0.43683,0.859895 -0.54793,0.859895 -0.21711,-10e-6 -2.9088,5.408243 -2.9088,5.844459 0,0.144115 -0.24055,0.733536 -0.53455,1.309822 -0.47812,0.937191 -0.6387,1.047954 -1.52135,1.049324 -0.54275,7.94e-4 -1.70119,0.118925 -2.57431,0.262403 -2.01363,0.330894 -6.41008,0.679146 -14.94896,1.184135 -3.71078,0.219456 -7.34219,0.466659 -8.06979,0.549341 -0.72761,0.08268 -1.73964,0.199316 -2.24896,0.259189 -0.50932,0.05987 -1.93807,0.227856 -3.175,0.373298 -4.17694,0.49113 -16.95226,0.938506 -26.85521,0.940432 -17.99602,0.0035 -31.69435,-0.428461 -37.81134,-1.192342 -5.5246,-0.689906 -11.99365,-0.272738 -30.90877,1.993202 -2.37696,0.284747 -5.17976,0.378774 -9.525,0.319534 -5.91386,-0.08062 -6.88287,-0.02641 -10.36965,0.580062 -1.75397,0.305078 -12.89631,0.417476 -13.99711,0.141192 -0.65378,-0.164089 -0.70792,-0.114784 -0.70792,0.644756 0,0.452339 -0.0893,0.837628 -0.19844,0.856199 -1.00026,0.170209 -1.50001,0.08741 -2.04102,-0.338148 z m 17.32071,-3.69656 c 1.37461,-0.316201 3.09728,-0.348303 14.15521,-0.263771 2.03729,0.01558 4.00182,-0.0195 4.36562,-0.07796 1.92927,-0.309988 7.84656,-1.029436 9.92188,-1.206344 1.30968,-0.111641 3.48427,-0.353327 4.83241,-0.53708 2.30873,-0.314682 2.46082,-0.374338 2.61723,-1.026602 0.37538,-1.565323 1.13734,-2.658647 2.01055,-2.884922 1.12456,-0.291401 1.33304,-1.114475 0.28264,-1.115867 -0.41085,-5.29e-4 -1.13395,-0.236918 -1.6069,-0.525277 -0.76109,-0.46405 -0.85758,-0.653931 -0.83976,-1.652656 0.0339,-1.900963 0.54909,-2.939894 1.56038,-3.146724 0.70742,-0.144685 0.99325,-0.06215 1.48389,0.428495 0.69148,0.691475 0.90261,0.604906 0.9084,-0.372467 0.006,-1.090324 0.37863,-1.425805 1.61144,-1.452581 0.95631,-0.02077 1.19078,0.08001 1.48144,0.636783 0.76577,1.466855 -0.21127,5.889919 -1.97519,8.941639 -0.36128,0.625039 -0.57459,1.218705 -0.47404,1.31926 0.10056,0.100555 1.91681,0.154956 4.03613,0.120891 2.11931,-0.03407 4.58158,0.05194 5.47171,0.191114 0.89013,0.139179 2.51139,0.319921 3.60279,0.401651 1.09141,0.08173 3.23453,0.263593 4.7625,0.404137 5.41052,0.497671 32.5998,0.75832 42.8625,0.410904 9.32218,-0.315582 12.53858,-0.548659 20.6375,-1.495502 1.38245,-0.161621 4.29948,-0.371361 6.48229,-0.46609 2.18282,-0.09473 4.08782,-0.248984 4.23334,-0.342789 0.27863,-0.17961 5.99098,-0.852726 6.85197,-0.807405 0.27609,0.01452 1.16431,-0.146093 1.97382,-0.356944 0.80951,-0.210852 2.05329,-0.383366 2.76394,-0.383366 1.11964,0 1.31188,-0.07946 1.44034,-0.595312 0.21199,-0.851353 2.9346,-6.05949 5.05917,-9.677792 1.93409,-3.293925 5.0618,-9.383369 5.0618,-9.855007 0,-0.36535 -2.50283,-0.26893 -3.57188,0.137605 -0.51727,0.196707 -1.30062,0.228766 -2.24895,0.09204 -1.70972,-0.246491 -20.48067,-0.296129 -29.23646,-0.07731 -3.34698,0.08365 -8.10948,0.328035 -10.58334,0.543089 -2.47385,0.215056 -5.86713,0.450267 -7.54062,0.522695 -2.86226,0.123875 -6.19375,0.32518 -8.59896,0.519591 -0.58208,0.04705 -3.0824,0.159475 -5.55625,0.249835 -2.47385,0.09036 -4.8551,0.220557 -5.29167,0.289328 -0.43656,0.06877 -5.49672,0.18828 -11.24479,0.265578 -5.74807,0.0773 -11.28448,0.240977 -12.30312,0.363733 -2.14668,0.258694 -8.42779,0.143978 -14.68438,-0.26819 -5.44844,-0.358931 -26.9571,-0.33569 -29.63333,0.03202 -2.71218,0.372647 -13.22916,0.729062 -18.38854,0.623179 -2.32834,-0.04778 -7.1124,-0.09889 -10.63125,-0.11357 -3.51885,-0.01468 -7.43092,-0.120843 -8.69348,-0.235921 -1.776851,-0.161951 -2.464183,-0.125106 -3.041825,0.16306 l -0.746269,0.372287 0.610047,1.776093 c 0.818292,2.382382 1.753605,4.31074 3.171417,6.538592 0.64827,1.018646 1.24803,2.124335 1.3328,2.457088 0.0848,0.33275 0.5234,1.404313 0.97472,2.38125 0.45133,0.976934 0.90065,2.014371 0.99849,2.305412 0.0978,0.291042 0.88084,1.99031 1.73999,3.776152 l 1.56209,3.246985 7.28767,-0.119147 c 4.49996,-0.07357 7.84433,-0.247195 8.74289,-0.45389 z m 29.64626,-4.734859 c -1.33598,-0.314518 -1.59909,-0.851757 -1.60987,-3.287165 -0.0143,-3.22589 -0.42123,-7.141091 -0.80636,-7.757779 -0.28195,-0.451464 -0.28025,-0.624795 0.01,-0.973955 0.19389,-0.233617 0.41389,-0.363379 0.48891,-0.288364 0.075,0.07501 0.2664,0.03273 0.42531,-0.09396 0.35401,-0.282231 2.83621,-0.976813 4.20585,-1.176898 0.77727,-0.113552 1.12375,-0.02978 1.52135,0.367815 0.55799,0.557985 0.61087,0.760238 0.31237,1.19456 -0.18184,0.26457 -1.99964,1.179295 -3.03866,1.529069 -0.48281,0.162531 -0.56977,0.672939 -0.2916,1.71163 0.14183,0.529627 0.31247,0.604665 1.25315,0.551079 1.39303,-0.07935 2.21255,0.192114 2.40435,0.796446 0.26088,0.821952 -0.1388,1.330492 -1.27644,1.624113 -2.30438,0.594757 -2.11501,0.309994 -1.94555,2.92558 0.12234,1.888374 0.074,2.428261 -0.24624,2.748473 -0.21917,0.219171 -0.41975,0.386303 -0.44574,0.371407 -0.026,-0.0149 -0.45815,-0.12382 -0.96036,-0.242052 z m 31.73707,-1.847532 c -0.69999,-0.699995 -0.66692,-1.883482 0.10512,-3.760666 l 0.62172,-1.511705 -1.09102,0.148407 c -0.86656,0.117875 -1.24072,0.03029 -1.81863,-0.425727 -0.89924,-0.709565 -0.90301,-1.004753 -0.0374,-2.933518 0.67007,-1.493099 1.72172,-2.381467 2.78939,-2.356294 1.07186,0.02527 1.81011,1.922565 0.88606,2.277155 -0.21828,0.08376 -0.39688,0.325178 -0.39688,0.536479 0,0.211299 0.10659,0.318307 0.23687,0.237795 0.13027,-0.08051 0.30512,0.03152 0.38857,0.248967 0.0834,0.217445 0.38682,0.395357 0.67417,0.395357 0.66037,0 1.34623,0.960183 1.34623,1.884682 0,0.389734 -0.29649,1.345507 -0.65888,2.12394 -0.36238,0.778436 -0.66003,1.733021 -0.66145,2.1213 -0.001,0.388281 -0.0749,0.894297 -0.16319,1.124479 -0.22803,0.594244 -1.58328,0.526714 -2.22065,-0.110651 z m -14.35364,-0.02119 c -0.55922,-0.325713 -0.6029,-1.237065 -0.0868,-1.810057 0.20694,-0.229741 0.45421,-0.730163 0.5495,-1.112052 0.15947,-0.639157 0.0928,-0.709282 -0.83928,-0.882282 -1.1822,-0.219435 -1.93857,-0.812414 -1.93857,-1.519799 0,-0.61523 1.53092,-3.024333 2.47155,-3.889325 0.74722,-0.687128 2.0501,-0.81956 2.70617,-0.275071 0.20819,0.172786 0.37778,0.68653 0.37686,1.141653 -0.001,0.641393 -0.17981,0.928868 -0.79375,1.278216 -0.82235,0.467939 -1.05507,1.004493 -0.43569,1.004493 0.64503,0 1.54142,1.013997 1.76235,1.993548 0.17152,0.7605 0.0917,1.232937 -0.38028,2.251729 -0.32854,0.709112 -0.74961,1.472768 -0.93572,1.697011 -0.38209,0.460393 -1.75802,0.528695 -2.45638,0.121936 z m 6.1667,-1.210271 c -0.48481,-0.616347 -0.54172,-0.991219 -0.46499,-3.063012 0.0916,-2.473013 0.27082,-2.836961 1.40103,-2.845224 1.09906,-0.008 1.43007,0.771668 1.43007,3.36858 0,1.322708 -0.0723,2.593255 -0.1606,2.823438 -0.26354,0.686781 -1.57477,0.518067 -2.20551,-0.283782 z m 15.75385,-2.274266 c -0.0715,-0.472942 -0.20972,-1.336145 -0.30717,-1.918229 -0.2512,-1.500515 -0.24469,-1.744197 0.14368,-5.378447 0.22003,-2.05893 0.48731,-3.400529 0.72481,-3.638021 0.54681,-0.546817 1.76747,-0.460722 2.33336,0.164576 0.42582,0.470527 0.45107,0.684551 0.19426,1.646685 -0.36832,1.379921 -0.23311,1.612109 0.6701,1.150686 1.29937,-0.663805 2.39967,-0.774653 3.1046,-0.312764 0.98719,0.646835 0.72215,1.99468 -0.3944,2.005711 -0.9855,0.0097 -1.16171,0.397854 -0.73537,1.619655 0.96827,2.774815 1.08208,3.366553 0.72926,3.791672 -0.18508,0.223002 -0.48639,0.405456 -0.66958,0.405456 -0.5332,0 -1.94521,-1.596218 -2.26253,-2.557683 -0.16007,-0.485044 -0.40382,-0.881901 -0.54166,-0.881901 -0.41248,0 -0.76669,1.266976 -0.76669,2.742433 0,1.562513 -0.30891,2.020067 -1.36384,2.020067 -0.61923,0 -0.74839,-0.12932 -0.85883,-0.859896 z m 12.80601,0.408202 c -1.72181,-0.190442 -3.0038,-0.999313 -4.06706,-2.566109 -0.71747,-1.057246 -0.88536,-2.218367 -0.44086,-3.048918 0.41137,-0.768657 2.82415,-2.476482 3.63179,-2.570671 0.40911,-0.04771 1.36164,0.04803 2.11674,0.212768 1.12105,0.24457 1.42952,0.4362 1.68153,1.044585 0.26193,0.632354 0.22618,0.878459 -0.2363,1.626762 -0.67588,1.093597 -1.94381,2.241709 -2.8931,2.619719 -0.4982,0.198379 -0.59699,0.323569 -0.32191,0.407934 0.21828,0.06694 0.57547,0.189701 0.79375,0.272794 0.21828,0.08309 0.61423,0.193349 0.87989,0.245012 1.32738,0.258141 1.84316,0.966438 1.18386,1.625735 -0.31501,0.315013 -0.54344,0.327805 -2.32833,0.130389 z m -0.2028,-5.347274 c 0.47514,-0.424535 0.78574,-0.850032 0.69022,-0.945549 -0.23349,-0.233498 -1.55841,0.471349 -2.1827,1.161179 -0.49667,0.548815 -0.49583,0.556255 0.0626,0.556255 0.3113,0 0.95475,-0.347348 1.42988,-0.771885 z m -26.63598,-0.695383 c -0.57651,-0.879869 -0.31518,-1.629127 0.6415,-1.839249 0.9726,-0.213619 1.80266,0.225304 2.01331,1.064604 0.26959,1.074135 -0.0345,1.448163 -1.1773,1.448163 -0.81827,0 -1.12902,-0.141655 -1.47751,-0.673518 z"
       id="path1840" />
  </g>
</svg>
