<?xml version="1.0" encoding="UTF-8" standalone="no"?>
<svg
   xmlns:dc="http://purl.org/dc/elements/1.1/"
   xmlns:cc="http://creativecommons.org/ns#"
   xmlns:rdf="http://www.w3.org/1999/02/22-rdf-syntax-ns#"
   xmlns:svg="http://www.w3.org/2000/svg"
   xmlns="http://www.w3.org/2000/svg"
   version="1.1"
   id="svg4162"
   viewBox="0 0 477.60926 507.69466"
   height="143.28271mm"
   width="134.79195mm">
  <defs
     id="defs4164" />
  <metadata
     id="metadata4167">
    <rdf:RDF>
      <cc:Work
         rdf:about="">
        <dc:format>image/svg+xml</dc:format>
        <dc:type
           rdf:resource="http://purl.org/dc/dcmitype/StillImage" />
        <dc:title></dc:title>
      </cc:Work>
    </rdf:RDF>
  </metadata>
  <g
     transform="translate(-75.872593,-110.3379)"
     id="layer1">
    <path
       id="path4181"
       d="m 96.266043,617.86761 c -2.197595,-0.23377 -4.55571,-1.68606 -7.358474,-4.53185 -4.879524,-4.95444 -5.625781,-6.63475 -5.744794,-12.93529 -0.04932,-2.61109 -0.494679,-5.53609 -0.989683,-6.5 -0.495004,-0.9639 -1.222089,-5.80255 -1.615746,-10.75255 -0.393656,-4.95 -0.950612,-11.25 -1.237679,-14 -0.287067,-2.75 -0.648479,-8.6 -0.803138,-13 -0.154659,-4.4 -0.542089,-10.925 -0.860956,-14.5 -0.318867,-3.575 -0.812053,-9.2 -1.095969,-12.5 -0.824499,-9.58328 -0.930691,-35.15803 -0.188925,-45.5 0.374757,-5.225 0.89526,-12.8476 1.156673,-16.93912 0.261414,-4.09151 1.203116,-10.16651 2.092672,-13.5 3.550921,-13.30657 7.493524,-25.51302 8.426847,-26.08985 0.542164,-0.33507 0.735022,-1.01492 0.428574,-1.51076 -0.306448,-0.49584 0.07357,-2.15225 0.844483,-3.6809 0.770914,-1.52865 2.16601,-6.15437 3.100213,-10.27937 0.934203,-4.125 2.153025,-8.33132 2.708493,-9.34738 0.555468,-1.01606 0.788078,-2.06924 0.516911,-2.34041 -0.271167,-0.27117 0.147654,-2.30892 0.930712,-4.52835 C 97.359316,393.21236 98,390.15962 98,388.64792 c 0,-1.5117 0.71282,-4.71762 1.584044,-7.12427 0.871226,-2.40665 1.784646,-7.75073 2.029826,-11.87573 0.80548,-13.55163 4.30945,-29.59179 8.19185,-37.5 1.08006,-2.2 2.28717,-6.025 2.68248,-8.5 0.80375,-5.03217 2.84404,-10.01647 5.93548,-14.5 1.1377,-1.65 2.01508,-3.225 1.94975,-3.5 -0.40228,-1.69321 5.40515,-13.92483 8.95131,-18.85328 1.8389,-2.5557 5.44216,-8.05797 8.00725,-12.22727 2.56508,-4.1693 7.25224,-10.0704 10.4159,-13.11356 3.16366,-3.04316 6.74281,-6.83191 7.95367,-8.41945 1.21086,-1.58754 4.13586,-5.29292 6.5,-8.23418 2.36414,-2.94125 5.19844,-6.5072 6.29844,-7.92432 9.93152,-12.79469 27.89463,-24.58496 40.08721,-26.31164 3.614,-0.51181 7.50277,-1.42927 8.64171,-2.03881 1.28981,-0.69029 3.80569,-0.83235 6.67094,-0.37668 2.53007,0.40237 6.52515,0.85689 8.87794,1.01006 3.75389,0.24437 4.96856,0.9956 9.91783,6.13381 11.36884,11.80282 16.34336,19.37093 24.22507,36.85532 1.23966,2.75 4.43738,8.64534 7.10604,13.10075 2.66866,4.45542 6.67357,12.04329 8.89979,16.86194 3.13429,6.78416 4.40753,8.6231 5.64236,8.14925 0.87708,-0.33657 2.65074,-0.61194 3.94147,-0.61194 1.29073,0 2.96043,-0.5625 3.71044,-1.25 0.75002,-0.6875 2.24466,-1.75391 3.32143,-2.36979 1.52166,-0.87035 1.92268,-2.09552 1.80024,-5.5 -0.0866,-2.40912 -0.44535,-13.15521 -0.79714,-23.88021 -0.35179,-10.725 -1.12194,-20.85 -1.71145,-22.5 -1.14067,-3.19268 -2.85138,-24.9649 -3.35838,-42.74204 -0.1685,-5.90812 -0.79441,-13.01777 -1.39093,-15.79922 C 293.48806,172.82521 293,168.12318 293,165.15772 c 0,-2.96547 -0.46823,-5.68115 -1.04052,-6.03484 C 288.93099,157.25116 286,150.48615 286,145.36779 c 0,-2.92593 -0.45727,-5.77714 -1.01616,-6.33603 -1.34618,-1.34618 -2.09348,-9.19805 -0.94308,-9.90903 1.01047,-0.6245 4.95924,-9.1719 4.95924,-10.73463 0,-1.29404 3.6942,-4.51204 7.37946,-6.42823 3.71022,-1.92916 21.82631,-2.20591 30.12054,-0.46013 13.93491,2.93303 16.7275,3.05995 21.22278,0.96453 2.836,-1.32198 4.97062,-1.71417 6.5,-1.19425 1.25247,0.42578 2.56114,0.70285 2.90815,0.61571 1.67091,-0.41958 3.91758,3.90672 4.08039,7.85739 0.13475,3.26987 -0.75129,6.33723 -3.43883,11.9048 -1.99119,4.125 -5.01414,10.62082 -6.71766,14.43516 -1.70352,3.81434 -4.85654,9.21545 -7.00671,12.00247 -5.41528,7.0192 -6.04812,9.22305 -6.04812,21.06237 0,5.70339 -0.46397,11.59013 -1.03104,13.08164 -1.07991,2.84037 -1.18989,10.82141 -0.60525,43.91836 0.3688,20.8774 2.05959,31.85084 5.52368,35.84917 1.53592,1.77281 1.73598,1.69428 4.84422,-1.90142 2.4455,-2.82902 3.21572,-4.6348 3.13464,-7.34917 -0.0591,-1.97922 0.62505,-7.37802 1.52039,-11.99734 1.39401,-7.19211 2.43297,-9.59631 7.23161,-16.73424 3.08204,-4.58452 7.3598,-9.80508 9.50614,-11.60125 2.14633,-1.79616 5.98062,-5.06575 8.52066,-7.26575 l 4.61824,-4 12.11836,0.15349 c 15.40738,0.19515 36.7099,1.91742 37.50712,3.03239 0.9158,1.28078 5.93291,3.31412 8.17736,3.31412 2.35197,0 13.32843,11.09537 15.58977,15.75866 0.86911,1.79226 2.6443,4.26726 3.94487,5.5 1.30057,1.23274 2.37245,2.61026 2.38195,3.06116 0.01,0.45091 1.31938,2.71237 2.91084,5.02547 5.46618,7.94483 9.24361,14.98032 13.12474,24.44495 2.13829,5.2145 4.74286,10.4324 5.78794,11.59534 1.04507,1.16293 3.93938,5.93942 6.43179,10.61442 2.49241,4.675 6.38348,11.64286 8.64682,15.48413 2.26333,3.84127 4.11515,7.51703 4.11515,8.16835 0,0.65131 1.92186,3.43573 4.27081,6.18759 2.34894,2.75186 4.88616,6.7261 5.63825,8.83165 0.7521,2.10556 2.57608,5.40328 4.05329,7.32828 4.86656,6.34178 9.80048,16.40194 11.03493,22.5 0.66804,3.3 2.57164,10.05 4.23024,15 3.07162,9.16709 3.4407,11.9368 5.73001,43 0.64855,8.8 1.83776,19.6 2.64269,24 0.80494,4.4 1.68883,9.575 1.9642,11.5 0.27537,1.925 1.4217,6.65 2.54738,10.5 4.91344,16.80461 9.66002,42.64235 9.35621,50.93001 -0.52942,14.44209 -2.39873,35.57209 -3.29523,37.24806 -0.8816,1.64814 -2.16707,7.77849 -3.63351,17.3281 -0.34551,2.25001 -2.14516,5.29531 -5.02315,8.5 -2.46661,2.74661 -4.49181,5.35602 -4.50043,5.7987 -0.0224,1.15131 -7.58371,12.13354 -11.15225,16.19788 -1.86982,2.12961 -4.22243,3.61882 -6.18983,3.91819 -19.72074,3.00072 -19.07354,2.97456 -24.24454,0.98016 -4.29754,-1.65753 -7.49893,-1.88676 -24.98679,-1.78919 -13.22979,0.0738 -20.804,0.51131 -22.25,1.28518 -1.42226,0.76118 -2.19228,0.80968 -2.19228,0.13809 0,-0.56935 -1.05718,-1.03518 -2.3493,-1.03518 -1.29211,0 -5.37401,-1.60514 -9.07089,-3.56698 -6.6606,-3.53461 -11.71483,-4.73752 -24.79981,-5.90235 -7.40821,-0.65948 -11.81718,-1.99561 -19.60125,-5.94009 C 387.33044,588.79515 385,587.85329 385,588.14547 c 0,0.29218 -2.68717,-0.82524 -5.97148,-2.48315 -3.28432,-1.65792 -6.55563,-3.0144 -7.26958,-3.0144 -0.71395,0 -5.9876,-2.3625 -11.71922,-5.25 -11.10608,-5.59507 -11.47273,-5.98135 -15.89873,-16.75 -2.33663,-5.68513 -4.40369,-13.09345 -6.56618,-23.53308 -1.23977,-5.98511 -1.23266,-19.89874 0.0156,-30.46692 0.35729,-3.025 0.64952,-12.93401 0.6494,-22.02003 -1.2e-4,-9.08602 0.6401,-21.23602 1.42271,-27 0.78261,-5.76398 1.17948,-12.80239 0.88195,-15.6409 -0.29754,-2.83851 -0.0938,-9.58851 0.45273,-15 0.68238,-6.75643 0.66205,-11.56225 -0.0649,-15.33907 -1.12883,-5.86493 -1.68896,-10.46906 -2.25068,-18.5 -0.5742,-8.20931 -3.86837,-21.63443 -5.45821,-22.24451 -0.79549,-0.30526 -2.7635,0.22305 -4.37336,1.17401 -7.49507,4.42745 -7.98037,4.55447 -11.14624,2.91733 -3.20405,-1.65687 -4.65583,-0.7733 -4.6885,2.85348 -0.008,0.93517 -0.71489,2.09181 -1.56993,2.57032 -1.3607,0.76149 -1.41287,1.98388 -0.41824,9.79969 0.62501,4.91132 1.56151,10.59666 2.0811,12.63407 0.95854,3.75861 -0.30842,15.39821 -2.03444,18.69044 -0.46285,0.88284 -1.14531,3.63017 -1.51659,6.10517 -0.81457,5.43008 -4.18096,12.69755 -7.26614,15.68641 -3.73716,3.62047 -6.27371,9.50631 -6.18274,14.3465 0.0462,2.4569 -0.25481,6.04209 -0.66887,7.96709 -0.41406,1.925 -0.80821,21.5 -0.8759,43.5 -0.10574,34.36772 -0.35121,40.56323 -1.74332,44 -6.34328,15.66004 -8.14128,18.99795 -13.4011,24.8786 -3.4842,3.89545 -7.02124,6.78542 -9.27546,7.5786 -2.00403,0.70514 -4.56971,2.12544 -5.70152,3.15623 -1.61676,1.47244 -3.74614,1.89953 -9.93446,1.99255 -8.90225,0.13382 -12.98923,1.72569 -20.70415,8.0642 -9.1714,7.53514 -17.55677,10.51691 -31.82487,11.31665 -14.29636,0.80132 -22.48746,1.52581 -23.97868,2.12087 -0.825,0.32921 -7.73472,0.77252 -15.35494,0.98514 -7.62022,0.21263 -15.54593,0.84192 -17.61269,1.39844 -2.06676,0.55652 -9.55704,1.20326 -16.64506,1.43719 -7.08802,0.23394 -14.68731,0.6861 -16.88731,1.00481 -6.07653,0.8803 -11.647725,1.1679 -15.233957,0.78641 z M 128.5,608.56956 c 8.8,-0.55947 18.7,-1.21927 22,-1.4662 3.3,-0.24694 10.275,-0.64259 15.5,-0.87921 51.24299,-2.32068 53.65493,-2.76623 63.99353,-11.8214 2.47145,-2.16464 7.29753,-5.615 10.72464,-7.66746 6.25806,-3.7479 8.66952,-4.14266 15.431,-2.52613 2.33691,0.55871 2.72736,0.2774 3.31247,-2.38659 0.57363,-2.6117 1.2294,-3.11371 4.85083,-3.71344 5.92302,-0.98087 6.97738,-1.71554 12.06724,-8.40827 6.56095,-8.62708 9.52419,-17.95954 9.73725,-30.66662 0.0933,-5.56252 -0.12723,-10.59392 -0.49,-11.1809 -0.36277,-0.58697 -0.20793,-1.34636 0.34409,-1.68753 0.63204,-0.39062 0.99446,-10.50614 0.97879,-27.31909 -0.0367,-39.40261 0.5009,-46.27915 4.23731,-54.1988 14.45527,-30.63922 15.06526,-32.65178 13.66584,-45.088 -0.58251,-5.1766 -1.19846,-17.062 -1.36877,-26.412 -0.17031,-9.35 -0.52236,-18.575 -0.78234,-20.5 -1.61066,-11.92636 -3.05271,-19.7429 -4.28845,-23.24538 C 297.63604,327.1992 297,324.10304 297,322.52219 c 0,-1.58085 -0.42885,-2.87427 -0.953,-2.87427 -0.52414,0 -1.40257,-1.62822 -1.95205,-3.61828 -0.54948,-1.99005 -1.62151,-4.35255 -2.38231,-5.25 -0.76079,-0.89744 -2.00408,-3.20672 -2.76287,-5.13172 -0.75879,-1.925 -2.56402,-5.3 -4.01163,-7.5 -3.8251,-5.8132 -9.83158,-17.97921 -9.99223,-20.2391 -0.0298,-0.4185 -1.81546,-3.2359 -3.96823,-6.2609 -4.16087,-5.84669 -8.94931,-15.19195 -12.11592,-23.64582 -4.39527,-11.73398 -18.28275,-28.34374 -26.00632,-31.10418 -7.11213,-2.54191 -15.42473,-0.79182 -17.86098,3.76035 -1.49362,2.79085 -3.57405,2.47729 -6.08347,-0.91687 -1.97552,-2.67204 -2.40147,-2.81891 -5.27993,-1.82062 -1.72208,0.59724 -5.47194,2.58018 -8.33302,4.40652 -2.86108,1.82634 -5.64793,3.32062 -6.193,3.32062 -3.06845,0 -33.76684,34.78534 -42.88269,48.59175 -1.25271,1.89729 -4.72559,6.61789 -7.71751,10.49023 -2.99193,3.87234 -6.83962,10.05053 -8.55043,13.72932 -1.71081,3.67878 -3.7391,7.8137 -4.50732,9.1887 -3.37146,6.03445 -5.66512,11.88933 -6.84875,17.48245 -0.70041,3.30965 -2.25623,7.93108 -3.45739,10.26984 -3.20093,6.23246 -7.40394,24.83061 -6.82354,30.19392 0.28952,2.67543 -0.27906,7.34858 -1.42764,11.73372 -1.04983,4.00814 -2.17234,9.65447 -2.49447,12.54741 -0.32213,2.89293 -0.95852,5.95654 -1.41421,6.808 -0.45569,0.85146 -1.76767,6.41462 -2.9155,12.36256 -1.147838,5.94794 -3.183795,13.57917 -4.524353,16.95827 -4.14758,10.45469 -7.49191,21.58761 -9.615975,32.01058 -2.624284,12.87758 -3.842056,52.01441 -2.033485,65.35226 0.654872,4.82954 1.344968,15.75599 1.533547,24.28099 0.478064,21.61152 2.366299,43.64741 4.379243,51.10621 1.443025,5.347 2.30536,6.72777 5.697897,9.12348 3.676833,2.59647 4.518996,2.77826 10.497536,2.26605 3.575,-0.30628 13.7,-1.01463 22.5,-1.5741 z m 388.43453,-8.69581 c 1.96101,-0.96941 3.44182,-2.35025 3.29069,-3.06853 -0.15112,-0.71828 0.17114,-1.03037 0.71614,-0.69354 1.07434,0.66398 6.66195,-6.4303 8.21622,-10.43167 0.52724,-1.35735 2.50796,-4.35868 4.4016,-6.66961 4.34114,-5.2978 6.93585,-11.34488 7.84475,-18.28253 0.39054,-2.98103 1.37268,-7.93103 2.18254,-11 0.80986,-3.06897 1.94995,-13.00495 2.53354,-22.07995 1.05605,-16.42208 1.04657,-16.5732 -2.00661,-32 -1.68721,-8.525 -4.20272,-19.55 -5.59,-24.5 -3.30443,-11.79056 -6.26241,-28.13033 -7.18826,-39.70756 -0.40872,-5.11084 -0.65671,-9.61381 -0.55108,-10.00659 0.34636,-1.28801 -2.76512,-28.15713 -3.91245,-33.78585 -0.6166,-3.025 -1.94979,-7.975 -2.96264,-11 -1.01286,-3.025 -2.36459,-7.975 -3.00386,-11 -1.41426,-6.69226 -6.19245,-17.08206 -9.82013,-21.3531 C 507.20383,339.72535 505,335.97141 505,333.92986 c 0,-0.98364 -1.42459,-3.13302 -3.16575,-4.7764 -1.74117,-1.64338 -4.27926,-5.46692 -5.6402,-8.49675 -2.36394,-5.26275 -11.26098,-20.68703 -19.33162,-33.51407 -2.07816,-3.3029 -4.45503,-7.92288 -5.28195,-10.26662 -2.01552,-5.71258 -10.15903,-21.38982 -12.36225,-23.79881 -0.97047,-1.06111 -3.90131,-5.30429 -6.51298,-9.42929 -4.31637,-6.81747 -9.61341,-13.58676 -13.80131,-17.6372 -3.97082,-3.84048 -13.25373,-6.66749 -24.40394,-7.43196 -6.05,-0.4148 -12.23738,-1.07136 -13.74973,-1.45903 -3.90704,-1.00152 -15.50002,0.4208 -17.18799,2.10876 -0.78068,0.78069 -1.74817,1.41943 -2.14998,1.41943 -2.1656,0 -11.90222,8.82817 -15.87157,14.39072 -3.47398,4.86835 -7.27161,13.06016 -7.52991,16.24265 -0.006,0.0734 0.88918,0.36872 1.98918,0.65638 1.1,0.28766 2,1.25807 2,2.15647 0,0.8984 -0.9,3.3976 -2,5.55378 -2.48868,4.87821 -2.51134,5.94648 -0.11286,5.31926 3.04903,-0.79734 3.30149,1.22015 0.75256,6.01402 -1.31155,2.46669 -2.27292,5.5383 -2.13637,6.8258 1.41265,13.32007 1.50931,23.17842 0.24677,25.16676 -0.7593,1.19579 -1.32665,4.42416 -1.26078,7.17416 0.12724,5.31227 -1.24567,13.31127 -2.58129,15.03937 -0.90884,1.17592 -2.67807,7.76361 -3.88362,14.46063 -0.77174,4.28712 -3.57981,14.80435 -4.80595,18 -0.31654,0.825 -0.68232,4.26162 -0.81285,7.63693 -0.13052,3.37531 -0.99218,7.59668 -1.91479,9.38083 -1.36735,2.64416 -1.48484,4.00544 -0.63549,7.36306 1.51827,6.00204 2.36759,11.44861 2.66947,17.11918 0.14641,2.75 0.61803,7.025 1.04806,9.5 0.98567,5.67302 0.83052,16.14682 -0.54069,36.5 -1.0983,16.30227 -1.86976,31.92428 -2.5926,52.5 -0.22221,6.325 -0.68091,16.9 -1.01935,23.5 -0.58231,11.35591 0.47301,21.24683 2.56071,24 0.41706,0.55 1.0617,2.68401 1.43254,4.74225 0.84557,4.69315 5.263,13.41435 8.57238,16.92421 2.72485,2.88991 17.06009,10.83354 19.55045,10.83354 0.8416,0 3.75027,1.125 6.4637,2.5 2.71343,1.375 5.42316,2.5 6.02162,2.5 0.59846,0 2.97592,0.84451 5.28324,1.87669 12.05821,5.39424 14.12403,6.01811 21.90996,6.61676 13.33351,1.02519 14.92892,1.39073 22.21463,5.08979 7.65915,3.88866 6.57901,3.78823 38.07055,3.53959 10.32248,-0.0815 16.55917,0.32704 20,1.31011 6.2873,1.79633 17.58903,1.18823 22.43453,-1.20711 z M 365,491.70694 c 0,-1.67643 1.77354,-2.09154 2.36383,-0.55328 0.3483,0.90766 -0.003,1.49426 -0.89521,1.49426 -0.80774,0 -1.46862,-0.42344 -1.46862,-0.94098 z m 73.63837,-181.55902 c 0.31659,-0.825 0.75246,-1.5 0.96862,-1.5 0.21615,0 0.39301,0.675 0.39301,1.5 0,0.825 -0.43588,1.5 -0.96862,1.5 -0.53273,0 -0.70959,-0.675 -0.39301,-1.5 z m -113.69212,56.04375 c 3.29227,-2.27552 8.60399,-3.35481 11.96822,-2.43182 1.0389,0.28503 1.87852,-1.73613 3.16213,-7.61193 0.96121,-4.4 2.48047,-10.25 3.37614,-13 2.75284,-8.45212 5.61269,-22.51614 6.19159,-30.44874 l 0.55108,-7.55126 -3.5977,-3.33124 C 344.61897,299.98449 343,297.64855 343,296.62569 c 0,-1.02285 -0.37224,-2.0898 -0.82721,-2.37098 -0.45496,-0.28118 -1.66534,-3.34524 -2.68973,-6.80902 -1.02439,-3.46377 -2.63983,-7.32352 -3.58987,-8.57721 -0.95004,-1.25369 -2.04192,-4.17869 -2.42639,-6.5 -0.38448,-2.32131 -1.10333,-4.99067 -1.59743,-5.93192 -2.97097,-5.65955 -2.97715,-88.45243 -0.008,-101.66899 0.76343,-3.39778 4.91425,-10.64183 12.10148,-21.11965 0.94318,-1.375 2.68638,-5.10194 3.87377,-8.28208 1.1874,-3.18015 2.88805,-6.8949 3.77923,-8.25501 1.3367,-2.04007 1.39428,-2.74529 0.32891,-4.02897 -1.03509,-1.24721 -2.52349,-1.4241 -7.49914,-0.89126 -4.95614,0.53076 -8.3922,0.1281 -17.04241,-1.99715 -9.4085,-2.31156 -11.99893,-2.57088 -19.67947,-1.97004 -8.78558,0.68728 -8.86597,0.71826 -12.00647,4.6262 -3.04166,3.78494 -3.17322,4.33669 -3.46571,14.53574 l -0.30404,10.60146 3.96078,5.64648 c 4.67832,6.6694 6.13784,11.01463 3.6997,11.01463 -1.90553,0 -1.94923,0.42763 -0.51164,5.0066 1.10845,3.53059 2.86105,27.08005 3.38787,45.52239 0.15756,5.51595 0.98746,12.76517 1.84421,16.1094 0.96199,3.75502 1.78087,12.92245 2.14121,23.971 0.58466,17.92648 1.79653,26.02115 4.17556,27.89061 0.69991,0.55 1.82226,3.09244 2.4941,5.64986 1.08994,4.14899 1.01529,4.95688 -0.69308,7.5 -1.05303,1.56758 -2.00351,3.81266 -2.11217,4.98908 -0.32873,3.55886 -2.46161,10.77765 -3.59147,12.15538 -0.78734,0.96007 -0.50384,1.68489 1.09777,2.80671 2.73274,1.91408 2.75604,4.80216 0.0605,7.49771 -2.42112,2.42112 -2.33643,3.64687 1.63185,23.62057 1.33522,6.72062 2.20469,12.80039 1.93216,13.51059 -0.73369,1.91198 5.05243,7.7701 7.67461,7.7701 1.23894,0 3.85181,-1.10531 5.80637,-2.45625 z m 127.26432,243.05711 c 0.70919,-0.76953 1.44699,-1.24947 1.63957,-1.06653 0.59314,0.56346 -0.91014,2.46567 -1.94858,2.46567 -0.53923,0 -0.40017,-0.62961 0.30901,-1.39914 z"
       style="fill:#dab" />
  </g>
</svg>
