<?xml version="1.0" encoding="UTF-8" standalone="no"?>
<svg
   xmlns:dc="http://purl.org/dc/elements/1.1/"
   xmlns:cc="http://creativecommons.org/ns#"
   xmlns:rdf="http://www.w3.org/1999/02/22-rdf-syntax-ns#"
   xmlns:svg="http://www.w3.org/2000/svg"
   xmlns="http://www.w3.org/2000/svg"
   version="1.1"
   id="svg2"
   viewBox="0 0 2243.4279 1005.4104"
   height="283.74915mm"
   width="633.1452mm">
  <defs
     id="defs4" />
  <metadata
     id="metadata7">
    <rdf:RDF>
      <cc:Work
         rdf:about="">
        <dc:format>image/svg+xml</dc:format>
        <dc:type
           rdf:resource="http://purl.org/dc/dcmitype/StillImage" />
        <dc:title></dc:title>
      </cc:Work>
    </rdf:RDF>
  </metadata>
  <g
     transform="translate(1391.1421,363.10199)"
     id="layer1">
    <path
       id="path4147"
       d="m 379.8127,614.73787 c 0,-0.38026 -2.07861,-0.72623 -4.61915,-0.76883 -8.72957,-0.14636 -25.5651,-1.33529 -26.40323,-1.8646 -1.33225,-0.84127 -14.05137,-0.45864 -14.94009,0.44944 -0.48488,0.49543 -2.25995,0.48148 -4.47556,-0.0351 -2.01958,-0.47092 -4.9234,-0.65453 -6.45291,-0.40803 -1.52951,0.24651 -2.99972,0.22461 -3.26719,-0.0486 -1.89455,-1.93592 -55.73026,-1.82728 -75.33692,0.15201 -10.02945,1.01247 -19.11826,0.90558 -25.07538,-0.29488 -7.60524,-1.53261 -39.93154,-1.61887 -42.68358,-0.1139 -0.99809,0.54578 -2.69055,0.70132 -3.76114,0.34564 -2.12428,-0.70582 -13.92748,-1.36968 -19.54313,-1.09921 -7.18458,0.34604 -12.61512,0.0191 -14.13706,-0.8512 -1.02669,-0.58708 -2.41446,-0.59383 -4.02658,-0.0196 -2.59421,0.92405 -7.63585,-0.24444 -9.81644,-2.27514 -0.62091,-0.57823 -1.90397,-1.49913 -2.85138,-2.04646 -2.12622,-1.22836 -3.11164,-5.71172 -1.65841,-7.54539 0.88133,-1.11211 2.53824,-25.42098 2.14469,-31.46513 -0.12907,-1.98255 -0.91415,-30.34034 -0.97063,-35.06114 -0.2783,-23.26538 0.36671,-34.80167 2.73937,-48.9957 1.0273,-6.14547 2.30667,-19.58573 2.99515,-31.46513 0.44775,-7.72507 1.13472,-12.85486 3.19055,-23.82359 0.54885,-2.92857 0.87183,-16.6737 0.79221,-33.71264 -0.35598,-76.11129 -0.25595,-81.04742 1.83992,-90.79936 1.30814,-6.08673 1.51763,-54.02898 0.41202,-94.31331 -0.43411,-15.81647 -0.33618,-24.32825 0.30487,-26.52061 0.79379,-2.7143 3.50958,-16.18937 6.26761,-31.0977 0.36593,-1.97781 1.15153,-5.61877 1.74586,-8.09103 3.08322,-12.82504 3.59106,-15.54022 3.44721,-18.42958 -0.0862,-1.73058 0.14183,-6.38292 0.50679,-10.33854 0.36487,-3.95561 0.78657,-8.60796 0.93711,-10.33854 0.91847,-10.558724 1.63149,-15.28306 2.30667,-15.28306 0.42233,0 0.59645,-1.411265 0.38713,-3.136148 -0.2094,-1.724882 -0.0149,-3.366966 0.43147,-3.649073 0.44679,-0.282108 0.81808,-2.006118 0.82529,-3.831131 0.009,-1.825021 0.58545,-4.329591 1.28518,-5.565721 0.69983,-1.23613 1.54482,-2.85434 1.87784,-3.59602 2.60714,-5.80592 8.63051,-7.0908 14.86064,-3.16996 1.93564,1.21816 3.77714,2.22747 4.09213,2.2429 0.31507,0.0155 0.53335,-1.39421 0.48514,-3.13252 -0.13189,-4.75522 1.82135,-6.19604 8.39066,-6.18944 6.27993,0.006 14.76192,1.16939 16.06672,2.20313 0.48392,0.38337 2.46355,0.40558 4.39919,0.0494 1.93565,-0.35623 4.49492,-0.40728 5.68728,-0.11344 1.19244,0.29384 4.95375,0.24589 8.35846,-0.10655 5.59964,-0.57964 38.0053,-1.84751 43.73226,-1.71102 1.29151,0.0307 3.02875,-0.63948 3.86064,-1.48946 2.38753,-2.43953 22.46024,-2.46831 29.76492,-0.0427 7.06334,2.34547 9.95915,2.67137 22.97539,2.58576 11.19277,-0.0736 18.19214,0.38401 20.23627,1.32305 1.58344,0.72739 10.31707,0.84608 29.47457,0.40054 3.62933,-0.0844 8.1825,-0.19013 10.11814,-0.23493 1.93564,-0.0448 4.31121,-0.0668 5.27903,-0.0489 22.72621,0.42102 50.24596,-0.0627 63.34833,-1.11351 20.81908,-1.66969 23.50602,-1.6778 32.55401,-0.0983 4.3552,0.76029 8.7104,1.39165 9.67822,1.40302 4.16533,0.0489 16.05431,0.89143 18.4766,1.30934 1.45173,0.25046 4.42118,0.52431 6.59878,0.60855 2.1776,0.0842 7.08085,0.93473 10.896,1.89001 3.81524,0.95527 7.52772,1.50514 8.25007,1.22192 0.72226,-0.28321 1.758,-0.13875 2.30157,0.32103 0.54356,0.45978 5.34343,1.0754 10.66645,1.36806 5.32302,0.29266 10.43972,0.66543 11.37032,0.82837 0.93069,0.16296 3.20727,0.0132 5.05907,-0.33283 1.85188,-0.34601 3.36696,-0.34304 3.36696,0.006 0,0.34963 1.88066,0.70596 4.17923,0.79183 2.29858,0.0859 6.35683,0.55154 9.01834,1.03484 2.66151,0.48329 8.07366,1.11661 12.02686,1.4074 6.49558,0.47776 7.36407,0.34854 9.01834,-1.34177 1.73803,-1.77577 1.83059,-1.7843 1.83059,-0.16857 0,2.26617 1.82223,2.88858 9.63528,3.29106 3.60567,0.18576 7.7629,0.619 9.2383,0.96278 3.38192,0.78804 4.68382,0.94447 12.80279,1.53823 3.63048,0.26553 7.19382,0.69339 7.91854,0.950836 0.72464,0.257438 2.30738,0.484662 3.51715,0.504943 9.92625,0.166424 18.6575,0.877113 21.8682,1.779973 2.10739,0.592597 4.3713,0.865831 5.03092,0.607187 0.65961,-0.258643 1.41777,-0.109121 1.6848,0.332272 0.26694,0.441393 1.17045,0.787644 2.00779,0.769439 0.83734,-0.01825 5.07552,0.217281 9.41822,0.523292 12.18013,0.858288 23.37396,1.57519 27.75669,1.777654 2.18816,0.101084 4.43096,0.469541 4.98393,0.818786 0.55307,0.349245 1.14661,0.20268 1.31897,-0.3257 0.2189,-0.671061 1.0309,-0.681948 2.69336,-0.03614 1.30902,0.508512 5.65595,0.947622 9.65992,0.975796 4.00396,0.02814 9.15497,0.214925 11.4466,0.415016 2.29163,0.200083 4.38423,0.0036 4.6503,-0.435855 0.27662,-0.457341 1.33761,-0.467913 2.47841,-0.02472 1.17529,0.456577 2.61514,0.420239 3.50475,-0.08846 0.83048,-0.474863 4.17501,-0.991179 7.43234,-1.147362 3.25734,-0.156193 6.12033,-0.399868 6.36229,-0.541506 0.56556,-0.331049 12.7185,-0.820791 20.6762,-0.833197 9.01931,-0.01411 9.98493,-0.01322 16.48931,0.01483 3.26226,0.01411 6.69284,-0.390851 7.62362,-0.899831 0.93078,-0.508989 5.08968,-1.129472 9.2419,-1.378856 10.09482,-0.606288 14.28197,-1.666402 16.2148,-4.105337 1.44056,-1.81778 1.91286,-1.92465 4.47424,-1.0123 2.25265,0.80237 3.36521,0.755 5.21436,-0.22206 2.07941,-1.09875 2.57793,-1.05404 4.32018,0.3875 1.58785,1.31373 1.96952,2.54623 1.96952,6.359192 0,3.111307 -0.49095,5.283992 -1.43493,6.349797 -1.09232,1.233271 -1.50716,3.933752 -1.73706,11.308342 -0.55835,17.910512 -1.07534,27.139322 -1.56559,27.949872 -0.26791,0.44292 -0.70527,4.20171 -0.97195,8.35287 -0.26659,4.15115 -1.18787,11.61742 -2.04721,16.5917 -1.575,9.11728 -1.68955,15.74893 -0.69771,40.40105 0.75912,18.86627 1.48297,28.38216 2.3328,30.66607 1.76487,4.74301 2.64743,38.23378 1.34782,51.14326 -0.44792,4.45007 -0.84605,9.91152 -0.88458,12.13655 -0.0387,2.22504 -0.29765,4.45007 -0.57568,4.94452 -0.27803,0.49446 -0.55976,3.92603 -0.62601,7.62574 -0.066,3.6997 -0.73484,9.97026 -1.4856,13.93456 -1.64301,8.67552 -2.99356,18.70878 -2.60943,19.38523 0.55624,0.97954 1.34149,28.70106 1.29697,45.78341 -0.029,11.15334 -0.49922,19.96139 -1.2953,24.2731 -1.38178,7.48312 -3.9246,28.21708 -3.80688,31.04054 0.0904,2.16823 -1.98518,12.19878 -4.92973,23.82359 -1.8518,7.31102 -2.10493,9.96419 -1.75774,18.42958 0.66736,16.27563 0.84728,17.58128 3.8412,27.86911 1.58274,5.43897 3.38755,12.11407 4.01056,14.83356 1.43132,6.24767 2.3277,24.06767 1.3085,26.01346 -0.42259,0.80679 -0.89014,5.29647 -1.039,9.97706 -0.14887,4.68058 -0.73564,9.45549 -1.30375,10.61089 -1.62216,3.29843 -4.39426,4.85913 -7.42346,4.17932 -1.45956,-0.32756 -3.13248,-0.22489 -3.71749,0.22815 -2.60555,2.01755 -9.38065,3.73556 -14.26138,3.61635 -2.90346,-0.0709 -7.45663,0.32886 -10.11814,0.88839 -7.87912,1.65643 -16.79707,3.07645 -22.43587,3.57252 -2.90347,0.25542 -5.67496,0.77927 -6.15887,1.16408 -0.90896,0.72285 -4.53706,0.89202 -25.5153,1.18975 -6.77476,0.0961 -12.80288,0.48854 -13.39589,0.87197 -0.59301,0.38342 -3.56246,0.89873 -6.59878,1.14512 -3.03632,0.2464 -9.81319,1.05718 -15.05966,1.80175 -5.24648,0.74456 -14.15484,1.55891 -19.79636,1.80967 -5.64152,0.25075 -11.782,0.86475 -13.64549,1.36444 -1.8635,0.49969 -3.60875,0.68318 -3.87833,0.40774 -0.26958,-0.27543 -0.95559,-0.10604 -1.52458,0.37642 -0.56891,0.48246 -3.77275,1.12666 -7.11965,1.43154 -3.34691,0.30489 -7.27301,1.07638 -8.72474,1.71443 -2.60036,1.14287 -4.07207,1.53323 -17.15684,4.55061 -3.62933,0.83693 -7.5886,1.94985 -8.79838,2.47316 -2.32216,1.00448 -4.43174,1.45191 -7.7146,1.63621 -1.09768,0.0617 -2.2098,0.46603 -2.47146,0.89867 -0.26175,0.43265 -2.03621,0.78663 -3.94326,0.78663 -1.94849,0 -3.46744,0.43596 -3.46744,0.99519 0,0.54735 -0.55518,0.7775 -1.23371,0.51144 -0.67853,-0.26606 -1.45824,-0.25432 -1.73266,0.0261 -0.27443,0.2804 -2.98565,0.61654 -6.02496,0.74698 -3.03931,0.13043 -8.09952,0.49955 -11.24494,0.82024 -3.14543,0.32069 -8.6884,0.76872 -12.31774,0.99562 -3.62933,0.2269 -10.55805,0.81982 -15.39716,1.31761 -23.39665,2.40672 -33.4122,2.44677 -49.71085,0.1988 -2.66151,-0.36709 -7.6106,-0.55122 -10.99797,-0.4092 -3.38738,0.14203 -9.52425,0.40952 -13.63749,0.59442 -11.85001,0.53271 -18.66269,0.554 -22.17086,0.0693 -1.78995,-0.2473 -3.48531,-0.0679 -3.76747,0.3987 -0.28225,0.46659 -0.99994,0.65747 -1.59488,0.42419 -0.59504,-0.23328 -7.80795,0.91318 -16.02889,2.5477 -9.62288,1.91328 -17.37601,2.94521 -21.76587,2.89703 -3.75031,-0.0412 -6.81928,0.14484 -6.81989,0.41332 -6.2e-4,0.26848 -8.04999,0.5282 -17.88737,0.57716 -9.83747,0.0489 -18.94327,0.36007 -20.23513,0.69138 -1.29187,0.3313 -2.34891,0.29125 -2.34891,-0.089 z m 38.71287,-11.38623 c 13.29876,-0.1326 23.69,-0.62853 25.51531,-1.21774 3.38359,-1.09222 14.04635,-3.37924 20.20002,-4.33265 2.15772,-0.33428 12.45182,-0.76509 22.87579,-0.95735 10.42406,-0.19225 21.62527,-0.44583 24.89158,-0.56352 3.2664,-0.11768 5.93891,-0.0117 5.93891,0.23554 9e-5,0.24723 1.88074,0.49719 4.17932,0.55547 2.29858,0.0582 8.1385,0.2488 12.97761,0.42337 10.08981,0.36398 31.26328,-0.79371 42.67214,-2.33317 1.69369,-0.22854 7.03871,-0.6632 11.87782,-0.96591 4.83911,-0.30271 9.98616,-0.71351 11.43789,-0.91288 1.45173,-0.19937 5.21304,-0.59023 8.35846,-0.86857 3.14542,-0.27834 6.31284,-0.74312 7.03871,-1.03287 0.72586,-0.28974 2.21059,-0.4377 3.29939,-0.32879 1.0888,0.1089 1.97963,-0.13436 1.97963,-0.54058 0,-0.40624 0.89084,-0.77373 1.97964,-0.81667 1.0888,-0.043 5.74094,-1.19234 10.3381,-2.55425 8.39251,-2.48624 15.7659,-4.12931 18.76879,-4.18236 0.88661,-0.0156 2.66828,-0.48084 3.95927,-1.03374 1.29107,-0.55289 3.13917,-1.0892 4.107,-1.1918 0.96782,-0.1026 4.92709,-0.81331 8.79838,-1.57936 7.57179,-1.49828 12.80727,-2.21511 21.07607,-2.88564 2.88139,-0.23366 6.0488,-0.70358 7.03871,-1.04427 0.98982,-0.34069 2.63203,-0.52286 3.64921,-0.40483 1.01727,0.11802 7.74803,-0.42981 14.95725,-1.21741 22.98067,-2.5106 41.83049,-4.08113 42.66414,-3.55467 0.44458,0.28073 2.09278,0.10487 3.66259,-0.39081 1.56989,-0.49568 6.95116,-1.33047 11.95832,-1.8551 14.21907,-1.48982 28.78918,-4.70306 36.20771,-7.98509 1.72,-0.76094 5.24833,-1.30247 7.99228,-1.22669 2.72749,0.0753 5.56066,-0.35689 6.36923,-0.97167 1.96442,-1.4937 3.04283,-8.14889 3.18484,-19.654 0.14614,-11.85081 -0.87421,-18.55266 -4.72473,-31.03127 -4.74866,-15.38909 -5.83289,-20.75507 -6.33088,-31.33243 -0.34656,-7.36073 -0.12669,-11.03827 0.85978,-14.38405 5.36657,-18.20113 6.62184,-23.50641 7.24142,-30.60485 0.3866,-4.42877 0.62557,-8.35981 0.53116,-8.73563 -0.0945,-0.37582 0.46922,-4.21906 1.25262,-8.54053 2.55567,-14.09801 3.49155,-30.51408 3.0922,-54.23736 -0.57718,-34.27899 -0.48532,-38.51162 0.97345,-44.86873 1.40756,-6.13379 2.68966,-20.07565 2.68676,-29.21761 -8.8e-4,-2.96672 0.37411,-5.88457 0.83329,-6.48413 0.70379,-0.91896 1.82338,-14.10866 1.85338,-21.83449 0.029,-7.41185 -1.44803,-28.46382 -2.04967,-29.21762 -1.29178,-1.61845 -2.11618,-14.11751 -1.86789,-28.31861 0.14631,-8.36645 -0.16629,-15.73072 -0.78218,-18.42958 -1.23644,-5.41832 -1.21083,-15.32365 0.0607,-23.59353 0.51374,-3.34047 1.06337,-7.89407 1.2213,-10.1191 0.15802,-2.22504 0.73713,-8.90014 1.28694,-14.83356 0.54981,-5.93343 1.18514,-13.15022 1.41179,-16.03734 0.22673,-2.8871 0.61043,-5.577 0.85274,-5.97755 0.64949,-1.07372 -0.59512,-19.792819 -1.28685,-19.355957 -0.32431,0.204793 -1.55169,0.573034 -2.72759,0.818327 -9.14222,1.907057 -14.01661,3.181089 -15.7066,4.105237 -1.5699,0.858477 -2.27562,0.831992 -3.4414,-0.12916 -1.02519,-0.845189 -3.71749,-1.142705 -8.94514,-0.98849 -4.11324,0.121347 -13.61549,0.381402 -21.11611,0.577906 -7.50063,0.196505 -17.59677,0.776083 -22.43588,1.287967 -11.2914,1.194389 -41.8582,0.696791 -44.45584,-0.723707 -1.0536,-0.576135 -2.60414,-0.863547 -3.44571,-0.638679 -0.84147,0.224859 -5.45314,0.04234 -10.24809,-0.405666 -4.79502,-0.447974 -12.87537,-1.180734 -17.95643,-1.628357 -5.08107,-0.447614 -13.39554,-1.425828 -18.4766,-2.173799 -5.08107,-0.74798 -11.21794,-1.412056 -13.63749,-1.475724 -6.85517,-0.180385 -26.39514,-2.153959 -26.39514,-2.665959 0,-0.20981 -6.79094,-0.779607 -15.34913,-1.287877 -4.08676,-0.242713 -7.95232,-0.645889 -8.59012,-0.895956 -1.214,-0.476013 -3.016,-0.722898 -17.41314,-2.385758 -13.83519,-1.597952 -16.70231,-1.783012 -31.67417,-2.044442 -7.74257,-0.135192 -14.67129,-0.502911 -15.39716,-0.817149 -0.72587,-0.314238 -2.30958,-0.544742 -3.51935,-0.512225 -1.86306,0.05007 -10.44808,-1.981425 -14.95725,-3.539375 -0.72586,-0.2508 -3.69532,-0.59375 -6.59878,-0.76212 -2.90347,-0.16836 -6.86274,-0.49653 -8.79838,-0.72926 -1.93565,-0.23272 -6.29085,-0.65647 -9.67822,-0.94165 -3.38738,-0.28518 -8.73239,-0.92641 -11.87781,-1.42493 -7.10813,-1.1266 -23.9645,-1.31479 -39.59272,-0.44206 -17.40442,0.97194 -25.53474,1.19128 -47.07133,1.26993 -21.38684,0.0781 -31.89747,0.20584 -41.73415,0.50725 -3.59739,0.11023 -11.91186,-0.54173 -18.47659,-1.44879 -12.17432,-1.68213 -23.95773,-1.62373 -24.52707,0.12159 -0.19964,0.61184 -0.99211,0.47113 -2.19493,-0.38969 -1.0354,-0.74101 -3.1727,-1.34729 -4.74963,-1.34729 -1.57703,0 -7.24653,-1.04927 -12.59902,-2.33172 -10.47676,-2.51022 -13.15912,-2.49686 -24.61488,0.12258 -8.89322,2.03351 -67.04295,3.54033 -74.34631,1.92653 -2.40653,-0.53178 -4.19163,-0.077 -8.57842,2.1855 -0.84684,0.43676 -2.23259,1.15147 -3.07943,1.58824 -5.43001,2.80054 -6.22582,2.94996 -11.42795,2.14546 -5.6117,-0.86786 -8.14845,-0.0371 -8.14845,2.668511 0,0.750398 -0.58051,2.784034 -1.29002,4.519192 -1.34254,3.282955 -2.03084,13.191017 -1.03125,14.843593 0.31577,0.522141 0.16778,2.041484 -0.32889,3.376317 -0.85819,2.30642 -2.11442,15.17634 -3.11234,31.88605 -0.47352,7.92889 -1.0485,11.14149 -4.41942,24.69172 -1.10279,4.43308 -1.8349,8.34152 -1.62691,8.68542 0.20799,0.34389 -0.59354,6.02151 -1.78114,12.61693 -2.32656,12.92053 -2.61717,18.41034 -1.89588,35.81526 1.02475,24.72585 1.2755,77.02232 0.39663,82.70833 -0.49675,3.21394 -1.01815,6.85491 -1.15848,8.09104 -0.14042,1.23613 -0.67017,5.07937 -1.17731,8.54053 -0.50714,3.46117 -0.78948,11.14765 -0.6275,17.08107 0.16206,5.93342 0.62723,22.72232 1.03389,37.30865 0.76335,27.38474 0.78975,30.9343 0.34622,46.55606 -0.25594,9.01585 -1.54649,21.75798 -2.47797,24.46523 -0.25516,0.74167 -0.61316,4.58491 -0.79555,8.54053 -0.18239,3.95562 -0.71531,9.61934 -1.18418,12.58605 -0.46886,2.96671 -0.85784,7.82133 -0.86426,10.78805 -0.009,2.96671 -0.43825,7.82133 -0.95955,10.78804 -1.36067,7.74402 -1.53022,9.08378 -2.16097,17.08107 -0.70431,8.93042 -0.90043,49.16508 -0.31323,64.27876 0.24011,6.18065 0.11086,16.03854 -0.28718,21.90644 -0.47766,7.04146 -0.4173,11.04617 0.17756,11.7785 0.49561,0.61029 3.96991,1.37262 7.72049,1.69408 3.75057,0.32144 10.40091,0.94901 14.77846,1.39458 4.37754,0.44558 9.6366,0.49671 11.6868,0.11364 2.0502,-0.38308 5.51518,-0.30695 7.69999,0.16916 2.49716,0.54421 5.74024,0.55444 8.73318,0.0275 2.61858,-0.46096 5.07421,-0.51869 5.45702,-0.12829 0.38282,0.3904 2.91007,0.40251 5.6161,0.0269 6.66116,-0.92459 16.43907,-0.40391 25.28865,1.34665 4.59548,0.90903 8.86543,1.22413 11.4379,0.84408 2.25775,-0.33356 11.23166,-0.7804 19.94205,-0.99298 8.7104,-0.21259 19.59839,-0.64898 24.19555,-0.96977 12.0595,-0.8415 31.39684,-0.84394 36.51328,-0.004 2.41955,0.39692 13.90144,0.86773 25.5153,1.04623 11.61386,0.17851 22.50185,0.52182 24.19554,0.76291 1.69369,0.24108 7.6326,0.69745 13.19757,1.01415 5.56498,0.3167 10.2956,0.75713 10.51248,0.97873 0.21688,0.22161 1.99856,0.15804 3.95927,-0.14125 1.96072,-0.29929 13.66107,-0.64484 26.0008,-0.76788 z M 350.64598,568.9434 c -0.79854,-0.21662 -2.2991,-2.4063 -3.33467,-4.86598 l -1.88285,-4.47212 -17.34152,0.54277 c -9.5378,0.29852 -24.46821,0.67318 -33.1786,0.83257 -15.92507,0.29143 -18.08411,0.66593 -22.80699,3.9562 -2.49848,1.74059 -2.65913,1.74567 -5.71895,0.181 -5.07781,-2.59664 -7.24652,-2.80938 -18.68908,-1.8333 -5.96987,0.50924 -14.0196,1.15226 -17.88825,1.42894 -3.86873,0.27667 -7.35016,0.7027 -7.73659,0.94673 -1.35046,0.8528 -32.2714,1.06548 -32.77951,0.22547 -0.27767,-0.45919 -1.59022,-0.83489 -2.91657,-0.83489 -1.32636,0 -2.87214,-0.47059 -3.43506,-1.04575 -0.56293,-0.57518 -4.30444,-1.22953 -8.31447,-1.45411 -4.5339,-0.25394 -7.83056,-0.89156 -8.71779,-1.68611 -1.53655,-1.37612 -3.95417,-11.27196 -3.09923,-12.68552 0.28533,-0.47164 0,-3.92663 -0.64202,-7.67774 -0.85441,-5.02034 -0.95401,-9.38326 -0.37736,-16.53235 0.43086,-5.34166 0.56846,-15.41001 0.30583,-22.3741 -0.26254,-6.96409 -0.19893,-12.94653 0.14139,-13.2943 0.34041,-0.34778 0.71953,-1.52726 0.84253,-2.62108 0.12301,-1.09382 0.90615,-7.04566 1.74024,-13.22631 1.62576,-12.04643 1.97365,-16.32326 2.41313,-29.66712 0.15467,-4.69729 0.71786,-12.1815 1.25157,-16.63157 1.20309,-10.03263 1.27761,-13.21688 0.6524,-27.86911 -0.87967,-20.61689 -0.648,-51.75352 0.39469,-53.03726 1.52467,-1.87716 2.89344,-48.86653 1.66114,-57.02658 -1.27612,-8.45003 -0.98797,-26.49663 0.63973,-40.06976 0.35571,-2.96672 0.73158,-7.41678 0.83523,-9.88904 0.67686,-16.14755 1.33867,-25.98094 2.11768,-31.46513 0.49165,-3.46117 1.07886,-11.26063 1.30497,-17.33215 0.22612,-6.07152 0.57551,-11.33069 0.77637,-11.68705 0.20096,-0.35636 0.63366,-4.60066 0.96175,-9.43179 0.32801,-4.83112 1.19254,-11.91077 1.92104,-15.73256 1.2316,-6.46047 2.40504,-21.91781 2.18772,-28.81764 -0.0519,-1.64442 -0.5184,-3.79993 -1.03698,-4.79001 -1.39912,-2.67121 -0.39425,-4.24684 3.96508,-6.21721 3.33441,-1.50708 4.5258,-1.62863 8.05096,-0.8214 6.08839,1.39416 14.83222,2.1806 22.80997,2.05158 3.87129,-0.0626 17.54617,-0.36599 30.38864,-0.67418 20.39456,-0.48943 23.78308,-0.3754 26.77268,0.90095 3.30362,1.41041 3.47166,1.3951 4.82609,-0.43963 0.78842,-1.06802 2.8549,-2.1416 4.71619,-2.45024 2.70216,-0.44805 3.71213,-0.16621 5.47787,1.52877 1.19069,1.14296 2.16485,2.61539 2.16485,3.27205 0,0.89789 1.90898,1.20613 7.69858,1.24308 4.23422,0.0271 9.08433,0.17068 10.77801,0.31925 9.20821,0.80771 16.09796,1.67206 21.99595,2.75952 3.62934,0.66916 8.31694,1.24806 10.41685,1.28642 2.09999,0.0384 4.24214,0.33756 4.76045,0.66486 0.51831,0.32731 2.56147,0.69416 4.5404,0.81523 1.97893,0.12106 6.56746,0.4645 10.1968,0.76319 3.62933,0.2987 12.14176,0.74109 18.91651,0.98309 6.77476,0.242 16.47497,0.68895 21.55603,0.99323 5.08107,0.30426 24.29251,0.65373 42.69212,0.77658 18.39961,0.12285 34.33568,0.50935 35.41348,0.85888 1.23459,0.40038 1.95966,0.26086 1.95966,-0.37712 0,-0.55695 0.46658,-0.71799 1.03689,-0.35785 1.21391,0.76655 4.75447,0.95018 32.27387,1.67385 11.30424,0.29726 20.8065,0.60364 21.11611,0.68083 0.77531,0.19328 14.2312,-1.20391 16.40009,-1.7029 1.86306,-0.42862 16.36789,-1.88679 25.95522,-2.60928 3.14542,-0.23703 6.31284,-0.68495 7.03871,-0.99536 0.72586,-0.31042 1.91365,-0.6832 2.63951,-0.82841 0.72587,-0.14521 3.89328,-0.75992 7.03871,-1.36602 3.14542,-0.6061 6.09507,-1.43757 6.55479,-1.8477 0.45971,-0.41014 1.68049,-0.74572 2.7128,-0.74572 1.03241,0 2.14901,-0.27794 2.4815,-0.61765 0.33249,-0.3397 1.28931,-0.71315 2.1263,-0.82988 0.83699,-0.11672 5.67901,-1.25547 10.76007,-2.53055 5.08106,-1.27507 11.61386,-2.7195 14.51733,-3.20984 2.90346,-0.49034 8.64441,-1.51387 12.75765,-2.27453 11.16805,-2.06527 17.98996,-2.5264 21.26753,-1.43755 1.61037,0.535 5.10561,1.20724 7.76712,1.49386 2.66151,0.28662 6.91201,0.92951 9.44559,1.42866 2.53358,0.49916 5.05238,0.62598 5.59735,0.28183 0.54498,-0.34415 1.27867,-0.14995 1.63043,0.43155 1.50338,2.48549 13.81416,4.13038 18.52015,2.47454 1.3502,-0.47509 6.87787,-1.54373 10.22874,-1.97751 1.0287,-0.13315 2.69019,-0.69047 3.69232,-1.23847 1.41021,-0.77114 1.98193,-0.71568 2.52892,0.2453 0.62944,1.10569 4.42004,2.12504 9.50524,2.55609 0.96783,0.0821 2.05055,0.57857 2.4061,1.1034 0.45153,0.66661 0.65046,0.65942 0.65988,-0.0238 0.0211,-1.53092 6.30395,-1.42911 7.41263,0.12013 0.54427,0.76055 2.30086,1.3355 4.04048,1.32255 44.76995,-0.33326 64.70189,0.76505 72.26638,3.9821 2.16669,0.92145 3.64728,7.53472 2.9486,13.17039 -0.33117,2.67191 -0.84499,5.26077 -1.14167,5.75303 -0.29677,0.49225 -0.81816,2.71729 -1.15866,4.94452 -0.3405,2.22722 -1.06109,6.67909 -1.60122,9.89303 -2.11249,12.56799 -2.72354,23.24809 -3.13759,54.83922 -0.2365,18.0475 -0.9043,36.65687 -1.48402,41.35417 -1.29583,10.50062 -1.47083,17.73812 -0.49808,20.59872 0.45136,1.3274 0.38352,2.53097 -0.17491,3.10156 -0.50195,0.51283 -0.91257,3.28147 -0.91257,6.15255 0,2.87107 -0.60058,9.30561 -1.33454,14.29897 -0.73396,4.99335 -1.35257,12.57603 -1.37457,16.8504 -0.022,4.27436 -0.67193,12.17186 -1.44425,17.55 -1.17722,8.19868 -1.22685,10.68949 -0.30706,15.41782 0.94133,4.83886 0.90684,5.93931 -0.24266,7.75214 -1.71182,2.69949 -2.44983,12.05524 -2.6865,34.05693 -0.10391,9.65806 -0.43253,17.96276 -0.73018,18.45488 -0.29765,0.49212 -0.13664,4.31429 0.35792,8.49372 0.6912,5.84168 0.56679,11.65687 -0.53793,25.14678 -0.79027,9.65132 -1.38496,19.36833 -1.32143,21.59337 0.0634,2.22503 -0.49245,10.11379 -1.23538,17.53057 -0.74294,7.41678 -1.58978,16.68572 -1.88189,20.59764 -0.29211,3.91193 -0.70668,7.40303 -0.92137,7.758 -0.21476,0.35497 -0.42223,5.24534 -0.46121,10.86748 -0.10452,15.08806 -2.68438,24.6073 -7.01644,25.88941 -0.71408,0.21135 -2.98107,0.5555 -5.03769,0.76478 -2.05662,0.20927 -3.73931,0.79887 -3.73931,1.31022 0,0.51134 -0.82353,-0.14008 -1.83015,-1.4476 -1.00654,-1.30752 -2.19133,-2.1492 -2.63283,-1.87039 -0.4415,0.27881 -3.28022,0.51647 -6.30836,0.52814 -4.02227,0.0155 -7.02876,-0.62997 -11.15854,-2.39563 -4.35353,-1.86129 -6.62879,-2.32103 -9.89818,-2.00004 -2.33492,0.22923 -4.24531,0.14165 -4.24531,-0.19465 0,-2.42883 -19.18566,3.26004 -29.91449,8.87016 -2.19731,1.14898 -6.11232,1.77451 -13.66714,2.18371 -10.81206,0.58561 -24.09542,2.72364 -27.08757,4.35987 -0.95419,0.5218 -1.996,0.57455 -2.43751,0.12343 -0.4415,-0.45112 -4.25551,-0.4469 -8.92384,0.01 -4.48409,0.43874 -10.13248,0.90191 -12.55203,1.02927 -2.41956,0.12735 -4.59716,0.32339 -4.83911,0.43563 -0.24196,0.11224 -2.79806,0.38054 -5.68024,0.59622 -2.88226,0.21568 -5.48174,0.79109 -5.77666,1.27869 -0.69252,1.14494 -31.6007,1.15771 -36.93419,0.0153 -2.1776,-0.46645 -5.93891,-0.65093 -8.35846,-0.40997 -2.41956,0.24095 -7.17068,0.64597 -10.55806,0.90003 -3.38738,0.25406 -7.94054,0.63385 -10.11814,0.84395 -2.1776,0.21012 -10.88799,0.35181 -19.35643,0.31488 -22.52271,-0.0982 -30.3948,0.16368 -57.18947,1.90272 -9.43627,0.61245 -17.75073,1.07702 -18.4766,1.03239 -2.64814,-0.1628 -37.79423,0.38273 -39.27738,0.60967 -0.55245,0.0845 -1.27611,1.2662 -1.60825,2.62594 -0.67968,2.78274 -2.88077,5.61877 -4.36083,5.61877 -0.53996,0 -1.95509,-1.82048 -3.14463,-4.04551 -1.43695,-2.68775 -2.75961,-4.05824 -3.94088,-4.08341 -24.6462,-0.52519 -34.51534,-0.44654 -35.43187,0.28239 -0.71074,0.56527 -1.0998,0.56574 -1.0998,8.9e-4 0,-0.5081 -3.81814,-0.87926 -9.12981,-0.88749 -5.02133,-0.008 -9.47894,-0.23468 -9.90575,-0.50421 -0.42681,-0.26952 -2.55276,-0.15807 -4.72429,0.24768 -2.43715,0.45536 -4.15195,0.40097 -4.4804,-0.14213 -0.29272,-0.48391 -1.02571,0.92115 -1.62884,3.12237 -1.36762,4.9908 -4.20598,6.70052 -8.97585,5.40659 z M 217.48259,554.66408 c 1.45173,-0.1576 2.83748,-0.36069 3.07943,-0.45129 0.24196,-0.0906 2.61752,-0.0895 5.27903,0.003 2.7678,0.0956 6.23128,-0.43225 8.09143,-1.23313 1.81009,-0.77929 3.47035,-1.03975 3.74406,-0.58734 0.53855,0.89043 22.60911,0.64914 24.05346,-0.26297 0.5733,-0.36206 0.82493,-8.2185 0.70202,-21.9165 -0.12283,-13.67944 0.2299,-24.71023 0.98155,-30.69726 1.08387,-8.63282 1.66958,-27.37993 1.296,-41.4807 -0.18345,-6.92527 1.69914,-6.36626 -17.75241,-5.27144 -25.81743,1.45311 -28.59183,1.69871 -28.87144,2.55581 -0.17148,0.52553 -1.07745,0.55006 -2.33096,0.0631 -1.12777,-0.43812 -2.27631,-0.56582 -2.55241,-0.28378 -0.276,0.28205 -5.56277,0.57514 -11.7483,0.65132 -10.7137,0.13195 -20.40608,1.88255 -22.55447,4.07374 -0.41247,0.4207 -0.85898,4.34421 -0.99228,8.71892 -0.13329,4.37471 -0.75358,9.16767 -1.37844,10.65103 -1.0595,2.51517 -1.99143,16.69327 -1.56585,23.82359 0.10329,1.73059 0.10127,5.47269 0,8.31579 -0.95621,25.72347 -0.10496,40.13393 2.37812,40.25806 6.79859,0.33988 13.5429,1.21439 19.90959,2.5816 7.34321,1.57692 9.69308,1.63371 20.23627,0.48909 z m 209.18149,-2.07563 c 0.36293,-0.068 0.66234,-2.04533 0.66533,-4.39397 0,-2.34865 0.6297,-5.48393 1.39278,-6.96728 0.763,-1.48336 1.71322,-5.73115 2.11153,-9.43954 0.3983,-3.70839 1.58151,-9.16984 2.6293,-12.13655 1.04772,-2.96671 2.10361,-6.4054 2.34636,-7.64153 1.22341,-6.22984 3.22469,-14.10435 3.92821,-15.45631 1.14256,-2.19559 1.7514,-12.83276 2.00559,-35.03861 0.21838,-19.07757 0.18538,-19.48657 -1.59911,-19.83166 -2.33711,-0.45194 -58.74722,0.0389 -63.4108,0.55178 -1.93564,0.21287 -6.56113,0.42404 -10.2788,0.46928 -5.92113,0.072 -6.82789,0.30262 -7.31136,1.85912 -0.96237,3.09803 -0.63771,96.69253 0.36539,105.34103 0.1238,1.06728 9.94376,1.75012 29.82766,2.07409 10.80291,0.17602 19.81219,0.49427 20.02062,0.70725 0.32633,0.33343 15.46377,0.24851 17.3073,-0.0971 z m -105.88974,-1.43587 c 14.13143,-0.15243 25.86029,-0.44748 26.06406,-0.65568 0.20368,-0.20819 0.51558,-23.7557 0.69296,-52.3278 0.35387,-57.00282 0.56151,-54.71403 -4.89824,-53.99055 -7.10108,0.94097 -28.30465,2.50385 -36.28689,2.67465 -4.83911,0.10354 -10.38209,0.45808 -12.31773,0.78787 -1.93565,0.3298 -6.09288,0.75168 -9.2383,0.93751 -9.30869,0.54998 -8.68462,-0.70137 -8.46519,16.976 0.1055,8.49166 -0.28471,19.9082 -0.86708,25.37009 -0.88573,8.30729 -1.27875,18.88548 -1.55159,41.76199 -0.0202,1.73059 0.26404,6.18065 0.63251,9.88904 0.36848,3.70839 0.67,7.4887 0.67,8.40068 0,1.54922 0.65275,1.61857 9.93592,1.05574 5.46485,-0.33132 21.49814,-0.72712 35.62957,-0.87954 z m 185.29512,-0.0684 c 4.35519,-0.29857 8.71039,-0.52842 9.67821,-0.51079 1.64231,0.0299 1.76443,-0.58047 1.83139,-9.15207 0.0396,-5.05127 0.53116,-10.60006 1.09284,-12.33064 0.5616,-1.73058 1.16878,-6.61095 1.34932,-10.84527 0.18046,-4.2343 0.72103,-8.4821 1.20116,-9.43954 0.48013,-0.95743 0.93659,-5.7863 1.01436,-10.73082 0.0774,-4.94452 0.33549,-18.59813 0.5726,-30.34137 l 0.43121,-21.35134 -5.06619,-0.19037 c -2.78636,-0.10471 -8.43158,-0.24718 -12.54482,-0.31662 -13.21438,-0.22307 -31.49081,-1.5094 -49.43414,-3.47928 -2.11337,-0.23201 -2.40609,0.0833 -2.77211,2.98719 -0.22506,1.78563 -0.47485,7.69666 -0.555,13.13563 -0.0801,5.43898 -0.49843,14.13684 -0.92946,19.32858 -1.20749,14.54458 -1.94972,18.9656 -6.2633,37.30865 -0.46508,1.97781 -1.23301,5.82105 -1.70645,8.54054 -0.47344,2.71948 -1.23951,6.15817 -1.7024,7.64153 -0.94996,3.04396 -3.46383,17.14197 -3.48864,19.56425 -0.015,1.49034 1.74287,1.55873 29.67834,1.15439 16.33199,-0.23638 33.25788,-0.67407 37.61308,-0.97265 z m 66.7204,-2.3642 c 0.67818,-1.09858 1.35372,-1.19743 3.23208,-0.47298 1.30604,0.50373 3.12589,0.60471 4.04418,0.22442 0.9182,-0.3803 4.63886,-0.6416 8.26819,-0.58065 7.34849,0.1234 9.74209,-0.69863 7.52024,-2.58271 -1.70662,-1.44726 -1.71357,-5.32744 -0.0132,-7.62392 0.85512,-1.15509 1.29178,-3.90991 1.29178,-8.14819 0,-3.52172 0.57277,-10.84016 1.27277,-16.26323 0.7,-5.42306 1.25148,-12.27472 1.22535,-15.2259 -0.0264,-2.95118 0.55078,-7.18627 1.28193,-9.41131 1.26503,-3.84995 2.96857,-16.86664 3.46718,-26.4928 l 0.23139,-4.46722 -3.51935,-0.65024 c -1.93564,-0.35764 -5.76391,-0.67356 -8.50733,-0.70206 -2.74342,-0.0285 -7.29658,-0.63123 -10.11814,-1.33941 -4.92665,-1.23654 -19.52818,-2.66864 -27.34607,-2.68206 -2.05662,-0.004 -3.73931,-0.27285 -3.73931,-0.59848 0,-0.32562 -1.78167,-0.84693 -3.95927,-1.15846 -2.1776,-0.31154 -5.72097,-0.81901 -7.87428,-1.12775 -3.65978,-0.52473 -3.95171,-0.41213 -4.47715,1.72726 -0.30917,1.25872 -0.32879,6.53746 -0.0431,11.73054 0.55052,10.0216 -1.48332,48.91503 -2.99259,57.22775 -0.91371,5.03268 -2.67823,28.84524 -2.19819,29.66518 0.14482,0.24723 9.67567,0.4251 21.17981,0.39528 17.86696,-0.0463 21.0415,-0.25671 21.77388,-1.44306 z m -2.95819,-19.40455 c -1.4813,-1.35974 -4.16005,-5.49422 -5.95272,-9.18771 -3.12035,-6.4287 -5.45913,-8.97588 -5.45913,-5.94552 0,0.78288 -0.36012,1.42342 -0.8003,1.42342 -0.44019,0 -2.56587,2.73831 -4.72377,6.08514 -4.98788,7.736 -6.22186,8.75367 -10.19054,8.4043 -4.04699,-0.35625 -6.01546,-1.42914 -6.70701,-3.65551 -0.92796,-2.98751 1.49256,-6.6919 13.24702,-20.27346 4.18196,-4.83203 4.56046,-5.93477 2.69186,-7.844 -0.66199,-0.67645 -1.51015,-2.22241 -1.88479,-3.43548 -0.37463,-1.21307 -2.20857,-3.98188 -4.07541,-6.15292 -5.48587,-6.38001 -4.37341,-11.13804 2.84628,-12.17282 4.63877,-0.66487 6.60274,0.54643 9.37423,5.78162 3.02533,5.71487 5.05423,8.97859 5.58504,8.98435 0.28797,0.003 1.24013,-0.80342 2.11601,-1.79232 0.87588,-0.98891 2.30333,-1.79801 3.17208,-1.79801 0.86875,0 1.89623,-0.54157 2.28318,-1.20348 1.90168,-3.25273 10.0371,-3.75744 12.36146,-0.76688 2.58408,3.32474 -0.45672,9.11141 -6.37883,12.13881 -1.45173,0.74213 -3.72092,2.30409 -5.04279,3.47103 -2.39104,2.11098 -2.39527,2.13524 -0.8266,4.8044 0.86708,1.47549 2.6564,5.68014 3.97625,9.34368 2.19053,6.08045 2.31468,7.0794 1.4241,11.46229 -1.15144,5.66747 -2.80307,6.21423 -7.03562,2.32907 z m 66.67483,18.26529 c 1.81405,-0.26157 5.60668,-0.68177 8.42805,-0.93381 2.82129,-0.25203 5.5494,-0.72328 6.06235,-1.04723 0.51295,-0.32393 4.93536,-0.75922 9.82753,-0.9673 4.89225,-0.20806 10.16881,-0.78298 11.72586,-1.27757 1.55696,-0.49459 4.25261,-0.66838 5.99038,-0.3862 1.73768,0.28218 3.95628,0.0773 4.93026,-0.45526 3.2371,-1.77018 11.0769,-3.46227 17.61937,-3.80282 6.05197,-0.31503 6.48115,-0.47405 6.76226,-2.50586 0.16506,-1.19321 0.85775,-2.80794 1.53928,-3.5883 0.68152,-0.78035 1.37474,-2.60083 1.54051,-4.04551 0.16576,-1.44468 0.99967,-4.0041 1.85311,-5.68761 1.07613,-2.12265 1.38249,-4.05166 0.99967,-6.29303 -1.29204,-7.56453 -1.53637,-28.86398 -0.4525,-39.43712 0.84385,-8.2315 0.87746,-11.29205 0.13224,-12.0535 -0.74522,-0.76144 -1.34096,-0.73046 -2.34618,0.12202 -2.25863,1.91529 -7.29605,0.4041 -8.84316,-2.65289 -0.7271,-1.43662 -1.32196,-3.27692 -1.32196,-4.08955 0,-1.241 -0.66894,-1.3889 -4.17923,-0.92397 -2.29857,0.30445 -12.29459,0.72907 -22.21327,0.94361 -14.34144,0.31019 -19.28666,0.099 -24.15146,-1.03161 -4.83841,-1.12445 -8.87246,-1.30192 -19.29582,-0.84888 -7.24819,0.31504 -13.30966,0.70677 -13.46988,0.87051 -0.1603,0.16375 -0.4825,2.88981 -0.7161,6.05791 -0.53485,7.2559 -1.07718,11.38769 -3.11612,23.74026 -0.8977,5.43897 -1.83666,12.7209 -2.08645,16.18206 -0.91767,12.71657 -2.2391,24.45322 -3.54258,31.46513 -1.10129,5.92425 -1.80463,7.62498 -3.99006,9.64814 -2.61154,2.41765 -2.62218,2.46317 -0.6773,2.90689 4.7667,1.08751 25.6808,1.14551 32.9912,0.0915 z m 94.36157,-17.54031 c 1.27286,-0.90695 6.29594,-2.21138 11.92242,-3.09613 8.7931,-1.38268 9.97103,-1.39667 12.31773,-0.14628 1.42718,0.76042 3.65793,1.38509 4.95718,1.38814 1.29926,0.003 3.47686,0.44011 4.83911,0.97126 1.36225,0.53115 7.12898,1.15804 12.81493,1.39307 9.97095,0.41217 10.33811,0.36189 10.33811,-1.41523 0,-2.62353 0.0801,-3.01225 0.96676,-4.70547 0.49157,-0.93855 0.42584,-2.47683 -0.1728,-4.04552 -0.96483,-2.52839 -0.37041,-9.36595 2.01791,-23.2082 0.5118,-2.96671 1.03267,-7.61906 1.15743,-10.33854 0.12467,-2.71949 0.67457,-8.15441 1.22192,-12.07759 0.63154,-4.52743 0.68838,-7.44644 0.15546,-7.99095 -0.46174,-0.47183 -4.13022,-0.96451 -8.15222,-1.09483 -4.02192,-0.13032 -8.32856,-0.64272 -9.57019,-1.13867 -1.35591,-0.54156 -3.81594,-0.609 -6.15886,-0.16882 -3.77275,0.70877 -32.79966,0.42051 -38.26539,-0.38 -3.88457,-0.56894 -4.92313,0.48406 -5.8152,5.89622 -1.78361,10.8211 -2.25661,32.16216 -0.9138,41.22774 0.91925,6.2061 0.75675,17.35055 -0.29228,20.0485 -0.54453,1.40056 -0.28815,1.53999 1.90133,1.03373 1.39199,-0.32184 3.52067,-1.29044 4.73045,-2.15243 z m 48.3911,-76.81646 c 7.50061,-0.0545 14.07424,-0.38965 14.60812,-0.74479 1.30471,-0.86804 2.21103,-18.11666 2.54036,-48.34999 0.14816,-13.59743 0.54224,-30.29103 0.8757,-37.0969 l 0.60639,-12.37431 -3.28136,-1.40091 c -2.07615,-0.88636 -4.12424,-1.15762 -5.57597,-0.73852 -1.26204,0.36431 -2.64154,0.57898 -3.06562,0.47705 -0.42409,-0.10193 -3.5915,-0.15402 -7.03871,-0.11576 -11.55061,0.12818 -14.97582,-0.0702 -15.9849,-0.92593 -0.55149,-0.46768 -1.22333,-0.62498 -1.49291,-0.34954 -0.2695,0.27543 -2.17672,0.0368 -4.23809,-0.53043 -3.13733,-0.8632 -9.70127,-1.17001 -19.89525,-0.92993 -1.7083,0.0403 -1.96978,0.68454 -2.48097,6.11324 -0.31428,3.33755 -1.10244,10.31607 -1.75149,15.50781 -0.64915,5.19175 -1.2309,12.78553 -1.29301,16.87506 -0.0625,4.08953 -0.2805,7.93277 -0.4855,8.54053 -0.7966,2.36216 -2.28758,23.40385 -2.68122,37.83947 -0.22735,8.3371 -0.60313,15.47205 -0.83496,15.85545 -1.26873,2.09752 2.6572,2.72446 16.184,2.58444 7.81367,-0.0809 14.44193,0.0933 14.72937,0.38705 0.28753,0.29376 1.96177,0.29603 3.72066,0.005 1.75879,-0.29099 9.33473,-0.57365 16.83536,-0.62814 z m -62.46851,-2.29762 c 0,-0.96197 0.37411,-6.72683 0.83136,-12.8108 0.45725,-6.08397 1.27629,-18.14142 1.82003,-26.79433 0.54374,-8.65291 1.9748,-25.40306 3.18017,-37.22256 2.24957,-22.05784 2.20778,-22.94999 -1.07604,-22.99692 -0.52992,-0.007 -1.68005,-0.82286 -2.55593,-1.81177 -1.73882,-1.96324 -5.30472,-2.30953 -9.90398,-0.96176 -1.56954,0.45994 -2.85367,0.51255 -2.85367,0.11692 0,-0.39563 -1.88065,-0.98634 -4.17923,-1.31268 -5.17028,-0.73405 -30.30628,-0.84116 -38.05299,-0.16214 -3.14542,0.2757 -9.08433,0.6867 -13.19757,0.91334 -4.11324,0.22664 -7.67659,0.48196 -7.91854,0.56738 -0.24196,0.0854 -4.9527,0.20799 -10.46832,0.27237 l -10.02839,0.11707 -0.24565,6.74253 c -0.13514,3.70839 -0.48083,13.01308 -0.76828,20.67708 -0.28744,7.66401 -0.71812,22.22787 -0.95726,32.36413 -0.39126,16.58865 -1.54781,31.97432 -2.71826,36.16163 -0.39689,1.42002 0.51172,1.52591 10.8367,1.26285 6.19855,-0.15793 15.62522,0.0687 20.94824,0.50367 11.33768,0.92639 22.01716,1.00008 31.23425,0.21549 3.62933,-0.30894 8.18249,-0.65863 10.11814,-0.77709 1.93564,-0.11846 4.60815,-0.28108 5.9389,-0.36139 1.65744,-0.10002 2.42378,-0.64158 2.43302,-1.71927 0.009,-1.01105 0.24451,-1.20389 0.65988,-0.53963 0.35554,0.56849 2.03216,1.16069 3.72585,1.316 4.12151,0.37793 6.71721,2.15718 7.80698,5.35123 0.67835,1.98833 1.45261,2.63769 3.14524,2.63769 1.63782,0 2.24535,-0.47323 2.24535,-1.74904 z m -514.26532,-5.88631 c 6.77476,-0.14238 16.58768,-0.72289 21.80653,-1.29005 5.21884,-0.56714 9.79743,-0.8363 10.17462,-0.59811 1.16235,0.73403 28.60256,-1.2266 29.46234,-2.10511 0.44494,-0.45457 0.93747,-3.84687 1.0947,-7.53844 0.15714,-3.69157 0.71196,-10.90182 1.23291,-16.02278 1.3312,-13.08495 2.06164,-28.49995 2.14514,-45.27098 l 0.0713,-14.38406 -17.4493,-0.15286 c -9.59718,-0.0841 -19.2974,-0.59155 -21.55603,-1.12774 -2.25872,-0.53617 -8.26396,-0.91116 -13.34503,-0.83328 -11.98198,0.18363 -31.69704,-1.0106 -33.6004,-2.03532 -0.94547,-0.509 -1.70477,-0.43907 -2.08653,0.19215 -1.09936,1.81745 -0.73009,37.80588 0.45347,44.20551 0.72138,3.90037 0.94142,9.38944 0.61263,15.28306 -0.28225,5.05821 -0.77839,13.91949 -1.10261,19.69176 -0.76142,13.55682 -0.69121,13.73226 5.16385,12.89977 2.53244,-0.36007 10.14735,-0.77115 16.9221,-0.91352 z m 403.01121,0.24712 c 0.57797,-0.59053 2.19986,-18.65876 3.00869,-33.51644 1.59234,-29.2501 2.15323,-42.38867 2.03419,-47.64719 -0.0669,-2.96671 -0.1274,-7.69669 -0.13374,-10.51107 l -0.0114,-5.11705 -35.68509,0.17253 c -22.97063,0.11106 -35.73875,0.49285 -35.8358,1.07154 -0.0827,0.49445 -0.22225,2.31493 -0.30979,4.04551 -0.088,1.73058 -0.40807,6.78748 -0.71223,11.23755 -0.91222,13.34623 -1.40853,25.77684 -1.97436,49.4452 l -0.53723,22.47509 2.50174,1.00915 c 2.43257,0.98124 18.28919,3.66435 25.3776,4.29416 3.21572,0.28572 8.89842,1.04977 14.51733,1.95188 1.20978,0.19423 5.56498,0.61049 9.67822,0.92503 4.11324,0.31453 7.55367,0.63474 7.64553,0.71158 0.34384,0.28777 10.12095,-0.2251 10.43646,-0.54747 z m -321.56777,-6.99718 c 2.6294,-0.49519 10.52163,-1.0766 17.53834,-1.29204 7.01671,-0.21543 14.93525,-0.59444 17.59676,-0.84225 2.66151,-0.2478 8.40245,-0.68985 12.75765,-0.98233 10.85544,-0.729 12.74745,-1.00705 13.73762,-2.01878 1.59505,-1.6298 1.25359,-77.38704 -0.35616,-79.03192 -0.19841,-0.20272 -5.07209,0.0407 -10.83037,0.54099 -18.87974,1.64019 -20.86201,1.76394 -37.30469,2.32879 -8.95235,0.30754 -16.32698,0.62191 -16.38804,0.6986 -0.0607,0.0767 -0.38035,6.81455 -0.7095,14.97301 -0.32924,8.15846 -0.97618,19.89045 -1.43774,26.0711 -0.46157,6.18065 -1.03988,15.28306 -1.28518,20.22758 -0.2453,4.94452 -0.62548,11.26078 -0.84474,14.03614 -0.53916,6.82318 -0.55394,6.81277 7.52605,5.29111 z m 240.5185,-26.79036 c 0.22999,-12.1247 0.84139,-22.83117 1.41874,-24.84683 0.64457,-2.25029 0.86514,-7.82333 0.60498,-15.28307 -0.22533,-6.45767 -0.14289,-14.08537 0.18309,-16.95042 l 0.59284,-5.20921 -14.56801,0.47169 c -8.01242,0.25944 -16.7456,0.66296 -19.40711,0.89672 -8.59118,0.75459 -26.73019,1.63642 -30.50038,1.48279 l -3.66541,-0.14935 -0.57814,6.10578 c -0.31797,3.35819 -0.96386,8.43956 -1.43537,11.29195 -0.4715,2.85238 -0.65222,5.5252 -0.40155,5.93959 0.51708,0.85491 -2.47587,29.38753 -3.88915,37.07569 -0.64114,3.48797 -0.64703,5.80464 -0.0194,7.49221 0.50001,1.34364 0.66754,2.84229 0.37226,3.33036 -0.29518,0.48806 -0.28207,2.6226 0.029,4.74342 l 0.56591,3.85603 9.72318,0.62866 c 5.34774,0.34575 10.77581,1.03844 12.06231,1.53931 1.2865,0.50087 12.2133,1.09281 24.28177,1.31544 12.06847,0.22262 22.14931,0.61595 22.40191,0.87405 1.27057,1.29823 1.86006,-5.2123 2.2281,-24.60481 z m -134.99636,19.92125 c 1.69369,-0.26918 14.07732,-0.47504 27.51905,-0.45747 l 24.4397,0.032 -0.11139,-2.86981 c -0.15353,-3.9543 1.62242,-23.18136 2.79771,-30.28941 0.53142,-3.21393 1.08836,-7.05717 1.23758,-8.54053 0.14922,-1.48336 0.62838,-4.31522 1.06478,-6.29302 0.4364,-1.97781 0.89981,-7.32581 1.02994,-11.88442 0.13004,-4.55862 0.55377,-10.6269 0.94151,-13.48505 0.38775,-2.85817 0.63137,-5.28541 0.54128,-5.39388 -0.45884,-0.55239 -69.38649,-0.36095 -79.07043,0.21961 -10.05523,0.60282 -11.35396,0.86965 -12.21268,2.50924 -0.65257,1.24581 -0.76836,6.18369 -0.36082,15.38409 0.64114,14.47306 0.62169,39.98247 -0.0352,45.91354 -0.21891,1.97781 -0.15028,6.54987 0.15256,10.16013 l 0.5506,6.56413 14.2181,-0.53984 c 7.81991,-0.29696 15.60375,-0.76013 17.29744,-1.02931 z M 373.52406,415.3697 c -0.95102,-1.59066 -1.38284,-3.43161 -1.0544,-4.49502 0.66551,-2.15438 4.94812,-7.50148 10.4062,-12.9928 2.18657,-2.19986 3.97555,-4.64925 3.97555,-5.44309 0,-1.6945 -4.06002,-6.25261 -9.84258,-11.0502 -4.70062,-3.89993 -6.16819,-7.84296 -3.88043,-10.42596 1.70143,-1.92106 8.65188,-2.00587 11.94521,-0.14576 2.27842,1.28692 4.41731,3.20298 4.41731,3.95716 0,0.79894 6.43214,7.77903 7.1683,7.77903 0.39646,0 2.73586,-1.92162 5.19862,-4.27027 2.46284,-2.34865 6.87989,-5.5574 9.81573,-7.13055 5.03048,-2.69559 5.45957,-2.77885 7.45047,-1.44595 2.69204,1.80233 4.03925,4.36966 3.38993,6.46008 -0.27961,0.90002 -4.45876,5.15798 -9.28704,9.46212 -4.82829,4.30414 -8.76996,8.50822 -8.75914,9.34242 0.0106,0.83418 0.79379,2.52808 1.74005,3.76421 0.94636,1.23613 1.72932,2.6104 1.74015,3.05393 0.0105,0.44352 1.33541,2.46628 2.94376,4.49502 4.36734,5.50907 4.52245,6.55656 1.43774,9.70848 -2.48959,2.54378 -2.7831,2.63212 -4.24733,1.27814 -0.86514,-0.79997 -1.93767,-1.46388 -2.38348,-1.47535 -1.41821,-0.0365 -6.94922,-5.72821 -8.06072,-8.29493 -1.40264,-3.23906 -2.61462,-3.11429 -6.66425,0.68604 -2.25186,2.11316 -3.19751,3.66498 -2.87373,4.71547 0.78482,2.546 -4.47283,5.6435 -9.1306,5.3793 -3.2027,-0.18168 -4.10005,-0.66148 -5.44532,-2.91152 z M 269.47407,345.42994 c 0.276,-0.88685 0.26184,-4.52782 -0.0317,-8.09103 -0.97759,-11.87635 -1.91101,-65.43136 -1.37844,-79.08848 0.14975,-3.84046 0.11411,-7.1418 -0.0792,-7.33631 -0.38536,-0.38768 -12.04911,-1.095 -31.14591,-1.88875 -6.77475,-0.28159 -14.0994,-0.67432 -16.277,-0.87272 -2.1776,-0.1984 -8.7104,-0.61872 -14.51733,-0.93401 -5.80693,-0.3153 -12.88364,-1.16858 -15.72605,-1.89617 -7.17613,-1.8369 -7.58966,-1.52732 -7.58966,5.68167 0,3.3303 -0.47221,10.39423 -1.04929,15.69765 -0.83057,7.63206 -0.81376,11.95192 0.0809,20.7185 1.31475,12.88775 1.30973,17.43242 -0.0413,37.85393 -0.95313,14.40525 -0.92286,15.14805 0.66569,16.34742 2.97103,2.2431 11.07857,3.48371 24.10008,3.68777 13.4243,0.21037 26.35238,0.94022 26.91961,1.51972 0.18486,0.18892 8.26326,0.3142 17.95204,0.27839 16.13509,-0.0596 17.65808,-0.20066 18.1178,-1.67758 z m 35.11248,0.85743 c 12.11766,-0.43275 40.25022,-2.36531 40.70509,-2.79623 0.32369,-0.30666 1.06883,-13.70108 1.46467,-26.32778 0.1823,-5.81685 1.14493,-15.633 2.13924,-21.81365 2.54634,-15.82931 3.84093,-27.19244 4.01998,-35.2859 l 0.15414,-6.96727 -4.88512,-0.0969 c -11.69797,-0.2321 -23.62647,-0.78374 -26.88107,-1.24311 -1.93565,-0.27321 -11.93281,-0.70055 -22.21591,-0.94965 -17.46831,-0.42316 -18.7014,-0.34806 -18.77091,1.14314 -0.0414,0.87783 -0.29078,4.22563 -0.55544,7.43957 -0.26466,3.21394 -0.48646,10.09132 -0.4928,15.28306 -0.0202,16.56782 1.09962,71.15493 1.47268,71.77367 0.36918,0.61247 2.67497,0.59711 23.84545,-0.15892 z m -8.35846,-16.58278 c -3.01151,-2.06871 -3.49032,-2.90366 -3.50589,-6.11467 -0.009,-1.78948 1.18602,-4.50405 3.36301,-7.64153 1.85698,-2.67636 5.18743,-8.39829 7.40084,-12.71538 l 4.02438,-7.84927 -2.24957,-4.61259 c -1.23723,-2.53692 -3.4875,-5.88213 -5.00047,-7.43379 -5.46907,-5.60866 -8.38204,-12.87261 -5.81291,-14.49503 0.47238,-0.29831 2.79304,-0.77643 5.15699,-1.06251 l 4.2981,-0.52014 4.30126,5.47821 c 2.36571,3.01302 5.27718,6.77148 6.46989,8.35214 l 2.16871,2.87391 6.18975,-6.84242 c 3.75216,-4.14772 7.07126,-7.00275 8.42797,-7.24952 4.7125,-0.85717 11.35422,4.30736 8.8414,6.87495 -0.52878,0.54025 -0.9614,1.53096 -0.9614,2.20156 0,0.6706 -1.94866,3.24209 -4.33047,5.71444 -2.38172,2.47233 -6.00375,6.71122 -8.04876,9.41975 -3.67834,4.87167 -3.70667,4.96532 -2.63221,8.71457 0.59732,2.08449 1.64618,4.68668 2.33078,5.78266 0.6846,1.09597 2.25652,3.84444 3.49322,6.1077 l 2.24843,4.11503 -2.02953,1.72867 c -3.14313,2.67734 -4.75587,2.17482 -10.14866,-3.1623 l -5.00241,-4.95079 -1.96705,2.47853 c -1.08185,1.36319 -2.80062,4.11191 -3.81938,6.10826 -2.49927,4.89708 -7.47616,10.31556 -9.42183,10.25767 -0.87148,-0.0259 -2.57441,-0.72709 -3.78419,-1.55811 z m 70.63832,11.57838 c 2.31583,-0.38926 4.42181,-0.35855 4.67995,0.0682 0.25815,0.4268 0.86497,0.52621 1.34844,0.2209 0.48347,-0.3053 17.89283,-0.57913 38.68745,-0.60849 20.79461,-0.0294 37.99624,-0.36388 38.22579,-0.74338 0.22955,-0.3795 0.58923,-8.91128 0.79933,-18.9595 0.21011,-10.04823 0.66622,-20.8991 1.01366,-24.11303 0.57287,-5.3006 0.72446,-27.47973 0.26897,-39.35773 -0.10004,-2.61035 -0.54242,-4.97371 -0.98296,-5.2519 -0.90077,-0.56883 -27.85232,-0.44309 -31.94155,0.14902 -1.45173,0.21021 -14.22038,0.40157 -28.37477,0.42524 l -25.73526,0.0431 0,3.10418 c 0,1.70731 -0.37992,4.82934 -0.8443,6.93785 -0.46446,2.10852 -1.25702,7.67691 -1.76126,12.3742 -0.50432,4.6973 -1.55256,14.20426 -2.32945,21.12659 -1.56682,13.9604 -1.74895,16.34454 -2.55725,33.48789 l -0.56169,11.9118 2.92722,-0.0536 c 1.60993,-0.0295 4.82186,-0.37208 7.13768,-0.76133 z m 421.11732,-0.60964 c 5.04041,-0.22058 9.62147,-0.78863 10.17999,-1.26232 1.07542,-0.91193 2.71201,-14.26701 3.58173,-29.22774 0.28744,-4.94452 1.05774,-12.631 1.71181,-17.08107 0.65399,-4.45007 1.42798,-14.56386 1.71991,-22.4751 0.29193,-7.91123 0.76722,-15.90112 1.05633,-17.75531 0.51136,-3.27997 0.45242,-3.37127 -2.17452,-3.37127 -1.48499,0 -2.94103,0.39852 -3.23569,0.88559 -0.85203,1.40867 -24.44349,0.0568 -28.73736,-1.64668 -1.57975,-0.62677 -4.28103,-0.63774 -8.35847,-0.034 -5.2843,0.78251 -15.82494,0.46222 -19.66182,-0.59744 -2.78592,-0.7694 -3.49419,1.00398 -3.98549,9.97866 -0.26932,4.91941 -0.89638,12.38308 -1.39349,16.58592 -0.49711,4.20284 -0.81499,12.49615 -0.70642,18.42957 0.43068,23.54063 0.32677,35.2902 -0.35537,40.17854 l -0.71408,5.11741 3.19918,0.61323 c 1.7595,0.33728 6.42264,0.42256 10.36265,0.18952 3.93991,-0.23305 8.56434,-0.0892 10.27642,0.31975 1.71216,0.40892 5.68181,0.98274 8.82152,1.27516 3.1397,0.29242 5.89051,0.7176 6.11294,0.94484 0.22233,0.22724 1.01894,0.1703 1.77005,-0.12654 0.75112,-0.29683 5.48967,-0.72018 10.53018,-0.94077 z m -309.47282,-0.3213 c 3.54337,-0.46576 12.77093,-1.05312 20.50576,-1.30521 8.39489,-0.27361 14.18414,-0.82878 14.3631,-1.37737 0.17913,-0.54909 1.1605,-0.34277 2.43803,0.51255 1.62963,1.09099 2.42641,1.18726 3.34928,0.40463 0.66603,-0.56482 3.1338,-0.91608 5.48394,-0.7806 l 4.27284,0.24635 0.66877,-5.39402 c 0.74821,-6.03458 3.38861,-50.19826 3.94229,-65.93963 0.20359,-5.78624 0.022,-9.98871 -0.41933,-9.70998 -0.42795,0.27027 -3.32306,0.0625 -6.43346,-0.46168 -3.1105,-0.5242 -6.64525,-1.05627 -7.85502,-1.18239 -1.20978,-0.12613 -3.98127,-0.48299 -6.15887,-0.79302 -2.1776,-0.31004 -11.48188,-0.78053 -20.67619,-1.04553 -9.19431,-0.26499 -19.572,-0.66008 -23.06152,-0.87797 l -6.3446,-0.39617 0.088,16.82909 c 0.0484,9.256 -0.36241,21.07688 -0.91239,26.26863 -0.79582,7.51162 -1.5135,36.65121 -1.09056,44.27593 0.0739,1.32591 0.97636,1.57325 5.74253,1.57325 3.1104,0 8.5544,-0.38109 12.09777,-0.84686 z m 118.79907,-2.86788 14.69461,-0.13468 0.39399,-2.34556 c 0.41652,-2.47921 0.57445,-8.03487 1.01217,-35.60869 0.14913,-9.39458 0.48065,-18.90155 0.73678,-21.12658 0.25603,-2.22504 0.74249,-6.75865 1.08105,-10.0747 l 0.61554,-6.02917 -6.93621,0.004 c -7.55798,0.004 -23.34139,-0.95531 -24.1519,-1.46712 -0.27768,-0.17535 -6.41587,-0.55504 -13.64048,-0.84378 -7.22462,-0.28874 -16.14696,-0.69946 -19.82759,-0.91272 l -6.69196,-0.38773 -0.61026,11.42928 c -0.33557,6.28609 -0.97486,15.2725 -1.4205,19.9698 -0.85441,9.00415 -1.96423,30.04214 -1.82584,34.61164 0.0449,1.48335 -0.34076,4.81508 -0.85696,7.40384 -0.5162,2.58876 -0.73466,5.04393 -0.4854,5.45594 0.24917,0.41201 10.07528,0.6237 21.83573,0.47041 11.76044,-0.15328 27.99521,-0.3393 36.07723,-0.41337 z m 52.65021,-1.25328 c 1.27427,-0.80471 13.03339,-1.18853 40.43533,-1.31982 19.64071,-0.0941 24.66714,0.24514 33.17165,2.23886 3.12448,0.73248 3.1441,0.69644 4.20712,-7.72506 0.42285,-3.34989 0.60515,-28.16241 0.26035,-35.42365 -0.0958,-2.01698 0.92884,-26.83228 1.54974,-37.5334 0.40077,-6.90642 -0.12221,-8.2208 -2.23567,-5.61877 -0.60242,0.74168 -1.75052,1.3485 -2.55144,1.3485 -0.80091,0 -2.23716,0.5364 -3.1917,1.192 -4.74444,3.25864 -11.75675,5.0645 -23.14185,5.95963 -6.45053,0.50716 -12.05686,1.12967 -12.45859,1.38335 -0.40174,0.25369 -2.84461,0.66182 -5.42869,0.90697 -2.584,0.24514 -7.6677,0.84679 -11.29703,1.33699 -3.62934,0.4902 -14.61939,0.73598 -24.42228,0.54618 -17.64665,-0.34167 -17.82728,-0.32597 -18.19391,1.58168 -0.85837,4.46558 -2.36914,26.01497 -2.22317,31.71127 0.17473,6.82276 -0.69085,28.96076 -1.39032,35.5561 -0.42998,4.05506 -0.35731,4.22004 1.99556,4.52921 4.10497,0.53939 23.84018,0.009 24.9149,-0.67004 z m 20.63897,-84.55247 c 7.74258,-0.71249 15.69227,-1.90552 17.66592,-2.65118 3.32517,-1.25621 8.84695,-2.07831 14.65027,-2.18115 1.8942,-0.0335 2.77782,-0.79604 4.18213,-3.60851 1.65498,-3.31476 5.29399,-6.52299 5.29399,-4.66732 0,0.9546 15.9358,0.43231 16.80596,-0.5508 0.31912,-0.3605 0.81887,-7.12829 1.11053,-15.03952 0.49993,-13.55679 1.85523,-29.17974 2.7502,-31.70148 0.22163,-0.62445 0.45197,-4.66997 0.51198,-8.99004 0.0598,-4.32008 0.63647,-13.59752 1.28113,-20.61652 0.83101,-9.04851 0.93747,-15.32656 0.36566,-21.57609 -1.31641,-14.3885 -1.43607,-14.66666 -5.49538,-12.77683 -1.69518,0.78918 -2.9867,0.59622 -6.57943,-0.98299 -3.86134,-1.69731 -5.40713,-1.88338 -11.34973,-1.36617 -11.62662,1.0119 -16.75229,0.64209 -19.23326,-1.38767 -1.11986,-0.91619 -8.37949,-2.69819 -13.16159,-3.23073 -1.93564,-0.21555 -7.0841,-0.98151 -11.44097,-1.70214 -8.05896,-1.33295 -16.03311,-1.1342 -24.9061,0.62078 -4.55096,0.90012 -4.65839,0.99169 -4.11729,3.50901 0.4796,2.23103 -0.53926,17.10243 -1.84502,26.93207 -0.2299,1.73058 -0.59213,5.49321 -0.80488,8.3614 -0.21283,2.86819 -0.78561,9.34101 -1.27295,14.38405 -0.48725,5.04305 -1.08695,14.0238 -1.33269,19.95722 -1.23248,29.76336 -2.21244,41.74907 -4.00581,48.9957 -0.42831,1.73058 -0.95568,4.84538 -1.17204,6.92176 l -0.39337,3.77525 4.08957,0.34932 c 9.05116,0.77311 25.07987,0.44864 38.40317,-0.77742 z m 25.08788,-26.44308 c -0.68654,-0.43355 -1.53919,-0.60451 -1.89482,-0.37992 -0.35572,0.22459 -2.35418,-0.55941 -4.44125,-1.74221 -2.80272,-1.58846 -5.26195,-4.35419 -9.40863,-10.58146 -3.0877,-4.63699 -5.94771,-8.56216 -6.35542,-8.72261 -0.40781,-0.16044 -3.62247,2.48126 -7.14367,5.87046 -3.52111,3.3892 -7.69586,7.09293 -9.2771,8.23051 l -2.87505,2.06834 -3.94211,-2.54477 c -2.22978,-1.43936 -3.94291,-3.23187 -3.94379,-4.12653 0,-2.03012 7.58033,-10.50155 15.07955,-16.84782 3.2136,-2.71949 6.22766,-5.558 6.69794,-6.30781 1.07481,-1.71383 -1.20573,-9.34805 -5.54879,-18.57426 -1.85496,-3.94063 -2.91842,-7.33269 -2.61013,-8.32526 0.59372,-1.91131 3.70835,-3.01582 8.81572,-3.12624 3.15334,-0.0681 3.67948,0.24451 5.05907,3.00621 0.84684,1.69526 1.53971,3.54345 1.53971,4.10709 0,1.49324 2.50464,9.68971 3.38448,11.07575 0.96535,1.52072 6.8,-2.40617 12.45261,-8.38091 4.64563,-4.9104 7.71882,-6.73771 11.33134,-6.73771 6.85755,0 9.19607,9.67321 3.17815,13.14574 -2.26637,1.30773 -13.70303,10.73936 -20.14362,16.61202 -1.09153,0.99529 1.65691,8.07361 5.89896,15.19243 1.91523,3.21393 3.75083,6.04579 4.07919,6.29302 1.64838,1.24095 3.57452,5.16498 3.57452,7.28198 0,2.87342 -1.7478,4.62478 -3.50686,3.51396 z m -78.90625,24.7907 c 0.44282,-2.02706 1.4857,-8.39549 3.70711,-22.63877 0.77866,-4.99274 1.56198,-15.30881 1.74059,-22.92459 0.42161,-17.96889 1.25693,-33.27703 1.87141,-34.29291 0.85063,-1.40626 3.29983,-29.55653 3.34435,-38.43871 l 0.0431,-8.54053 -2.48651,0.29806 c -1.36753,0.16392 -7.70236,1.69951 -14.0774,3.41241 -16.94771,4.55368 -17.4662,4.68427 -20.8292,5.24583 -1.69369,0.28281 -4.06925,0.70141 -5.27903,0.93021 -1.20978,0.22881 -5.15902,0.65868 -8.77603,0.95527 -3.61701,0.29659 -6.9011,0.74428 -7.29799,0.99488 -0.39681,0.2506 -3.26306,0.4357 -6.3695,0.41134 -5.66202,-0.0444 -7.46428,0.8245 -5.91084,2.84969 1.23811,1.61407 2.01958,6.78366 1.1122,7.35672 -0.4342,0.27418 -1.02378,2.61604 -1.31008,5.20412 -0.79414,7.17816 -1.27875,10.54423 -2.29532,15.94315 -2.19713,11.66942 -3.17973,19.97943 -3.88017,32.81363 -0.41564,7.6167 -1.51227,17.98902 -2.66134,25.1721 -0.51268,3.20498 -1.21787,9.74098 -1.77014,16.40682 -0.48646,5.87156 -0.38212,6.52793 1.05299,6.62028 0.87614,0.0564 2.58276,0.21503 3.79254,0.35256 1.20978,0.13753 7.14868,0.50017 13.19757,0.80588 17.44472,0.88163 27.30956,1.56407 32.99392,2.28247 2.90347,0.36694 8.51895,0.66423 12.47884,0.66063 6.57705,-0.006 7.23525,-0.16864 7.60919,-1.88054 z m -83.99162,-4.02963 c 0.78622,-0.50895 1.60588,-4.48329 2.36096,-11.44853 0.63612,-5.86792 1.60201,-13.09625 2.14645,-16.06296 1.19684,-6.52175 2.24306,-15.35754 3.03394,-25.62161 0.94953,-12.32413 1.48992,-16.52468 2.33281,-18.13395 0.43613,-0.83263 0.56028,-2.13333 0.276,-2.89044 -0.28436,-0.7571 -0.0968,-2.70803 0.41678,-4.33539 0.51356,-1.62735 1.00865,-6.19525 1.10006,-10.15086 0.0915,-3.95562 0.69719,-8.28446 1.34607,-9.61965 0.64879,-1.33519 1.17968,-3.78272 1.17968,-5.43897 0,-1.65624 0.42373,-3.44431 0.94161,-3.97346 0.66894,-0.68348 0.22295,-0.86266 -1.53972,-0.61872 -1.36472,0.18887 -9.60801,0.29724 -18.3184,0.24083 -20.18067,-0.13068 -19.27154,-0.17886 -19.66984,1.04217 -0.24459,0.74981 -0.53318,0.72052 -1.0324,-0.10478 -0.4576,-0.7566 -3.33371,-1.22478 -8.47187,-1.37908 -4.27848,-0.12849 -11.57603,-0.45254 -16.21674,-0.72012 l -8.43764,-0.48649 -1.89429,2.61786 c -1.04182,1.43983 -1.83482,3.54836 -1.76223,4.68562 0.15045,2.35825 -0.92137,10.60988 -1.50294,11.57149 -0.21248,0.35124 -0.58052,4.8294 -0.81799,9.95148 -0.23738,5.12209 -0.89585,12.5493 -1.46325,16.50492 -0.56741,3.95561 -1.07851,9.61933 -1.13596,12.58605 -0.0572,2.96671 -0.35836,5.80538 -0.66886,6.30817 -0.31049,0.50279 -0.69718,10.00975 -0.85933,21.12659 l -0.29484,20.21243 2.1996,0.18797 c 1.20977,0.10338 9.12832,0.37719 17.59676,0.60846 21.92882,0.59887 34.21743,1.35178 38.27295,2.34491 3.13363,0.76739 6.16547,1.34182 8.79838,1.66699 0.48391,0.0598 1.42182,-0.24215 2.08425,-0.67093 z m -32.95469,-66.2671 c -0.42505,-2.31487 -0.24732,-3.47047 0.62003,-4.03175 2.15604,-1.39529 4.21952,-0.86912 5.71067,1.45622 1.3634,2.1262 1.35601,2.38338 -0.11614,4.04552 -0.86461,0.97623 -2.48255,1.77497 -3.59545,1.77497 -1.62744,0 -2.13986,-0.63485 -2.61911,-3.24496 z m -144.37147,62.5792 c 0.81667,-0.84924 1.49784,-10.37677 2.31389,-32.36413 0.44959,-12.11407 1.42709,-26.27338 2.17223,-31.46513 0.74513,-5.19174 1.36199,-13.3287 1.37087,-18.08212 0.009,-4.75341 0.36241,-10.61941 0.78561,-13.03555 0.42329,-2.41613 0.52227,-6.41573 0.21996,-8.88799 -0.53978,-4.41522 -0.60515,-4.49735 -3.6845,-4.62659 -7.31779,-0.30713 -14.99314,-1.13688 -22.39504,-2.42103 -13.69187,-2.3754 -28.67032,-3.88919 -44.41466,-4.48874 l -3.9569,-0.15068 -0.98911,4.08377 c -0.54401,2.24607 -1.24656,6.24324 -1.56119,8.88258 -0.31463,2.63935 -0.81737,5.20443 -1.11722,5.7002 -1.21417,2.0073 -2.18675,22.63746 -2.51061,53.25373 -0.44731,42.27759 -0.48198,40.31049 0.72516,41.09472 0.57691,0.37479 4.81025,0.6901 9.4074,0.70071 4.59716,0.0106 12.11977,0.20342 16.71692,0.42847 18.24125,0.893 26.74127,1.43175 27.01587,1.71234 0.46614,0.47633 19.42805,0.15757 19.90132,-0.33456 z m 81.39531,-0.35315 c 8.38934,-0.22092 15.43104,-0.58329 15.64827,-0.80528 0.62249,-0.63599 1.09197,-8.64949 1.64398,-28.05918 0.28119,-9.88905 0.86849,-19.39601 1.30489,-21.12659 0.43648,-1.73058 1.03521,-8.20341 1.33057,-14.38406 0.29537,-6.18065 0.91248,-13.05803 1.37141,-15.28306 0.45892,-2.22504 0.99932,-6.47283 1.20089,-9.43954 0.20157,-2.96671 0.8669,-7.5272 1.47865,-10.13442 0.83347,-3.55254 0.86049,-4.99761 0.1077,-5.76681 -0.70299,-0.71826 -9.79674,-1.0971 -30.29027,-1.26186 -16.10711,-0.12951 -35.46601,-0.49706 -43.01968,-0.81679 l -13.73401,-0.58134 -0.54268,10.62912 c -0.29845,5.84601 -0.71734,12.85414 -0.93087,15.57363 -0.21354,2.71949 -0.651,9.38164 -0.97222,14.80479 -0.32123,5.42315 -0.94917,10.55744 -1.39543,11.40954 -0.44634,0.8521 -1.16631,13.20388 -1.5999,27.44839 -0.43358,14.2445 -1.04146,26.53552 -1.35081,27.31336 -0.50582,1.27177 2.21121,1.38744 26.96686,1.14802 15.14113,-0.14643 34.39331,-0.44699 42.78265,-0.66792 z m 371.013,-16.72792 c -0.801,-12.04944 -0.51893,-21.57105 1.7229,-58.16204 0.27856,-4.54704 1.3114,-12.03124 2.29506,-16.63157 2.67981,-12.53192 2.79111,-13.50833 1.92807,-16.91137 -0.66876,-2.63721 -1.20986,-3.16203 -3.37989,-3.27814 -9.00145,-0.48163 -17.02531,-1.2929 -19.30048,-1.95144 -1.45173,-0.42019 -12.08114,-0.85762 -23.62093,-0.97208 -11.53987,-0.11444 -21.59994,-0.45056 -22.35581,-0.74693 -1.1803,-0.46281 -1.28474,0.0851 -0.74012,3.88243 1.37413,9.58026 1.49115,16.45822 0.5243,30.8163 -0.55404,8.22753 -1.16983,17.58873 -1.36841,20.80267 -0.3229,5.2281 -1.47593,16.50935 -2.57256,25.1721 -0.21908,1.73058 -0.66736,9.30462 -0.99607,16.83119 l -0.59776,13.68469 2.70172,-0.79172 c 1.48596,-0.43545 2.96206,-0.52571 3.28021,-0.20059 0.31815,0.32511 10.14717,0.68264 21.84224,0.79448 31.45141,0.3008 39.16961,0.93559 39.41016,3.24127 0.43965,4.21538 1.58054,-10.26601 1.22737,-15.57925 z M 269.785,236.24022 c -0.0651,-1.8542 0.12555,-8.02361 0.42461,-13.70981 0.29915,-5.68619 0.71698,-24.0933 0.92849,-40.90466 0.30408,-24.15949 0.66859,-31.49112 1.73936,-34.97927 0.74504,-2.42723 1.35468,-6.08842 1.35468,-8.13599 0,-2.04756 0.42136,-4.15333 0.93633,-4.6795 0.51488,-0.52616 0.81182,-2.71252 0.65987,-4.85857 l -0.27644,-3.90192 -3.8697,-0.26028 c -2.12842,-0.14316 -5.14811,-0.62095 -6.71062,-1.06177 -2.75864,-0.77829 -12.91461,-0.65975 -25.49304,0.29755 -10.04766,0.76469 -29.31092,0.59614 -38.24972,-0.33469 -4.58431,-0.47739 -8.4651,-0.73524 -8.62382,-0.573 -0.55307,0.56508 -1.87204,11.82455 -2.84954,24.3253 -0.54127,6.92233 -1.36216,14.81108 -1.82425,17.53057 -0.46209,2.71948 -1.03742,9.39459 -1.27849,14.83356 -0.24117,5.43897 -0.64176,12.31635 -0.89023,15.28306 -0.24846,2.96671 -0.60647,9.03499 -0.79546,13.48506 -0.18907,4.45007 -0.62556,11.7887 -0.96993,16.30808 l -0.62618,8.21706 4.29818,1.05405 c 10.72989,2.63131 11.98067,2.73419 50.48968,4.153 7.98453,0.29417 14.6823,0.70329 14.88396,0.90915 0.20157,0.20585 4.07796,0.37428 8.61405,0.37428 l 8.24743,0 -0.11922,-3.37126 z"
       style="fill:#dab" />
    <path
       id="path4160"
       d="m -976.1818,641.47595 c -6.9211,-2.9725 -2.87,-9.0196 9.308,-13.894 38.6201,-15.4581 51.0383,-22.6571 66.2979,-38.4344 28.9559,-29.9387 50.3407,-70.1455 78.0462,-146.73976 34.39832,-95.09761 39.18977,-120.78173 42.59062,-228.30685 1.40018,-44.27195 3.74312,-93.00552 5.20632,-108.29712 4.37818,-45.75429 3.70403,-57.551693 -3.75801,-65.756793 -6.41236,-7.05077 -6.45305,-7.05781 -41.88563,-7.29452 -66.0405,-0.4412 -76.2263,-3.09122 -155.8734,-40.551104 -69.464,-32.67075 -72.4008,-35.20329 -72.4008,-62.43265 0,-20.9717 3.2567,-23.99123 13.104,-12.15031 4.0104,4.82234 5.5119,10.28008 5.5119,20.03595 0,18.42005 9.0802,28.0343 36.6575,38.81446 11.286,4.41182 30.2313,12.99927 42.1011,19.08361 44.1775,22.644724 76.5882,27.851674 147.00557,23.617944 47.1005,-2.83213 51.23215,-1.7676 55.98611,14.42402 3.1998,10.89813 3.33144,102.823023 0.2678,186.795103 -2.21103,60.59864 -8.52765,119.65657 -14.848,138.82144 -2.13896,6.4858 -3.89763,13.84345 -3.90853,16.35034 -0.0266,4.46993 -31.24378,92.14624 -47.68503,133.89724 -25.82732,65.586 -69.54032,115.0047 -112.55992,127.2524 -15.0663,4.2893 -43.7893,7.0732 -49.1637,4.765 z m 440.79675,-13.4526 c -42.28883,-7.4195 -86.21399,-42.4912 -106.98742,-85.4232 -20.90507,-43.2041 -23.00839,-76.5807 -11.74447,-186.37702 7.80908,-76.11738 11.10435,-115.59968 15.01182,-179.85375 8.12874,-133.670833 8.68908,-138.681833 15.74794,-140.801093 2.70754,-0.81273 19.71924,3.33397 37.80427,9.21481 32.12484,10.44635 33.64682,10.68708 66.1243,10.45692 53.29478,-0.37807 87.09079,-10.32688 94.8653,-27.92638 4.00986,-9.07746 3.97529,-9.20525 -4.21436,-15.57333 -4.54147,-3.53142 -8.24655,-7.83558 -8.23326,-9.56495 0.0319,-4.07048 17.3287,-4.12959 33.2043,-0.11319 11.82212,2.99085 12.10775,2.91564 21.50582,-5.659734 19.62005,-17.90212 37.86092,-49.57147 34.01382,-59.05391 -0.77043,-1.89891 -7.97795,-4.74412 -16.01708,-6.32255 -9.23665,-1.81363 -17.7167,-5.50428 -23.03924,-10.02654 -9.49967,-8.07153 -8.46117,-10.29643 6.98759,-14.9676 21.90235,-6.622893 49.21712,-42.530183 51.81642,-68.116803 1.83606,-18.07216 -2.41819,-22.48897 -33.6766,-34.96501 -39.32545,-15.69578 -40.36634,-18.74475 -12.15322,-35.59825 28.10115,-16.78672 47.93927,-45.51115 38.70235,-56.03848 -1.64963,-1.88014 -10.46158,-6.60388 -19.58202,-10.49719 -15.05038,-6.42476 -20.02294,-7.17728 -53.81443,-8.14408 -47.59381,-1.36171 -76.68959,3.20313 -117.33596,18.40897 -16.54311,6.18868 -33.26892,11.25213 -37.16894,11.25213 -7.66947,0 -25.00508,-8.94399 -25.00508,-12.90082 0,-1.33582 4.90688,-10.8852 10.9041,-21.22086 15.2275,-26.24343 14.32463,-27.41104 -19.61711,-25.37138 -14.95385,0.89862 -42.57365,5.00897 -61.37699,9.13411 -27.96313,6.1346 -38.07447,9.67098 -55.53268,19.42204 -13.83928,7.72969 -23.69425,15.28015 -28.02669,21.47248 -10.15468,14.51382 -22.64645,15.84682 -31.30946,3.34105 -4.18219,-6.03735 -4.12687,-6.9424 0.99461,-16.23647 2.98333,-5.41349 4.70715,-10.52079 3.83115,-11.3495 -5.81054,-5.4958 -48.08315,8.61183 -78.03013,26.04086 -7.2469,4.21769 -14.3422,7.66849 -15.7671,7.66849 -5.8542,0 -53.56,48.20443 -69.7042,70.43224 -23.428,32.25712 -26.0231,37.63759 -26.0231,53.95697 0,14.90484 -1.6826,16.32933 -11.8471,10.0298 -5.8541,-3.62812 -7.3774,-3.50848 -19.8269,1.55728 -7.7243,3.14291 -16.011,4.86269 -19.3964,4.02533 -8.5676,-2.11916 -15.5331,4.70548 -13.6914,13.41475 0.809,3.82623 -0.027,9.60016 -1.8526,12.83074 l -3.3234,5.8738 -2.177,-5.56641 c -1.1976,-3.06154 -4.0109,-5.56667 -6.252,-5.56667 -8.7341,0 -4.3577,-12.58827 8.7579,-25.19102 13.5162,-12.9877 22.5933,-17.57128 34.7976,-17.57128 10.3352,0 15.4232,-6.43207 22.6757,-28.66554 20.4724,-62.76156 105.5617,-130.68925 183.83173,-146.75502 16.76383,-3.44094 21.67709,-3.54875 34.02605,-0.74668 13.76668,3.12377 15.45886,2.92545 36.66072,-4.29664 35.8512,-12.21207 96.71891,-23.19097 128.60441,-23.19676 19.58414,-0.003 49.53012,6.65167 55.54969,12.34544 4.7013,4.44674 4.8856,5.94063 1.89802,15.37269 -1.8201,5.74604 -3.95028,12.02741 -4.73374,13.95866 -1.96637,4.84685 5.53156,4.52724 39.03557,-1.66391 61.82191,-11.42396 138.21923,-3.91948 171.76845,16.87272 9.25952,5.73862 22.36827,24.38898 22.36827,31.82428 0,6.87238 -22.02521,39.95201 -32.86442,49.35901 -3.86465,3.35404 -7.02669,7.49128 -7.02669,9.19388 0,1.70262 5.22122,5.98983 11.60246,9.52714 6.38152,3.53727 15.49664,10.62625 20.25564,15.75321 8.51995,9.17823 8.63563,9.63662 7.51868,29.76671 -1.39326,25.10972 -11.97691,48.66279 -28.45805,63.330803 -12.02903,10.7057 -13.4675,14.89441 -5.89644,17.16736 10.05389,3.01802 18.91344,13.32854 18.88632,21.97888 -0.0346,10.59678 -10.23819,31.32524 -25.0338,50.8488 -14.92167,19.689844 -22.5781,26.286824 -35.18954,30.319324 -7.9519,2.54286 -11.73863,5.92763 -17.03404,15.2267 -12.49575,21.943163 -20.40164,25.808133 -67.47155,32.985433 -38.36913,5.85065 -77.24062,3.67329 -113.03384,-6.33136 -15.26261,-4.26618 -28.39396,-7.147863 -29.18061,-6.403553 -0.78692,0.74407 -2.24561,34.399113 -3.24155,74.788733 -1.73872,70.50644 -3.0187,87.93087 -11.58332,157.70306 -6.28418,51.19392 -12.2463,129.5596 -12.4314,163.39573 -0.13563,24.5678 1.07467,35.972 5.46216,51.528 8.4032,29.7938 22.80787,55.2463 42.36223,74.8529 22.99243,23.0534 37.00432,29.2801 70.58465,31.3664 19.098,1.1866 27.59029,2.809 31.81662,6.0781 3.89071,3.0095 4.89517,5.2995 3.08916,7.0432 -3.65322,3.5277 -42.43722,5.5207 -57.16049,2.9373 z m -853.64145,-34.0595 c -1.8055,-2.0576 -2.6139,-5.3893 -1.7967,-7.4037 0.8172,-2.0143 14.3294,-11.9332 30.0274,-22.042 55.7236,-35.8839 83.4519,-56.8778 108.4727,-82.1285 7.1673,-7.2331 7.7835,-9.3879 8.1904,-28.6337 0.242,-11.44677 1.4175,-29.58458 2.6126,-40.30663 1.781,-15.98158 1.5042,-19.49464 -1.5371,-19.49464 -2.0406,0 -14.5404,4.49258 -27.7773,9.98352 -42.1721,17.49411 -66.3607,20.98353 -79.8617,11.52121 -5.0478,-3.53796 -5.0476,-3.63355 0,-7.1778 2.819,-1.97563 11.1961,-5.56993 18.6158,-7.98702 23.0949,-7.52392 88.3086,-39.05744 95.4142,-46.13663 7.457,-7.4291 12.4854,-32.25294 12.4854,-61.63651 l 0,-15.54415 -12.4324,-8.79925 c -16.2607,-11.50888 -22.5914,-23.39155 -22.4962,-42.22437 0.1409,-27.72238 18.9621,-59.38872 41.2442,-69.38984 11.0812,-4.97378 35.2938,-5.27739 53.5211,-0.67137 21.1931,5.35561 43.9299,16.56993 47.1507,23.25622 6.6794,13.86634 -11.3224,66.22542 -27.7796,80.7976 -3.3407,2.95815 -13.5207,8.86716 -22.622,13.13158 -9.1013,4.26417 -17.9454,10.22299 -19.6533,13.24177 -1.7081,3.01877 -3.237,14.03941 -3.3979,24.49004 l -0.292,19.00136 28.0134,-0.84393 c 24.8828,-0.74935 28.7463,-0.27921 34.5723,4.20682 l 6.5589,5.05024 -13.7074,6.02674 c -7.5391,3.31459 -23.8283,9.27693 -36.198,13.24931 l -22.4903,7.22282 -9.7598,47.94524 c -11.1551,54.80007 -11.4617,59.54437 -4.5425,70.28737 2.7783,4.3137 10.0983,21.4267 16.2668,38.0286 6.1688,16.6016 14.36,35.845 18.2031,42.7624 3.8434,6.9175 7.3482,13.2974 7.7886,14.1778 1.489,2.9758 -14.0523,6.527 -19.7854,4.5212 -8.2926,-2.9015 -18.375,-16.5691 -28.5509,-38.7037 -4.9188,-10.6999 -11.2349,-22.357 -14.0353,-25.9048 l -5.0917,-6.4505 -13.8241,11.6132 c -18.0747,15.1837 -37.2019,28.5216 -77.3178,53.9154 -30.7938,19.4929 -33.7181,20.7898 -46.8787,20.7898 -9.1789,0 -15.1724,-1.2947 -17.3188,-3.7412 z m 202.6745,-342.46138 c 11.8232,-5.71357 18.0954,-13.50388 30.3478,-37.69282 13.3132,-26.28255 14.1137,-32.00265 5.2478,-37.49737 -22.46,-13.91967 -58.4466,-1.26728 -69.2879,24.3605 -5.9832,14.14405 -8.3365,39.94715 -4.2947,47.09049 5.9563,10.52685 20.8981,11.99788 37.987,3.7392 z"
       style="fill:#dab" />
  </g>
</svg>
