<?xml version="1.0" encoding="UTF-8" standalone="no"?>
<svg
   version="1.1"
   id="svg4204"
   viewBox="0 0 68.310577 129.53546"
   height="36.557785mm"
   width="19.278763mm"
   xmlns="http://www.w3.org/2000/svg"
   xmlns:svg="http://www.w3.org/2000/svg"
   xmlns:rdf="http://www.w3.org/1999/02/22-rdf-syntax-ns#"
   xmlns:cc="http://creativecommons.org/ns#"
   xmlns:dc="http://purl.org/dc/elements/1.1/">
  <defs
     id="defs4206" />
  <metadata
     id="metadata4209">
    <rdf:RDF>
      <cc:Work
         rdf:about="">
        <dc:format>image/svg+xml</dc:format>
        <dc:type
           rdf:resource="http://purl.org/dc/dcmitype/StillImage" />
      </cc:Work>
    </rdf:RDF>
  </metadata>
  <g
     transform="translate(-208.04531,-786.2442)"
     id="layer1">
    <path
       id="path4229"
       d="m 230.94651,915.39526 c -0.1192,-0.20994 -0.66868,-0.38172 -1.22107,-0.38172 -0.57326,0 -1.47532,-0.4314 -2.10159,-1.00508 l -1.09724,-1.00507 0.23172,1.00507 c 0.26051,1.12992 -0.31588,1.39373 -0.73643,0.33707 -0.14623,-0.36741 -0.37249,-3.75995 -0.50281,-7.53898 -0.20391,-5.91337 -0.2454,-6.27247 -0.29762,-2.57661 -0.0605,4.28713 -0.50473,5.60273 -0.97338,2.88322 -0.13375,-0.77612 -0.10497,-5.19931 0.0639,-9.8293 0.35746,-9.79897 0.3785,-12.53812 0.16581,-21.58752 -0.23055,-9.80939 0.14517,-17.58826 1.03219,-21.37022 0.98352,-4.19342 1.39007,-6.63487 1.03946,-6.24236 -0.60787,0.68053 -4.61196,9.34382 -4.4168,9.55627 0.11359,0.12359 0.30592,-0.0575 0.42752,-0.4025 0.1216,-0.34497 0.43367,-0.62721 0.6935,-0.62721 0.32398,0 0.0266,1.04939 -0.94663,3.34005 -0.78046,1.83703 -2.04316,5.08918 -2.80599,7.22699 -0.76283,2.13782 -1.53937,3.94224 -1.72564,4.00984 -0.18626,0.0676 -1.00792,1.23645 -1.8259,2.59746 -0.81797,1.36102 -1.78555,2.53712 -2.15019,2.61356 -0.45063,0.0945 -0.60316,-0.0306 -0.47626,-0.3906 0.14197,-0.40278 -0.0945,-0.49386 -0.98751,-0.38036 -0.78008,0.0991 -1.58325,-0.126 -2.39297,-0.67078 -1.01403,-0.68224 -1.29089,-1.17068 -1.64786,-2.90711 -0.36829,-1.79145 -0.34363,-2.39743 0.174,-4.27786 0.33167,-1.20492 0.74593,-2.9153 0.92057,-3.80083 0.17464,-0.88554 1.10964,-4.23954 2.07776,-7.45333 1.57149,-5.21672 2.78449,-10.75933 3.00799,-13.7444 0.0433,-0.57735 0.0983,-1.22534 0.12243,-1.43998 0.091,-0.80944 3.07834,-3.93599 4.77042,-4.99258 0.96824,-0.60459 1.62275,-1.10086 1.45449,-1.10284 -0.16825,-0.002 -0.10951,-0.26124 0.1306,-0.57616 0.24009,-0.31492 0.85113,-0.57543 1.35788,-0.57892 1.42229,-0.01 5.26283,-1.66616 5.78743,-2.49605 0.25806,-0.40823 0.67001,-1.42933 0.91543,-2.26912 0.24544,-0.83978 0.58027,-1.71205 0.74409,-1.93838 0.2371,-0.3276 0.97574,-4.71817 1.00642,-5.98231 0.004,-0.15746 -0.2972,-0.28629 -0.66891,-0.28629 -0.37172,0 -1.00893,-0.47238 -1.41604,-1.04974 -0.40709,-0.57735 -1.4722,-1.47916 -2.3669,-2.00403 -1.69442,-0.99401 -2.03656,-1.44284 -2.3491,-3.08167 -0.10298,-0.54021 -0.60993,-1.65674 -1.12643,-2.48118 -0.51652,-0.82444 -1.07561,-2.18607 -1.24244,-3.02586 -0.16682,-0.83978 -0.44826,-1.87043 -0.62544,-2.29032 -0.17716,-0.41989 -0.47273,-1.79386 -0.65681,-3.05325 -0.28856,-1.97418 -0.24709,-2.42376 0.30092,-3.26156 0.34958,-0.53446 1.02279,-1.90888 1.49601,-3.05427 1.22392,-2.96246 2.97035,-5.44281 3.63641,-5.16458 0.32705,0.13663 1.17915,-0.35586 2.16856,-1.25335 0.89641,-0.81312 1.97294,-1.59489 2.39229,-1.73726 0.41934,-0.14237 1.35339,-0.69542 2.07566,-1.229 0.72228,-0.53358 2.27268,-1.29138 3.44535,-1.68401 2.21824,-0.74271 3.3364,-0.68479 7.74251,0.40105 0.96428,0.23764 2.38441,0.48458 3.15585,0.54875 1.87618,0.15608 5.71127,1.7301 7.20706,2.95797 0.66469,0.54563 1.52411,1.05371 1.90982,1.12907 0.81169,0.15858 2.90082,4.25064 3.14572,6.16161 0.0862,0.67249 0.30145,1.74877 0.47839,2.39174 0.17693,0.64297 0.22286,2.61837 0.10205,4.38978 -0.18556,2.7207 -0.31282,3.2129 -0.81971,3.1702 -0.39057,-0.0329 -0.73679,0.40051 -0.99176,1.24152 -0.49116,1.62011 -5.76154,7.88971 -8.0307,9.55327 -2.45661,1.80097 -5.98325,5.45625 -5.97023,6.188 0.0246,1.38124 0.9354,2.07883 2.42944,1.86068 1.47244,-0.21499 2.2225,0.29434 1.37381,0.93291 -0.31137,0.23429 0.71797,0.27552 2.89433,0.11593 3.03377,-0.22246 3.44424,-0.17373 4.03247,0.4787 0.3602,0.3995 1.29983,0.92786 2.08808,1.17412 0.78824,0.24627 1.72,0.79279 2.07057,1.21449 0.7596,0.91372 0.36226,0.97105 -1.34576,0.19416 -0.69236,-0.31492 -1.69784,-0.57364 -2.23438,-0.57494 -0.53656,-0.001 -1.42753,-0.25895 -1.97992,-0.57258 -1.18717,-0.67402 -1.97615,-0.73431 -1.97615,-0.15102 0,0.65194 -4.19401,0.008 -5.47646,-0.84072 -0.60134,-0.398 -1.35475,-0.72365 -1.67426,-0.72365 -0.72765,0 -1.26487,-1.48772 -1.26487,-3.50281 v -1.54452 l -1.31493,0.30098 c -0.72323,0.16554 -1.78832,0.32356 -2.36689,0.35115 -0.57858,0.0276 -1.31685,0.18262 -1.64063,0.3445 -0.35563,0.17781 -1.43816,-0.0429 -2.73449,-0.55741 -1.38197,-0.54854 -2.26655,-0.72031 -2.48495,-0.48255 -0.18652,0.20305 -0.60245,1.96446 -0.92426,3.91424 -0.66112,4.00536 -2.23701,7.44584 -3.44194,7.51441 -0.38269,0.0217 -1.16918,0.24363 -1.74776,0.49301 -0.57856,0.24938 -1.72772,0.72942 -2.55365,1.06675 -0.82595,0.33734 -1.58477,0.75964 -1.68628,0.93844 -0.10147,0.17881 -0.49085,0.3251 -0.86517,0.3251 -0.81578,0 -3.63065,2.93749 -3.02558,3.15737 0.27202,0.0988 0.0854,0.67155 -0.53838,1.65175 -1.18111,1.85612 -2.14124,4.83937 -2.89513,8.99559 -0.7499,4.13426 -1.05265,5.21766 -2.51748,9.00888 -0.67045,1.73524 -1.61229,4.88962 -2.09297,7.00974 -0.80749,3.56153 -0.8336,3.94738 -0.3433,5.07216 0.9192,2.10871 1.71981,2.63999 3.53242,2.34409 1.32743,-0.2167 1.68959,-0.4637 2.16572,-1.47705 0.31445,-0.66925 1.01651,-1.83317 1.56013,-2.58648 1.24029,-1.71868 5.01714,-11.17611 4.53332,-11.35167 -0.68115,-0.24717 -0.3525,-1.81051 0.99399,-4.72828 0.74362,-1.61139 1.22497,-3.06823 1.06967,-3.23742 -0.68763,-0.74906 3.29733,-6.60599 4.49461,-6.60599 0.60803,0 0.66048,-0.60619 -0.77607,8.97043 -0.99612,6.64058 -1.64451,20.36348 -0.93974,19.88931 0.64491,-0.4339 0.76105,0.40248 0.35874,2.58329 -0.29473,1.59754 -0.29278,2.26985 0.008,2.66398 0.40339,0.52912 0.33294,8.42165 -0.10695,11.98573 -0.62452,5.05966 -0.63762,4.75749 0.19391,4.47019 0.70627,-0.24403 0.74402,-0.16998 0.52047,1.02112 -0.53142,2.8316 -0.96928,9.82409 -0.75874,12.11711 0.38604,4.20446 1.71841,5.77196 4.90614,5.77196 1.45384,0 1.66286,-0.12288 2.43494,-1.43145 0.46451,-0.7873 0.95037,-2.11855 1.07969,-2.95833 0.12932,-0.83979 0.54228,-2.88972 0.9177,-4.5554 0.39832,-1.76728 0.54721,-3.11958 0.35751,-3.24721 -0.19049,-0.12816 0.0966,-2.98295 0.69351,-6.89622 0.60921,-3.9938 1.04526,-8.36508 1.08496,-10.87644 0.0374,-2.37169 0.26236,-4.71874 0.51673,-5.39344 0.71385,-1.89342 2.19051,-3.57699 3.13736,-3.57699 0.87147,0 2.24805,1.19734 2.24805,1.95534 0,0.30491 0.14489,0.29755 0.50251,-0.0255 0.66235,-0.59841 1.44768,0.67823 2.26825,3.68734 0.35995,1.31998 0.79873,2.20813 1.09088,2.20813 0.35614,0 0.65762,1.24273 1.11125,4.58065 0.80085,5.89287 0.89877,6.29838 1.5208,6.29838 0.35423,0 0.51929,0.40237 0.51929,1.26591 0,5.13999 3.31698,15.52979 4.95795,15.52979 0.35885,0 0.65244,0.25766 0.65244,0.57258 0,0.9009 0.97767,0.66912 1.61017,-0.38172 0.31591,-0.52487 0.71403,-0.9543 0.8847,-0.9543 0.65669,0 0.26794,1.6061 -0.60092,2.48267 l -0.91124,0.91935 0.96552,0.2638 c 1.07023,0.29241 2.09008,-0.21685 2.07348,-1.03539 -0.006,-0.29203 0.54359,-1.29571 1.22112,-2.2304 0.99244,-1.36908 1.27418,-2.14819 1.4494,-4.00806 0.14793,-1.57032 0.0716,-2.61383 -0.23878,-3.26294 -0.25094,-0.52487 -0.55508,-2.26612 -0.67586,-3.86944 -0.19644,-2.6078 -0.28909,-2.89535 -0.87879,-2.72748 -0.75637,0.21532 -0.79612,0.0687 -1.34942,-4.97916 -0.22539,-2.05619 -0.63515,-3.8412 -1.05154,-4.58064 -0.37524,-0.66636 -0.9441,-2.75753 -1.26414,-4.64705 -0.32005,-1.88951 -0.72073,-3.72011 -0.8904,-4.06798 -0.16967,-0.34788 -0.48663,-2.15151 -0.70434,-4.00806 -0.42214,-3.59986 -0.8756,-5.95489 -1.38495,-7.19277 -0.38676,-0.93991 -1.40985,-7.67732 -1.40985,-9.2843 0,-0.64548 -0.4176,-2.59961 -0.928,-4.3425 -0.67335,-2.29933 -0.92402,-3.95451 -0.91352,-6.03181 0.021,-4.14139 0.0192,-4.13183 0.8281,-4.60309 0.63287,-0.36871 0.89902,-0.261 1.84091,0.74504 0.6056,0.64684 1.91344,2.0246 2.90633,3.06171 1.07731,1.12529 1.9768,2.47411 2.23069,3.34503 0.23399,0.80266 0.80232,2.21106 1.26293,3.12977 0.46062,0.91872 0.8375,1.90642 0.8375,2.19489 0,0.28848 0.24658,0.5245 0.54796,0.5245 0.33243,0 0.93897,0.93877 1.54205,2.38669 0.54675,1.31267 1.3221,2.70982 1.72299,3.10477 0.4009,0.39496 0.64194,0.87127 0.53567,1.05848 -0.10625,0.1872 0.36996,0.95347 1.05831,1.70283 1.19842,1.30461 1.32606,1.3513 3.0067,1.09967 1.47326,-0.22058 1.75515,-0.16507 1.75515,0.34561 0,0.33462 -0.19725,0.61363 -0.43831,0.62001 -0.24107,0.006 -0.15615,0.19037 0.18872,0.40885 0.34486,0.21848 1.11251,0.28116 1.70588,0.13929 l 1.07886,-0.25796 -0.28471,-1.96406 c -0.15659,-1.08024 -0.30401,-3.25237 -0.32758,-4.82697 -0.0479,-3.20121 -0.45519,-4.52269 -3.98998,-12.94637 -1.55642,-3.70907 -2.60705,-5.66008 -3.81039,-7.07583 -0.91381,-1.07509 -2.07451,-2.47969 -2.57935,-3.12132 -0.50483,-0.64164 -1.64883,-1.73805 -2.5422,-2.43647 -2.70927,-2.11805 -1.97313,-2.66407 0.96677,-0.71709 2.16687,1.43504 3.41047,2.63193 3.17167,3.05255 -0.0971,0.17115 0.93335,1.58327 2.29004,3.13805 1.35667,1.55479 2.46668,3.02719 2.46668,3.272 0,0.95663 2.20044,6.59232 2.64675,6.77876 0.26019,0.10869 0.7385,1.08444 1.06292,2.16833 0.32441,1.0839 0.78578,2.40016 1.02525,2.92502 0.79268,1.7373 1.22612,3.65795 1.22612,5.43304 0,0.96387 0.23667,3.09885 0.52592,4.7444 0.28925,1.64556 0.52594,3.02095 0.52598,3.05644 2e-5,0.0355 -0.70158,0.22741 -1.55913,0.42652 -1.58246,0.36741 -4.14633,-0.0976 -5.77732,-1.04781 -0.59045,-0.344 -0.72844,-0.31339 -0.72844,0.16162 0,1.77282 -2.10111,-0.28041 -3.89248,-3.80378 -0.64046,-1.25967 -1.66291,-3.0633 -2.2721,-4.00806 -0.60921,-0.94476 -1.77648,-3.3496 -2.59395,-5.34409 -1.78622,-4.35811 -2.91409,-6.51166 -3.91899,-7.4829 -0.74876,-0.72366 -0.74893,-0.72352 -0.29781,0.23021 0.24826,0.52487 0.76182,1.43657 1.14122,2.02602 0.37941,0.58943 0.58616,1.18457 0.45944,1.32252 -0.48878,0.53208 -1.46635,-0.61333 -2.46396,-2.887 -0.57198,-1.30358 -1.14396,-2.37014 -1.27111,-2.37014 -0.29614,0 -0.66948,2.02228 -0.66948,3.62635 0,2.21257 0.42553,3.71913 1.10513,3.9126 0.66465,0.18921 0.6598,0.15248 0.84517,6.39385 0.025,0.83978 0.12978,1.78454 0.23296,2.09946 0.10322,0.31492 0.59784,2.97742 1.09927,5.91667 1.54474,9.05504 3.06098,16.74073 3.53939,17.94086 0.25108,0.62984 0.54211,1.40282 0.64675,1.71774 0.10462,0.31492 0.20271,-0.2777 0.21794,-1.31694 0.0392,-2.6733 0.80876,-1.70263 0.95791,1.20819 0.0623,1.21452 0.33954,2.89531 0.61622,3.73509 0.80822,2.45309 1.60939,6.8707 1.60939,8.87401 0,1.01879 0.17457,2.04238 0.38795,2.27466 0.21337,0.23227 0.41061,1.44565 0.4383,2.69638 0.0364,1.64396 0.17182,2.22427 0.48868,2.09437 0.24108,-0.0988 0.43832,0.0173 0.43832,0.25807 0,0.69216 -1.29305,3.26866 -1.92858,3.84284 -0.31747,0.28682 -0.87916,1.1658 -1.2482,1.95327 -1.40166,2.99093 -3.66411,3.48436 -5.89884,1.28652 -0.83718,-0.82336 -1.57274,-1.25339 -1.90588,-1.11423 -0.69043,0.28842 -1.39008,-1.14605 -2.29734,-4.71014 -0.37486,-1.47258 -0.91272,-3.08238 -1.19526,-3.57734 -0.52533,-0.92031 -1.27264,-4.85771 -2.01823,-10.63378 -0.56874,-4.40602 -2.98245,-12.19108 -4.06211,-13.10171 -0.45371,-0.38268 -1.13117,-1.44943 -1.50545,-2.37055 l -0.68054,-1.67477 -1.07087,0.58156 c -1.29966,0.70581 -1.83824,1.48007 -0.60353,0.86765 0.48213,-0.23914 1.12335,-0.33173 1.42493,-0.20574 0.75871,0.31694 0.69073,1.39818 -0.0879,1.39818 -0.86793,0 -3.5943,5.23604 -2.95382,5.67289 0.23439,0.15988 0.13881,1.17866 -0.27771,2.96005 -0.79474,3.399 -1.82738,10.88427 -1.79415,13.00518 0.0138,0.87879 -0.19581,3.08291 -0.46572,4.89804 -0.26992,1.81514 -0.41209,3.52342 -0.31594,3.79618 0.25866,0.73376 -1.21273,3.90123 -2.5053,5.3932 -1.1006,1.27037 -2.36314,1.68535 -2.79787,0.91962 z m -4.95375,-17.46371 c 0.14118,-1.00341 0.093,-1.62231 -0.12653,-1.62231 -0.19513,0 -0.3548,0.80161 -0.3548,1.78136 0,2.11987 0.16851,2.06418 0.48133,-0.15905 z m 35.52445,-3.60248 c -0.11196,-0.30451 -0.19503,-0.21407 -0.21185,0.23062 -0.0152,0.40239 0.0677,0.62785 0.18416,0.50101 0.11652,-0.12684 0.12898,-0.45608 0.0276,-0.73163 z m -21.97979,-14.47886 c 0,-0.20995 -0.1578,-0.27556 -0.35066,-0.14581 -0.19285,0.12976 -0.35065,0.40769 -0.35065,0.61764 0,0.20994 0.1578,0.27556 0.35065,0.1458 0.19286,-0.12975 0.35066,-0.40769 0.35066,-0.61763 z m 2.68059,-58.77228 c 5.00027,-1.65541 10.16671,-5.78469 12.39732,-9.90856 0.48215,-0.89137 1.19221,-1.99529 1.57793,-2.45317 1.00759,-1.19611 1.92857,-4.37676 1.92857,-6.6604 0,-3.85912 -2.96464,-8.16686 -7.36364,-10.69969 -1.86993,-1.07665 -2.81444,-1.35851 -5.25973,-1.56959 -1.63929,-0.1415 -3.25448,-0.38351 -3.58928,-0.5378 -0.46128,-0.21256 -0.70684,-0.0168 -1.01351,0.80801 l -0.40472,1.08853 -0.22923,-0.9543 c -0.38208,-1.59061 -2.44545,-1.82254 -5.40766,-0.60783 -3.19295,1.30933 -7.19363,4.06315 -8.99705,6.19299 -2.67664,3.16112 -4.17693,8.12001 -3.48038,11.50362 0.64254,3.12115 2.67777,6.75788 5.27404,9.42409 3.13723,3.22175 3.56955,3.50672 6.65363,4.38583 3.37688,0.96259 4.97792,0.96021 7.91371,-0.0117 z m -21.05317,-18.95025 c -0.35643,-0.38803 -0.65054,0.19616 -0.35809,0.71129 0.22092,0.38913 0.30352,0.38943 0.4223,0.002 0.0812,-0.26521 0.0524,-0.58598 -0.0642,-0.71283 z m 34.97492,-8.32449 c -0.11371,-0.32269 -0.70051,-0.85884 -1.30393,-1.19145 l -1.09712,-0.60474 1.0299,1.19144 c 1.11079,1.28505 1.70304,1.54625 1.37115,0.60475 z m -11.43027,-5.40224 c -0.3375,-0.096 -0.88977,-0.096 -1.22727,0 -0.3375,0.096 -0.0614,0.17457 0.61363,0.17457 0.675,0 0.95114,-0.0786 0.61364,-0.17457 z m -8.15259,-0.50031 c 0.44204,-0.20679 0.50685,-0.32806 0.17532,-0.32806 -0.28929,0 -0.84156,0.14762 -1.22728,0.32806 -0.44203,0.20678 -0.50686,0.32806 -0.17533,0.32806 0.28929,0 0.84157,-0.14763 1.22729,-0.32806 z m 4.82809,-0.25039 c -0.2374,-0.10456 -0.71077,-0.11092 -1.05195,-0.0141 -0.34116,0.0968 -0.14693,0.18233 0.43165,0.19011 0.57856,0.008 0.8577,-0.0714 0.6203,-0.17596 z m -3.29704,67.11964 c -2.95543,-3.65221 -4.53392,-5.66166 -5.00066,-6.36596 -0.27803,-0.41956 -0.61639,-0.64216 -0.75189,-0.49465 -0.31562,0.34358 1.64651,3.7468 2.01665,3.49777 0.15267,-0.10272 0.43118,0.25301 0.61889,0.79051 0.18773,0.5375 0.54247,0.98678 0.78831,0.99839 0.53686,0.0254 2.19158,2.21501 1.90755,2.52421 -0.22317,0.24294 -4.09042,-3.24042 -4.09042,-3.68437 0,-0.15557 -0.45852,-0.91095 -1.01893,-1.67862 -1.01624,-1.39208 -2.6381,-6.18281 -3.05579,-9.02634 -0.30806,-2.09729 0.54787,-3.90066 2.3318,-4.91289 1.98699,-1.12745 4.20581,-1.06651 5.53611,0.15205 1.25038,1.14536 1.78892,1.18026 3.50497,0.22722 0.72006,-0.3999 2.03485,-0.84555 2.92177,-0.99033 1.53173,-0.25005 1.67853,-0.19145 2.9282,1.16896 1.30289,1.41833 1.31405,1.45659 1.15176,3.94866 -0.13161,2.02078 -0.0923,2.30969 0.19943,1.46673 0.19984,-0.57735 0.50754,-1.04973 0.6838,-1.04973 0.17627,0 0.21122,0.3006 0.0777,0.66801 -0.13354,0.36741 -0.54047,1.92196 -0.90428,3.45456 -0.36381,1.5326 -0.75301,2.94777 -0.86488,3.14482 -0.11184,0.19705 0.0338,0.25916 0.32383,0.13803 0.28997,-0.12113 0.70489,-0.80626 0.92202,-1.52251 0.38354,-1.26506 1.04306,-1.78812 1.04041,-0.82512 -0.001,0.49968 -1.30846,3.01051 -1.73875,3.34006 -0.13708,0.10497 -0.70007,1.03574 -1.25111,2.06838 -0.55104,1.03263 -1.06794,1.6618 -1.14866,1.39815 -0.0944,-0.30812 -0.56923,-0.0336 -1.3294,0.76844 -0.65043,0.68628 -1.29874,1.12136 -1.44069,0.96684 -0.14194,-0.15453 -0.10485,-0.40045 0.0825,-0.54649 0.52439,-0.40894 2.97037,-3.79349 2.97037,-4.11015 0,-0.15436 0.40404,-1.2104 0.89786,-2.34676 0.49384,-1.13636 0.84601,-2.35536 0.78262,-2.70887 -0.0633,-0.35352 -0.6371,0.86026 -1.27493,2.69729 -0.63784,1.83703 -1.35047,3.34005 -1.58365,3.34005 -0.23316,0 -0.712,0.53086 -1.06408,1.17968 -1.04623,1.92807 -2.69544,3.78269 -3.36373,3.78269 -0.3433,0 -1.15536,-0.65642 -1.80459,-1.45871 z m 2.54984,0.0272 c 0.27929,-0.3674 0.722,-1.13452 0.98382,-1.70471 0.26183,-0.57019 0.60815,-0.94783 0.7696,-0.8392 0.16145,0.10862 0.77074,-0.93674 1.354,-2.32302 0.58324,-1.38628 1.1977,-2.42818 1.36544,-2.31532 0.35683,0.24008 1.43975,-4.17862 1.43975,-5.87469 0,-0.63918 0.1578,-1.16214 0.35064,-1.16214 0.57529,0 0.39702,-1.24856 -0.37514,-2.62734 -0.71824,-1.28251 -0.73744,-1.28991 -2.81642,-1.0847 -1.15128,0.11365 -2.47654,0.48003 -2.94499,0.81417 -1.21612,0.86744 -2.41789,0.75226 -3.61768,-0.34676 -1.30145,-1.19214 -3.26091,-1.27476 -4.5267,-0.19086 -0.49036,0.4199 -1.09008,0.76344 -1.33273,0.76344 -0.51139,0 -0.87034,0.85068 -0.85878,2.03526 0.0161,1.65376 2.64717,7.12597 4.73227,9.84252 1.15353,1.50285 2.26464,3.04144 2.46915,3.4191 0.38687,0.71444 1.92799,2.22745 2.29135,2.24956 0.11477,0.007 0.43715,-0.2879 0.71642,-0.65531 z m -8.92199,-8.875 c -0.21839,-0.62984 -0.52433,-1.14516 -0.67985,-1.14516 -0.15553,0 -0.038,0.51532 0.2612,1.14516 0.29919,0.62984 0.60512,1.14516 0.67985,1.14516 0.0748,0 -0.0428,-0.51532 -0.2612,-1.14516 z m 0.97956,7.69487 c -1.12702,-1.2999 -3.40892,-6.83111 -2.9465,-7.14222 0.17928,-0.12062 0.41541,0.0922 0.52472,0.47289 0.55627,1.93752 2.19082,5.39173 3.07613,6.50067 1.22423,1.53346 0.65595,1.67993 -0.65435,0.16866 z"
       style="fill:#ddaabb;stroke-width:1.07995" />
    <path
       d="m 241.45564,814.07483 c -0.44522,-0.25849 -1.39231,-0.56826 -2.10464,-0.68836 -0.71235,-0.12011 -1.46799,-0.35773 -1.67921,-0.52803 -0.24956,-0.20122 -0.64643,-0.16546 -1.13327,0.1021 -0.88819,0.48813 -5.20226,0.4859 -6.47958,-0.004 -1.31953,-0.5054 -2.0175,-1.81698 -2.0175,-3.79112 0,-1.21118 0.17522,-1.90419 0.6002,-2.37379 0.5787,-0.63945 0.58002,-0.74628 0.037,-2.98043 -0.95446,-3.92706 -0.72476,-4.86033 1.88299,-7.65052 1.13408,-1.21342 1.74534,-1.30322 2.86671,-0.42116 l 0.80238,0.63116 0.99995,-1.41864 c 0.54998,-0.78026 1.40422,-1.68353 1.89831,-2.00728 1.27179,-0.8333 3.79031,-0.76219 5.62182,0.15875 3.13255,1.57512 3.77294,2.00078 5.16712,3.4345 1.11353,1.14511 1.6772,1.48446 2.46571,1.48446 1.37315,0 2.72957,1.0998 2.72458,2.20909 -0.003,0.47681 -0.3546,1.48026 -0.78324,2.22989 -0.57968,1.01379 -0.7817,1.85927 -0.7886,3.30031 -0.0121,2.52641 -1.00546,4.82301 -2.80277,6.4797 -1.93834,1.7867 -5.71799,2.73849 -7.27796,1.83272 z m 3.5617,-0.47936 c 0.80647,-0.228 0.80677,-0.22957 0.0822,-0.42277 -0.96247,-0.25663 -3.35445,0.0749 -3.13243,0.43413 0.20213,0.32703 1.8753,0.32082 3.05023,-0.0114 z m -9.38994,-0.9769 0.80948,-0.2344 -0.73716,-0.24358 c -0.40543,-0.13396 -0.95672,-0.57866 -1.22507,-0.98822 -0.35637,-0.54389 -0.92145,-0.80215 -2.09601,-0.95796 -1.64609,-0.21837 -2.24604,-0.83861 -0.81117,-0.83861 0.75142,0 0.71906,-0.0733 -0.56663,-1.28344 -1.22573,-1.15369 -1.4045,-1.22926 -1.76832,-0.74758 -0.67322,0.8913 -0.51565,3.77303 0.24391,4.46042 1.02331,0.92608 4.29834,1.36981 6.15097,0.83337 z m 7.44719,-0.34865 c 0,-0.17808 -0.13711,-0.32379 -0.30468,-0.32379 -0.16758,0 -0.39474,0.14571 -0.5048,0.32379 -0.11006,0.17809 0.0271,0.32379 0.30468,0.32379 0.27764,0 0.5048,-0.1457 0.5048,-0.32379 z m 4.66745,-0.31333 c 1.44078,-0.54778 2.57153,-3.66937 1.93245,-5.33479 -0.15045,-0.39209 -0.30584,-0.43236 -0.63003,-0.16329 -0.31255,0.25939 -0.34604,0.57882 -0.12234,1.16717 0.16938,0.44553 0.19791,0.9977 0.0634,1.22706 -0.43297,0.73823 -2.19031,2.62072 -3.01018,3.22455 l -0.79609,0.58631 0.87614,-0.19942 c 0.48188,-0.10968 1.24088,-0.33809 1.68666,-0.50759 z m -5.57718,-0.4705 c 0.51752,-0.3625 0.53549,-0.47391 0.13058,-0.80996 -0.37074,-0.30768 -0.69574,-0.27454 -1.54507,0.15757 -1.36313,0.69349 -1.34571,0.67536 -1.07268,1.11713 0.2614,0.42296 1.56849,0.17873 2.48717,-0.46474 z m -4.45,-0.95018 c -0.21828,-0.86972 -0.73141,-1.02555 -1.88482,-0.57238 -0.54798,0.2153 -0.5042,0.32479 0.45126,1.12875 1.18833,0.99992 1.76773,0.77505 1.43356,-0.55637 z m 8.98096,-0.20766 c 0.86671,-0.8992 1.55943,-1.92356 1.55943,-2.30603 0,-0.65485 -0.0352,-0.66249 -0.72854,-0.15803 -0.40068,0.29156 -1.01994,0.68067 -1.3761,0.86466 -0.53941,0.27865 -1.97637,2.0787 -2.37447,2.97443 -0.0593,0.13357 0.2224,0.24285 0.62616,0.24285 0.45691,0 1.32288,-0.61086 2.29352,-1.61788 z m -6.48976,0.006 1.41147,-0.64047 -1.66959,-0.007 c -1.51176,-0.006 -1.65358,0.0541 -1.50025,0.64046 0.2049,0.7835 0.0488,0.78288 1.75837,0.007 z m 3.51611,-0.169 c 0.33677,-0.40578 0.29002,-0.48569 -0.28415,-0.48569 -0.39501,0 -0.68722,0.20652 -0.68722,0.48569 0,0.26712 0.12786,0.48568 0.28414,0.48568 0.15629,0 0.46553,-0.21856 0.68723,-0.48568 z m -2.45821,-1.61896 c -0.6279,-0.95829 -1.01002,-1.00283 -2.08376,-0.24285 l -0.80058,0.56664 1.61896,0.19198 c 0.89042,0.10558 1.65874,0.21487 1.70736,0.24284 0.0487,0.0279 -0.15026,-0.3134 -0.44198,-0.75861 z m -7.57931,-0.32379 c 0,-0.44521 -0.15275,-0.80948 -0.33944,-0.80948 -0.18668,0 -0.94258,-0.29141 -1.67976,-0.64758 -1.60614,-0.776 -1.56985,-0.77182 -1.33253,-0.15337 0.18606,0.48487 2.63162,2.3771 3.10889,2.40547 0.13356,0.008 0.24284,-0.34983 0.24284,-0.79504 z m 3.65873,0.2758 c 1.41082,-0.72659 3.19642,-2.10904 2.9903,-2.31516 -0.0925,-0.0925 -1.22569,0.16862 -2.51819,0.58028 -1.29249,0.41167 -2.53212,0.79451 -2.75473,0.85077 -0.2226,0.0562 -0.40473,0.39828 -0.40473,0.76004 0,0.83091 1.20669,0.88662 2.68735,0.12407 z m 6.64066,0.0959 c 0.74692,-0.4145 0.74702,-0.41551 0.11462,-1.19649 -0.60917,-0.7523 -0.67282,-0.76275 -1.69525,-0.27854 l -1.06232,0.50311 0.70486,0.70485 c 0.81181,0.81182 0.92766,0.82779 1.93809,0.26707 z m 4.50309,-2.56944 c 0.60618,-0.60619 0.35733,-1.06524 -0.72468,-1.33681 -0.6053,-0.15191 -1.14088,0.0277 -2.02675,0.67956 -0.66223,0.48734 -1.26387,0.92748 -1.33698,0.97812 -0.0731,0.0506 0.1205,0.3721 0.43026,0.71437 0.54748,0.60496 0.59946,0.60607 1.8645,0.0397 0.71573,-0.32045 1.52288,-0.80417 1.79365,-1.07494 z m 2.35845,-0.13355 c 0,-0.88854 -0.0943,-1.10378 -0.36485,-0.83318 -0.2061,0.2061 -0.27385,0.72737 -0.15573,1.19803 0.29779,1.18646 0.52058,1.03032 0.52058,-0.36485 z m -17.34123,0.14571 c -0.29813,-0.96992 -0.26782,-0.95284 -1.25266,-0.70567 -1.02248,0.25663 -0.94009,0.84221 0.1618,1.15013 1.25686,0.35123 1.3267,0.32277 1.09086,-0.44448 z m 3.84943,0.38422 c 0.66671,-0.0195 0.66236,-0.0364 -0.0863,-0.33548 -0.88281,-0.35271 -1.64009,-0.17702 -1.64009,0.38048 0,0.20308 0.22997,0.28035 0.51217,0.17206 0.28169,-0.1081 0.82809,-0.20577 1.21421,-0.21706 z m 5.12284,-0.38317 c -0.33516,-0.33516 -1.02098,-0.0715 -1.02098,0.39248 0,0.15091 0.30103,0.19565 0.66897,0.0994 0.43641,-0.11412 0.55878,-0.28515 0.35201,-0.49191 z m -7.4968,-0.082 c 0.33012,-0.39778 0.308,-0.48569 -0.12226,-0.48569 -0.28893,0 -0.52532,0.21856 -0.52532,0.48569 0,0.26712 0.055,0.48568 0.12224,0.48568 0.0673,0 0.30364,-0.21856 0.52534,-0.48568 z m 9.99308,-0.82816 c 0.59886,-0.3651 1.01368,-0.73899 0.92181,-0.83086 -0.17788,-0.17787 -2.82012,1.07928 -2.82012,1.34178 0,0.34876 0.87409,0.1135 1.89831,-0.51092 z m -5.13622,0.0187 c 0.37264,-0.24082 0.25959,-0.31387 -0.48568,-0.31387 -0.53426,0 -1.18994,0.14124 -1.45706,0.31387 -0.37265,0.24082 -0.2596,0.31387 0.48568,0.31387 0.53425,0 1.18993,-0.14124 1.45706,-0.31387 z m -7.36625,-0.53396 c 0.99253,-0.21689 1.19366,-1.07783 0.40475,-1.73258 -0.66647,-0.55311 -0.60525,-1.59388 0.16189,-2.75222 0.35382,-0.53426 0.64427,-1.38031 0.64545,-1.88011 l 0.003,-0.90873 -1.01658,0.58494 c -1.5794,0.90881 -3.17516,3.2727 -3.18468,4.71767 -0.0106,1.60076 0.59964,2.59 1.44903,2.3492 0.35617,-0.10098 1.04827,-0.27115 1.53801,-0.37817 z m 4.93782,-0.0892 c 0.49307,-0.1933 0.18405,-0.33464 -1.29516,-0.59242 -2.15313,-0.37521 -2.38619,-0.32328 -1.78735,0.39827 0.43273,0.52142 1.99642,0.6199 3.08251,0.19415 z m 4.82963,-0.23211 c 0.17053,-0.4444 0.12315,-0.46443 -0.28915,-0.12226 -0.56185,0.4663 -0.62033,0.65374 -0.20395,0.65374 0.15904,0 0.38093,-0.23918 0.4931,-0.53148 z m 8.07872,-0.187 c 0.24747,-0.39232 0.11044,-0.80167 -0.56461,-1.6867 -0.94499,-1.23894 -1.49674,-1.26435 -1.49674,-0.0689 0,0.39908 -0.16178,0.88738 -0.3595,1.08511 -0.26348,0.26347 -0.11212,0.49332 0.56663,0.86051 1.05886,0.57279 1.39476,0.53837 1.85422,-0.19002 z m -9.64253,-0.82449 c 0.19344,-0.13084 0.5195,-0.72808 0.72458,-1.3272 0.36401,-1.06339 0.35341,-1.08559 -0.44549,-0.93288 -0.51559,0.0986 -0.77442,0.0224 -0.69961,-0.20584 0.0653,-0.19926 0.50821,-0.4084 0.98421,-0.46474 1.81949,-0.2154 0.747,-0.64899 -1.96772,-0.79552 -1.55824,-0.0842 -3.161,-0.26131 -3.5617,-0.39377 -0.67202,-0.22217 -0.72852,-0.14305 -0.72852,1.02003 0,1.40621 0.68621,2.6036 1.73454,3.02666 0.85913,0.3467 3.48364,0.39526 3.95971,0.0733 z m 5.71795,-0.48234 c 1.00294,-0.82008 0.85204,-1.37153 -0.46579,-1.70227 -0.77135,-0.19359 -0.93899,-0.0731 -1.54135,1.10759 l -0.67587,1.32482 0.897,-0.002 c 0.49336,-8.9e-4 1.29706,-0.32873 1.78601,-0.72854 z m -11.63053,-0.48409 c -0.30638,-0.48972 -0.60115,-0.95112 -0.65505,-1.02533 -0.0539,-0.0742 -0.098,0.24296 -0.098,0.70479 0,0.52745 0.21071,0.89477 0.56663,0.98779 0.31165,0.0814 0.60643,0.16497 0.65505,0.18564 0.0487,0.0206 -0.16226,-0.36314 -0.46863,-0.85289 z m 17.70138,-2.0815 c 0.003,-0.82544 -0.90821,-1.56113 -1.93254,-1.56113 -0.72479,0 -0.98656,0.20077 -1.25108,0.95957 -0.29651,0.85056 -0.22653,1.07514 0.61591,1.97698 0.52273,0.55959 0.95496,1.18415 0.96052,1.38792 0.0158,0.5798 1.60533,-2.15315 1.60719,-2.76334 z m -8.81241,1.08243 c 0.21224,-0.63671 -0.85541,-0.41715 -1.21206,0.24926 -0.18435,0.34448 -0.33518,0.72651 -0.33518,0.84898 0,0.33304 1.40182,-0.66199 1.54724,-1.09824 z m 4.1191,-0.37702 c -0.11007,-0.17809 -0.37365,-0.32156 -0.58575,-0.31884 -0.23171,0.003 -0.19177,0.13024 0.10007,0.31884 0.62203,0.40199 0.73412,0.40199 0.48568,0 z m -16.57763,-2.80697 c 0.45013,-0.38629 1.13169,-0.86999 1.51458,-1.0749 0.55785,-0.29856 0.6198,-0.46459 0.31182,-0.83569 -0.21139,-0.25471 -0.55781,-0.4631 -0.7698,-0.4631 -0.88169,0 -3.41725,3.47701 -3.41953,4.68918 -8.9e-4,0.50357 0.16522,0.39899 0.77165,-0.48569 0.42507,-0.62011 1.14115,-1.44353 1.59128,-1.8298 z m 17.38711,1.32805 c 0,-0.38508 -0.11392,-0.39818 -0.63467,-0.0729 -0.43668,0.27272 -0.51725,0.46892 -0.2583,0.62897 0.48315,0.29859 0.89297,0.0434 0.89297,-0.556 z m -0.004,-1.19048 c 0.007,-0.5155 -3.02585,-3.29944 -3.15908,-2.89976 -0.0753,0.22564 0.0453,0.62966 0.26785,0.89779 0.22253,0.26813 0.41843,1.11106 0.43535,1.87319 l 0.0308,1.38567 1.21092,-0.50796 c 0.66601,-0.27939 1.2124,-0.6164 1.21422,-0.74893 z m -5.06562,0.55079 c -0.10546,-0.27481 -0.26118,-0.43021 -0.34606,-0.34534 -0.0849,0.0849 -0.0583,0.30973 0.0592,0.49965 0.31927,0.5166 0.50588,0.41624 0.28694,-0.15431 z m 1.97131,-0.0465 c 0.11528,-0.30039 -0.10528,-1.32197 -0.49013,-2.27017 -0.51668,-1.27303 -0.9099,-1.77675 -1.50324,-1.92567 -1.22824,-0.30827 -5.25192,0.15934 -6.02391,0.70005 -0.63286,0.44329 -0.50386,0.48028 1.67506,0.48028 h 2.36075 l 1.4349,1.4976 c 0.78919,0.82367 1.43491,1.62505 1.43491,1.78085 0,0.50919 0.89677,0.29708 1.11168,-0.26294 z m -3.11163,-0.32095 c -0.21319,-1.10656 -4.07163,-1.35543 -5.8427,-0.37686 l -0.73779,0.40766 0.97137,0.21796 c 0.53425,0.11988 2.03842,0.23521 3.3426,0.25628 2.05711,0.0333 2.35735,-0.0336 2.26653,-0.50504 z m -2.19562,-1.6487 c 0.87088,0.0837 1.50688,0.0283 1.41333,-0.12307 -0.23381,-0.3783 -4.10845,-0.34766 -5.12956,0.0406 -1.47526,0.56089 -0.88182,0.95755 0.65113,0.43522 0.90894,-0.30971 2.09378,-0.44606 3.0651,-0.35272 z m -4.10028,-1.22238 c 0.28422,-0.74065 2.09383,-1.38604 4.61084,-1.64443 l 2.22799,-0.22872 -1.39349,-0.46499 c -1.73918,-0.58036 -3.28917,-0.31666 -4.59442,0.78162 -1.07802,0.90711 -1.82897,2.05684 -1.34342,2.05684 0.16529,0 0.38693,-0.22514 0.49253,-0.50031 z"
       style="fill:#ddaabb;stroke-width:0.303554"
       id="path586" />
  </g>
</svg>
