<?xml version="1.0" encoding="UTF-8" standalone="no"?>
<svg
   xmlns:dc="http://purl.org/dc/elements/1.1/"
   xmlns:cc="http://creativecommons.org/ns#"
   xmlns:rdf="http://www.w3.org/1999/02/22-rdf-syntax-ns#"
   xmlns:svg="http://www.w3.org/2000/svg"
   xmlns="http://www.w3.org/2000/svg"
   version="1.1"
   id="svg4231"
   viewBox="0 0 194.81066 339.34632"
   height="95.771072mm"
   width="54.979897mm">
  <defs
     id="defs4233" />
  <metadata
     id="metadata4236">
    <rdf:RDF>
      <cc:Work
         rdf:about="">
        <dc:format>image/svg+xml</dc:format>
        <dc:type
           rdf:resource="http://purl.org/dc/dcmitype/StillImage" />
        <dc:title></dc:title>
      </cc:Work>
    </rdf:RDF>
  </metadata>
  <g
     transform="translate(-211.76065,-348.30852)"
     id="layer1">
    <path
       id="path4250"
       d="m 277.07143,686.64792 c -0.33992,-0.55 -1.90695,-1 -3.48229,-1 -1.63484,0 -4.20738,-1.13016 -5.99342,-2.63302 l -3.12916,-2.63301 0.66084,2.63301 c 0.74293,2.96005 -0.90086,3.65117 -2.10021,0.88302 -0.41702,-0.9625 -1.06229,-9.85 -1.43393,-19.75 -0.58154,-15.49138 -0.69983,-16.43211 -0.84877,-6.75 -0.17277,11.23107 -1.43942,14.67757 -2.77595,7.55323 -0.38144,-2.03323 -0.29942,-13.62073 0.18226,-25.75 1.01944,-25.67053 1.07944,-32.84634 0.47288,-56.55323 -0.65751,-25.69782 0.414,-46.07628 2.94365,-55.98394 2.80487,-10.98559 3.96427,-17.38151 2.96439,-16.35324 -1.73359,1.7828 -13.15262,24.47818 -12.59606,25.03474 0.32378,0.32378 0.87243,-0.15071 1.21922,-1.05443 0.34679,-0.90372 1.23678,-1.64313 1.97776,-1.64313 0.92395,0 0.0758,2.74911 -2.69964,8.75 -2.22577,4.8125 -5.8268,13.33221 -8.00228,18.93269 -2.17548,5.60048 -4.39005,10.32756 -4.92126,10.50463 -0.5312,0.17707 -2.87444,3.23915 -5.20718,6.80463 -2.33275,3.56548 -5.09215,6.64653 -6.13201,6.84679 -1.28517,0.2475 -1.72016,-0.0802 -1.35827,-1.02326 0.4049,-1.05517 -0.26942,-1.29377 -2.8162,-0.99644 -2.22468,0.25972 -4.51518,-0.33008 -6.82443,-1.75727 -2.89184,-1.78726 -3.68144,-3.06685 -4.69945,-7.6158 -1.05026,-4.6931 -0.97997,-6.28059 0.49622,-11.20679 0.94589,-3.15655 2.1273,-7.63725 2.62535,-9.95711 0.49805,-2.31986 3.16451,-11.10639 5.92546,-19.52562 4.48165,-13.66633 7.94098,-28.18641 8.57834,-36.00645 0.12328,-1.5125 0.28039,-3.21005 0.34914,-3.77234 0.25927,-2.12051 8.77899,-10.31119 13.60457,-13.07916 2.76124,-1.58385 4.62783,-2.88395 4.14798,-2.88912 -0.47984,-0.005 -0.31224,-0.68438 0.37245,-1.50938 0.68469,-0.825 2.42729,-1.50747 3.87244,-1.5166 4.05616,-0.0256 15.00885,-4.36488 16.50493,-6.53895 0.73593,-1.06945 1.91073,-3.74445 2.61066,-5.94445 0.69994,-2.2 1.65484,-4.48511 2.122,-5.07802 0.67621,-0.85822 2.78269,-12.36029 2.87016,-15.67198 0.0109,-0.4125 -0.84753,-0.75 -1.90761,-0.75 -1.06008,0 -2.87732,-1.2375 -4.03832,-2.75 -1.16099,-1.5125 -4.19852,-3.875 -6.75006,-5.25 -4.83224,-2.60404 -5.80795,-3.77984 -6.69929,-8.0731 -0.29382,-1.41521 -1.73941,-4.34021 -3.21243,-6.5 -1.47302,-2.1598 -3.06747,-5.7269 -3.54323,-7.9269 -0.47575,-2.2 -1.27839,-4.9 -1.78364,-6 -0.50525,-1.1 -1.34817,-4.6994 -1.87315,-7.99867 -0.82295,-5.17179 -0.70465,-6.34957 0.85818,-8.54436 0.99698,-1.40013 2.91686,-5.00073 4.26639,-8.00133 3.49045,-7.76081 8.47101,-14.25863 10.37049,-13.52973 0.93271,0.35791 3.36277,-0.93225 6.18445,-3.28343 2.55642,-2.13016 5.62651,-4.17817 6.82242,-4.55114 1.19592,-0.37297 3.85969,-1.8218 5.9195,-3.21962 2.05981,-1.39782 6.48133,-3.38306 9.82561,-4.41164 6.3261,-1.94569 9.51494,-1.79396 22.0805,1.05064 2.75,0.62255 6.8,1.26946 9,1.43758 5.35062,0.40888 16.28772,4.53237 20.55348,7.74903 1.89558,1.42941 4.34652,2.76043 5.44652,2.95785 2.31482,0.41543 8.27272,11.13547 8.97111,16.14169 0.24576,1.76172 0.8597,4.58128 1.3643,6.26568 0.5046,1.6844 0.63556,6.8594 0.29102,11.5 -0.52917,7.12745 -0.89212,8.41689 -2.33768,8.30502 -1.11385,-0.0862 -2.10123,1.04923 -2.82835,3.25243 -1.40073,4.24423 -16.43107,20.66883 -22.90239,25.02687 -7.00589,4.71804 -17.06333,14.29385 -17.02621,16.21084 0.0701,3.61845 2.66763,5.44594 6.92841,4.87445 4.1992,-0.56323 6.33824,0.77109 3.91791,2.44396 -0.888,0.61376 2.04755,0.72177 8.2542,0.3037 8.65185,-0.58278 9.82243,-0.45513 11.5,1.25406 1.02722,1.04658 3.70692,2.43072 5.95488,3.07586 2.24796,0.64515 4.9052,2.07688 5.90499,3.18162 2.16626,2.3937 1.03307,2.54388 -3.83795,0.50864 -1.9745,-0.825 -4.84196,-1.50277 -6.37212,-1.50616 -1.53017,-0.003 -4.07106,-0.67839 -5.64643,-1.5 -3.38564,-1.76574 -5.63569,-1.9237 -5.63569,-0.39565 0,1.70791 -11.96066,0.0212 -15.61803,-2.20244 -1.71492,-1.04266 -3.86356,-1.89575 -4.77475,-1.89575 -2.07516,0 -3.60722,-3.89742 -3.60722,-9.17639 l 0,-4.04619 -3.75,0.78848 c -2.0625,0.43366 -5.1,0.84762 -6.75,0.91991 -1.65,0.0723 -3.75547,0.4784 -4.67882,0.90248 -1.0142,0.46581 -4.10143,-0.11227 -7.79837,-1.46024 -3.94115,-1.43702 -6.46384,-1.88702 -7.08671,-1.26415 -0.53193,0.53193 -1.71808,5.14632 -2.63587,10.25419 -1.8854,10.49293 -6.37961,19.50601 -9.81588,19.68564 -1.09139,0.057 -3.33435,0.63824 -4.98435,1.29155 -1.65,0.6533 -4.9272,1.91087 -7.28265,2.7946 -2.35547,0.88373 -4.51952,1.99003 -4.80902,2.45845 -0.2895,0.46842 -1.39981,0.85167 -2.46735,0.85167 -2.32647,0 -10.35406,7.69538 -8.62848,8.27141 0.77577,0.25896 0.24342,1.75926 -1.53538,4.32711 -3.36836,4.86252 -6.1065,12.6778 -8.25647,23.56593 -2.13862,10.83059 -3.00201,13.66879 -7.17949,23.60071 -1.91203,4.54584 -4.59801,12.80944 -5.96884,18.36356 -2.30282,9.33021 -2.3773,10.34101 -0.97904,13.28762 2.62142,5.52424 4.90463,6.91603 10.07394,6.14085 3.78563,-0.56769 4.81846,-1.21476 6.1763,-3.86944 0.89678,-1.75326 2.89896,-4.80239 4.4493,-6.77585 3.5371,-4.50246 14.30808,-29.27827 12.92831,-29.73819 -1.94254,-0.64751 -1.00528,-4.74302 2.83471,-12.38675 2.12071,-4.2214 3.49346,-8.03791 3.05054,-8.48112 -1.96099,-1.96233 9.40352,-17.30584 12.81796,-17.30584 1.73404,0 1.8836,-1.58805 -2.21323,23.5 -2.8408,17.39644 -4.68991,53.34657 -2.68001,52.10439 1.8392,-1.13669 2.17044,1.05438 1.02308,6.76749 -0.84049,4.18511 -0.83495,5.94637 0.022,6.97887 1.15041,1.38615 0.94953,22.06236 -0.30506,31.39925 -1.78104,13.25487 -1.81842,12.46328 0.55299,11.71062 2.01419,-0.63927 2.12183,-0.4453 1.48431,2.67506 -1.51555,7.418 -2.76424,25.73635 -2.16382,31.74341 1.10092,11.0145 4.90065,15.12091 13.9916,15.12091 4.14613,0 4.74223,-0.32191 6.94406,-3.75 1.32472,-2.0625 2.71032,-5.55 3.07912,-7.75 0.36879,-2.2 1.54651,-7.57023 2.61716,-11.93384 1.13596,-4.62978 1.56057,-8.17244 1.01959,-8.50678 -0.54328,-0.33576 0.27544,-7.8145 1.97777,-18.06616 1.73736,-10.46264 2.9809,-21.91415 3.09412,-28.49322 0.10692,-6.21316 0.74821,-12.36176 1.47365,-14.12928 2.03581,-4.96022 6.24701,-9.37072 8.94727,-9.37072 2.4853,0 6.41111,3.13671 6.41111,5.12244 0,0.7988 0.41322,0.7795 1.4331,-0.0669 1.88893,-1.56767 4.12856,1.77678 6.46871,9.6598 1.02654,3.45797 2.27785,5.78468 3.11103,5.78468 1.01565,0 1.87543,3.25559 3.16912,12 2.28391,15.43767 2.56315,16.5 4.33709,16.5 1.01023,-2e-5 1.48095,1.05409 1.48095,3.31632 0,13.46533 9.45954,40.68366 14.13933,40.68366 1.02337,0 1.86067,0.675 1.86067,1.5 0,2.36011 2.78817,1.75292 4.59196,-1 0.90093,-1.375 2.03631,-2.5 2.52305,-2.5 1.87275,0 0.76409,4.20754 -1.71374,6.50392 l -2.59873,2.40842 2.75351,0.69108 c 3.05212,0.76604 5.96058,-0.56808 5.91324,-2.71241 -0.0169,-0.76505 1.55023,-3.39442 3.48249,-5.84303 2.83028,-3.58661 3.63376,-5.62765 4.13343,-10.5 0.42188,-4.11378 0.20411,-6.8475 -0.68093,-8.54798 -0.71564,-1.375 -1.58299,-5.93658 -1.92744,-10.13684 -0.56024,-6.8317 -0.82447,-7.58501 -2.50621,-7.14523 -2.15704,0.56408 -2.27039,0.17988 -3.84833,-13.04398 -0.64277,-5.38666 -1.81138,-10.06288 -2.99885,-12 -1.07012,-1.74567 -2.69243,-7.22395 -3.60514,-12.17395 -0.91272,-4.95 -2.05539,-9.74564 -2.53927,-10.65697 -0.48389,-0.91134 -1.38779,-5.63634 -2.00868,-10.5 -1.20389,-9.43062 -2.49708,-15.60012 -3.9497,-18.84303 -1.10296,-2.4623 -4.02066,-20.11242 -4.02066,-24.32224 0,-1.69099 -1.19093,-6.81025 -2.64651,-11.37614 -1.92029,-6.02359 -2.63518,-10.35968 -2.60523,-15.80162 0.0597,-10.84929 0.0548,-10.82424 2.36162,-12.05881 1.80485,-0.96592 2.56388,-0.68374 5.25,1.95179 1.72707,1.69453 5.45685,5.30389 8.28842,8.02082 3.07234,2.94795 5.63754,6.48148 6.36159,8.76303 0.66731,2.10274 2.28808,5.79235 3.6017,8.19912 1.31363,2.40678 2.38841,4.99428 2.38841,5.75 0,0.75573 0.70322,1.37405 1.56272,1.37405 0.94804,0 2.67781,2.45929 4.3977,6.25244 1.55925,3.43884 3.77041,7.09898 4.9137,8.13364 1.1433,1.03467 1.83073,2.28247 1.52763,2.7729 -0.3031,0.49042 1.05507,2.49784 3.01816,4.46093 3.41773,3.41773 3.78175,3.54003 8.57467,2.88084 4.20152,-0.57786 5.00542,-0.43245 5.00542,0.90541 0,0.87661 -0.5625,1.60752 -1.25,1.62425 -0.6875,0.0167 -0.44531,0.4987 0.5382,1.07106 0.9835,0.57237 3.17273,0.73657 4.86494,0.3649 l 3.07674,-0.67577 -0.81196,-5.1453 c -0.44658,-2.82992 -0.86697,-8.5203 -0.93419,-12.6453 -0.13667,-8.38626 -1.29815,-11.84816 -11.37885,-33.91585 -4.43868,-9.71671 -7.43493,-14.82781 -10.86668,-18.53666 -2.60601,-2.81645 -5.91616,-6.4961 -7.35589,-8.177 -1.43973,-1.6809 -4.70223,-4.55319 -7.25,-6.38286 -7.72643,-5.5487 -5.62707,-6.97912 2.75709,-1.87857 6.1796,3.75939 9.72617,6.89492 9.04515,7.99683 -0.27709,0.44835 2.66178,4.14771 6.53082,8.22081 3.86905,4.0731 7.03463,7.93037 7.03463,8.57172 0,2.50609 6.27534,17.27001 7.54814,17.75843 0.742,0.28473 2.10607,2.84092 3.03126,5.68042 0.92519,2.8395 2.24094,6.28773 2.92389,7.66273 2.26058,4.55124 3.49671,9.58279 3.49671,14.23303 0,2.52507 0.67492,8.11812 1.49983,12.429 0.8249,4.31088 1.4999,7.91403 1.5,8.00699 9e-5,0.093 -2.00078,0.59577 -4.44639,1.11737 -4.51293,0.96251 -11.82472,-0.25566 -16.47604,-2.74497 -1.68388,-0.90118 -2.0774,-0.82098 -2.0774,0.4234 0,4.64429 -5.99207,-0.73459 -11.1008,-9.96482 -1.82648,-3.3 -4.74235,-8.025 -6.4797,-10.5 -1.73735,-2.475 -5.06624,-8.775 -7.39753,-14 -5.09404,-11.41704 -8.31057,-17.05873 -11.17641,-19.60309 -2.13531,-1.89578 -2.13581,-1.89542 -0.84929,0.60309 0.70801,1.375 2.17258,3.76341 3.2546,5.30758 1.08202,1.54416 1.67164,3.10325 1.31026,3.46463 -1.39393,1.39392 -4.18183,-1.60673 -7.02688,-7.56312 -1.63116,-3.415 -3.26241,-6.20909 -3.625,-6.20909 -0.84453,0 -1.90925,5.2978 -1.90925,9.5 0,5.79631 1.21356,9.74309 3.15166,10.24991 1.89551,0.49569 1.88167,0.39947 2.41032,16.75009 0.0711,2.2 0.37009,4.675 0.66434,5.5 0.29425,0.825 1.70498,7.8 3.13495,15.5 4.40536,23.72165 8.72947,43.85601 10.09383,47 0.71604,1.65 1.54603,3.675 1.84444,4.5 0.29841,0.825 0.57809,-0.7275 0.62151,-3.45 0.1117,-7.00329 2.30648,-4.46043 2.73185,3.1651 0.17748,3.1817 0.96829,7.5849 1.75735,9.7849 2.3049,6.4264 4.58975,17.99929 4.58975,23.24741 0,2.66892 0.49786,5.35045 1.10636,5.95895 0.6085,0.6085 1.171,3.78719 1.25,7.06375 0.10384,4.30673 0.48999,5.82697 1.39364,5.48666 0.6875,-0.25891 1.25,0.0453 1.25,0.67608 0,1.81327 -3.68757,8.56297 -5.5,10.06715 -0.9054,0.75141 -2.50726,3.05407 -3.5597,5.11702 -3.99732,7.8354 -10.4495,9.12806 -16.82264,3.37032 -2.3875,-2.15697 -4.48522,-3.28352 -5.43528,-2.91895 -1.96898,0.75556 -3.96427,-3.00234 -6.55167,-12.33925 -1.06903,-3.85775 -2.60294,-8.07498 -3.40869,-9.37162 -1.49819,-2.41096 -3.62937,-12.72584 -5.7557,-27.85752 -1.62197,-11.54251 -8.50552,-31.9372 -11.58451,-34.32277 -1.29393,-1.00252 -3.22594,-3.7971 -4.29336,-6.21019 l -1.94077,-4.38742 -3.05396,1.52351 c -3.70647,1.84903 -5.2424,3.87737 -1.7212,2.273 1.37497,-0.62648 3.20364,-0.86902 4.06371,-0.53897 2.16373,0.8303 1.96986,3.66284 -0.25071,3.66284 -2.47522,0 -10.2504,13.71696 -8.42387,14.86138 0.66846,0.41882 0.39588,3.08776 -0.79196,7.7545 -2.26647,8.9044 -5.21142,28.51371 -5.11666,34.06991 0.0393,2.30218 -0.5584,8.07635 -1.32816,12.83148 -0.76976,4.75514 -1.17521,9.23035 -0.90101,9.94491 0.73764,1.92225 -3.45854,10.22013 -7.14477,14.12866 -3.13872,3.32803 -6.73931,4.41516 -7.97909,2.40916 z m -14.12734,-45.75 c 0.40263,-2.62867 0.26498,-4.25 -0.36084,-4.25 -0.5565,0 -1.01182,2.1 -1.01182,4.66667 0,5.55344 0.48055,5.40757 1.37266,-0.41667 z m 101.31045,-9.4375 c -0.31922,-0.79773 -0.55618,-0.56078 -0.60416,0.60417 -0.0434,1.05416 0.19292,1.64479 0.52522,1.3125 0.33229,-0.33229 0.36781,-1.1948 0.0789,-1.91667 z m -62.68311,-37.93053 c 0,-0.55 -0.45,-0.72189 -1,-0.38197 -0.55,0.33992 -1,1.06803 -1,1.61803 0,0.55 0.45,0.72189 1,0.38197 0.55,-0.33992 1,-1.06803 1,-1.61803 z m 7.64466,-153.9668 c 14.26003,-4.33673 28.99395,-15.15428 35.35534,-25.95765 1.375,-2.33513 3.4,-5.2271 4.5,-6.42662 2.87349,-3.13345 5.5,-11.46586 5.5,-17.44836 0,-10.1098 -8.4547,-21.39489 -21,-28.03018 -5.33276,-2.82053 -8.02639,-3.55892 -15,-4.11187 -4.675,-0.37069 -9.28125,-1.0047 -10.2361,-1.4089 -1.31546,-0.55684 -2.01576,-0.044 -2.89033,2.11675 l -1.15422,2.85166 -0.65373,-2.5 c -1.08963,-4.16696 -6.97407,-4.77454 -15.42185,-1.59234 -9.10582,3.43008 -20.51517,10.64429 -25.65827,16.22389 -7.63338,8.28124 -11.91198,21.27212 -9.92549,30.13623 1.8324,8.17654 7.63658,17.70375 15.04076,24.68847 8.94692,8.44007 10.17983,9.18661 18.97518,11.48965 9.63037,2.5217 14.19627,2.51548 22.56871,-0.0307 z m -3.64466,-11.34087 c -1.375,-0.79836 -4.3,-1.75505 -6.5,-2.12599 -2.2,-0.37094 -4.53374,-1.10479 -5.18608,-1.63077 -0.77071,-0.62142 -1.99642,-0.51098 -3.5,0.31535 -2.74309,1.50754 -16.06672,1.50066 -20.01162,-0.0103 -4.07524,-1.56092 -6.23087,-5.6116 -6.23087,-11.70855 0,-3.74063 0.54117,-5.88094 1.85368,-7.33125 1.78724,-1.97488 1.79133,-2.3048 0.11428,-9.20481 -2.94779,-12.12834 -2.23837,-15.01069 5.81545,-23.62795 3.5025,-3.74753 5.39033,-4.02489 8.85355,-1.30072 l 2.47811,1.94928 3.08826,-4.38135 c 1.69855,-2.40975 4.33679,-5.19942 5.86277,-6.19928 3.92779,-2.57359 11.70602,-2.35396 17.36247,0.49026 9.6746,4.86464 11.65241,6.17926 15.95821,10.60717 3.43903,3.53656 5.1799,4.58464 7.61514,4.58464 4.24082,0 8.43002,3.39661 8.4146,6.82258 -0.007,1.47258 -1.09515,4.57164 -2.41895,6.8868 -1.79029,3.13101 -2.41423,5.74222 -2.43552,10.19274 -0.0373,7.80259 -3.10529,14.89541 -8.65612,20.01198 -5.98639,5.51807 -17.6595,8.45756 -22.47736,5.6602 z m 11,-1.48045 c 2.49072,-0.70417 2.49166,-0.70902 0.25388,-1.30569 -2.97251,-0.79257 -10.35993,0.23124 -9.67422,1.34074 0.62425,1.01005 5.7917,0.99083 9.42034,-0.0351 z m -29,-3.0171 2.5,-0.72389 -2.27664,-0.75227 c -1.25215,-0.41375 -2.95473,-1.78717 -3.78351,-3.05205 -1.10062,-1.67976 -2.84582,-2.47739 -6.47336,-2.9586 -5.08379,-0.67439 -6.93667,-2.58994 -2.50521,-2.58994 2.3207,0 2.22075,-0.22639 -1.75,-3.96379 -3.78556,-3.56308 -4.33764,-3.79648 -5.46128,-2.30887 -2.0792,2.75272 -1.59253,11.6527 0.75327,13.77562 3.16043,2.86015 13.27504,4.23054 18.99673,2.57379 z m 23,-1.07675 c 0,-0.55 -0.42344,-1 -0.94098,-1 -0.51754,0 -1.2191,0.45 -1.55902,1 -0.33992,0.55 0.0835,1 0.94098,1 0.85746,0 1.55902,-0.45 1.55902,-1 z m 14.41502,-0.96769 c 4.44972,-1.69178 7.94194,-11.33255 5.9682,-16.47605 -0.46467,-1.21091 -0.94455,-1.33528 -1.9458,-0.50432 -0.96529,0.80112 -1.0687,1.78766 -0.37785,3.60473 0.52313,1.37596 0.61124,3.08131 0.19579,3.78967 -1.33719,2.27996 -6.7646,8.09386 -9.2967,9.95873 l -2.45866,1.81078 2.7059,-0.61591 c 1.48824,-0.33875 3.83234,-1.04418 5.20912,-1.56763 z m -17.22464,-1.45311 c 1.59834,-1.11952 1.65382,-1.46361 0.40328,-2.50147 -1.14499,-0.95025 -2.14873,-0.8479 -4.77183,0.48662 -4.20988,2.1418 -4.15609,2.08579 -3.31287,3.45015 0.80734,1.3063 4.84415,0.55201 7.68142,-1.4353 z m -13.74343,-2.93456 c -0.67416,-2.68605 -2.25891,-3.1673 -5.82111,-1.76772 -1.69236,0.66493 -1.55718,1.00307 1.39367,3.48605 3.67007,3.08815 5.45948,2.39366 4.42744,-1.71833 z m 27.73689,-0.64132 c 2.67676,-2.7771 4.81616,-5.94077 4.81616,-7.12198 0,-2.02244 -0.10888,-2.04606 -2.25,-0.48805 -1.2375,0.90047 -3.15,2.10217 -4.25,2.67043 -1.6659,0.8606 -6.10382,6.41988 -7.33333,9.18628 -0.18334,0.4125 0.68689,0.75 1.93383,0.75 1.41116,0 4.08561,-1.88659 7.08334,-4.99668 z m -20.04304,0.0187 4.3592,-1.97804 -5.15638,-0.022 c -4.66892,-0.0199 -5.10694,0.1671 -4.63337,1.97803 0.63279,2.41978 0.15053,2.41783 5.43055,0.022 z m 10.8592,-0.52197 c 1.04007,-1.2532 0.89568,-1.5 -0.87756,-1.5 -1.21995,0 -2.12244,0.63782 -2.12244,1.5 0,0.825 0.3949,1.5 0.87756,1.5 0.48265,0 1.43775,-0.675 2.12244,-1.5 z m -7.59196,-5 c -1.93921,-2.95961 -3.11935,-3.09714 -6.43553,-0.75 l -2.47251,1.75 5,0.5929 c 2.75,0.32609 5.12287,0.66359 5.27305,0.75 0.15018,0.0864 -0.46407,-0.9679 -1.36501,-2.3429 z m -23.40804,-1 c 0,-1.375 -0.47174,-2.5 -1.04831,-2.5 -0.57657,0 -2.91109,-0.9 -5.18783,-2 -4.96039,-2.3966 -4.84833,-2.3837 -4.11538,-0.47367 0.57463,1.49746 8.12754,7.34146 9.60152,7.42908 0.4125,0.0245 0.75,-1.08041 0.75,-2.45541 z m 11.29966,0.85179 c 4.3572,-2.24401 9.87187,-6.51359 9.2353,-7.15017 -0.28572,-0.28571 -3.78547,0.52075 -7.77722,1.79214 -3.99176,1.27139 -7.82024,2.45378 -8.50774,2.62754 -0.6875,0.17376 -1.25,1.23005 -1.25,2.34731 0,2.5662 3.72679,2.73826 8.29966,0.38318 z m 20.50911,0.29614 c 2.30681,-1.28012 2.30711,-1.28325 0.354,-3.69525 -1.88138,-2.3234 -2.07796,-2.3557 -5.23565,-0.86024 l -3.28088,1.5538 2.17688,2.17688 c 2.50724,2.50724 2.86501,2.55654 5.98565,0.82481 z m 13.90739,-7.93551 c 1.87214,-1.87215 1.10359,-3.28986 -2.23812,-4.12858 -1.86943,-0.46919 -3.52351,0.0854 -6.25945,2.09877 -2.04522,1.50507 -3.90333,2.86443 -4.12913,3.02081 -0.22579,0.15638 0.37217,1.1492 1.32881,2.20627 1.69086,1.86838 1.85139,1.87179 5.75837,0.12259 2.21046,-0.98966 4.70325,-2.48359 5.53952,-3.31986 z m 7.28384,-0.41242 c 0,-2.74421 -0.29107,-3.40893 -1.12678,-2.57322 -0.63651,0.63651 -0.84577,2.24643 -0.48095,3.7 0.91968,3.66431 1.60773,3.18208 1.60773,-1.12678 z m -53.55684,0.45 c -0.92075,-2.99544 -0.82715,-2.94271 -3.86872,-2.17933 -3.15784,0.79257 -2.90342,2.60107 0.4997,3.55207 3.88169,1.08473 4.09739,0.99684 3.36902,-1.37274 z m 11.88863,1.18661 c 2.05906,-0.0602 2.04564,-0.11235 -0.26651,-1.0361 -2.72646,-1.08928 -5.06528,-0.5467 -5.06528,1.17509 0,0.62721 0.71028,0.86582 1.58179,0.53139 0.86998,-0.33385 2.55748,-0.63551 3.75,-0.67038 z m 15.82143,-1.18339 c -1.0351,-1.0351 -3.15322,-0.22085 -3.15322,1.21218 0,0.46605 0.92974,0.60423 2.06609,0.30707 1.34778,-0.35246 1.72573,-0.88065 1.08713,-1.51925 z m -23.15322,-0.25322 c 1.01957,-1.22851 0.95123,-1.5 -0.37756,-1.5 -0.89234,0 -1.62244,0.675 -1.62244,1.5 0,0.825 0.1699,1.5 0.37755,1.5 0.20766,0 0.93776,-0.675 1.62245,-1.5 z m 30.86278,-2.55763 c 1.84953,-1.12758 3.13064,-2.28229 2.84691,-2.56602 -0.54936,-0.54936 -8.70969,3.33324 -8.70969,4.14397 0,1.07712 2.69955,0.35054 5.86278,-1.57795 z m -15.86278,0.0576 c 1.15087,-0.74375 0.80174,-0.96937 -1.5,-0.96937 -1.65,0 -3.675,0.43621 -4.5,0.96937 -1.15087,0.74375 -0.80174,0.96937 1.5,0.96937 1.65,0 3.675,-0.43621 4.5,-0.96937 z m -22.75,-1.64907 c 3.06534,-0.66984 3.68649,-3.32882 1.25,-5.35093 -2.05832,-1.70825 -1.86924,-4.92257 0.5,-8.5 1.09275,-1.65 1.98979,-4.26294 1.99341,-5.80654 l 0.007,-2.80653 -3.13958,1.80653 c -4.87787,2.80676 -9.80623,10.10745 -9.83563,14.57011 -0.0326,4.9438 1.85193,7.99898 4.47521,7.25528 1.1,-0.31185 3.2375,-0.83741 4.75,-1.16792 z m 15.25,-0.27552 c 1.52281,-0.59696 0.56845,-1.03349 -4,-1.82961 -6.64972,-1.15881 -7.36951,-0.99842 -5.52006,1.23003 1.33647,1.61034 6.16577,1.91449 9.52006,0.59958 z m 14.9159,-0.71685 c 0.52667,-1.37248 0.38034,-1.43434 -0.89301,-0.37756 -1.73524,1.44013 -1.91584,2.019 -0.62988,2.019 0.49116,0 1.17646,-0.73865 1.52289,-1.64144 z m 24.95042,-0.57752 c 0.76428,-1.21163 0.34108,-2.47588 -1.74374,-5.20921 -2.91851,-3.82637 -4.62258,-3.90482 -4.62258,-0.21281 0,1.23254 -0.49963,2.74061 -1.11028,3.35126 -0.81371,0.81371 -0.34626,1.52359 1.75,2.65759 3.2702,1.76905 4.3076,1.66275 5.7266,-0.58683 z m -29.78012,-2.54635 c 0.59741,-0.40408 1.60442,-2.2486 2.23781,-4.09894 1.1242,-3.28418 1.09146,-3.35275 -1.37584,-2.88109 -1.59236,0.3044 -2.39175,0.0692 -2.16069,-0.63576 0.20172,-0.61539 1.56955,-1.26129 3.03964,-1.43532 5.61932,-0.66523 2.30704,-2.00433 -6.07712,-2.45688 -4.8125,-0.25977 -9.7625,-0.80702 -11,-1.21613 -2.07548,-0.68614 -2.25,-0.44179 -2.25,3.15029 0,4.34297 2.1193,8.04099 5.357,9.34756 2.65335,1.07076 10.75893,1.22073 12.2292,0.22627 z m 17.65941,-1.48966 c 3.09746,-2.53273 2.63144,-4.23582 -1.43858,-5.25733 -2.38224,-0.5979 -2.89996,-0.22587 -4.76031,3.42072 l -2.08737,4.09158 2.77033,-0.005 c 1.52367,-0.003 4.00585,-1.01523 5.51593,-2.25 z m -35.9199,-1.49503 c -0.94621,-1.5125 -1.85659,-2.9375 -2.02305,-3.16667 -0.16646,-0.22916 -0.30266,0.75034 -0.30266,2.17668 0,1.62896 0.65077,2.7634 1.75,3.05066 0.9625,0.25153 1.87287,0.50953 2.02305,0.57333 0.15018,0.0638 -0.50112,-1.1215 -1.44734,-2.634 z m 54.66917,-6.42857 c 0.008,-2.5493 -2.80491,-4.82143 -5.96848,-4.82143 -2.23847,0 -3.04691,0.62006 -3.86384,2.96354 -0.91574,2.62688 -0.69965,3.32049 1.90217,6.10575 1.6144,1.72822 2.94931,3.65713 2.96648,4.28646 0.0488,1.79066 4.95791,-6.64981 4.96367,-8.53432 z m -27.21635,3.34299 c 0.65548,-1.96644 -2.64185,-1.28833 -3.74335,0.76984 -0.56935,1.06384 -1.03518,2.24373 -1.03518,2.62197 0,1.02855 4.32942,-2.04448 4.77853,-3.39181 z m 12.72147,-1.16442 c -0.33992,-0.55 -1.15398,-0.99311 -1.80902,-0.98469 -0.71561,0.009 -0.59227,0.40223 0.30902,0.98469 1.92112,1.24153 2.2673,1.24153 1.5,0 z m -51.19855,-8.66908 c 1.3902,-1.19299 3.49514,-2.68687 4.67765,-3.31974 1.72288,-0.92205 1.9142,-1.43482 0.96302,-2.58092 -0.65285,-0.78664 -1.72272,-1.43026 -2.37747,-1.43026 -2.72299,0 -10.55385,10.73844 -10.56091,14.48213 -0.003,1.55528 0.51028,1.23226 2.38318,-1.5 1.3128,-1.91517 3.52434,-4.45822 4.91453,-5.65121 z m 53.69855,4.10159 c 0,-1.1893 -0.35181,-1.22975 -1.96011,-0.22535 -1.34862,0.84223 -1.59749,1.44822 -0.79775,1.94249 1.49216,0.92221 2.75786,0.13414 2.75786,-1.71714 z m -0.0102,-3.6767 c 0.0218,-1.59209 -9.34509,-10.19003 -9.75655,-8.95565 -0.2323,0.69689 0.13995,1.94463 0.82722,2.77274 0.68727,0.8281 1.29231,3.43143 1.34454,5.78517 l 0.095,4.27952 3.73983,-1.56879 c 2.05691,-0.86284 3.74441,-1.90369 3.75,-2.31299 z m -15.64475,1.70106 c -0.32569,-0.84872 -0.80663,-1.32866 -1.06875,-1.06653 -0.26213,0.26213 -0.17998,0.95654 0.18255,1.54313 0.98605,1.59546 1.56238,1.28551 0.8862,-0.4766 z m 6.08824,-0.14371 c 0.35602,-0.92776 -0.32516,-4.08282 -1.51372,-7.01124 -1.59573,-3.93165 -2.81015,-5.48733 -4.64263,-5.94725 -3.7933,-0.95206 -16.2201,0.49209 -18.60431,2.16205 -1.95455,1.36905 -1.55613,1.48328 5.17329,1.48328 l 7.29093,0 4.43158,4.6252 c 2.43736,2.54385 4.43157,5.01885 4.43157,5.5 0,1.57259 2.76962,0.91754 3.43332,-0.81204 z m -9.61,-0.99124 c -0.65844,-3.41753 -12.57489,-4.18615 -18.04466,-1.16391 l -2.27863,1.25903 3,0.67317 c 1.65,0.37024 6.2955,0.7264 10.32332,0.79147 6.35321,0.10265 7.2805,-0.10398 7,-1.55976 z m -6.78096,-5.09187 c 2.68962,0.25844 4.65384,0.0874 4.36492,-0.38008 -0.72208,-1.16835 -12.68857,-1.07372 -15.84218,0.12528 -4.55622,1.73227 -2.72344,2.9573 2.01097,1.34413 2.80714,-0.95649 6.46642,-1.37758 9.46629,-1.08933 z m -12.66338,-3.7752 c 0.87779,-2.28746 6.46659,-4.28069 14.24019,-5.07871 l 6.88086,-0.70638 -4.30367,-1.4361 c -5.37129,-1.79236 -10.15833,-0.97796 -14.18944,2.41399 -3.32941,2.80152 -5.64865,6.35235 -4.14906,6.35235 0.5105,0 1.19501,-0.69532 1.52112,-1.54515 z m -39.77478,18.81598 c -1.01652,-1.01651 -1.85525,0.51389 -1.02122,1.86338 0.63003,1.01942 0.86558,1.02021 1.2043,0.004 0.2316,-0.69478 0.14921,-1.53512 -0.18308,-1.86741 z m 99.74326,-21.80782 c -0.32438,-0.84534 -1.99776,-2.2499 -3.71861,-3.12124 l -3.12882,-1.58426 2.93709,3.12124 c 3.16784,3.36646 4.85682,4.05075 3.91034,1.58426 z m -32.59743,-14.15234 c -0.9625,-0.25152 -2.5375,-0.25152 -3.5,0 -0.9625,0.25153 -0.175,0.45733 1.75,0.45733 1.925,0 2.7125,-0.2058 1.75,-0.45733 z m -23.25,-1.31067 c 1.26064,-0.54172 1.44548,-0.85943 0.5,-0.85943 -0.825,0 -2.4,0.38674 -3.5,0.85943 -1.26064,0.54171 -1.44548,0.85943 -0.5,0.85943 0.825,0 2.4,-0.38674 3.5,-0.85943 z m 13.76903,-0.65594 c -0.67703,-0.27392 -2.02703,-0.29059 -3,-0.0371 -0.97297,0.25355 -0.41903,0.47767 1.23097,0.49804 1.65,0.0204 2.44606,-0.18706 1.76903,-0.46098 z"
       style="fill:#dab" />
  </g>
</svg>
