<?xml version="1.0" encoding="UTF-8" standalone="no"?>
<svg
   xmlns:dc="http://purl.org/dc/elements/1.1/"
   xmlns:cc="http://creativecommons.org/ns#"
   xmlns:rdf="http://www.w3.org/1999/02/22-rdf-syntax-ns#"
   xmlns:svg="http://www.w3.org/2000/svg"
   xmlns="http://www.w3.org/2000/svg"
   version="1.1"
   id="svg4733"
   viewBox="0 0 1034.8691 363.7976"
   height="102.67177mm"
   width="292.06305mm">
  <defs
     id="defs4735" />
  <metadata
     id="metadata4738">
    <rdf:RDF>
      <cc:Work
         rdf:about="">
        <dc:format>image/svg+xml</dc:format>
        <dc:type
           rdf:resource="http://purl.org/dc/dcmitype/StillImage" />
        <dc:title></dc:title>
      </cc:Work>
    </rdf:RDF>
  </metadata>
  <g
     transform="translate(798.92406,1159.8581)"
     id="layer1">
    <path
       id="path4752"
       d="m -775.53472,-796.87502 c -3.61077,-1.46359 -4.83018,-3.7275 -3.66138,-6.79758 0.57601,-1.51299 1.98951,-5.9009 3.1411,-9.7509 1.15159,-3.85 2.50933,-7.65991 3.0172,-8.46646 0.58834,-0.93436 0.51988,-1.95266 -0.18868,-2.80643 -0.84076,-1.01306 -0.78256,-1.2652 0.23856,-1.03353 0.89577,0.20323 1.76031,-1.46986 2.56717,-4.96809 0.6691,-2.90098 1.66602,-5.82598 2.21537,-6.5 0.54936,-0.67402 1.59597,-3.23623 2.3258,-5.6938 0.72983,-2.45757 3.51158,-8.53257 6.18165,-13.5 2.67008,-4.96743 5.90699,-11.95669 7.19315,-15.53169 1.28615,-3.575 3.33501,-9.30094 4.55303,-12.72432 1.28618,-3.61497 2.93429,-6.45275 3.9314,-6.76922 0.94426,-0.2997 2.12263,-1.54875 2.61859,-2.77568 1.08347,-2.6803 0.66541,-19.73078 -0.48377,-19.73078 -0.44422,0 -2.37454,1.4625 -4.2896,3.25 -8.93989,8.3444 -11.39186,10.33347 -14.73432,11.95267 -1.9748,0.95666 -4.78888,2.71104 -6.2535,3.89861 -1.89644,1.53772 -3.39905,1.97448 -5.22028,1.51738 -2.72688,-0.6844 -7.61677,-5.33641 -7.61677,-7.24623 0,-1.98757 -7.02358,-11.68452 -11.8587,-16.37243 -2.55271,-2.475 -5.30405,-5.78273 -6.11408,-7.35052 -1.35093,-2.6147 -1.31444,-2.96629 0.44113,-4.25 1.05265,-0.76971 3.43604,-1.39948 5.29643,-1.39948 2.83203,0 4.22495,0.91821 8.55887,5.64198 2.84699,3.10309 5.48203,6.43127 5.85564,7.39595 0.3736,0.96469 2.31806,3.39275 4.321,5.3957 l 3.64173,3.64172 3.67899,-2.20364 c 2.02344,-1.21201 4.67549,-3.41684 5.89344,-4.89964 1.21795,-1.48281 5.15545,-4.64364 8.75,-7.02408 3.59455,-2.38045 6.53555,-4.91756 6.53555,-5.63804 0,-0.72047 0.72405,-1.30995 1.60899,-1.30995 1.43064,0 1.54842,-1.63505 1.06251,-14.75 -0.55606,-15.00834 -0.78834,-17.39853 -1.99222,-20.5 -0.3736,-0.9625 -0.89016,-2.425 -1.1479,-3.25 -0.25773,-0.825 -1.18606,-1.5 -2.06294,-1.5 -3.39034,0 -12.81893,-5.59287 -15.95841,-9.46625 -1.79821,-2.21856 -4.69508,-7.30814 -6.4375,-11.31016 -2.53729,-5.8277 -3.16346,-8.61506 -3.14507,-13.99999 0.0347,-10.1479 0.7666,-12.7578 6.26825,-22.3512 2.85725,-4.9823 12.09678,-15.4944 16.64318,-18.9354 4.25833,-3.223 5.66314,-3.7042 12.17463,-4.1701 4.04847,-0.2897 10.76411,-0.1069 14.92366,0.4062 6.6543,0.8207 7.98834,1.3469 11.10498,4.3798 1.94819,1.8959 4.20245,3.4471 5.00946,3.4471 0.80701,0 1.95032,0.7875 2.5407,1.75 1.39,2.2661 1.76352,30.654 0.43414,32.9954 -0.54793,0.965 -1.94261,4.6796 -3.09929,8.2546 -2.60228,8.04296 -8.24449,17.52039 -11.77418,19.77755 -1.45915,0.93308 -3.26244,2.27966 -4.00732,2.99239 -0.74488,0.71272 -3.14471,2.20925 -5.33295,3.3256 -3.06416,1.56322 -3.80721,2.41757 -3.23286,3.7171 0.41018,0.92805 1.01,8.06398 1.33295,15.85764 0.32296,7.79365 0.92537,14.50683 1.3387,14.91817 1.38472,1.37807 6.10258,-2.01872 16.06143,-11.564 5.43735,-5.21156 10.85381,-10.12994 12.03658,-10.92974 1.18276,-0.79981 4.40048,-3.62741 7.15048,-6.28356 5.14375,-4.96822 11.45899,-9.44837 19.44112,-13.79189 5.94888,-3.23712 7.05888,-4.38208 7.05888,-7.28116 0,-1.32262 0.30115,-2.70592 0.66923,-3.07399 0.36807,-0.36808 0.82562,-2.35558 1.01677,-4.41667 0.19115,-2.06109 0.58254,-5.09744 0.86975,-6.74744 0.28721,-1.65 0.93075,-5.9453 1.43008,-9.5451 0.49933,-3.5998 1.40551,-7.854 2.01373,-9.4538 0.60822,-1.5997 1.25486,-4.9544 1.43697,-7.4548 0.18211,-2.5005 0.5935,-5.2213 0.91419,-6.0463 0.32069,-0.825 0.81857,-3.975 1.1064,-7 0.66658,-7.0055 1.02716,-8.9188 2.26147,-12 0.55082,-1.375 1.29078,-4.075 1.64436,-6 0.35358,-1.925 1.53494,-4.9625 2.62526,-6.75 1.65432,-2.7121 2.58718,-3.25 5.63685,-3.25 4.67608,0 6.30217,2.123 6.34314,8.2815 0.0337,5.0705 2.79814,14.424 6.0637,20.5168 1.08245,2.0197 1.9681,4.0463 1.9681,4.5036 0,1.4066 5.17056,7.6981 6.32653,7.6981 0.59903,0 2.68312,1.4846 4.63131,3.2991 2.05178,1.911 6.06668,4.1017 9.54216,5.2065 3.3,1.049 8.25,2.935 11,4.1911 8.48442,3.8753 9.02655,3.5615 9.29315,-5.3787 0.30753,-10.3132 0.94796,-14.9241 2.59401,-18.6762 0.75809,-1.728 1.97461,-4.7168 2.70336,-6.6418 0.72876,-1.925 1.79402,-4.0096 2.36725,-4.6325 0.57323,-0.6229 2.48447,-2.9102 4.24721,-5.0828 5.28742,-6.517 10.42527,-9.4869 17.29112,-9.995 7.22319,-0.5347 12.25367,0.94 13.93707,4.0854 2.50775,4.6858 -0.34641,23.5947 -5.02655,33.3012 -4.58186,9.5026 -14.29774,18.9533 -23.39129,22.7528 -3.5102,1.4667 -3.72214,1.7929 -3.13297,4.822 2.14942,11.05093 14.50802,25.96822 26.44659,31.92202 6.91273,3.4474 12.46002,4.1476 20.17105,2.54606 l 3.5,-0.72694 0.0253,-12.74612 c 0.0253,-12.73846 0.0273,-12.74896 3.28772,-17.48113 3.57683,-5.19139 5.05147,-6.21799 11.8864,-8.27499 7.70409,-2.3186 13.11955,-0.256 15.72618,5.9897 2.71227,6.49878 2.8244,10.50378 0.47032,16.79854 -2.42088,6.47337 -6.56493,11.29757 -14.10996,16.42578 -4.62322,3.14232 -4.69259,3.2675 -3.60194,6.5 0.61164,1.81279 2.39544,5.07213 3.96401,7.24298 1.56857,2.17085 2.85194,4.33474 2.85194,4.80864 0,1.07992 5.08269,7.68499 10.98955,14.28117 9.48033,10.58665 11.76039,13.37992 11.29857,13.84174 -0.26239,0.26239 1.32761,1.61633 3.53334,3.00874 2.20573,1.39242 4.28766,2.98025 4.62651,3.52852 0.33884,0.54826 1.27667,0.74335 2.08406,0.43353 0.80738,-0.30983 1.46797,-0.0652 1.46797,0.54367 0,0.60885 1.07308,1.10699 2.38462,1.10699 2.18933,0 2.38461,-0.40245 2.38461,-4.91444 0,-7.31932 2.7582,-13.60487 7.10745,-16.19686 4.98827,-2.97283 15.76661,-3.76038 20.52986,-1.50007 4.64091,2.20225 9.59346,8.33074 9.59346,11.87133 0,7.7646 -8.86338,17.91979 -18.49882,21.19498 -3.08325,1.04803 -5.84049,2.28507 -6.12721,2.74897 -0.68984,1.1162 2.19603,8.7352 6.36191,16.79609 3.31743,6.41917 11.10853,14.76432 16.36562,17.52944 1.43083,0.75258 3.31992,2.46478 4.19799,3.80488 1.69353,2.58466 10.04099,7.72676 12.9076,7.95118 0.93891,0.0735 1.47002,0.37073 1.18025,0.66049 -0.28976,0.28977 2.99204,1.47227 7.29291,2.62778 6.34689,1.70522 7.87836,2.49622 8.13092,4.19959 0.21338,1.4392 -0.52351,2.536 -2.34509,3.49042 -2.24972,1.17875 -3.74143,1.18656 -9.74674,0.051 -3.89977,-0.7374 -7.82401,-2.00455 -8.72053,-2.81589 -0.89653,-0.81134 -3.06302,-1.76176 -4.81443,-2.11204 -1.75138,-0.35026 -3.18435,-0.94895 -3.18435,-1.33041 0,-0.6049 -4.92472,-4.48447 -16.34211,-12.87391 -1.73465,-1.27462 -3.51466,-2.96212 -3.95559,-3.75 -0.44092,-0.78789 -1.44575,-1.43253 -2.23294,-1.43253 -0.78719,0 -1.71361,-1.125 -2.05872,-2.5 -0.3451,-1.375 -1.02867,-2.5 -1.51905,-2.5 -0.49037,0 -0.89159,-0.62252 -0.89159,-1.38337 0,-0.76085 -0.94528,-1.63056 -2.10062,-1.93269 -1.21286,-0.31717 -1.8104,-1.0189 -1.41391,-1.66044 0.37769,-0.61111 0.19818,-1.69975 -0.39891,-2.4192 -1.23027,-1.48238 -6.00501,-13.80944 -6.81882,-17.6043 -0.71377,-3.32835 -2.13557,-5 -4.25268,-5 -0.95703,0 -3.4388,-1.35 -5.51506,-3 -2.07626,-1.65 -4.60535,-3 -5.62022,-3 -1.01487,0 -3.09049,-1.09742 -4.6125,-2.4387 -1.522,-1.34129 -4.45651,-3.86442 -6.52112,-5.60697 -2.06461,-1.74254 -4.50564,-4.75255 -5.4245,-6.6889 -0.91886,-1.93636 -4.29931,-6.27572 -7.51211,-9.64304 -5.82993,-6.11031 -10.66072,-12.77834 -14.15954,-19.5447 -3.72076,-7.19556 -5.09609,-8.00764 -12.51093,-7.3872 -4.52001,0.37821 -8.67603,0.0333 -13.02087,-1.08056 -4.80828,-1.23268 -6.71913,-1.3561 -7.75,-0.50056 -1.06325,0.88242 -1.36821,0.76911 -1.36821,-0.50836 0,-0.90414 -1.2375,-2.18463 -2.75,-2.84554 -4.45995,-1.94884 -12.64396,-8.41786 -16.11706,-12.73966 -1.77495,-2.2087 -3.88098,-4.01581 -4.68006,-4.01581 -0.79909,0 -1.45288,-0.60526 -1.45288,-1.34501 0,-0.73976 -0.9,-2.1595 -2,-3.15499 -1.1,-0.99549 -2,-2.38309 -2,-3.08356 0,-0.70047 -0.57662,-1.86823 -1.28137,-2.59501 -0.70475,-0.72679 -1.37595,-2.57393 -1.49156,-4.10476 -0.23276,-3.08232 -2.88926,-8.80857 -4.6166,-9.95137 -0.61076,-0.4041 -2.06455,-0.7416 -3.23064,-0.75 -1.1661,-0.01 -5.83089,-1.7595 -10.36621,-3.8913 -4.53531,-2.1318 -8.99227,-3.6808 -9.90436,-3.4423 -0.91208,0.2385 -2.99729,-0.2645 -4.63379,-1.1179 -1.63651,-0.8533 -3.48622,-1.5543 -4.11046,-1.5576 -0.62424,0 -1.87212,-1.1312 -2.77305,-2.5062 -0.90094,-1.375 -2.0778,-2.5 -2.61525,-2.5 -0.53745,0 -3.37239,-2.4144 -6.29987,-5.3654 -5.28385,-5.3262 -7.3109,-8.8335 -7.88033,-13.6346 -0.16887,-1.4238 -0.94225,-2.5 -1.79651,-2.5 -1.07605,0 -1.73051,1.6958 -2.31557,6 -0.44856,3.3 -1.67124,9.6 -2.71706,14 -1.04582,4.4 -2.12003,10.025 -2.38712,12.5 -0.26709,2.475 -1.21153,9.225 -2.09876,15 -0.88723,5.775 -1.63268,11.175 -1.65657,12 -0.0239,0.825 -0.66662,3.42044 -1.4283,5.76763 -0.76167,2.3472 -1.30391,4.5972 -1.20497,5 0.40763,1.65948 -3.16697,8.1488 -5.04125,9.15188 -3.16861,1.69579 -4.77018,1.30686 -8.02611,-1.94906 l -3.02955,-3.02956 -4.75229,3.62751 c -2.61376,1.99513 -5.89758,4.71074 -7.29737,6.0347 -4.79582,4.53599 -9.60039,8.90383 -18.0364,16.3969 -4.6441,4.125 -9.5821,8.51555 -10.97333,9.75677 -1.39124,1.24123 -4.87059,3.48248 -7.7319,4.98057 -3.14306,1.6456 -5.41569,3.57373 -5.74128,4.87097 -0.2964,1.18094 -0.28105,5.91469 0.0341,10.51943 0.31516,4.60474 0.64742,9.57226 0.73837,11.03893 0.0909,1.46666 0.48702,2.98833 0.88017,3.38148 0.39315,0.39315 0.24942,1.58441 -0.3194,2.64726 -0.75218,1.40546 -0.67441,2.38867 0.28519,3.60547 0.72566,0.92017 1.76939,2.28424 2.31939,3.03128 0.55,0.74704 2.0125,2.46086 3.25,3.8085 1.2375,1.34764 2.25,2.83722 2.25,3.31018 0,0.75541 4.49672,6.72663 8.32074,11.04916 0.72985,0.825 1.93038,3.075 2.66783,5 0.73745,1.925 1.96328,4.23428 2.72407,5.13172 0.7608,0.89745 1.81187,3.18401 2.33572,5.08124 1.03425,3.74577 5.90295,7.40679 6.69861,5.03704 0.23083,-0.6875 1.3947,-1.26184 2.58636,-1.27631 1.19167,-0.0145 5.53615,-1.81447 9.6544,-4 4.11826,-2.18553 7.94326,-3.9837 8.5,-3.99593 0.55675,-0.0122 2.13727,-0.90222 3.51227,-1.97776 4.15443,-3.24964 11,-1.81234 11,2.30956 0,2.36014 -5.81467,7.51563 -11.5,10.1963 -6.49522,3.06254 -17.86037,7.49414 -19.21925,7.49414 -0.58428,0 -2.99639,0.8659 -5.36023,1.92423 l -4.2979,1.92422 -4.01158,-2.23133 c -3.60114,-2.00303 -6.45156,-5.3443 -8.20432,-9.61712 -6.119,-14.9167 -20.13319,-33.41743 -22.60279,-29.8389 -1.62203,2.35039 -4.95806,10.18023 -6.47794,15.20409 -0.80953,2.67585 -3.62598,8.62198 -6.25878,13.21361 -2.6328,4.59164 -5.3443,10.5023 -6.02557,13.13482 -0.68126,2.63251 -1.86833,6.13638 -2.63792,7.78638 -0.7696,1.65 -2.08814,6.12092 -2.93009,9.93539 -1.76481,7.99543 -6.98028,19.23021 -9.57075,20.61659 -2.02156,1.08191 -1.75929,1.08212 -4.43759,-0.004 z m 330.34108,-118.71655 c 4.709,-4.48072 4.97248,-6.75696 1.23385,-10.65944 -1.51482,-1.5812 -2.29665,-1.68053 -5.80084,-0.73695 -7.14467,1.92386 -8.60525,3.8479 -9.06238,11.93794 l -0.40198,7.11414 4.82546,-1.74381 c 2.65401,-0.95909 6.79666,-3.61944 9.20589,-5.91188 z m -66.60208,-62.64322 c 0.93735,-0.73828 2.88541,-3.69391 4.32902,-6.56807 2.09296,-4.16699 2.48962,-6.02551 1.95782,-9.17319 -0.54258,-3.21151 -1.08098,-3.94745 -2.88789,-3.94745 -3.2528,0 -5.1673,1.83902 -8.32833,8 -2.34916,4.57861 -2.76055,6.46362 -2.45573,11.25211 l 0.36617,5.7521 2.65733,-1.98658 c 1.46153,-1.09262 3.42426,-2.59064 4.36161,-3.32892 z m -223.09912,-2.47607 c 4.49917,-2.53912 10.89484,-8.27694 10.89484,-9.77419 0,-0.65646 0.72188,-1.79267 1.60418,-2.52491 3.8551,-3.19945 8.62747,-22.76324 8.211,-33.66004 -0.34161,-8.938 -0.76811,-9.629 -8.31518,-13.4708 -3.60056,-1.8329 -13.8408,-1.2819 -15.60132,0.8394 -0.62896,0.7578 -1.66094,1.3779 -2.29328,1.3779 -3.43176,0 -13.90695,11.7903 -18.53494,20.8619 -3.41832,6.7004 -3.83888,16.2222 -1.07757,24.39702 1.90971,5.65366 3.02392,7.27709 7.37825,10.75023 4.70027,3.74907 5.51369,4.05034 9.73402,3.60516 2.53283,-0.26717 6.13283,-1.34792 8,-2.40167 z m 159.6945,-36.63024 c 4.99887,-2.6242 9.87613,-8.9694 13.51482,-17.5824 1.97502,-4.675 3.68891,-10.3 3.80866,-12.5 0.11975,-2.2 0.59657,-4.5028 1.05962,-5.1173 0.50066,-0.6645 0.22928,-1.6258 -0.66953,-2.3717 -1.21348,-1.0071 -2.12917,-0.9985 -4.64518,0.044 -3.68836,1.5277 -8.86805,5.6922 -8.86805,7.1298 0,0.5537 -0.9474,2.3373 -2.10533,3.9634 -3.37876,4.7451 -5.9563,12.8003 -6.59232,20.6021 -0.64344,7.8929 -0.29311,8.3472 4.49731,5.8324 z M -276,-805.68713 c -4.69611,-0.78292 -10.26062,-8.46014 -8.31893,-11.47742 0.44559,-0.69242 0.88958,-15.65895 0.98665,-33.25895 0.0971,-17.6 0.44055,-42.8 0.76329,-56 0.32273,-13.2 0.78946,-34.35 1.03717,-47 0.56794,-29.00375 1.33932,-51.2727 2.0437,-59 0.30082,-3.3 0.76632,-16.8 1.03446,-30 0.57254,-28.1853 0.99842,-39.1622 2.38609,-61.5 0.56376,-9.075 1.19715,-21.3651 1.40753,-27.3112 0.22609,-6.3902 0.85878,-11.2875 1.54716,-11.9759 0.64055,-0.6406 3.06549,-1.2187 5.38876,-1.2848 2.32326,-0.066 9.17412,-0.6067 15.22412,-1.2014 6.05,-0.5948 19.55,-0.9053 30,-0.6901 31.68825,0.6526 54.83478,0.5845 58,-0.1705 3.81181,-0.9092 37.98088,-0.9983 50.5,-0.1317 35.55022,2.461 74.16541,2.6178 93,0.3775 7.975,-0.9485 17.425,-1.9984 21,-2.3329 8.98933,-0.8413 62.7817,-0.6887 78,0.2213 34.6961,2.0746 62.8579,0.931 85,-3.4516 2.475,-0.4899 10.35,-2.049 17.5,-3.4647 7.15,-1.4157 14.575,-2.9372 16.5,-3.3812 1.925,-0.4441 8.7057,-0.9357 15.0682,-1.0926 11.9907,-0.2956 19.0769,0.8665 22.1818,3.6378 2.1371,1.9075 2.2832,5.1102 0.2683,5.8833 -1.1281,0.4329 -1.2364,1.027 -0.4537,2.4893 0.5653,1.0564 0.8325,2.2489 0.5937,2.6501 -0.2388,0.4011 -0.1269,4.0223 0.2487,8.047 0.3755,4.0248 0.3743,7.5085 0,7.7416 -0.3771,0.2331 -0.7549,9.3738 -0.8395,20.3127 -0.084,10.939 -0.3164,20.9553 -0.5153,22.2585 -5.1719,33.8863 -7.4907,54.8328 -6.9046,62.3695 0.3241,4.1684 -0.3312,15.2924 -1.6202,27.5 -1.1905,11.275 -2.3722,24.1 -2.6259,28.5 -0.2537,4.4 -0.9554,14.75 -1.5593,23 -0.6038,8.25 -1.2667,37.46444 -1.4729,64.92097 -0.2063,27.45653 -0.5557,50.10166 -0.7765,50.3225 -0.2209,0.22084 -2.8064,0.55062 -5.7457,0.73284 -5.8081,0.36006 -12.9122,1.82293 -17.4628,3.59591 -5.4863,2.13758 -38.2264,1.99578 -55.8814,-0.24203 -11.7564,-1.49015 -17.9892,-1.82311 -23.5,-1.25541 -9.0766,0.93503 -20.26452,0.72871 -33,-0.60858 -13.27391,-1.39382 -28.68657,-0.7024 -64.58156,2.89714 -4.44486,0.44573 -8.61471,1.13993 -9.26634,1.54266 -2.01695,1.24654 -28.11665,4.70996 -38.6521,5.12911 -12.43181,0.49461 -22.50276,1.34856 -23.55208,1.99708 -0.43863,0.27109 -7.91885,0.71824 -16.62272,0.99368 -8.70386,0.27543 -19.4252,0.98561 -23.8252,1.57818 -4.4,0.59256 -9.9125,1.30687 -12.25,1.58736 -2.3375,0.28049 -4.24941,0.80217 -4.24869,1.15928 7.2e-4,0.35712 -5.73678,0.5047 -12.75,0.32796 -7.12035,-0.17944 -15.4009,0.19586 -18.75131,0.84987 -7.68607,1.50035 -55.66582,2.10778 -59.87766,0.75807 -4.07052,-1.30443 -29.30606,-1.02622 -31.88028,0.35146 -1.09331,0.58512 -7.67004,1.08295 -14.61495,1.10628 -6.94491,0.0233 -13.48043,0.47897 -14.52337,1.01251 -2.10359,1.07614 -9.73031,1.6253 -13.60374,0.97953 z m 14.5,-10.64712 c 7.50743,-1.7282 54.25549,-2.11116 61.29489,-0.50213 2.58781,0.59151 9.65511,0.97924 15.70511,0.86164 6.05,-0.11761 12.35,-0.19201 14,-0.16534 1.65,0.0267 7.59613,0.12299 13.21363,0.21403 5.6175,0.091 10.78373,-0.1868 11.48052,-0.61744 0.6968,-0.43065 9.37566,-1.10075 19.28638,-1.48913 9.91071,-0.38838 19.14447,-0.9484 20.51947,-1.24448 7.05906,-1.52004 20.1163,-2.71911 34,-3.12226 8.525,-0.24755 18.77368,-0.91671 22.77484,-1.48703 4.00117,-0.57031 12.32617,-1.26295 18.5,-1.53919 14.25758,-0.63793 19.314,-1.1563 29.22516,-2.9961 22.86009,-4.24348 52.44471,-7.03361 72,-6.79033 9.35,0.11632 27.8,0.34474 41,0.50759 13.2,0.16285 24.5232,0.63247 25.1628,1.0436 3.5442,2.2785 47.2413,2.49569 55.1624,0.27418 12.2268,-3.4291 16.4156,-5.60572 17.3239,-9.00205 0.3858,-1.44265 0.7261,-12.84066 0.7561,-25.32891 0.062,-25.62043 1.6678,-75.70604 2.4695,-77.00313 0.2897,-0.46885 0.7761,-7.34378 1.0808,-15.27761 0.3047,-7.93384 0.9828,-17.80016 1.5069,-21.92516 2.1912,-17.24697 3.1895,-30.4407 3.4806,-46 0.2941,-15.7178 2.4731,-35.0339 5.9939,-53.1335 0.9212,-4.7358 1.5301,-14.2259 1.6041,-25 0.066,-9.5516 0.2851,-20.7415 0.488,-24.8665 0.2028,-4.125 0.1252,-10.0645 -0.1724,-13.1989 l -0.5411,-5.699 -5.5113,-1.2333 c -4.2217,-0.9448 -7.4175,-0.9727 -13.6578,-0.1191 -12.8009,1.7511 -26.3565,4.0563 -36.1464,6.1471 -10.1219,2.1617 -22.5279,4.0502 -30,4.5668 -19.1344,1.323 -43.14966,1.612 -51.84855,0.6241 -5.4167,-0.6152 -26.3417,-1.3107 -46.5,-1.5457 -33.96752,-0.3959 -38.3357,-0.2446 -59.65145,2.0659 -21.1593,2.2936 -25.16083,2.4367 -50,1.7884 -32.54973,-0.8497 -37.54131,-1.0613 -48.5,-2.0562 -11.68556,-1.0609 -24.94033,-1.0182 -41.5,0.1338 -7.7,0.5357 -31.775,0.9042 -53.5,0.819 -22.28602,-0.087 -43.42217,0.3021 -48.5,0.8937 l -9,1.0486 -0.20768,17.6324 c -0.11422,9.6978 -0.39945,36.5324 -0.63384,59.6324 -0.2344,23.1 -0.93601,52.125 -1.55914,64.5 -0.62313,12.375 -1.09301,26.325 -1.04417,31 0.0488,4.675 -0.16386,18.175 -0.47265,30 -0.30879,11.825 -0.7853,35 -1.05891,51.5 -0.27362,16.5 -0.79545,37.83198 -1.15963,47.40441 -0.61562,16.18178 -0.53287,17.49893 1.17807,18.75 2.3027,1.68377 4.41032,1.67229 11.95795,-0.0652 z m 61,-9.61028 c -8.25,-0.3927 -16.19393,-1.19592 -17.65319,-1.78493 -3.72604,-1.50396 -17.7367,-3.96207 -26.84681,-4.71015 -2.475,-0.20323 -5.94296,-0.80823 -7.70657,-1.34444 -1.76361,-0.53621 -4.10606,-0.7397 -5.20545,-0.45221 -1.55486,0.40661 -2.67517,-0.54368 -5.04343,-4.27804 -3.13943,-4.95036 -3.804,-8.24975 -2.02087,-10.03288 2.38814,-2.38814 3.39803,-22.11727 3.44882,-67.37632 0.0151,-13.475 0.38957,-28.1 0.8321,-32.5 0.97852,-9.72932 1.29114,-13.96126 2.73317,-37 0.92508,-14.7795 1.18859,-36.1118 0.72262,-58.5 -0.0401,-1.925 0.0324,-15.4666 0.16112,-30.0925 0.14331,-16.2883 -0.21709,-29.6774 -0.93009,-34.5536 -1.09336,-7.4775 -1.0312,-8.216 1.02322,-12.1575 2.47514,-4.7486 2.44549,-4.7377 7.33112,-2.6964 1.9745,0.825 6.19196,1.511 9.37212,1.5244 3.18017,0.014 7.58212,0.4277 9.78212,0.9206 2.2,0.4928 12.98037,1.1961 23.95638,1.5628 15.82108,0.5286 22.24482,0.3342 31,-0.9381 6.07399,-0.8826 17.34362,-2.2377 25.04362,-3.0112 7.7,-0.7735 17.15,-2.1886 21,-3.1445 4.52023,-1.1224 11.86149,-1.8304 20.72323,-1.9985 7.54778,-0.1432 16.07334,-0.5139 18.94569,-0.8238 2.87236,-0.3099 6.8219,-0.149 8.77677,0.3575 1.95487,0.5066 4.90431,1.1373 6.55431,1.4016 1.65,0.2644 6.825,1.3956 11.5,2.514 7.44106,1.78 13.10948,2.1087 45.5,2.639 50.88518,0.833 60.99064,0.7827 68.5,-0.3412 3.575,-0.5351 10.55,-1.0057 15.5,-1.0457 4.95,-0.04 11.025,-0.4256 13.5,-0.8567 2.475,-0.4312 12.825,-0.4143 23,0.037 61.2138,2.7175 76.8027,2.2826 86.4097,-2.4106 7.3148,-3.5734 10.8943,-3.6739 14.1705,-0.3977 2.1667,2.1667 2.4694,3.3005 2.3361,8.75 -0.084,3.4434 0.5071,9.2353 1.3139,12.8709 1.6941,7.6338 1.4279,18.6711 -0.8025,33.2657 -0.8301,5.4317 -1.2698,10.1153 -0.9772,10.408 0.2927,0.2926 0.063,1.0972 -0.5101,1.7879 -0.5732,0.6907 -1.115,5.9071 -1.2041,11.592 -0.094,6.0404 -0.6263,10.8149 -1.2794,11.4879 -0.6146,0.6335 -1.7564,4.9085 -2.5372,9.5 -1.7512,10.2977 -1.8183,44.30082 -0.094,47.52317 0.8842,1.65219 0.8357,2.91072 -0.2116,5.48467 -1.0582,2.601 -1.2907,9.3173 -1.0503,30.34046 0.3493,30.53409 0.3433,28.49176 0.1469,50 -0.08,8.8 0.2147,22.20855 0.6558,29.79679 1.1452,19.70345 2.4048,18.55541 -20.0737,18.29615 -16.5839,-0.19128 -18.0989,-0.36657 -22.2931,-2.57942 -3.5808,-1.88923 -6.2899,-2.4245 -13.2624,-2.62041 -4.8193,-0.13541 -10.2193,-0.69812 -12,-1.25046 -8.8274,-2.73816 -23.4425,-3.30949 -38.2376,-1.49477 -6.05,0.74207 -12.8,1.54794 -15,1.79081 -2.2,0.24287 -9.175,1.17181 -15.5,2.06432 -12.03538,1.69828 -29.16735,2.54477 -62.20301,3.07343 -10.83666,0.17342 -21.18666,0.55528 -23,0.84858 -1.81334,0.2933 -8.20608,0.78534 -14.20607,1.09343 -6,0.30808 -11.25492,0.77389 -11.67761,1.03512 -0.42268,0.26124 -5.63859,1.25605 -11.59091,2.2107 -8.19377,1.31414 -15.27416,1.65622 -29.15086,1.40838 -13.23282,-0.23634 -20.7393,0.096 -27,1.1953 -4.76935,0.83746 -12.04654,2.07191 -16.17154,2.74323 -4.125,0.67132 -8.625,1.64291 -10,2.1591 -1.375,0.51618 -4.50062,1.10964 -6.94582,1.31879 -4.3256,0.37 -13.54101,2.96385 -15.55418,4.37803 -1.26944,0.89173 -10.62184,2.76825 -16.5,3.31064 -2.475,0.22838 -11.25,0.0939 -19.5,-0.29877 z m 37,-11.9139 c 6.05,-1.81833 11.61073,-3.48122 12.35717,-3.6953 1.10199,-0.31606 1.19601,-2.31467 0.5,-10.62951 -0.47144,-5.63214 -0.85717,-17.32781 -0.85717,-25.99038 l 0,-15.75011 -10.5,-0.12751 c -5.775,-0.0701 -11.625,-0.25103 -13,-0.402 -1.375,-0.15097 -7.9,-0.43104 -14.5,-0.62238 l -12,-0.34788 0.31594,8.5 c 0.17377,4.675 0.93852,12.55 1.69945,17.5 0.76093,4.95 1.50519,15.00698 1.65392,22.34884 l 0.27041,13.34883 11.53014,-0.41327 c 9.3636,-0.33561 13.59706,-1.03448 22.53014,-3.71933 z m -28.00467,-11.0741 c -2.13808,-4.13458 -0.58501,-6.38945 11.85684,-17.21469 l 3.85217,-3.35164 -2.21808,-3.96232 c -1.21994,-2.17928 -2.6493,-4.23451 -3.17635,-4.56718 -0.52705,-0.33268 -0.81239,-2.13268 -0.63409,-4 0.28176,-2.95086 0.65132,-3.36211 2.82418,-3.14275 3.76045,0.37963 7,2.37233 7,4.30581 0,0.94613 0.84468,2.76337 1.87708,4.03832 l 1.87707,2.31809 4.20891,-1.89795 c 4.75813,-2.14562 7.30755,-1.36129 7.86763,2.42047 0.2371,1.60097 -0.81462,3.21322 -3.71633,5.69698 l -4.04702,3.4641 3.46633,6.53395 c 3.95143,7.44835 4.38972,10.36784 1.55647,10.36784 -1.68567,0 -7.63575,-5.37311 -11.29862,-10.20302 -1.20171,-1.58459 -1.46536,-1.5496 -3.79152,0.50329 -1.375,1.21347 -4.24171,4.34233 -6.37046,6.95302 -4.81373,5.90352 -8.66884,6.50517 -11.13421,1.73768 z m -16.22703,6.49685 c 0.42257,-3.8433 0.48723,-9.23782 0.14369,-11.98782 -0.34354,-2.75 -0.7627,-6.8 -0.93147,-9 -0.16877,-2.2 -0.54465,-5.8 -0.83529,-8 -1.33265,-10.0874 -2.01564,-17.23249 -1.89814,-19.85741 l 0.12791,-2.85742 -5.1875,0.62939 c -4.93384,0.59861 -26.80181,0.80685 -33.1875,0.31603 l -3,-0.23059 -0.10828,10.5 c -0.0595,5.775 -0.22526,16.41937 -0.36825,23.65417 -0.14298,7.23479 0.0372,13.63506 0.40051,14.22282 0.62866,1.0172 6.7948,3.03187 11.07602,3.61887 7.2808,0.99829 22.0759,3.89886 25.68857,5.03622 6.79318,2.13869 7.2147,1.82336 8.07973,-6.04426 z m -37.46447,-3.69543 c -0.9319,-0.71082 -2.00677,-2.58565 -2.3886,-4.1663 -0.6318,-2.61541 -0.0219,-3.51485 6.78095,-10 l 7.47519,-7.12609 -3.88747,-4.90173 c -4.70498,-5.93256 -4.91624,-9.91024 -0.55302,-10.41285 2.84559,-0.32779 5.32106,1.57601 9.37197,7.20765 l 2.08103,2.89307 4.64699,-1.7747 c 3.76449,-1.43767 4.93396,-1.53654 6.15806,-0.52063 2.32383,1.92861 1.83625,5.96556 -0.98893,8.18785 -1.375,1.08158 -2.5,2.46341 -2.5,3.07074 0,0.60732 1.61935,3.45546 3.59856,6.32919 2.46869,3.58442 3.39971,5.8515 2.96522,7.22046 -0.92631,2.91853 -3.5346,1.82207 -9.45387,-3.97417 l -5.10383,-4.99775 -3.93513,3.11668 c -2.16432,1.71417 -4.75319,4.79057 -5.75304,6.83643 -1.9901,4.07209 -5.4976,5.31299 -8.51408,3.01215 z m 117.69617,0.72092 c 5.5,-0.79752 11.40254,-1.86567 13.11675,-2.37366 1.71422,-0.50798 9.02672,-0.83737 16.25,-0.73198 l 13.13325,0.19164 0.0142,-5.54966 c 0.008,-3.05231 0.30001,-14.73386 0.64931,-25.95901 l 0.63508,-20.40935 -7.3993,0.6739 c -4.06962,0.37065 -9.64931,0.88486 -12.39931,1.14268 -2.75,0.25783 -10.85,0.93818 -18,1.51189 -15.29376,1.22716 -19.58769,1.7446 -20.28785,2.44476 -1.21479,1.21479 -1.34668,21.04214 -0.21648,32.54548 0.67546,6.875 1.17062,13.7375 1.10034,15.25 -0.15156,3.26188 -0.28926,3.2489 13.40399,1.26331 z m 66,-4.8704 c 4.42148,-0.69299 19.36712,-2.38902 32.75,-3.71646 9.64553,-0.95673 11.76702,-1.4575 11.84502,-2.79596 0.0523,-0.89677 0.18467,-3.88049 0.29426,-6.63049 0.10958,-2.75 0.58177,-12.01865 1.04929,-20.59701 l 0.85005,-15.597 -12.89431,-0.24576 c -7.09187,-0.13517 -20.65681,-0.36591 -30.14431,-0.51277 l -17.25,-0.26701 -0.16234,7.10978 c -0.18139,7.94387 -0.16074,31.24422 0.035,39.45232 l 0.12734,5.34255 5.25,-0.53599 c 2.8875,-0.2948 6.6,-0.74759 8.25,-1.0062 z m -2.45225,-5.59224 c -0.79874,-0.50529 -1.78851,-0.71089 -2.19948,-0.4569 -0.41097,0.254 -1.04569,-1.1292 -1.41049,-3.07376 -0.81339,-4.33573 1.60128,-7.87533 9.86274,-14.45753 l 5.56962,-4.43752 -1.47321,-3.52588 c -0.81026,-1.93924 -2.13104,-4.25279 -2.93507,-5.14122 -0.80402,-0.88844 -1.46186,-3.09866 -1.46186,-4.9116 0,-3.15848 0.13062,-3.27014 3.125,-2.67126 1.71875,0.34375 3.51117,0.625 3.98315,0.625 0.47199,0 2.04487,2.3625 3.4953,5.25 1.45044,2.8875 2.76441,5.39389 2.91995,5.56976 0.15553,0.17587 2.0139,-0.51495 4.12969,-1.53514 5.1164,-2.46704 9.14776,-1.92627 9.96677,1.33693 0.78106,3.11199 -2.56112,6.987 -6.83609,7.92594 -3.22558,0.70846 -3.22301,0.51313 -0.11417,8.68204 1.65831,4.35743 1.67261,4.85683 0.18182,6.34762 -1.29166,1.29166 -2.0451,1.38956 -3.73476,0.48529 -1.16416,-0.62305 -2.1189,-1.67947 -2.12163,-2.34762 -0.003,-0.66815 -1.01833,-2.48111 -2.25688,-4.0288 l -2.25192,-2.81398 -3.71252,2.81398 c -2.04189,1.54769 -3.9657,3.55131 -4.27512,4.45249 -0.68566,1.99694 -5.09699,6.86737 -6.20084,6.84618 -0.43876,-0.008 -1.45126,-0.42873 -2.25,-0.93402 z m 245.56785,0.29544 6.1157,-0.61023 0.4919,-7.11794 c 0.5569,-8.05988 -0.1045,-44.83256 -0.8193,-45.54737 -0.2568,-0.25681 -2.3652,0.12005 -4.6854,0.83746 -5.4731,1.69234 -19.2146,1.41527 -43.1845,-0.87072 -10.4313,-0.99483 -19.4793,-1.61179 -20.1068,-1.37102 -0.6274,0.24077 -0.991,1.65185 -0.8079,3.13574 0.1831,1.48388 -0.3097,6.29797 -1.0952,10.69797 -1.9327,10.82691 -2.7877,27.21903 -1.4624,28.03812 0.5687,0.35148 0.9,1.61169 0.7361,2.80047 -0.25,1.81429 0.2643,2.21113 3.2022,2.47102 1.925,0.17028 6.3917,0.96968 9.926,1.77643 3.5344,0.80676 9.8576,1.71232 14.0518,2.01237 4.1942,0.30005 10.7524,1.64474 14.574,2.9882 5.2384,1.84155 8.1786,2.31063 11.9482,1.90618 2.75,-0.29505 7.752,-0.81106 11.1156,-1.14668 z m -22.3782,-9.10867 c -1.1367,-1.13678 -3.6746,-4.58025 -5.6397,-7.65216 -1.9651,-3.0719 -3.8547,-5.58528 -4.1991,-5.58528 -1.3397,0 -9.1601,4.6729 -14.3986,8.60353 -4.286,3.21596 -5.973,3.95173 -7.643,3.33346 -2.039,-0.75489 -5.357,-4.54577 -5.357,-6.12054 0,-1.26146 4.2007,-4.81856 11.75,-9.94968 3.9875,-2.71025 7.25,-5.17577 7.25,-5.47895 0,-0.30317 -1.575,-2.47331 -3.5,-4.82252 -3.7014,-4.51706 -4.5032,-8.2431 -1.982,-9.21057 2.479,-0.95131 7.1899,1.59435 9.6681,5.22446 1.2726,1.86422 2.9037,3.6179 3.6246,3.89706 0.7209,0.27916 3.6459,-0.98308 6.5,-2.80497 9.2416,-5.89923 15.9906,-7.20584 19.1556,-3.70853 1.9956,2.20508 1.4684,4.74601 -1.1936,5.75353 -0.975,0.369 -3.8514,2.15879 -6.3921,3.97732 -2.5407,1.81852 -4.9803,3.3064 -5.4213,3.3064 -0.441,0 -1.6003,0.72264 -2.5763,1.60586 -1.6934,1.53257 -1.6695,1.77219 0.5252,5.25 3.8862,6.15835 5.1208,12.03841 3.1062,14.79363 -1.1109,1.51913 -1.3796,1.48534 -3.277,-0.41205 z m -141.54886,9.11309 8.18855,-0.63749 -3.93855,-4.67087 c -2.1662,-2.56899 -3.94543,-5.31692 -3.95385,-6.10653 -0.0419,-3.92511 -1.68131,-4.24059 -6.12152,-1.17794 -2.39974,1.65523 -5.22041,3.96189 -6.26816,5.1259 -2.49081,2.76724 -5.12422,2.6781 -8.07567,-0.27336 -3.16918,-3.16917 -2.39129,-5.65435 2.80791,-8.97065 2.29501,-1.46387 5.91233,-4.13521 8.03849,-5.93631 l 3.86574,-3.27473 -2.54887,-3.02916 c -1.40188,-1.66604 -2.69146,-4.34997 -2.86574,-5.96428 -0.30191,-2.79658 -0.11629,-2.94962 3.93294,-3.2426 3.94126,-0.28516 4.40219,-0.0492 6.34877,3.25 2.03259,3.44498 5.09641,4.66904 6.40142,2.55749 0.33992,-0.55 2.36115,-1 4.49163,-1 2.97048,0 4.0188,0.45749 4.49638,1.96223 0.61784,1.94662 -0.90096,6.0047 -2.27319,6.07373 -0.39315,0.0198 -1.9848,1.07508 -3.53699,2.34512 l -2.82217,2.30914 3.25453,8.40489 c 1.78999,4.62269 3.20044,9.19239 3.13432,10.15489 -0.0998,1.45332 0.74318,1.75 4.97263,1.75 5.07763,0 5.08727,-0.006 3.23004,-2.05836 -1.3306,-1.4703 -1.81395,-3.39875 -1.69182,-6.75 0.094,-2.5804 0.13022,-8.06664 0.0804,-12.19164 -0.0498,-4.125 -0.0599,-11.66437 -0.0225,-16.75415 0.0664,-9.03126 0.0153,-9.24145 -2.12261,-8.72675 -2.70289,0.65072 -9.4845,1.17936 -25.69063,2.00263 -14.58071,0.7407 -14.88677,0.80602 -14.87429,3.17459 0.005,0.99202 -0.3157,10.91618 -0.71318,22.05368 l -0.72268,20.25 8.40507,-0.006 c 4.6228,-0.003 12.08992,-0.29287 16.59362,-0.64348 z M 60.5,-858.37645 c 6.05,-0.78916 13.60138,-1.88876 16.78085,-2.44354 3.17947,-0.55479 8.57947,-1.31684 12,-1.69346 7.28874,-0.80253 10.03054,-1.1702 10.71915,-1.43741 0.275,-0.10671 1.4,-0.12899 2.5,-0.0495 1.88237,0.13603 2.00304,-0.48971 2.05163,-10.63931 0.0284,-5.93111 0.88605,-15.85117 1.90587,-22.04459 1.0199,-6.19342 1.5754,-11.53967 1.2345,-11.88055 -0.3409,-0.34089 -8.17352,0.41032 -17.40588,1.66933 -17.40102,2.37298 -32.69111,3.73581 -40.03867,3.5687 -4.07742,-0.0927 -4.27901,0.0445 -4.89494,3.33265 -0.35332,1.88616 -0.11054,9.08616 0.53951,16 0.65005,6.91385 1.27777,15.83228 1.39494,19.81874 0.11843,4.02933 0.65712,7.24492 1.21304,7.24095 0.55,-0.004 5.95,-0.65284 12,-1.44201 z m -273.24553,-44.20432 c 0.46172,-0.28536 0.7551,-15.1223 0.65197,-32.97098 l -0.18751,-32.45215 -4.10947,0.51098 c -2.2602,0.28104 -6.35946,0.75516 -9.10946,1.05361 -2.75,0.29845 -5.9,0.71887 -7,0.93427 -1.1,0.2154 -4.98399,0.71224 -8.63109,1.10409 -3.6471,0.39184 -7.09222,0.99743 -7.65583,1.34576 -1.49564,0.92435 -3.21308,23.7202 -3.21308,42.64761 l 0,16.40699 4.25,1.09241 c 2.3375,0.60083 4.7,1.251 5.25,1.44482 1.46789,0.51729 28.76836,-0.50796 29.75447,-1.11741 z m -33.69777,-10.56524 c -2.21791,-3.16651 -1.94536,-6.49912 0.6449,-7.88538 1.21088,-0.64805 4.38784,-3.33029 7.05991,-5.96054 l 4.85831,-4.78228 -2.22771,-5.32465 c -1.22524,-2.92855 -2.86664,-6.07866 -3.64756,-7.00024 -1.74565,-2.06006 -1.27243,-5.19535 0.84571,-5.60327 3.51101,-0.67615 6.97257,1.75963 8.90398,6.26544 2.04554,4.77204 3.99439,5.59602 7.30224,3.0874 2.1952,-1.66481 5.42953,-0.95443 6.7316,1.4785 0.94704,1.76956 0.37996,4.94273 -0.88507,4.9525 -0.35365,0.003 -1.99301,1.11709 -3.64301,2.47636 -1.90586,1.57004 -2.6122,2.75355 -1.93669,3.24503 0.58482,0.4255 2.09197,3.55882 3.34923,6.96294 2.02711,5.48857 2.12339,6.42132 0.85042,8.23874 l -1.43549,2.04944 -2.04676,-2.23874 c -1.12572,-1.23131 -2.7712,-3.6727 -3.65663,-5.42533 -0.88542,-1.75262 -2.03614,-3.45004 -2.55715,-3.77204 -0.52101,-0.32201 -3.69108,2.12446 -7.04461,5.43658 -6.55687,6.47593 -9.01942,7.29198 -11.46562,3.79954 z m 95.44186,-7.60649 c -7.9e-4,-9.71905 0.52687,-23.64583 1.17259,-30.94841 0.77102,-8.71965 0.8358,-13.61564 0.18872,-14.26272 -1.53238,-1.53238 -22.32956,-3.39026 -38.35987,-3.42681 l -14.5,-0.0331 0,32.5 0,32.5 14.5,0.71526 c 7.975,0.39339 16.3,0.84339 18.5,1 2.2,0.15661 7.2625,0.13669 11.25,-0.0443 l 7.25,-0.32901 -0.001,-17.67099 z m -13.2082,1.61645 c -1.91672,-4.0081 -3.94256,-8.41245 -4.50187,-9.78745 l -1.01693,-2.5 -5.56706,5.6803 c -3.06188,3.12417 -6.34014,6.86017 -7.28501,8.30223 -2.42274,3.69757 -7.33496,3.21358 -9.30544,-0.91684 l -1.39986,-2.93431 10.03614,-9.63077 c 11.02152,-10.57635 10.68406,-9.52276 5.51595,-17.22138 -1.8259,-2.71993 -2.31923,-4.43214 -1.83401,-6.3654 0.58949,-2.34871 1.0147,-2.57444 3.80013,-2.01735 3.52917,0.70583 6.7676,3.22863 6.7676,5.27208 0,0.74722 0.5625,2.36497 1.25,3.59501 0.6875,1.23004 1.28945,2.35088 1.33767,2.49077 0.0482,0.13988 1.51077,-0.4556 3.25012,-1.3233 4.2182,-2.10432 6.5908,-1.52746 6.96571,1.6936 0.22432,1.92724 -0.54266,3.31953 -2.93976,5.33656 l -3.24326,2.72902 2.54854,10.15489 c 2.42454,9.66082 2.45835,13.61243 0.12313,14.39084 -0.55926,0.18642 -2.58507,-2.9404 -4.50179,-6.9485 z m 48.70964,13.24969 c 5.5,-0.55521 14.05,-1.26204 19,-1.57075 14.70001,-0.91675 13.27453,0.68374 13.44325,-15.09369 0.0802,-7.50202 0.1791,-13.91739 0.21973,-14.25637 0.0406,-0.33898 0.0206,-6.49258 -0.0446,-13.67467 L -83,-963.54017 l -25.75,-0.28032 c -14.1625,-0.15417 -26.875,-0.35292 -28.25,-0.44166 -2.32785,-0.15024 -2.55422,0.25182 -3.28736,5.83865 -0.43306,3.3 -1.00536,16.96945 -1.27179,30.37655 l -0.48443,24.37654 8.27179,-0.60324 c 4.54948,-0.33179 12.77179,-1.0575 18.27179,-1.61271 z m -15.84501,-8.86588 c -3.84631,-4.25013 -0.53055,-9.35729 13.05698,-20.11126 3.57801,-2.83186 4.0556,-3.62579 3.17304,-5.27487 -1.74874,-3.26754 -4.83438,-13.1505 -4.86042,-15.56735 -0.0333,-3.09481 3.68034,-4.45722 6.72023,-2.46541 1.24035,0.81271 2.26201,2.4384 2.27036,3.61264 0.0243,3.41003 2.56722,10.99579 3.82688,11.41568 0.63349,0.21116 2.97057,-1.45311 5.19351,-3.69838 4.53827,-4.58385 5.75361,-4.88336 9.03469,-2.2265 2.04825,1.65857 2.16432,2.16341 1.09212,4.75 -0.65985,1.5918 -3.66632,4.68058 -6.68105,6.86396 -3.01473,2.18337 -5.48133,4.23484 -5.48133,4.55883 0,0.32398 1.575,3.2046 3.5,6.40138 3.90432,6.48377 4.27283,8.33623 1.84376,9.26835 -1.68063,0.64492 -3.93374,-1.42884 -9.4326,-8.68172 l -2.58883,-3.41463 -4.7247,3.87153 c -2.59859,2.12935 -5.36062,5.10127 -6.13785,6.60427 -3.08522,5.96616 -6.73213,7.48873 -9.80479,4.09348 z m 116.23912,-12.88232 c -0.0582,-10.88392 -0.39574,-23.83894 -0.75,-28.78894 l -0.64411,-9 -13,0.30482 c -7.15,0.16765 -15.475,0.4479 -18.5,0.62278 -3.025,0.17489 -10.0524,0.37522 -15.61645,0.44519 l -10.11646,0.12721 -0.48178,26.75 c -0.30431,16.89657 -0.12118,26.98567 0.49717,27.3898 0.53843,0.3519 10.23124,0.7005 21.53958,0.77468 11.30835,0.0742 20.71554,0.28979 20.90487,0.47912 0.18933,0.18933 3.92823,0.42075 8.30866,0.51426 L -15,-907.84563 Z M 26.5,-910.03648 c 4.95,-0.54347 9.28002,-1.30288 9.62227,-1.68758 0.34226,-0.38469 0.89869,-13.45196 1.23651,-29.03838 l 0.61424,-28.33894 -7.73651,0.50438 c -4.25508,0.27741 -14.39844,1.08264 -22.5408,1.78939 l -14.8043,1.28499 0.67073,18.54956 c 0.36889,10.20226 0.78981,18.68354 0.93536,18.8473 0.34382,0.38681 16.90658,-13.82643 17.3088,-14.85345 0.16847,-0.43016 -0.88113,-4.22239 -2.33243,-8.4272 -2.90155,-8.40656 -2.73304,-10.51709 0.83976,-10.51709 3.00814,0 4.93786,2.22831 7.21762,8.33444 1.65495,4.43265 2.01954,4.77881 4.38686,4.16501 5.01181,-1.29948 8.31001,-1.03761 9.45303,0.75055 1.42148,2.22378 0.10331,4.51626 -4.1687,7.25 -3.4983,2.23862 -4.04641,5.11682 -1.77976,9.34571 0.78247,1.45986 2.39762,4.79179 3.58921,7.40429 1.19159,2.6125 2.57638,4.75 3.07732,4.75 0.50093,0 0.91079,1.125 0.91079,2.5 0,1.97855 -0.50519,2.5 -2.42208,2.5 -2.99833,0 -8.67642,-6.36576 -11.75594,-13.17972 -1.19817,-2.65116 -2.56782,-4.82028 -3.04367,-4.82028 -0.47585,0 -5.07398,3.6 -10.21806,8 -5.14408,4.4 -9.84953,8 -10.45656,8 -1.16094,0 -1.56715,7.2032 -0.46819,8.30217 0.77301,0.77301 19.51632,-0.0594 31.8645,-1.41515 z m 61.77334,-5.59349 c 19.32446,-2.5716 19.78756,-2.68811 20.40116,-5.13289 0.6492,-2.58642 0.9043,-23.78053 0.5362,-44.54172 L 109,-977.18566 l -10.25,0.57378 c -5.6375,0.31558 -13.62084,1.05083 -17.74076,1.63389 -4.11991,0.58306 -9.29491,1.25134 -11.5,1.48506 -5.55205,0.58847 -21.83197,3.55883 -22.35126,4.07811 -0.23423,0.23424 -0.64869,13.2534 -0.92103,28.93148 l -0.49516,28.5056 11.3791,-0.51046 c 6.25851,-0.28074 20.27711,-1.69454 31.15245,-3.14177 z m -30.80872,-9.738 c -1.63354,-1.63354 -2.2234,-3.04344 -1.77808,-4.25 0.83271,-2.25619 6.44701,-9.47957 11.65337,-14.99327 3.66333,-3.87959 3.86833,-4.3953 2.78596,-7.00838 -0.64259,-1.55134 -2.73378,-4.5294 -4.6471,-6.6179 -3.96636,-4.32952 -4.32452,-6.16298 -1.49929,-7.675 3.35473,-1.7954 6.99103,-0.0566 10.71137,5.12178 3.8505,5.35962 5.12504,5.83315 7.78605,2.89277 2.6128,-2.88712 5.03313,-3.33026 8.47312,-1.55137 4.23489,2.18994 3.81411,4.60223 -1.45002,8.31273 -2.475,1.74454 -4.49806,3.74367 -4.4957,4.4425 0.002,0.69884 1.80237,3.64224 4,6.5409 4.63128,6.10861 5.18569,9.22971 1.6395,9.22971 -2.67389,0 -11.04637,-6.00074 -12.06077,-8.64421 -0.5715,-1.48933 -1.22071,-1.16632 -4.42016,2.19924 -2.06265,2.16973 -5.45643,6.30747 -7.54174,9.19497 -2.08531,2.8875 -4.4486,5.25 -5.25175,5.25 -0.80316,0 -2.5603,-1.10001 -3.90476,-2.44447 z m 125.22218,7.31525 5.4516,-1.22001 -0.2145,-7.57538 c -0.118,-4.16647 0.091,-15.38743 0.4633,-24.93549 0.3727,-9.54805 0.4078,-18.21055 0.078,-19.25 -0.6537,-2.05958 -3.8061,-2.47116 -7.6714,-1.00158 -1.5397,0.58542 -6.08,0.24746 -13.3151,-0.99112 -6.239,-1.06807 -15.9433,-1.89358 -22.4786,-1.91218 -6.325,-0.018 -13.3,-0.46071 -15.5,-0.9838 -2.2,-0.52308 -5.4087,-0.69735 -7.1305,-0.38727 l -3.1305,0.5638 0.3729,23.66112 c 0.2051,13.01362 0.3763,25.47783 0.3805,27.69823 l 0.01,4.03711 12.25,1.35902 c 26.5117,2.94122 40.3353,3.19818 50.4368,0.93755 z M -82.90157,-971.4235 c 0.0545,0 0.48906,-11.25 0.96578,-25 0.47671,-13.75 1.15168,-27.8125 1.49992,-31.25 l 0.63318,-6.25 -10.84866,-0.097 c -23.91504,-0.2136 -39.11535,0.5077 -40.51608,1.9227 -0.36708,0.3708 -0.96938,3.1492 -1.33844,6.1742 -1.05578,8.6537 -1.28525,10.3914 -3.96157,30.00001 -3.24551,23.77897 -3.24555,23.77472 0.21744,24.22366 1.5125,0.19608 14.11236,0.33847 27.9997,0.31643 13.88733,-0.022 25.29426,-0.0401 25.34873,-0.0401 z m -45.32017,-10.18388 c -0.94696,-0.24854 -2.16079,-2.04199 -2.69741,-3.98546 -0.95382,-3.45448 -0.84599,-3.65364 4.81661,-8.89622 3.18576,-2.94944 6.87459,-6.24084 8.19741,-7.31434 l 2.40513,-1.9516 -3.75,-6.9539 c -2.0625,-3.8246 -3.75,-8.1375 -3.75,-9.5842 0,-2.3291 0.39277,-2.6304 3.42857,-2.6304 4.12844,0 5.74188,1.4652 8.20289,7.4491 2.05954,5.0078 3.18749,5.5134 5.81724,2.6076 0.96728,-1.0689 3.14854,-2.2486 4.84725,-2.6217 2.4827,-0.5453 3.44318,-0.2404 4.89631,1.5541 2.63466,3.2537 2.29701,4.2726 -2.6422,7.9734 -2.44746,1.8338 -4.67773,3.9278 -4.95615,4.6534 -0.27842,0.7255 0.82956,5.01826 2.46217,9.53939 2.0688,5.72906 2.65091,8.53772 1.9208,9.26783 -1.72245,1.72245 -6.05376,-1.44592 -8.78069,-6.42312 -1.35601,-2.475 -2.61764,-4.67525 -2.80362,-4.88945 -0.58718,-0.67629 -7.50797,5.0266 -8.15903,6.72323 -0.83158,2.16706 -5.24588,6.19561 -6.62956,6.05022 -0.60719,-0.0638 -1.87876,-0.31935 -2.82572,-0.56788 z m 16.68062,-46.38262 c -0.36253,-0.5866 -0.4085,-1.3172 -0.10214,-1.6236 0.82264,-0.8226 3.64326,0.4615 3.64326,1.6587 0,1.3573 -2.69711,1.3305 -3.54112,-0.035 z m 61.93517,55.56154 c 9.95827,-0.37633 20.13095,-0.82125 22.60595,-0.98871 2.475,-0.16747 5.89486,-0.3499 7.59968,-0.40541 l 3.09968,-0.10092 0.69796,-9.75 c 0.38388,-5.3625 0.89236,-12.45 1.12996,-15.75 0.80878,-11.2328 1.61608,-16.991 3.54544,-25.2887 1.06,-4.5588 1.92728,-8.7833 1.92728,-9.3877 0,-0.7466 -1.80162,-0.8872 -5.61846,-0.4386 -3.09015,0.3632 -16.98367,0.6566 -30.87449,0.652 l -25.25603,-0.01 -0.59208,3.7357 c -0.81779,5.1596 -1.52638,18.3987 -2.15667,40.29403 l -0.53422,18.55841 3.16002,-0.21877 c 1.73801,-0.12033 11.3077,-0.52668 21.26598,-0.90302 z m -10.93219,-11.75126 c -5.3921,-2.94869 -4.70481,-6.6918 2.53814,-13.82316 3.3,-3.24922 6,-6.63672 6,-7.52792 0,-0.8912 -0.95657,-3.4817 -2.12572,-5.7566 -1.16914,-2.2748 -2.51914,-4.9175 -3,-5.8725 -2.04161,-4.0549 -0.28809,-7.7636 3.67073,-7.7636 2.71327,0 5.25975,2.7771 6.02038,6.5656 0.32403,1.6139 1.21863,3.7932 1.988,4.8429 1.34914,1.8406 1.57611,1.7844 6.38539,-1.5823 5.51667,-3.8619 10.28249,-4.1498 12.11182,-0.7317 1.41679,2.6473 -0.65278,5.5438 -5.8105,8.1321 -2.34295,1.1758 -4.98381,2.9377 -5.86859,3.9154 -1.48794,1.6441 -1.41101,2.1149 1.02504,6.27168 1.44855,2.47176 3.58337,5.15928 4.74405,5.97225 1.59678,1.11843 1.95349,2.10305 1.46582,4.0461 -1.13846,4.53595 -6.67134,2.6545 -11.62121,-3.95177 l -3.21396,-4.28946 -4.55653,5.1546 c -6.14271,6.94897 -7.32621,7.7254 -9.75286,6.39838 z m -164.47521,10.18221 c 6.86766,-1.13628 12.54437,-2.14697 12.61491,-2.24598 0.57617,-0.80867 1.78802,-25.00681 1.39844,-27.92391 l -0.5,-3.7439 -4.75,4.0717 c -2.6125,2.2394 -4.74181,4.8242 -4.7318,5.74391 0.01,0.9197 1.36001,3.65241 3,6.07267 3.28252,4.84428 3.56862,6.1127 1.7818,7.89952 -2.00592,2.00592 -3.51543,1.3942 -8.14322,-3.3 -2.43999,-2.475 -4.87074,-4.5 -5.40167,-4.5 -1.07318,0 -10.24492,10.06541 -10.25116,11.25 -0.007,1.36726 -4.73715,0.7764 -6.00395,-0.75 -2.21197,-2.66526 -3,-1.61455 -3,4 l 0,5.5 5.75,-0.004 c 3.1625,-0.002 11.36899,-0.93371 18.23665,-2.06998 z m 77.71555,-9.93349 c 0.6966,-5.22087 1.49655,-10.8425 1.77766,-12.4925 0.28112,-1.65 1.19075,-9.075 2.02141,-16.5 0.83066,-7.425 1.75646,-14.6829 2.05733,-16.1288 0.4882,-2.3459 0.1998,-2.6797 -2.68104,-3.1025 -1.77545,-0.2606 -6.63672,-0.2211 -10.80282,0.088 -4.16611,0.3089 -15.79703,0.6273 -25.84649,0.7076 -10.04946,0.08 -18.45267,0.327 -18.67381,0.5482 -0.55932,0.5593 -3.122,47.81472 -2.75967,50.88775 l 0.29477,2.5 12.70523,0.10393 c 12.18768,0.0997 20.3189,0.70351 32.20523,2.39154 8.66039,1.22991 8.29116,1.57253 9.7022,-9.00297 z M 13,-974.93352 c 4.675,-0.54716 12.18462,-1.02974 16.68804,-1.07241 l 8.18804,-0.0776 0.56454,-5.16999 c 0.31049,-2.84349 0.78287,-8.54499 1.04973,-12.66999 0.26686,-4.125 1.16488,-13.79999 1.99559,-21.49999 0.83071,-7.7 1.51121,-15.7242 1.51222,-17.8315 l 0.002,-3.8315 -19.25,0.5283 c -10.5875,0.2905 -20.21631,0.5522 -21.39735,0.5814 -1.85105,0.046 -2.30405,0.9532 -3.28309,6.5752 -0.62466,3.5871 -1.58153,7.6945 -2.12638,9.1275 -0.54485,1.4331 -1.19901,5.5857 -1.45369,9.2281 -0.25467,3.6424 -0.74193,8.8015 -1.08279,11.46468 -0.61868,4.83392 -0.61571,4.84009 1.73678,3.61587 1.29609,-0.67447 5.43911,-3.69678 9.20671,-6.71625 7.65389,-6.134 7.78048,-6.6744 3.67482,-15.6869 -2.54845,-5.5942 -2.53224,-6.0028 0.28902,-7.2882 3.95155,-1.8005 8.02908,1.5173 9.15378,7.4482 0.33531,1.7682 0.92972,3.4108 1.32092,3.6503 0.3912,0.2394 3.34752,-1.5813 6.5696,-4.0461 6.38497,-4.8844 9.89786,-5.238 11.20245,-1.1276 0.72555,2.286 0.75033,2.258 -10.91684,12.3085 l -4.64344,4 0.79007,7.67651 c 0.79666,7.74058 0.0285,10.82348 -2.697,10.82348 -0.65227,0 -2.40859,-2.73805 -3.90293,-6.08456 l -2.71698,-6.08456 -4.98683,3.83456 c -7.44186,5.72233 -9.21302,6.55147 -11.44412,5.35742 C -6.56387,-989.83082 -7,-989.13206 -7,-981.4235 l 0,7.5 5.75,-0.008 c 3.1625,-0.004 9.575,-0.45527 14.25,-1.00243 z m 43.06634,-3.98226 c 16.48893,-3.01118 33.66609,-5.37386 42.93366,-5.90544 l 10.5,-0.60228 0.642,-15 c 0.3531,-8.25 1.1843,-18.9489 1.8472,-23.7753 0.663,-4.8265 0.958,-9.42 0.6556,-10.208 -0.461,-1.2012 -5.3104,-1.4193 -30.03099,-1.3503 l -29.48125,0.082 -0.59921,6.6257 c -0.32957,3.6441 -1.01611,10.0006 -1.52565,14.1256 -1.13154,9.1605 -1.71471,15.06813 -2.51721,25.50003 -0.33848,4.4 -0.84263,8.7875 -1.12034,9.75 -0.59758,2.07113 0.8252,2.1951 8.69619,0.75772 z M 188.1542,-997.9235 c -0.2475,-11.0956 0.1068,-18.0574 1.2468,-24.5 0.8759,-4.95 1.594,-10.2977 1.5958,-11.8839 l 0,-2.8838 -15.75,0.7249 c -8.6625,0.3987 -23.7998,0.8812 -33.6384,1.0723 -9.8387,0.191 -18.2281,0.7126 -18.6433,1.1589 -0.7306,0.7856 -1.3886,10.1236 -2.4312,34.50607 -0.275,6.43196 -0.6209,12.27942 -0.7686,12.99437 -0.3603,1.74444 8.5982,2.51625 38.7315,3.33686 13.2,0.35947 24.2082,0.8589 24.4626,1.10985 0.2544,0.25095 1.6044,0.32311 3,0.16036 l 2.5406,-0.29591 z m -35.6871,9.0365 c -1.6681,-1.07692 -4.0441,-3.32569 -5.28,-4.99726 -1.2358,-1.67158 -2.8172,-3.03924 -3.5141,-3.03924 -0.6969,0 -3.0248,1.8 -5.173,4 -4.5537,4.66336 -8.4757,5.30042 -10.9433,1.77749 -2.5122,-3.58664 -1.8756,-4.97959 4.8817,-10.68259 7.2014,-6.0778 7.1831,-5.3536 0.3599,-14.2388 -3.2964,-4.2925 -3.5738,-7.3707 -0.7983,-8.8561 2.8434,-1.5217 5.2161,0.024 10.0224,6.5303 3.8436,5.203 6.3817,6.7575 7.1702,4.3919 0.1976,-0.5928 2.8226,-1.9167 5.8333,-2.9419 4.613,-1.5708 5.7887,-1.6578 7.4741,-0.5527 1.1,0.7212 2.1532,2.0852 2.3405,3.0311 0.3716,1.8765 -3.4651,6.5413 -5.38,6.5413 -1.9347,0 -6.4605,4.0127 -6.4605,5.7282 0,0.8707 1.175,3.12354 2.6111,5.0064 2.9638,3.88566 3.7496,9.53029 1.3889,9.97644 -0.825,0.15592 -2.8648,-0.59763 -4.5329,-1.67454 z m -387.29667,-12.4227 c 0.77245,-1.3271 -2.98805,-10.6138 -4.29792,-10.6138 -0.47988,0 -0.87251,-1.3197 -0.87251,-2.9326 0,-5.9979 7.70865,-4.519 11.10053,2.1297 1.06707,2.0916 2.27844,3.8029 2.69195,3.8029 0.41351,0 2.4391,-1.3908 4.50133,-3.0907 4.04455,-3.3338 9.52539,-4.8199 10.70963,-2.9037 0.39765,0.6434 1.04601,-2.5331 1.4408,-7.0588 0.52683,-6.0395 0.3944,-8.4285 -0.4978,-8.9799 -0.66857,-0.4132 -4.19253,-0.8073 -7.83101,-0.8758 -3.63849,-0.069 -9.99043,-0.3439 -14.11543,-0.6122 -4.125,-0.2682 -9.30451,-0.2258 -11.51003,0.094 l -4.01003,0.582 -0.11789,20.907 -0.11789,20.90694 6.12792,-5.10169 c 3.37036,-2.80593 6.42961,-5.62005 6.79835,-6.25355 z m 25.95852,-41.8638 c 0.0709,-1.7875 0.24738,-4.375 0.39214,-5.75 0.14476,-1.375 0.5201,-8.9286 0.83409,-16.7857 0.314,-7.8571 0.83689,-14.7161 1.16198,-15.2421 0.3251,-0.526 0.13041,-1.7474 -0.43263,-2.7143 -0.92543,-1.5891 -1.02663,-1.5499 -1.05412,0.4088 -0.0167,1.1916 -0.37685,2.3166 -0.80027,2.5 -0.42343,0.1833 -3.51736,3.7168 -6.87541,7.8522 -5.98394,7.3692 -6.09595,7.6189 -5.62321,12.5388 0.3782,3.936 0.11062,5.3284 -1.2392,6.4487 -1.5215,1.2627 -1.93148,1.1695 -3.52806,-0.8022 -0.99358,-1.227 -2.05332,-2.7874 -2.35498,-3.4676 -0.3863,-0.871 -0.92702,-0.6842 -1.82887,0.632 -4.34798,6.3452 -7.52258,7.7227 -11.03041,4.7863 -2.80792,-2.3505 -2.0886,-4.2915 3.89258,-10.504 l 5.63133,-5.8491 -1.2388,-5.6509 c -1.02702,-4.6849 -2.68079,-9.3539 -4.72544,-13.3413 -0.19471,-0.3797 0.60692,-1.5856 1.78139,-2.6798 2.02314,-1.8849 2.31347,-1.9045 5.52218,-0.3744 2.51188,1.1978 3.38676,2.2592 3.38676,4.1088 0,2.7389 2.07736,9.1515 2.95089,9.1092 0.30201,-0.015 2.41776,-2.6553 4.70166,-5.8681 4.44388,-6.2514 6.58636,-7.0629 10.28254,-3.8947 2.45915,2.1078 2.89778,1.468 2.89995,-4.2303 9.4e-4,-2.4642 0.72231,-7.5839 1.60303,-11.3773 0.88073,-3.7933 1.45523,-7.043 1.27668,-7.2216 -0.17854,-0.1785 -6.14991,-0.5632 -13.26969,-0.8549 -7.11978,-0.2916 -15.87006,-0.9516 -19.44506,-1.4666 -3.575,-0.5151 -8.23979,-1.1694 -10.3662,-1.4542 l -3.86619,-0.5177 0.6884,3.206 c 1.26198,5.8772 1.74408,16.9753 1.89468,43.617 l 0.14931,26.411 7.5,-0.1257 c 4.125,-0.069 10.425,0.2468 14,0.7021 3.575,0.4554 8.8625,0.8895 11.75,0.9648 l 5.25,0.1368 z m 67.87319,1.5765 c 0.41531,-0.4546 1.28365,-9.804 1.92963,-20.7766 0.64599,-10.9725 1.56543,-23.3475 2.04321,-27.5 0.47778,-4.1524 1.15894,-11.9773 1.5137,-17.3885 0.60277,-9.1944 0.52604,-9.8048 -1.17184,-9.322 -2.06664,0.5877 -9.92672,1.3795 -22.31684,2.2482 -4.675,0.3277 -12.1,1.229 -16.5,2.0028 -4.4,0.7738 -10.10133,1.4075 -12.66963,1.4082 l -4.66964,0 -1.56019,4.75 c -2.11252,6.4316 -2.98536,15.6328 -4.52964,47.75 -0.59044,12.2797 -0.50552,17.2158 0.30585,17.7773 1.48386,1.0269 56.65009,0.1167 57.62539,-0.9508 z m -27.68033,-17.0765 c -1.6571,-2.0625 -3.76897,-5.2125 -4.69304,-7 -0.92407,-1.7875 -1.85525,-3.25 -2.06928,-3.25 -0.21403,0 -2.04646,2.2577 -4.07206,5.0171 -2.0256,2.7594 -4.62285,5.5202 -5.77166,6.135 -1.78765,0.9567 -2.42155,0.702 -4.3973,-1.7671 -1.26969,-1.5868 -2.31077,-3.5122 -2.3135,-4.2788 -0.003,-0.7665 3.14503,-4.4757 6.99503,-8.2426 3.85,-3.767 7,-7.59 7,-8.4957 0,-0.9057 -1.3397,-3.824 -2.97712,-6.4851 -3.71309,-6.0346 -3.20418,-8.0587 1.82599,-7.2628 4.73787,0.7497 4.56764,0.6072 7.06048,5.9105 1.40728,2.9939 2.56145,4.3114 3.36612,3.8426 0.67349,-0.3924 3.10561,-1.9869 5.40471,-3.5433 4.86515,-3.2935 5.14986,-3.3376 8.12036,-1.257 l 2.24555,1.5729 -2.20719,3.9271 c -1.21395,2.16 -2.76479,3.9272 -3.44632,3.9272 -0.68152,0 -2.62366,1.165 -4.31585,2.5889 -3.54946,2.9867 -4.05009,7.066 -1.46179,11.9111 3.04623,5.7024 3.4386,8.401 1.38154,9.5019 -2.52507,1.3514 -2.284,1.4683 -5.67467,-2.7519 z m 89.59733,15.1642 c 0.26637,-0.2664 0.80137,-3.281 1.18888,-6.6993 0.38751,-3.4182 1.17547,-9.3649 1.75102,-13.2149 0.57555,-3.85 1.31709,-9.925 1.64785,-13.5 0.33076,-3.575 1.00645,-9.65 1.50153,-13.5 0.49508,-3.85 1.03322,-11.7134 1.19586,-17.4741 l 0.29572,-10.4741 -5.5,-1.2385 c -3.64485,-0.8207 -11.90871,-1.1316 -24.5,-0.9218 -18.22416,0.3036 -21.8009,0.5761 -22.97491,1.7501 -0.90956,0.9095 -2.38088,10.9412 -2.98593,20.3584 -0.31803,4.95 -0.79657,10.575 -1.06342,12.5 -0.61146,4.4109 -1.14018,12.1595 -2.04215,29.9283 l -0.71191,14.0246 25.85658,-0.5272 c 14.22111,-0.29 26.07451,-0.7451 26.34088,-1.0115 z m -21.3642,-13.0059 c -2.50522,-3.0754 -4.56495,-6.1129 -4.57718,-6.75 -0.0122,-0.6371 -0.83308,-2.2125 -1.82411,-3.5009 l -1.80188,-2.3425 -4.57865,5.0925 c -2.51825,2.8009 -5.01171,5.0926 -5.54102,5.0926 -2.05289,0 -6.2321,-4.2551 -6.2321,-6.3452 0,-1.3476 1.5956,-3.5473 4.11821,-5.6774 2.26502,-1.9126 5.10076,-4.5016 6.30166,-5.7533 l 2.18345,-2.2759 -2.80453,-8.3848 c -1.54249,-4.6117 -2.53009,-9.1 -2.19467,-9.9741 0.75308,-1.9625 6.67954,-2.1574 8.245,-0.2711 0.60171,0.725 1.60486,3.7625 2.22923,6.75 0.62437,2.9875 1.49665,5.8188 1.93841,6.2918 0.90596,0.97 8.22741,-3.7975 11.90755,-7.7538 4.29175,-4.6138 11.05965,-2.6628 9.69023,2.7935 -0.33484,1.3341 -2.97259,4.2608 -5.86167,6.5039 -2.88908,2.2431 -5.73121,4.4716 -6.31586,4.9521 -0.58464,0.4806 -2.01947,1.3857 -3.18852,2.0113 -2.0743,1.1101 -2.08661,1.252 -0.51041,5.8853 0.88832,2.6112 3.06853,7.2185 4.8449,10.2384 2.41383,4.1036 2.9919,5.9351 2.28821,7.25 -1.5701,2.9337 -3.54654,2.0229 -8.31625,-3.8324 z m 86.34612,13.6708 5.40106,-0.079 -0.72665,-10.25 c -1.96761,-27.7548 -1.77325,-38.7162 1.00902,-56.9045 l 0.55902,-3.6544 -3.82175,0.022 c -8.4143,0.049 -41.13283,-1.1777 -45.82176,-1.7184 -4.69964,-0.5419 -5.00407,-0.4389 -5.06778,1.7142 -0.11453,3.8707 -1.42465,21.0312 -1.969,25.7907 -0.28307,2.475 -0.70326,7.2 -0.93376,10.5 -0.41036,5.8749 -2.98512,25.876 -4.14349,32.1872 l -0.58499,3.1872 25.34951,-0.3581 c 13.94223,-0.1969 27.77999,-0.3937 30.75057,-0.4372 z m 40.7076,-2.1426 17.10867,-0.095 0.69366,-13.6708 c 0.38152,-7.5189 1.35418,-16.5503 2.16147,-20.0697 0.8073,-3.5193 1.21744,-7.1877 0.91144,-8.1518 -0.306,-0.9641 0.13493,-6.3764 0.97986,-12.0273 0.84493,-5.6508 1.53543,-11.2075 1.53443,-12.3481 -0.002,-2.0371 -0.43494,-2.0769 -24.42238,-2.2473 -19.14353,-0.136 -24.52754,0.1053 -24.91557,1.1165 -0.27225,0.7094 -1.25231,6.1194 -2.17791,12.0221 -1.58062,10.0798 -1.71795,30.6325 -0.21473,32.1358 1.69106,1.691 14.7324,-8.9689 14.7324,-12.0422 0,-1.1705 -0.9,-4.6888 -2,-7.8185 -1.1,-3.1297 -2,-7.0775 -2,-8.7728 0,-3.008 0.10267,-3.0751 4.25,-2.775 l 4.25,0.3075 1.65238,6.819 c 0.90881,3.7505 1.80881,6.9643 2,7.1417 0.19119,0.1775 3.96491,-2.0958 8.38604,-5.0517 9.13905,-6.1102 13.30328,-7.4244 15.7554,-4.9723 2.71834,2.7183 0.15179,6.7656 -6.38789,10.0734 -5.90699,2.9877 -13.90702,9.4853 -13.87888,11.2723 0.0149,0.9447 1.32582,4.762 2.91319,8.483 2.55216,5.9825 2.71434,6.9372 1.40152,8.25 -0.81654,0.8165 -1.89201,1.4846 -2.38994,1.4846 -1.299,0 -8.95182,-9.908 -8.95182,-11.5898 0,-3.3636 -3.04304,-1.2279 -8.243,5.7851 -0.69135,0.9324 -2.42758,1.9768 -3.85829,2.321 -2.11731,0.5094 -3.12069,0.01 -5.3929,-2.6918 l -2.79161,-3.3176 0.67389,6.9965 c 0.37064,3.8481 0.93321,8.7357 1.25016,10.8612 l 0.57627,3.8646 4.64274,-0.5989 c 2.55351,-0.3293 12.34164,-0.6416 21.7514,-0.6938 z m 86.06234,-0.2742 c 0.1797,-0.1796 0.5576,-3.4396 0.84,-7.2445 0.2823,-3.8048 0.733,-8.7178 1.0014,-10.9178 0.7408,-6.0719 3.4721,-43.4917 3.4804,-47.6826 0.01,-2.9347 -0.4498,-3.8342 -2.2428,-4.4288 -4.1186,-1.3659 -55.71418,0.1484 -57.11066,1.6761 -0.21883,0.2394 -0.73165,4.9353 -1.1396,10.4353 -0.40795,5.5 -0.87935,11.8 -1.04755,14 -0.1682,2.2 -0.75743,7.825 -1.3094,12.5 -0.55196,4.675 -1.3028,13.7638 -1.66853,20.1972 l -0.66497,11.6973 5.84536,0.4345 c 6.24395,0.4641 53.46845,-0.1188 54.01635,-0.6667 z m -52.40984,-16.2011 -3.53884,-3.5389 7.24186,-6.7111 c 7.11589,-6.5945 7.22928,-6.7773 6.51835,-10.5103 -0.39794,-2.0895 -1.30619,-4.3817 -2.01834,-5.0939 -0.71215,-0.7121 -1.60593,-3.3694 -1.98618,-5.9051 -0.66111,-4.4086 -0.57351,-4.6398 2.00237,-5.2863 3.82755,-0.9607 7.70282,2.2078 8.99328,7.3531 1.37275,5.4734 2.17939,6.0388 4.8065,3.3692 4.10172,-4.1681 13.13267,-9.3476 16.46304,-9.442 2.94796,-0.083 6.12229,2.2189 6.225,4.5151 0.0456,1.0201 -3.64925,4.3128 -8.38444,7.4718 -6.64451,4.4329 -12.58376,9.3769 -12.58376,10.4752 0,0.5632 1.59294,2.8851 3.53986,5.1596 6.97783,8.152 1.46773,11.2072 -7.28186,4.0376 l -4.5699,-3.7447 -5.30065,5.6948 c -2.91536,3.1321 -5.59018,5.6947 -5.94405,5.6947 -0.35387,0 -2.23588,-1.5925 -4.18224,-3.5388 z m 104.56014,15.1727 c 3.4768,-0.7284 9.5518,-1.1345 13.5,-0.9025 3.9483,0.232 8.9787,0.03 11.1787,-0.4484 l 4,-0.8703 0.6843,-6.4563 c 0.3764,-3.551 1.1597,-9.6064 1.7407,-13.4564 3.0171,-19.9919 3.3197,-28.0763 1.456,-38.9063 -0.8607,-5.0015 -1.763,-9.2957 -2.0051,-9.5425 -0.2421,-0.2469 -2.5632,0.1217 -5.158,0.8189 -6.639,1.7839 -30.3511,3.1186 -38.7932,2.1835 -3.8914,-0.431 -11.1455,-0.866 -16.1203,-0.9667 l -9.045,-0.183 -0.5274,13.7981 c -0.29,7.5889 -1.0926,22.9537 -1.7835,34.1439 -1.0714,17.3552 -1.0497,20.4766 0.1477,21.2347 2.2111,1.3999 33.5525,1.0561 40.7251,-0.4467 z"
       style="fill:#dab" />
  </g>
</svg>
