<?xml version="1.0" encoding="UTF-8" standalone="no"?>
<svg
   xmlns:dc="http://purl.org/dc/elements/1.1/"
   xmlns:cc="http://creativecommons.org/ns#"
   xmlns:rdf="http://www.w3.org/1999/02/22-rdf-syntax-ns#"
   xmlns:svg="http://www.w3.org/2000/svg"
   xmlns="http://www.w3.org/2000/svg"
   version="1.1"
   id="svg4301"
   viewBox="0 0 605.08824 369.98474"
   height="104.41792mm"
   width="170.76935mm">
  <defs
     id="defs4303" />
  <metadata
     id="metadata4306">
    <rdf:RDF>
      <cc:Work
         rdf:about="">
        <dc:format>image/svg+xml</dc:format>
        <dc:type
           rdf:resource="http://purl.org/dc/dcmitype/StillImage" />
        <dc:title></dc:title>
      </cc:Work>
    </rdf:RDF>
  </metadata>
  <g
     transform="translate(-834.813,-544.86221)"
     id="layer1">
    <path
       id="path4320"
       d="m 930.6386,912.2732 c -2.23538,-2.38724 -2.40267,-3.26398 -2.14658,-11.25 0.15276,-4.76354 0.4407,-18.33599 0.63987,-30.16099 0.39966,-23.72766 1.2725,-37.05471 2.6671,-40.72279 1.35439,-3.56231 1.11012,-12.54065 -0.40279,-14.8047 -0.96728,-1.44753 -1.27787,-6.09785 -1.167,-17.47251 0.14749,-15.13093 1.38105,-24.92829 4.02904,-32 1.24948,-3.33685 3.28045,-23.59481 3.10792,-31 -0.14797,-6.35066 1.47548,-35.39705 2.0284,-36.29168 0.29807,-0.48229 0.54195,-3.70349 0.54195,-7.15822 0,-6.54321 -2.0969,-11.5501 -4.83723,-11.5501 -0.76174,0 -1.38499,-0.44087 -1.38499,-0.97971 0,-0.53885 -1.80471,-3.35135 -4.01047,-6.25 -2.20575,-2.89866 -4.56825,-6.52542 -5.25,-8.05948 -0.68174,-1.53405 -2.25203,-3.04533 -3.48953,-3.3584 -1.2375,-0.31308 -2.25,-0.95607 -2.25,-1.42888 0,-0.47281 -1.22046,-1.49912 -2.71213,-2.28068 -2.50801,-1.31409 -2.97839,-1.22241 -6.25,1.21806 -1.94583,1.4515 -5.87479,4.94666 -8.73102,7.76702 -4.19653,4.14383 -6.06318,5.2584 -9.72669,5.80778 -2.49345,0.37391 -4.74225,1.01755 -4.99734,1.43029 -0.25509,0.41274 -3.54771,0.64703 -7.31694,0.52063 -6.3836,-0.21407 -12.76828,-2.06197 -24.04981,-6.96067 -1.80616,-0.78428 -4.16866,-1.42596 -5.25,-1.42596 -1.08134,0 -1.97651,-0.3375 -1.98927,-0.75 -0.0128,-0.4125 -1.53694,-2.43007 -3.38705,-4.48349 -4.84196,-5.37402 -8.68748,-15.66964 -9.33543,-24.99375 -0.32734,-4.71042 -0.12902,-8.22415 0.50797,-9 0.57473,-0.70002 1.35761,-3.97276 1.73973,-7.27276 0.64783,-5.59462 2.06473,-9.27554 7.85775,-20.4133 1.48628,-2.85754 5.0612,-6.62258 10.14113,-10.68046 6.36726,-5.0862 8.83989,-6.43846 13.12185,-7.17618 12.02682,-2.07207 23.75176,2.26006 33.20869,12.26994 6.00256,6.35352 12.06275,13.65648 13.5831,16.36859 0.50299,0.89727 1.22397,1.85641 1.60217,2.13141 1.2913,0.93894 3.92716,7.49263 8.0427,19.99704 3.20059,9.72444 3.87212,12.88294 3.02686,14.23643 -1.31061,2.09861 -1.40447,3.76653 -0.21196,3.76653 1.49445,0 7.61185,6.34708 9.15622,9.5 4.19753,8.56949 9.92754,14.45026 9.98724,10.25 0.01,-0.6875 0.50611,-5.3 1.10297,-10.25 0.59686,-4.95 1.22626,-17.81223 1.39865,-28.58274 0.1724,-10.77051 0.82613,-21.4867 1.45274,-23.81376 1.56682,-5.81873 3.01023,-19.37653 2.19321,-20.60061 -0.65232,-0.97731 -0.78783,-8.16893 -0.37115,-19.69713 0.15428,-4.26867 0.7691,-6.34488 2.45581,-8.29316 2.02202,-2.3356 2.56477,-2.48839 5.35663,-1.50792 4.4091,1.54842 5.9417,4.80382 4.42507,9.39927 -0.77345,2.34358 -1.09154,8.97625 -0.90428,18.85567 0.20962,11.05919 -0.0661,15.88349 -1.00483,17.5845 -1.79635,3.25489 -3.16682,24.77842 -2.07061,32.51912 0.57843,4.08443 0.53175,7.5372 -0.13158,9.73331 -0.5654,1.8719 -1.43516,8.35345 -1.9328,14.40345 -0.49764,6.05 -1.15788,13.025 -1.46721,15.5 -0.50042,4.00398 -0.43123,4.22443 0.62768,2 0.65455,-1.375 1.73243,-3.85 2.39529,-5.5 0.66286,-1.65 2.83421,-7.05 4.82521,-12 3.9913,-9.92309 10.31536,-33.89354 11.21267,-42.5 1.02058,-9.78885 3.53248,-21.30386 6.54423,-30 1.6191,-4.675 3.61507,-10.75 4.43548,-13.5 0.82041,-2.75 1.92982,-5.78139 2.46535,-6.73643 0.53554,-0.95504 0.98897,-2.98004 1.00763,-4.5 0.0187,-1.51996 0.90339,-4.56357 1.96607,-6.76357 1.06268,-2.2 1.94741,-4.53186 1.96607,-5.18191 0.0542,-1.8871 5.58834,-5.31809 8.57804,-5.31809 6.2063,0 7.2898,8.30896 1.7995,13.79929 -0.7373,0.73731 -1.5974,2.5466 -1.9113,4.02064 -0.3139,1.47404 -0.9896,3.71374 -1.5015,4.97712 -0.512,1.26338 -0.9308,3.86501 -0.9308,5.78139 0,2.16238 -0.5646,3.70099 -1.48817,4.05539 -1.53601,0.58942 -6.09198,14.11936 -5.09139,15.11995 0.30921,0.30921 0.15344,1.05473 -0.34616,1.65671 -2.47399,2.98097 -5.28679,12.66643 -5.54388,19.08951 -0.1541,3.85 -1.44216,11.5 -2.86237,17 -1.42021,5.5 -3.29136,13.47125 -4.15812,17.71389 -0.86676,4.24264 -2.86276,10.31764 -4.43555,13.5 -4.79613,9.70436 -8.07437,18.09758 -8.07437,20.67264 0,1.34574 -0.35184,2.5968 -0.78186,2.78014 -1.07038,0.45634 -9.21814,12.83205 -9.21814,14.00152 0,0.51715 -1.34792,2.37837 -2.99537,4.13604 -1.70292,1.81685 -2.99737,4.29605 -3,5.74577 -0.003,1.4025 -0.56713,3.11228 -1.25463,3.79952 -0.9213,0.92094 -1.29122,7.55679 -1.40677,25.2352 -0.11272,17.24635 -0.50071,24.4001 -1.38086,25.46062 -1.00818,1.21479 -0.21827,2.7881 4.47852,8.92018 3.13643,4.09488 6.5823,7.72445 7.65749,8.06571 1.0752,0.34125 2.73023,1.82383 3.67785,3.29461 2.01434,3.12643 5.28163,6.09346 6.76233,6.14089 0.57121,0.0183 2.73017,0.8957 4.79769,1.94979 2.80348,1.42929 4.50827,1.70166 6.70591,1.07139 2.52596,-0.72444 3.37056,-0.42134 5.9143,2.12239 4.19825,4.19826 4.85786,8.82429 1.93956,13.6028 -1.27199,2.08279 -2.9243,4.25305 -3.6718,4.82279 -0.7475,0.56975 -2.56624,2.87539 -4.04166,5.12366 -1.47541,2.24827 -4.48256,6.36798 -6.68256,9.15492 -2.2,2.78694 -5.575,7.21962 -7.5,9.85039 -1.925,2.63078 -4.90644,6.16545 -6.62542,7.85484 -1.71899,1.68938 -4.06176,4.90695 -5.20615,7.15016 -2.07657,4.07041 -7.27345,9.23515 -9.49516,9.43644 -0.6453,0.0585 -2.06377,0.17096 -3.15217,0.25 -2.76161,0.20054 -3.11583,3.73331 -2.5211,25.1437 0.61558,22.16083 -0.64769,27.44096 -6.57569,27.48469 -1.14162,0.008 -3.16662,-1.14974 -4.5,-2.5737 z m 17.14206,-70.57223 c 2.4385,-2.83869 6.79805,-7.67619 9.68789,-10.75 2.88984,-3.07382 5.94533,-7.04467 6.78997,-8.82413 0.84464,-1.77945 3.31773,-5.29431 5.49574,-7.81081 2.17802,-2.5165 3.96003,-5.15757 3.96003,-5.86905 0,-0.71147 -3.2625,-4.1666 -7.25,-7.67806 -3.9875,-3.51147 -9.61965,-8.81984 -12.51588,-11.79639 -2.89623,-2.97654 -5.50597,-5.1718 -5.79942,-4.87836 -0.29344,0.29345 -0.9519,4.5238 -1.46324,9.40079 -0.82677,7.88543 -1.17991,12.61074 -2.38158,31.86725 -0.17161,2.75 -0.57109,6.125 -0.88773,7.5 -1.1244,4.88266 -1.70694,14 -0.89452,14 0.45381,0 2.82024,-2.32256 5.25874,-5.16124 z M 896.31837,653.30173 c 4.41982,-3.95572 8.29331,-8.37228 9.1265,-10.40606 0.79616,-1.9434 3.0791,-5.22637 5.07319,-7.29549 3.4918,-3.62317 3.57657,-3.88155 2.29658,-7 -0.73098,-1.78088 -1.56934,-4.58797 -1.86303,-6.23797 -0.58337,-3.27746 -8.61396,-14.63294 -14.88397,-21.04636 -2.17573,-2.2255 -5.50781,-4.62527 -7.40461,-5.33282 -1.89681,-0.70756 -4.92651,-1.9242 -6.73267,-2.70364 -1.80616,-0.77945 -4.64456,-1.41718 -6.30755,-1.41718 -4.67746,0 -16.90852,7.43651 -16.90852,10.28041 0,0.51248 -1.34568,2.63085 -2.99041,4.70748 -1.79232,2.26299 -3.59887,6.32707 -4.50913,10.1439 -0.8353,3.50252 -1.93743,7.71821 -2.44918,9.36821 -2.75796,8.8923 -1.50315,19.34914 3.11998,26 4.65326,6.6942 18.72284,10.905 29.98322,8.9735 6.32948,-1.0857 7.27106,-1.60921 14.4496,-8.03398 z m 494.22913,252.70271 c -2.4549,-2.1934 -3.7058,-4.69252 -5.3807,-10.75 -4.0902,-14.79215 -8.4947,-27.78138 -9.975,-29.41711 -0.8126,-0.89793 -1.4775,-2.08046 -1.4775,-2.62784 0,-0.54738 -1.575,-3.21051 -3.5,-5.91806 -2.0197,-2.8408 -3.5,-6.12209 -3.5,-7.75841 0,-1.55957 -1.35,-5.91144 -3,-9.67081 -1.65,-3.75937 -3,-7.21646 -3,-7.68242 0,-0.46596 -0.84,-2.41553 -1.8667,-4.33239 -1.0267,-1.91685 -2.2075,-5.06019 -2.6242,-6.98519 -0.9825,-4.53934 -4.4761,-12 -5.6192,-12 -1.1484,0 -1.13,8.81617 0.034,16.5 0.5,3.3 1.1861,9.14611 1.5246,12.99136 0.3384,3.84525 1.0218,8.57025 1.5185,10.5 0.4968,1.92975 1.4424,6.87867 2.1014,10.9976 0.659,4.11893 1.76,8.39393 2.4466,9.5 0.6866,1.10607 1.5455,4.03604 1.9087,6.51104 0.3632,2.475 1.5817,7.60905 2.7078,11.40901 2.4203,8.16724 1.9258,14.95451 -1.2119,16.63374 -1.5432,0.8259 -2.8546,0.51421 -6.1891,-1.47098 -4.0983,-2.43996 -4.2681,-2.74706 -5.4147,-9.79535 -1.5057,-9.25592 -2.2628,-12.77722 -3.2846,-15.27642 -3.9648,-9.69707 -7.5283,-30.79411 -8.53,-50.5 -0.3216,-6.325 -0.992,-13.075 -1.49,-15 -1.502,-5.80638 -1.8263,-17.47537 -0.571,-20.54632 1.1362,-2.77965 0.9147,-3.08206 -9.8111,-13.39876 -6.0354,-5.8052 -14.1149,-13.81742 -17.9544,-17.80492 -3.8395,-3.9875 -7.7727,-7.25 -8.7402,-7.25 -2.2514,0 -7.8412,8.19892 -15.8434,23.23864 -3.4352,6.45625 -6.6432,11.98424 -7.1289,12.28441 -1.2804,0.79133 -11.9627,22.70125 -11.9627,24.53607 0,0.8517 -1.6249,3.09932 -3.611,4.99471 -1.986,1.89539 -4.485,5.24617 -5.5535,7.44617 -1.0684,2.2 -3.4906,6.7 -5.3826,10 -3.7734,6.5815 -8.4529,16.29223 -8.4529,17.5411 0,0.43573 -0.3375,0.94223 -0.75,1.12557 -0.4125,0.18333 -2.0887,2.35833 -3.7248,4.83333 -1.6361,2.475 -4.7963,6.975 -7.0227,10 -2.2263,3.025 -4.7127,6.85 -5.5252,8.5 -0.8125,1.65 -2.4573,4.47745 -3.6551,6.28321 -1.1979,1.80577 -2.4913,4.73077 -2.8744,6.5 -0.3831,1.76924 -1.45,4.34179 -2.3709,5.71679 -0.9209,1.375 -2.2053,3.7375 -2.8542,5.25 -1.6634,3.87707 -5.4838,3.68238 -9.2791,-0.47286 -3.5237,-3.85801 -3.61,-4.96279 -0.7492,-9.59169 2.4315,-3.9343 5.1654,-8.87541 9.5461,-17.25326 1.6012,-3.0623 5.4336,-8.97842 8.5163,-13.14693 3.0828,-4.16851 6.7511,-9.8407 8.1518,-12.60486 1.4007,-2.76416 3.7237,-6.74804 5.1623,-8.85307 1.4386,-2.10503 4.4201,-7.42733 6.6257,-11.82733 2.2056,-4.4 5.1452,-10.15589 6.5325,-12.79087 2.7813,-5.28238 2.2278,-7.64341 -0.8694,-3.70913 -1.0824,1.375 -3.9793,4.66956 -6.4375,7.32125 -2.4582,2.65168 -5.2436,6.02668 -6.1897,7.5 -2.9092,4.53016 -12.1053,16.38781 -17.2005,22.17875 -2.6616,3.025 -6.5701,8.05751 -8.6856,11.18336 -2.1155,3.12585 -5.5339,7.49374 -7.5964,9.70644 -2.0625,2.21269 -3.75,4.43758 -3.75,4.94419 0,0.50662 -0.675,1.48132 -1.5,2.16601 -0.825,0.68469 -1.5,2.01135 -1.5,2.94813 0,0.93678 -1.125,2.76012 -2.5,4.05187 -1.375,1.29175 -2.5,3.0049 -2.5,3.80702 0,1.86489 -3.8176,5.20271 -5.903,5.16118 -2.2619,-0.0451 -4.812,-2.19025 -6.5222,-5.4866 -1.3825,-2.66489 -1.3047,-3.03653 1.3417,-6.40532 1.5452,-1.96695 3.5165,-4.95905 4.3805,-6.64911 0.8641,-1.69006 2.2714,-3.65399 3.1272,-4.36429 0.8559,-0.71029 3.4101,-4.05252 5.6761,-7.42716 2.266,-3.37465 5.1819,-7.26072 6.4797,-8.63572 4.4093,-4.67144 8.42,-9.76093 8.42,-10.68467 0,-0.50635 1.7324,-2.69694 3.8497,-4.86798 2.1174,-2.17104 6.1827,-7.32235 9.034,-11.44735 10.16,-14.69829 12.0821,-17.13176 18.3862,-23.27795 8.1656,-7.96109 13.3452,-15.08293 18.7074,-25.72205 6.0215,-11.94718 11.6171,-21.42018 13.6351,-23.08342 0.9452,-0.77912 3.2616,-3.82383 5.1474,-6.76598 l 3.4288,-5.3494 4.317,0.64738 c 2.5765,0.38637 4.5715,0.23562 4.9482,-0.37384 0.3471,-0.56167 2.2052,-1.76815 4.129,-2.68107 5.2624,-2.49714 8.1015,-1.0752 19.1805,9.60633 16.4719,15.881 32.3931,30.47118 33.8351,31.00657 3.465,1.28644 17.3984,14.32967 24.4016,22.84258 5.0684,6.16102 7.3151,7.16124 12.5481,5.58635 2.3358,-0.70299 5.6365,-1.9967 7.3347,-2.87492 2.5956,-1.34223 3.8474,-1.41095 7.8525,-0.43108 6.4844,1.58643 10.4554,3.68837 20.4895,10.84556 9.6436,6.8786 13.0275,11.12908 16.2872,20.45762 1.2406,3.55041 3.2919,8.13207 4.5585,10.18145 2.0076,3.2483 2.271,4.83435 2.0537,12.36723 -0.2233,7.73901 -0.6392,9.40934 -3.984,16.00066 -2.0541,4.04778 -4.3884,7.69598 -5.1874,8.1071 -9.4597,4.86737 -12.6195,5.95888 -18.9546,6.54766 -6.8604,0.63761 -8.113,0.39113 -14.3456,-2.82274 -1.016,-0.52394 -2.0333,-0.76663 -2.2607,-0.53932 -0.5178,0.51781 1.8766,7.23957 3.9986,11.22528 2.1133,3.96939 2.0226,5.70509 -0.4631,8.86514 -2.6401,3.3564 -4.1344,3.31525 -8.0942,-0.22291 z m 27.6011,-30.1124 c 5.7995,-2.81032 10.4025,-10.17552 11.2145,-17.94396 0.5323,-5.09238 0.2557,-6.80284 -1.8258,-11.29359 -1.3493,-2.91075 -3.4305,-7.42978 -4.6251,-10.04228 -1.1945,-2.6125 -2.8091,-4.75 -3.5879,-4.75 -0.7788,0 -2.7313,-1.63957 -4.3389,-3.64349 -2.3263,-2.89977 -3.6961,-3.69044 -6.7108,-3.87346 -3.0771,-0.18683 -4.4756,-1.0286 -7.4537,-4.48634 l -3.6658,-4.25636 -4.4082,2.12982 c -2.4246,1.17141 -5.4105,2.12983 -6.6354,2.12983 -1.4826,0 -3.5927,1.71511 -6.3121,5.13063 -3.5275,4.43025 -4.0851,5.80014 -4.0851,10.03518 0,2.69751 0.6719,5.93005 1.4932,7.18343 0.8212,1.25338 2.4424,5.17044 3.6026,8.70457 1.1602,3.53413 3.0473,7.7803 4.1935,9.43594 4.0398,5.83523 11.9239,14.51025 13.1872,14.51025 0.7032,0 1.8388,0.675 2.5235,1.5 1.8824,2.26812 12.3669,1.98537 17.4343,-0.47017 z"
       style="fill:#dab" />
  </g>
</svg>
